0
SECTION
2
HEADER
9
$LUNITS
70
2
9
$INSUNITS
70
4
0
ENDSEC
0
SECTION
2
BLOCKS
0
BLOCK
8
0
2
0
70
0
10
0.0000
20
0.0000
0
POLYLINE
8
1
66
1
70
1
0
VERTEX
8
1
10
256.713
20
-457.924
0
VERTEX
8
1
10
296.713
20
-472.924
0
VERTEX
8
1
10
296.713
20
-317.924
0
VERTEX
8
1
10
256.713
20
-302.924
0
VERTEX
8
1
10
216.713
20
-317.924
0
VERTEX
8
1
10
216.712
20
-472.924
0
VERTEX
8
1
10
256.713
20
-457.924
0
SEQEND
8
1
0
POINT
8
4
10
256.713
20
-457.924
30
10
50
90
0
POINT
8
2
10
256.713
20
-457.924
0
TEXT
8
2
10
256.713
20
-457.924
40
10.00
1
#145
0
POINT
8
2
10
296.713
20
-472.924
0
TEXT
8
2
10
296.713
20
-472.924
40
10.00
1
#146
0
POINT
8
2
10
296.713
20
-317.924
0
TEXT
8
2
10
296.713
20
-317.924
40
10.00
1
#147
0
POINT
8
4
10
256.713
20
-302.924
30
10
50
270
0
POINT
8
2
10
256.713
20
-302.924
0
TEXT
8
2
10
256.713
20
-302.924
40
10.00
1
#148
0
POINT
8
2
10
216.713
20
-317.924
0
TEXT
8
2
10
216.713
20
-317.924
40
10.00
1
#149
0
POINT
8
2
10
216.712
20
-472.924
0
TEXT
8
2
10
216.712
20
-472.924
40
10.00
1
#150
0
POINT
8
2
10
256.713
20
-457.924
0
TEXT
8
2
10
256.713
20
-457.924
40
10.00
1
#145
0
LINE
8
7
10
277.539
20
-377.268
11
236.879
21
-377.268
0
POINT
8
2
10
277.539
20
-377.268
0
TEXT
8
2
10
277.539
20
-377.268
40
10.00
1
#1
0
POINT
8
2
10
236.879
20
-377.268
0
TEXT
8
2
10
236.879
20
-377.268
40
10.00
1
#1
0
TEXT
8
1
10
236.879
20
-366.268
40
10.00
1
PIECE NAME: FLTCZ
0
TEXT
8
1
10
236.879
20
-355.268
40
10.00
1
SIZE: 1
0
TEXT
8
1
10
236.879
20
-344.268
40
10.00
1
ANNOTATION: 
0
TEXT
8
1
10
236.879
20
-333.268
40
10.00
1
QUANTITY: 1
0
TEXT
8
1
10
236.879
20
-322.268
40
10.00
1
MATERIAL: ÇÝZÝM
0
ENDBLK
0
BLOCK
8
0
2
1
70
0
10
0.0000
20
0.0000
0
POLYLINE
8
1
66
1
70
1
0
VERTEX
8
1
10
131.875
20
-674.103
0
VERTEX
8
1
10
197.163
20
-672.121
0
VERTEX
8
1
10
190.8
20
-638.897
0
VERTEX
8
1
10
183.063
20
-590.384
0
VERTEX
8
1
10
176.236
20
-537.073
0
VERTEX
8
1
10
171.036
20
-484.12
0
VERTEX
8
1
10
167.977
20
-438.026
0
VERTEX
8
1
10
167.056
20
-403.668
0
VERTEX
8
1
10
167.614
20
-377.673
0
VERTEX
8
1
10
170.199
20
-333.778
0
VERTEX
8
1
10
174.98
20
-281.682
0
VERTEX
8
1
10
181.52
20
-227.959
0
VERTEX
8
1
10
189.126
20
-178.106
0
VERTEX
8
1
10
197.163
20
-135.215
0
VERTEX
8
1
10
131.875
20
-133.233
0
VERTEX
8
1
10
122.561
20
-139.955
0
VERTEX
8
1
10
110.519
20
-150.135
0
VERTEX
8
1
10
100.701
20
-160.441
0
VERTEX
8
1
10
92.462
20
-171.368
0
VERTEX
8
1
10
85.506
20
-183.264
0
VERTEX
8
1
10
79.683
20
-196.462
0
VERTEX
8
1
10
74.963
20
-211.275
0
VERTEX
8
1
10
71.381
20
-228.052
0
VERTEX
8
1
10
71.073
20
-230.258
0
VERTEX
8
1
10
69.784
20
-246.592
0
VERTEX
8
1
10
69.998
20
-266.548
0
VERTEX
8
1
10
72.194
20
-293.56
0
VERTEX
8
1
10
73.844
20
-312.028
0
VERTEX
8
1
10
75.596
20
-347.985
0
VERTEX
8
1
10
76.191
20
-403.668
0
VERTEX
8
1
10
75.957
20
-442.565
0
VERTEX
8
1
10
74.629
20
-482.992
0
VERTEX
8
1
10
72.194
20
-513.777
0
VERTEX
8
1
10
70.501
20
-532.395
0
VERTEX
8
1
10
69.675
20
-554.227
0
VERTEX
8
1
10
69.888
20
-563.363
0
VERTEX
8
1
10
71.381
20
-579.284
0
VERTEX
8
1
10
73.478
20
-590.004
0
VERTEX
8
1
10
77.781
20
-605.523
0
VERTEX
8
1
10
83.191
20
-619.291
0
VERTEX
8
1
10
89.721
20
-631.649
0
VERTEX
8
1
10
97.459
20
-642.905
0
VERTEX
8
1
10
106.632
20
-653.393
0
VERTEX
8
1
10
117.73
20
-663.544
0
VERTEX
8
1
10
131.875
20
-674.103
0
SEQEND
8
1
0
POINT
8
2
10
131.875
20
-674.103
0
TEXT
8
2
10
131.875
20
-674.103
40
10.00
1
#153
0
POINT
8
2
10
197.163
20
-672.121
0
TEXT
8
2
10
197.163
20
-672.121
40
10.00
1
#154
0
POINT
8
3
10
190.8
20
-638.897
0
POINT
8
3
10
183.063
20
-590.384
0
POINT
8
3
10
176.236
20
-537.073
0
POINT
8
3
10
171.036
20
-484.12
0
POINT
8
3
10
167.977
20
-438.026
0
POINT
8
4
10
167.056
20
-403.668
30
10
50
180
0
POINT
8
2
10
167.056
20
-403.668
0
TEXT
8
2
10
167.056
20
-403.668
40
10.00
1
#155
0
POINT
8
3
10
167.614
20
-377.673
0
POINT
8
3
10
170.199
20
-333.778
0
POINT
8
3
10
174.98
20
-281.682
0
POINT
8
3
10
181.52
20
-227.959
0
POINT
8
3
10
189.126
20
-178.106
0
POINT
8
2
10
197.163
20
-135.215
0
TEXT
8
2
10
197.163
20
-135.215
40
10.00
1
#156
0
POINT
8
2
10
131.875
20
-133.233
0
TEXT
8
2
10
131.875
20
-133.233
40
10.00
1
#157
0
POINT
8
3
10
122.561
20
-139.955
0
POINT
8
3
10
110.519
20
-150.135
0
POINT
8
3
10
100.701
20
-160.441
0
POINT
8
3
10
92.462
20
-171.368
0
POINT
8
3
10
85.506
20
-183.264
0
POINT
8
3
10
79.683
20
-196.462
0
POINT
8
3
10
74.963
20
-211.275
0
POINT
8
3
10
71.381
20
-228.052
0
POINT
8
3
10
71.073
20
-230.258
0
POINT
8
3
10
69.784
20
-246.592
0
POINT
8
3
10
69.998
20
-266.548
0
POINT
8
4
10
72.194
20
-293.56
30
10
50
6.11936937621946
0
POINT
8
2
10
72.194
20
-293.56
0
TEXT
8
2
10
72.194
20
-293.56
40
10.00
1
#158
0
POINT
8
3
10
73.844
20
-312.028
0
POINT
8
3
10
75.596
20
-347.985
0
POINT
8
4
10
76.191
20
-403.668
30
10
50
0
0
POINT
8
2
10
76.191
20
-403.668
0
TEXT
8
2
10
76.191
20
-403.668
40
10.00
1
#159
0
POINT
8
3
10
75.957
20
-442.565
0
POINT
8
3
10
74.629
20
-482.992
0
POINT
8
4
10
72.194
20
-513.777
30
10
50
353.880630623781
0
POINT
8
2
10
72.194
20
-513.777
0
TEXT
8
2
10
72.194
20
-513.777
40
10.00
1
#160
0
POINT
8
3
10
70.501
20
-532.395
0
POINT
8
2
10
69.675
20
-554.227
0
TEXT
8
2
10
69.675
20
-554.227
40
10.00
1
#161
0
POINT
8
3
10
69.888
20
-563.363
0
POINT
8
3
10
71.381
20
-579.284
0
POINT
8
3
10
73.478
20
-590.004
0
POINT
8
3
10
77.781
20
-605.523
0
POINT
8
3
10
83.191
20
-619.291
0
POINT
8
3
10
89.721
20
-631.649
0
POINT
8
3
10
97.459
20
-642.905
0
POINT
8
3
10
106.632
20
-653.393
0
POINT
8
3
10
117.73
20
-663.544
0
POINT
8
2
10
131.875
20
-674.103
0
TEXT
8
2
10
131.875
20
-674.103
40
10.00
1
#153
0
LINE
8
7
10
152.375
20
-343.344
11
102.374
21
-343.344
0
POINT
8
2
10
152.375
20
-343.344
0
TEXT
8
2
10
152.375
20
-343.344
40
10.00
1
#1
0
POINT
8
2
10
102.374
20
-343.344
0
TEXT
8
2
10
102.374
20
-343.344
40
10.00
1
#1
0
TEXT
8
1
10
102.374
20
-332.344
40
10.00
1
PIECE NAME: YKCZ
0
TEXT
8
1
10
102.374
20
-321.344
40
10.00
1
SIZE: 1
0
TEXT
8
1
10
102.374
20
-310.344
40
10.00
1
ANNOTATION: 
0
TEXT
8
1
10
102.374
20
-299.344
40
10.00
1
QUANTITY: 1
0
TEXT
8
1
10
102.374
20
-288.344
40
10.00
1
MATERIAL: ÇÝZÝM
0
ENDBLK
0
BLOCK
8
0
2
2
70
0
10
0.0000
20
0.0000
0
POLYLINE
8
1
66
1
70
1
0
VERTEX
8
1
10
1922.743
20
-1351.939
0
VERTEX
8
1
10
1942.743
20
-1391.939
0
VERTEX
8
1
10
2283.923
20
-1391.939
0
VERTEX
8
1
10
2283.923
20
-1341.939
0
VERTEX
8
1
10
2283.923
20
-1301.94
0
VERTEX
8
1
10
2283.679
20
-1245.53
0
VERTEX
8
1
10
2281.849
20
-1147.355
0
VERTEX
8
1
10
2277.7
20
-1023.461
0
VERTEX
8
1
10
1993.175
20
-1034.139
0
VERTEX
8
1
10
1718.642
20
-1044.442
0
VERTEX
8
1
10
1508.79
20
-1052.318
0
VERTEX
8
1
10
1368.888
20
-1057.569
0
VERTEX
8
1
10
1369.344
20
-1060.442
0
VERTEX
8
1
10
1369.769
20
-1069.573
0
VERTEX
8
1
10
1368.606
20
-1078.306
0
VERTEX
8
1
10
1365.861
20
-1086.769
0
VERTEX
8
1
10
1361.451
20
-1095.044
0
VERTEX
8
1
10
1355.221
20
-1103.185
0
VERTEX
8
1
10
1346.959
20
-1111.207
0
VERTEX
8
1
10
1336.443
20
-1119.045
0
VERTEX
8
1
10
1323.524
20
-1126.552
0
VERTEX
8
1
10
1319.109
20
-1128.876
0
VERTEX
8
1
10
1273.811
20
-1150.619
0
VERTEX
8
1
10
1252.669
20
-1161.722
0
VERTEX
8
1
10
1236.941
20
-1171.62
0
VERTEX
8
1
10
1213.557
20
-1187.74
0
VERTEX
8
1
10
1188.224
20
-1206.928
0
VERTEX
8
1
10
1165.416
20
-1226.146
0
VERTEX
8
1
10
1144.886
20
-1245.482
0
VERTEX
8
1
10
1126.458
20
-1264.981
0
VERTEX
8
1
10
1109.934
20
-1284.744
0
VERTEX
8
1
10
1111.955
20
-1293.984
0
VERTEX
8
1
10
1113.332
20
-1307.758
0
VERTEX
8
1
10
1113.349
20
-1331.673
0
VERTEX
8
1
10
1113.57
20
-1351.951
0
VERTEX
8
1
10
1213.57
20
-1351.948
0
VERTEX
8
1
10
1922.743
20
-1351.939
0
SEQEND
8
1
0
POINT
8
2
10
1922.743
20
-1351.939
0
TEXT
8
2
10
1922.743
20
-1351.939
40
10.00
1
#166
0
POINT
8
2
10
1942.743
20
-1391.939
0
TEXT
8
2
10
1942.743
20
-1391.939
40
10.00
1
#167
0
POINT
8
2
10
2283.923
20
-1391.939
0
TEXT
8
2
10
2283.923
20
-1391.939
40
10.00
1
#168
0
POINT
8
4
10
2283.923
20
-1341.939
30
10
50
180
0
POINT
8
2
10
2283.923
20
-1341.939
0
TEXT
8
2
10
2283.923
20
-1341.939
40
10.00
1
#169
0
POINT
8
2
10
2283.923
20
-1301.94
0
TEXT
8
2
10
2283.923
20
-1301.94
40
10.00
1
#170
0
POINT
8
3
10
2283.679
20
-1245.53
0
POINT
8
3
10
2281.849
20
-1147.355
0
POINT
8
2
10
2277.7
20
-1023.461
0
TEXT
8
2
10
2277.7
20
-1023.461
40
10.00
1
#171
0
POINT
8
4
10
1993.175
20
-1034.139
30
10
50
272.143362830942
0
POINT
8
2
10
1993.175
20
-1034.139
0
TEXT
8
2
10
1993.175
20
-1034.139
40
10.00
1
#172
0
POINT
8
4
10
1718.642
20
-1044.442
30
10
50
272.143362830942
0
POINT
8
2
10
1718.642
20
-1044.442
0
TEXT
8
2
10
1718.642
20
-1044.442
40
10.00
1
#173
0
POINT
8
4
10
1508.79
20
-1052.318
30
10
50
272.143362830942
0
POINT
8
2
10
1508.79
20
-1052.318
0
TEXT
8
2
10
1508.79
20
-1052.318
40
10.00
1
#174
0
POINT
8
2
10
1368.888
20
-1057.569
0
TEXT
8
2
10
1368.888
20
-1057.569
40
10.00
1
#175
0
POINT
8
3
10
1369.344
20
-1060.442
0
POINT
8
3
10
1369.769
20
-1069.573
0
POINT
8
3
10
1368.606
20
-1078.306
0
POINT
8
3
10
1365.861
20
-1086.769
0
POINT
8
3
10
1361.451
20
-1095.044
0
POINT
8
3
10
1355.221
20
-1103.185
0
POINT
8
3
10
1346.959
20
-1111.207
0
POINT
8
3
10
1336.443
20
-1119.045
0
POINT
8
4
10
1323.524
20
-1126.552
30
10
50
298.866516222873
0
POINT
8
2
10
1323.524
20
-1126.552
0
TEXT
8
2
10
1323.524
20
-1126.552
40
10.00
1
#176
0
POINT
8
3
10
1319.109
20
-1128.876
0
POINT
8
3
10
1273.811
20
-1150.619
0
POINT
8
3
10
1252.669
20
-1161.722
0
POINT
8
4
10
1236.941
20
-1171.62
30
10
50
302.940044971459
0
POINT
8
2
10
1236.941
20
-1171.62
0
TEXT
8
2
10
1236.941
20
-1171.62
40
10.00
1
#177
0
POINT
8
3
10
1213.557
20
-1187.74
0
POINT
8
3
10
1188.224
20
-1206.928
0
POINT
8
3
10
1165.416
20
-1226.146
0
POINT
8
3
10
1144.886
20
-1245.482
0
POINT
8
3
10
1126.458
20
-1264.981
0
POINT
8
2
10
1109.934
20
-1284.744
0
TEXT
8
2
10
1109.934
20
-1284.744
40
10.00
1
#178
0
POINT
8
3
10
1111.955
20
-1293.984
0
POINT
8
3
10
1113.332
20
-1307.758
0
POINT
8
3
10
1113.349
20
-1331.673
0
POINT
8
2
10
1113.57
20
-1351.951
0
TEXT
8
2
10
1113.57
20
-1351.951
40
10.00
1
#179
0
POINT
8
2
10
1213.57
20
-1351.948
0
TEXT
8
2
10
1213.57
20
-1351.948
40
10.00
1
#180
0
POINT
8
2
10
1922.743
20
-1351.939
0
TEXT
8
2
10
1922.743
20
-1351.939
40
10.00
1
#166
0
LINE
8
7
10
1862.171
20
-1172.85
11
1662.171
21
-1172.85
0
POINT
8
2
10
1862.171
20
-1172.85
0
TEXT
8
2
10
1862.171
20
-1172.85
40
10.00
1
#1
0
POINT
8
2
10
1662.171
20
-1172.85
0
TEXT
8
2
10
1662.171
20
-1172.85
40
10.00
1
#1
0
TEXT
8
1
10
1662.171
20
-1161.85
40
10.00
1
PIECE NAME: ARKA
0
TEXT
8
1
10
1662.171
20
-1150.85
40
10.00
1
SIZE: 1
0
TEXT
8
1
10
1662.171
20
-1139.85
40
10.00
1
ANNOTATION: 
0
TEXT
8
1
10
1662.171
20
-1128.85
40
10.00
1
QUANTITY: 1
0
TEXT
8
1
10
1662.171
20
-1117.85
40
10.00
1
MATERIAL: KUMAS
0
ENDBLK
0
BLOCK
8
0
2
3
70
0
10
0.0000
20
0.0000
0
POLYLINE
8
1
66
1
70
1
0
VERTEX
8
1
10
1208.581
20
-853.5
0
VERTEX
8
1
10
1217.102
20
-853.093
0
VERTEX
8
1
10
1244.527
20
-852.839
0
VERTEX
8
1
10
1272.384
20
-854.194
0
VERTEX
8
1
10
1300.567
20
-857.175
0
VERTEX
8
1
10
1329.019
20
-861.805
0
VERTEX
8
1
10
1357.616
20
-868.09
0
VERTEX
8
1
10
1386.233
20
-876.028
0
VERTEX
8
1
10
1392.741
20
-878.094
0
VERTEX
8
1
10
1420.048
20
-887.653
0
VERTEX
8
1
10
1441.791
20
-896.823
0
VERTEX
8
1
10
1460.275
20
-906.256
0
VERTEX
8
1
10
1476.405
20
-916.209
0
VERTEX
8
1
10
1481.823
20
-919.94
0
VERTEX
8
1
10
1492.981
20
-929.042
0
VERTEX
8
1
10
1503.112
20
-939.368
0
VERTEX
8
1
10
1512.034
20
-950.738
0
VERTEX
8
1
10
1519.605
20
-962.964
0
VERTEX
8
1
10
1525.719
20
-975.853
0
VERTEX
8
1
10
1530.29
20
-989.196
0
VERTEX
8
1
10
1578.755
20
-978.05
0
VERTEX
8
1
10
1636.054
20
-966.368
0
VERTEX
8
1
10
1692.709
20
-956.439
0
VERTEX
8
1
10
1748.731
20
-948.23
0
VERTEX
8
1
10
1804.071
20
-941.727
0
VERTEX
8
1
10
1858.75
20
-936.9
0
VERTEX
8
1
10
1912.724
20
-933.729
0
VERTEX
8
1
10
1965.956
20
-932.192
0
VERTEX
8
1
10
1965.659
20
-751.991
0
VERTEX
8
1
10
1378.773
20
-751.991
0
VERTEX
8
1
10
1371.548
20
-751.905
0
VERTEX
8
1
10
1363.571
20
-752.124
0
VERTEX
8
1
10
1348.005
20
-753.717
0
VERTEX
8
1
10
1333.475
20
-756.768
0
VERTEX
8
1
10
1277.192
20
-771.719
0
VERTEX
8
1
10
1228.806
20
-784.572
0
VERTEX
8
1
10
1229.933
20
-787.257
0
VERTEX
8
1
10
1232.132
20
-795.237
0
VERTEX
8
1
10
1232.763
20
-803.579
0
VERTEX
8
1
10
1231.786
20
-812.432
0
VERTEX
8
1
10
1229.054
20
-821.878
0
VERTEX
8
1
10
1224.372
20
-831.963
0
VERTEX
8
1
10
1217.549
20
-842.613
0
VERTEX
8
1
10
1208.581
20
-853.5
0
SEQEND
8
1
0
POINT
8
2
10
1208.581
20
-853.5
0
TEXT
8
2
10
1208.581
20
-853.5
40
10.00
1
#187
0
POINT
8
3
10
1217.102
20
-853.093
0
POINT
8
3
10
1244.527
20
-852.839
0
POINT
8
3
10
1272.384
20
-854.194
0
POINT
8
3
10
1300.567
20
-857.175
0
POINT
8
3
10
1329.019
20
-861.805
0
POINT
8
3
10
1357.616
20
-868.09
0
POINT
8
4
10
1386.233
20
-876.028
30
10
50
72.9006413461331
0
POINT
8
2
10
1386.233
20
-876.028
0
TEXT
8
2
10
1386.233
20
-876.028
40
10.00
1
#188
0
POINT
8
3
10
1392.741
20
-878.094
0
POINT
8
3
10
1420.048
20
-887.653
0
POINT
8
3
10
1441.791
20
-896.823
0
POINT
8
3
10
1460.275
20
-906.256
0
POINT
8
4
10
1476.405
20
-916.209
30
10
50
55.6726679626859
0
POINT
8
2
10
1476.405
20
-916.209
0
TEXT
8
2
10
1476.405
20
-916.209
40
10.00
1
#189
0
POINT
8
3
10
1481.823
20
-919.94
0
POINT
8
3
10
1492.981
20
-929.042
0
POINT
8
3
10
1503.112
20
-939.368
0
POINT
8
3
10
1512.034
20
-950.738
0
POINT
8
3
10
1519.605
20
-962.964
0
POINT
8
3
10
1525.719
20
-975.853
0
POINT
8
2
10
1530.29
20
-989.196
0
TEXT
8
2
10
1530.29
20
-989.196
40
10.00
1
#190
0
POINT
8
3
10
1578.755
20
-978.05
0
POINT
8
3
10
1636.054
20
-966.368
0
POINT
8
3
10
1692.709
20
-956.439
0
POINT
8
3
10
1748.731
20
-948.23
0
POINT
8
3
10
1804.071
20
-941.727
0
POINT
8
3
10
1858.75
20
-936.9
0
POINT
8
3
10
1912.724
20
-933.729
0
POINT
8
2
10
1965.956
20
-932.192
0
TEXT
8
2
10
1965.956
20
-932.192
40
10.00
1
#191
0
POINT
8
2
10
1965.659
20
-751.991
0
TEXT
8
2
10
1965.659
20
-751.991
40
10.00
1
#192
0
POINT
8
4
10
1378.773
20
-751.991
30
10
50
269.151999581077
0
POINT
8
2
10
1378.773
20
-751.991
0
TEXT
8
2
10
1378.773
20
-751.991
40
10.00
1
#193
0
POINT
8
3
10
1371.548
20
-751.905
0
POINT
8
3
10
1363.571
20
-752.124
0
POINT
8
3
10
1348.005
20
-753.717
0
POINT
8
4
10
1333.475
20
-756.768
30
10
50
284.868673417719
0
POINT
8
2
10
1333.475
20
-756.768
0
TEXT
8
2
10
1333.475
20
-756.768
40
10.00
1
#194
0
POINT
8
2
10
1277.192
20
-771.719
0
TEXT
8
2
10
1277.192
20
-771.719
40
10.00
1
#195
0
POINT
8
2
10
1228.806
20
-784.572
0
TEXT
8
2
10
1228.806
20
-784.572
40
10.00
1
#196
0
POINT
8
3
10
1229.933
20
-787.257
0
POINT
8
3
10
1232.132
20
-795.237
0
POINT
8
3
10
1232.763
20
-803.579
0
POINT
8
3
10
1231.786
20
-812.432
0
POINT
8
3
10
1229.054
20
-821.878
0
POINT
8
3
10
1224.372
20
-831.963
0
POINT
8
3
10
1217.549
20
-842.613
0
POINT
8
2
10
1208.581
20
-853.5
0
TEXT
8
2
10
1208.581
20
-853.5
40
10.00
1
#187
0
LINE
8
7
10
1722.686
20
-824.382
11
1522.688
21
-824.382
0
POINT
8
2
10
1722.686
20
-824.382
0
TEXT
8
2
10
1722.686
20
-824.382
40
10.00
1
#1
0
POINT
8
2
10
1522.688
20
-824.382
0
TEXT
8
2
10
1522.688
20
-824.382
40
10.00
1
#1
0
TEXT
8
1
10
1522.688
20
-813.382
40
10.00
1
PIECE NAME: ARKAKOL
0
TEXT
8
1
10
1522.688
20
-802.382
40
10.00
1
SIZE: 1
0
TEXT
8
1
10
1522.688
20
-791.382
40
10.00
1
ANNOTATION: 
0
TEXT
8
1
10
1522.688
20
-780.382
40
10.00
1
QUANTITY: 1
0
TEXT
8
1
10
1522.688
20
-769.382
40
10.00
1
MATERIAL: KUMAS
0
ENDBLK
0
BLOCK
8
0
2
4
70
0
10
0.0000
20
0.0000
0
POLYLINE
8
1
66
1
70
1
0
VERTEX
8
1
10
1228.806
20
-956.53
0
VERTEX
8
1
10
1277.192
20
-969.383
0
VERTEX
8
1
10
1333.475
20
-984.334
0
VERTEX
8
1
10
1348.005
20
-987.385
0
VERTEX
8
1
10
1363.571
20
-988.978
0
VERTEX
8
1
10
1371.548
20
-989.197
0
VERTEX
8
1
10
1378.773
20
-989.111
0
VERTEX
8
1
10
1965.659
20
-989.111
0
VERTEX
8
1
10
1965.956
20
-808.91
0
VERTEX
8
1
10
1912.724
20
-807.373
0
VERTEX
8
1
10
1858.75
20
-804.202
0
VERTEX
8
1
10
1804.071
20
-799.375
0
VERTEX
8
1
10
1748.731
20
-792.872
0
VERTEX
8
1
10
1692.709
20
-784.663
0
VERTEX
8
1
10
1636.054
20
-774.734
0
VERTEX
8
1
10
1578.755
20
-763.052
0
VERTEX
8
1
10
1530.29
20
-751.906
0
VERTEX
8
1
10
1525.719
20
-765.249
0
VERTEX
8
1
10
1519.605
20
-778.138
0
VERTEX
8
1
10
1512.034
20
-790.364
0
VERTEX
8
1
10
1503.112
20
-801.734
0
VERTEX
8
1
10
1492.981
20
-812.06
0
VERTEX
8
1
10
1481.823
20
-821.162
0
VERTEX
8
1
10
1476.405
20
-824.893
0
VERTEX
8
1
10
1460.275
20
-834.846
0
VERTEX
8
1
10
1441.791
20
-844.279
0
VERTEX
8
1
10
1420.048
20
-853.449
0
VERTEX
8
1
10
1392.741
20
-863.008
0
VERTEX
8
1
10
1386.233
20
-865.074
0
VERTEX
8
1
10
1357.616
20
-873.012
0
VERTEX
8
1
10
1329.019
20
-879.297
0
VERTEX
8
1
10
1300.567
20
-883.927
0
VERTEX
8
1
10
1272.384
20
-886.908
0
VERTEX
8
1
10
1244.527
20
-888.263
0
VERTEX
8
1
10
1217.102
20
-888.009
0
VERTEX
8
1
10
1208.581
20
-887.602
0
VERTEX
8
1
10
1217.549
20
-898.489
0
VERTEX
8
1
10
1224.372
20
-909.139
0
VERTEX
8
1
10
1229.054
20
-919.224
0
VERTEX
8
1
10
1231.786
20
-928.67
0
VERTEX
8
1
10
1232.763
20
-937.523
0
VERTEX
8
1
10
1232.132
20
-945.865
0
VERTEX
8
1
10
1229.933
20
-953.845
0
VERTEX
8
1
10
1228.806
20
-956.53
0
SEQEND
8
1
0
POINT
8
2
10
1228.806
20
-956.53
0
TEXT
8
2
10
1228.806
20
-956.53
40
10.00
1
#44
0
POINT
8
2
10
1277.192
20
-969.383
0
TEXT
8
2
10
1277.192
20
-969.383
40
10.00
1
#45
0
POINT
8
4
10
1333.475
20
-984.334
30
10
50
75.1313265822811
0
POINT
8
2
10
1333.475
20
-984.334
0
TEXT
8
2
10
1333.475
20
-984.334
40
10.00
1
#46
0
POINT
8
3
10
1348.005
20
-987.385
0
POINT
8
3
10
1363.571
20
-988.978
0
POINT
8
3
10
1371.548
20
-989.197
0
POINT
8
4
10
1378.773
20
-989.111
30
10
50
90.8480004189228
0
POINT
8
2
10
1378.773
20
-989.111
0
TEXT
8
2
10
1378.773
20
-989.111
40
10.00
1
#47
0
POINT
8
2
10
1965.659
20
-989.111
0
TEXT
8
2
10
1965.659
20
-989.111
40
10.00
1
#48
0
POINT
8
2
10
1965.956
20
-808.91
0
TEXT
8
2
10
1965.956
20
-808.91
40
10.00
1
#49
0
POINT
8
3
10
1912.724
20
-807.373
0
POINT
8
3
10
1858.75
20
-804.202
0
POINT
8
3
10
1804.071
20
-799.375
0
POINT
8
3
10
1748.731
20
-792.872
0
POINT
8
3
10
1692.709
20
-784.663
0
POINT
8
3
10
1636.054
20
-774.734
0
POINT
8
3
10
1578.755
20
-763.052
0
POINT
8
2
10
1530.29
20
-751.906
0
TEXT
8
2
10
1530.29
20
-751.906
40
10.00
1
#50
0
POINT
8
3
10
1525.719
20
-765.249
0
POINT
8
3
10
1519.605
20
-778.138
0
POINT
8
3
10
1512.034
20
-790.364
0
POINT
8
3
10
1503.112
20
-801.734
0
POINT
8
3
10
1492.981
20
-812.06
0
POINT
8
3
10
1481.823
20
-821.162
0
POINT
8
4
10
1476.405
20
-824.893
30
10
50
304.327332037314
0
POINT
8
2
10
1476.405
20
-824.893
0
TEXT
8
2
10
1476.405
20
-824.893
40
10.00
1
#51
0
POINT
8
3
10
1460.275
20
-834.846
0
POINT
8
3
10
1441.791
20
-844.279
0
POINT
8
3
10
1420.048
20
-853.449
0
POINT
8
3
10
1392.741
20
-863.008
0
POINT
8
4
10
1386.233
20
-865.074
30
10
50
287.099358653867
0
POINT
8
2
10
1386.233
20
-865.074
0
TEXT
8
2
10
1386.233
20
-865.074
40
10.00
1
#52
0
POINT
8
3
10
1357.616
20
-873.012
0
POINT
8
3
10
1329.019
20
-879.297
0
POINT
8
3
10
1300.567
20
-883.927
0
POINT
8
3
10
1272.384
20
-886.908
0
POINT
8
3
10
1244.527
20
-888.263
0
POINT
8
3
10
1217.102
20
-888.009
0
POINT
8
2
10
1208.581
20
-887.602
0
TEXT
8
2
10
1208.581
20
-887.602
40
10.00
1
#53
0
POINT
8
3
10
1217.549
20
-898.489
0
POINT
8
3
10
1224.372
20
-909.139
0
POINT
8
3
10
1229.054
20
-919.224
0
POINT
8
3
10
1231.786
20
-928.67
0
POINT
8
3
10
1232.763
20
-937.523
0
POINT
8
3
10
1232.132
20
-945.865
0
POINT
8
3
10
1229.933
20
-953.845
0
POINT
8
2
10
1228.806
20
-956.53
0
TEXT
8
2
10
1228.806
20
-956.53
40
10.00
1
#44
0
LINE
8
7
10
1722.686
20
-916.72
11
1522.688
21
-916.72
0
POINT
8
2
10
1722.686
20
-916.72
0
TEXT
8
2
10
1722.686
20
-916.72
40
10.00
1
#1
0
POINT
8
2
10
1522.688
20
-916.72
0
TEXT
8
2
10
1522.688
20
-916.72
40
10.00
1
#1
0
TEXT
8
1
10
1522.688
20
-905.72
40
10.00
1
PIECE NAME: ARKAKOLFY1
0
TEXT
8
1
10
1522.688
20
-894.72
40
10.00
1
SIZE: 1
0
TEXT
8
1
10
1522.688
20
-883.72
40
10.00
1
ANNOTATION: 
0
TEXT
8
1
10
1522.688
20
-872.72
40
10.00
1
QUANTITY: 1
0
TEXT
8
1
10
1522.688
20
-861.72
40
10.00
1
MATERIAL: KUMAS
0
ENDBLK
0
BLOCK
8
0
2
5
70
0
10
0.0000
20
0.0000
0
POLYLINE
8
1
66
1
70
1
0
VERTEX
8
1
10
1392.028
20
-556.681
0
VERTEX
8
1
10
1384.351
20
-558.962
0
VERTEX
8
1
10
1358.607
20
-565.541
0
VERTEX
8
1
10
1333.391
20
-570.367
0
VERTEX
8
1
10
1308.817
20
-573.473
0
VERTEX
8
1
10
1284.931
20
-574.91
0
VERTEX
8
1
10
1261.779
20
-574.728
0
VERTEX
8
1
10
1239.347
20
-572.978
0
VERTEX
8
1
10
1239.462
20
-576.415
0
VERTEX
8
1
10
1239.026
20
-593.156
0
VERTEX
8
1
10
1236.878
20
-611.267
0
VERTEX
8
1
10
1232.781
20
-631.373
0
VERTEX
8
1
10
1226.198
20
-654.871
0
VERTEX
8
1
10
1274.759
20
-667.77
0
VERTEX
8
1
10
1330.962
20
-682.699
0
VERTEX
8
1
10
1344.32
20
-685.55
0
VERTEX
8
1
10
1359.982
20
-687.3
0
VERTEX
8
1
10
1376.461
20
-687.498
0
VERTEX
8
1
10
1963.226
20
-687.498
0
VERTEX
8
1
10
1963.523
20
-507.296
0
VERTEX
8
1
10
1918.657
20
-506.106
0
VERTEX
8
1
10
1864.78
20
-503.192
0
VERTEX
8
1
10
1810.261
20
-498.63
0
VERTEX
8
1
10
1755.075
20
-492.397
0
VERTEX
8
1
10
1699.194
20
-484.466
0
VERTEX
8
1
10
1642.606
20
-474.805
0
VERTEX
8
1
10
1585.432
20
-463.406
0
VERTEX
8
1
10
1527.663
20
-450.245
0
VERTEX
8
1
10
1525.282
20
-458.026
0
VERTEX
8
1
10
1520.33
20
-469.855
0
VERTEX
8
1
10
1514.147
20
-480.57
0
VERTEX
8
1
10
1506.859
20
-490.067
0
VERTEX
8
1
10
1503.352
20
-494.015
0
VERTEX
8
1
10
1492.426
20
-504.601
0
VERTEX
8
1
10
1479.04
20
-515.206
0
VERTEX
8
1
10
1473.74
20
-518.882
0
VERTEX
8
1
10
1456.733
20
-529.344
0
VERTEX
8
1
10
1437.718
20
-539.097
0
VERTEX
8
1
10
1416.345
20
-548.18
0
VERTEX
8
1
10
1392.028
20
-556.681
0
SEQEND
8
1
0
POINT
8
4
10
1392.028
20
-556.681
30
10
50
287.385812326552
0
POINT
8
2
10
1392.028
20
-556.681
0
TEXT
8
2
10
1392.028
20
-556.681
40
10.00
1
#201
0
POINT
8
3
10
1384.351
20
-558.962
0
POINT
8
3
10
1358.607
20
-565.541
0
POINT
8
3
10
1333.391
20
-570.367
0
POINT
8
3
10
1308.817
20
-573.473
0
POINT
8
3
10
1284.931
20
-574.91
0
POINT
8
3
10
1261.779
20
-574.728
0
POINT
8
2
10
1239.347
20
-572.978
0
TEXT
8
2
10
1239.347
20
-572.978
40
10.00
1
#202
0
POINT
8
3
10
1239.462
20
-576.415
0
POINT
8
3
10
1239.026
20
-593.156
0
POINT
8
3
10
1236.878
20
-611.267
0
POINT
8
3
10
1232.781
20
-631.373
0
POINT
8
2
10
1226.198
20
-654.871
0
TEXT
8
2
10
1226.198
20
-654.871
40
10.00
1
#203
0
POINT
8
2
10
1274.759
20
-667.77
0
TEXT
8
2
10
1274.759
20
-667.77
40
10.00
1
#204
0
POINT
8
4
10
1330.962
20
-682.699
30
10
50
74.6504052081636
0
POINT
8
2
10
1330.962
20
-682.699
0
TEXT
8
2
10
1330.962
20
-682.699
40
10.00
1
#205
0
POINT
8
3
10
1344.32
20
-685.55
0
POINT
8
3
10
1359.982
20
-687.3
0
POINT
8
4
10
1376.461
20
-687.498
30
10
50
91.5413470551807
0
POINT
8
2
10
1376.461
20
-687.498
0
TEXT
8
2
10
1376.461
20
-687.498
40
10.00
1
#206
0
POINT
8
2
10
1963.226
20
-687.498
0
TEXT
8
2
10
1963.226
20
-687.498
40
10.00
1
#207
0
POINT
8
2
10
1963.523
20
-507.296
0
TEXT
8
2
10
1963.523
20
-507.296
40
10.00
1
#208
0
POINT
8
3
10
1918.657
20
-506.106
0
POINT
8
3
10
1864.78
20
-503.192
0
POINT
8
3
10
1810.261
20
-498.63
0
POINT
8
3
10
1755.075
20
-492.397
0
POINT
8
3
10
1699.194
20
-484.466
0
POINT
8
3
10
1642.606
20
-474.805
0
POINT
8
3
10
1585.432
20
-463.406
0
POINT
8
2
10
1527.663
20
-450.245
0
TEXT
8
2
10
1527.663
20
-450.245
40
10.00
1
#209
0
POINT
8
3
10
1525.282
20
-458.026
0
POINT
8
3
10
1520.33
20
-469.855
0
POINT
8
3
10
1514.147
20
-480.57
0
POINT
8
4
10
1506.859
20
-490.067
30
10
50
319.611235498725
0
POINT
8
2
10
1506.859
20
-490.067
0
TEXT
8
2
10
1506.859
20
-490.067
40
10.00
1
#210
0
POINT
8
3
10
1503.352
20
-494.015
0
POINT
8
3
10
1492.426
20
-504.601
0
POINT
8
4
10
1479.04
20
-515.206
30
10
50
305.780110768975
0
POINT
8
2
10
1479.04
20
-515.206
0
TEXT
8
2
10
1479.04
20
-515.206
40
10.00
1
#211
0
POINT
8
3
10
1473.74
20
-518.882
0
POINT
8
3
10
1456.733
20
-529.344
0
POINT
8
3
10
1437.718
20
-539.097
0
POINT
8
3
10
1416.345
20
-548.18
0
POINT
8
2
10
1392.028
20
-556.681
0
TEXT
8
2
10
1392.028
20
-556.681
40
10.00
1
#201
0
LINE
8
7
10
1727.263
20
-585.322
11
1527.263
21
-585.322
0
POINT
8
2
10
1727.263
20
-585.322
0
TEXT
8
2
10
1727.263
20
-585.322
40
10.00
1
#1
0
POINT
8
2
10
1527.263
20
-585.322
0
TEXT
8
2
10
1527.263
20
-585.322
40
10.00
1
#1
0
TEXT
8
1
10
1527.263
20
-574.322
40
10.00
1
PIECE NAME: ONKOL
0
TEXT
8
1
10
1527.263
20
-563.322
40
10.00
1
SIZE: 1
0
TEXT
8
1
10
1527.263
20
-552.322
40
10.00
1
ANNOTATION: 
0
TEXT
8
1
10
1527.263
20
-541.322
40
10.00
1
QUANTITY: 1
0
TEXT
8
1
10
1527.263
20
-530.322
40
10.00
1
MATERIAL: KUMAS
0
ENDBLK
0
BLOCK
8
0
2
6
70
0
10
0.0000
20
0.0000
0
POLYLINE
8
1
66
1
70
1
0
VERTEX
8
1
10
1509.111
20
-37.788
0
VERTEX
8
1
10
1497.888
20
-35.132
0
VERTEX
8
1
10
1453.887
20
-25.758
0
VERTEX
8
1
10
1408.531
20
-17.751
0
VERTEX
8
1
10
1361.763
20
-11.138
0
VERTEX
8
1
10
1313.49
20
-5.948
0
VERTEX
8
1
10
1263.621
20
-2.219
0
VERTEX
8
1
10
1212.126
20
0.002
0
VERTEX
8
1
10
1208.336
20
-79.762
0
VERTEX
8
1
10
1208.297
20
-83.892
0
VERTEX
8
1
10
1207.119
20
-97.097
0
VERTEX
8
1
10
1204.327
20
-110.279
0
VERTEX
8
1
10
1199.913
20
-123.335
0
VERTEX
8
1
10
1193.892
20
-136.106
0
VERTEX
8
1
10
1186.309
20
-148.401
0
VERTEX
8
1
10
1177.259
20
-160.016
0
VERTEX
8
1
10
1166.89
20
-170.715
0
VERTEX
8
1
10
1155.404
20
-180.273
0
VERTEX
8
1
10
1160.72
20
-187.904
0
VERTEX
8
1
10
1175.027
20
-206.453
0
VERTEX
8
1
10
1190.997
20
-224.505
0
VERTEX
8
1
10
1208.622
20
-241.981
0
VERTEX
8
1
10
1227.897
20
-258.812
0
VERTEX
8
1
10
1248.806
20
-274.916
0
VERTEX
8
1
10
1271.246
20
-290.156
0
VERTEX
8
1
10
1288.625
20
-300.37
0
VERTEX
8
1
10
1331.371
20
-322.622
0
VERTEX
8
1
10
1357.824
20
-337.026
0
VERTEX
8
1
10
1370.478
20
-345.567
0
VERTEX
8
1
10
1378.748
20
-352.86
0
VERTEX
8
1
10
1384.713
20
-360.105
0
VERTEX
8
1
10
1385.824
20
-361.748
0
VERTEX
8
1
10
1389.388
20
-368.843
0
VERTEX
8
1
10
1391.76
20
-377.324
0
VERTEX
8
1
10
1392.863
20
-387.8
0
VERTEX
8
1
10
1392.443
20
-402.151
0
VERTEX
8
1
10
1532.345
20
-407.402
0
VERTEX
8
1
10
1742.197
20
-415.278
0
VERTEX
8
1
10
2016.729
20
-425.581
0
VERTEX
8
1
10
2301.255
20
-436.259
0
VERTEX
8
1
10
2302.403
20
-407.894
0
VERTEX
8
1
10
2309.019
20
-297.091
0
VERTEX
8
1
10
2312.083
20
-234.483
0
VERTEX
8
1
10
2312.941
20
-187.665
0
VERTEX
8
1
10
2312.941
20
-117.775
0
VERTEX
8
1
10
2312.941
20
-37.784
0
VERTEX
8
1
10
1509.111
20
-37.788
0
SEQEND
8
1
0
POINT
8
4
10
1509.111
20
-37.788
30
10
50
263.183393093938
0
POINT
8
2
10
1509.111
20
-37.788
0
TEXT
8
2
10
1509.111
20
-37.788
40
10.00
1
#217
0
POINT
8
3
10
1497.888
20
-35.132
0
POINT
8
3
10
1453.887
20
-25.758
0
POINT
8
3
10
1408.531
20
-17.751
0
POINT
8
3
10
1361.763
20
-11.138
0
POINT
8
3
10
1313.49
20
-5.948
0
POINT
8
3
10
1263.621
20
-2.219
0
POINT
8
2
10
1212.126
20
0.002
0
TEXT
8
2
10
1212.126
20
0.002
40
10.00
1
#218
0
POINT
8
4
10
1208.336
20
-79.762
30
10
50
357.277232125223
0
POINT
8
2
10
1208.336
20
-79.762
0
TEXT
8
2
10
1208.336
20
-79.762
40
10.00
1
#219
0
POINT
8
3
10
1208.297
20
-83.892
0
POINT
8
3
10
1207.119
20
-97.097
0
POINT
8
3
10
1204.327
20
-110.279
0
POINT
8
3
10
1199.913
20
-123.335
0
POINT
8
3
10
1193.892
20
-136.106
0
POINT
8
3
10
1186.309
20
-148.401
0
POINT
8
3
10
1177.259
20
-160.016
0
POINT
8
3
10
1166.89
20
-170.715
0
POINT
8
2
10
1155.404
20
-180.273
0
TEXT
8
2
10
1155.404
20
-180.273
40
10.00
1
#220
0
POINT
8
3
10
1160.72
20
-187.904
0
POINT
8
3
10
1175.027
20
-206.453
0
POINT
8
3
10
1190.997
20
-224.505
0
POINT
8
3
10
1208.622
20
-241.981
0
POINT
8
3
10
1227.897
20
-258.812
0
POINT
8
3
10
1248.806
20
-274.916
0
POINT
8
4
10
1271.246
20
-290.156
30
10
50
58.5163787038855
0
POINT
8
2
10
1271.246
20
-290.156
0
TEXT
8
2
10
1271.246
20
-290.156
40
10.00
1
#221
0
POINT
8
3
10
1288.625
20
-300.37
0
POINT
8
3
10
1331.371
20
-322.622
0
POINT
8
4
10
1357.824
20
-337.026
30
10
50
58.8043178030715
0
POINT
8
2
10
1357.824
20
-337.026
0
TEXT
8
2
10
1357.824
20
-337.026
40
10.00
1
#222
0
POINT
8
3
10
1370.478
20
-345.567
0
POINT
8
3
10
1378.748
20
-352.86
0
POINT
8
4
10
1384.713
20
-360.105
30
10
50
34.2081214204624
0
POINT
8
2
10
1384.713
20
-360.105
0
TEXT
8
2
10
1384.713
20
-360.105
40
10.00
1
#223
0
POINT
8
3
10
1385.824
20
-361.748
0
POINT
8
3
10
1389.388
20
-368.843
0
POINT
8
3
10
1391.76
20
-377.324
0
POINT
8
3
10
1392.863
20
-387.8
0
POINT
8
2
10
1392.443
20
-402.151
0
TEXT
8
2
10
1392.443
20
-402.151
40
10.00
1
#224
0
POINT
8
4
10
1532.345
20
-407.402
30
10
50
87.8564228612663
0
POINT
8
2
10
1532.345
20
-407.402
0
TEXT
8
2
10
1532.345
20
-407.402
40
10.00
1
#225
0
POINT
8
4
10
1742.197
20
-415.278
30
10
50
87.8564228612663
0
POINT
8
2
10
1742.197
20
-415.278
0
TEXT
8
2
10
1742.197
20
-415.278
40
10.00
1
#226
0
POINT
8
4
10
2016.729
20
-425.581
30
10
50
87.8564228612663
0
POINT
8
2
10
2016.729
20
-425.581
0
TEXT
8
2
10
2016.729
20
-425.581
40
10.00
1
#227
0
POINT
8
2
10
2301.255
20
-436.259
0
TEXT
8
2
10
2301.255
20
-436.259
40
10.00
1
#228
0
POINT
8
3
10
2302.403
20
-407.894
0
POINT
8
3
10
2309.019
20
-297.091
0
POINT
8
3
10
2312.083
20
-234.483
0
POINT
8
2
10
2312.941
20
-187.665
0
TEXT
8
2
10
2312.941
20
-187.665
40
10.00
1
#229
0
POINT
8
2
10
2312.941
20
-117.775
0
TEXT
8
2
10
2312.941
20
-117.775
40
10.00
1
#230
0
POINT
8
2
10
2312.941
20
-37.784
0
TEXT
8
2
10
2312.941
20
-37.784
40
10.00
1
#231
0
POINT
8
2
10
1509.111
20
-37.788
0
TEXT
8
2
10
1509.111
20
-37.788
40
10.00
1
#217
0
LINE
8
7
10
1860.343
20
-246.105
11
1660.343
21
-246.105
0
POINT
8
2
10
1860.343
20
-246.105
0
TEXT
8
2
10
1860.343
20
-246.105
40
10.00
1
#1
0
POINT
8
2
10
1660.343
20
-246.105
0
TEXT
8
2
10
1660.343
20
-246.105
40
10.00
1
#1
0
TEXT
8
8
10
1973.671
20
-163.59
11
2069.875
21
-121.26
40
10.00
50
336.250385755475
1
TELALI
0
TEXT
8
1
10
1660.343
20
-235.105
40
10.00
1
PIECE NAME: ON
0
TEXT
8
1
10
1660.343
20
-224.105
40
10.00
1
SIZE: 1
0
TEXT
8
1
10
1660.343
20
-213.105
40
10.00
1
ANNOTATION: 
0
TEXT
8
1
10
1660.343
20
-202.105
40
10.00
1
QUANTITY: 1
0
TEXT
8
1
10
1660.343
20
-191.105
40
10.00
1
MATERIAL: KUMAS
0
ENDBLK
0
BLOCK
8
0
2
7
70
0
10
0.0000
20
0.0000
0
POLYLINE
8
1
66
1
70
1
0
VERTEX
8
1
10
961.406
20
-457.295
0
VERTEX
8
1
10
961.364
20
-459.471
0
VERTEX
8
1
10
961.98
20
-474.966
0
VERTEX
8
1
10
964.197
20
-490.42
0
VERTEX
8
1
10
967.988
20
-505.625
0
VERTEX
8
1
10
973.289
20
-520.321
0
VERTEX
8
1
10
980.015
20
-534.288
0
VERTEX
8
1
10
988.038
20
-547.302
0
VERTEX
8
1
10
997.245
20
-559.226
0
VERTEX
8
1
10
1007.49
20
-569.905
0
VERTEX
8
1
10
1018.659
20
-579.264
0
VERTEX
8
1
10
1030.653
20
-587.243
0
VERTEX
8
1
10
1111.106
20
-584.8
0
VERTEX
8
1
10
1104.577
20
-552.289
0
VERTEX
8
1
10
1099.448
20
-522.506
0
VERTEX
8
1
10
1091.68
20
-470.17
0
VERTEX
8
1
10
1085.724
20
-419.35
0
VERTEX
8
1
10
1081.51
20
-369.853
0
VERTEX
8
1
10
1078.992
20
-321.661
0
VERTEX
8
1
10
1078.787
20
-306.714
0
VERTEX
8
1
10
1079.016
20
-290.826
0
VERTEX
8
1
10
1079.555
20
-278.321
0
VERTEX
8
1
10
1082.73
20
-227.683
0
VERTEX
8
1
10
1087.487
20
-177.328
0
VERTEX
8
1
10
1093.817
20
-127.269
0
VERTEX
8
1
10
1101.698
20
-77.685
0
VERTEX
8
1
10
1111.106
20
-28.628
0
VERTEX
8
1
10
1030.653
20
-26.185
0
VERTEX
8
1
10
1030.424
20
-26.321
0
VERTEX
8
1
10
1017.881
20
-34.761
0
VERTEX
8
1
10
1006.595
20
-44.252
0
VERTEX
8
1
10
996.528
20
-54.786
0
VERTEX
8
1
10
987.648
20
-66.393
0
VERTEX
8
1
10
979.947
20
-79.103
0
VERTEX
8
1
10
973.479
20
-92.908
0
VERTEX
8
1
10
968.275
20
-107.84
0
VERTEX
8
1
10
964.416
20
-123.867
0
VERTEX
8
1
10
961.971
20
-140.973
0
VERTEX
8
1
10
961.033
20
-159.085
0
VERTEX
8
1
10
961.682
20
-178.072
0
VERTEX
8
1
10
963.981
20
-197.672
0
VERTEX
8
1
10
965.647
20
-216.425
0
VERTEX
8
1
10
967.325
20
-251.007
0
VERTEX
8
1
10
967.922
20
-306.714
0
VERTEX
8
1
10
967.676
20
-346.404
0
VERTEX
8
1
10
966.329
20
-386.344
0
VERTEX
8
1
10
963.981
20
-415.756
0
VERTEX
8
1
10
962.229
20
-435.117
0
VERTEX
8
1
10
961.406
20
-457.295
0
SEQEND
8
1
0
POINT
8
2
10
961.406
20
-457.295
0
TEXT
8
2
10
961.406
20
-457.295
40
10.00
1
#240
0
POINT
8
3
10
961.364
20
-459.471
0
POINT
8
3
10
961.98
20
-474.966
0
POINT
8
3
10
964.197
20
-490.42
0
POINT
8
3
10
967.988
20
-505.625
0
POINT
8
3
10
973.289
20
-520.321
0
POINT
8
3
10
980.015
20
-534.288
0
POINT
8
3
10
988.038
20
-547.302
0
POINT
8
3
10
997.245
20
-559.226
0
POINT
8
3
10
1007.49
20
-569.905
0
POINT
8
3
10
1018.659
20
-579.264
0
POINT
8
2
10
1030.653
20
-587.243
0
TEXT
8
2
10
1030.653
20
-587.243
40
10.00
1
#241
0
POINT
8
2
10
1111.106
20
-584.8
0
TEXT
8
2
10
1111.106
20
-584.8
40
10.00
1
#242
0
POINT
8
3
10
1104.577
20
-552.289
0
POINT
8
3
10
1099.448
20
-522.506
0
POINT
8
3
10
1091.68
20
-470.17
0
POINT
8
3
10
1085.724
20
-419.35
0
POINT
8
3
10
1081.51
20
-369.853
0
POINT
8
3
10
1078.992
20
-321.661
0
POINT
8
4
10
1078.787
20
-306.714
30
10
50
180
0
POINT
8
2
10
1078.787
20
-306.714
0
TEXT
8
2
10
1078.787
20
-306.714
40
10.00
1
#243
0
POINT
8
3
10
1079.016
20
-290.826
0
POINT
8
3
10
1079.555
20
-278.321
0
POINT
8
3
10
1082.73
20
-227.683
0
POINT
8
3
10
1087.487
20
-177.328
0
POINT
8
3
10
1093.817
20
-127.269
0
POINT
8
3
10
1101.698
20
-77.685
0
POINT
8
2
10
1111.106
20
-28.628
0
TEXT
8
2
10
1111.106
20
-28.628
40
10.00
1
#244
0
POINT
8
2
10
1030.653
20
-26.185
0
TEXT
8
2
10
1030.653
20
-26.185
40
10.00
1
#245
0
POINT
8
3
10
1030.424
20
-26.321
0
POINT
8
3
10
1017.881
20
-34.761
0
POINT
8
3
10
1006.595
20
-44.252
0
POINT
8
3
10
996.528
20
-54.786
0
POINT
8
3
10
987.648
20
-66.393
0
POINT
8
3
10
979.947
20
-79.103
0
POINT
8
3
10
973.479
20
-92.908
0
POINT
8
3
10
968.275
20
-107.84
0
POINT
8
3
10
964.416
20
-123.867
0
POINT
8
3
10
961.971
20
-140.973
0
POINT
8
3
10
961.033
20
-159.085
0
POINT
8
3
10
961.682
20
-178.072
0
POINT
8
4
10
963.981
20
-197.672
30
10
50
6.11875866152112
0
POINT
8
2
10
963.981
20
-197.672
0
TEXT
8
2
10
963.981
20
-197.672
40
10.00
1
#246
0
POINT
8
3
10
965.647
20
-216.425
0
POINT
8
3
10
967.325
20
-251.007
0
POINT
8
4
10
967.922
20
-306.714
30
10
50
0
0
POINT
8
2
10
967.922
20
-306.714
0
TEXT
8
2
10
967.922
20
-306.714
40
10.00
1
#247
0
POINT
8
3
10
967.676
20
-346.404
0
POINT
8
3
10
966.329
20
-386.344
0
POINT
8
4
10
963.981
20
-415.756
30
10
50
353.875545017233
0
POINT
8
2
10
963.981
20
-415.756
0
TEXT
8
2
10
963.981
20
-415.756
40
10.00
1
#248
0
POINT
8
3
10
962.229
20
-435.117
0
POINT
8
2
10
961.406
20
-457.295
0
TEXT
8
2
10
961.406
20
-457.295
40
10.00
1
#240
0
LINE
8
7
10
1054.106
20
-246.39
11
1004.105
21
-246.39
0
POINT
8
2
10
1054.106
20
-246.39
0
TEXT
8
2
10
1054.106
20
-246.39
40
10.00
1
#1
0
POINT
8
2
10
1004.105
20
-246.39
0
TEXT
8
2
10
1004.105
20
-246.39
40
10.00
1
#1
0
TEXT
8
8
10
1016.268
20
-373.933
11
1043.139
21
-339.504
40
10.00
50
307.971174949703
1
2 ADET TELALI
0
TEXT
8
1
10
1004.105
20
-235.39
40
10.00
1
PIECE NAME: YK
0
TEXT
8
1
10
1004.105
20
-224.39
40
10.00
1
SIZE: 1
0
TEXT
8
1
10
1004.105
20
-213.39
40
10.00
1
ANNOTATION: 
0
TEXT
8
1
10
1004.105
20
-202.39
40
10.00
1
QUANTITY: 1
0
TEXT
8
1
10
1004.105
20
-191.39
40
10.00
1
MATERIAL: KUMAS
0
ENDBLK
0
BLOCK
8
0
2
8
70
0
10
0.0000
20
0.0000
0
POLYLINE
8
1
66
1
70
1
0
VERTEX
8
1
10
1060.306
20
-839.239
0
VERTEX
8
1
10
1110.307
20
-820.489
0
VERTEX
8
1
10
1160.308
20
-839.239
0
VERTEX
8
1
10
1160.307
20
-662.879
0
VERTEX
8
1
10
1110.307
20
-644.129
0
VERTEX
8
1
10
1060.307
20
-662.879
0
VERTEX
8
1
10
1060.306
20
-839.239
0
SEQEND
8
1
0
POINT
8
2
10
1060.306
20
-839.239
0
TEXT
8
2
10
1060.306
20
-839.239
40
10.00
1
#253
0
POINT
8
4
10
1110.307
20
-820.489
30
10
50
90
0
POINT
8
2
10
1110.307
20
-820.489
0
TEXT
8
2
10
1110.307
20
-820.489
40
10.00
1
#254
0
POINT
8
2
10
1160.308
20
-839.239
0
TEXT
8
2
10
1160.308
20
-839.239
40
10.00
1
#255
0
POINT
8
2
10
1160.307
20
-662.879
0
TEXT
8
2
10
1160.307
20
-662.879
40
10.00
1
#256
0
POINT
8
4
10
1110.307
20
-644.129
30
10
50
270
0
POINT
8
2
10
1110.307
20
-644.129
0
TEXT
8
2
10
1110.307
20
-644.129
40
10.00
1
#257
0
POINT
8
2
10
1060.307
20
-662.879
0
TEXT
8
2
10
1060.307
20
-662.879
40
10.00
1
#258
0
POINT
8
2
10
1060.306
20
-839.239
0
TEXT
8
2
10
1060.306
20
-839.239
40
10.00
1
#253
0
LINE
8
7
10
1131.133
20
-729.152
11
1090.472
21
-729.152
0
POINT
8
2
10
1131.133
20
-729.152
0
TEXT
8
2
10
1131.133
20
-729.152
40
10.00
1
#1
0
POINT
8
2
10
1090.472
20
-729.152
0
TEXT
8
2
10
1090.472
20
-729.152
40
10.00
1
#1
0
TEXT
8
8
10
1095.799
20
-714.143
11
1136.878
21
-684.913
40
10.00
50
324.566027134673
1
2 ADET TELALI
0
TEXT
8
1
10
1090.472
20
-718.152
40
10.00
1
PIECE NAME: FLETO
0
TEXT
8
1
10
1090.472
20
-707.152
40
10.00
1
SIZE: 1
0
TEXT
8
1
10
1090.472
20
-696.152
40
10.00
1
ANNOTATION: 
0
TEXT
8
1
10
1090.472
20
-685.152
40
10.00
1
QUANTITY: 1
0
TEXT
8
1
10
1090.472
20
-674.152
40
10.00
1
MATERIAL: KUMAS
0
ENDBLK
0
BLOCK
8
0
2
9
70
0
10
0.0000
20
0.0000
0
POLYLINE
8
1
66
1
70
1
0
VERTEX
8
1
10
1083.369
20
-1127.463
0
VERTEX
8
1
10
1254.033
20
-1127.463
0
VERTEX
8
1
10
1230.47
20
-1004.305
0
VERTEX
8
1
10
1228.692
20
-997.241
0
VERTEX
8
1
10
1225.147
20
-989.305
0
VERTEX
8
1
10
1220.096
20
-981.943
0
VERTEX
8
1
10
1213.717
20
-975.465
0
VERTEX
8
1
10
1206.289
20
-970.184
0
VERTEX
8
1
10
1198.186
20
-966.352
0
VERTEX
8
1
10
1189.765
20
-964.099
0
VERTEX
8
1
10
1181.315
20
-963.46
0
VERTEX
8
1
10
1018.063
20
-963.46
0
VERTEX
8
1
10
1083.369
20
-1127.463
0
SEQEND
8
1
0
POINT
8
2
10
1083.369
20
-1127.463
0
TEXT
8
2
10
1083.369
20
-1127.463
40
10.00
1
#261
0
POINT
8
2
10
1254.033
20
-1127.463
0
TEXT
8
2
10
1254.033
20
-1127.463
40
10.00
1
#262
0
POINT
8
2
10
1230.47
20
-1004.305
0
TEXT
8
2
10
1230.47
20
-1004.305
40
10.00
1
#263
0
POINT
8
3
10
1228.692
20
-997.241
0
POINT
8
3
10
1225.147
20
-989.305
0
POINT
8
3
10
1220.096
20
-981.943
0
POINT
8
3
10
1213.717
20
-975.465
0
POINT
8
3
10
1206.289
20
-970.184
0
POINT
8
3
10
1198.186
20
-966.352
0
POINT
8
3
10
1189.765
20
-964.099
0
POINT
8
2
10
1181.315
20
-963.46
0
TEXT
8
2
10
1181.315
20
-963.46
40
10.00
1
#264
0
POINT
8
2
10
1018.063
20
-963.46
0
TEXT
8
2
10
1018.063
20
-963.46
40
10.00
1
#265
0
POINT
8
2
10
1083.369
20
-1127.463
0
TEXT
8
2
10
1083.369
20
-1127.463
40
10.00
1
#261
0
LINE
8
7
10
1170.703
20
-1039.633
11
1097.245
21
-1039.633
0
POINT
8
2
10
1170.703
20
-1039.633
0
TEXT
8
2
10
1170.703
20
-1039.633
40
10.00
1
#1
0
POINT
8
2
10
1097.245
20
-1039.633
0
TEXT
8
2
10
1097.245
20
-1039.633
40
10.00
1
#1
0
TEXT
8
8
10
1113.038
20
-1020.287
11
1168.311
21
-1006.008
40
10.00
50
345.515128775798
1
4 ADET
0
TEXT
8
1
10
1097.245
20
-1028.633
40
10.00
1
PIECE NAME: CPTOR
0
TEXT
8
1
10
1097.245
20
-1017.633
40
10.00
1
SIZE: 1
0
TEXT
8
1
10
1097.245
20
-1006.633
40
10.00
1
ANNOTATION: 
0
TEXT
8
1
10
1097.245
20
-995.633
40
10.00
1
QUANTITY: 1
0
TEXT
8
1
10
1097.245
20
-984.633
40
10.00
1
MATERIAL: KUMAS
0
ENDBLK
0
BLOCK
8
0
2
10
70
0
10
0.0000
20
0.0000
0
POLYLINE
8
1
66
1
70
1
0
VERTEX
8
1
10
256.645
20
-853.74
0
VERTEX
8
1
10
231.875
20
-848.006
0
VERTEX
8
1
10
209.873
20
-843.355
0
VERTEX
8
1
10
187.471
20
-839.031
0
VERTEX
8
1
10
164.752
20
-835.058
0
VERTEX
8
1
10
141.738
20
-831.442
0
VERTEX
8
1
10
118.367
20
-828.178
0
VERTEX
8
1
10
94.599
20
-825.267
0
VERTEX
8
1
10
70.493
20
-822.722
0
VERTEX
8
1
10
46.024
20
-820.545
0
VERTEX
8
1
10
21.145
20
-818.738
0
VERTEX
8
1
10
-4.068
20
-817.312
0
VERTEX
8
1
10
-29.666
20
-816.269
0
VERTEX
8
1
10
-32.988
20
-886.189
0
VERTEX
8
1
10
-42.976
20
-885.714
0
VERTEX
8
1
10
-43.976
20
-898.509
0
VERTEX
8
1
10
-45.018
20
-906.04
0
VERTEX
8
1
10
-46.278
20
-912.658
0
VERTEX
8
1
10
-47.936
20
-919.345
0
VERTEX
8
1
10
-49.814
20
-925.401
0
VERTEX
8
1
10
-51.869
20
-930.919
0
VERTEX
8
1
10
-54.233
20
-936.333
0
VERTEX
8
1
10
-56.81
20
-941.459
0
VERTEX
8
1
10
-60.073
20
-947.131
0
VERTEX
8
1
10
-63.827
20
-952.847
0
VERTEX
8
1
10
-68.034
20
-958.52
0
VERTEX
8
1
10
-72.626
20
-964.053
0
VERTEX
8
1
10
-77.48
20
-969.342
0
VERTEX
8
1
10
-83.231
20
-975.029
0
VERTEX
8
1
10
-95.908
20
-986.225
0
VERTEX
8
1
10
-90.771
20
-993.608
0
VERTEX
8
1
10
-84.779
20
-1001.858
0
VERTEX
8
1
10
-78.376
20
-1010.009
0
VERTEX
8
1
10
-71.283
20
-1018.417
0
VERTEX
8
1
10
-64.083
20
-1026.416
0
VERTEX
8
1
10
-55.712
20
-1035.166
0
VERTEX
8
1
10
-46.604
20
-1044.114
0
VERTEX
8
1
10
-37.414
20
-1052.627
0
VERTEX
8
1
10
-27.675
20
-1061.145
0
VERTEX
8
1
10
-17.756
20
-1069.331
0
VERTEX
8
1
10
-8.082
20
-1076.863
0
VERTEX
8
1
10
1.743
20
-1084.06
0
VERTEX
8
1
10
11.469
20
-1090.719
0
VERTEX
8
1
10
19.932
20
-1096.108
0
VERTEX
8
1
10
26.768
20
-1100.217
0
VERTEX
8
1
10
39.499
20
-1107.492
0
VERTEX
8
1
10
53.971
20
-1115.278
0
VERTEX
8
1
10
85.743
20
-1131.541
0
VERTEX
8
1
10
98.055
20
-1138.096
0
VERTEX
8
1
10
106.511
20
-1142.978
0
VERTEX
8
1
10
114.538
20
-1148.153
0
VERTEX
8
1
10
119.738
20
-1151.968
0
VERTEX
8
1
10
124.043
20
-1155.564
0
VERTEX
8
1
10
127.672
20
-1159.055
0
VERTEX
8
1
10
130.806
20
-1162.583
0
VERTEX
8
1
10
133.399
20
-1166.057
0
VERTEX
8
1
10
136.567
20
-1171.476
0
VERTEX
8
1
10
138.198
20
-1175.199
0
VERTEX
8
1
10
139.524
20
-1179.184
0
VERTEX
8
1
10
140.532
20
-1183.462
0
VERTEX
8
1
10
141.21
20
-1188.108
0
VERTEX
8
1
10
141.532
20
-1193.004
0
VERTEX
8
1
10
141.505
20
-1198.11
0
VERTEX
8
1
10
141.13
20
-1208.103
0
VERTEX
8
1
10
281.032
20
-1213.354
0
VERTEX
8
1
10
501.259
20
-1221.619
0
VERTEX
8
1
10
501.259
20
-853.738
0
VERTEX
8
1
10
256.645
20
-853.74
0
SEQEND
8
1
0
POINT
8
4
10
256.645
20
-853.74
30
10
50
263.183393093939
0
POINT
8
2
10
256.645
20
-853.74
0
TEXT
8
2
10
256.645
20
-853.74
40
10.00
1
#266
0
POINT
8
3
10
231.875
20
-848.006
0
POINT
8
3
10
209.873
20
-843.355
0
POINT
8
3
10
187.471
20
-839.031
0
POINT
8
3
10
164.752
20
-835.058
0
POINT
8
3
10
141.738
20
-831.442
0
POINT
8
3
10
118.367
20
-828.178
0
POINT
8
3
10
94.599
20
-825.267
0
POINT
8
3
10
70.493
20
-822.722
0
POINT
8
3
10
46.024
20
-820.545
0
POINT
8
3
10
21.145
20
-818.738
0
POINT
8
3
10
-4.068
20
-817.312
0
POINT
8
2
10
-29.666
20
-816.269
0
TEXT
8
2
10
-29.666
20
-816.269
40
10.00
1
#267
0
POINT
8
4
10
-32.988
20
-886.189
30
10
50
357.277504291724
0
POINT
8
2
10
-32.988
20
-886.189
0
TEXT
8
2
10
-32.988
20
-886.189
40
10.00
1
#268
0
POINT
8
2
10
-42.976
20
-885.714
0
TEXT
8
2
10
-42.976
20
-885.714
40
10.00
1
#269
0
POINT
8
3
10
-43.976
20
-898.509
0
POINT
8
3
10
-45.018
20
-906.04
0
POINT
8
3
10
-46.278
20
-912.658
0
POINT
8
3
10
-47.936
20
-919.345
0
POINT
8
3
10
-49.814
20
-925.401
0
POINT
8
3
10
-51.869
20
-930.919
0
POINT
8
3
10
-54.233
20
-936.333
0
POINT
8
3
10
-56.81
20
-941.459
0
POINT
8
3
10
-60.073
20
-947.131
0
POINT
8
3
10
-63.827
20
-952.847
0
POINT
8
3
10
-68.034
20
-958.52
0
POINT
8
3
10
-72.626
20
-964.053
0
POINT
8
3
10
-77.48
20
-969.342
0
POINT
8
3
10
-83.231
20
-975.029
0
POINT
8
2
10
-95.908
20
-986.225
0
TEXT
8
2
10
-95.908
20
-986.225
40
10.00
1
#270
0
POINT
8
3
10
-90.771
20
-993.608
0
POINT
8
3
10
-84.779
20
-1001.858
0
POINT
8
3
10
-78.376
20
-1010.009
0
POINT
8
3
10
-71.283
20
-1018.417
0
POINT
8
3
10
-64.083
20
-1026.416
0
POINT
8
3
10
-55.712
20
-1035.166
0
POINT
8
3
10
-46.604
20
-1044.114
0
POINT
8
3
10
-37.414
20
-1052.627
0
POINT
8
3
10
-27.675
20
-1061.145
0
POINT
8
3
10
-17.756
20
-1069.331
0
POINT
8
3
10
-8.082
20
-1076.863
0
POINT
8
3
10
1.743
20
-1084.06
0
POINT
8
3
10
11.469
20
-1090.719
0
POINT
8
4
10
19.932
20
-1096.108
30
10
50
58.5114923224403
0
POINT
8
2
10
19.932
20
-1096.108
0
TEXT
8
2
10
19.932
20
-1096.108
40
10.00
1
#271
0
POINT
8
3
10
26.768
20
-1100.217
0
POINT
8
3
10
39.499
20
-1107.492
0
POINT
8
3
10
53.971
20
-1115.278
0
POINT
8
3
10
85.743
20
-1131.541
0
POINT
8
3
10
98.055
20
-1138.096
0
POINT
8
4
10
106.511
20
-1142.978
30
10
50
58.8043178030711
0
POINT
8
2
10
106.511
20
-1142.978
0
TEXT
8
2
10
106.511
20
-1142.978
40
10.00
1
#272
0
POINT
8
3
10
114.538
20
-1148.153
0
POINT
8
3
10
119.738
20
-1151.968
0
POINT
8
3
10
124.043
20
-1155.564
0
POINT
8
3
10
127.672
20
-1159.055
0
POINT
8
3
10
130.806
20
-1162.583
0
POINT
8
4
10
133.399
20
-1166.057
30
10
50
34.2049005111539
0
POINT
8
2
10
133.399
20
-1166.057
0
TEXT
8
2
10
133.399
20
-1166.057
40
10.00
1
#273
0
POINT
8
3
10
136.567
20
-1171.476
0
POINT
8
3
10
138.198
20
-1175.199
0
POINT
8
3
10
139.524
20
-1179.184
0
POINT
8
3
10
140.532
20
-1183.462
0
POINT
8
3
10
141.21
20
-1188.108
0
POINT
8
3
10
141.532
20
-1193.004
0
POINT
8
3
10
141.505
20
-1198.11
0
POINT
8
2
10
141.13
20
-1208.103
0
TEXT
8
2
10
141.13
20
-1208.103
40
10.00
1
#274
0
POINT
8
4
10
281.032
20
-1213.354
30
10
50
87.8564228612663
0
POINT
8
2
10
281.032
20
-1213.354
0
TEXT
8
2
10
281.032
20
-1213.354
40
10.00
1
#275
0
POINT
8
2
10
501.259
20
-1221.619
0
TEXT
8
2
10
501.259
20
-1221.619
40
10.00
1
#276
0
POINT
8
2
10
501.259
20
-853.738
0
TEXT
8
2
10
501.259
20
-853.738
40
10.00
1
#277
0
POINT
8
2
10
256.645
20
-853.74
0
TEXT
8
2
10
256.645
20
-853.74
40
10.00
1
#266
0
POLYLINE
8
8
66
1
70
1
0
VERTEX
8
8
10
401.774
20
-1167.86
0
VERTEX
8
8
10
443.779
20
-1160.071
0
VERTEX
8
8
10
363.805
20
-1027.296
0
VERTEX
8
8
10
321.801
20
-1035.085
0
VERTEX
8
8
10
401.774
20
-1167.86
0
SEQEND
8
8
0
POINT
8
2
10
401.774
20
-1167.86
0
TEXT
8
2
10
401.774
20
-1167.86
40
10.00
1
#278
0
POINT
8
2
10
443.779
20
-1160.071
0
TEXT
8
2
10
443.779
20
-1160.071
40
10.00
1
#279
0
POINT
8
2
10
363.805
20
-1027.296
0
TEXT
8
2
10
363.805
20
-1027.296
40
10.00
1
#280
0
POINT
8
2
10
321.801
20
-1035.085
0
TEXT
8
2
10
321.801
20
-1035.085
40
10.00
1
#281
0
LINE
8
7
10
284.902
20
-981.469
11
84.902
21
-981.469
0
POINT
8
2
10
284.902
20
-981.469
0
TEXT
8
2
10
284.902
20
-981.469
40
10.00
1
#1
0
POINT
8
2
10
84.902
20
-981.469
0
TEXT
8
2
10
84.902
20
-981.469
40
10.00
1
#1
0
TEXT
8
1
10
84.902
20
-970.469
40
10.00
1
PIECE NAME: ONCZ
0
TEXT
8
1
10
84.902
20
-959.469
40
10.00
1
SIZE: 1
0
TEXT
8
1
10
84.902
20
-948.469
40
10.00
1
ANNOTATION: 
0
TEXT
8
1
10
84.902
20
-937.469
40
10.00
1
QUANTITY: 1
0
TEXT
8
1
10
84.902
20
-926.469
40
10.00
1
MATERIAL: ÇÝZÝM
0
ENDBLK
0
ENDSEC
0
SECTION
2
ENTITIES
0
INSERT
8
1
2
0
10
0
20
0
0
INSERT
8
1
2
1
10
0
20
0
0
INSERT
8
1
2
2
10
0
20
0
0
INSERT
8
1
2
3
10
0
20
0
0
INSERT
8
1
2
4
10
0
20
0
0
INSERT
8
1
2
5
10
0
20
0
0
INSERT
8
1
2
6
10
0
20
0
0
INSERT
8
1
2
7
10
0
20
0
0
INSERT
8
1
2
8
10
0
20
0
0
INSERT
8
1
2
9
10
0
20
0
0
INSERT
8
1
2
10
10
0
20
0
0
TEXT
8
1
10
-95.908
20
-1411.939
40
10.00
1
STYLE NAME: 262-5039 KB-ÇÝN
0
TEXT
8
1
10
-95.908
20
-1422.939
40
10.00
1
CREATION DATE: 20-02-2026
0
TEXT
8
1
10
-95.908
20
-1433.939
40
10.00
1
CREATION TIME: 12:58:08
0
TEXT
8
1
10
-95.908
20
-1444.939
40
10.00
1
AUTHOR: GEMINI CAD SYSTEMS
0
TEXT
8
1
10
-95.908
20
-1455.939
40
10.00
1
PRODUCT: GEMINI PATTERN DESIGNER
0
TEXT
8
1
10
-95.908
20
-1466.939
40
10.00
1
SAMPLE SIZE: 1
0
TEXT
8
1
10
-95.908
20
-1477.939
40
10.00
1
GRADE RULE TABLE: 262-5039 KB-ÇÝN
0
TEXT
8
1
10
-95.908
20
-1488.939
40
10.00
1
UNITS: METRIC
0
ENDSEC
0
EOF
