0
SECTION
2
HEADER
9
$LUNITS
70
2
9
$INSUNITS
70
4
0
ENDSEC
0
SECTION
2
BLOCKS
0
BLOCK
8
0
2
0
70
0
10
0.0000
20
0.0000
0
POLYLINE
8
1
66
1
70
1
0
VERTEX
8
1
10
1457.238
20
-649.511
0
VERTEX
8
1
10
1657.238
20
-649.511
0
VERTEX
8
1
10
1657.238
20
-549.511
0
VERTEX
8
1
10
1457.238
20
-549.511
0
VERTEX
8
1
10
1457.238
20
-649.511
0
SEQEND
8
1
0
POINT
8
2
10
1457.238
20
-649.511
0
TEXT
8
2
10
1457.238
20
-649.511
40
10.00
1
#153
0
POINT
8
2
10
1657.238
20
-649.511
0
TEXT
8
2
10
1657.238
20
-649.511
40
10.00
1
#154
0
POINT
8
2
10
1657.238
20
-549.511
0
TEXT
8
2
10
1657.238
20
-549.511
40
10.00
1
#155
0
POINT
8
2
10
1457.238
20
-549.511
0
TEXT
8
2
10
1457.238
20
-549.511
40
10.00
1
#156
0
POINT
8
2
10
1457.238
20
-649.511
0
TEXT
8
2
10
1457.238
20
-649.511
40
10.00
1
#153
0
LINE
8
7
10
1590.572
20
-599.511
11
1523.905
21
-599.511
0
POINT
8
2
10
1590.572
20
-599.511
0
TEXT
8
2
10
1590.572
20
-599.511
40
10.00
1
#1
0
POINT
8
2
10
1523.905
20
-599.511
0
TEXT
8
2
10
1523.905
20
-599.511
40
10.00
1
#1
0
TEXT
8
1
10
1523.905
20
-588.511
40
10.00
1
PIECE NAME: CPKARSILIK
0
TEXT
8
1
10
1523.905
20
-577.511
40
10.00
1
SIZE: 38
0
TEXT
8
1
10
1523.905
20
-566.511
40
10.00
1
ANNOTATION: 
0
TEXT
8
1
10
1523.905
20
-555.511
40
10.00
1
QUANTITY: 1
0
TEXT
8
1
10
1523.905
20
-544.511
40
10.00
1
MATERIAL: KUMAS
0
ENDBLK
0
BLOCK
8
0
2
1
70
0
10
0.0000
20
0.0000
0
POLYLINE
8
1
66
1
70
1
0
VERTEX
8
1
10
1289.789
20
-896.858
0
VERTEX
8
1
10
1839.789
20
-896.858
0
VERTEX
8
1
10
1839.789
20
-856.858
0
VERTEX
8
1
10
1289.789
20
-856.858
0
VERTEX
8
1
10
1289.789
20
-896.858
0
SEQEND
8
1
0
POINT
8
2
10
1289.789
20
-896.858
0
TEXT
8
2
10
1289.789
20
-896.858
40
10.00
1
#157
0
POINT
8
2
10
1839.789
20
-896.858
0
TEXT
8
2
10
1839.789
20
-896.858
40
10.00
1
#158
0
POINT
8
2
10
1839.789
20
-856.858
0
TEXT
8
2
10
1839.789
20
-856.858
40
10.00
1
#159
0
POINT
8
2
10
1289.789
20
-856.858
0
TEXT
8
2
10
1289.789
20
-856.858
40
10.00
1
#160
0
POINT
8
2
10
1289.789
20
-896.858
0
TEXT
8
2
10
1289.789
20
-896.858
40
10.00
1
#157
0
LINE
8
7
10
1606.94
20
-883.935
11
1506.94
21
-883.935
0
POINT
8
2
10
1606.94
20
-883.935
0
TEXT
8
2
10
1606.94
20
-883.935
40
10.00
1
#1
0
POINT
8
2
10
1506.94
20
-883.935
0
TEXT
8
2
10
1506.94
20
-883.935
40
10.00
1
#1
0
TEXT
8
1
10
1506.94
20
-872.935
40
10.00
1
PIECE NAME: KOPRULUK
0
TEXT
8
1
10
1506.94
20
-861.935
40
10.00
1
SIZE: 38
0
TEXT
8
1
10
1506.94
20
-850.935
40
10.00
1
ANNOTATION: 
0
TEXT
8
1
10
1506.94
20
-839.935
40
10.00
1
QUANTITY: 1
0
TEXT
8
1
10
1506.94
20
-828.935
40
10.00
1
MATERIAL: KUMAS
0
ENDBLK
0
BLOCK
8
0
2
2
70
0
10
0.0000
20
0.0000
0
POLYLINE
8
1
66
1
70
1
0
VERTEX
8
1
10
1457.238
20
-819.511
0
VERTEX
8
1
10
1657.238
20
-819.511
0
VERTEX
8
1
10
1657.238
20
-759.511
0
VERTEX
8
1
10
1657.238
20
-699.511
0
VERTEX
8
1
10
1457.238
20
-699.511
0
VERTEX
8
1
10
1457.238
20
-759.511
0
VERTEX
8
1
10
1457.238
20
-819.511
0
SEQEND
8
1
0
POINT
8
2
10
1457.238
20
-819.511
0
TEXT
8
2
10
1457.238
20
-819.511
40
10.00
1
#161
0
POINT
8
2
10
1657.238
20
-819.511
0
TEXT
8
2
10
1657.238
20
-819.511
40
10.00
1
#162
0
POINT
8
4
10
1657.238
20
-759.511
30
10
50
180
0
POINT
8
2
10
1657.238
20
-759.511
0
TEXT
8
2
10
1657.238
20
-759.511
40
10.00
1
#163
0
POINT
8
2
10
1657.238
20
-699.511
0
TEXT
8
2
10
1657.238
20
-699.511
40
10.00
1
#164
0
POINT
8
2
10
1457.238
20
-699.511
0
TEXT
8
2
10
1457.238
20
-699.511
40
10.00
1
#165
0
POINT
8
4
10
1457.238
20
-759.511
30
10
50
0
0
POINT
8
2
10
1457.238
20
-759.511
0
TEXT
8
2
10
1457.238
20
-759.511
40
10.00
1
#166
0
POINT
8
2
10
1457.238
20
-819.511
0
TEXT
8
2
10
1457.238
20
-819.511
40
10.00
1
#161
0
LINE
8
7
10
1582.983
20
-741.384
11
1516.317
21
-741.384
0
POINT
8
2
10
1582.983
20
-741.384
0
TEXT
8
2
10
1582.983
20
-741.384
40
10.00
1
#1
0
POINT
8
2
10
1516.317
20
-741.384
0
TEXT
8
2
10
1516.317
20
-741.384
40
10.00
1
#1
0
TEXT
8
1
10
1516.317
20
-730.384
40
10.00
1
PIECE NAME: FLT
0
TEXT
8
1
10
1516.317
20
-719.384
40
10.00
1
SIZE: 38
0
TEXT
8
1
10
1516.317
20
-708.384
40
10.00
1
ANNOTATION: 
0
TEXT
8
1
10
1516.317
20
-697.384
40
10.00
1
QUANTITY: 1
0
TEXT
8
1
10
1516.317
20
-686.384
40
10.00
1
MATERIAL: KUMAS
0
ENDBLK
0
BLOCK
8
0
2
3
70
0
10
0.0000
20
0.0000
0
POLYLINE
8
1
66
1
70
1
0
VERTEX
8
1
10
2467.816
20
-586.075
0
VERTEX
8
1
10
2468.139
20
-611.363
0
VERTEX
8
1
10
2469.137
20
-648.357
0
VERTEX
8
1
10
2469.291
20
-651.699
0
VERTEX
8
1
10
2470.938
20
-666.767
0
VERTEX
8
1
10
2474.039
20
-680.834
0
VERTEX
8
1
10
2478.552
20
-694.022
0
VERTEX
8
1
10
2484.425
20
-706.315
0
VERTEX
8
1
10
2491.67
20
-717.795
0
VERTEX
8
1
10
2500.307
20
-728.477
0
VERTEX
8
1
10
2510.371
20
-738.354
0
VERTEX
8
1
10
2521.878
20
-747.374
0
VERTEX
8
1
10
2534.871
20
-755.489
0
VERTEX
8
1
10
2549.358
20
-762.613
0
VERTEX
8
1
10
2565.329
20
-768.643
0
VERTEX
8
1
10
2582.715
20
-773.456
0
VERTEX
8
1
10
2601.329
20
-776.916
0
VERTEX
8
1
10
2620.976
20
-778.916
0
VERTEX
8
1
10
2641.391
20
-779.366
0
VERTEX
8
1
10
2662.139
20
-778.214
0
VERTEX
8
1
10
2680.162
20
-774.794
0
VERTEX
8
1
10
2685.637
20
-773.8
0
VERTEX
8
1
10
2698.668
20
-770.345
0
VERTEX
8
1
10
2710.027
20
-765.762
0
VERTEX
8
1
10
2719.63
20
-760.257
0
VERTEX
8
1
10
2727.447
20
-754.032
0
VERTEX
8
1
10
2733.53
20
-747.247
0
VERTEX
8
1
10
2737.943
20
-740.026
0
VERTEX
8
1
10
2740.76
20
-732.435
0
VERTEX
8
1
10
2742.012
20
-724.487
0
VERTEX
8
1
10
2741.682
20
-716.172
0
VERTEX
8
1
10
2739.682
20
-707.464
0
VERTEX
8
1
10
2735.864
20
-698.344
0
VERTEX
8
1
10
2730.041
20
-688.822
0
VERTEX
8
1
10
2709.623
20
-655.984
0
VERTEX
8
1
10
2700.418
20
-638.953
0
VERTEX
8
1
10
2694.427
20
-624.805
0
VERTEX
8
1
10
2690.541
20
-611.736
0
VERTEX
8
1
10
2688.376
20
-598.973
0
VERTEX
8
1
10
2687.813
20
-586.075
0
VERTEX
8
1
10
2688.164
20
-566.12
0
VERTEX
8
1
10
2686.927
20
-566.076
0
VERTEX
8
1
10
2657.809
20
-565.965
0
VERTEX
8
1
10
2497.748
20
-565.973
0
VERTEX
8
1
10
2467.302
20
-566.072
0
VERTEX
8
1
10
2467.816
20
-586.075
0
SEQEND
8
1
0
POINT
8
2
10
2467.816
20
-586.075
0
TEXT
8
2
10
2467.816
20
-586.075
40
10.00
1
#169
0
POINT
8
3
10
2468.139
20
-611.363
0
POINT
8
3
10
2469.137
20
-648.357
0
POINT
8
3
10
2469.291
20
-651.699
0
POINT
8
3
10
2470.938
20
-666.767
0
POINT
8
3
10
2474.039
20
-680.834
0
POINT
8
3
10
2478.552
20
-694.022
0
POINT
8
3
10
2484.425
20
-706.315
0
POINT
8
3
10
2491.67
20
-717.795
0
POINT
8
3
10
2500.307
20
-728.477
0
POINT
8
3
10
2510.371
20
-738.354
0
POINT
8
3
10
2521.878
20
-747.374
0
POINT
8
3
10
2534.871
20
-755.489
0
POINT
8
3
10
2549.358
20
-762.613
0
POINT
8
3
10
2565.329
20
-768.643
0
POINT
8
3
10
2582.715
20
-773.456
0
POINT
8
3
10
2601.329
20
-776.916
0
POINT
8
3
10
2620.976
20
-778.916
0
POINT
8
3
10
2641.391
20
-779.366
0
POINT
8
3
10
2662.139
20
-778.214
0
POINT
8
3
10
2680.162
20
-774.794
0
POINT
8
3
10
2685.637
20
-773.8
0
POINT
8
3
10
2698.668
20
-770.345
0
POINT
8
3
10
2710.027
20
-765.762
0
POINT
8
3
10
2719.63
20
-760.257
0
POINT
8
3
10
2727.447
20
-754.032
0
POINT
8
3
10
2733.53
20
-747.247
0
POINT
8
3
10
2737.943
20
-740.026
0
POINT
8
3
10
2740.76
20
-732.435
0
POINT
8
3
10
2742.012
20
-724.487
0
POINT
8
3
10
2741.682
20
-716.172
0
POINT
8
3
10
2739.682
20
-707.464
0
POINT
8
3
10
2735.864
20
-698.344
0
POINT
8
3
10
2730.041
20
-688.822
0
POINT
8
3
10
2709.623
20
-655.984
0
POINT
8
3
10
2700.418
20
-638.953
0
POINT
8
3
10
2694.427
20
-624.805
0
POINT
8
3
10
2690.541
20
-611.736
0
POINT
8
3
10
2688.376
20
-598.973
0
POINT
8
2
10
2687.813
20
-586.075
0
TEXT
8
2
10
2687.813
20
-586.075
40
10.00
1
#170
0
POINT
8
2
10
2688.164
20
-566.12
0
TEXT
8
2
10
2688.164
20
-566.12
40
10.00
1
#171
0
POINT
8
3
10
2686.927
20
-566.076
0
POINT
8
4
10
2657.809
20
-565.965
30
10
50
269.891138149921
0
POINT
8
2
10
2657.809
20
-565.965
0
TEXT
8
2
10
2657.809
20
-565.965
40
10.00
1
#172
0
POINT
8
4
10
2497.748
20
-565.973
30
10
50
270.085943604811
0
POINT
8
2
10
2497.748
20
-565.973
0
TEXT
8
2
10
2497.748
20
-565.973
40
10.00
1
#173
0
POINT
8
2
10
2467.302
20
-566.072
0
TEXT
8
2
10
2467.302
20
-566.072
40
10.00
1
#174
0
POINT
8
2
10
2467.816
20
-586.075
0
TEXT
8
2
10
2467.816
20
-586.075
40
10.00
1
#169
0
LINE
8
7
10
2634.923
20
-675.769
11
2556.017
21
-675.769
0
POINT
8
2
10
2634.923
20
-675.769
0
TEXT
8
2
10
2634.923
20
-675.769
40
10.00
1
#1
0
POINT
8
2
10
2556.017
20
-675.769
0
TEXT
8
2
10
2556.017
20
-675.769
40
10.00
1
#1
0
TEXT
8
1
10
2556.017
20
-664.769
40
10.00
1
PIECE NAME: CPTOR
0
TEXT
8
1
10
2556.017
20
-653.769
40
10.00
1
SIZE: 38
0
TEXT
8
1
10
2556.017
20
-642.769
40
10.00
1
ANNOTATION: 
0
TEXT
8
1
10
2556.017
20
-631.769
40
10.00
1
QUANTITY: 1
0
TEXT
8
1
10
2556.017
20
-620.769
40
10.00
1
MATERIAL: ASTAR
0
ENDBLK
0
BLOCK
8
0
2
4
70
0
10
0.0000
20
0.0000
0
POLYLINE
8
1
66
1
70
1
0
VERTEX
8
1
10
2467.302
20
-779.26
0
VERTEX
8
1
10
2497.748
20
-779.359
0
VERTEX
8
1
10
2657.809
20
-779.367
0
VERTEX
8
1
10
2686.927
20
-779.256
0
VERTEX
8
1
10
2688.164
20
-779.212
0
VERTEX
8
1
10
2687.813
20
-759.257
0
VERTEX
8
1
10
2688.376
20
-746.359
0
VERTEX
8
1
10
2690.541
20
-733.596
0
VERTEX
8
1
10
2694.427
20
-720.527
0
VERTEX
8
1
10
2700.418
20
-706.379
0
VERTEX
8
1
10
2709.623
20
-689.348
0
VERTEX
8
1
10
2730.041
20
-656.51
0
VERTEX
8
1
10
2735.864
20
-646.988
0
VERTEX
8
1
10
2739.682
20
-637.868
0
VERTEX
8
1
10
2741.682
20
-629.16
0
VERTEX
8
1
10
2742.012
20
-620.845
0
VERTEX
8
1
10
2740.76
20
-612.897
0
VERTEX
8
1
10
2737.943
20
-605.306
0
VERTEX
8
1
10
2733.53
20
-598.085
0
VERTEX
8
1
10
2727.447
20
-591.3
0
VERTEX
8
1
10
2719.63
20
-585.075
0
VERTEX
8
1
10
2710.027
20
-579.57
0
VERTEX
8
1
10
2698.668
20
-574.987
0
VERTEX
8
1
10
2685.637
20
-571.532
0
VERTEX
8
1
10
2680.162
20
-570.538
0
VERTEX
8
1
10
2662.139
20
-567.118
0
VERTEX
8
1
10
2641.391
20
-565.966
0
VERTEX
8
1
10
2620.976
20
-566.416
0
VERTEX
8
1
10
2601.329
20
-568.416
0
VERTEX
8
1
10
2582.715
20
-571.876
0
VERTEX
8
1
10
2565.329
20
-576.689
0
VERTEX
8
1
10
2549.358
20
-582.719
0
VERTEX
8
1
10
2534.871
20
-589.843
0
VERTEX
8
1
10
2521.878
20
-597.958
0
VERTEX
8
1
10
2510.371
20
-606.978
0
VERTEX
8
1
10
2500.307
20
-616.855
0
VERTEX
8
1
10
2491.67
20
-627.537
0
VERTEX
8
1
10
2484.425
20
-639.017
0
VERTEX
8
1
10
2478.552
20
-651.31
0
VERTEX
8
1
10
2474.039
20
-664.498
0
VERTEX
8
1
10
2470.938
20
-678.565
0
VERTEX
8
1
10
2469.291
20
-693.633
0
VERTEX
8
1
10
2469.137
20
-696.975
0
VERTEX
8
1
10
2468.139
20
-733.969
0
VERTEX
8
1
10
2467.816
20
-759.257
0
VERTEX
8
1
10
2467.302
20
-779.26
0
SEQEND
8
1
0
POINT
8
2
10
2467.302
20
-779.26
0
TEXT
8
2
10
2467.302
20
-779.26
40
10.00
1
#18
0
POINT
8
4
10
2497.748
20
-779.359
30
10
50
89.9140563951888
0
POINT
8
2
10
2497.748
20
-779.359
0
TEXT
8
2
10
2497.748
20
-779.359
40
10.00
1
#19
0
POINT
8
4
10
2657.809
20
-779.367
30
10
50
90.1088618500792
0
POINT
8
2
10
2657.809
20
-779.367
0
TEXT
8
2
10
2657.809
20
-779.367
40
10.00
1
#20
0
POINT
8
3
10
2686.927
20
-779.256
0
POINT
8
2
10
2688.164
20
-779.212
0
TEXT
8
2
10
2688.164
20
-779.212
40
10.00
1
#21
0
POINT
8
2
10
2687.813
20
-759.257
0
TEXT
8
2
10
2687.813
20
-759.257
40
10.00
1
#22
0
POINT
8
3
10
2688.376
20
-746.359
0
POINT
8
3
10
2690.541
20
-733.596
0
POINT
8
3
10
2694.427
20
-720.527
0
POINT
8
3
10
2700.418
20
-706.379
0
POINT
8
3
10
2709.623
20
-689.348
0
POINT
8
3
10
2730.041
20
-656.51
0
POINT
8
3
10
2735.864
20
-646.988
0
POINT
8
3
10
2739.682
20
-637.868
0
POINT
8
3
10
2741.682
20
-629.16
0
POINT
8
3
10
2742.012
20
-620.845
0
POINT
8
3
10
2740.76
20
-612.897
0
POINT
8
3
10
2737.943
20
-605.306
0
POINT
8
3
10
2733.53
20
-598.085
0
POINT
8
3
10
2727.447
20
-591.3
0
POINT
8
3
10
2719.63
20
-585.075
0
POINT
8
3
10
2710.027
20
-579.57
0
POINT
8
3
10
2698.668
20
-574.987
0
POINT
8
3
10
2685.637
20
-571.532
0
POINT
8
3
10
2680.162
20
-570.538
0
POINT
8
3
10
2662.139
20
-567.118
0
POINT
8
3
10
2641.391
20
-565.966
0
POINT
8
3
10
2620.976
20
-566.416
0
POINT
8
3
10
2601.329
20
-568.416
0
POINT
8
3
10
2582.715
20
-571.876
0
POINT
8
3
10
2565.329
20
-576.689
0
POINT
8
3
10
2549.358
20
-582.719
0
POINT
8
3
10
2534.871
20
-589.843
0
POINT
8
3
10
2521.878
20
-597.958
0
POINT
8
3
10
2510.371
20
-606.978
0
POINT
8
3
10
2500.307
20
-616.855
0
POINT
8
3
10
2491.67
20
-627.537
0
POINT
8
3
10
2484.425
20
-639.017
0
POINT
8
3
10
2478.552
20
-651.31
0
POINT
8
3
10
2474.039
20
-664.498
0
POINT
8
3
10
2470.938
20
-678.565
0
POINT
8
3
10
2469.291
20
-693.633
0
POINT
8
3
10
2469.137
20
-696.975
0
POINT
8
3
10
2468.139
20
-733.969
0
POINT
8
2
10
2467.816
20
-759.257
0
TEXT
8
2
10
2467.816
20
-759.257
40
10.00
1
#23
0
POINT
8
2
10
2467.302
20
-779.26
0
TEXT
8
2
10
2467.302
20
-779.26
40
10.00
1
#18
0
LINE
8
7
10
2634.923
20
-669.563
11
2556.017
21
-669.563
0
POINT
8
2
10
2634.923
20
-669.563
0
TEXT
8
2
10
2634.923
20
-669.563
40
10.00
1
#1
0
POINT
8
2
10
2556.017
20
-669.563
0
TEXT
8
2
10
2556.017
20
-669.563
40
10.00
1
#1
0
TEXT
8
1
10
2556.017
20
-658.563
40
10.00
1
PIECE NAME: CPTORFY1
0
TEXT
8
1
10
2556.017
20
-647.563
40
10.00
1
SIZE: 38
0
TEXT
8
1
10
2556.017
20
-636.563
40
10.00
1
ANNOTATION: 
0
TEXT
8
1
10
2556.017
20
-625.563
40
10.00
1
QUANTITY: 1
0
TEXT
8
1
10
2556.017
20
-614.563
40
10.00
1
MATERIAL: ASTAR
0
ENDBLK
0
BLOCK
8
0
2
5
70
0
10
0.0000
20
0.0000
0
POLYLINE
8
1
66
1
70
1
0
VERTEX
8
1
10
167.381
20
-597.848
0
VERTEX
8
1
10
217.3
20
-603.661
0
VERTEX
8
1
10
222.479
20
-587.778
0
VERTEX
8
1
10
239.171
20
-541.882
0
VERTEX
8
1
10
257.678
20
-491.32
0
VERTEX
8
1
10
267.586
20
-460.26
0
VERTEX
8
1
10
274.326
20
-434.291
0
VERTEX
8
1
10
278.771
20
-411.168
0
VERTEX
8
1
10
281.303
20
-389.908
0
VERTEX
8
1
10
282.118
20
-370.021
0
VERTEX
8
1
10
282.113
20
-368.656
0
VERTEX
8
1
10
281.182
20
-348.663
0
VERTEX
8
1
10
278.521
20
-327.296
0
VERTEX
8
1
10
273.925
20
-303.997
0
VERTEX
8
1
10
267.002
20
-277.784
0
VERTEX
8
1
10
256.807
20
-246.197
0
VERTEX
8
1
10
228.573
20
-169.594
0
VERTEX
8
1
10
217.3
20
-136.38
0
VERTEX
8
1
10
167.381
20
-142.192
0
VERTEX
8
1
10
159.471
20
-151.26
0
VERTEX
8
1
10
153.103
20
-160.918
0
VERTEX
8
1
10
148.277
20
-171.096
0
VERTEX
8
1
10
144.948
20
-181.85
0
VERTEX
8
1
10
143.12
20
-193.215
0
VERTEX
8
1
10
142.836
20
-205.28
0
VERTEX
8
1
10
144.186
20
-218.078
0
VERTEX
8
1
10
147.292
20
-231.685
0
VERTEX
8
1
10
152.3
20
-246.119
0
VERTEX
8
1
10
159.378
20
-261.411
0
VERTEX
8
1
10
168.695
20
-277.54
0
VERTEX
8
1
10
169.914
20
-279.584
0
VERTEX
8
1
10
173.973
20
-288.546
0
VERTEX
8
1
10
177.424
20
-300.538
0
VERTEX
8
1
10
180.072
20
-316.289
0
VERTEX
8
1
10
181.693
20
-336.978
0
VERTEX
8
1
10
182.077
20
-370.021
0
VERTEX
8
1
10
182.094
20
-383.058
0
VERTEX
8
1
10
181.354
20
-409.485
0
VERTEX
8
1
10
179.424
20
-428.593
0
VERTEX
8
1
10
176.528
20
-443.206
0
VERTEX
8
1
10
172.893
20
-454.277
0
VERTEX
8
1
10
168.695
20
-462.5
0
VERTEX
8
1
10
159.455
20
-478.485
0
VERTEX
8
1
10
152.348
20
-493.803
0
VERTEX
8
1
10
147.325
20
-508.24
0
VERTEX
8
1
10
144.204
20
-521.852
0
VERTEX
8
1
10
142.841
20
-534.652
0
VERTEX
8
1
10
143.11
20
-546.722
0
VERTEX
8
1
10
144.925
20
-558.092
0
VERTEX
8
1
10
148.241
20
-568.85
0
VERTEX
8
1
10
153.051
20
-579.032
0
VERTEX
8
1
10
159.406
20
-588.696
0
VERTEX
8
1
10
167.381
20
-597.848
0
SEQEND
8
1
0
POINT
8
2
10
167.381
20
-597.848
0
TEXT
8
2
10
167.381
20
-597.848
40
10.00
1
#177
0
POINT
8
2
10
217.3
20
-603.661
0
TEXT
8
2
10
217.3
20
-603.661
40
10.00
1
#178
0
POINT
8
3
10
222.479
20
-587.778
0
POINT
8
3
10
239.171
20
-541.882
0
POINT
8
3
10
257.678
20
-491.32
0
POINT
8
3
10
267.586
20
-460.26
0
POINT
8
3
10
274.326
20
-434.291
0
POINT
8
3
10
278.771
20
-411.168
0
POINT
8
3
10
281.303
20
-389.908
0
POINT
8
4
10
282.118
20
-370.021
30
10
50
180
0
POINT
8
2
10
282.118
20
-370.021
0
TEXT
8
2
10
282.118
20
-370.021
40
10.00
1
#179
0
POINT
8
3
10
282.113
20
-368.656
0
POINT
8
3
10
281.182
20
-348.663
0
POINT
8
3
10
278.521
20
-327.296
0
POINT
8
3
10
273.925
20
-303.997
0
POINT
8
3
10
267.002
20
-277.784
0
POINT
8
3
10
256.807
20
-246.197
0
POINT
8
3
10
228.573
20
-169.594
0
POINT
8
2
10
217.3
20
-136.38
0
TEXT
8
2
10
217.3
20
-136.38
40
10.00
1
#180
0
POINT
8
2
10
167.381
20
-142.192
0
TEXT
8
2
10
167.381
20
-142.192
40
10.00
1
#181
0
POINT
8
3
10
159.471
20
-151.26
0
POINT
8
3
10
153.103
20
-160.918
0
POINT
8
3
10
148.277
20
-171.096
0
POINT
8
3
10
144.948
20
-181.85
0
POINT
8
3
10
143.12
20
-193.215
0
POINT
8
3
10
142.836
20
-205.28
0
POINT
8
3
10
144.186
20
-218.078
0
POINT
8
3
10
147.292
20
-231.685
0
POINT
8
3
10
152.3
20
-246.119
0
POINT
8
3
10
159.378
20
-261.411
0
POINT
8
4
10
168.695
20
-277.54
30
10
50
32.3819760366709
0
POINT
8
2
10
168.695
20
-277.54
0
TEXT
8
2
10
168.695
20
-277.54
40
10.00
1
#182
0
POINT
8
3
10
169.914
20
-279.584
0
POINT
8
3
10
173.973
20
-288.546
0
POINT
8
3
10
177.424
20
-300.538
0
POINT
8
3
10
180.072
20
-316.289
0
POINT
8
3
10
181.693
20
-336.978
0
POINT
8
4
10
182.077
20
-370.021
30
10
50
0
0
POINT
8
2
10
182.077
20
-370.021
0
TEXT
8
2
10
182.077
20
-370.021
40
10.00
1
#183
0
POINT
8
3
10
182.094
20
-383.058
0
POINT
8
3
10
181.354
20
-409.485
0
POINT
8
3
10
179.424
20
-428.593
0
POINT
8
3
10
176.528
20
-443.206
0
POINT
8
3
10
172.893
20
-454.277
0
POINT
8
4
10
168.695
20
-462.5
30
10
50
327.613185061685
0
POINT
8
2
10
168.695
20
-462.5
0
TEXT
8
2
10
168.695
20
-462.5
40
10.00
1
#184
0
POINT
8
3
10
159.455
20
-478.485
0
POINT
8
3
10
152.348
20
-493.803
0
POINT
8
3
10
147.325
20
-508.24
0
POINT
8
3
10
144.204
20
-521.852
0
POINT
8
3
10
142.841
20
-534.652
0
POINT
8
3
10
143.11
20
-546.722
0
POINT
8
3
10
144.925
20
-558.092
0
POINT
8
3
10
148.241
20
-568.85
0
POINT
8
3
10
153.051
20
-579.032
0
POINT
8
3
10
159.406
20
-588.696
0
POINT
8
2
10
167.381
20
-597.848
0
TEXT
8
2
10
167.381
20
-597.848
40
10.00
1
#177
0
LINE
8
7
10
238.351
20
-290.083
11
208.351
21
-290.083
0
POINT
8
2
10
238.351
20
-290.083
0
TEXT
8
2
10
238.351
20
-290.083
40
10.00
1
#1
0
POINT
8
2
10
208.351
20
-290.083
0
TEXT
8
2
10
208.351
20
-290.083
40
10.00
1
#1
0
TEXT
8
1
10
208.351
20
-279.083
40
10.00
1
PIECE NAME: YKCZ
0
TEXT
8
1
10
208.351
20
-268.083
40
10.00
1
SIZE: 38
0
TEXT
8
1
10
208.351
20
-257.083
40
10.00
1
ANNOTATION: 
0
TEXT
8
1
10
208.351
20
-246.083
40
10.00
1
QUANTITY: 1
0
TEXT
8
1
10
208.351
20
-235.083
40
10.00
1
MATERIAL: ÇÝZÝM
0
ENDBLK
0
BLOCK
8
0
2
6
70
0
10
0.0000
20
0.0000
0
POLYLINE
8
1
66
1
70
1
0
VERTEX
8
1
10
1626.75
20
-1138.615
0
VERTEX
8
1
10
1631.897
20
-1139.922
0
VERTEX
8
1
10
1638.026
20
-1142.811
0
VERTEX
8
1
10
1643.04
20
-1146.902
0
VERTEX
8
1
10
1647.136
20
-1152.365
0
VERTEX
8
1
10
1650.369
20
-1159.543
0
VERTEX
8
1
10
1652.68
20
-1169.025
0
VERTEX
8
1
10
1653.914
20
-1182
0
VERTEX
8
1
10
1653.669
20
-1217.999
0
VERTEX
8
1
10
1654.581
20
-1228.248
0
VERTEX
8
1
10
2049.581
20
-1228.241
0
VERTEX
8
1
10
2536.752
20
-1228.236
0
VERTEX
8
1
10
2556.752
20
-1268.236
0
VERTEX
8
1
10
2974.931
20
-1268.236
0
VERTEX
8
1
10
2974.931
20
-1218.236
0
VERTEX
8
1
10
2974.793
20
-1178.173
0
VERTEX
8
1
10
2974.405
20
-1126.73
0
VERTEX
8
1
10
2972.592
20
-1050.724
0
VERTEX
8
1
10
2969.382
20
-980.767
0
VERTEX
8
1
10
2964.833
20
-915.417
0
VERTEX
8
1
10
2958.976
20
-853.683
0
VERTEX
8
1
10
2652.934
20
-884.829
0
VERTEX
8
1
10
2257.353
20
-925.088
0
VERTEX
8
1
10
2233.804
20
-927.83
0
VERTEX
8
1
10
2209.137
20
-931.328
0
VERTEX
8
1
10
2123.228
20
-945.796
0
VERTEX
8
1
10
2075.42
20
-953.144
0
VERTEX
8
1
10
2048.432
20
-956.349
0
VERTEX
8
1
10
2021.408
20
-958.548
0
VERTEX
8
1
10
2001.237
20
-959.589
0
VERTEX
8
1
10
1938.974
20
-961.121
0
VERTEX
8
1
10
1882.489
20
-962.643
0
VERTEX
8
1
10
1882.849
20
-965.988
0
VERTEX
8
1
10
1882.712
20
-974.446
0
VERTEX
8
1
10
1881.05
20
-982.114
0
VERTEX
8
1
10
1877.909
20
-989.151
0
VERTEX
8
1
10
1873.2
20
-995.699
0
VERTEX
8
1
10
1866.734
20
-1001.818
0
VERTEX
8
1
10
1858.233
20
-1007.508
0
VERTEX
8
1
10
1847.378
20
-1012.69
0
VERTEX
8
1
10
1833.839
20
-1017.228
0
VERTEX
8
1
10
1817.372
20
-1020.917
0
VERTEX
8
1
10
1798.059
20
-1023.492
0
VERTEX
8
1
10
1779.778
20
-1024.755
0
VERTEX
8
1
10
1748.843
20
-1025.778
0
VERTEX
8
1
10
1723.25
20
-1025.168
0
VERTEX
8
1
10
1702.243
20
-1023.217
0
VERTEX
8
1
10
1685.233
20
-1020.185
0
VERTEX
8
1
10
1671.681
20
-1016.304
0
VERTEX
8
1
10
1626.75
20
-1138.615
0
SEQEND
8
1
0
POINT
8
2
10
1626.75
20
-1138.615
0
TEXT
8
2
10
1626.75
20
-1138.615
40
10.00
1
#189
0
POINT
8
3
10
1631.897
20
-1139.922
0
POINT
8
3
10
1638.026
20
-1142.811
0
POINT
8
3
10
1643.04
20
-1146.902
0
POINT
8
3
10
1647.136
20
-1152.365
0
POINT
8
3
10
1650.369
20
-1159.543
0
POINT
8
3
10
1652.68
20
-1169.025
0
POINT
8
3
10
1653.914
20
-1182
0
POINT
8
3
10
1653.669
20
-1217.999
0
POINT
8
2
10
1654.581
20
-1228.248
0
TEXT
8
2
10
1654.581
20
-1228.248
40
10.00
1
#190
0
POINT
8
4
10
2049.581
20
-1228.241
30
10
50
90
0
POINT
8
2
10
2049.581
20
-1228.241
0
TEXT
8
2
10
2049.581
20
-1228.241
40
10.00
1
#191
0
POINT
8
2
10
2536.752
20
-1228.236
0
TEXT
8
2
10
2536.752
20
-1228.236
40
10.00
1
#192
0
POINT
8
2
10
2556.752
20
-1268.236
0
TEXT
8
2
10
2556.752
20
-1268.236
40
10.00
1
#193
0
POINT
8
2
10
2974.931
20
-1268.236
0
TEXT
8
2
10
2974.931
20
-1268.236
40
10.00
1
#194
0
POINT
8
4
10
2974.931
20
-1218.236
30
10
50
180
0
POINT
8
2
10
2974.931
20
-1218.236
0
TEXT
8
2
10
2974.931
20
-1218.236
40
10.00
1
#195
0
POINT
8
2
10
2974.793
20
-1178.173
0
TEXT
8
2
10
2974.793
20
-1178.173
40
10.00
1
#196
0
POINT
8
3
10
2974.405
20
-1126.73
0
POINT
8
3
10
2972.592
20
-1050.724
0
POINT
8
3
10
2969.382
20
-980.767
0
POINT
8
3
10
2964.833
20
-915.417
0
POINT
8
2
10
2958.976
20
-853.683
0
TEXT
8
2
10
2958.976
20
-853.683
40
10.00
1
#197
0
POINT
8
4
10
2652.934
20
-884.829
30
10
50
275.802958704968
0
POINT
8
2
10
2652.934
20
-884.829
0
TEXT
8
2
10
2652.934
20
-884.829
40
10.00
1
#198
0
POINT
8
4
10
2257.353
20
-925.088
30
10
50
275.802958704968
0
POINT
8
2
10
2257.353
20
-925.088
0
TEXT
8
2
10
2257.353
20
-925.088
40
10.00
1
#199
0
POINT
8
3
10
2233.804
20
-927.83
0
POINT
8
3
10
2209.137
20
-931.328
0
POINT
8
3
10
2123.228
20
-945.796
0
POINT
8
4
10
2075.42
20
-953.144
30
10
50
277.648023808747
0
POINT
8
2
10
2075.42
20
-953.144
0
TEXT
8
2
10
2075.42
20
-953.144
40
10.00
1
#200
0
POINT
8
2
10
2048.432
20
-956.349
0
TEXT
8
2
10
2048.432
20
-956.349
40
10.00
1
#201
0
POINT
8
4
10
2021.408
20
-958.548
30
10
50
273.600638294785
0
POINT
8
2
10
2021.408
20
-958.548
0
TEXT
8
2
10
2021.408
20
-958.548
40
10.00
1
#202
0
POINT
8
3
10
2001.237
20
-959.589
0
POINT
8
3
10
1938.974
20
-961.121
0
POINT
8
2
10
1882.489
20
-962.643
0
TEXT
8
2
10
1882.489
20
-962.643
40
10.00
1
#203
0
POINT
8
3
10
1882.849
20
-965.988
0
POINT
8
3
10
1882.712
20
-974.446
0
POINT
8
3
10
1881.05
20
-982.114
0
POINT
8
3
10
1877.909
20
-989.151
0
POINT
8
3
10
1873.2
20
-995.699
0
POINT
8
3
10
1866.734
20
-1001.818
0
POINT
8
3
10
1858.233
20
-1007.508
0
POINT
8
3
10
1847.378
20
-1012.69
0
POINT
8
3
10
1833.839
20
-1017.228
0
POINT
8
3
10
1817.372
20
-1020.917
0
POINT
8
4
10
1798.059
20
-1023.492
30
10
50
276.34398801205
0
POINT
8
2
10
1798.059
20
-1023.492
0
TEXT
8
2
10
1798.059
20
-1023.492
40
10.00
1
#204
0
POINT
8
3
10
1779.778
20
-1024.755
0
POINT
8
3
10
1748.843
20
-1025.778
0
POINT
8
3
10
1723.25
20
-1025.168
0
POINT
8
3
10
1702.243
20
-1023.217
0
POINT
8
3
10
1685.233
20
-1020.185
0
POINT
8
2
10
1671.681
20
-1016.304
0
TEXT
8
2
10
1671.681
20
-1016.304
40
10.00
1
#205
0
POINT
8
2
10
1626.75
20
-1138.615
0
TEXT
8
2
10
1626.75
20
-1138.615
40
10.00
1
#189
0
LINE
8
7
10
2382.42
20
-1134.44
11
2182.42
21
-1134.44
0
POINT
8
2
10
2382.42
20
-1134.44
0
TEXT
8
2
10
2382.42
20
-1134.44
40
10.00
1
#1
0
POINT
8
2
10
2182.42
20
-1134.44
0
TEXT
8
2
10
2182.42
20
-1134.44
40
10.00
1
#1
0
TEXT
8
1
10
2182.42
20
-1123.44
40
10.00
1
PIECE NAME: ARKA
0
TEXT
8
1
10
2182.42
20
-1112.44
40
10.00
1
SIZE: 38
0
TEXT
8
1
10
2182.42
20
-1101.44
40
10.00
1
ANNOTATION: 
0
TEXT
8
1
10
2182.42
20
-1090.44
40
10.00
1
QUANTITY: 1
0
TEXT
8
1
10
2182.42
20
-1079.44
40
10.00
1
MATERIAL: KUMAS
0
ENDBLK
0
BLOCK
8
0
2
7
70
0
10
0.0000
20
0.0000
0
POLYLINE
8
1
66
1
70
1
0
VERTEX
8
1
10
1351.992
20
-1373.248
0
VERTEX
8
1
10
1291.992
20
-1433.248
0
VERTEX
8
1
10
3120.276
20
-1433.248
0
VERTEX
8
1
10
3180.276
20
-1373.248
0
VERTEX
8
1
10
3120.276
20
-1313.248
0
VERTEX
8
1
10
1291.992
20
-1313.248
0
VERTEX
8
1
10
1351.992
20
-1373.248
0
SEQEND
8
1
0
POINT
8
4
10
1351.992
20
-1373.248
30
10
50
0
0
POINT
8
2
10
1351.992
20
-1373.248
0
TEXT
8
2
10
1351.992
20
-1373.248
40
10.00
1
#213
0
POINT
8
2
10
1291.992
20
-1433.248
0
TEXT
8
2
10
1291.992
20
-1433.248
40
10.00
1
#214
0
POINT
8
2
10
3120.276
20
-1433.248
0
TEXT
8
2
10
3120.276
20
-1433.248
40
10.00
1
#215
0
POINT
8
4
10
3180.276
20
-1373.248
30
10
50
180
0
POINT
8
2
10
3180.276
20
-1373.248
0
TEXT
8
2
10
3180.276
20
-1373.248
40
10.00
1
#216
0
POINT
8
2
10
3120.276
20
-1313.248
0
TEXT
8
2
10
3120.276
20
-1313.248
40
10.00
1
#217
0
POINT
8
2
10
1291.992
20
-1313.248
0
TEXT
8
2
10
1291.992
20
-1313.248
40
10.00
1
#218
0
POINT
8
2
10
1351.992
20
-1373.248
0
TEXT
8
2
10
1351.992
20
-1373.248
40
10.00
1
#213
0
LINE
8
7
10
2165.48
20
-1374.847
11
1965.48
21
-1374.847
0
POINT
8
2
10
2165.48
20
-1374.847
0
TEXT
8
2
10
2165.48
20
-1374.847
40
10.00
1
#1
0
POINT
8
2
10
1965.48
20
-1374.847
0
TEXT
8
2
10
1965.48
20
-1374.847
40
10.00
1
#1
0
TEXT
8
1
10
1965.48
20
-1363.847
40
10.00
1
PIECE NAME: KUSAK
0
TEXT
8
1
10
1965.48
20
-1352.847
40
10.00
1
SIZE: 38
0
TEXT
8
1
10
1965.48
20
-1341.847
40
10.00
1
ANNOTATION: 
0
TEXT
8
1
10
1965.48
20
-1330.847
40
10.00
1
QUANTITY: 1
0
TEXT
8
1
10
1965.48
20
-1319.847
40
10.00
1
MATERIAL: KUMAS
0
ENDBLK
0
BLOCK
8
0
2
8
70
0
10
0.0000
20
0.0000
0
POLYLINE
8
1
66
1
70
1
0
VERTEX
8
1
10
1823.385
20
-772.876
0
VERTEX
8
1
10
1857.351
20
-795.333
0
VERTEX
8
1
10
1872.726
20
-806.913
0
VERTEX
8
1
10
1883.75
20
-817.009
0
VERTEX
8
1
10
1891.907
20
-826.467
0
VERTEX
8
1
10
1897.836
20
-835.633
0
VERTEX
8
1
10
1901.883
20
-844.701
0
VERTEX
8
1
10
1904.252
20
-853.846
0
VERTEX
8
1
10
1905.036
20
-863.245
0
VERTEX
8
1
10
1904.213
20
-873.048
0
VERTEX
8
1
10
2391.53
20
-815.405
0
VERTEX
8
1
10
2391.53
20
-728.092
0
VERTEX
8
1
10
2038.815
20
-749.676
0
VERTEX
8
1
10
1826.159
20
-762.688
0
VERTEX
8
1
10
1823.385
20
-772.876
0
SEQEND
8
1
0
POINT
8
2
10
1823.385
20
-772.876
0
TEXT
8
2
10
1823.385
20
-772.876
40
10.00
1
#221
0
POINT
8
3
10
1857.351
20
-795.333
0
POINT
8
3
10
1872.726
20
-806.913
0
POINT
8
3
10
1883.75
20
-817.009
0
POINT
8
3
10
1891.907
20
-826.467
0
POINT
8
3
10
1897.836
20
-835.633
0
POINT
8
3
10
1901.883
20
-844.701
0
POINT
8
3
10
1904.252
20
-853.846
0
POINT
8
3
10
1905.036
20
-863.245
0
POINT
8
2
10
1904.213
20
-873.048
0
TEXT
8
2
10
1904.213
20
-873.048
40
10.00
1
#222
0
POINT
8
2
10
2391.53
20
-815.405
0
TEXT
8
2
10
2391.53
20
-815.405
40
10.00
1
#223
0
POINT
8
2
10
2391.53
20
-728.092
0
TEXT
8
2
10
2391.53
20
-728.092
40
10.00
1
#224
0
POINT
8
4
10
2038.815
20
-749.676
30
10
50
273.50306478354
0
POINT
8
2
10
2038.815
20
-749.676
0
TEXT
8
2
10
2038.815
20
-749.676
40
10.00
1
#225
0
POINT
8
2
10
1826.159
20
-762.688
0
TEXT
8
2
10
1826.159
20
-762.688
40
10.00
1
#226
0
POINT
8
2
10
1823.385
20
-772.876
0
TEXT
8
2
10
1823.385
20
-772.876
40
10.00
1
#221
0
LINE
8
7
10
2198.499
20
-805.471
11
2098.499
21
-805.471
0
POINT
8
2
10
2198.499
20
-805.471
0
TEXT
8
2
10
2198.499
20
-805.471
40
10.00
1
#1
0
POINT
8
2
10
2098.499
20
-805.471
0
TEXT
8
2
10
2098.499
20
-805.471
40
10.00
1
#1
0
TEXT
8
1
10
2098.499
20
-794.471
40
10.00
1
PIECE NAME: ARKAKOL
0
TEXT
8
1
10
2098.499
20
-783.471
40
10.00
1
SIZE: 38
0
TEXT
8
1
10
2098.499
20
-772.471
40
10.00
1
ANNOTATION: 
0
TEXT
8
1
10
2098.499
20
-761.471
40
10.00
1
QUANTITY: 1
0
TEXT
8
1
10
2098.499
20
-750.471
40
10.00
1
MATERIAL: KUMAS
0
ENDBLK
0
BLOCK
8
0
2
9
70
0
10
0.0000
20
0.0000
0
POLYLINE
8
1
66
1
70
1
0
VERTEX
8
1
10
2391.53
20
-698.126
0
VERTEX
8
1
10
2391.53
20
-476.562
0
VERTEX
8
1
10
1904.231
20
-418.871
0
VERTEX
8
1
10
1904.52
20
-434.118
0
VERTEX
8
1
10
1903.316
20
-445.901
0
VERTEX
8
1
10
1900.826
20
-455.673
0
VERTEX
8
1
10
1897.133
20
-464.001
0
VERTEX
8
1
10
1895.7
20
-466.503
0
VERTEX
8
1
10
1889.969
20
-474.351
0
VERTEX
8
1
10
1882.433
20
-481.836
0
VERTEX
8
1
10
1873.007
20
-488.835
0
VERTEX
8
1
10
1834.778
20
-507.918
0
VERTEX
8
1
10
1813.983
20
-519.313
0
VERTEX
8
1
10
1798.702
20
-529.324
0
VERTEX
8
1
10
1786.502
20
-539.094
0
VERTEX
8
1
10
1776.615
20
-548.954
0
VERTEX
8
1
10
1768.612
20
-559.111
0
VERTEX
8
1
10
1762.25
20
-569.704
0
VERTEX
8
1
10
1757.38
20
-580.901
0
VERTEX
8
1
10
1753.951
20
-592.816
0
VERTEX
8
1
10
1751.959
20
-605.64
0
VERTEX
8
1
10
1751.469
20
-619.545
0
VERTEX
8
1
10
1751.625
20
-622.223
0
VERTEX
8
1
10
1753.304
20
-634.367
0
VERTEX
8
1
10
1756.576
20
-646.306
0
VERTEX
8
1
10
1761.511
20
-658.157
0
VERTEX
8
1
10
1768.224
20
-669.998
0
VERTEX
8
1
10
1776.884
20
-681.905
0
VERTEX
8
1
10
1787.717
20
-693.946
0
VERTEX
8
1
10
1801.009
20
-706.201
0
VERTEX
8
1
10
1817.2
20
-718.811
0
VERTEX
8
1
10
1837.026
20
-732.058
0
VERTEX
8
1
10
2040.037
20
-719.635
0
VERTEX
8
1
10
2391.53
20
-698.126
0
SEQEND
8
1
0
POINT
8
2
10
2391.53
20
-698.126
0
TEXT
8
2
10
2391.53
20
-698.126
40
10.00
1
#228
0
POINT
8
2
10
2391.53
20
-476.562
0
TEXT
8
2
10
2391.53
20
-476.562
40
10.00
1
#229
0
POINT
8
2
10
1904.231
20
-418.871
0
TEXT
8
2
10
1904.231
20
-418.871
40
10.00
1
#230
0
POINT
8
3
10
1904.52
20
-434.118
0
POINT
8
3
10
1903.316
20
-445.901
0
POINT
8
3
10
1900.826
20
-455.673
0
POINT
8
4
10
1897.133
20
-464.001
30
10
50
331.566518330128
0
POINT
8
2
10
1897.133
20
-464.001
0
TEXT
8
2
10
1897.133
20
-464.001
40
10.00
1
#231
0
POINT
8
3
10
1895.7
20
-466.503
0
POINT
8
3
10
1889.969
20
-474.351
0
POINT
8
3
10
1882.433
20
-481.836
0
POINT
8
4
10
1873.007
20
-488.835
30
10
50
302.954201810679
0
POINT
8
2
10
1873.007
20
-488.835
0
TEXT
8
2
10
1873.007
20
-488.835
40
10.00
1
#232
0
POINT
8
3
10
1834.778
20
-507.918
0
POINT
8
3
10
1813.983
20
-519.313
0
POINT
8
3
10
1798.702
20
-529.324
0
POINT
8
3
10
1786.502
20
-539.094
0
POINT
8
3
10
1776.615
20
-548.954
0
POINT
8
3
10
1768.612
20
-559.111
0
POINT
8
3
10
1762.25
20
-569.704
0
POINT
8
3
10
1757.38
20
-580.901
0
POINT
8
3
10
1753.951
20
-592.816
0
POINT
8
3
10
1751.959
20
-605.64
0
POINT
8
4
10
1751.469
20
-619.545
30
10
50
2.91190468373249
0
POINT
8
2
10
1751.469
20
-619.545
0
TEXT
8
2
10
1751.469
20
-619.545
40
10.00
1
#233
0
POINT
8
3
10
1751.625
20
-622.223
0
POINT
8
3
10
1753.304
20
-634.367
0
POINT
8
3
10
1756.576
20
-646.306
0
POINT
8
3
10
1761.511
20
-658.157
0
POINT
8
3
10
1768.224
20
-669.998
0
POINT
8
3
10
1776.884
20
-681.905
0
POINT
8
3
10
1787.717
20
-693.946
0
POINT
8
3
10
1801.009
20
-706.201
0
POINT
8
3
10
1817.2
20
-718.811
0
POINT
8
2
10
1837.026
20
-732.058
0
TEXT
8
2
10
1837.026
20
-732.058
40
10.00
1
#234
0
POINT
8
4
10
2040.037
20
-719.635
30
10
50
93.5087838016602
0
POINT
8
2
10
2040.037
20
-719.635
0
TEXT
8
2
10
2040.037
20
-719.635
40
10.00
1
#235
0
POINT
8
2
10
2391.53
20
-698.126
0
TEXT
8
2
10
2391.53
20
-698.126
40
10.00
1
#228
0
LINE
8
7
10
2182.918
20
-606.242
11
1976.143
21
-606.242
0
POINT
8
2
10
2182.918
20
-606.242
0
TEXT
8
2
10
2182.918
20
-606.242
40
10.00
1
#1
0
POINT
8
2
10
1976.143
20
-606.242
0
TEXT
8
2
10
1976.143
20
-606.242
40
10.00
1
#1
0
TEXT
8
1
10
1976.143
20
-595.242
40
10.00
1
PIECE NAME: ONKOL
0
TEXT
8
1
10
1976.143
20
-584.242
40
10.00
1
SIZE: 38
0
TEXT
8
1
10
1976.143
20
-573.242
40
10.00
1
ANNOTATION: 
0
TEXT
8
1
10
1976.143
20
-562.242
40
10.00
1
QUANTITY: 1
0
TEXT
8
1
10
1976.143
20
-551.242
40
10.00
1
MATERIAL: KUMAS
0
ENDBLK
0
BLOCK
8
0
2
10
70
0
10
0.0000
20
0.0000
0
POLYLINE
8
1
66
1
70
1
0
VERTEX
8
1
10
1481.296
20
-358.667
0
VERTEX
8
1
10
1479.714
20
-360.968
0
VERTEX
8
1
10
1471.647
20
-374.391
0
VERTEX
8
1
10
1464.916
20
-388.687
0
VERTEX
8
1
10
1459.742
20
-403.375
0
VERTEX
8
1
10
1456.243
20
-418.017
0
VERTEX
8
1
10
1454.448
20
-432.23
0
VERTEX
8
1
10
1454.299
20
-445.778
0
VERTEX
8
1
10
1455.711
20
-458.5
0
VERTEX
8
1
10
1458.586
20
-470.329
0
VERTEX
8
1
10
1462.856
20
-481.276
0
VERTEX
8
1
10
1468.477
20
-491.339
0
VERTEX
8
1
10
1475.446
20
-500.547
0
VERTEX
8
1
10
1483.791
20
-508.899
0
VERTEX
8
1
10
1545.432
20
-516.077
0
VERTEX
8
1
10
1553.278
20
-491.733
0
VERTEX
8
1
10
1571.038
20
-443.004
0
VERTEX
8
1
10
1588.846
20
-394.146
0
VERTEX
8
1
10
1598.589
20
-363.384
0
VERTEX
8
1
10
1605.248
20
-337.478
0
VERTEX
8
1
10
1609.692
20
-314.11
0
VERTEX
8
1
10
1612.273
20
-292.309
0
VERTEX
8
1
10
1613.164
20
-271.543
0
VERTEX
8
1
10
1613.14
20
-268.021
0
VERTEX
8
1
10
1612.034
20
-247.561
0
VERTEX
8
1
10
1609.188
20
-225.689
0
VERTEX
8
1
10
1604.396
20
-201.902
0
VERTEX
8
1
10
1597.291
20
-175.296
0
VERTEX
8
1
10
1587.962
20
-146.349
0
VERTEX
8
1
10
1568.45
20
-93.194
0
VERTEX
8
1
10
1552.34
20
-48.636
0
VERTEX
8
1
10
1545.432
20
-27.011
0
VERTEX
8
1
10
1483.791
20
-34.188
0
VERTEX
8
1
10
1482.162
20
-35.649
0
VERTEX
8
1
10
1474.058
20
-44.171
0
VERTEX
8
1
10
1467.335
20
-53.54
0
VERTEX
8
1
10
1461.957
20
-63.777
0
VERTEX
8
1
10
1457.942
20
-74.885
0
VERTEX
8
1
10
1455.332
20
-86.888
0
VERTEX
8
1
10
1454.203
20
-99.763
0
VERTEX
8
1
10
1454.65
20
-113.436
0
VERTEX
8
1
10
1456.756
20
-127.74
0
VERTEX
8
1
10
1460.561
20
-142.406
0
VERTEX
8
1
10
1466.035
20
-157.064
0
VERTEX
8
1
10
1473.028
20
-171.228
0
VERTEX
8
1
10
1481.296
20
-184.42
0
VERTEX
8
1
10
1483.99
20
-190.05
0
VERTEX
8
1
10
1487.924
20
-201.247
0
VERTEX
8
1
10
1490.713
20
-214.33
0
VERTEX
8
1
10
1492.369
20
-230.717
0
VERTEX
8
1
10
1493.123
20
-271.543
0
VERTEX
8
1
10
1492.686
20
-303.25
0
VERTEX
8
1
10
1491.548
20
-322.331
0
VERTEX
8
1
10
1489.27
20
-336.533
0
VERTEX
8
1
10
1485.862
20
-348.365
0
VERTEX
8
1
10
1481.296
20
-358.667
0
SEQEND
8
1
0
POINT
8
4
10
1481.296
20
-358.667
30
10
50
327.613185061685
0
POINT
8
2
10
1481.296
20
-358.667
0
TEXT
8
2
10
1481.296
20
-358.667
40
10.00
1
#240
0
POINT
8
3
10
1479.714
20
-360.968
0
POINT
8
3
10
1471.647
20
-374.391
0
POINT
8
3
10
1464.916
20
-388.687
0
POINT
8
3
10
1459.742
20
-403.375
0
POINT
8
3
10
1456.243
20
-418.017
0
POINT
8
3
10
1454.448
20
-432.23
0
POINT
8
3
10
1454.299
20
-445.778
0
POINT
8
3
10
1455.711
20
-458.5
0
POINT
8
3
10
1458.586
20
-470.329
0
POINT
8
3
10
1462.856
20
-481.276
0
POINT
8
3
10
1468.477
20
-491.339
0
POINT
8
3
10
1475.446
20
-500.547
0
POINT
8
2
10
1483.791
20
-508.899
0
TEXT
8
2
10
1483.791
20
-508.899
40
10.00
1
#241
0
POINT
8
2
10
1545.432
20
-516.077
0
TEXT
8
2
10
1545.432
20
-516.077
40
10.00
1
#242
0
POINT
8
3
10
1553.278
20
-491.733
0
POINT
8
3
10
1571.038
20
-443.004
0
POINT
8
3
10
1588.846
20
-394.146
0
POINT
8
3
10
1598.589
20
-363.384
0
POINT
8
3
10
1605.248
20
-337.478
0
POINT
8
3
10
1609.692
20
-314.11
0
POINT
8
3
10
1612.273
20
-292.309
0
POINT
8
4
10
1613.164
20
-271.543
30
10
50
180
0
POINT
8
2
10
1613.164
20
-271.543
0
TEXT
8
2
10
1613.164
20
-271.543
40
10.00
1
#243
0
POINT
8
3
10
1613.14
20
-268.021
0
POINT
8
3
10
1612.034
20
-247.561
0
POINT
8
3
10
1609.188
20
-225.689
0
POINT
8
3
10
1604.396
20
-201.902
0
POINT
8
3
10
1597.291
20
-175.296
0
POINT
8
3
10
1587.962
20
-146.349
0
POINT
8
3
10
1568.45
20
-93.194
0
POINT
8
3
10
1552.34
20
-48.636
0
POINT
8
2
10
1545.432
20
-27.011
0
TEXT
8
2
10
1545.432
20
-27.011
40
10.00
1
#244
0
POINT
8
2
10
1483.791
20
-34.188
0
TEXT
8
2
10
1483.791
20
-34.188
40
10.00
1
#245
0
POINT
8
3
10
1482.162
20
-35.649
0
POINT
8
3
10
1474.058
20
-44.171
0
POINT
8
3
10
1467.335
20
-53.54
0
POINT
8
3
10
1461.957
20
-63.777
0
POINT
8
3
10
1457.942
20
-74.885
0
POINT
8
3
10
1455.332
20
-86.888
0
POINT
8
3
10
1454.203
20
-99.763
0
POINT
8
3
10
1454.65
20
-113.436
0
POINT
8
3
10
1456.756
20
-127.74
0
POINT
8
3
10
1460.561
20
-142.406
0
POINT
8
3
10
1466.035
20
-157.064
0
POINT
8
3
10
1473.028
20
-171.228
0
POINT
8
4
10
1481.296
20
-184.42
30
10
50
32.3868149383151
0
POINT
8
2
10
1481.296
20
-184.42
0
TEXT
8
2
10
1481.296
20
-184.42
40
10.00
1
#246
0
POINT
8
3
10
1483.99
20
-190.05
0
POINT
8
3
10
1487.924
20
-201.247
0
POINT
8
3
10
1490.713
20
-214.33
0
POINT
8
3
10
1492.369
20
-230.717
0
POINT
8
4
10
1493.123
20
-271.543
30
10
50
0
0
POINT
8
2
10
1493.123
20
-271.543
0
TEXT
8
2
10
1493.123
20
-271.543
40
10.00
1
#247
0
POINT
8
3
10
1492.686
20
-303.25
0
POINT
8
3
10
1491.548
20
-322.331
0
POINT
8
3
10
1489.27
20
-336.533
0
POINT
8
3
10
1485.862
20
-348.365
0
POINT
8
2
10
1481.296
20
-358.667
0
TEXT
8
2
10
1481.296
20
-358.667
40
10.00
1
#240
0
LINE
8
7
10
1559.396
20
-191.605
11
1529.396
21
-191.605
0
POINT
8
2
10
1559.396
20
-191.605
0
TEXT
8
2
10
1559.396
20
-191.605
40
10.00
1
#1
0
POINT
8
2
10
1529.396
20
-191.605
0
TEXT
8
2
10
1529.396
20
-191.605
40
10.00
1
#1
0
TEXT
8
1
10
1529.396
20
-180.605
40
10.00
1
PIECE NAME: YAKA
0
TEXT
8
1
10
1529.396
20
-169.605
40
10.00
1
SIZE: 38
0
TEXT
8
1
10
1529.396
20
-158.605
40
10.00
1
ANNOTATION: 
0
TEXT
8
1
10
1529.396
20
-147.605
40
10.00
1
QUANTITY: 1
0
TEXT
8
1
10
1529.396
20
-136.605
40
10.00
1
MATERIAL: KUMAS
0
ENDBLK
0
BLOCK
8
0
2
11
70
0
10
0.0000
20
0.0000
0
POLYLINE
8
1
66
1
70
1
0
VERTEX
8
1
10
1636.702
20
-167.112
0
VERTEX
8
1
10
1682.113
20
-289.25
0
VERTEX
8
1
10
1689.755
20
-286.765
0
VERTEX
8
1
10
1711.434
20
-280.892
0
VERTEX
8
1
10
1733.897
20
-276.469
0
VERTEX
8
1
10
1756.241
20
-273.678
0
VERTEX
8
1
10
1777.807
20
-272.553
0
VERTEX
8
1
10
1798.086
20
-273.045
0
VERTEX
8
1
10
1816.791
20
-275.034
0
VERTEX
8
1
10
1833.804
20
-278.385
0
VERTEX
8
1
10
1849.103
20
-282.958
0
VERTEX
8
1
10
1854.708
20
-285.517
0
VERTEX
8
1
10
1863.545
20
-290.834
0
VERTEX
8
1
10
1870.521
20
-296.789
0
VERTEX
8
1
10
1875.804
20
-303.305
0
VERTEX
8
1
10
1876.882
20
-304.964
0
VERTEX
8
1
10
1880.335
20
-312.154
0
VERTEX
8
1
10
1882.574
20
-320.716
0
VERTEX
8
1
10
1883.51
20
-331.247
0
VERTEX
8
1
10
1882.865
20
-345.571
0
VERTEX
8
1
10
1888.941
20
-345.824
0
VERTEX
8
1
10
1978.398
20
-347.86
0
VERTEX
8
1
10
2022.27
20
-349.684
0
VERTEX
8
1
10
2049.293
20
-351.883
0
VERTEX
8
1
10
2076.282
20
-355.088
0
VERTEX
8
1
10
2094.82
20
-357.74
0
VERTEX
8
1
10
2164.934
20
-369.473
0
VERTEX
8
1
10
2220.304
20
-378.432
0
VERTEX
8
1
10
2258.213
20
-383.144
0
VERTEX
8
1
10
2653.795
20
-423.403
0
VERTEX
8
1
10
2959.838
20
-454.549
0
VERTEX
8
1
10
2960.9
20
-443.935
0
VERTEX
8
1
10
2976.913
20
-305.221
0
VERTEX
8
1
10
2981.998
20
-251.548
0
VERTEX
8
1
10
2984.635
20
-208.184
0
VERTEX
8
1
10
2985.451
20
-169.933
0
VERTEX
8
1
10
2985.451
20
-89.987
0
VERTEX
8
1
10
2985.451
20
0.002
0
VERTEX
8
1
10
1999.244
20
-0.003
0
VERTEX
8
1
10
1714.162
20
-1.687
0
VERTEX
8
1
10
1722.743
20
-67.451
0
VERTEX
8
1
10
1723.146
20
-70.314
0
VERTEX
8
1
10
1723.614
20
-80.74
0
VERTEX
8
1
10
1722.489
20
-90.9
0
VERTEX
8
1
10
1719.769
20
-100.866
0
VERTEX
8
1
10
1715.413
20
-110.66
0
VERTEX
8
1
10
1709.32
20
-120.305
0
VERTEX
8
1
10
1701.402
20
-129.739
0
VERTEX
8
1
10
1691.567
20
-138.87
0
VERTEX
8
1
10
1679.865
20
-147.473
0
VERTEX
8
1
10
1666.462
20
-155.291
0
VERTEX
8
1
10
1651.814
20
-161.964
0
VERTEX
8
1
10
1636.702
20
-167.112
0
SEQEND
8
1
0
POINT
8
2
10
1636.702
20
-167.112
0
TEXT
8
2
10
1636.702
20
-167.112
40
10.00
1
#252
0
POINT
8
2
10
1682.113
20
-289.25
0
TEXT
8
2
10
1682.113
20
-289.25
40
10.00
1
#253
0
POINT
8
3
10
1689.755
20
-286.765
0
POINT
8
3
10
1711.434
20
-280.892
0
POINT
8
3
10
1733.897
20
-276.469
0
POINT
8
3
10
1756.241
20
-273.678
0
POINT
8
3
10
1777.807
20
-272.553
0
POINT
8
3
10
1798.086
20
-273.045
0
POINT
8
3
10
1816.791
20
-275.034
0
POINT
8
3
10
1833.804
20
-278.385
0
POINT
8
4
10
1849.103
20
-282.958
30
10
50
67.4920854925602
0
POINT
8
2
10
1849.103
20
-282.958
0
TEXT
8
2
10
1849.103
20
-282.958
40
10.00
1
#254
0
POINT
8
3
10
1854.708
20
-285.517
0
POINT
8
3
10
1863.545
20
-290.834
0
POINT
8
3
10
1870.521
20
-296.789
0
POINT
8
4
10
1875.804
20
-303.305
30
10
50
33.5677019544781
0
POINT
8
2
10
1875.804
20
-303.305
0
TEXT
8
2
10
1875.804
20
-303.305
40
10.00
1
#255
0
POINT
8
3
10
1876.882
20
-304.964
0
POINT
8
3
10
1880.335
20
-312.154
0
POINT
8
3
10
1882.574
20
-320.716
0
POINT
8
3
10
1883.51
20
-331.247
0
POINT
8
2
10
1882.865
20
-345.571
0
TEXT
8
2
10
1882.865
20
-345.571
40
10.00
1
#256
0
POINT
8
3
10
1888.941
20
-345.824
0
POINT
8
3
10
1978.398
20
-347.86
0
POINT
8
4
10
2022.27
20
-349.684
30
10
50
86.4050801581788
0
POINT
8
2
10
2022.27
20
-349.684
0
TEXT
8
2
10
2022.27
20
-349.684
40
10.00
1
#257
0
POINT
8
2
10
2049.293
20
-351.883
0
TEXT
8
2
10
2049.293
20
-351.883
40
10.00
1
#258
0
POINT
8
4
10
2076.282
20
-355.088
30
10
50
82.3519761912556
0
POINT
8
2
10
2076.282
20
-355.088
0
TEXT
8
2
10
2076.282
20
-355.088
40
10.00
1
#259
0
POINT
8
3
10
2094.82
20
-357.74
0
POINT
8
3
10
2164.934
20
-369.473
0
POINT
8
3
10
2220.304
20
-378.432
0
POINT
8
4
10
2258.213
20
-383.144
30
10
50
84.1913407034746
0
POINT
8
2
10
2258.213
20
-383.144
0
TEXT
8
2
10
2258.213
20
-383.144
40
10.00
1
#260
0
POINT
8
4
10
2653.795
20
-423.403
30
10
50
84.1970412950322
0
POINT
8
2
10
2653.795
20
-423.403
0
TEXT
8
2
10
2653.795
20
-423.403
40
10.00
1
#261
0
POINT
8
2
10
2959.838
20
-454.549
0
TEXT
8
2
10
2959.838
20
-454.549
40
10.00
1
#262
0
POINT
8
3
10
2960.9
20
-443.935
0
POINT
8
3
10
2976.913
20
-305.221
0
POINT
8
3
10
2981.998
20
-251.548
0
POINT
8
3
10
2984.635
20
-208.184
0
POINT
8
2
10
2985.451
20
-169.933
0
TEXT
8
2
10
2985.451
20
-169.933
40
10.00
1
#263
0
POINT
8
2
10
2985.451
20
-89.987
0
TEXT
8
2
10
2985.451
20
-89.987
40
10.00
1
#264
0
POINT
8
2
10
2985.451
20
0.002
0
TEXT
8
2
10
2985.451
20
0.002
40
10.00
1
#265
0
POINT
8
4
10
1999.244
20
-0.003
30
10
50
270.166173912093
0
POINT
8
2
10
1999.244
20
-0.003
0
TEXT
8
2
10
1999.244
20
-0.003
40
10.00
1
#266
0
POINT
8
2
10
1714.162
20
-1.687
0
TEXT
8
2
10
1714.162
20
-1.687
40
10.00
1
#267
0
POINT
8
4
10
1722.743
20
-67.451
30
10
50
7.42992569819946
0
POINT
8
2
10
1722.743
20
-67.451
0
TEXT
8
2
10
1722.743
20
-67.451
40
10.00
1
#268
0
POINT
8
3
10
1723.146
20
-70.314
0
POINT
8
3
10
1723.614
20
-80.74
0
POINT
8
3
10
1722.489
20
-90.9
0
POINT
8
3
10
1719.769
20
-100.866
0
POINT
8
3
10
1715.413
20
-110.66
0
POINT
8
3
10
1709.32
20
-120.305
0
POINT
8
3
10
1701.402
20
-129.739
0
POINT
8
3
10
1691.567
20
-138.87
0
POINT
8
3
10
1679.865
20
-147.473
0
POINT
8
3
10
1666.462
20
-155.291
0
POINT
8
3
10
1651.814
20
-161.964
0
POINT
8
2
10
1636.702
20
-167.112
0
TEXT
8
2
10
1636.702
20
-167.112
40
10.00
1
#252
0
LINE
8
7
10
2533.485
20
-226.794
11
2091.523
21
-226.794
0
POINT
8
2
10
2533.485
20
-226.794
0
TEXT
8
2
10
2533.485
20
-226.794
40
10.00
1
#1
0
POINT
8
2
10
2091.523
20
-226.794
0
TEXT
8
2
10
2091.523
20
-226.794
40
10.00
1
#1
0
TEXT
8
1
10
2091.523
20
-215.794
40
10.00
1
PIECE NAME: ON
0
TEXT
8
1
10
2091.523
20
-204.794
40
10.00
1
SIZE: 38
0
TEXT
8
1
10
2091.523
20
-193.794
40
10.00
1
ANNOTATION: 
0
TEXT
8
1
10
2091.523
20
-182.794
40
10.00
1
QUANTITY: 1
0
TEXT
8
1
10
2091.523
20
-171.794
40
10.00
1
MATERIAL: KUMAS
0
ENDBLK
0
BLOCK
8
0
2
12
70
0
10
0.0000
20
0.0000
0
POLYLINE
8
1
66
1
70
1
0
VERTEX
8
1
10
-180.274
20
-1008.927
0
VERTEX
8
1
10
-134.863
20
-1131.065
0
VERTEX
8
1
10
-125.49
20
-1127.58
0
VERTEX
8
1
10
-121.565
20
-1126.293
0
VERTEX
8
1
10
-113.956
20
-1124.256
0
VERTEX
8
1
10
-104.771
20
-1122.2
0
VERTEX
8
1
10
-94.271
20
-1120.208
0
VERTEX
8
1
10
-82.251
20
-1118.313
0
VERTEX
8
1
10
-70.38
20
-1116.814
0
VERTEX
8
1
10
-58.956
20
-1115.718
0
VERTEX
8
1
10
-47.367
20
-1114.967
0
VERTEX
8
1
10
-36.219
20
-1114.617
0
VERTEX
8
1
10
-26.098
20
-1114.648
0
VERTEX
8
1
10
-16.36
20
-1115.031
0
VERTEX
8
1
10
-7.267
20
-1115.745
0
VERTEX
8
1
10
0.957
20
-1116.734
0
VERTEX
8
1
10
8.142
20
-1117.91
0
VERTEX
8
1
10
15.412
20
-1119.45
0
VERTEX
8
1
10
21.452
20
-1121.047
0
VERTEX
8
1
10
27.439
20
-1122.974
0
VERTEX
8
1
10
32.126
20
-1124.772
0
VERTEX
8
1
10
38.52
20
-1127.74
0
VERTEX
8
1
10
43.083
20
-1130.326
0
VERTEX
8
1
10
47.127
20
-1133.052
0
VERTEX
8
1
10
50.604
20
-1135.831
0
VERTEX
8
1
10
53.754
20
-1138.819
0
VERTEX
8
1
10
56.49
20
-1141.924
0
VERTEX
8
1
10
58.827
20
-1145.12
0
VERTEX
8
1
10
61.826
20
-1150.418
0
VERTEX
8
1
10
63.387
20
-1154.13
0
VERTEX
8
1
10
64.659
20
-1158.131
0
VERTEX
8
1
10
65.618
20
-1162.422
0
VERTEX
8
1
10
66.249
20
-1167.054
0
VERTEX
8
1
10
66.523
20
-1171.889
0
VERTEX
8
1
10
66.428
20
-1177.247
0
VERTEX
8
1
10
65.889
20
-1187.385
0
VERTEX
8
1
10
88.547
20
-1188.189
0
VERTEX
8
1
10
163.212
20
-1189.725
0
VERTEX
8
1
10
186.301
20
-1190.505
0
VERTEX
8
1
10
205.294
20
-1191.499
0
VERTEX
8
1
10
216.082
20
-1192.251
0
VERTEX
8
1
10
232.317
20
-1193.697
0
VERTEX
8
1
10
259.305
20
-1196.902
0
VERTEX
8
1
10
275.933
20
-1199.266
0
VERTEX
8
1
10
300.25
20
-1203.108
0
VERTEX
8
1
10
381.508
20
-1216.918
0
VERTEX
8
1
10
404.382
20
-1220.397
0
VERTEX
8
1
10
423.912
20
-1223.005
0
VERTEX
8
1
10
441.237
20
-1224.959
0
VERTEX
8
1
10
577.262
20
-1238.803
0
VERTEX
8
1
10
577.262
20
-841.815
0
VERTEX
8
1
10
182.297
20
-841.817
0
VERTEX
8
1
10
182.297
20
-851.817
0
VERTEX
8
1
10
-91.433
20
-853.435
0
VERTEX
8
1
10
-84.317
20
-907.972
0
VERTEX
8
1
10
-94.233
20
-909.266
0
VERTEX
8
1
10
-93.865
20
-912.586
0
VERTEX
8
1
10
-93.548
20
-918.003
0
VERTEX
8
1
10
-93.589
20
-923.069
0
VERTEX
8
1
10
-93.9
20
-927.466
0
VERTEX
8
1
10
-94.553
20
-932.276
0
VERTEX
8
1
10
-95.585
20
-937.225
0
VERTEX
8
1
10
-96.948
20
-941.995
0
VERTEX
8
1
10
-98.49
20
-946.259
0
VERTEX
8
1
10
-100.601
20
-951.023
0
VERTEX
8
1
10
-103.039
20
-955.595
0
VERTEX
8
1
10
-105.68
20
-959.825
0
VERTEX
8
1
10
-108.975
20
-964.385
0
VERTEX
8
1
10
-112.3
20
-968.41
0
VERTEX
8
1
10
-116.283
20
-972.668
0
VERTEX
8
1
10
-119.992
20
-976.21
0
VERTEX
8
1
10
-124.865
20
-980.378
0
VERTEX
8
1
10
-129.873
20
-984.205
0
VERTEX
8
1
10
-135.63
20
-988.144
0
VERTEX
8
1
10
-141.338
20
-991.652
0
VERTEX
8
1
10
-147.771
20
-995.214
0
VERTEX
8
1
10
-155.013
20
-998.805
0
VERTEX
8
1
10
-163.158
20
-1002.399
0
VERTEX
8
1
10
-180.274
20
-1008.927
0
SEQEND
8
1
0
POINT
8
2
10
-180.274
20
-1008.927
0
TEXT
8
2
10
-180.274
20
-1008.927
40
10.00
1
#277
0
POINT
8
2
10
-134.863
20
-1131.065
0
TEXT
8
2
10
-134.863
20
-1131.065
40
10.00
1
#278
0
POINT
8
3
10
-125.49
20
-1127.58
0
POINT
8
3
10
-121.565
20
-1126.293
0
POINT
8
3
10
-113.956
20
-1124.256
0
POINT
8
3
10
-104.771
20
-1122.2
0
POINT
8
3
10
-94.271
20
-1120.208
0
POINT
8
3
10
-82.251
20
-1118.313
0
POINT
8
3
10
-70.38
20
-1116.814
0
POINT
8
3
10
-58.956
20
-1115.718
0
POINT
8
3
10
-47.367
20
-1114.967
0
POINT
8
3
10
-36.219
20
-1114.617
0
POINT
8
3
10
-26.098
20
-1114.648
0
POINT
8
3
10
-16.36
20
-1115.031
0
POINT
8
3
10
-7.267
20
-1115.745
0
POINT
8
3
10
0.957
20
-1116.734
0
POINT
8
3
10
8.142
20
-1117.91
0
POINT
8
3
10
15.412
20
-1119.45
0
POINT
8
3
10
21.452
20
-1121.047
0
POINT
8
3
10
27.439
20
-1122.974
0
POINT
8
4
10
32.126
20
-1124.772
30
10
50
67.4867924055657
0
POINT
8
2
10
32.126
20
-1124.772
0
TEXT
8
2
10
32.126
20
-1124.772
40
10.00
1
#279
0
POINT
8
3
10
38.52
20
-1127.74
0
POINT
8
3
10
43.083
20
-1130.326
0
POINT
8
3
10
47.127
20
-1133.052
0
POINT
8
3
10
50.604
20
-1135.831
0
POINT
8
3
10
53.754
20
-1138.819
0
POINT
8
3
10
56.49
20
-1141.924
0
POINT
8
4
10
58.827
20
-1145.12
30
10
50
33.5597597789369
0
POINT
8
2
10
58.827
20
-1145.12
0
TEXT
8
2
10
58.827
20
-1145.12
40
10.00
1
#280
0
POINT
8
3
10
61.826
20
-1150.418
0
POINT
8
3
10
63.387
20
-1154.13
0
POINT
8
3
10
64.659
20
-1158.131
0
POINT
8
3
10
65.618
20
-1162.422
0
POINT
8
3
10
66.249
20
-1167.054
0
POINT
8
3
10
66.523
20
-1171.889
0
POINT
8
3
10
66.428
20
-1177.247
0
POINT
8
2
10
65.889
20
-1187.385
0
TEXT
8
2
10
65.889
20
-1187.385
40
10.00
1
#281
0
POINT
8
3
10
88.547
20
-1188.189
0
POINT
8
3
10
163.212
20
-1189.725
0
POINT
8
3
10
186.301
20
-1190.505
0
POINT
8
4
10
205.294
20
-1191.499
30
10
50
86.4050801581786
0
POINT
8
2
10
205.294
20
-1191.499
0
TEXT
8
2
10
205.294
20
-1191.499
40
10.00
1
#282
0
POINT
8
3
10
216.082
20
-1192.251
0
POINT
8
2
10
232.317
20
-1193.697
0
TEXT
8
2
10
232.317
20
-1193.697
40
10.00
1
#283
0
POINT
8
4
10
259.305
20
-1196.902
30
10
50
82.3512136560533
0
POINT
8
2
10
259.305
20
-1196.902
0
TEXT
8
2
10
259.305
20
-1196.902
40
10.00
1
#284
0
POINT
8
3
10
275.933
20
-1199.266
0
POINT
8
3
10
300.25
20
-1203.108
0
POINT
8
3
10
381.508
20
-1216.918
0
POINT
8
3
10
404.382
20
-1220.397
0
POINT
8
3
10
423.912
20
-1223.005
0
POINT
8
4
10
441.237
20
-1224.959
30
10
50
84.1799398666468
0
POINT
8
2
10
441.237
20
-1224.959
0
TEXT
8
2
10
441.237
20
-1224.959
40
10.00
1
#285
0
POINT
8
2
10
577.262
20
-1238.803
0
TEXT
8
2
10
577.262
20
-1238.803
40
10.00
1
#286
0
POINT
8
2
10
577.262
20
-841.815
0
TEXT
8
2
10
577.262
20
-841.815
40
10.00
1
#287
0
POINT
8
2
10
182.297
20
-841.817
0
TEXT
8
2
10
182.297
20
-841.817
40
10.00
1
#288
0
POINT
8
4
10
182.297
20
-851.817
30
10
50
270.17188682288
0
POINT
8
2
10
182.297
20
-851.817
0
TEXT
8
2
10
182.297
20
-851.817
40
10.00
1
#289
0
POINT
8
2
10
-91.433
20
-853.435
0
TEXT
8
2
10
-91.433
20
-853.435
40
10.00
1
#290
0
POINT
8
4
10
-84.317
20
-907.972
30
10
50
7.43486622041667
0
POINT
8
2
10
-84.317
20
-907.972
0
TEXT
8
2
10
-84.317
20
-907.972
40
10.00
1
#291
0
POINT
8
2
10
-94.233
20
-909.266
0
TEXT
8
2
10
-94.233
20
-909.266
40
10.00
1
#292
0
POINT
8
3
10
-93.865
20
-912.586
0
POINT
8
3
10
-93.548
20
-918.003
0
POINT
8
3
10
-93.589
20
-923.069
0
POINT
8
3
10
-93.9
20
-927.466
0
POINT
8
3
10
-94.553
20
-932.276
0
POINT
8
3
10
-95.585
20
-937.225
0
POINT
8
3
10
-96.948
20
-941.995
0
POINT
8
3
10
-98.49
20
-946.259
0
POINT
8
3
10
-100.601
20
-951.023
0
POINT
8
3
10
-103.039
20
-955.595
0
POINT
8
3
10
-105.68
20
-959.825
0
POINT
8
3
10
-108.975
20
-964.385
0
POINT
8
3
10
-112.3
20
-968.41
0
POINT
8
3
10
-116.283
20
-972.668
0
POINT
8
3
10
-119.992
20
-976.21
0
POINT
8
3
10
-124.865
20
-980.378
0
POINT
8
3
10
-129.873
20
-984.205
0
POINT
8
3
10
-135.63
20
-988.144
0
POINT
8
3
10
-141.338
20
-991.652
0
POINT
8
3
10
-147.771
20
-995.214
0
POINT
8
3
10
-155.013
20
-998.805
0
POINT
8
3
10
-163.158
20
-1002.399
0
POINT
8
2
10
-180.274
20
-1008.927
0
TEXT
8
2
10
-180.274
20
-1008.927
40
10.00
1
#277
0
POLYLINE
8
8
66
1
70
1
0
VERTEX
8
8
10
293.152
20
-1127.87
0
VERTEX
8
8
10
452.113
20
-1146.073
0
VERTEX
8
8
10
455.526
20
-1116.268
0
VERTEX
8
8
10
296.565
20
-1098.065
0
VERTEX
8
8
10
293.152
20
-1127.87
0
SEQEND
8
8
0
POINT
8
2
10
293.152
20
-1127.87
0
TEXT
8
2
10
293.152
20
-1127.87
40
10.00
1
#293
0
POINT
8
2
10
452.113
20
-1146.073
0
TEXT
8
2
10
452.113
20
-1146.073
40
10.00
1
#294
0
POINT
8
2
10
455.526
20
-1116.268
0
TEXT
8
2
10
455.526
20
-1116.268
40
10.00
1
#295
0
POINT
8
2
10
296.565
20
-1098.065
0
TEXT
8
2
10
296.565
20
-1098.065
40
10.00
1
#296
0
LINE
8
7
10
322.368
20
-1039.774
11
77.475
21
-1039.774
0
POINT
8
2
10
322.368
20
-1039.774
0
TEXT
8
2
10
322.368
20
-1039.774
40
10.00
1
#1
0
POINT
8
2
10
77.475
20
-1039.774
0
TEXT
8
2
10
77.475
20
-1039.774
40
10.00
1
#1
0
TEXT
8
1
10
77.475
20
-1028.774
40
10.00
1
PIECE NAME: ONCZ
0
TEXT
8
1
10
77.475
20
-1017.774
40
10.00
1
SIZE: 38
0
TEXT
8
1
10
77.475
20
-1006.774
40
10.00
1
ANNOTATION: 
0
TEXT
8
1
10
77.475
20
-995.774
40
10.00
1
QUANTITY: 1
0
TEXT
8
1
10
77.475
20
-984.774
40
10.00
1
MATERIAL: ÇÝZÝM
0
ENDBLK
0
ENDSEC
0
SECTION
2
ENTITIES
0
INSERT
8
1
2
0
10
0
20
0
0
INSERT
8
1
2
1
10
0
20
0
0
INSERT
8
1
2
2
10
0
20
0
0
INSERT
8
1
2
3
10
0
20
0
0
INSERT
8
1
2
4
10
0
20
0
0
INSERT
8
1
2
5
10
0
20
0
0
INSERT
8
1
2
6
10
0
20
0
0
INSERT
8
1
2
7
10
0
20
0
0
INSERT
8
1
2
8
10
0
20
0
0
INSERT
8
1
2
9
10
0
20
0
0
INSERT
8
1
2
10
10
0
20
0
0
INSERT
8
1
2
11
10
0
20
0
0
INSERT
8
1
2
12
10
0
20
0
0
TEXT
8
1
10
-180.274
20
-1453.248
40
10.00
1
STYLE NAME: 262-3062 KB-ÇÝN
0
TEXT
8
1
10
-180.274
20
-1464.248
40
10.00
1
CREATION DATE: 24-02-2026
0
TEXT
8
1
10
-180.274
20
-1475.248
40
10.00
1
CREATION TIME: 11:18:09
0
TEXT
8
1
10
-180.274
20
-1486.248
40
10.00
1
AUTHOR: GEMINI CAD SYSTEMS
0
TEXT
8
1
10
-180.274
20
-1497.248
40
10.00
1
PRODUCT: GEMINI PATTERN DESIGNER
0
TEXT
8
1
10
-180.274
20
-1508.248
40
10.00
1
SAMPLE SIZE: 38
0
TEXT
8
1
10
-180.274
20
-1519.248
40
10.00
1
GRADE RULE TABLE: 262-3062 KB-ÇÝN
0
TEXT
8
1
10
-180.274
20
-1530.248
40
10.00
1
UNITS: METRIC
0
ENDSEC
0
EOF
