0
SECTION
2
HEADER
9
$LUNITS
70
2
9
$INSUNITS
70
4
0
ENDSEC
0
SECTION
2
BLOCKS
0
BLOCK
8
0
2
0
70
0
10
0.0000
20
0.0000
0
POLYLINE
8
1
66
1
70
1
0
VERTEX
8
1
10
1267.327
20
-755.139
0
VERTEX
8
1
10
1767.327
20
-755.139
0
VERTEX
8
1
10
1767.327
20
-715.139
0
VERTEX
8
1
10
1267.327
20
-715.139
0
VERTEX
8
1
10
1267.327
20
-755.139
0
SEQEND
8
1
0
POINT
8
2
10
1267.327
20
-755.139
0
TEXT
8
2
10
1267.327
20
-755.139
40
10.00
1
#282
0
POINT
8
2
10
1767.327
20
-755.139
0
TEXT
8
2
10
1767.327
20
-755.139
40
10.00
1
#283
0
POINT
8
2
10
1767.327
20
-715.139
0
TEXT
8
2
10
1767.327
20
-715.139
40
10.00
1
#284
0
POINT
8
2
10
1267.327
20
-715.139
0
TEXT
8
2
10
1267.327
20
-715.139
40
10.00
1
#285
0
POINT
8
2
10
1267.327
20
-755.139
0
TEXT
8
2
10
1267.327
20
-755.139
40
10.00
1
#282
0
LINE
8
7
10
1531.066
20
-741.73
11
1397.733
21
-741.73
0
POINT
8
2
10
1531.066
20
-741.73
0
TEXT
8
2
10
1531.066
20
-741.73
40
10.00
1
#1
0
POINT
8
2
10
1397.733
20
-741.73
0
TEXT
8
2
10
1397.733
20
-741.73
40
10.00
1
#1
0
TEXT
8
1
10
1397.733
20
-730.73
40
10.00
1
PIECE NAME: KOPRULUK
0
TEXT
8
1
10
1397.733
20
-719.73
40
10.00
1
SIZE: 1
0
TEXT
8
1
10
1397.733
20
-708.73
40
10.00
1
ANNOTATION: 
0
TEXT
8
1
10
1397.733
20
-697.73
40
10.00
1
QUANTITY: 1
0
TEXT
8
1
10
1397.733
20
-686.73
40
10.00
1
MATERIAL: KUMAS
0
ENDBLK
0
BLOCK
8
0
2
1
70
0
10
0.0000
20
0.0000
0
POLYLINE
8
1
66
1
70
1
0
VERTEX
8
1
10
1063.483
20
-316.49
0
VERTEX
8
1
10
1063.483
20
-376.49
0
VERTEX
8
1
10
1263.484
20
-376.49
0
VERTEX
8
1
10
1263.484
20
-316.49
0
VERTEX
8
1
10
1263.484
20
-256.49
0
VERTEX
8
1
10
1063.483
20
-256.49
0
VERTEX
8
1
10
1063.483
20
-316.49
0
SEQEND
8
1
0
POINT
8
4
10
1063.483
20
-316.49
30
10
50
0
0
POINT
8
2
10
1063.483
20
-316.49
0
TEXT
8
2
10
1063.483
20
-316.49
40
10.00
1
#286
0
POINT
8
2
10
1063.483
20
-376.49
0
TEXT
8
2
10
1063.483
20
-376.49
40
10.00
1
#287
0
POINT
8
2
10
1263.484
20
-376.49
0
TEXT
8
2
10
1263.484
20
-376.49
40
10.00
1
#288
0
POINT
8
4
10
1263.484
20
-316.49
30
10
50
180
0
POINT
8
2
10
1263.484
20
-316.49
0
TEXT
8
2
10
1263.484
20
-316.49
40
10.00
1
#289
0
POINT
8
2
10
1263.484
20
-256.49
0
TEXT
8
2
10
1263.484
20
-256.49
40
10.00
1
#290
0
POINT
8
2
10
1063.483
20
-256.49
0
TEXT
8
2
10
1063.483
20
-256.49
40
10.00
1
#291
0
POINT
8
2
10
1063.483
20
-316.49
0
TEXT
8
2
10
1063.483
20
-316.49
40
10.00
1
#286
0
LINE
8
7
10
1196.817
20
-316.49
11
1130.15
21
-316.49
0
POINT
8
2
10
1196.817
20
-316.49
0
TEXT
8
2
10
1196.817
20
-316.49
40
10.00
1
#1
0
POINT
8
2
10
1130.15
20
-316.49
0
TEXT
8
2
10
1130.15
20
-316.49
40
10.00
1
#1
0
TEXT
8
1
10
1130.15
20
-305.49
40
10.00
1
PIECE NAME: FLETO
0
TEXT
8
1
10
1130.15
20
-294.49
40
10.00
1
SIZE: 1
0
TEXT
8
1
10
1130.15
20
-283.49
40
10.00
1
ANNOTATION: 
0
TEXT
8
1
10
1130.15
20
-272.49
40
10.00
1
QUANTITY: 1
0
TEXT
8
1
10
1130.15
20
-261.49
40
10.00
1
MATERIAL: KUMAS
0
ENDBLK
0
BLOCK
8
0
2
2
70
0
10
0.0000
20
0.0000
0
POLYLINE
8
1
66
1
70
1
0
VERTEX
8
1
10
1058.005
20
-447.275
0
VERTEX
8
1
10
1057.749
20
-469.014
0
VERTEX
8
1
10
1058.717
20
-486.994
0
VERTEX
8
1
10
1059.961
20
-514.698
0
VERTEX
8
1
10
1060.771
20
-526.909
0
VERTEX
8
1
10
1063.125
20
-540.833
0
VERTEX
8
1
10
1066.935
20
-553.958
0
VERTEX
8
1
10
1072.173
20
-566.323
0
VERTEX
8
1
10
1078.851
20
-577.996
0
VERTEX
8
1
10
1086.976
20
-588.96
0
VERTEX
8
1
10
1096.58
20
-599.206
0
VERTEX
8
1
10
1107.655
20
-608.648
0
VERTEX
8
1
10
1120.079
20
-617.113
0
VERTEX
8
1
10
1133.381
20
-624.253
0
VERTEX
8
1
10
1145.375
20
-629.09
0
VERTEX
8
1
10
1156.121
20
-631.61
0
VERTEX
8
1
10
1182.926
20
-636.821
0
VERTEX
8
1
10
1207.079
20
-639.977
0
VERTEX
8
1
10
1228.792
20
-641.293
0
VERTEX
8
1
10
1248.25
20
-640.956
0
VERTEX
8
1
10
1265.563
20
-639.144
0
VERTEX
8
1
10
1280.97
20
-636.01
0
VERTEX
8
1
10
1294.606
20
-631.683
0
VERTEX
8
1
10
1306.605
20
-626.273
0
VERTEX
8
1
10
1317.105
20
-619.847
0
VERTEX
8
1
10
1326.179
20
-612.472
0
VERTEX
8
1
10
1333.873
20
-604.2
0
VERTEX
8
1
10
1340.18
20
-595.102
0
VERTEX
8
1
10
1345.006
20
-585.375
0
VERTEX
8
1
10
1348.14
20
-575.61
0
VERTEX
8
1
10
1349.162
20
-568.37
0
VERTEX
8
1
10
1347.577
20
-554.259
0
VERTEX
8
1
10
1344.747
20
-542.47
0
VERTEX
8
1
10
1340.766
20
-532.38
0
VERTEX
8
1
10
1335.631
20
-523.591
0
VERTEX
8
1
10
1329.136
20
-515.663
0
VERTEX
8
1
10
1320.599
20
-507.949
0
VERTEX
8
1
10
1302.998
20
-495.567
0
VERTEX
8
1
10
1293.039
20
-487.877
0
VERTEX
8
1
10
1286.888
20
-481.341
0
VERTEX
8
1
10
1282.602
20
-474.552
0
VERTEX
8
1
10
1279.711
20
-466.946
0
VERTEX
8
1
10
1278.134
20
-458.031
0
VERTEX
8
1
10
1278.002
20
-447.275
0
VERTEX
8
1
10
1279.711
20
-417.326
0
VERTEX
8
1
10
1249.139
20
-417.165
0
VERTEX
8
1
10
1088.903
20
-417.173
0
VERTEX
8
1
10
1058.735
20
-417.271
0
VERTEX
8
1
10
1058.005
20
-447.275
0
SEQEND
8
1
0
POINT
8
2
10
1058.005
20
-447.275
0
TEXT
8
2
10
1058.005
20
-447.275
40
10.00
1
#294
0
POINT
8
3
10
1057.749
20
-469.014
0
POINT
8
3
10
1058.717
20
-486.994
0
POINT
8
3
10
1059.961
20
-514.698
0
POINT
8
3
10
1060.771
20
-526.909
0
POINT
8
3
10
1063.125
20
-540.833
0
POINT
8
3
10
1066.935
20
-553.958
0
POINT
8
3
10
1072.173
20
-566.323
0
POINT
8
3
10
1078.851
20
-577.996
0
POINT
8
3
10
1086.976
20
-588.96
0
POINT
8
3
10
1096.58
20
-599.206
0
POINT
8
3
10
1107.655
20
-608.648
0
POINT
8
3
10
1120.079
20
-617.113
0
POINT
8
3
10
1133.381
20
-624.253
0
POINT
8
3
10
1145.375
20
-629.09
0
POINT
8
3
10
1156.121
20
-631.61
0
POINT
8
3
10
1182.926
20
-636.821
0
POINT
8
3
10
1207.079
20
-639.977
0
POINT
8
3
10
1228.792
20
-641.293
0
POINT
8
3
10
1248.25
20
-640.956
0
POINT
8
3
10
1265.563
20
-639.144
0
POINT
8
3
10
1280.97
20
-636.01
0
POINT
8
3
10
1294.606
20
-631.683
0
POINT
8
3
10
1306.605
20
-626.273
0
POINT
8
3
10
1317.105
20
-619.847
0
POINT
8
3
10
1326.179
20
-612.472
0
POINT
8
3
10
1333.873
20
-604.2
0
POINT
8
3
10
1340.18
20
-595.102
0
POINT
8
3
10
1345.006
20
-585.375
0
POINT
8
3
10
1348.14
20
-575.61
0
POINT
8
3
10
1349.162
20
-568.37
0
POINT
8
3
10
1347.577
20
-554.259
0
POINT
8
3
10
1344.747
20
-542.47
0
POINT
8
3
10
1340.766
20
-532.38
0
POINT
8
3
10
1335.631
20
-523.591
0
POINT
8
3
10
1329.136
20
-515.663
0
POINT
8
3
10
1320.599
20
-507.949
0
POINT
8
3
10
1302.998
20
-495.567
0
POINT
8
3
10
1293.039
20
-487.877
0
POINT
8
3
10
1286.888
20
-481.341
0
POINT
8
3
10
1282.602
20
-474.552
0
POINT
8
3
10
1279.711
20
-466.946
0
POINT
8
3
10
1278.134
20
-458.031
0
POINT
8
2
10
1278.002
20
-447.275
0
TEXT
8
2
10
1278.002
20
-447.275
40
10.00
1
#295
0
POINT
8
2
10
1279.711
20
-417.326
0
TEXT
8
2
10
1279.711
20
-417.326
40
10.00
1
#296
0
POINT
8
4
10
1249.139
20
-417.165
30
10
50
269.851031308942
0
POINT
8
2
10
1249.139
20
-417.165
0
TEXT
8
2
10
1249.139
20
-417.165
40
10.00
1
#297
0
POINT
8
4
10
1088.903
20
-417.173
30
10
50
270.097402731341
0
POINT
8
2
10
1088.903
20
-417.173
0
TEXT
8
2
10
1088.903
20
-417.173
40
10.00
1
#298
0
POINT
8
2
10
1058.735
20
-417.271
0
TEXT
8
2
10
1058.735
20
-417.271
40
10.00
1
#299
0
POINT
8
2
10
1058.005
20
-447.275
0
TEXT
8
2
10
1058.005
20
-447.275
40
10.00
1
#294
0
LINE
8
7
10
1225.113
20
-536.968
11
1146.206
21
-536.968
0
POINT
8
2
10
1225.113
20
-536.968
0
TEXT
8
2
10
1225.113
20
-536.968
40
10.00
1
#1
0
POINT
8
2
10
1146.206
20
-536.968
0
TEXT
8
2
10
1146.206
20
-536.968
40
10.00
1
#1
0
TEXT
8
1
10
1146.206
20
-525.968
40
10.00
1
PIECE NAME: CPTOR
0
TEXT
8
1
10
1146.206
20
-514.968
40
10.00
1
SIZE: 1
0
TEXT
8
1
10
1146.206
20
-503.968
40
10.00
1
ANNOTATION: 
0
TEXT
8
1
10
1146.206
20
-492.968
40
10.00
1
QUANTITY: 1
0
TEXT
8
1
10
1146.206
20
-481.968
40
10.00
1
MATERIAL: KUMAS
0
ENDBLK
0
BLOCK
8
0
2
3
70
0
10
0.0000
20
0.0000
0
POLYLINE
8
1
66
1
70
1
0
VERTEX
8
1
10
1058.735
20
-641.187
0
VERTEX
8
1
10
1088.903
20
-641.285
0
VERTEX
8
1
10
1249.139
20
-641.293
0
VERTEX
8
1
10
1279.711
20
-641.132
0
VERTEX
8
1
10
1278.002
20
-611.183
0
VERTEX
8
1
10
1278.134
20
-600.427
0
VERTEX
8
1
10
1279.711
20
-591.512
0
VERTEX
8
1
10
1282.602
20
-583.906
0
VERTEX
8
1
10
1286.888
20
-577.117
0
VERTEX
8
1
10
1293.039
20
-570.581
0
VERTEX
8
1
10
1302.998
20
-562.891
0
VERTEX
8
1
10
1320.599
20
-550.509
0
VERTEX
8
1
10
1329.136
20
-542.795
0
VERTEX
8
1
10
1335.631
20
-534.867
0
VERTEX
8
1
10
1340.766
20
-526.078
0
VERTEX
8
1
10
1344.747
20
-515.988
0
VERTEX
8
1
10
1347.577
20
-504.199
0
VERTEX
8
1
10
1349.162
20
-490.088
0
VERTEX
8
1
10
1348.14
20
-482.848
0
VERTEX
8
1
10
1345.006
20
-473.083
0
VERTEX
8
1
10
1340.18
20
-463.356
0
VERTEX
8
1
10
1333.873
20
-454.258
0
VERTEX
8
1
10
1326.179
20
-445.986
0
VERTEX
8
1
10
1317.105
20
-438.611
0
VERTEX
8
1
10
1306.605
20
-432.185
0
VERTEX
8
1
10
1294.606
20
-426.775
0
VERTEX
8
1
10
1280.97
20
-422.448
0
VERTEX
8
1
10
1265.563
20
-419.314
0
VERTEX
8
1
10
1248.25
20
-417.502
0
VERTEX
8
1
10
1228.792
20
-417.165
0
VERTEX
8
1
10
1207.079
20
-418.481
0
VERTEX
8
1
10
1182.926
20
-421.637
0
VERTEX
8
1
10
1156.121
20
-426.848
0
VERTEX
8
1
10
1145.375
20
-429.368
0
VERTEX
8
1
10
1133.381
20
-434.205
0
VERTEX
8
1
10
1120.079
20
-441.345
0
VERTEX
8
1
10
1107.655
20
-449.81
0
VERTEX
8
1
10
1096.58
20
-459.252
0
VERTEX
8
1
10
1086.976
20
-469.498
0
VERTEX
8
1
10
1078.851
20
-480.462
0
VERTEX
8
1
10
1072.173
20
-492.135
0
VERTEX
8
1
10
1066.935
20
-504.5
0
VERTEX
8
1
10
1063.125
20
-517.625
0
VERTEX
8
1
10
1060.771
20
-531.549
0
VERTEX
8
1
10
1059.961
20
-543.76
0
VERTEX
8
1
10
1058.717
20
-571.464
0
VERTEX
8
1
10
1057.749
20
-589.444
0
VERTEX
8
1
10
1058.005
20
-611.183
0
VERTEX
8
1
10
1058.735
20
-641.187
0
SEQEND
8
1
0
POINT
8
2
10
1058.735
20
-641.187
0
TEXT
8
2
10
1058.735
20
-641.187
40
10.00
1
#14
0
POINT
8
4
10
1088.903
20
-641.285
30
10
50
89.9025972686587
0
POINT
8
2
10
1088.903
20
-641.285
0
TEXT
8
2
10
1088.903
20
-641.285
40
10.00
1
#15
0
POINT
8
4
10
1249.139
20
-641.293
30
10
50
90.1489686910576
0
POINT
8
2
10
1249.139
20
-641.293
0
TEXT
8
2
10
1249.139
20
-641.293
40
10.00
1
#16
0
POINT
8
2
10
1279.711
20
-641.132
0
TEXT
8
2
10
1279.711
20
-641.132
40
10.00
1
#17
0
POINT
8
2
10
1278.002
20
-611.183
0
TEXT
8
2
10
1278.002
20
-611.183
40
10.00
1
#18
0
POINT
8
3
10
1278.134
20
-600.427
0
POINT
8
3
10
1279.711
20
-591.512
0
POINT
8
3
10
1282.602
20
-583.906
0
POINT
8
3
10
1286.888
20
-577.117
0
POINT
8
3
10
1293.039
20
-570.581
0
POINT
8
3
10
1302.998
20
-562.891
0
POINT
8
3
10
1320.599
20
-550.509
0
POINT
8
3
10
1329.136
20
-542.795
0
POINT
8
3
10
1335.631
20
-534.867
0
POINT
8
3
10
1340.766
20
-526.078
0
POINT
8
3
10
1344.747
20
-515.988
0
POINT
8
3
10
1347.577
20
-504.199
0
POINT
8
3
10
1349.162
20
-490.088
0
POINT
8
3
10
1348.14
20
-482.848
0
POINT
8
3
10
1345.006
20
-473.083
0
POINT
8
3
10
1340.18
20
-463.356
0
POINT
8
3
10
1333.873
20
-454.258
0
POINT
8
3
10
1326.179
20
-445.986
0
POINT
8
3
10
1317.105
20
-438.611
0
POINT
8
3
10
1306.605
20
-432.185
0
POINT
8
3
10
1294.606
20
-426.775
0
POINT
8
3
10
1280.97
20
-422.448
0
POINT
8
3
10
1265.563
20
-419.314
0
POINT
8
3
10
1248.25
20
-417.502
0
POINT
8
3
10
1228.792
20
-417.165
0
POINT
8
3
10
1207.079
20
-418.481
0
POINT
8
3
10
1182.926
20
-421.637
0
POINT
8
3
10
1156.121
20
-426.848
0
POINT
8
3
10
1145.375
20
-429.368
0
POINT
8
3
10
1133.381
20
-434.205
0
POINT
8
3
10
1120.079
20
-441.345
0
POINT
8
3
10
1107.655
20
-449.81
0
POINT
8
3
10
1096.58
20
-459.252
0
POINT
8
3
10
1086.976
20
-469.498
0
POINT
8
3
10
1078.851
20
-480.462
0
POINT
8
3
10
1072.173
20
-492.135
0
POINT
8
3
10
1066.935
20
-504.5
0
POINT
8
3
10
1063.125
20
-517.625
0
POINT
8
3
10
1060.771
20
-531.549
0
POINT
8
3
10
1059.961
20
-543.76
0
POINT
8
3
10
1058.717
20
-571.464
0
POINT
8
3
10
1057.749
20
-589.444
0
POINT
8
2
10
1058.005
20
-611.183
0
TEXT
8
2
10
1058.005
20
-611.183
40
10.00
1
#19
0
POINT
8
2
10
1058.735
20
-641.187
0
TEXT
8
2
10
1058.735
20
-641.187
40
10.00
1
#14
0
LINE
8
7
10
1225.113
20
-521.49
11
1146.206
21
-521.49
0
POINT
8
2
10
1225.113
20
-521.49
0
TEXT
8
2
10
1225.113
20
-521.49
40
10.00
1
#1
0
POINT
8
2
10
1146.206
20
-521.49
0
TEXT
8
2
10
1146.206
20
-521.49
40
10.00
1
#1
0
TEXT
8
1
10
1146.206
20
-510.49
40
10.00
1
PIECE NAME: CPTORFY1
0
TEXT
8
1
10
1146.206
20
-499.49
40
10.00
1
SIZE: 1
0
TEXT
8
1
10
1146.206
20
-488.49
40
10.00
1
ANNOTATION: 
0
TEXT
8
1
10
1146.206
20
-477.49
40
10.00
1
QUANTITY: 1
0
TEXT
8
1
10
1146.206
20
-466.49
40
10.00
1
MATERIAL: KUMAS
0
ENDBLK
0
BLOCK
8
0
2
4
70
0
10
0.0000
20
0.0000
0
POLYLINE
8
1
66
1
70
1
0
VERTEX
8
1
10
349.8
20
-485.169
0
VERTEX
8
1
10
351.495
20
-475.281
0
VERTEX
8
1
10
353.728
20
-454.72
0
VERTEX
8
1
10
354.505
20
-432.103
0
VERTEX
8
1
10
354.29
20
-420.024
0
VERTEX
8
1
10
352.732
20
-398.466
0
VERTEX
8
1
10
349.8
20
-379.038
0
VERTEX
8
1
10
349.305
20
-376.564
0
VERTEX
8
1
10
345.017
20
-359.607
0
VERTEX
8
1
10
339.718
20
-344.817
0
VERTEX
8
1
10
333.553
20
-332.103
0
VERTEX
8
1
10
326.66
20
-321.36
0
VERTEX
8
1
10
319.129
20
-312.449
0
VERTEX
8
1
10
311.014
20
-305.232
0
VERTEX
8
1
10
302.332
20
-299.597
0
VERTEX
8
1
10
309.572
20
-328.708
0
VERTEX
8
1
10
310.708
20
-332.966
0
VERTEX
8
1
10
316.901
20
-359.702
0
VERTEX
8
1
10
321.194
20
-385.093
0
VERTEX
8
1
10
323.692
20
-409.184
0
VERTEX
8
1
10
324.505
20
-432.103
0
VERTEX
8
1
10
324.487
20
-435.567
0
VERTEX
8
1
10
323.42
20
-458.663
0
VERTEX
8
1
10
320.649
20
-482.961
0
VERTEX
8
1
10
316.077
20
-508.517
0
VERTEX
8
1
10
309.572
20
-535.5
0
VERTEX
8
1
10
302.332
20
-564.609
0
VERTEX
8
1
10
303.55
20
-563.931
0
VERTEX
8
1
10
312.149
20
-558.091
0
VERTEX
8
1
10
320.185
20
-550.653
0
VERTEX
8
1
10
327.632
20
-541.504
0
VERTEX
8
1
10
334.435
20
-530.5
0
VERTEX
8
1
10
340.49
20
-517.51
0
VERTEX
8
1
10
345.665
20
-502.42
0
VERTEX
8
1
10
349.8
20
-485.169
0
SEQEND
8
1
0
POINT
8
4
10
349.8
20
-485.169
30
10
50
169.017083134357
0
POINT
8
2
10
349.8
20
-485.169
0
TEXT
8
2
10
349.8
20
-485.169
40
10.00
1
#302
0
POINT
8
3
10
351.495
20
-475.281
0
POINT
8
3
10
353.728
20
-454.72
0
POINT
8
4
10
354.505
20
-432.103
30
10
50
180
0
POINT
8
2
10
354.505
20
-432.103
0
TEXT
8
2
10
354.505
20
-432.103
40
10.00
1
#303
0
POINT
8
3
10
354.29
20
-420.024
0
POINT
8
3
10
352.732
20
-398.466
0
POINT
8
4
10
349.8
20
-379.038
30
10
50
190.982916865643
0
POINT
8
2
10
349.8
20
-379.038
0
TEXT
8
2
10
349.8
20
-379.038
40
10.00
1
#304
0
POINT
8
3
10
349.305
20
-376.564
0
POINT
8
3
10
345.017
20
-359.607
0
POINT
8
3
10
339.718
20
-344.817
0
POINT
8
3
10
333.553
20
-332.103
0
POINT
8
3
10
326.66
20
-321.36
0
POINT
8
3
10
319.129
20
-312.449
0
POINT
8
3
10
311.014
20
-305.232
0
POINT
8
2
10
302.332
20
-299.597
0
TEXT
8
2
10
302.332
20
-299.597
40
10.00
1
#305
0
POINT
8
4
10
309.572
20
-328.708
30
10
50
15.1757269207518
0
POINT
8
2
10
309.572
20
-328.708
0
TEXT
8
2
10
309.572
20
-328.708
40
10.00
1
#306
0
POINT
8
3
10
310.708
20
-332.966
0
POINT
8
3
10
316.901
20
-359.702
0
POINT
8
3
10
321.194
20
-385.093
0
POINT
8
3
10
323.692
20
-409.184
0
POINT
8
4
10
324.505
20
-432.103
30
10
50
0
0
POINT
8
2
10
324.505
20
-432.103
0
TEXT
8
2
10
324.505
20
-432.103
40
10.00
1
#307
0
POINT
8
3
10
324.487
20
-435.567
0
POINT
8
3
10
323.42
20
-458.663
0
POINT
8
3
10
320.649
20
-482.961
0
POINT
8
3
10
316.077
20
-508.517
0
POINT
8
4
10
309.572
20
-535.5
30
10
50
344.829802581659
0
POINT
8
2
10
309.572
20
-535.5
0
TEXT
8
2
10
309.572
20
-535.5
40
10.00
1
#308
0
POINT
8
2
10
302.332
20
-564.609
0
TEXT
8
2
10
302.332
20
-564.609
40
10.00
1
#309
0
POINT
8
3
10
303.55
20
-563.931
0
POINT
8
3
10
312.149
20
-558.091
0
POINT
8
3
10
320.185
20
-550.653
0
POINT
8
3
10
327.632
20
-541.504
0
POINT
8
3
10
334.435
20
-530.5
0
POINT
8
3
10
340.49
20
-517.51
0
POINT
8
3
10
345.665
20
-502.42
0
POINT
8
2
10
349.8
20
-485.169
0
TEXT
8
2
10
349.8
20
-485.169
40
10.00
1
#302
0
LINE
8
7
10
346.449
20
-440.257
11
329.057
21
-440.257
0
POINT
8
2
10
346.449
20
-440.257
0
TEXT
8
2
10
346.449
20
-440.257
40
10.00
1
#1
0
POINT
8
2
10
329.057
20
-440.257
0
TEXT
8
2
10
329.057
20
-440.257
40
10.00
1
#1
0
TEXT
8
1
10
329.057
20
-429.257
40
10.00
1
PIECE NAME: YKAYKCZ
0
TEXT
8
1
10
329.057
20
-418.257
40
10.00
1
SIZE: 1
0
TEXT
8
1
10
329.057
20
-407.257
40
10.00
1
ANNOTATION: 
0
TEXT
8
1
10
329.057
20
-396.257
40
10.00
1
QUANTITY: 1
0
TEXT
8
1
10
329.057
20
-385.257
40
10.00
1
MATERIAL: ÇÝZÝM
0
ENDBLK
0
BLOCK
8
0
2
5
70
0
10
0.0000
20
0.0000
0
POLYLINE
8
1
66
1
70
1
0
VERTEX
8
1
10
352.192
20
-665.411
0
VERTEX
8
1
10
445.275
20
-723.454
0
VERTEX
8
1
10
448.502
20
-712.634
0
VERTEX
8
1
10
456.879
20
-680.609
0
VERTEX
8
1
10
464.338
20
-645.517
0
VERTEX
8
1
10
470.747
20
-607.4
0
VERTEX
8
1
10
475.947
20
-566.504
0
VERTEX
8
1
10
479.795
20
-523.255
0
VERTEX
8
1
10
482.163
20
-478.348
0
VERTEX
8
1
10
482.962
20
-432.733
0
VERTEX
8
1
10
482.858
20
-416.228
0
VERTEX
8
1
10
481.483
20
-370.732
0
VERTEX
8
1
10
478.564
20
-326.285
0
VERTEX
8
1
10
474.209
20
-283.827
0
VERTEX
8
1
10
468.56
20
-243.941
0
VERTEX
8
1
10
461.755
20
-206.908
0
VERTEX
8
1
10
453.949
20
-172.93
0
VERTEX
8
1
10
445.275
20
-142.012
0
VERTEX
8
1
10
352.192
20
-200.056
0
VERTEX
8
1
10
351.841
20
-205.864
0
VERTEX
8
1
10
351.485
20
-228.296
0
VERTEX
8
1
10
352.738
20
-250.899
0
VERTEX
8
1
10
355.689
20
-274.422
0
VERTEX
8
1
10
360.639
20
-300.228
0
VERTEX
8
1
10
361.857
20
-300.906
0
VERTEX
8
1
10
370.456
20
-306.747
0
VERTEX
8
1
10
378.492
20
-314.185
0
VERTEX
8
1
10
385.937
20
-323.334
0
VERTEX
8
1
10
392.74
20
-334.338
0
VERTEX
8
1
10
398.795
20
-347.326
0
VERTEX
8
1
10
403.971
20
-362.416
0
VERTEX
8
1
10
408.106
20
-379.668
0
VERTEX
8
1
10
409.8
20
-389.557
0
VERTEX
8
1
10
412.035
20
-410.117
0
VERTEX
8
1
10
412.812
20
-432.733
0
VERTEX
8
1
10
412.596
20
-444.814
0
VERTEX
8
1
10
411.038
20
-466.372
0
VERTEX
8
1
10
408.106
20
-485.799
0
VERTEX
8
1
10
407.612
20
-488.274
0
VERTEX
8
1
10
403.324
20
-505.23
0
VERTEX
8
1
10
398.024
20
-520.019
0
VERTEX
8
1
10
391.86
20
-532.735
0
VERTEX
8
1
10
384.966
20
-543.477
0
VERTEX
8
1
10
377.435
20
-552.388
0
VERTEX
8
1
10
369.319
20
-559.605
0
VERTEX
8
1
10
360.639
20
-565.24
0
VERTEX
8
1
10
359.146
20
-572.206
0
VERTEX
8
1
10
354.759
20
-597.226
0
VERTEX
8
1
10
352.262
20
-620.404
0
VERTEX
8
1
10
351.425
20
-642.897
0
VERTEX
8
1
10
352.192
20
-665.411
0
SEQEND
8
1
0
POINT
8
2
10
352.192
20
-665.411
0
TEXT
8
2
10
352.192
20
-665.411
40
10.00
1
#316
0
POINT
8
2
10
445.275
20
-723.454
0
TEXT
8
2
10
445.275
20
-723.454
40
10.00
1
#317
0
POINT
8
3
10
448.502
20
-712.634
0
POINT
8
3
10
456.879
20
-680.609
0
POINT
8
3
10
464.338
20
-645.517
0
POINT
8
3
10
470.747
20
-607.4
0
POINT
8
3
10
475.947
20
-566.504
0
POINT
8
3
10
479.795
20
-523.255
0
POINT
8
3
10
482.163
20
-478.348
0
POINT
8
4
10
482.962
20
-432.733
30
10
50
180
0
POINT
8
2
10
482.962
20
-432.733
0
TEXT
8
2
10
482.962
20
-432.733
40
10.00
1
#318
0
POINT
8
3
10
482.858
20
-416.228
0
POINT
8
3
10
481.483
20
-370.732
0
POINT
8
3
10
478.564
20
-326.285
0
POINT
8
3
10
474.209
20
-283.827
0
POINT
8
3
10
468.56
20
-243.941
0
POINT
8
3
10
461.755
20
-206.908
0
POINT
8
3
10
453.949
20
-172.93
0
POINT
8
2
10
445.275
20
-142.012
0
TEXT
8
2
10
445.275
20
-142.012
40
10.00
1
#319
0
POINT
8
2
10
352.192
20
-200.056
0
TEXT
8
2
10
352.192
20
-200.056
40
10.00
1
#320
0
POINT
8
3
10
351.841
20
-205.864
0
POINT
8
3
10
351.485
20
-228.296
0
POINT
8
3
10
352.738
20
-250.899
0
POINT
8
3
10
355.689
20
-274.422
0
POINT
8
2
10
360.639
20
-300.228
0
TEXT
8
2
10
360.639
20
-300.228
40
10.00
1
#321
0
POINT
8
3
10
361.857
20
-300.906
0
POINT
8
3
10
370.456
20
-306.747
0
POINT
8
3
10
378.492
20
-314.185
0
POINT
8
3
10
385.937
20
-323.334
0
POINT
8
3
10
392.74
20
-334.338
0
POINT
8
3
10
398.795
20
-347.326
0
POINT
8
3
10
403.971
20
-362.416
0
POINT
8
4
10
408.106
20
-379.668
30
10
50
10.9874497794376
0
POINT
8
2
10
408.106
20
-379.668
0
TEXT
8
2
10
408.106
20
-379.668
40
10.00
1
#322
0
POINT
8
3
10
409.8
20
-389.557
0
POINT
8
3
10
412.035
20
-410.117
0
POINT
8
4
10
412.812
20
-432.733
30
10
50
0
0
POINT
8
2
10
412.812
20
-432.733
0
TEXT
8
2
10
412.812
20
-432.733
40
10.00
1
#323
0
POINT
8
3
10
412.596
20
-444.814
0
POINT
8
3
10
411.038
20
-466.372
0
POINT
8
4
10
408.106
20
-485.799
30
10
50
349.012550220562
0
POINT
8
2
10
408.106
20
-485.799
0
TEXT
8
2
10
408.106
20
-485.799
40
10.00
1
#324
0
POINT
8
3
10
407.612
20
-488.274
0
POINT
8
3
10
403.324
20
-505.23
0
POINT
8
3
10
398.024
20
-520.019
0
POINT
8
3
10
391.86
20
-532.735
0
POINT
8
3
10
384.966
20
-543.477
0
POINT
8
3
10
377.435
20
-552.388
0
POINT
8
3
10
369.319
20
-559.605
0
POINT
8
2
10
360.639
20
-565.24
0
TEXT
8
2
10
360.639
20
-565.24
40
10.00
1
#325
0
POINT
8
3
10
359.146
20
-572.206
0
POINT
8
3
10
354.759
20
-597.226
0
POINT
8
3
10
352.262
20
-620.404
0
POINT
8
2
10
351.425
20
-642.897
0
TEXT
8
2
10
351.425
20
-642.897
40
10.00
1
#326
0
POINT
8
2
10
352.192
20
-665.411
0
TEXT
8
2
10
352.192
20
-665.411
40
10.00
1
#316
0
LINE
8
7
10
439.115
20
-287.373
11
395.269
21
-287.373
0
POINT
8
2
10
439.115
20
-287.373
0
TEXT
8
2
10
439.115
20
-287.373
40
10.00
1
#1
0
POINT
8
2
10
395.269
20
-287.373
0
TEXT
8
2
10
395.269
20
-287.373
40
10.00
1
#1
0
TEXT
8
1
10
395.269
20
-276.373
40
10.00
1
PIECE NAME: YKCZ
0
TEXT
8
1
10
395.269
20
-265.373
40
10.00
1
SIZE: 1
0
TEXT
8
1
10
395.269
20
-254.373
40
10.00
1
ANNOTATION: 
0
TEXT
8
1
10
395.269
20
-243.373
40
10.00
1
QUANTITY: 1
0
TEXT
8
1
10
395.269
20
-232.373
40
10.00
1
MATERIAL: ÇÝZÝM
0
ENDBLK
0
BLOCK
8
0
2
6
70
0
10
0.0000
20
0.0000
0
POLYLINE
8
1
66
1
70
1
0
VERTEX
8
1
10
2789.027
20
-1386.375
0
VERTEX
8
1
10
2849.027
20
-1386.375
0
VERTEX
8
1
10
2909.027
20
-1386.375
0
VERTEX
8
1
10
2909.027
20
-119.605
0
VERTEX
8
1
10
2849.027
20
-95.605
0
VERTEX
8
1
10
2789.027
20
-119.605
0
VERTEX
8
1
10
2789.027
20
-1386.375
0
SEQEND
8
1
0
POINT
8
2
10
2789.027
20
-1386.375
0
TEXT
8
2
10
2789.027
20
-1386.375
40
10.00
1
#331
0
POINT
8
4
10
2849.027
20
-1386.375
30
10
50
90
0
POINT
8
2
10
2849.027
20
-1386.375
0
TEXT
8
2
10
2849.027
20
-1386.375
40
10.00
1
#332
0
POINT
8
2
10
2909.027
20
-1386.375
0
TEXT
8
2
10
2909.027
20
-1386.375
40
10.00
1
#333
0
POINT
8
2
10
2909.027
20
-119.605
0
TEXT
8
2
10
2909.027
20
-119.605
40
10.00
1
#334
0
POINT
8
4
10
2849.027
20
-95.605
30
10
50
270
0
POINT
8
2
10
2849.027
20
-95.605
0
TEXT
8
2
10
2849.027
20
-95.605
40
10.00
1
#335
0
POINT
8
2
10
2789.027
20
-119.605
0
TEXT
8
2
10
2789.027
20
-119.605
40
10.00
1
#336
0
POINT
8
2
10
2789.027
20
-1386.375
0
TEXT
8
2
10
2789.027
20
-1386.375
40
10.00
1
#331
0
LINE
8
7
10
2850.987
20
-916.495
11
2837.653
21
-916.495
0
POINT
8
2
10
2850.987
20
-916.495
0
TEXT
8
2
10
2850.987
20
-916.495
40
10.00
1
#1
0
POINT
8
2
10
2837.653
20
-916.495
0
TEXT
8
2
10
2837.653
20
-916.495
40
10.00
1
#1
0
TEXT
8
1
10
2837.653
20
-905.495
40
10.00
1
PIECE NAME: KMR
0
TEXT
8
1
10
2837.653
20
-894.495
40
10.00
1
SIZE: 1
0
TEXT
8
1
10
2837.653
20
-883.495
40
10.00
1
ANNOTATION: 
0
TEXT
8
1
10
2837.653
20
-872.495
40
10.00
1
QUANTITY: 1
0
TEXT
8
1
10
2837.653
20
-861.495
40
10.00
1
MATERIAL: KUMAS
0
ENDBLK
0
BLOCK
8
0
2
7
70
0
10
0.0000
20
0.0000
0
POLYLINE
8
1
66
1
70
1
0
VERTEX
8
1
10
1733.755
20
-212.026
0
VERTEX
8
1
10
1731.608
20
-213.061
0
VERTEX
8
1
10
1730.239
20
-213.721
0
VERTEX
8
1
10
1719.294
20
-217.649
0
VERTEX
8
1
10
1695.23
20
-223.228
0
VERTEX
8
1
10
1698.977
20
-228.137
0
VERTEX
8
1
10
1714.351
20
-246.598
0
VERTEX
8
1
10
1731.527
20
-264.678
0
VERTEX
8
1
10
1750.592
20
-282.375
0
VERTEX
8
1
10
1771.653
20
-299.691
0
VERTEX
8
1
10
1779.67
20
-305.925
0
VERTEX
8
1
10
1783.861
20
-309.074
0
VERTEX
8
1
10
1812.285
20
-329.384
0
VERTEX
8
1
10
1837.259
20
-345.399
0
VERTEX
8
1
10
1860.378
20
-358.42
0
VERTEX
8
1
10
1882.396
20
-369.055
0
VERTEX
8
1
10
1907.345
20
-351.804
0
VERTEX
8
1
10
1916.45
20
-356.307
0
VERTEX
8
1
10
1925.375
20
-362.457
0
VERTEX
8
1
10
1933.31
20
-369.86
0
VERTEX
8
1
10
1940
20
-378.266
0
VERTEX
8
1
10
1941.085
20
-379.817
0
VERTEX
8
1
10
1944.577
20
-386.594
0
VERTEX
8
1
10
1946.874
20
-394.738
0
VERTEX
8
1
10
1947.911
20
-404.969
0
VERTEX
8
1
10
1947.398
20
-420.121
0
VERTEX
8
1
10
2032.536
20
-422.238
0
VERTEX
8
1
10
2062.527
20
-422.985
0
VERTEX
8
1
10
2092.518
20
-423.73
0
VERTEX
8
1
10
2272.461
20
-428.206
0
VERTEX
8
1
10
2472.257
20
-433.175
0
VERTEX
8
1
10
2682.051
20
-438.393
0
VERTEX
8
1
10
2683.936
20
-387.692
0
VERTEX
8
1
10
2692.13
20
-260.163
0
VERTEX
8
1
10
2694.746
20
-204.499
0
VERTEX
8
1
10
2695.356
20
-160.496
0
VERTEX
8
1
10
2695.356
20
-140.496
0
VERTEX
8
1
10
2695.356
20
-110.496
0
VERTEX
8
1
10
1764.983
20
-110.496
0
VERTEX
8
1
10
1764.983
20
-140.539
0
VERTEX
8
1
10
1764.974
20
-145.604
0
VERTEX
8
1
10
1763.922
20
-159.994
0
VERTEX
8
1
10
1761.472
20
-172.779
0
VERTEX
8
1
10
1757.828
20
-183.798
0
VERTEX
8
1
10
1753.163
20
-193.09
0
VERTEX
8
1
10
1747.579
20
-200.805
0
VERTEX
8
1
10
1741.116
20
-207.084
0
VERTEX
8
1
10
1733.755
20
-212.026
0
SEQEND
8
1
0
POINT
8
2
10
1733.755
20
-212.026
0
TEXT
8
2
10
1733.755
20
-212.026
40
10.00
1
#339
0
POINT
8
4
10
1731.608
20
-213.061
30
10
50
311.27431539764
0
POINT
8
2
10
1731.608
20
-213.061
0
TEXT
8
2
10
1731.608
20
-213.061
40
10.00
1
#340
0
POINT
8
3
10
1730.239
20
-213.721
0
POINT
8
3
10
1719.294
20
-217.649
0
POINT
8
2
10
1695.23
20
-223.228
0
TEXT
8
2
10
1695.23
20
-223.228
40
10.00
1
#341
0
POINT
8
3
10
1698.977
20
-228.137
0
POINT
8
3
10
1714.351
20
-246.598
0
POINT
8
3
10
1731.527
20
-264.678
0
POINT
8
3
10
1750.592
20
-282.375
0
POINT
8
4
10
1771.653
20
-299.691
30
10
50
51.6802486075439
0
POINT
8
2
10
1771.653
20
-299.691
0
TEXT
8
2
10
1771.653
20
-299.691
40
10.00
1
#342
0
POINT
8
4
10
1779.67
20
-305.925
30
10
50
52.5708126355702
0
POINT
8
2
10
1779.67
20
-305.925
0
TEXT
8
2
10
1779.67
20
-305.925
40
10.00
1
#343
0
POINT
8
3
10
1783.861
20
-309.074
0
POINT
8
3
10
1812.285
20
-329.384
0
POINT
8
3
10
1837.259
20
-345.399
0
POINT
8
3
10
1860.378
20
-358.42
0
POINT
8
2
10
1882.396
20
-369.055
0
TEXT
8
2
10
1882.396
20
-369.055
40
10.00
1
#344
0
POINT
8
2
10
1907.345
20
-351.804
0
TEXT
8
2
10
1907.345
20
-351.804
40
10.00
1
#345
0
POINT
8
3
10
1916.45
20
-356.307
0
POINT
8
3
10
1925.375
20
-362.457
0
POINT
8
3
10
1933.31
20
-369.86
0
POINT
8
4
10
1940
20
-378.266
30
10
50
34.3654129308857
0
POINT
8
2
10
1940
20
-378.266
0
TEXT
8
2
10
1940
20
-378.266
40
10.00
1
#346
0
POINT
8
3
10
1941.085
20
-379.817
0
POINT
8
3
10
1944.577
20
-386.594
0
POINT
8
3
10
1946.874
20
-394.738
0
POINT
8
3
10
1947.911
20
-404.969
0
POINT
8
2
10
1947.398
20
-420.121
0
TEXT
8
2
10
1947.398
20
-420.121
40
10.00
1
#347
0
POINT
8
4
10
2032.536
20
-422.238
30
10
50
88.5787876193749
0
POINT
8
2
10
2032.536
20
-422.238
0
TEXT
8
2
10
2032.536
20
-422.238
40
10.00
1
#348
0
POINT
8
2
10
2062.527
20
-422.985
0
TEXT
8
2
10
2062.527
20
-422.985
40
10.00
1
#349
0
POINT
8
4
10
2092.518
20
-423.73
30
10
50
88.5787876193749
0
POINT
8
2
10
2092.518
20
-423.73
0
TEXT
8
2
10
2092.518
20
-423.73
40
10.00
1
#350
0
POINT
8
4
10
2272.461
20
-428.206
30
10
50
88.5730592888834
0
POINT
8
2
10
2272.461
20
-428.206
0
TEXT
8
2
10
2272.461
20
-428.206
40
10.00
1
#351
0
POINT
8
4
10
2472.257
20
-433.175
30
10
50
88.573059288886
0
POINT
8
2
10
2472.257
20
-433.175
0
TEXT
8
2
10
2472.257
20
-433.175
40
10.00
1
#352
0
POINT
8
2
10
2682.051
20
-438.393
0
TEXT
8
2
10
2682.051
20
-438.393
40
10.00
1
#353
0
POINT
8
3
10
2683.936
20
-387.692
0
POINT
8
3
10
2692.13
20
-260.163
0
POINT
8
3
10
2694.746
20
-204.499
0
POINT
8
2
10
2695.356
20
-160.496
0
TEXT
8
2
10
2695.356
20
-160.496
40
10.00
1
#354
0
POINT
8
2
10
2695.356
20
-140.496
0
TEXT
8
2
10
2695.356
20
-140.496
40
10.00
1
#355
0
POINT
8
2
10
2695.356
20
-110.496
0
TEXT
8
2
10
2695.356
20
-110.496
40
10.00
1
#356
0
POINT
8
2
10
1764.983
20
-110.496
0
TEXT
8
2
10
1764.983
20
-110.496
40
10.00
1
#357
0
POINT
8
4
10
1764.983
20
-140.539
30
10
50
0
0
POINT
8
2
10
1764.983
20
-140.539
0
TEXT
8
2
10
1764.983
20
-140.539
40
10.00
1
#358
0
POINT
8
3
10
1764.974
20
-145.604
0
POINT
8
3
10
1763.922
20
-159.994
0
POINT
8
3
10
1761.472
20
-172.779
0
POINT
8
3
10
1757.828
20
-183.798
0
POINT
8
3
10
1753.163
20
-193.09
0
POINT
8
3
10
1747.579
20
-200.805
0
POINT
8
3
10
1741.116
20
-207.084
0
POINT
8
2
10
1733.755
20
-212.026
0
TEXT
8
2
10
1733.755
20
-212.026
40
10.00
1
#339
0
LINE
8
7
10
2361.317
20
-274.322
11
2037.278
21
-274.322
0
POINT
8
2
10
2361.317
20
-274.322
0
TEXT
8
2
10
2361.317
20
-274.322
40
10.00
1
#1
0
POINT
8
2
10
2037.278
20
-274.322
0
TEXT
8
2
10
2037.278
20
-274.322
40
10.00
1
#1
0
TEXT
8
1
10
2037.278
20
-263.322
40
10.00
1
PIECE NAME: ON
0
TEXT
8
1
10
2037.278
20
-252.322
40
10.00
1
SIZE: 1
0
TEXT
8
1
10
2037.278
20
-241.322
40
10.00
1
ANNOTATION: 
0
TEXT
8
1
10
2037.278
20
-230.322
40
10.00
1
QUANTITY: 1
0
TEXT
8
1
10
2037.278
20
-219.322
40
10.00
1
MATERIAL: KUMAS
0
ENDBLK
0
BLOCK
8
0
2
8
70
0
10
0.0000
20
0.0000
0
POLYLINE
8
1
66
1
70
1
0
VERTEX
8
1
10
1771.122
20
-336.17
0
VERTEX
8
1
10
1749.373
20
-320.6
0
VERTEX
8
1
10
1725.24
20
-301.901
0
VERTEX
8
1
10
1706.266
20
-285.336
0
VERTEX
8
1
10
1690.528
20
-269.586
0
VERTEX
8
1
10
1677.216
20
-254.094
0
VERTEX
8
1
10
1675.759
20
-254.943
0
VERTEX
8
1
10
1665.088
20
-260.043
0
VERTEX
8
1
10
1651.765
20
-264.458
0
VERTEX
8
1
10
1631.353
20
-269.036
0
VERTEX
8
1
10
1635.099
20
-273.947
0
VERTEX
8
1
10
1650.473
20
-292.408
0
VERTEX
8
1
10
1667.65
20
-310.487
0
VERTEX
8
1
10
1686.714
20
-328.184
0
VERTEX
8
1
10
1707.776
20
-345.5
0
VERTEX
8
1
10
1715.793
20
-351.735
0
VERTEX
8
1
10
1719.983
20
-354.884
0
VERTEX
8
1
10
1748.407
20
-375.192
0
VERTEX
8
1
10
1773.383
20
-391.208
0
VERTEX
8
1
10
1796.501
20
-404.228
0
VERTEX
8
1
10
1818.519
20
-414.864
0
VERTEX
8
1
10
1864.065
20
-383.369
0
VERTEX
8
1
10
1860.527
20
-382.327
0
VERTEX
8
1
10
1842.73
20
-376.06
0
VERTEX
8
1
10
1823.917
20
-367.658
0
VERTEX
8
1
10
1803.359
20
-356.603
0
VERTEX
8
1
10
1779.301
20
-341.636
0
VERTEX
8
1
10
1771.122
20
-336.17
0
SEQEND
8
1
0
POINT
8
4
10
1771.122
20
-336.17
30
10
50
235.77595864306
0
POINT
8
2
10
1771.122
20
-336.17
0
TEXT
8
2
10
1771.122
20
-336.17
40
10.00
1
#368
0
POINT
8
3
10
1749.373
20
-320.6
0
POINT
8
3
10
1725.24
20
-301.901
0
POINT
8
3
10
1706.266
20
-285.336
0
POINT
8
3
10
1690.528
20
-269.586
0
POINT
8
2
10
1677.216
20
-254.094
0
TEXT
8
2
10
1677.216
20
-254.094
40
10.00
1
#369
0
POINT
8
3
10
1675.759
20
-254.943
0
POINT
8
3
10
1665.088
20
-260.043
0
POINT
8
3
10
1651.765
20
-264.458
0
POINT
8
2
10
1631.353
20
-269.036
0
TEXT
8
2
10
1631.353
20
-269.036
40
10.00
1
#370
0
POINT
8
3
10
1635.099
20
-273.947
0
POINT
8
3
10
1650.473
20
-292.408
0
POINT
8
3
10
1667.65
20
-310.487
0
POINT
8
3
10
1686.714
20
-328.184
0
POINT
8
4
10
1707.776
20
-345.5
30
10
50
51.6802486075441
0
POINT
8
2
10
1707.776
20
-345.5
0
TEXT
8
2
10
1707.776
20
-345.5
40
10.00
1
#371
0
POINT
8
4
10
1715.793
20
-351.735
30
10
50
52.574295145431
0
POINT
8
2
10
1715.793
20
-351.735
0
TEXT
8
2
10
1715.793
20
-351.735
40
10.00
1
#372
0
POINT
8
3
10
1719.983
20
-354.884
0
POINT
8
3
10
1748.407
20
-375.192
0
POINT
8
3
10
1773.383
20
-391.208
0
POINT
8
3
10
1796.501
20
-404.228
0
POINT
8
2
10
1818.519
20
-414.864
0
TEXT
8
2
10
1818.519
20
-414.864
40
10.00
1
#373
0
POINT
8
2
10
1864.065
20
-383.369
0
TEXT
8
2
10
1864.065
20
-383.369
40
10.00
1
#374
0
POINT
8
3
10
1860.527
20
-382.327
0
POINT
8
3
10
1842.73
20
-376.06
0
POINT
8
3
10
1823.917
20
-367.658
0
POINT
8
3
10
1803.359
20
-356.603
0
POINT
8
4
10
1779.301
20
-341.636
30
10
50
236.71194019333
0
POINT
8
2
10
1779.301
20
-341.636
0
TEXT
8
2
10
1779.301
20
-341.636
40
10.00
1
#375
0
POINT
8
2
10
1771.122
20
-336.17
0
TEXT
8
2
10
1771.122
20
-336.17
40
10.00
1
#368
0
LINE
8
7
10
1705.971
20
-308.061
11
1686.935
21
-308.061
0
POINT
8
2
10
1705.971
20
-308.061
0
TEXT
8
2
10
1705.971
20
-308.061
40
10.00
1
#1
0
POINT
8
2
10
1686.935
20
-308.061
0
TEXT
8
2
10
1686.935
20
-308.061
40
10.00
1
#1
0
TEXT
8
1
10
1686.935
20
-297.061
40
10.00
1
PIECE NAME: ONKOLALLER
0
TEXT
8
1
10
1686.935
20
-286.061
40
10.00
1
SIZE: 1
0
TEXT
8
1
10
1686.935
20
-275.061
40
10.00
1
ANNOTATION: 
0
TEXT
8
1
10
1686.935
20
-264.061
40
10.00
1
QUANTITY: 1
0
TEXT
8
1
10
1686.935
20
-253.061
40
10.00
1
MATERIAL: KUMAS
0
ENDBLK
0
BLOCK
8
0
2
9
70
0
10
0.0000
20
0.0000
0
POLYLINE
8
1
66
1
70
1
0
VERTEX
8
1
10
1860.239
20
-629.546
0
VERTEX
8
1
10
1862.518
20
-630.93
0
VERTEX
8
1
10
1891.838
20
-647.797
0
VERTEX
8
1
10
1918.372
20
-661.321
0
VERTEX
8
1
10
1943.063
20
-672.195
0
VERTEX
8
1
10
1966.396
20
-680.795
0
VERTEX
8
1
10
1988.694
20
-687.364
0
VERTEX
8
1
10
2010.138
20
-692.065
0
VERTEX
8
1
10
2030.907
20
-695.02
0
VERTEX
8
1
10
2051.17
20
-696.316
0
VERTEX
8
1
10
2061.297
20
-696.489
0
VERTEX
8
1
10
2592.995
20
-696.504
0
VERTEX
8
1
10
2593.022
20
-558.201
0
VERTEX
8
1
10
2145.677
20
-474.469
0
VERTEX
8
1
10
2145.59
20
-481.925
0
VERTEX
8
1
10
2144.016
20
-490.971
0
VERTEX
8
1
10
2140.847
20
-499.815
0
VERTEX
8
1
10
2136.157
20
-508.151
0
VERTEX
8
1
10
2130.11
20
-515.652
0
VERTEX
8
1
10
2126.047
20
-520.445
0
VERTEX
8
1
10
2117.692
20
-528.227
0
VERTEX
8
1
10
2106.614
20
-536.132
0
VERTEX
8
1
10
2089.615
20
-545.786
0
VERTEX
8
1
10
2087.217
20
-546.949
0
VERTEX
8
1
10
2070.19
20
-554.128
0
VERTEX
8
1
10
2049.371
20
-560.994
0
VERTEX
8
1
10
2018.437
20
-569.041
0
VERTEX
8
1
10
2008.831
20
-571.165
0
VERTEX
8
1
10
1982.522
20
-576.1
0
VERTEX
8
1
10
1952.344
20
-580.587
0
VERTEX
8
1
10
1927.256
20
-582.825
0
VERTEX
8
1
10
1904.996
20
-583.294
0
VERTEX
8
1
10
1884.6
20
-582.187
0
VERTEX
8
1
10
1882.632
20
-589.218
0
VERTEX
8
1
10
1877.931
20
-600.969
0
VERTEX
8
1
10
1870.904
20
-613.861
0
VERTEX
8
1
10
1860.239
20
-629.546
0
SEQEND
8
1
0
POINT
8
2
10
1860.239
20
-629.546
0
TEXT
8
2
10
1860.239
20
-629.546
40
10.00
1
#380
0
POINT
8
3
10
1862.518
20
-630.93
0
POINT
8
3
10
1891.838
20
-647.797
0
POINT
8
3
10
1918.372
20
-661.321
0
POINT
8
3
10
1943.063
20
-672.195
0
POINT
8
3
10
1966.396
20
-680.795
0
POINT
8
3
10
1988.694
20
-687.364
0
POINT
8
3
10
2010.138
20
-692.065
0
POINT
8
3
10
2030.907
20
-695.02
0
POINT
8
3
10
2051.17
20
-696.316
0
POINT
8
4
10
2061.297
20
-696.489
30
10
50
90
0
POINT
8
2
10
2061.297
20
-696.489
0
TEXT
8
2
10
2061.297
20
-696.489
40
10.00
1
#381
0
POINT
8
2
10
2592.995
20
-696.504
0
TEXT
8
2
10
2592.995
20
-696.504
40
10.00
1
#382
0
POINT
8
2
10
2593.022
20
-558.201
0
TEXT
8
2
10
2593.022
20
-558.201
40
10.00
1
#383
0
POINT
8
2
10
2145.677
20
-474.469
0
TEXT
8
2
10
2145.677
20
-474.469
40
10.00
1
#384
0
POINT
8
3
10
2145.59
20
-481.925
0
POINT
8
3
10
2144.016
20
-490.971
0
POINT
8
3
10
2140.847
20
-499.815
0
POINT
8
3
10
2136.157
20
-508.151
0
POINT
8
4
10
2130.11
20
-515.652
30
10
50
320.347757238861
0
POINT
8
2
10
2130.11
20
-515.652
0
TEXT
8
2
10
2130.11
20
-515.652
40
10.00
1
#385
0
POINT
8
3
10
2126.047
20
-520.445
0
POINT
8
3
10
2117.692
20
-528.227
0
POINT
8
3
10
2106.614
20
-536.132
0
POINT
8
4
10
2089.615
20
-545.786
30
10
50
297.287583860219
0
POINT
8
2
10
2089.615
20
-545.786
0
TEXT
8
2
10
2089.615
20
-545.786
40
10.00
1
#386
0
POINT
8
3
10
2087.217
20
-546.949
0
POINT
8
3
10
2070.19
20
-554.128
0
POINT
8
3
10
2049.371
20
-560.994
0
POINT
8
4
10
2018.437
20
-569.041
30
10
50
282.937075407248
0
POINT
8
2
10
2018.437
20
-569.041
0
TEXT
8
2
10
2018.437
20
-569.041
40
10.00
1
#387
0
POINT
8
4
10
2008.831
20
-571.165
30
10
50
282.00992844685
0
POINT
8
2
10
2008.831
20
-571.165
0
TEXT
8
2
10
2008.831
20
-571.165
40
10.00
1
#388
0
POINT
8
3
10
1982.522
20
-576.1
0
POINT
8
3
10
1952.344
20
-580.587
0
POINT
8
3
10
1927.256
20
-582.825
0
POINT
8
3
10
1904.996
20
-583.294
0
POINT
8
2
10
1884.6
20
-582.187
0
TEXT
8
2
10
1884.6
20
-582.187
40
10.00
1
#389
0
POINT
8
3
10
1882.632
20
-589.218
0
POINT
8
3
10
1877.931
20
-600.969
0
POINT
8
3
10
1870.904
20
-613.861
0
POINT
8
2
10
1860.239
20
-629.546
0
TEXT
8
2
10
1860.239
20
-629.546
40
10.00
1
#380
0
LINE
8
7
10
2365
20
-601.702
11
2165.001
21
-601.702
0
POINT
8
2
10
2365
20
-601.702
0
TEXT
8
2
10
2365
20
-601.702
40
10.00
1
#1
0
POINT
8
2
10
2165.001
20
-601.702
0
TEXT
8
2
10
2165.001
20
-601.702
40
10.00
1
#1
0
TEXT
8
1
10
2165.001
20
-590.702
40
10.00
1
PIECE NAME: ONKOL
0
TEXT
8
1
10
2165.001
20
-579.702
40
10.00
1
SIZE: 1
0
TEXT
8
1
10
2165.001
20
-568.702
40
10.00
1
ANNOTATION: 
0
TEXT
8
1
10
2165.001
20
-557.702
40
10.00
1
QUANTITY: 1
0
TEXT
8
1
10
2165.001
20
-546.702
40
10.00
1
MATERIAL: KUMAS
0
ENDBLK
0
BLOCK
8
0
2
10
70
0
10
0.0000
20
0.0000
0
POLYLINE
8
1
66
1
70
1
0
VERTEX
8
1
10
1884.6
20
-588.787
0
VERTEX
8
1
10
1904.996
20
-587.68
0
VERTEX
8
1
10
1927.256
20
-588.149
0
VERTEX
8
1
10
1952.344
20
-590.387
0
VERTEX
8
1
10
1982.522
20
-594.874
0
VERTEX
8
1
10
2008.831
20
-599.809
0
VERTEX
8
1
10
2018.437
20
-601.933
0
VERTEX
8
1
10
2049.371
20
-609.98
0
VERTEX
8
1
10
2070.19
20
-616.846
0
VERTEX
8
1
10
2087.217
20
-624.025
0
VERTEX
8
1
10
2089.615
20
-625.188
0
VERTEX
8
1
10
2106.614
20
-634.842
0
VERTEX
8
1
10
2117.692
20
-642.747
0
VERTEX
8
1
10
2126.047
20
-650.529
0
VERTEX
8
1
10
2130.11
20
-655.322
0
VERTEX
8
1
10
2136.157
20
-662.823
0
VERTEX
8
1
10
2140.847
20
-671.159
0
VERTEX
8
1
10
2144.016
20
-680.003
0
VERTEX
8
1
10
2145.59
20
-689.049
0
VERTEX
8
1
10
2145.677
20
-696.505
0
VERTEX
8
1
10
2593.022
20
-612.773
0
VERTEX
8
1
10
2592.995
20
-474.47
0
VERTEX
8
1
10
2061.297
20
-474.485
0
VERTEX
8
1
10
2051.17
20
-474.658
0
VERTEX
8
1
10
2030.907
20
-475.954
0
VERTEX
8
1
10
2010.138
20
-478.909
0
VERTEX
8
1
10
1988.694
20
-483.61
0
VERTEX
8
1
10
1966.396
20
-490.179
0
VERTEX
8
1
10
1943.063
20
-498.779
0
VERTEX
8
1
10
1918.372
20
-509.653
0
VERTEX
8
1
10
1891.838
20
-523.177
0
VERTEX
8
1
10
1862.518
20
-540.044
0
VERTEX
8
1
10
1860.239
20
-541.428
0
VERTEX
8
1
10
1870.904
20
-557.113
0
VERTEX
8
1
10
1877.931
20
-570.005
0
VERTEX
8
1
10
1882.632
20
-581.756
0
VERTEX
8
1
10
1884.6
20
-588.787
0
SEQEND
8
1
0
POINT
8
2
10
1884.6
20
-588.787
0
TEXT
8
2
10
1884.6
20
-588.787
40
10.00
1
#100
0
POINT
8
3
10
1904.996
20
-587.68
0
POINT
8
3
10
1927.256
20
-588.149
0
POINT
8
3
10
1952.344
20
-590.387
0
POINT
8
3
10
1982.522
20
-594.874
0
POINT
8
4
10
2008.831
20
-599.809
30
10
50
77.9900715531496
0
POINT
8
2
10
2008.831
20
-599.809
0
TEXT
8
2
10
2008.831
20
-599.809
40
10.00
1
#101
0
POINT
8
4
10
2018.437
20
-601.933
30
10
50
77.0629245927518
0
POINT
8
2
10
2018.437
20
-601.933
0
TEXT
8
2
10
2018.437
20
-601.933
40
10.00
1
#102
0
POINT
8
3
10
2049.371
20
-609.98
0
POINT
8
3
10
2070.19
20
-616.846
0
POINT
8
3
10
2087.217
20
-624.025
0
POINT
8
4
10
2089.615
20
-625.188
30
10
50
62.712416139781
0
POINT
8
2
10
2089.615
20
-625.188
0
TEXT
8
2
10
2089.615
20
-625.188
40
10.00
1
#103
0
POINT
8
3
10
2106.614
20
-634.842
0
POINT
8
3
10
2117.692
20
-642.747
0
POINT
8
3
10
2126.047
20
-650.529
0
POINT
8
4
10
2130.11
20
-655.322
30
10
50
39.6522427611386
0
POINT
8
2
10
2130.11
20
-655.322
0
TEXT
8
2
10
2130.11
20
-655.322
40
10.00
1
#104
0
POINT
8
3
10
2136.157
20
-662.823
0
POINT
8
3
10
2140.847
20
-671.159
0
POINT
8
3
10
2144.016
20
-680.003
0
POINT
8
3
10
2145.59
20
-689.049
0
POINT
8
2
10
2145.677
20
-696.505
0
TEXT
8
2
10
2145.677
20
-696.505
40
10.00
1
#105
0
POINT
8
2
10
2593.022
20
-612.773
0
TEXT
8
2
10
2593.022
20
-612.773
40
10.00
1
#106
0
POINT
8
2
10
2592.995
20
-474.47
0
TEXT
8
2
10
2592.995
20
-474.47
40
10.00
1
#107
0
POINT
8
4
10
2061.297
20
-474.485
30
10
50
270
0
POINT
8
2
10
2061.297
20
-474.485
0
TEXT
8
2
10
2061.297
20
-474.485
40
10.00
1
#108
0
POINT
8
3
10
2051.17
20
-474.658
0
POINT
8
3
10
2030.907
20
-475.954
0
POINT
8
3
10
2010.138
20
-478.909
0
POINT
8
3
10
1988.694
20
-483.61
0
POINT
8
3
10
1966.396
20
-490.179
0
POINT
8
3
10
1943.063
20
-498.779
0
POINT
8
3
10
1918.372
20
-509.653
0
POINT
8
3
10
1891.838
20
-523.177
0
POINT
8
3
10
1862.518
20
-540.044
0
POINT
8
2
10
1860.239
20
-541.428
0
TEXT
8
2
10
1860.239
20
-541.428
40
10.00
1
#109
0
POINT
8
3
10
1870.904
20
-557.113
0
POINT
8
3
10
1877.931
20
-570.005
0
POINT
8
3
10
1882.632
20
-581.756
0
POINT
8
2
10
1884.6
20
-588.787
0
TEXT
8
2
10
1884.6
20
-588.787
40
10.00
1
#100
0
LINE
8
7
10
2365
20
-569.272
11
2165.001
21
-569.272
0
POINT
8
2
10
2365
20
-569.272
0
TEXT
8
2
10
2365
20
-569.272
40
10.00
1
#1
0
POINT
8
2
10
2165.001
20
-569.272
0
TEXT
8
2
10
2165.001
20
-569.272
40
10.00
1
#1
0
TEXT
8
1
10
2165.001
20
-558.272
40
10.00
1
PIECE NAME: ONKOLFY1
0
TEXT
8
1
10
2165.001
20
-547.272
40
10.00
1
SIZE: 1
0
TEXT
8
1
10
2165.001
20
-536.272
40
10.00
1
ANNOTATION: 
0
TEXT
8
1
10
2165.001
20
-525.272
40
10.00
1
QUANTITY: 1
0
TEXT
8
1
10
2165.001
20
-514.272
40
10.00
1
MATERIAL: KUMAS
0
ENDBLK
0
BLOCK
8
0
2
11
70
0
10
0.0000
20
0.0000
0
POLYLINE
8
1
66
1
70
1
0
VERTEX
8
1
10
1833.327
20
-1060.236
0
VERTEX
8
1
10
1788.167
20
-1033.501
0
VERTEX
8
1
10
1762.295
20
-1047.618
0
VERTEX
8
1
10
1722.732
20
-1070.051
0
VERTEX
8
1
10
1695.163
20
-1087.314
0
VERTEX
8
1
10
1690.373
20
-1090.538
0
VERTEX
8
1
10
1660.222
20
-1112.056
0
VERTEX
8
1
10
1597.882
20
-1160.1
0
VERTEX
8
1
10
1603.785
20
-1165.962
0
VERTEX
8
1
10
1608.781
20
-1173.188
0
VERTEX
8
1
10
1612.675
20
-1181.714
0
VERTEX
8
1
10
1615.339
20
-1191.544
0
VERTEX
8
1
10
1616.598
20
-1202.513
0
VERTEX
8
1
10
1675.098
20
-1157.171
0
VERTEX
8
1
10
1706.163
20
-1134.352
0
VERTEX
8
1
10
1731.355
20
-1117.646
0
VERTEX
8
1
10
1760.655
20
-1099.886
0
VERTEX
8
1
10
1797.624
20
-1079.596
0
VERTEX
8
1
10
1833.327
20
-1060.236
0
SEQEND
8
1
0
POINT
8
2
10
1833.327
20
-1060.236
0
TEXT
8
2
10
1833.327
20
-1060.236
40
10.00
1
#395
0
POINT
8
2
10
1788.167
20
-1033.501
0
TEXT
8
2
10
1788.167
20
-1033.501
40
10.00
1
#396
0
POINT
8
3
10
1762.295
20
-1047.618
0
POINT
8
3
10
1722.732
20
-1070.051
0
POINT
8
4
10
1695.163
20
-1087.314
30
10
50
303.448529171887
0
POINT
8
2
10
1695.163
20
-1087.314
0
TEXT
8
2
10
1695.163
20
-1087.314
40
10.00
1
#397
0
POINT
8
3
10
1690.373
20
-1090.538
0
POINT
8
3
10
1660.222
20
-1112.056
0
POINT
8
2
10
1597.882
20
-1160.1
0
TEXT
8
2
10
1597.882
20
-1160.1
40
10.00
1
#398
0
POINT
8
3
10
1603.785
20
-1165.962
0
POINT
8
3
10
1608.781
20
-1173.188
0
POINT
8
3
10
1612.675
20
-1181.714
0
POINT
8
3
10
1615.339
20
-1191.544
0
POINT
8
2
10
1616.598
20
-1202.513
0
TEXT
8
2
10
1616.598
20
-1202.513
40
10.00
1
#399
0
POINT
8
3
10
1675.098
20
-1157.171
0
POINT
8
3
10
1706.163
20
-1134.352
0
POINT
8
4
10
1731.355
20
-1117.646
30
10
50
121.841381191489
0
POINT
8
2
10
1731.355
20
-1117.646
0
TEXT
8
2
10
1731.355
20
-1117.646
40
10.00
1
#400
0
POINT
8
3
10
1760.655
20
-1099.886
0
POINT
8
2
10
1797.624
20
-1079.596
0
TEXT
8
2
10
1797.624
20
-1079.596
40
10.00
1
#401
0
POINT
8
2
10
1833.327
20
-1060.236
0
TEXT
8
2
10
1833.327
20
-1060.236
40
10.00
1
#395
0
LINE
8
7
10
1795.756
20
-1059.84
11
1778.483
21
-1059.84
0
POINT
8
2
10
1795.756
20
-1059.84
0
TEXT
8
2
10
1795.756
20
-1059.84
40
10.00
1
#1
0
POINT
8
2
10
1778.483
20
-1059.84
0
TEXT
8
2
10
1778.483
20
-1059.84
40
10.00
1
#1
0
TEXT
8
1
10
1778.483
20
-1048.84
40
10.00
1
PIECE NAME: ARKAKOLALLER
0
TEXT
8
1
10
1778.483
20
-1037.84
40
10.00
1
SIZE: 1
0
TEXT
8
1
10
1778.483
20
-1026.84
40
10.00
1
ANNOTATION: 
0
TEXT
8
1
10
1778.483
20
-1015.84
40
10.00
1
QUANTITY: 1
0
TEXT
8
1
10
1778.483
20
-1004.84
40
10.00
1
MATERIAL: KUMAS
0
ENDBLK
0
BLOCK
8
0
2
12
70
0
10
0.0000
20
0.0000
0
POLYLINE
8
1
66
1
70
1
0
VERTEX
8
1
10
1628.381
20
-1246.846
0
VERTEX
8
1
10
1632.702
20
-1251.375
0
VERTEX
8
1
10
1638.931
20
-1259.311
0
VERTEX
8
1
10
1642.539
20
-1266.228
0
VERTEX
8
1
10
1644.291
20
-1272.832
0
VERTEX
8
1
10
1644.582
20
-1274.903
0
VERTEX
8
1
10
1644.869
20
-1278.272
0
VERTEX
8
1
10
1646.113
20
-1292.826
0
VERTEX
8
1
10
1646.551
20
-1339.87
0
VERTEX
8
1
10
2041.551
20
-1339.871
0
VERTEX
8
1
10
2380.038
20
-1339.872
0
VERTEX
8
1
10
2397.717
20
-1379.872
0
VERTEX
8
1
10
2716.55
20
-1379.874
0
VERTEX
8
1
10
2716.55
20
-1329.872
0
VERTEX
8
1
10
2716.356
20
-1285.89
0
VERTEX
8
1
10
2714.534
20
-1175.136
0
VERTEX
8
1
10
2710.875
20
-1030.732
0
VERTEX
8
1
10
2451.096
20
-1037.192
0
VERTEX
8
1
10
2251.3
20
-1042.161
0
VERTEX
8
1
10
2071.356
20
-1046.636
0
VERTEX
8
1
10
2041.365
20
-1047.384
0
VERTEX
8
1
10
2011.375
20
-1048.129
0
VERTEX
8
1
10
1976.386
20
-1049
0
VERTEX
8
1
10
1926.448
20
-1050.24
0
VERTEX
8
1
10
1927.053
20
-1059.269
0
VERTEX
8
1
10
1926.042
20
-1068.33
0
VERTEX
8
1
10
1923.43
20
-1077.27
0
VERTEX
8
1
10
1919.272
20
-1085.789
0
VERTEX
8
1
10
1913.701
20
-1093.573
0
VERTEX
8
1
10
1906.948
20
-1100.282
0
VERTEX
8
1
10
1899.269
20
-1105.691
0
VERTEX
8
1
10
1888.195
20
-1112.166
0
VERTEX
8
1
10
1843.877
20
-1135.173
0
VERTEX
8
1
10
1818.666
20
-1120.247
0
VERTEX
8
1
10
1792.794
20
-1134.365
0
VERTEX
8
1
10
1753.231
20
-1156.798
0
VERTEX
8
1
10
1725.663
20
-1174.06
0
VERTEX
8
1
10
1720.872
20
-1177.284
0
VERTEX
8
1
10
1690.721
20
-1198.801
0
VERTEX
8
1
10
1628.381
20
-1246.846
0
SEQEND
8
1
0
POINT
8
2
10
1628.381
20
-1246.846
0
TEXT
8
2
10
1628.381
20
-1246.846
40
10.00
1
#405
0
POINT
8
3
10
1632.702
20
-1251.375
0
POINT
8
3
10
1638.931
20
-1259.311
0
POINT
8
3
10
1642.539
20
-1266.228
0
POINT
8
2
10
1644.291
20
-1272.832
0
TEXT
8
2
10
1644.291
20
-1272.832
40
10.00
1
#406
0
POINT
8
3
10
1644.582
20
-1274.903
0
POINT
8
4
10
1644.869
20
-1278.272
30
10
50
37.8141787999047
0
POINT
8
2
10
1644.869
20
-1278.272
0
TEXT
8
2
10
1644.869
20
-1278.272
40
10.00
1
#407
0
POINT
8
3
10
1646.113
20
-1292.826
0
POINT
8
2
10
1646.551
20
-1339.87
0
TEXT
8
2
10
1646.551
20
-1339.87
40
10.00
1
#408
0
POINT
8
2
10
2041.551
20
-1339.871
0
TEXT
8
2
10
2041.551
20
-1339.871
40
10.00
1
#409
0
POINT
8
2
10
2380.038
20
-1339.872
0
TEXT
8
2
10
2380.038
20
-1339.872
40
10.00
1
#410
0
POINT
8
2
10
2397.717
20
-1379.872
0
TEXT
8
2
10
2397.717
20
-1379.872
40
10.00
1
#411
0
POINT
8
2
10
2716.55
20
-1379.874
0
TEXT
8
2
10
2716.55
20
-1379.874
40
10.00
1
#412
0
POINT
8
4
10
2716.55
20
-1329.872
30
10
50
180
0
POINT
8
2
10
2716.55
20
-1329.872
0
TEXT
8
2
10
2716.55
20
-1329.872
40
10.00
1
#413
0
POINT
8
3
10
2716.356
20
-1285.89
0
POINT
8
3
10
2714.534
20
-1175.136
0
POINT
8
2
10
2710.875
20
-1030.732
0
TEXT
8
2
10
2710.875
20
-1030.732
40
10.00
1
#414
0
POINT
8
4
10
2451.096
20
-1037.192
30
10
50
271.426798033227
0
POINT
8
2
10
2451.096
20
-1037.192
0
TEXT
8
2
10
2451.096
20
-1037.192
40
10.00
1
#415
0
POINT
8
4
10
2251.3
20
-1042.161
30
10
50
271.426798033227
0
POINT
8
2
10
2251.3
20
-1042.161
0
TEXT
8
2
10
2251.3
20
-1042.161
40
10.00
1
#416
0
POINT
8
4
10
2071.356
20
-1046.636
30
10
50
271.426798033227
0
POINT
8
2
10
2071.356
20
-1046.636
0
TEXT
8
2
10
2071.356
20
-1046.636
40
10.00
1
#417
0
POINT
8
2
10
2041.365
20
-1047.384
0
TEXT
8
2
10
2041.365
20
-1047.384
40
10.00
1
#418
0
POINT
8
4
10
2011.375
20
-1048.129
30
10
50
271.421070275036
0
POINT
8
2
10
2011.375
20
-1048.129
0
TEXT
8
2
10
2011.375
20
-1048.129
40
10.00
1
#419
0
POINT
8
2
10
1976.386
20
-1049
0
TEXT
8
2
10
1976.386
20
-1049
40
10.00
1
#420
0
POINT
8
2
10
1926.448
20
-1050.24
0
TEXT
8
2
10
1926.448
20
-1050.24
40
10.00
1
#421
0
POINT
8
3
10
1927.053
20
-1059.269
0
POINT
8
3
10
1926.042
20
-1068.33
0
POINT
8
3
10
1923.43
20
-1077.27
0
POINT
8
3
10
1919.272
20
-1085.789
0
POINT
8
3
10
1913.701
20
-1093.573
0
POINT
8
3
10
1906.948
20
-1100.282
0
POINT
8
4
10
1899.269
20
-1105.691
30
10
50
302.100736396394
0
POINT
8
2
10
1899.269
20
-1105.691
0
TEXT
8
2
10
1899.269
20
-1105.691
40
10.00
1
#422
0
POINT
8
3
10
1888.195
20
-1112.166
0
POINT
8
2
10
1843.877
20
-1135.173
0
TEXT
8
2
10
1843.877
20
-1135.173
40
10.00
1
#423
0
POINT
8
2
10
1818.666
20
-1120.247
0
TEXT
8
2
10
1818.666
20
-1120.247
40
10.00
1
#424
0
POINT
8
3
10
1792.794
20
-1134.365
0
POINT
8
3
10
1753.231
20
-1156.798
0
POINT
8
4
10
1725.663
20
-1174.06
30
10
50
303.443748362717
0
POINT
8
2
10
1725.663
20
-1174.06
0
TEXT
8
2
10
1725.663
20
-1174.06
40
10.00
1
#425
0
POINT
8
3
10
1720.872
20
-1177.284
0
POINT
8
3
10
1690.721
20
-1198.801
0
POINT
8
2
10
1628.381
20
-1246.846
0
TEXT
8
2
10
1628.381
20
-1246.846
40
10.00
1
#405
0
LINE
8
7
10
2352.036
20
-1205.426
11
1997.522
21
-1205.426
0
POINT
8
2
10
2352.036
20
-1205.426
0
TEXT
8
2
10
2352.036
20
-1205.426
40
10.00
1
#1
0
POINT
8
2
10
1997.522
20
-1205.426
0
TEXT
8
2
10
1997.522
20
-1205.426
40
10.00
1
#1
0
TEXT
8
1
10
1997.522
20
-1194.426
40
10.00
1
PIECE NAME: ARKA
0
TEXT
8
1
10
1997.522
20
-1183.426
40
10.00
1
SIZE: 1
0
TEXT
8
1
10
1997.522
20
-1172.426
40
10.00
1
ANNOTATION: 
0
TEXT
8
1
10
1997.522
20
-1161.426
40
10.00
1
QUANTITY: 1
0
TEXT
8
1
10
1997.522
20
-1150.426
40
10.00
1
MATERIAL: KUMAS
0
ENDBLK
0
BLOCK
8
0
2
13
70
0
10
0.0000
20
0.0000
0
POLYLINE
8
1
66
1
70
1
0
VERTEX
8
1
10
1416.696
20
-544.703
0
VERTEX
8
1
10
1417.842
20
-573.017
0
VERTEX
8
1
10
1526.276
20
-640.633
0
VERTEX
8
1
10
1532.603
20
-619.786
0
VERTEX
8
1
10
1541.555
20
-585.715
0
VERTEX
8
1
10
1549.272
20
-549.932
0
VERTEX
8
1
10
1555.724
20
-512.27
0
VERTEX
8
1
10
1560.896
20
-472.382
0
VERTEX
8
1
10
1564.746
20
-429.887
0
VERTEX
8
1
10
1567.218
20
-384.228
0
VERTEX
8
1
10
1568.234
20
-334.555
0
VERTEX
8
1
10
1567.752
20
-302.423
0
VERTEX
8
1
10
1565.79
20
-255.297
0
VERTEX
8
1
10
1562.432
20
-211.679
0
VERTEX
8
1
10
1557.73
20
-170.84
0
VERTEX
8
1
10
1551.736
20
-132.405
0
VERTEX
8
1
10
1544.482
20
-96.029
0
VERTEX
8
1
10
1535.993
20
-61.458
0
VERTEX
8
1
10
1526.276
20
-28.478
0
VERTEX
8
1
10
1417.842
20
-96.094
0
VERTEX
8
1
10
1416.853
20
-112.573
0
VERTEX
8
1
10
1416.909
20
-135.334
0
VERTEX
8
1
10
1418.597
20
-158.942
0
VERTEX
8
1
10
1421.983
20
-183.381
0
VERTEX
8
1
10
1427.134
20
-208.662
0
VERTEX
8
1
10
1428.596
20
-209.385
0
VERTEX
8
1
10
1437.115
20
-214.625
0
VERTEX
8
1
10
1444.944
20
-221.348
0
VERTEX
8
1
10
1452.121
20
-229.685
0
VERTEX
8
1
10
1458.643
20
-239.827
0
VERTEX
8
1
10
1464.459
20
-251.995
0
VERTEX
8
1
10
1469.472
20
-266.426
0
VERTEX
8
1
10
1473.561
20
-283.396
0
VERTEX
8
1
10
1475.076
20
-292.171
0
VERTEX
8
1
10
1477.3
20
-312.207
0
VERTEX
8
1
10
1478.083
20
-334.555
0
VERTEX
8
1
10
1477.903
20
-345.363
0
VERTEX
8
1
10
1476.429
20
-366.558
0
VERTEX
8
1
10
1473.561
20
-385.715
0
VERTEX
8
1
10
1472.963
20
-388.661
0
VERTEX
8
1
10
1468.698
20
-405.243
0
VERTEX
8
1
10
1463.54
20
-419.293
0
VERTEX
8
1
10
1457.606
20
-431.106
0
VERTEX
8
1
10
1450.98
20
-440.93
0
VERTEX
8
1
10
1443.702
20
-448.981
0
VERTEX
8
1
10
1435.775
20
-455.442
0
VERTEX
8
1
10
1427.134
20
-460.449
0
VERTEX
8
1
10
1424.355
20
-473.242
0
VERTEX
8
1
10
1419.998
20
-498.649
0
VERTEX
8
1
10
1417.494
20
-522.359
0
VERTEX
8
1
10
1416.696
20
-544.703
0
SEQEND
8
1
0
POINT
8
2
10
1416.696
20
-544.703
0
TEXT
8
2
10
1416.696
20
-544.703
40
10.00
1
#434
0
POINT
8
2
10
1417.842
20
-573.017
0
TEXT
8
2
10
1417.842
20
-573.017
40
10.00
1
#435
0
POINT
8
2
10
1526.276
20
-640.633
0
TEXT
8
2
10
1526.276
20
-640.633
40
10.00
1
#436
0
POINT
8
3
10
1532.603
20
-619.786
0
POINT
8
3
10
1541.555
20
-585.715
0
POINT
8
3
10
1549.272
20
-549.932
0
POINT
8
3
10
1555.724
20
-512.27
0
POINT
8
3
10
1560.896
20
-472.382
0
POINT
8
3
10
1564.746
20
-429.887
0
POINT
8
3
10
1567.218
20
-384.228
0
POINT
8
4
10
1568.234
20
-334.555
30
10
50
180
0
POINT
8
2
10
1568.234
20
-334.555
0
TEXT
8
2
10
1568.234
20
-334.555
40
10.00
1
#437
0
POINT
8
3
10
1567.752
20
-302.423
0
POINT
8
3
10
1565.79
20
-255.297
0
POINT
8
3
10
1562.432
20
-211.679
0
POINT
8
3
10
1557.73
20
-170.84
0
POINT
8
3
10
1551.736
20
-132.405
0
POINT
8
3
10
1544.482
20
-96.029
0
POINT
8
3
10
1535.993
20
-61.458
0
POINT
8
2
10
1526.276
20
-28.478
0
TEXT
8
2
10
1526.276
20
-28.478
40
10.00
1
#438
0
POINT
8
2
10
1417.842
20
-96.094
0
TEXT
8
2
10
1417.842
20
-96.094
40
10.00
1
#439
0
POINT
8
3
10
1416.853
20
-112.573
0
POINT
8
3
10
1416.909
20
-135.334
0
POINT
8
3
10
1418.597
20
-158.942
0
POINT
8
3
10
1421.983
20
-183.381
0
POINT
8
2
10
1427.134
20
-208.662
0
TEXT
8
2
10
1427.134
20
-208.662
40
10.00
1
#440
0
POINT
8
3
10
1428.596
20
-209.385
0
POINT
8
3
10
1437.115
20
-214.625
0
POINT
8
3
10
1444.944
20
-221.348
0
POINT
8
3
10
1452.121
20
-229.685
0
POINT
8
3
10
1458.643
20
-239.827
0
POINT
8
3
10
1464.459
20
-251.995
0
POINT
8
3
10
1469.472
20
-266.426
0
POINT
8
4
10
1473.561
20
-283.396
30
10
50
10.9885418751309
0
POINT
8
2
10
1473.561
20
-283.396
0
TEXT
8
2
10
1473.561
20
-283.396
40
10.00
1
#441
0
POINT
8
3
10
1475.076
20
-292.171
0
POINT
8
3
10
1477.3
20
-312.207
0
POINT
8
4
10
1478.083
20
-334.555
30
10
50
0
0
POINT
8
2
10
1478.083
20
-334.555
0
TEXT
8
2
10
1478.083
20
-334.555
40
10.00
1
#442
0
POINT
8
3
10
1477.903
20
-345.363
0
POINT
8
3
10
1476.429
20
-366.558
0
POINT
8
4
10
1473.561
20
-385.715
30
10
50
349.011458124869
0
POINT
8
2
10
1473.561
20
-385.715
0
TEXT
8
2
10
1473.561
20
-385.715
40
10.00
1
#443
0
POINT
8
3
10
1472.963
20
-388.661
0
POINT
8
3
10
1468.698
20
-405.243
0
POINT
8
3
10
1463.54
20
-419.293
0
POINT
8
3
10
1457.606
20
-431.106
0
POINT
8
3
10
1450.98
20
-440.93
0
POINT
8
3
10
1443.702
20
-448.981
0
POINT
8
3
10
1435.775
20
-455.442
0
POINT
8
2
10
1427.134
20
-460.449
0
TEXT
8
2
10
1427.134
20
-460.449
40
10.00
1
#444
0
POINT
8
3
10
1424.355
20
-473.242
0
POINT
8
3
10
1419.998
20
-498.649
0
POINT
8
3
10
1417.494
20
-522.359
0
POINT
8
2
10
1416.696
20
-544.703
0
TEXT
8
2
10
1416.696
20
-544.703
40
10.00
1
#434
0
LINE
8
7
10
1514.387
20
-189.195
11
1470.54
21
-189.195
0
POINT
8
2
10
1514.387
20
-189.195
0
TEXT
8
2
10
1514.387
20
-189.195
40
10.00
1
#1
0
POINT
8
2
10
1470.54
20
-189.195
0
TEXT
8
2
10
1470.54
20
-189.195
40
10.00
1
#1
0
TEXT
8
1
10
1470.54
20
-178.195
40
10.00
1
PIECE NAME: YK
0
TEXT
8
1
10
1470.54
20
-167.195
40
10.00
1
SIZE: 1
0
TEXT
8
1
10
1470.54
20
-156.195
40
10.00
1
ANNOTATION: 
0
TEXT
8
1
10
1470.54
20
-145.195
40
10.00
1
QUANTITY: 1
0
TEXT
8
1
10
1470.54
20
-134.195
40
10.00
1
MATERIAL: KUMAS
0
ENDBLK
0
BLOCK
8
0
2
14
70
0
10
0.0000
20
0.0000
0
POLYLINE
8
1
66
1
70
1
0
VERTEX
8
1
10
1363.084
20
-485.701
0
VERTEX
8
1
10
1364.064
20
-485.339
0
VERTEX
8
1
10
1375.547
20
-480.18
0
VERTEX
8
1
10
1386.207
20
-473.646
0
VERTEX
8
1
10
1396.05
20
-465.725
0
VERTEX
8
1
10
1405.057
20
-456.399
0
VERTEX
8
1
10
1413.183
20
-445.646
0
VERTEX
8
1
10
1420.362
20
-433.432
0
VERTEX
8
1
10
1426.464
20
-419.812
0
VERTEX
8
1
10
1431.354
20
-404.903
0
VERTEX
8
1
10
1434.889
20
-388.9
0
VERTEX
8
1
10
1436.75
20
-377.923
0
VERTEX
8
1
10
1438.993
20
-356.995
0
VERTEX
8
1
10
1439.777
20
-333.927
0
VERTEX
8
1
10
1439.521
20
-320.666
0
VERTEX
8
1
10
1437.905
20
-298.853
0
VERTEX
8
1
10
1434.889
20
-278.956
0
VERTEX
8
1
10
1431.443
20
-263.742
0
VERTEX
8
1
10
1426.477
20
-248.192
0
VERTEX
8
1
10
1420.545
20
-234.632
0
VERTEX
8
1
10
1413.662
20
-222.735
0
VERTEX
8
1
10
1405.799
20
-212.258
0
VERTEX
8
1
10
1396.923
20
-203.062
0
VERTEX
8
1
10
1386.941
20
-195.021
0
VERTEX
8
1
10
1375.71
20
-188.055
0
VERTEX
8
1
10
1363.084
20
-182.153
0
VERTEX
8
1
10
1367.455
20
-201.889
0
VERTEX
8
1
10
1375.192
20
-233.148
0
VERTEX
8
1
10
1375.894
20
-235.766
0
VERTEX
8
1
10
1382.145
20
-262.389
0
VERTEX
8
1
10
1386.45
20
-287.476
0
VERTEX
8
1
10
1388.954
20
-311.254
0
VERTEX
8
1
10
1389.777
20
-333.927
0
VERTEX
8
1
10
1389.769
20
-336.052
0
VERTEX
8
1
10
1388.789
20
-358.814
0
VERTEX
8
1
10
1386.117
20
-382.718
0
VERTEX
8
1
10
1381.638
20
-407.92
0
VERTEX
8
1
10
1375.192
20
-434.706
0
VERTEX
8
1
10
1372.833
20
-443.538
0
VERTEX
8
1
10
1363.084
20
-485.701
0
SEQEND
8
1
0
POINT
8
2
10
1363.084
20
-485.701
0
TEXT
8
2
10
1363.084
20
-485.701
40
10.00
1
#449
0
POINT
8
3
10
1364.064
20
-485.339
0
POINT
8
3
10
1375.547
20
-480.18
0
POINT
8
3
10
1386.207
20
-473.646
0
POINT
8
3
10
1396.05
20
-465.725
0
POINT
8
3
10
1405.057
20
-456.399
0
POINT
8
3
10
1413.183
20
-445.646
0
POINT
8
3
10
1420.362
20
-433.432
0
POINT
8
3
10
1426.464
20
-419.812
0
POINT
8
3
10
1431.354
20
-404.903
0
POINT
8
4
10
1434.889
20
-388.9
30
10
50
169.012550220563
0
POINT
8
2
10
1434.889
20
-388.9
0
TEXT
8
2
10
1434.889
20
-388.9
40
10.00
1
#450
0
POINT
8
3
10
1436.75
20
-377.923
0
POINT
8
3
10
1438.993
20
-356.995
0
POINT
8
4
10
1439.777
20
-333.927
30
10
50
180
0
POINT
8
2
10
1439.777
20
-333.927
0
TEXT
8
2
10
1439.777
20
-333.927
40
10.00
1
#451
0
POINT
8
3
10
1439.521
20
-320.666
0
POINT
8
3
10
1437.905
20
-298.853
0
POINT
8
4
10
1434.889
20
-278.956
30
10
50
190.981825301326
0
POINT
8
2
10
1434.889
20
-278.956
0
TEXT
8
2
10
1434.889
20
-278.956
40
10.00
1
#452
0
POINT
8
3
10
1431.443
20
-263.742
0
POINT
8
3
10
1426.477
20
-248.192
0
POINT
8
3
10
1420.545
20
-234.632
0
POINT
8
3
10
1413.662
20
-222.735
0
POINT
8
3
10
1405.799
20
-212.258
0
POINT
8
3
10
1396.923
20
-203.062
0
POINT
8
3
10
1386.941
20
-195.021
0
POINT
8
3
10
1375.71
20
-188.055
0
POINT
8
2
10
1363.084
20
-182.153
0
TEXT
8
2
10
1363.084
20
-182.153
40
10.00
1
#453
0
POINT
8
3
10
1367.455
20
-201.889
0
POINT
8
4
10
1375.192
20
-233.148
30
10
50
15.166166560455
0
POINT
8
2
10
1375.192
20
-233.148
0
TEXT
8
2
10
1375.192
20
-233.148
40
10.00
1
#454
0
POINT
8
3
10
1375.894
20
-235.766
0
POINT
8
3
10
1382.145
20
-262.389
0
POINT
8
3
10
1386.45
20
-287.476
0
POINT
8
3
10
1388.954
20
-311.254
0
POINT
8
4
10
1389.777
20
-333.927
30
10
50
0
0
POINT
8
2
10
1389.777
20
-333.927
0
TEXT
8
2
10
1389.777
20
-333.927
40
10.00
1
#455
0
POINT
8
3
10
1389.769
20
-336.052
0
POINT
8
3
10
1388.789
20
-358.814
0
POINT
8
3
10
1386.117
20
-382.718
0
POINT
8
3
10
1381.638
20
-407.92
0
POINT
8
4
10
1375.192
20
-434.706
30
10
50
344.828303153224
0
POINT
8
2
10
1375.192
20
-434.706
0
TEXT
8
2
10
1375.192
20
-434.706
40
10.00
1
#456
0
POINT
8
3
10
1372.833
20
-443.538
0
POINT
8
2
10
1363.084
20
-485.701
0
TEXT
8
2
10
1363.084
20
-485.701
40
10.00
1
#449
0
LINE
8
7
10
1421.72
20
-342.081
11
1404.329
21
-342.081
0
POINT
8
2
10
1421.72
20
-342.081
0
TEXT
8
2
10
1421.72
20
-342.081
40
10.00
1
#1
0
POINT
8
2
10
1404.329
20
-342.081
0
TEXT
8
2
10
1404.329
20
-342.081
40
10.00
1
#1
0
TEXT
8
1
10
1404.329
20
-331.081
40
10.00
1
PIECE NAME: YKAYK
0
TEXT
8
1
10
1404.329
20
-320.081
40
10.00
1
SIZE: 1
0
TEXT
8
1
10
1404.329
20
-309.081
40
10.00
1
ANNOTATION: 
0
TEXT
8
1
10
1404.329
20
-298.081
40
10.00
1
QUANTITY: 1
0
TEXT
8
1
10
1404.329
20
-287.081
40
10.00
1
MATERIAL: KUMAS
0
ENDBLK
0
BLOCK
8
0
2
15
70
0
10
0.0000
20
0.0000
0
POLYLINE
8
1
66
1
70
1
0
VERTEX
8
1
10
2592.998
20
-716.504
0
VERTEX
8
1
10
2061.344
20
-716.509
0
VERTEX
8
1
10
2055.898
20
-716.339
0
VERTEX
8
1
10
2031.077
20
-716.566
0
VERTEX
8
1
10
2004.076
20
-718.489
0
VERTEX
8
1
10
1973.75
20
-722.364
0
VERTEX
8
1
10
1937.131
20
-728.848
0
VERTEX
8
1
10
1853.566
20
-746.81
0
VERTEX
8
1
10
1854.678
20
-749.96
0
VERTEX
8
1
10
1856.027
20
-757.201
0
VERTEX
8
1
10
1855.782
20
-764.642
0
VERTEX
8
1
10
1853.901
20
-772.238
0
VERTEX
8
1
10
1850.324
20
-779.824
0
VERTEX
8
1
10
1845.08
20
-787.099
0
VERTEX
8
1
10
1838.387
20
-793.623
0
VERTEX
8
1
10
1830.686
20
-798.921
0
VERTEX
8
1
10
1899.185
20
-826.012
0
VERTEX
8
1
10
1934.778
20
-841.15
0
VERTEX
8
1
10
1962.045
20
-854.321
0
VERTEX
8
1
10
1994.086
20
-872.028
0
VERTEX
8
1
10
2048.411
20
-903.78
0
VERTEX
8
1
10
2107.342
20
-939.731
0
VERTEX
8
1
10
2107.704
20
-939.944
0
VERTEX
8
1
10
2114.525
20
-944.915
0
VERTEX
8
1
10
2120.407
20
-951.193
0
VERTEX
8
1
10
2125.295
20
-958.797
0
VERTEX
8
1
10
2129.045
20
-967.671
0
VERTEX
8
1
10
2131.489
20
-977.666
0
VERTEX
8
1
10
2132.438
20
-988.397
0
VERTEX
8
1
10
2131.8
20
-999.282
0
VERTEX
8
1
10
2356.33
20
-953.416
0
VERTEX
8
1
10
2364.873
20
-953.815
0
VERTEX
8
1
10
2372.705
20
-950.071
0
VERTEX
8
1
10
2592.994
20
-905.07
0
VERTEX
8
1
10
2592.998
20
-716.504
0
SEQEND
8
1
0
POINT
8
2
10
2592.998
20
-716.504
0
TEXT
8
2
10
2592.998
20
-716.504
40
10.00
1
#463
0
POINT
8
4
10
2061.344
20
-716.509
30
10
50
270.080214038913
0
POINT
8
2
10
2061.344
20
-716.509
0
TEXT
8
2
10
2061.344
20
-716.509
40
10.00
1
#464
0
POINT
8
3
10
2055.898
20
-716.339
0
POINT
8
3
10
2031.077
20
-716.566
0
POINT
8
3
10
2004.076
20
-718.489
0
POINT
8
3
10
1973.75
20
-722.364
0
POINT
8
3
10
1937.131
20
-728.848
0
POINT
8
2
10
1853.566
20
-746.81
0
TEXT
8
2
10
1853.566
20
-746.81
40
10.00
1
#465
0
POINT
8
3
10
1854.678
20
-749.96
0
POINT
8
3
10
1856.027
20
-757.201
0
POINT
8
3
10
1855.782
20
-764.642
0
POINT
8
3
10
1853.901
20
-772.238
0
POINT
8
3
10
1850.324
20
-779.824
0
POINT
8
3
10
1845.08
20
-787.099
0
POINT
8
3
10
1838.387
20
-793.623
0
POINT
8
2
10
1830.686
20
-798.921
0
TEXT
8
2
10
1830.686
20
-798.921
40
10.00
1
#466
0
POINT
8
3
10
1899.185
20
-826.012
0
POINT
8
3
10
1934.778
20
-841.15
0
POINT
8
4
10
1962.045
20
-854.321
30
10
50
61.7023490231697
0
POINT
8
2
10
1962.045
20
-854.321
0
TEXT
8
2
10
1962.045
20
-854.321
40
10.00
1
#467
0
POINT
8
3
10
1994.086
20
-872.028
0
POINT
8
2
10
2048.411
20
-903.78
0
TEXT
8
2
10
2048.411
20
-903.78
40
10.00
1
#468
0
POINT
8
4
10
2107.342
20
-939.731
30
10
50
61.6794532146115
0
POINT
8
2
10
2107.342
20
-939.731
0
TEXT
8
2
10
2107.342
20
-939.731
40
10.00
1
#469
0
POINT
8
3
10
2107.704
20
-939.944
0
POINT
8
3
10
2114.525
20
-944.915
0
POINT
8
3
10
2120.407
20
-951.193
0
POINT
8
3
10
2125.295
20
-958.797
0
POINT
8
3
10
2129.045
20
-967.671
0
POINT
8
3
10
2131.489
20
-977.666
0
POINT
8
3
10
2132.438
20
-988.397
0
POINT
8
2
10
2131.8
20
-999.282
0
TEXT
8
2
10
2131.8
20
-999.282
40
10.00
1
#470
0
POINT
8
4
10
2356.33
20
-953.416
30
10
50
94.4277087536611
0
POINT
8
2
10
2356.33
20
-953.416
0
TEXT
8
2
10
2356.33
20
-953.416
40
10.00
1
#471
0
POINT
8
2
10
2364.873
20
-953.815
0
TEXT
8
2
10
2364.873
20
-953.815
40
10.00
1
#472
0
POINT
8
4
10
2372.705
20
-950.071
30
10
50
108.561789367323
0
POINT
8
2
10
2372.705
20
-950.071
0
TEXT
8
2
10
2372.705
20
-950.071
40
10.00
1
#473
0
POINT
8
2
10
2592.994
20
-905.07
0
TEXT
8
2
10
2592.994
20
-905.07
40
10.00
1
#474
0
POINT
8
2
10
2592.998
20
-716.504
0
TEXT
8
2
10
2592.998
20
-716.504
40
10.00
1
#463
0
LINE
8
7
10
2356.163
20
-839.112
11
2206.163
21
-839.112
0
POINT
8
2
10
2356.163
20
-839.112
0
TEXT
8
2
10
2356.163
20
-839.112
40
10.00
1
#1
0
POINT
8
2
10
2206.163
20
-839.112
0
TEXT
8
2
10
2206.163
20
-839.112
40
10.00
1
#1
0
TEXT
8
1
10
2206.163
20
-828.112
40
10.00
1
PIECE NAME: ARKAKOL
0
TEXT
8
1
10
2206.163
20
-817.112
40
10.00
1
SIZE: 1
0
TEXT
8
1
10
2206.163
20
-806.112
40
10.00
1
ANNOTATION: 
0
TEXT
8
1
10
2206.163
20
-795.112
40
10.00
1
QUANTITY: 1
0
TEXT
8
1
10
2206.163
20
-784.112
40
10.00
1
MATERIAL: KUMAS
0
ENDBLK
0
BLOCK
8
0
2
16
70
0
10
0.0000
20
0.0000
0
POLYLINE
8
1
66
1
70
1
0
VERTEX
8
1
10
2592.994
20
-810.552
0
VERTEX
8
1
10
2372.705
20
-765.551
0
VERTEX
8
1
10
2364.873
20
-761.807
0
VERTEX
8
1
10
2356.33
20
-762.206
0
VERTEX
8
1
10
2131.8
20
-716.34
0
VERTEX
8
1
10
2132.438
20
-727.225
0
VERTEX
8
1
10
2131.489
20
-737.956
0
VERTEX
8
1
10
2129.045
20
-747.951
0
VERTEX
8
1
10
2125.295
20
-756.825
0
VERTEX
8
1
10
2120.407
20
-764.429
0
VERTEX
8
1
10
2114.525
20
-770.707
0
VERTEX
8
1
10
2107.704
20
-775.678
0
VERTEX
8
1
10
2107.342
20
-775.891
0
VERTEX
8
1
10
2048.411
20
-811.842
0
VERTEX
8
1
10
1994.086
20
-843.594
0
VERTEX
8
1
10
1962.045
20
-861.301
0
VERTEX
8
1
10
1934.778
20
-874.472
0
VERTEX
8
1
10
1899.185
20
-889.61
0
VERTEX
8
1
10
1830.686
20
-916.701
0
VERTEX
8
1
10
1838.387
20
-921.999
0
VERTEX
8
1
10
1845.08
20
-928.523
0
VERTEX
8
1
10
1850.324
20
-935.798
0
VERTEX
8
1
10
1853.901
20
-943.384
0
VERTEX
8
1
10
1855.782
20
-950.98
0
VERTEX
8
1
10
1856.027
20
-958.421
0
VERTEX
8
1
10
1854.678
20
-965.662
0
VERTEX
8
1
10
1853.566
20
-968.812
0
VERTEX
8
1
10
1937.131
20
-986.774
0
VERTEX
8
1
10
1973.75
20
-993.258
0
VERTEX
8
1
10
2004.076
20
-997.133
0
VERTEX
8
1
10
2031.077
20
-999.056
0
VERTEX
8
1
10
2055.898
20
-999.283
0
VERTEX
8
1
10
2061.344
20
-999.113
0
VERTEX
8
1
10
2592.998
20
-999.118
0
VERTEX
8
1
10
2592.994
20
-810.552
0
SEQEND
8
1
0
POINT
8
2
10
2592.994
20
-810.552
0
TEXT
8
2
10
2592.994
20
-810.552
40
10.00
1
#183
0
POINT
8
4
10
2372.705
20
-765.551
30
10
50
251.438210632677
0
POINT
8
2
10
2372.705
20
-765.551
0
TEXT
8
2
10
2372.705
20
-765.551
40
10.00
1
#184
0
POINT
8
2
10
2364.873
20
-761.807
0
TEXT
8
2
10
2364.873
20
-761.807
40
10.00
1
#185
0
POINT
8
4
10
2356.33
20
-762.206
30
10
50
265.572291246339
0
POINT
8
2
10
2356.33
20
-762.206
0
TEXT
8
2
10
2356.33
20
-762.206
40
10.00
1
#186
0
POINT
8
2
10
2131.8
20
-716.34
0
TEXT
8
2
10
2131.8
20
-716.34
40
10.00
1
#187
0
POINT
8
3
10
2132.438
20
-727.225
0
POINT
8
3
10
2131.489
20
-737.956
0
POINT
8
3
10
2129.045
20
-747.951
0
POINT
8
3
10
2125.295
20
-756.825
0
POINT
8
3
10
2120.407
20
-764.429
0
POINT
8
3
10
2114.525
20
-770.707
0
POINT
8
3
10
2107.704
20
-775.678
0
POINT
8
4
10
2107.342
20
-775.891
30
10
50
298.320546785389
0
POINT
8
2
10
2107.342
20
-775.891
0
TEXT
8
2
10
2107.342
20
-775.891
40
10.00
1
#188
0
POINT
8
2
10
2048.411
20
-811.842
0
TEXT
8
2
10
2048.411
20
-811.842
40
10.00
1
#189
0
POINT
8
3
10
1994.086
20
-843.594
0
POINT
8
4
10
1962.045
20
-861.301
30
10
50
298.29765097683
0
POINT
8
2
10
1962.045
20
-861.301
0
TEXT
8
2
10
1962.045
20
-861.301
40
10.00
1
#190
0
POINT
8
3
10
1934.778
20
-874.472
0
POINT
8
3
10
1899.185
20
-889.61
0
POINT
8
2
10
1830.686
20
-916.701
0
TEXT
8
2
10
1830.686
20
-916.701
40
10.00
1
#191
0
POINT
8
3
10
1838.387
20
-921.999
0
POINT
8
3
10
1845.08
20
-928.523
0
POINT
8
3
10
1850.324
20
-935.798
0
POINT
8
3
10
1853.901
20
-943.384
0
POINT
8
3
10
1855.782
20
-950.98
0
POINT
8
3
10
1856.027
20
-958.421
0
POINT
8
3
10
1854.678
20
-965.662
0
POINT
8
2
10
1853.566
20
-968.812
0
TEXT
8
2
10
1853.566
20
-968.812
40
10.00
1
#192
0
POINT
8
3
10
1937.131
20
-986.774
0
POINT
8
3
10
1973.75
20
-993.258
0
POINT
8
3
10
2004.076
20
-997.133
0
POINT
8
3
10
2031.077
20
-999.056
0
POINT
8
3
10
2055.898
20
-999.283
0
POINT
8
4
10
2061.344
20
-999.113
30
10
50
89.9197859610875
0
POINT
8
2
10
2061.344
20
-999.113
0
TEXT
8
2
10
2061.344
20
-999.113
40
10.00
1
#193
0
POINT
8
2
10
2592.998
20
-999.118
0
TEXT
8
2
10
2592.998
20
-999.118
40
10.00
1
#194
0
POINT
8
2
10
2592.994
20
-810.552
0
TEXT
8
2
10
2592.994
20
-810.552
40
10.00
1
#183
0
LINE
8
7
10
2356.163
20
-876.51
11
2206.163
21
-876.51
0
POINT
8
2
10
2356.163
20
-876.51
0
TEXT
8
2
10
2356.163
20
-876.51
40
10.00
1
#1
0
POINT
8
2
10
2206.163
20
-876.51
0
TEXT
8
2
10
2206.163
20
-876.51
40
10.00
1
#1
0
TEXT
8
1
10
2206.163
20
-865.51
40
10.00
1
PIECE NAME: ARKAKOLFY1
0
TEXT
8
1
10
2206.163
20
-854.51
40
10.00
1
SIZE: 1
0
TEXT
8
1
10
2206.163
20
-843.51
40
10.00
1
ANNOTATION: 
0
TEXT
8
1
10
2206.163
20
-832.51
40
10.00
1
QUANTITY: 1
0
TEXT
8
1
10
2206.163
20
-821.51
40
10.00
1
MATERIAL: KUMAS
0
ENDBLK
0
BLOCK
8
0
2
17
70
0
10
0.0000
20
0.0000
0
POLYLINE
8
1
66
1
70
1
0
VERTEX
8
1
10
1215.076
20
-1183.078
0
VERTEX
8
1
10
1241.031
20
-1203.23
0
VERTEX
8
1
10
1283.756
20
-1235.807
0
VERTEX
8
1
10
1312.359
20
-1255.865
0
VERTEX
8
1
10
1320.384
20
-1261.09
0
VERTEX
8
1
10
1350.39
20
-1279.259
0
VERTEX
8
1
10
1405.362
20
-1309.679
0
VERTEX
8
1
10
1430.581
20
-1294.75
0
VERTEX
8
1
10
1465.781
20
-1312.829
0
VERTEX
8
1
10
1485.984
20
-1324.25
0
VERTEX
8
1
10
1493.689
20
-1329.665
0
VERTEX
8
1
10
1500.405
20
-1336.348
0
VERTEX
8
1
10
1505.95
20
-1344.107
0
VERTEX
8
1
10
1510.101
20
-1352.637
0
VERTEX
8
1
10
1512.714
20
-1361.605
0
VERTEX
8
1
10
1513.729
20
-1370.702
0
VERTEX
8
1
10
1513.143
20
-1379.687
0
VERTEX
8
1
10
1573.33
20
-1381.183
0
VERTEX
8
1
10
1573.332
20
-1100.057
0
VERTEX
8
1
10
1573.332
20
-818.929
0
VERTEX
8
1
10
1513.144
20
-820.425
0
VERTEX
8
1
10
1513.75
20
-829.455
0
VERTEX
8
1
10
1512.74
20
-838.515
0
VERTEX
8
1
10
1510.126
20
-847.456
0
VERTEX
8
1
10
1505.97
20
-855.975
0
VERTEX
8
1
10
1500.397
20
-863.758
0
VERTEX
8
1
10
1493.644
20
-870.467
0
VERTEX
8
1
10
1485.966
20
-875.875
0
VERTEX
8
1
10
1474.893
20
-882.351
0
VERTEX
8
1
10
1430.574
20
-905.357
0
VERTEX
8
1
10
1405.363
20
-890.432
0
VERTEX
8
1
10
1379.49
20
-904.549
0
VERTEX
8
1
10
1339.929
20
-926.982
0
VERTEX
8
1
10
1312.36
20
-944.245
0
VERTEX
8
1
10
1307.568
20
-947.469
0
VERTEX
8
1
10
1277.419
20
-968.986
0
VERTEX
8
1
10
1215.077
20
-1017.031
0
VERTEX
8
1
10
1219.4
20
-1021.559
0
VERTEX
8
1
10
1225.627
20
-1029.497
0
VERTEX
8
1
10
1229.237
20
-1036.413
0
VERTEX
8
1
10
1230.988
20
-1043.018
0
VERTEX
8
1
10
1231.157
20
-1044.194
0
VERTEX
8
1
10
1231.545
20
-1048.464
0
VERTEX
8
1
10
1232.747
20
-1061.699
0
VERTEX
8
1
10
1233.248
20
-1100.055
0
VERTEX
8
1
10
1233.208
20
-1111.127
0
VERTEX
8
1
10
1232.688
20
-1139.582
0
VERTEX
8
1
10
1231.513
20
-1151.677
0
VERTEX
8
1
10
1230.988
20
-1157.095
0
VERTEX
8
1
10
1230.423
20
-1160.005
0
VERTEX
8
1
10
1227.905
20
-1166.691
0
VERTEX
8
1
10
1223.306
20
-1173.897
0
VERTEX
8
1
10
1215.076
20
-1183.078
0
SEQEND
8
1
0
POINT
8
2
10
1215.076
20
-1183.078
0
TEXT
8
2
10
1215.076
20
-1183.078
40
10.00
1
#480
0
POINT
8
3
10
1241.031
20
-1203.23
0
POINT
8
3
10
1283.756
20
-1235.807
0
POINT
8
4
10
1312.359
20
-1255.865
30
10
50
56.5530935967396
0
POINT
8
2
10
1312.359
20
-1255.865
0
TEXT
8
2
10
1312.359
20
-1255.865
40
10.00
1
#481
0
POINT
8
3
10
1320.384
20
-1261.09
0
POINT
8
3
10
1350.39
20
-1279.259
0
POINT
8
2
10
1405.362
20
-1309.679
0
TEXT
8
2
10
1405.362
20
-1309.679
40
10.00
1
#482
0
POINT
8
2
10
1430.581
20
-1294.75
0
TEXT
8
2
10
1430.581
20
-1294.75
40
10.00
1
#483
0
POINT
8
3
10
1465.781
20
-1312.829
0
POINT
8
4
10
1485.984
20
-1324.25
30
10
50
57.8786126903051
0
POINT
8
2
10
1485.984
20
-1324.25
0
TEXT
8
2
10
1485.984
20
-1324.25
40
10.00
1
#484
0
POINT
8
3
10
1493.689
20
-1329.665
0
POINT
8
3
10
1500.405
20
-1336.348
0
POINT
8
3
10
1505.95
20
-1344.107
0
POINT
8
3
10
1510.101
20
-1352.637
0
POINT
8
3
10
1512.714
20
-1361.605
0
POINT
8
3
10
1513.729
20
-1370.702
0
POINT
8
2
10
1513.143
20
-1379.687
0
TEXT
8
2
10
1513.143
20
-1379.687
40
10.00
1
#485
0
POINT
8
2
10
1573.33
20
-1381.183
0
TEXT
8
2
10
1573.33
20
-1381.183
40
10.00
1
#486
0
POINT
8
4
10
1573.332
20
-1100.057
30
10
50
180
0
POINT
8
2
10
1573.332
20
-1100.057
0
TEXT
8
2
10
1573.332
20
-1100.057
40
10.00
1
#487
0
POINT
8
2
10
1573.332
20
-818.929
0
TEXT
8
2
10
1573.332
20
-818.929
40
10.00
1
#488
0
POINT
8
2
10
1513.144
20
-820.425
0
TEXT
8
2
10
1513.144
20
-820.425
40
10.00
1
#489
0
POINT
8
3
10
1513.75
20
-829.455
0
POINT
8
3
10
1512.74
20
-838.515
0
POINT
8
3
10
1510.126
20
-847.456
0
POINT
8
3
10
1505.97
20
-855.975
0
POINT
8
3
10
1500.397
20
-863.758
0
POINT
8
3
10
1493.644
20
-870.467
0
POINT
8
4
10
1485.966
20
-875.875
30
10
50
302.0976918481
0
POINT
8
2
10
1485.966
20
-875.875
0
TEXT
8
2
10
1485.966
20
-875.875
40
10.00
1
#490
0
POINT
8
3
10
1474.893
20
-882.351
0
POINT
8
2
10
1430.574
20
-905.357
0
TEXT
8
2
10
1430.574
20
-905.357
40
10.00
1
#491
0
POINT
8
2
10
1405.363
20
-890.432
0
TEXT
8
2
10
1405.363
20
-890.432
40
10.00
1
#492
0
POINT
8
3
10
1379.49
20
-904.549
0
POINT
8
3
10
1339.929
20
-926.982
0
POINT
8
4
10
1312.36
20
-944.245
30
10
50
303.443748362718
0
POINT
8
2
10
1312.36
20
-944.245
0
TEXT
8
2
10
1312.36
20
-944.245
40
10.00
1
#493
0
POINT
8
3
10
1307.568
20
-947.469
0
POINT
8
3
10
1277.419
20
-968.986
0
POINT
8
2
10
1215.077
20
-1017.031
0
TEXT
8
2
10
1215.077
20
-1017.031
40
10.00
1
#494
0
POINT
8
3
10
1219.4
20
-1021.559
0
POINT
8
3
10
1225.627
20
-1029.497
0
POINT
8
3
10
1229.237
20
-1036.413
0
POINT
8
2
10
1230.988
20
-1043.018
0
TEXT
8
2
10
1230.988
20
-1043.018
40
10.00
1
#495
0
POINT
8
3
10
1231.157
20
-1044.194
0
POINT
8
4
10
1231.545
20
-1048.464
30
10
50
37.8141787999055
0
POINT
8
2
10
1231.545
20
-1048.464
0
TEXT
8
2
10
1231.545
20
-1048.464
40
10.00
1
#496
0
POINT
8
3
10
1232.747
20
-1061.699
0
POINT
8
4
10
1233.248
20
-1100.055
30
10
50
0
0
POINT
8
2
10
1233.248
20
-1100.055
0
TEXT
8
2
10
1233.248
20
-1100.055
40
10.00
1
#497
0
POINT
8
3
10
1233.208
20
-1111.127
0
POINT
8
3
10
1232.688
20
-1139.582
0
POINT
8
4
10
1231.513
20
-1151.677
30
10
50
322.185821200094
0
POINT
8
2
10
1231.513
20
-1151.677
0
TEXT
8
2
10
1231.513
20
-1151.677
40
10.00
1
#498
0
POINT
8
2
10
1230.988
20
-1157.095
0
TEXT
8
2
10
1230.988
20
-1157.095
40
10.00
1
#499
0
POINT
8
3
10
1230.423
20
-1160.005
0
POINT
8
3
10
1227.905
20
-1166.691
0
POINT
8
3
10
1223.306
20
-1173.897
0
POINT
8
2
10
1215.076
20
-1183.078
0
TEXT
8
2
10
1215.076
20
-1183.078
40
10.00
1
#480
0
LINE
8
7
10
1472.256
20
-1047.386
11
1361.048
21
-1047.386
0
POINT
8
2
10
1472.256
20
-1047.386
0
TEXT
8
2
10
1472.256
20
-1047.386
40
10.00
1
#1
0
POINT
8
2
10
1361.048
20
-1047.386
0
TEXT
8
2
10
1361.048
20
-1047.386
40
10.00
1
#1
0
TEXT
8
1
10
1361.048
20
-1036.386
40
10.00
1
PIECE NAME: ARKARZGRLK
0
TEXT
8
1
10
1361.048
20
-1025.386
40
10.00
1
SIZE: 1
0
TEXT
8
1
10
1361.048
20
-1014.386
40
10.00
1
ANNOTATION: 
0
TEXT
8
1
10
1361.048
20
-1003.386
40
10.00
1
QUANTITY: 1
0
TEXT
8
1
10
1361.048
20
-992.386
40
10.00
1
MATERIAL: KUMAS
0
ENDBLK
0
BLOCK
8
0
2
18
70
0
10
0.0000
20
0.0000
0
POLYLINE
8
1
66
1
70
1
0
VERTEX
8
1
10
-3.139
20
-1052.24
0
VERTEX
8
1
10
-5.318
20
-1053.26
0
VERTEX
8
1
10
-7.665
20
-1054.358
0
VERTEX
8
1
10
-12.893
20
-1056.379
0
VERTEX
8
1
10
-18.822
20
-1058.23
0
VERTEX
8
1
10
-25.8
20
-1059.956
0
VERTEX
8
1
10
-41.663
20
-1063.442
0
VERTEX
8
1
10
-31.408
20
-1076.038
0
VERTEX
8
1
10
-21.057
20
-1088.545
0
VERTEX
8
1
10
-14.6
20
-1095.63
0
VERTEX
8
1
10
-7.002
20
-1103.386
0
VERTEX
8
1
10
1.637
20
-1111.656
0
VERTEX
8
1
10
11.767
20
-1120.797
0
VERTEX
8
1
10
22.947
20
-1130.336
0
VERTEX
8
1
10
34.76
20
-1139.905
0
VERTEX
8
1
10
42.775
20
-1146.139
0
VERTEX
8
1
10
58.659
20
-1157.931
0
VERTEX
8
1
10
71.263
20
-1166.788
0
VERTEX
8
1
10
84.446
20
-1175.593
0
VERTEX
8
1
10
97.32
20
-1183.722
0
VERTEX
8
1
10
109.206
20
-1190.793
0
VERTEX
8
1
10
120.507
20
-1197.088
0
VERTEX
8
1
10
131.089
20
-1202.553
0
VERTEX
8
1
10
145.502
20
-1209.269
0
VERTEX
8
1
10
170.45
20
-1192.018
0
VERTEX
8
1
10
175.569
20
-1194.359
0
VERTEX
8
1
10
180.115
20
-1196.855
0
VERTEX
8
1
10
184.511
20
-1199.691
0
VERTEX
8
1
10
188.737
20
-1202.871
0
VERTEX
8
1
10
192.761
20
-1206.388
0
VERTEX
8
1
10
196.515
20
-1210.186
0
VERTEX
8
1
10
200.012
20
-1214.281
0
VERTEX
8
1
10
203.106
20
-1218.48
0
VERTEX
8
1
10
206.05
20
-1223.393
0
VERTEX
8
1
10
207.755
20
-1227.116
0
VERTEX
8
1
10
209.078
20
-1230.936
0
VERTEX
8
1
10
210.059
20
-1235.004
0
VERTEX
8
1
10
210.697
20
-1239.397
0
VERTEX
8
1
10
210.993
20
-1244.297
0
VERTEX
8
1
10
210.923
20
-1250.178
0
VERTEX
8
1
10
210.504
20
-1260.335
0
VERTEX
8
1
10
295.641
20
-1262.452
0
VERTEX
8
1
10
325.632
20
-1263.199
0
VERTEX
8
1
10
355.623
20
-1263.944
0
VERTEX
8
1
10
535.568
20
-1268.421
0
VERTEX
8
1
10
659.256
20
-1271.497
0
VERTEX
8
1
10
659.256
20
-950.709
0
VERTEX
8
1
10
28.089
20
-950.709
0
VERTEX
8
1
10
28.089
20
-980.754
0
VERTEX
8
1
10
28.068
20
-985.127
0
VERTEX
8
1
10
27.747
20
-992.442
0
VERTEX
8
1
10
27.07
20
-999.495
0
VERTEX
8
1
10
26.13
20
-1005.717
0
VERTEX
8
1
10
24.819
20
-1011.947
0
VERTEX
8
1
10
23.293
20
-1017.471
0
VERTEX
8
1
10
21.609
20
-1022.351
0
VERTEX
8
1
10
19.675
20
-1026.953
0
VERTEX
8
1
10
17.581
20
-1031.106
0
VERTEX
8
1
10
15.216
20
-1035.054
0
VERTEX
8
1
10
12.612
20
-1038.718
0
VERTEX
8
1
10
9.825
20
-1042.038
0
VERTEX
8
1
10
6.924
20
-1044.97
0
VERTEX
8
1
10
3.532
20
-1047.858
0
VERTEX
8
1
10
0.094
20
-1050.307
0
VERTEX
8
1
10
-3.139
20
-1052.24
0
SEQEND
8
1
0
POINT
8
2
10
-3.139
20
-1052.24
0
TEXT
8
2
10
-3.139
20
-1052.24
40
10.00
1
#508
0
POINT
8
4
10
-5.318
20
-1053.26
30
10
50
311.27378883127
0
POINT
8
2
10
-5.318
20
-1053.26
0
TEXT
8
2
10
-5.318
20
-1053.26
40
10.00
1
#509
0
POINT
8
3
10
-7.665
20
-1054.358
0
POINT
8
3
10
-12.893
20
-1056.379
0
POINT
8
3
10
-18.822
20
-1058.23
0
POINT
8
3
10
-25.8
20
-1059.956
0
POINT
8
2
10
-41.663
20
-1063.442
0
TEXT
8
2
10
-41.663
20
-1063.442
40
10.00
1
#510
0
POINT
8
3
10
-31.408
20
-1076.038
0
POINT
8
3
10
-21.057
20
-1088.545
0
POINT
8
3
10
-14.6
20
-1095.63
0
POINT
8
3
10
-7.002
20
-1103.386
0
POINT
8
3
10
1.637
20
-1111.656
0
POINT
8
3
10
11.767
20
-1120.797
0
POINT
8
3
10
22.947
20
-1130.336
0
POINT
8
4
10
34.76
20
-1139.905
30
10
50
51.6677051291441
0
POINT
8
2
10
34.76
20
-1139.905
0
TEXT
8
2
10
34.76
20
-1139.905
40
10.00
1
#511
0
POINT
8
4
10
42.775
20
-1146.139
30
10
50
52.5662624227154
0
POINT
8
2
10
42.775
20
-1146.139
0
TEXT
8
2
10
42.775
20
-1146.139
40
10.00
1
#512
0
POINT
8
3
10
58.659
20
-1157.931
0
POINT
8
3
10
71.263
20
-1166.788
0
POINT
8
3
10
84.446
20
-1175.593
0
POINT
8
3
10
97.32
20
-1183.722
0
POINT
8
3
10
109.206
20
-1190.793
0
POINT
8
3
10
120.507
20
-1197.088
0
POINT
8
3
10
131.089
20
-1202.553
0
POINT
8
2
10
145.502
20
-1209.269
0
TEXT
8
2
10
145.502
20
-1209.269
40
10.00
1
#513
0
POINT
8
2
10
170.45
20
-1192.018
0
TEXT
8
2
10
170.45
20
-1192.018
40
10.00
1
#514
0
POINT
8
3
10
175.569
20
-1194.359
0
POINT
8
3
10
180.115
20
-1196.855
0
POINT
8
3
10
184.511
20
-1199.691
0
POINT
8
3
10
188.737
20
-1202.871
0
POINT
8
3
10
192.761
20
-1206.388
0
POINT
8
3
10
196.515
20
-1210.186
0
POINT
8
3
10
200.012
20
-1214.281
0
POINT
8
4
10
203.106
20
-1218.48
30
10
50
34.3654129308858
0
POINT
8
2
10
203.106
20
-1218.48
0
TEXT
8
2
10
203.106
20
-1218.48
40
10.00
1
#515
0
POINT
8
3
10
206.05
20
-1223.393
0
POINT
8
3
10
207.755
20
-1227.116
0
POINT
8
3
10
209.078
20
-1230.936
0
POINT
8
3
10
210.059
20
-1235.004
0
POINT
8
3
10
210.697
20
-1239.397
0
POINT
8
3
10
210.993
20
-1244.297
0
POINT
8
3
10
210.923
20
-1250.178
0
POINT
8
2
10
210.504
20
-1260.335
0
TEXT
8
2
10
210.504
20
-1260.335
40
10.00
1
#516
0
POINT
8
4
10
295.641
20
-1262.452
30
10
50
88.5730592888851
0
POINT
8
2
10
295.641
20
-1262.452
0
TEXT
8
2
10
295.641
20
-1262.452
40
10.00
1
#517
0
POINT
8
2
10
325.632
20
-1263.199
0
TEXT
8
2
10
325.632
20
-1263.199
40
10.00
1
#518
0
POINT
8
4
10
355.623
20
-1263.944
30
10
50
88.5730592888847
0
POINT
8
2
10
355.623
20
-1263.944
0
TEXT
8
2
10
355.623
20
-1263.944
40
10.00
1
#519
0
POINT
8
4
10
535.568
20
-1268.421
30
10
50
88.5789297249643
0
POINT
8
2
10
535.568
20
-1268.421
0
TEXT
8
2
10
535.568
20
-1268.421
40
10.00
1
#520
0
POINT
8
2
10
659.256
20
-1271.497
0
TEXT
8
2
10
659.256
20
-1271.497
40
10.00
1
#521
0
POINT
8
2
10
659.256
20
-950.709
0
TEXT
8
2
10
659.256
20
-950.709
40
10.00
1
#522
0
POINT
8
2
10
28.089
20
-950.709
0
TEXT
8
2
10
28.089
20
-950.709
40
10.00
1
#523
0
POINT
8
4
10
28.089
20
-980.754
30
10
50
0
0
POINT
8
2
10
28.089
20
-980.754
0
TEXT
8
2
10
28.089
20
-980.754
40
10.00
1
#524
0
POINT
8
3
10
28.068
20
-985.127
0
POINT
8
3
10
27.747
20
-992.442
0
POINT
8
3
10
27.07
20
-999.495
0
POINT
8
3
10
26.13
20
-1005.717
0
POINT
8
3
10
24.819
20
-1011.947
0
POINT
8
3
10
23.293
20
-1017.471
0
POINT
8
3
10
21.609
20
-1022.351
0
POINT
8
3
10
19.675
20
-1026.953
0
POINT
8
3
10
17.581
20
-1031.106
0
POINT
8
3
10
15.216
20
-1035.054
0
POINT
8
3
10
12.612
20
-1038.718
0
POINT
8
3
10
9.825
20
-1042.038
0
POINT
8
3
10
6.924
20
-1044.97
0
POINT
8
3
10
3.532
20
-1047.858
0
POINT
8
3
10
0.094
20
-1050.307
0
POINT
8
2
10
-3.139
20
-1052.24
0
TEXT
8
2
10
-3.139
20
-1052.24
40
10.00
1
#508
0
POLYLINE
8
8
66
1
70
1
0
VERTEX
8
8
10
426.948
20
-1172.463
0
VERTEX
8
8
10
584.583
20
-1199.874
0
VERTEX
8
8
10
589.723
20
-1170.317
0
VERTEX
8
8
10
432.088
20
-1142.908
0
VERTEX
8
8
10
426.948
20
-1172.463
0
SEQEND
8
8
0
POINT
8
2
10
426.948
20
-1172.463
0
TEXT
8
2
10
426.948
20
-1172.463
40
10.00
1
#525
0
POINT
8
2
10
584.583
20
-1199.874
0
TEXT
8
2
10
584.583
20
-1199.874
40
10.00
1
#526
0
POINT
8
2
10
589.723
20
-1170.317
0
TEXT
8
2
10
589.723
20
-1170.317
40
10.00
1
#527
0
POINT
8
2
10
432.088
20
-1142.908
0
TEXT
8
2
10
432.088
20
-1142.908
40
10.00
1
#528
0
LINE
8
7
10
424.952
20
-1110.978
11
200.649
21
-1110.977
0
POINT
8
2
10
424.952
20
-1110.978
0
TEXT
8
2
10
424.952
20
-1110.978
40
10.00
1
#1
0
POINT
8
2
10
200.649
20
-1110.977
0
TEXT
8
2
10
200.649
20
-1110.977
40
10.00
1
#1
0
TEXT
8
1
10
200.649
20
-1099.977
40
10.00
1
PIECE NAME: ONCZ
0
TEXT
8
1
10
200.649
20
-1088.977
40
10.00
1
SIZE: 1
0
TEXT
8
1
10
200.649
20
-1077.977
40
10.00
1
ANNOTATION: 
0
TEXT
8
1
10
200.649
20
-1066.977
40
10.00
1
QUANTITY: 1
0
TEXT
8
1
10
200.649
20
-1055.977
40
10.00
1
MATERIAL: ÇÝZÝM
0
ENDBLK
0
BLOCK
8
0
2
19
70
0
10
0.0000
20
0.0000
0
POLYLINE
8
1
66
1
70
1
0
VERTEX
8
1
10
537.668
20
-254.889
0
VERTEX
8
1
10
497.667
20
-254.89
0
VERTEX
8
1
10
-23.984
20
-254.894
0
VERTEX
8
1
10
-33.899
20
-254.643
0
VERTEX
8
1
10
-44.096
20
-254.666
0
VERTEX
8
1
10
-56.288
20
-255.039
0
VERTEX
8
1
10
-68.955
20
-255.799
0
VERTEX
8
1
10
-81.516
20
-256.899
0
VERTEX
8
1
10
-96.087
20
-258.566
0
VERTEX
8
1
10
-110.902
20
-260.644
0
VERTEX
8
1
10
-126.788
20
-263.241
0
VERTEX
8
1
10
-145.511
20
-266.708
0
VERTEX
8
1
10
-167.562
20
-271.208
0
VERTEX
8
1
10
-231.763
20
-285.195
0
VERTEX
8
1
10
-229.868
20
-294.83
0
VERTEX
8
1
10
-229.451
20
-297.9
0
VERTEX
8
1
10
-229.386
20
-301.151
0
VERTEX
8
1
10
-229.708
20
-304.685
0
VERTEX
8
1
10
-230.415
20
-308.178
0
VERTEX
8
1
10
-231.54
20
-311.74
0
VERTEX
8
1
10
-232.92
20
-314.937
0
VERTEX
8
1
10
-234.727
20
-318.183
0
VERTEX
8
1
10
-236.766
20
-321.108
0
VERTEX
8
1
10
-239.254
20
-323.993
0
VERTEX
8
1
10
-241.933
20
-326.515
0
VERTEX
8
1
10
-254.643
20
-337.306
0
VERTEX
8
1
10
-239.14
20
-343.437
0
VERTEX
8
1
10
-178.806
20
-367.471
0
VERTEX
8
1
10
-159.701
20
-375.487
0
VERTEX
8
1
10
-144.583
20
-382.201
0
VERTEX
8
1
10
-132.647
20
-387.881
0
VERTEX
8
1
10
-123.285
20
-392.706
0
VERTEX
8
1
10
-91.156
20
-410.462
0
VERTEX
8
1
10
-65.643
20
-425.144
0
VERTEX
8
1
10
-36.919
20
-442.165
0
VERTEX
8
1
10
22.013
20
-478.116
0
VERTEX
8
1
10
22.49
20
-478.454
0
VERTEX
8
1
10
27.405
20
-481.926
0
VERTEX
8
1
10
30.649
20
-484.786
0
VERTEX
8
1
10
33.454
20
-487.715
0
VERTEX
8
1
10
36.171
20
-491.077
0
VERTEX
8
1
10
38.517
20
-494.543
0
VERTEX
8
1
10
40.751
20
-498.533
0
VERTEX
8
1
10
42.531
20
-502.45
0
VERTEX
8
1
10
44.098
20
-506.809
0
VERTEX
8
1
10
45.289
20
-511.215
0
VERTEX
8
1
10
46.147
20
-515.828
0
VERTEX
8
1
10
46.631
20
-520.524
0
VERTEX
8
1
10
46.729
20
-525.158
0
VERTEX
8
1
10
46.47
20
-537.667
0
VERTEX
8
1
10
271.001
20
-491.801
0
VERTEX
8
1
10
279.543
20
-492.199
0
VERTEX
8
1
10
287.376
20
-488.456
0
VERTEX
8
1
10
497.665
20
-445.498
0
VERTEX
8
1
10
537.664
20
-453.67
0
VERTEX
8
1
10
537.668
20
-254.889
0
SEQEND
8
1
0
POINT
8
2
10
537.668
20
-254.889
0
TEXT
8
2
10
537.668
20
-254.889
40
10.00
1
#537
0
POINT
8
4
10
497.667
20
-254.89
30
10
50
270
0
POINT
8
2
10
497.667
20
-254.89
0
TEXT
8
2
10
497.667
20
-254.89
40
10.00
1
#538
0
POINT
8
4
10
-23.984
20
-254.894
30
10
50
270.074484471407
0
POINT
8
2
10
-23.984
20
-254.894
0
TEXT
8
2
10
-23.984
20
-254.894
40
10.00
1
#539
0
POINT
8
3
10
-33.899
20
-254.643
0
POINT
8
3
10
-44.096
20
-254.666
0
POINT
8
3
10
-56.288
20
-255.039
0
POINT
8
3
10
-68.955
20
-255.799
0
POINT
8
3
10
-81.516
20
-256.899
0
POINT
8
3
10
-96.087
20
-258.566
0
POINT
8
3
10
-110.902
20
-260.644
0
POINT
8
3
10
-126.788
20
-263.241
0
POINT
8
3
10
-145.511
20
-266.708
0
POINT
8
3
10
-167.562
20
-271.208
0
POINT
8
2
10
-231.763
20
-285.195
0
TEXT
8
2
10
-231.763
20
-285.195
40
10.00
1
#540
0
POINT
8
3
10
-229.868
20
-294.83
0
POINT
8
3
10
-229.451
20
-297.9
0
POINT
8
3
10
-229.386
20
-301.151
0
POINT
8
3
10
-229.708
20
-304.685
0
POINT
8
3
10
-230.415
20
-308.178
0
POINT
8
3
10
-231.54
20
-311.74
0
POINT
8
3
10
-232.92
20
-314.937
0
POINT
8
3
10
-234.727
20
-318.183
0
POINT
8
3
10
-236.766
20
-321.108
0
POINT
8
3
10
-239.254
20
-323.993
0
POINT
8
3
10
-241.933
20
-326.515
0
POINT
8
2
10
-254.643
20
-337.306
0
TEXT
8
2
10
-254.643
20
-337.306
40
10.00
1
#541
0
POINT
8
3
10
-239.14
20
-343.437
0
POINT
8
3
10
-178.806
20
-367.471
0
POINT
8
3
10
-159.701
20
-375.487
0
POINT
8
3
10
-144.583
20
-382.201
0
POINT
8
3
10
-132.647
20
-387.881
0
POINT
8
4
10
-123.285
20
-392.706
30
10
50
61.6973038327619
0
POINT
8
2
10
-123.285
20
-392.706
0
TEXT
8
2
10
-123.285
20
-392.706
40
10.00
1
#542
0
POINT
8
3
10
-91.156
20
-410.462
0
POINT
8
3
10
-65.643
20
-425.144
0
POINT
8
2
10
-36.919
20
-442.165
0
TEXT
8
2
10
-36.919
20
-442.165
40
10.00
1
#543
0
POINT
8
2
10
22.013
20
-478.116
0
TEXT
8
2
10
22.013
20
-478.116
40
10.00
1
#544
0
POINT
8
4
10
22.49
20
-478.454
30
10
50
61.6872148872225
0
POINT
8
2
10
22.49
20
-478.454
0
TEXT
8
2
10
22.49
20
-478.454
40
10.00
1
#545
0
POINT
8
3
10
27.405
20
-481.926
0
POINT
8
3
10
30.649
20
-484.786
0
POINT
8
3
10
33.454
20
-487.715
0
POINT
8
3
10
36.171
20
-491.077
0
POINT
8
3
10
38.517
20
-494.543
0
POINT
8
3
10
40.751
20
-498.533
0
POINT
8
3
10
42.531
20
-502.45
0
POINT
8
3
10
44.098
20
-506.809
0
POINT
8
3
10
45.289
20
-511.215
0
POINT
8
3
10
46.147
20
-515.828
0
POINT
8
3
10
46.631
20
-520.524
0
POINT
8
3
10
46.729
20
-525.158
0
POINT
8
2
10
46.47
20
-537.667
0
TEXT
8
2
10
46.47
20
-537.667
40
10.00
1
#546
0
POINT
8
4
10
271.001
20
-491.801
30
10
50
94.4334212767614
0
POINT
8
2
10
271.001
20
-491.801
0
TEXT
8
2
10
271.001
20
-491.801
40
10.00
1
#547
0
POINT
8
2
10
279.543
20
-492.199
0
TEXT
8
2
10
279.543
20
-492.199
40
10.00
1
#548
0
POINT
8
4
10
287.376
20
-488.456
30
10
50
108.567221188564
0
POINT
8
2
10
287.376
20
-488.456
0
TEXT
8
2
10
287.376
20
-488.456
40
10.00
1
#549
0
POINT
8
4
10
497.665
20
-445.498
30
10
50
90
0
POINT
8
2
10
497.665
20
-445.498
0
TEXT
8
2
10
497.665
20
-445.498
40
10.00
1
#550
0
POINT
8
2
10
537.664
20
-453.67
0
TEXT
8
2
10
537.664
20
-453.67
40
10.00
1
#551
0
POINT
8
2
10
537.668
20
-254.889
0
TEXT
8
2
10
537.668
20
-254.889
40
10.00
1
#537
0
POLYLINE
8
8
66
1
70
0
0
VERTEX
8
8
10
270.218
20
-481.754
0
VERTEX
8
8
10
259.454
20
-392.894
0
VERTEX
8
8
10
284.174
20
-478.903
0
SEQEND
8
8
0
POINT
8
2
10
270.218
20
-481.754
0
TEXT
8
2
10
270.218
20
-481.754
40
10.00
1
#552
0
POINT
8
2
10
259.454
20
-392.894
0
TEXT
8
2
10
259.454
20
-392.894
40
10.00
1
#553
0
POINT
8
2
10
284.174
20
-478.903
0
TEXT
8
2
10
284.174
20
-478.903
40
10.00
1
#554
0
LINE
8
7
10
270.833
20
-377.496
11
120.834
21
-377.496
0
POINT
8
2
10
270.833
20
-377.496
0
TEXT
8
2
10
270.833
20
-377.496
40
10.00
1
#1
0
POINT
8
2
10
120.834
20
-377.496
0
TEXT
8
2
10
120.834
20
-377.496
40
10.00
1
#1
0
TEXT
8
1
10
120.834
20
-366.496
40
10.00
1
PIECE NAME: ARKAKOLCZ
0
TEXT
8
1
10
120.834
20
-355.496
40
10.00
1
SIZE: 1
0
TEXT
8
1
10
120.834
20
-344.496
40
10.00
1
ANNOTATION: 
0
TEXT
8
1
10
120.834
20
-333.496
40
10.00
1
QUANTITY: 1
0
TEXT
8
1
10
120.834
20
-322.496
40
10.00
1
MATERIAL: ÇÝZÝM
0
ENDBLK
0
BLOCK
8
0
2
20
70
0
10
0.0000
20
0.0000
0
POLYLINE
8
1
66
1
70
1
0
VERTEX
8
1
10
537.664
20
-338.64
0
VERTEX
8
1
10
497.665
20
-346.812
0
VERTEX
8
1
10
287.376
20
-303.854
0
VERTEX
8
1
10
279.543
20
-300.111
0
VERTEX
8
1
10
271.001
20
-300.509
0
VERTEX
8
1
10
46.47
20
-254.643
0
VERTEX
8
1
10
46.729
20
-267.152
0
VERTEX
8
1
10
46.631
20
-271.786
0
VERTEX
8
1
10
46.147
20
-276.482
0
VERTEX
8
1
10
45.289
20
-281.095
0
VERTEX
8
1
10
44.098
20
-285.501
0
VERTEX
8
1
10
42.531
20
-289.86
0
VERTEX
8
1
10
40.751
20
-293.777
0
VERTEX
8
1
10
38.517
20
-297.767
0
VERTEX
8
1
10
36.171
20
-301.233
0
VERTEX
8
1
10
33.454
20
-304.595
0
VERTEX
8
1
10
30.649
20
-307.524
0
VERTEX
8
1
10
27.405
20
-310.384
0
VERTEX
8
1
10
22.49
20
-313.856
0
VERTEX
8
1
10
22.013
20
-314.194
0
VERTEX
8
1
10
-36.919
20
-350.145
0
VERTEX
8
1
10
-65.643
20
-367.166
0
VERTEX
8
1
10
-91.156
20
-381.848
0
VERTEX
8
1
10
-123.285
20
-399.604
0
VERTEX
8
1
10
-132.647
20
-404.429
0
VERTEX
8
1
10
-144.583
20
-410.109
0
VERTEX
8
1
10
-159.701
20
-416.823
0
VERTEX
8
1
10
-178.806
20
-424.839
0
VERTEX
8
1
10
-239.14
20
-448.873
0
VERTEX
8
1
10
-254.643
20
-455.004
0
VERTEX
8
1
10
-241.933
20
-465.795
0
VERTEX
8
1
10
-239.254
20
-468.317
0
VERTEX
8
1
10
-236.766
20
-471.202
0
VERTEX
8
1
10
-234.727
20
-474.127
0
VERTEX
8
1
10
-232.92
20
-477.373
0
VERTEX
8
1
10
-231.54
20
-480.57
0
VERTEX
8
1
10
-230.415
20
-484.132
0
VERTEX
8
1
10
-229.708
20
-487.625
0
VERTEX
8
1
10
-229.386
20
-491.159
0
VERTEX
8
1
10
-229.451
20
-494.41
0
VERTEX
8
1
10
-229.868
20
-497.48
0
VERTEX
8
1
10
-231.763
20
-507.115
0
VERTEX
8
1
10
-167.562
20
-521.102
0
VERTEX
8
1
10
-145.511
20
-525.602
0
VERTEX
8
1
10
-126.788
20
-529.069
0
VERTEX
8
1
10
-110.902
20
-531.666
0
VERTEX
8
1
10
-96.087
20
-533.744
0
VERTEX
8
1
10
-81.516
20
-535.411
0
VERTEX
8
1
10
-68.955
20
-536.511
0
VERTEX
8
1
10
-56.288
20
-537.271
0
VERTEX
8
1
10
-44.096
20
-537.644
0
VERTEX
8
1
10
-33.899
20
-537.667
0
VERTEX
8
1
10
-23.984
20
-537.416
0
VERTEX
8
1
10
497.667
20
-537.42
0
VERTEX
8
1
10
537.668
20
-537.421
0
VERTEX
8
1
10
537.664
20
-338.64
0
SEQEND
8
1
0
POINT
8
2
10
537.664
20
-338.64
0
TEXT
8
2
10
537.664
20
-338.64
40
10.00
1
#257
0
POINT
8
4
10
497.665
20
-346.812
30
10
50
270
0
POINT
8
2
10
497.665
20
-346.812
0
TEXT
8
2
10
497.665
20
-346.812
40
10.00
1
#258
0
POINT
8
4
10
287.376
20
-303.854
30
10
50
251.432778811436
0
POINT
8
2
10
287.376
20
-303.854
0
TEXT
8
2
10
287.376
20
-303.854
40
10.00
1
#259
0
POINT
8
2
10
279.543
20
-300.111
0
TEXT
8
2
10
279.543
20
-300.111
40
10.00
1
#260
0
POINT
8
4
10
271.001
20
-300.509
30
10
50
265.566578723239
0
POINT
8
2
10
271.001
20
-300.509
0
TEXT
8
2
10
271.001
20
-300.509
40
10.00
1
#261
0
POINT
8
2
10
46.47
20
-254.643
0
TEXT
8
2
10
46.47
20
-254.643
40
10.00
1
#262
0
POINT
8
3
10
46.729
20
-267.152
0
POINT
8
3
10
46.631
20
-271.786
0
POINT
8
3
10
46.147
20
-276.482
0
POINT
8
3
10
45.289
20
-281.095
0
POINT
8
3
10
44.098
20
-285.501
0
POINT
8
3
10
42.531
20
-289.86
0
POINT
8
3
10
40.751
20
-293.777
0
POINT
8
3
10
38.517
20
-297.767
0
POINT
8
3
10
36.171
20
-301.233
0
POINT
8
3
10
33.454
20
-304.595
0
POINT
8
3
10
30.649
20
-307.524
0
POINT
8
3
10
27.405
20
-310.384
0
POINT
8
4
10
22.49
20
-313.856
30
10
50
298.312785112777
0
POINT
8
2
10
22.49
20
-313.856
0
TEXT
8
2
10
22.49
20
-313.856
40
10.00
1
#263
0
POINT
8
2
10
22.013
20
-314.194
0
TEXT
8
2
10
22.013
20
-314.194
40
10.00
1
#264
0
POINT
8
2
10
-36.919
20
-350.145
0
TEXT
8
2
10
-36.919
20
-350.145
40
10.00
1
#265
0
POINT
8
3
10
-65.643
20
-367.166
0
POINT
8
3
10
-91.156
20
-381.848
0
POINT
8
4
10
-123.285
20
-399.604
30
10
50
298.302696167238
0
POINT
8
2
10
-123.285
20
-399.604
0
TEXT
8
2
10
-123.285
20
-399.604
40
10.00
1
#266
0
POINT
8
3
10
-132.647
20
-404.429
0
POINT
8
3
10
-144.583
20
-410.109
0
POINT
8
3
10
-159.701
20
-416.823
0
POINT
8
3
10
-178.806
20
-424.839
0
POINT
8
3
10
-239.14
20
-448.873
0
POINT
8
2
10
-254.643
20
-455.004
0
TEXT
8
2
10
-254.643
20
-455.004
40
10.00
1
#267
0
POINT
8
3
10
-241.933
20
-465.795
0
POINT
8
3
10
-239.254
20
-468.317
0
POINT
8
3
10
-236.766
20
-471.202
0
POINT
8
3
10
-234.727
20
-474.127
0
POINT
8
3
10
-232.92
20
-477.373
0
POINT
8
3
10
-231.54
20
-480.57
0
POINT
8
3
10
-230.415
20
-484.132
0
POINT
8
3
10
-229.708
20
-487.625
0
POINT
8
3
10
-229.386
20
-491.159
0
POINT
8
3
10
-229.451
20
-494.41
0
POINT
8
3
10
-229.868
20
-497.48
0
POINT
8
2
10
-231.763
20
-507.115
0
TEXT
8
2
10
-231.763
20
-507.115
40
10.00
1
#268
0
POINT
8
3
10
-167.562
20
-521.102
0
POINT
8
3
10
-145.511
20
-525.602
0
POINT
8
3
10
-126.788
20
-529.069
0
POINT
8
3
10
-110.902
20
-531.666
0
POINT
8
3
10
-96.087
20
-533.744
0
POINT
8
3
10
-81.516
20
-535.411
0
POINT
8
3
10
-68.955
20
-536.511
0
POINT
8
3
10
-56.288
20
-537.271
0
POINT
8
3
10
-44.096
20
-537.644
0
POINT
8
3
10
-33.899
20
-537.667
0
POINT
8
4
10
-23.984
20
-537.416
30
10
50
89.9255155285925
0
POINT
8
2
10
-23.984
20
-537.416
0
TEXT
8
2
10
-23.984
20
-537.416
40
10.00
1
#269
0
POINT
8
4
10
497.667
20
-537.42
30
10
50
90
0
POINT
8
2
10
497.667
20
-537.42
0
TEXT
8
2
10
497.667
20
-537.42
40
10.00
1
#270
0
POINT
8
2
10
537.668
20
-537.421
0
TEXT
8
2
10
537.668
20
-537.421
40
10.00
1
#271
0
POINT
8
2
10
537.664
20
-338.64
0
TEXT
8
2
10
537.664
20
-338.64
40
10.00
1
#257
0
POLYLINE
8
8
66
1
70
0
0
VERTEX
8
8
10
270.218
20
-310.556
0
VERTEX
8
8
10
259.454
20
-399.416
0
VERTEX
8
8
10
284.174
20
-313.407
0
SEQEND
8
8
0
POINT
8
2
10
270.218
20
-310.556
0
TEXT
8
2
10
270.218
20
-310.556
40
10.00
1
#272
0
POINT
8
2
10
259.454
20
-399.416
0
TEXT
8
2
10
259.454
20
-399.416
40
10.00
1
#273
0
POINT
8
2
10
284.174
20
-313.407
0
TEXT
8
2
10
284.174
20
-313.407
40
10.00
1
#274
0
LINE
8
7
10
270.833
20
-414.814
11
120.834
21
-414.814
0
POINT
8
2
10
270.833
20
-414.814
0
TEXT
8
2
10
270.833
20
-414.814
40
10.00
1
#1
0
POINT
8
2
10
120.834
20
-414.814
0
TEXT
8
2
10
120.834
20
-414.814
40
10.00
1
#1
0
TEXT
8
1
10
120.834
20
-403.814
40
10.00
1
PIECE NAME: ARKAKOLCZFY1
0
TEXT
8
1
10
120.834
20
-392.814
40
10.00
1
SIZE: 1
0
TEXT
8
1
10
120.834
20
-381.814
40
10.00
1
ANNOTATION: 
0
TEXT
8
1
10
120.834
20
-370.814
40
10.00
1
QUANTITY: 1
0
TEXT
8
1
10
120.834
20
-359.814
40
10.00
1
MATERIAL: ÇÝZÝM
0
ENDBLK
0
ENDSEC
0
SECTION
2
ENTITIES
0
INSERT
8
1
2
0
10
0
20
0
0
INSERT
8
1
2
1
10
0
20
0
0
INSERT
8
1
2
2
10
0
20
0
0
INSERT
8
1
2
3
10
0
20
0
0
INSERT
8
1
2
4
10
0
20
0
0
INSERT
8
1
2
5
10
0
20
0
0
INSERT
8
1
2
6
10
0
20
0
0
INSERT
8
1
2
7
10
0
20
0
0
INSERT
8
1
2
8
10
0
20
0
0
INSERT
8
1
2
9
10
0
20
0
0
INSERT
8
1
2
10
10
0
20
0
0
INSERT
8
1
2
11
10
0
20
0
0
INSERT
8
1
2
12
10
0
20
0
0
INSERT
8
1
2
13
10
0
20
0
0
INSERT
8
1
2
14
10
0
20
0
0
INSERT
8
1
2
15
10
0
20
0
0
INSERT
8
1
2
16
10
0
20
0
0
INSERT
8
1
2
17
10
0
20
0
0
INSERT
8
1
2
18
10
0
20
0
0
INSERT
8
1
2
19
10
0
20
0
0
INSERT
8
1
2
20
10
0
20
0
0
TEXT
8
1
10
-254.643
20
-1406.375
40
10.00
1
STYLE NAME: 262-5041 KB-ÇÝN
0
TEXT
8
1
10
-254.643
20
-1417.375
40
10.00
1
CREATION DATE: 27-02-2026
0
TEXT
8
1
10
-254.643
20
-1428.375
40
10.00
1
CREATION TIME: 09:56:41
0
TEXT
8
1
10
-254.643
20
-1439.375
40
10.00
1
AUTHOR: GEMINI CAD SYSTEMS
0
TEXT
8
1
10
-254.643
20
-1450.375
40
10.00
1
PRODUCT: GEMINI PATTERN DESIGNER
0
TEXT
8
1
10
-254.643
20
-1461.375
40
10.00
1
SAMPLE SIZE: 1
0
TEXT
8
1
10
-254.643
20
-1472.375
40
10.00
1
GRADE RULE TABLE: 262-5041 KB-ÇÝN
0
TEXT
8
1
10
-254.643
20
-1483.375
40
10.00
1
UNITS: METRIC
0
ENDSEC
0
EOF
