0
SECTION
2
HEADER
9
$LUNITS
70
2
9
$INSUNITS
70
4
0
ENDSEC
0
SECTION
2
BLOCKS
0
BLOCK
8
0
2
0
70
0
10
0.0000
20
0.0000
0
POLYLINE
8
1
66
1
70
1
0
VERTEX
8
1
10
1040.835
20
-185.521
0
VERTEX
8
1
10
1240.836
20
-185.521
0
VERTEX
8
1
10
1240.836
20
-115.521
0
VERTEX
8
1
10
1040.835
20
-115.521
0
VERTEX
8
1
10
1040.835
20
-185.521
0
SEQEND
8
1
0
POINT
8
2
10
1040.835
20
-185.521
0
TEXT
8
2
10
1040.835
20
-185.521
40
10.00
1
#495
0
POINT
8
2
10
1240.836
20
-185.521
0
TEXT
8
2
10
1240.836
20
-185.521
40
10.00
1
#496
0
POINT
8
2
10
1240.836
20
-115.521
0
TEXT
8
2
10
1240.836
20
-115.521
40
10.00
1
#497
0
POINT
8
2
10
1040.835
20
-115.521
0
TEXT
8
2
10
1040.835
20
-115.521
40
10.00
1
#498
0
POINT
8
2
10
1040.835
20
-185.521
0
TEXT
8
2
10
1040.835
20
-185.521
40
10.00
1
#495
0
LINE
8
7
10
1167.503
20
-153.021
11
1114.17
21
-153.021
0
POINT
8
2
10
1167.503
20
-153.021
0
TEXT
8
2
10
1167.503
20
-153.021
40
10.00
1
#1
0
POINT
8
2
10
1114.17
20
-153.021
0
TEXT
8
2
10
1114.17
20
-153.021
40
10.00
1
#1
0
TEXT
8
8
10
1180.77
20
-173.976
11
1229.605
21
-140.94
40
10.00
50
325.922354917492
1
2 ADET TELALI
0
TEXT
8
1
10
1114.17
20
-142.021
40
10.00
1
PIECE NAME: KARSILIK
0
TEXT
8
1
10
1114.17
20
-131.021
40
10.00
1
SIZE: 36
0
TEXT
8
1
10
1114.17
20
-120.021
40
10.00
1
ANNOTATION: 
0
TEXT
8
1
10
1114.17
20
-109.021
40
10.00
1
QUANTITY: 1
0
TEXT
8
1
10
1114.17
20
-98.021
40
10.00
1
MATERIAL: KOMBÝN
0
ENDBLK
0
BLOCK
8
0
2
1
70
0
10
0.0000
20
0.0000
0
POLYLINE
8
1
66
1
70
1
0
VERTEX
8
1
10
3124.311
20
-1242.843
0
VERTEX
8
1
10
3094.307
20
-1242.732
0
VERTEX
8
1
10
3027.948
20
-1242.562
0
VERTEX
8
1
10
2944.314
20
-1242.74
0
VERTEX
8
1
10
2914.314
20
-1242.843
0
VERTEX
8
1
10
2913.65
20
-1264.805
0
VERTEX
8
1
10
2913.88
20
-1268.661
0
VERTEX
8
1
10
2915.576
20
-1302.295
0
VERTEX
8
1
10
2915.829
20
-1306.992
0
VERTEX
8
1
10
2917.61
20
-1320.747
0
VERTEX
8
1
10
2920.878
20
-1333.738
0
VERTEX
8
1
10
2925.599
20
-1346.024
0
VERTEX
8
1
10
2931.773
20
-1357.636
0
VERTEX
8
1
10
2939.431
20
-1368.617
0
VERTEX
8
1
10
2948.634
20
-1378.972
0
VERTEX
8
1
10
2959.414
20
-1388.642
0
VERTEX
8
1
10
2971.791
20
-1397.546
0
VERTEX
8
1
10
2985.788
20
-1405.593
0
VERTEX
8
1
10
3001.269
20
-1412.607
0
VERTEX
8
1
10
3018.063
20
-1418.431
0
VERTEX
8
1
10
3035.786
20
-1422.869
0
VERTEX
8
1
10
3053.804
20
-1425.742
0
VERTEX
8
1
10
3071.387
20
-1426.967
0
VERTEX
8
1
10
3087.641
20
-1426.569
0
VERTEX
8
1
10
3101.818
20
-1424.736
0
VERTEX
8
1
10
3107.914
20
-1423.38
0
VERTEX
8
1
10
3119.427
20
-1419.621
0
VERTEX
8
1
10
3129.757
20
-1414.617
0
VERTEX
8
1
10
3138.748
20
-1408.545
0
VERTEX
8
1
10
3146.293
20
-1401.582
0
VERTEX
8
1
10
3152.298
20
-1393.93
0
VERTEX
8
1
10
3156.722
20
-1385.779
0
VERTEX
8
1
10
3159.563
20
-1377.267
0
VERTEX
8
1
10
3160.813
20
-1368.528
0
VERTEX
8
1
10
3160.471
20
-1359.632
0
VERTEX
8
1
10
3158.503
20
-1350.651
0
VERTEX
8
1
10
3154.853
20
-1341.65
0
VERTEX
8
1
10
3149.429
20
-1332.673
0
VERTEX
8
1
10
3138.347
20
-1313.492
0
VERTEX
8
1
10
3131.731
20
-1299.337
0
VERTEX
8
1
10
3127.534
20
-1286.819
0
VERTEX
8
1
10
3124.989
20
-1274.196
0
VERTEX
8
1
10
3123.878
20
-1260.103
0
VERTEX
8
1
10
3124.311
20
-1242.843
0
SEQEND
8
1
0
POINT
8
2
10
3124.311
20
-1242.843
0
TEXT
8
2
10
3124.311
20
-1242.843
40
10.00
1
#499
0
POINT
8
4
10
3094.307
20
-1242.732
30
10
50
269.765088620279
0
POINT
8
2
10
3094.307
20
-1242.732
0
TEXT
8
2
10
3094.307
20
-1242.732
40
10.00
1
#500
0
POINT
8
3
10
3027.948
20
-1242.562
0
POINT
8
4
10
2944.314
20
-1242.74
30
10
50
270.229181895754
0
POINT
8
2
10
2944.314
20
-1242.74
0
TEXT
8
2
10
2944.314
20
-1242.74
40
10.00
1
#501
0
POINT
8
2
10
2914.314
20
-1242.843
0
TEXT
8
2
10
2914.314
20
-1242.843
40
10.00
1
#502
0
POINT
8
3
10
2913.65
20
-1264.805
0
POINT
8
3
10
2913.88
20
-1268.661
0
POINT
8
3
10
2915.576
20
-1302.295
0
POINT
8
3
10
2915.829
20
-1306.992
0
POINT
8
3
10
2917.61
20
-1320.747
0
POINT
8
3
10
2920.878
20
-1333.738
0
POINT
8
3
10
2925.599
20
-1346.024
0
POINT
8
3
10
2931.773
20
-1357.636
0
POINT
8
3
10
2939.431
20
-1368.617
0
POINT
8
3
10
2948.634
20
-1378.972
0
POINT
8
3
10
2959.414
20
-1388.642
0
POINT
8
3
10
2971.791
20
-1397.546
0
POINT
8
3
10
2985.788
20
-1405.593
0
POINT
8
3
10
3001.269
20
-1412.607
0
POINT
8
3
10
3018.063
20
-1418.431
0
POINT
8
3
10
3035.786
20
-1422.869
0
POINT
8
3
10
3053.804
20
-1425.742
0
POINT
8
3
10
3071.387
20
-1426.967
0
POINT
8
3
10
3087.641
20
-1426.569
0
POINT
8
3
10
3101.818
20
-1424.736
0
POINT
8
3
10
3107.914
20
-1423.38
0
POINT
8
3
10
3119.427
20
-1419.621
0
POINT
8
3
10
3129.757
20
-1414.617
0
POINT
8
3
10
3138.748
20
-1408.545
0
POINT
8
3
10
3146.293
20
-1401.582
0
POINT
8
3
10
3152.298
20
-1393.93
0
POINT
8
3
10
3156.722
20
-1385.779
0
POINT
8
3
10
3159.563
20
-1377.267
0
POINT
8
3
10
3160.813
20
-1368.528
0
POINT
8
3
10
3160.471
20
-1359.632
0
POINT
8
3
10
3158.503
20
-1350.651
0
POINT
8
3
10
3154.853
20
-1341.65
0
POINT
8
3
10
3149.429
20
-1332.673
0
POINT
8
3
10
3138.347
20
-1313.492
0
POINT
8
3
10
3131.731
20
-1299.337
0
POINT
8
3
10
3127.534
20
-1286.819
0
POINT
8
3
10
3124.989
20
-1274.196
0
POINT
8
3
10
3123.878
20
-1260.103
0
POINT
8
2
10
3124.311
20
-1242.843
0
TEXT
8
2
10
3124.311
20
-1242.843
40
10.00
1
#499
0
LINE
8
7
10
3071.422
20
-1332.536
11
2992.515
21
-1332.536
0
POINT
8
2
10
3071.422
20
-1332.536
0
TEXT
8
2
10
3071.422
20
-1332.536
40
10.00
1
#1
0
POINT
8
2
10
2992.515
20
-1332.536
0
TEXT
8
2
10
2992.515
20
-1332.536
40
10.00
1
#1
0
TEXT
8
8
10
2931.265
20
-1300.584
11
3045.974
21
-1282.421
40
10.00
50
351.002495185568
1
4 ADET
0
TEXT
8
1
10
2992.515
20
-1321.536
40
10.00
1
PIECE NAME: CPTOR
0
TEXT
8
1
10
2992.515
20
-1310.536
40
10.00
1
SIZE: 36
0
TEXT
8
1
10
2992.515
20
-1299.536
40
10.00
1
ANNOTATION: 
0
TEXT
8
1
10
2992.515
20
-1288.536
40
10.00
1
QUANTITY: 1
0
TEXT
8
1
10
2992.515
20
-1277.536
40
10.00
1
MATERIAL: ASTAR
0
ENDBLK
0
BLOCK
8
0
2
2
70
0
10
0.0000
20
0.0000
0
POLYLINE
8
1
66
1
70
1
0
VERTEX
8
1
10
2914.314
20
-1426.687
0
VERTEX
8
1
10
2944.314
20
-1426.79
0
VERTEX
8
1
10
3027.948
20
-1426.968
0
VERTEX
8
1
10
3094.307
20
-1426.798
0
VERTEX
8
1
10
3124.311
20
-1426.687
0
VERTEX
8
1
10
3123.878
20
-1409.427
0
VERTEX
8
1
10
3124.989
20
-1395.334
0
VERTEX
8
1
10
3127.534
20
-1382.711
0
VERTEX
8
1
10
3131.731
20
-1370.193
0
VERTEX
8
1
10
3138.347
20
-1356.038
0
VERTEX
8
1
10
3149.429
20
-1336.857
0
VERTEX
8
1
10
3154.853
20
-1327.88
0
VERTEX
8
1
10
3158.503
20
-1318.879
0
VERTEX
8
1
10
3160.471
20
-1309.898
0
VERTEX
8
1
10
3160.813
20
-1301.002
0
VERTEX
8
1
10
3159.563
20
-1292.263
0
VERTEX
8
1
10
3156.722
20
-1283.751
0
VERTEX
8
1
10
3152.298
20
-1275.6
0
VERTEX
8
1
10
3146.293
20
-1267.948
0
VERTEX
8
1
10
3138.748
20
-1260.985
0
VERTEX
8
1
10
3129.757
20
-1254.913
0
VERTEX
8
1
10
3119.427
20
-1249.909
0
VERTEX
8
1
10
3107.914
20
-1246.15
0
VERTEX
8
1
10
3101.818
20
-1244.794
0
VERTEX
8
1
10
3087.641
20
-1242.961
0
VERTEX
8
1
10
3071.387
20
-1242.563
0
VERTEX
8
1
10
3053.804
20
-1243.788
0
VERTEX
8
1
10
3035.786
20
-1246.661
0
VERTEX
8
1
10
3018.063
20
-1251.099
0
VERTEX
8
1
10
3001.269
20
-1256.923
0
VERTEX
8
1
10
2985.788
20
-1263.937
0
VERTEX
8
1
10
2971.791
20
-1271.984
0
VERTEX
8
1
10
2959.414
20
-1280.888
0
VERTEX
8
1
10
2948.634
20
-1290.558
0
VERTEX
8
1
10
2939.431
20
-1300.913
0
VERTEX
8
1
10
2931.773
20
-1311.894
0
VERTEX
8
1
10
2925.599
20
-1323.506
0
VERTEX
8
1
10
2920.878
20
-1335.792
0
VERTEX
8
1
10
2917.61
20
-1348.783
0
VERTEX
8
1
10
2915.829
20
-1362.538
0
VERTEX
8
1
10
2915.576
20
-1367.235
0
VERTEX
8
1
10
2913.88
20
-1400.869
0
VERTEX
8
1
10
2913.65
20
-1404.725
0
VERTEX
8
1
10
2914.314
20
-1426.687
0
SEQEND
8
1
0
POINT
8
2
10
2914.314
20
-1426.687
0
TEXT
8
2
10
2914.314
20
-1426.687
40
10.00
1
#6
0
POINT
8
4
10
2944.314
20
-1426.79
30
10
50
89.7708181042461
0
POINT
8
2
10
2944.314
20
-1426.79
0
TEXT
8
2
10
2944.314
20
-1426.79
40
10.00
1
#7
0
POINT
8
3
10
3027.948
20
-1426.968
0
POINT
8
4
10
3094.307
20
-1426.798
30
10
50
90.2349113797211
0
POINT
8
2
10
3094.307
20
-1426.798
0
TEXT
8
2
10
3094.307
20
-1426.798
40
10.00
1
#8
0
POINT
8
2
10
3124.311
20
-1426.687
0
TEXT
8
2
10
3124.311
20
-1426.687
40
10.00
1
#9
0
POINT
8
3
10
3123.878
20
-1409.427
0
POINT
8
3
10
3124.989
20
-1395.334
0
POINT
8
3
10
3127.534
20
-1382.711
0
POINT
8
3
10
3131.731
20
-1370.193
0
POINT
8
3
10
3138.347
20
-1356.038
0
POINT
8
3
10
3149.429
20
-1336.857
0
POINT
8
3
10
3154.853
20
-1327.88
0
POINT
8
3
10
3158.503
20
-1318.879
0
POINT
8
3
10
3160.471
20
-1309.898
0
POINT
8
3
10
3160.813
20
-1301.002
0
POINT
8
3
10
3159.563
20
-1292.263
0
POINT
8
3
10
3156.722
20
-1283.751
0
POINT
8
3
10
3152.298
20
-1275.6
0
POINT
8
3
10
3146.293
20
-1267.948
0
POINT
8
3
10
3138.748
20
-1260.985
0
POINT
8
3
10
3129.757
20
-1254.913
0
POINT
8
3
10
3119.427
20
-1249.909
0
POINT
8
3
10
3107.914
20
-1246.15
0
POINT
8
3
10
3101.818
20
-1244.794
0
POINT
8
3
10
3087.641
20
-1242.961
0
POINT
8
3
10
3071.387
20
-1242.563
0
POINT
8
3
10
3053.804
20
-1243.788
0
POINT
8
3
10
3035.786
20
-1246.661
0
POINT
8
3
10
3018.063
20
-1251.099
0
POINT
8
3
10
3001.269
20
-1256.923
0
POINT
8
3
10
2985.788
20
-1263.937
0
POINT
8
3
10
2971.791
20
-1271.984
0
POINT
8
3
10
2959.414
20
-1280.888
0
POINT
8
3
10
2948.634
20
-1290.558
0
POINT
8
3
10
2939.431
20
-1300.913
0
POINT
8
3
10
2931.773
20
-1311.894
0
POINT
8
3
10
2925.599
20
-1323.506
0
POINT
8
3
10
2920.878
20
-1335.792
0
POINT
8
3
10
2917.61
20
-1348.783
0
POINT
8
3
10
2915.829
20
-1362.538
0
POINT
8
3
10
2915.576
20
-1367.235
0
POINT
8
3
10
2913.88
20
-1400.869
0
POINT
8
3
10
2913.65
20
-1404.725
0
POINT
8
2
10
2914.314
20
-1426.687
0
TEXT
8
2
10
2914.314
20
-1426.687
40
10.00
1
#6
0
LINE
8
7
10
3071.422
20
-1336.994
11
2992.515
21
-1336.994
0
POINT
8
2
10
3071.422
20
-1336.994
0
TEXT
8
2
10
3071.422
20
-1336.994
40
10.00
1
#1
0
POINT
8
2
10
2992.515
20
-1336.994
0
TEXT
8
2
10
2992.515
20
-1336.994
40
10.00
1
#1
0
TEXT
8
8
10
2931.265
20
-1368.946
11
3045.974
21
-1387.109
40
10.00
50
8.99750481443214
1
4 ADET
0
TEXT
8
1
10
2992.515
20
-1325.994
40
10.00
1
PIECE NAME: CPTORFY1
0
TEXT
8
1
10
2992.515
20
-1314.994
40
10.00
1
SIZE: 36
0
TEXT
8
1
10
2992.515
20
-1303.994
40
10.00
1
ANNOTATION: 
0
TEXT
8
1
10
2992.515
20
-1292.994
40
10.00
1
QUANTITY: 1
0
TEXT
8
1
10
2992.515
20
-1281.994
40
10.00
1
MATERIAL: ASTAR
0
ENDBLK
0
BLOCK
8
0
2
3
70
0
10
0.0000
20
0.0000
0
POLYLINE
8
1
66
1
70
1
0
VERTEX
8
1
10
676.257
20
-443.98
0
VERTEX
8
1
10
616.257
20
-443.98
0
VERTEX
8
1
10
616.257
20
-1173.98
0
VERTEX
8
1
10
676.257
20
-1173.98
0
VERTEX
8
1
10
676.257
20
-443.98
0
SEQEND
8
1
0
POINT
8
2
10
676.257
20
-443.98
0
TEXT
8
2
10
676.257
20
-443.98
40
10.00
1
#505
0
POINT
8
2
10
616.257
20
-443.98
0
TEXT
8
2
10
616.257
20
-443.98
40
10.00
1
#506
0
POINT
8
2
10
616.257
20
-1173.98
0
TEXT
8
2
10
616.257
20
-1173.98
40
10.00
1
#507
0
POINT
8
2
10
676.257
20
-1173.98
0
TEXT
8
2
10
676.257
20
-1173.98
40
10.00
1
#508
0
POINT
8
2
10
676.257
20
-443.98
0
TEXT
8
2
10
676.257
20
-443.98
40
10.00
1
#505
0
LINE
8
7
10
656.257
20
-797.98
11
636.257
21
-797.98
0
POINT
8
2
10
656.257
20
-797.98
0
TEXT
8
2
10
656.257
20
-797.98
40
10.00
1
#1
0
POINT
8
2
10
636.257
20
-797.98
0
TEXT
8
2
10
636.257
20
-797.98
40
10.00
1
#1
0
TEXT
8
1
10
636.257
20
-786.98
40
10.00
1
PIECE NAME: KURK
0
TEXT
8
1
10
636.257
20
-775.98
40
10.00
1
SIZE: 36
0
TEXT
8
1
10
636.257
20
-764.98
40
10.00
1
ANNOTATION: 
0
TEXT
8
1
10
636.257
20
-753.98
40
10.00
1
QUANTITY: 1
0
TEXT
8
1
10
636.257
20
-742.98
40
10.00
1
MATERIAL: KÜRK
0
ENDBLK
0
BLOCK
8
0
2
4
70
0
10
0.0000
20
0.0000
0
POLYLINE
8
1
66
1
70
1
0
VERTEX
8
1
10
1195.661
20
-494.976
0
VERTEX
8
1
10
1216.873
20
-473.762
0
VERTEX
8
1
10
1068.099
20
-324.987
0
VERTEX
8
1
10
987.913
20
-244.8
0
VERTEX
8
1
10
909.141
20
-166.028
0
VERTEX
8
1
10
830.369
20
-87.257
0
VERTEX
8
1
10
743.112
20
0
0
VERTEX
8
1
10
721.9
20
-21.213
0
VERTEX
8
1
10
700.686
20
-42.427
0
VERTEX
8
1
10
787.943
20
-129.684
0
VERTEX
8
1
10
866.715
20
-208.454
0
VERTEX
8
1
10
945.487
20
-287.226
0
VERTEX
8
1
10
1025.672
20
-367.413
0
VERTEX
8
1
10
1174.449
20
-516.19
0
VERTEX
8
1
10
1195.661
20
-494.976
0
SEQEND
8
1
0
POINT
8
4
10
1195.661
20
-494.976
30
10
50
135.004051175806
0
POINT
8
2
10
1195.661
20
-494.976
0
TEXT
8
2
10
1195.661
20
-494.976
40
10.00
1
#509
0
POINT
8
2
10
1216.873
20
-473.762
0
TEXT
8
2
10
1216.873
20
-473.762
40
10.00
1
#510
0
POINT
8
4
10
1068.099
20
-324.987
30
10
50
224.995948824195
0
POINT
8
2
10
1068.099
20
-324.987
0
TEXT
8
2
10
1068.099
20
-324.987
40
10.00
1
#511
0
POINT
8
4
10
987.913
20
-244.8
30
10
50
225
0
POINT
8
2
10
987.913
20
-244.8
0
TEXT
8
2
10
987.913
20
-244.8
40
10.00
1
#512
0
POINT
8
4
10
909.141
20
-166.028
30
10
50
225
0
POINT
8
2
10
909.141
20
-166.028
0
TEXT
8
2
10
909.141
20
-166.028
40
10.00
1
#513
0
POINT
8
4
10
830.369
20
-87.257
30
10
50
225
0
POINT
8
2
10
830.369
20
-87.257
0
TEXT
8
2
10
830.369
20
-87.257
40
10.00
1
#514
0
POINT
8
2
10
743.112
20
0
0
TEXT
8
2
10
743.112
20
0
40
10.00
1
#515
0
POINT
8
4
10
721.9
20
-21.213
30
10
50
314.995948824195
0
POINT
8
2
10
721.9
20
-21.213
0
TEXT
8
2
10
721.9
20
-21.213
40
10.00
1
#516
0
POINT
8
2
10
700.686
20
-42.427
0
TEXT
8
2
10
700.686
20
-42.427
40
10.00
1
#517
0
POINT
8
4
10
787.943
20
-129.684
30
10
50
45.0040511758054
0
POINT
8
2
10
787.943
20
-129.684
0
TEXT
8
2
10
787.943
20
-129.684
40
10.00
1
#518
0
POINT
8
4
10
866.715
20
-208.454
30
10
50
45.0000000000003
0
POINT
8
2
10
866.715
20
-208.454
0
TEXT
8
2
10
866.715
20
-208.454
40
10.00
1
#519
0
POINT
8
4
10
945.487
20
-287.226
30
10
50
45
0
POINT
8
2
10
945.487
20
-287.226
0
TEXT
8
2
10
945.487
20
-287.226
40
10.00
1
#520
0
POINT
8
4
10
1025.672
20
-367.413
30
10
50
45.0000000000005
0
POINT
8
2
10
1025.672
20
-367.413
0
TEXT
8
2
10
1025.672
20
-367.413
40
10.00
1
#521
0
POINT
8
2
10
1174.449
20
-516.19
0
TEXT
8
2
10
1174.449
20
-516.19
40
10.00
1
#522
0
POINT
8
2
10
1195.661
20
-494.976
0
TEXT
8
2
10
1195.661
20
-494.976
40
10.00
1
#509
0
LINE
8
7
10
962.315
20
-254.559
11
952.315
21
-254.559
0
POINT
8
2
10
962.315
20
-254.559
0
TEXT
8
2
10
962.315
20
-254.559
40
10.00
1
#1
0
POINT
8
2
10
952.315
20
-254.559
0
TEXT
8
2
10
952.315
20
-254.559
40
10.00
1
#1
0
TEXT
8
8
10
1035.978
20
-337.96
11
1088.987
21
-383.148
40
10.00
50
40.4462320208414
1
1 ADET TELASIZ
0
TEXT
8
1
10
952.315
20
-243.559
40
10.00
1
PIECE NAME: KAPSONBIYE
0
TEXT
8
1
10
952.315
20
-232.559
40
10.00
1
SIZE: 36
0
TEXT
8
1
10
952.315
20
-221.559
40
10.00
1
ANNOTATION: 
0
TEXT
8
1
10
952.315
20
-210.559
40
10.00
1
QUANTITY: 1
0
TEXT
8
1
10
952.315
20
-199.559
40
10.00
1
MATERIAL: KOMBÝN
0
ENDBLK
0
BLOCK
8
0
2
5
70
0
10
0.0000
20
0.0000
0
POLYLINE
8
1
66
1
70
1
0
VERTEX
8
1
10
806.268
20
-763.329
0
VERTEX
8
1
10
806.178
20
-772.4
0
VERTEX
8
1
10
807.378
20
-786.131
0
VERTEX
8
1
10
810.187
20
-799.826
0
VERTEX
8
1
10
814.585
20
-813.275
0
VERTEX
8
1
10
820.513
20
-826.253
0
VERTEX
8
1
10
827.883
20
-838.548
0
VERTEX
8
1
10
836.575
20
-849.95
0
VERTEX
8
1
10
846.424
20
-860.248
0
VERTEX
8
1
10
857.269
20
-869.294
0
VERTEX
8
1
10
863.325
20
-874.044
0
VERTEX
8
1
10
883.524
20
-888.182
0
VERTEX
8
1
10
915.149
20
-909.33
0
VERTEX
8
1
10
930.375
20
-921.151
0
VERTEX
8
1
10
936.792
20
-926.73
0
VERTEX
8
1
10
944.726
20
-935.456
0
VERTEX
8
1
10
951.47
20
-945.246
0
VERTEX
8
1
10
956.85
20
-955.87
0
VERTEX
8
1
10
960.754
20
-967.09
0
VERTEX
8
1
10
963.1
20
-978.658
0
VERTEX
8
1
10
963.851
20
-990.336
0
VERTEX
8
1
10
1456.996
20
-936.307
0
VERTEX
8
1
10
1516.996
20
-942.881
0
VERTEX
8
1
10
1516.996
20
-608.19
0
VERTEX
8
1
10
1456.996
20
-614.786
0
VERTEX
8
1
10
962.974
20
-560.476
0
VERTEX
8
1
10
962.86
20
-574.962
0
VERTEX
8
1
10
961.307
20
-586.7
0
VERTEX
8
1
10
958.49
20
-596.601
0
VERTEX
8
1
10
954.487
20
-605.083
0
VERTEX
8
1
10
948.861
20
-613.528
0
VERTEX
8
1
10
941
20
-622.308
0
VERTEX
8
1
10
930.365
20
-631.546
0
VERTEX
8
1
10
918.866
20
-639.827
0
VERTEX
8
1
10
892.662
20
-656.331
0
VERTEX
8
1
10
868.007
20
-671.957
0
VERTEX
8
1
10
862.01
20
-675.965
0
VERTEX
8
1
10
848.071
20
-686.58
0
VERTEX
8
1
10
836.269
20
-697.485
0
VERTEX
8
1
10
826.591
20
-708.503
0
VERTEX
8
1
10
818.96
20
-719.508
0
VERTEX
8
1
10
813.227
20
-730.469
0
VERTEX
8
1
10
809.264
20
-741.389
0
VERTEX
8
1
10
806.964
20
-752.322
0
VERTEX
8
1
10
806.268
20
-763.329
0
SEQEND
8
1
0
POINT
8
4
10
806.268
20
-763.329
30
10
50
359.226476618196
0
POINT
8
2
10
806.268
20
-763.329
0
TEXT
8
2
10
806.268
20
-763.329
40
10.00
1
#533
0
POINT
8
3
10
806.178
20
-772.4
0
POINT
8
3
10
807.378
20
-786.131
0
POINT
8
3
10
810.187
20
-799.826
0
POINT
8
3
10
814.585
20
-813.275
0
POINT
8
3
10
820.513
20
-826.253
0
POINT
8
3
10
827.883
20
-838.548
0
POINT
8
3
10
836.575
20
-849.95
0
POINT
8
3
10
846.424
20
-860.248
0
POINT
8
4
10
857.269
20
-869.294
30
10
50
51.0431442832224
0
POINT
8
2
10
857.269
20
-869.294
0
TEXT
8
2
10
857.269
20
-869.294
40
10.00
1
#534
0
POINT
8
3
10
863.325
20
-874.044
0
POINT
8
3
10
883.524
20
-888.182
0
POINT
8
3
10
915.149
20
-909.33
0
POINT
8
4
10
930.375
20
-921.151
30
10
50
49.2414824368187
0
POINT
8
2
10
930.375
20
-921.151
0
TEXT
8
2
10
930.375
20
-921.151
40
10.00
1
#535
0
POINT
8
3
10
936.792
20
-926.73
0
POINT
8
3
10
944.726
20
-935.456
0
POINT
8
3
10
951.47
20
-945.246
0
POINT
8
3
10
956.85
20
-955.87
0
POINT
8
3
10
960.754
20
-967.09
0
POINT
8
3
10
963.1
20
-978.658
0
POINT
8
2
10
963.851
20
-990.336
0
TEXT
8
2
10
963.851
20
-990.336
40
10.00
1
#536
0
POINT
8
4
10
1456.996
20
-936.307
30
10
50
90
0
POINT
8
2
10
1456.996
20
-936.307
0
TEXT
8
2
10
1456.996
20
-936.307
40
10.00
1
#537
0
POINT
8
2
10
1516.996
20
-942.881
0
TEXT
8
2
10
1516.996
20
-942.881
40
10.00
1
#538
0
POINT
8
2
10
1516.996
20
-608.19
0
TEXT
8
2
10
1516.996
20
-608.19
40
10.00
1
#539
0
POINT
8
4
10
1456.996
20
-614.786
30
10
50
270
0
POINT
8
2
10
1456.996
20
-614.786
0
TEXT
8
2
10
1456.996
20
-614.786
40
10.00
1
#540
0
POINT
8
2
10
962.974
20
-560.476
0
TEXT
8
2
10
962.974
20
-560.476
40
10.00
1
#541
0
POINT
8
3
10
962.86
20
-574.962
0
POINT
8
3
10
961.307
20
-586.7
0
POINT
8
3
10
958.49
20
-596.601
0
POINT
8
4
10
954.487
20
-605.083
30
10
50
330.638188837198
0
POINT
8
2
10
954.487
20
-605.083
0
TEXT
8
2
10
954.487
20
-605.083
40
10.00
1
#542
0
POINT
8
3
10
948.861
20
-613.528
0
POINT
8
3
10
941
20
-622.308
0
POINT
8
4
10
930.365
20
-631.546
30
10
50
307.986034504141
0
POINT
8
2
10
930.365
20
-631.546
0
TEXT
8
2
10
930.365
20
-631.546
40
10.00
1
#543
0
POINT
8
3
10
918.866
20
-639.827
0
POINT
8
3
10
892.662
20
-656.331
0
POINT
8
4
10
868.007
20
-671.957
30
10
50
304.192203170139
0
POINT
8
2
10
868.007
20
-671.957
0
TEXT
8
2
10
868.007
20
-671.957
40
10.00
1
#544
0
POINT
8
3
10
862.01
20
-675.965
0
POINT
8
3
10
848.071
20
-686.58
0
POINT
8
3
10
836.269
20
-697.485
0
POINT
8
3
10
826.591
20
-708.503
0
POINT
8
3
10
818.96
20
-719.508
0
POINT
8
3
10
813.227
20
-730.469
0
POINT
8
3
10
809.264
20
-741.389
0
POINT
8
3
10
806.964
20
-752.322
0
POINT
8
2
10
806.268
20
-763.329
0
TEXT
8
2
10
806.268
20
-763.329
40
10.00
1
#533
0
LINE
8
7
10
1235.823
20
-777.957
11
1018.67
21
-777.957
0
POINT
8
2
10
1235.823
20
-777.957
0
TEXT
8
2
10
1235.823
20
-777.957
40
10.00
1
#1
0
POINT
8
2
10
1018.67
20
-777.957
0
TEXT
8
2
10
1018.67
20
-777.957
40
10.00
1
#1
0
TEXT
8
1
10
1018.67
20
-766.957
40
10.00
1
PIECE NAME: KOL
0
TEXT
8
1
10
1018.67
20
-755.957
40
10.00
1
SIZE: 36
0
TEXT
8
1
10
1018.67
20
-744.957
40
10.00
1
ANNOTATION: 
0
TEXT
8
1
10
1018.67
20
-733.957
40
10.00
1
QUANTITY: 1
0
TEXT
8
1
10
1018.67
20
-722.957
40
10.00
1
MATERIAL: KUMAS
0
ENDBLK
0
BLOCK
8
0
2
6
70
0
10
0.0000
20
0.0000
0
POLYLINE
8
1
66
1
70
1
0
VERTEX
8
1
10
868.007
20
-878.855
0
VERTEX
8
1
10
892.662
20
-894.481
0
VERTEX
8
1
10
918.866
20
-910.985
0
VERTEX
8
1
10
930.365
20
-919.266
0
VERTEX
8
1
10
941
20
-928.504
0
VERTEX
8
1
10
948.861
20
-937.284
0
VERTEX
8
1
10
954.487
20
-945.729
0
VERTEX
8
1
10
958.49
20
-954.211
0
VERTEX
8
1
10
961.307
20
-964.112
0
VERTEX
8
1
10
962.86
20
-975.85
0
VERTEX
8
1
10
962.974
20
-990.336
0
VERTEX
8
1
10
1456.996
20
-936.026
0
VERTEX
8
1
10
1516.996
20
-942.622
0
VERTEX
8
1
10
1516.996
20
-607.931
0
VERTEX
8
1
10
1456.996
20
-614.505
0
VERTEX
8
1
10
963.851
20
-560.476
0
VERTEX
8
1
10
963.1
20
-572.154
0
VERTEX
8
1
10
960.754
20
-583.722
0
VERTEX
8
1
10
956.85
20
-594.942
0
VERTEX
8
1
10
951.47
20
-605.566
0
VERTEX
8
1
10
944.726
20
-615.356
0
VERTEX
8
1
10
936.792
20
-624.082
0
VERTEX
8
1
10
930.375
20
-629.661
0
VERTEX
8
1
10
915.149
20
-641.482
0
VERTEX
8
1
10
883.524
20
-662.63
0
VERTEX
8
1
10
863.325
20
-676.768
0
VERTEX
8
1
10
857.269
20
-681.518
0
VERTEX
8
1
10
846.424
20
-690.564
0
VERTEX
8
1
10
836.575
20
-700.862
0
VERTEX
8
1
10
827.883
20
-712.264
0
VERTEX
8
1
10
820.513
20
-724.559
0
VERTEX
8
1
10
814.585
20
-737.537
0
VERTEX
8
1
10
810.187
20
-750.986
0
VERTEX
8
1
10
807.378
20
-764.681
0
VERTEX
8
1
10
806.178
20
-778.412
0
VERTEX
8
1
10
806.268
20
-787.483
0
VERTEX
8
1
10
806.964
20
-798.49
0
VERTEX
8
1
10
809.264
20
-809.423
0
VERTEX
8
1
10
813.227
20
-820.343
0
VERTEX
8
1
10
818.96
20
-831.304
0
VERTEX
8
1
10
826.591
20
-842.309
0
VERTEX
8
1
10
836.269
20
-853.327
0
VERTEX
8
1
10
848.071
20
-864.232
0
VERTEX
8
1
10
862.01
20
-874.847
0
VERTEX
8
1
10
868.007
20
-878.855
0
SEQEND
8
1
0
POINT
8
4
10
868.007
20
-878.855
30
10
50
55.807796829861
0
POINT
8
2
10
868.007
20
-878.855
0
TEXT
8
2
10
868.007
20
-878.855
40
10.00
1
#40
0
POINT
8
3
10
892.662
20
-894.481
0
POINT
8
3
10
918.866
20
-910.985
0
POINT
8
4
10
930.365
20
-919.266
30
10
50
52.0139654958595
0
POINT
8
2
10
930.365
20
-919.266
0
TEXT
8
2
10
930.365
20
-919.266
40
10.00
1
#41
0
POINT
8
3
10
941
20
-928.504
0
POINT
8
3
10
948.861
20
-937.284
0
POINT
8
4
10
954.487
20
-945.729
30
10
50
29.3618111628016
0
POINT
8
2
10
954.487
20
-945.729
0
TEXT
8
2
10
954.487
20
-945.729
40
10.00
1
#42
0
POINT
8
3
10
958.49
20
-954.211
0
POINT
8
3
10
961.307
20
-964.112
0
POINT
8
3
10
962.86
20
-975.85
0
POINT
8
2
10
962.974
20
-990.336
0
TEXT
8
2
10
962.974
20
-990.336
40
10.00
1
#43
0
POINT
8
4
10
1456.996
20
-936.026
30
10
50
90
0
POINT
8
2
10
1456.996
20
-936.026
0
TEXT
8
2
10
1456.996
20
-936.026
40
10.00
1
#44
0
POINT
8
2
10
1516.996
20
-942.622
0
TEXT
8
2
10
1516.996
20
-942.622
40
10.00
1
#45
0
POINT
8
2
10
1516.996
20
-607.931
0
TEXT
8
2
10
1516.996
20
-607.931
40
10.00
1
#46
0
POINT
8
4
10
1456.996
20
-614.505
30
10
50
270
0
POINT
8
2
10
1456.996
20
-614.505
0
TEXT
8
2
10
1456.996
20
-614.505
40
10.00
1
#47
0
POINT
8
2
10
963.851
20
-560.476
0
TEXT
8
2
10
963.851
20
-560.476
40
10.00
1
#48
0
POINT
8
3
10
963.1
20
-572.154
0
POINT
8
3
10
960.754
20
-583.722
0
POINT
8
3
10
956.85
20
-594.942
0
POINT
8
3
10
951.47
20
-605.566
0
POINT
8
3
10
944.726
20
-615.356
0
POINT
8
3
10
936.792
20
-624.082
0
POINT
8
4
10
930.375
20
-629.661
30
10
50
310.758517563181
0
POINT
8
2
10
930.375
20
-629.661
0
TEXT
8
2
10
930.375
20
-629.661
40
10.00
1
#49
0
POINT
8
3
10
915.149
20
-641.482
0
POINT
8
3
10
883.524
20
-662.63
0
POINT
8
3
10
863.325
20
-676.768
0
POINT
8
4
10
857.269
20
-681.518
30
10
50
308.956855716778
0
POINT
8
2
10
857.269
20
-681.518
0
TEXT
8
2
10
857.269
20
-681.518
40
10.00
1
#50
0
POINT
8
3
10
846.424
20
-690.564
0
POINT
8
3
10
836.575
20
-700.862
0
POINT
8
3
10
827.883
20
-712.264
0
POINT
8
3
10
820.513
20
-724.559
0
POINT
8
3
10
814.585
20
-737.537
0
POINT
8
3
10
810.187
20
-750.986
0
POINT
8
3
10
807.378
20
-764.681
0
POINT
8
3
10
806.178
20
-778.412
0
POINT
8
4
10
806.268
20
-787.483
30
10
50
0.773523381803932
0
POINT
8
2
10
806.268
20
-787.483
0
TEXT
8
2
10
806.268
20
-787.483
40
10.00
1
#51
0
POINT
8
3
10
806.964
20
-798.49
0
POINT
8
3
10
809.264
20
-809.423
0
POINT
8
3
10
813.227
20
-820.343
0
POINT
8
3
10
818.96
20
-831.304
0
POINT
8
3
10
826.591
20
-842.309
0
POINT
8
3
10
836.269
20
-853.327
0
POINT
8
3
10
848.071
20
-864.232
0
POINT
8
3
10
862.01
20
-874.847
0
POINT
8
2
10
868.007
20
-878.855
0
TEXT
8
2
10
868.007
20
-878.855
40
10.00
1
#40
0
LINE
8
7
10
1235.823
20
-772.855
11
1018.67
21
-772.855
0
POINT
8
2
10
1235.823
20
-772.855
0
TEXT
8
2
10
1235.823
20
-772.855
40
10.00
1
#1
0
POINT
8
2
10
1018.67
20
-772.855
0
TEXT
8
2
10
1018.67
20
-772.855
40
10.00
1
#1
0
TEXT
8
1
10
1018.67
20
-761.855
40
10.00
1
PIECE NAME: KOLFY1
0
TEXT
8
1
10
1018.67
20
-750.855
40
10.00
1
SIZE: 36
0
TEXT
8
1
10
1018.67
20
-739.855
40
10.00
1
ANNOTATION: 
0
TEXT
8
1
10
1018.67
20
-728.855
40
10.00
1
QUANTITY: 1
0
TEXT
8
1
10
1018.67
20
-717.855
40
10.00
1
MATERIAL: KUMAS
0
ENDBLK
0
BLOCK
8
0
2
7
70
0
10
0.0000
20
0.0000
0
POLYLINE
8
1
66
1
70
1
0
VERTEX
8
1
10
1554.476
20
-1325.451
0
VERTEX
8
1
10
1554.04
20
-1327.312
0
VERTEX
8
1
10
1535.429
20
-1399.904
0
VERTEX
8
1
10
1527.044
20
-1435.912
0
VERTEX
8
1
10
1522.022
20
-1463.821
0
VERTEX
8
1
10
1519.157
20
-1488.225
0
VERTEX
8
1
10
1518.079
20
-1510.552
0
VERTEX
8
1
10
1518.46
20
-1522.326
0
VERTEX
8
1
10
1520.356
20
-1535.683
0
VERTEX
8
1
10
1523.782
20
-1548.545
0
VERTEX
8
1
10
1528.671
20
-1560.739
0
VERTEX
8
1
10
1534.954
20
-1572.154
0
VERTEX
8
1
10
1542.53
20
-1582.63
0
VERTEX
8
1
10
1551.292
20
-1592.037
0
VERTEX
8
1
10
1561.123
20
-1600.261
0
VERTEX
8
1
10
1571.872
20
-1607.182
0
VERTEX
8
1
10
1583.403
20
-1612.715
0
VERTEX
8
1
10
1595.607
20
-1616.798
0
VERTEX
8
1
10
1608.346
20
-1619.373
0
VERTEX
8
1
10
1621.546
20
-1620.4
0
VERTEX
8
1
10
1635.078
20
-1619.833
0
VERTEX
8
1
10
1648.02
20
-1619.911
0
VERTEX
8
1
10
1676.306
20
-1618.804
0
VERTEX
8
1
10
1695.012
20
-1617.305
0
VERTEX
8
1
10
1763.845
20
-1609.496
0
VERTEX
8
1
10
1800.742
20
-1606.046
0
VERTEX
8
1
10
1837.926
20
-1604.686
0
VERTEX
8
1
10
1838.381
20
-1591.292
0
VERTEX
8
1
10
1840.496
20
-1576.94
0
VERTEX
8
1
10
1844.432
20
-1561.665
0
VERTEX
8
1
10
1850.428
20
-1545.186
0
VERTEX
8
1
10
1858.9
20
-1526.926
0
VERTEX
8
1
10
1863.578
20
-1517.199
0
VERTEX
8
1
10
1873.377
20
-1494.257
0
VERTEX
8
1
10
1881.308
20
-1471.709
0
VERTEX
8
1
10
1887.413
20
-1449.634
0
VERTEX
8
1
10
1891.759
20
-1428.035
0
VERTEX
8
1
10
1894.409
20
-1406.902
0
VERTEX
8
1
10
1554.476
20
-1325.451
0
SEQEND
8
1
0
POINT
8
2
10
1554.476
20
-1325.451
0
TEXT
8
2
10
1554.476
20
-1325.451
40
10.00
1
#553
0
POINT
8
3
10
1554.04
20
-1327.312
0
POINT
8
3
10
1535.429
20
-1399.904
0
POINT
8
3
10
1527.044
20
-1435.912
0
POINT
8
3
10
1522.022
20
-1463.821
0
POINT
8
3
10
1519.157
20
-1488.225
0
POINT
8
4
10
1518.079
20
-1510.552
30
10
50
359.238011059765
0
POINT
8
2
10
1518.079
20
-1510.552
0
TEXT
8
2
10
1518.079
20
-1510.552
40
10.00
1
#554
0
POINT
8
3
10
1518.46
20
-1522.326
0
POINT
8
3
10
1520.356
20
-1535.683
0
POINT
8
3
10
1523.782
20
-1548.545
0
POINT
8
3
10
1528.671
20
-1560.739
0
POINT
8
3
10
1534.954
20
-1572.154
0
POINT
8
3
10
1542.53
20
-1582.63
0
POINT
8
3
10
1551.292
20
-1592.037
0
POINT
8
3
10
1561.123
20
-1600.261
0
POINT
8
3
10
1571.872
20
-1607.182
0
POINT
8
3
10
1583.403
20
-1612.715
0
POINT
8
3
10
1595.607
20
-1616.798
0
POINT
8
3
10
1608.346
20
-1619.373
0
POINT
8
3
10
1621.546
20
-1620.4
0
POINT
8
4
10
1635.078
20
-1619.833
30
10
50
88.7509000752094
0
POINT
8
2
10
1635.078
20
-1619.833
0
TEXT
8
2
10
1635.078
20
-1619.833
40
10.00
1
#555
0
POINT
8
3
10
1648.02
20
-1619.911
0
POINT
8
3
10
1676.306
20
-1618.804
0
POINT
8
3
10
1695.012
20
-1617.305
0
POINT
8
3
10
1763.845
20
-1609.496
0
POINT
8
3
10
1800.742
20
-1606.046
0
POINT
8
2
10
1837.926
20
-1604.686
0
TEXT
8
2
10
1837.926
20
-1604.686
40
10.00
1
#556
0
POINT
8
3
10
1838.381
20
-1591.292
0
POINT
8
3
10
1840.496
20
-1576.94
0
POINT
8
3
10
1844.432
20
-1561.665
0
POINT
8
3
10
1850.428
20
-1545.186
0
POINT
8
4
10
1858.9
20
-1526.926
30
10
50
153.919278566089
0
POINT
8
2
10
1858.9
20
-1526.926
0
TEXT
8
2
10
1858.9
20
-1526.926
40
10.00
1
#557
0
POINT
8
3
10
1863.578
20
-1517.199
0
POINT
8
3
10
1873.377
20
-1494.257
0
POINT
8
3
10
1881.308
20
-1471.709
0
POINT
8
3
10
1887.413
20
-1449.634
0
POINT
8
3
10
1891.759
20
-1428.035
0
POINT
8
2
10
1894.409
20
-1406.902
0
TEXT
8
2
10
1894.409
20
-1406.902
40
10.00
1
#558
0
POINT
8
2
10
1554.476
20
-1325.451
0
TEXT
8
2
10
1554.476
20
-1325.451
40
10.00
1
#553
0
LINE
8
7
10
1760.221
20
-1469.959
11
1660.145
21
-1469.959
0
POINT
8
2
10
1760.221
20
-1469.959
0
TEXT
8
2
10
1760.221
20
-1469.959
40
10.00
1
#1
0
POINT
8
2
10
1660.145
20
-1469.959
0
TEXT
8
2
10
1660.145
20
-1469.959
40
10.00
1
#1
0
TEXT
8
8
10
1731.68
20
-1555.918
11
1812.712
21
-1474.671
40
10.00
50
314.924090083204
1
2 ADET TELASIZ
0
TEXT
8
1
10
1660.145
20
-1458.959
40
10.00
1
PIECE NAME: KPSN
0
TEXT
8
1
10
1660.145
20
-1447.959
40
10.00
1
SIZE: 36
0
TEXT
8
1
10
1660.145
20
-1436.959
40
10.00
1
ANNOTATION: 
0
TEXT
8
1
10
1660.145
20
-1425.959
40
10.00
1
QUANTITY: 1
0
TEXT
8
1
10
1660.145
20
-1414.959
40
10.00
1
MATERIAL: KOMBÝN
0
ENDBLK
0
BLOCK
8
0
2
8
70
0
10
0.0000
20
0.0000
0
POLYLINE
8
1
66
1
70
1
0
VERTEX
8
1
10
1488.403
20
-1650.036
0
VERTEX
8
1
10
1488.403
20
-1740.036
0
VERTEX
8
1
10
1628.403
20
-1740.036
0
VERTEX
8
1
10
1660.302
20
-1740.036
0
VERTEX
8
1
10
1826.302
20
-1740.036
0
VERTEX
8
1
10
2029.403
20
-1740.036
0
VERTEX
8
1
10
2029.403
20
-1695.036
0
VERTEX
8
1
10
2029.403
20
-1650.036
0
VERTEX
8
1
10
1826.302
20
-1650.036
0
VERTEX
8
1
10
1660.302
20
-1650.036
0
VERTEX
8
1
10
1628.403
20
-1650.036
0
VERTEX
8
1
10
1488.403
20
-1650.036
0
SEQEND
8
1
0
POINT
8
2
10
1488.403
20
-1650.036
0
TEXT
8
2
10
1488.403
20
-1650.036
40
10.00
1
#562
0
POINT
8
2
10
1488.403
20
-1740.036
0
TEXT
8
2
10
1488.403
20
-1740.036
40
10.00
1
#563
0
POINT
8
4
10
1628.403
20
-1740.036
30
10
50
90
0
POINT
8
2
10
1628.403
20
-1740.036
0
TEXT
8
2
10
1628.403
20
-1740.036
40
10.00
1
#564
0
POINT
8
4
10
1660.302
20
-1740.036
30
10
50
90
0
POINT
8
2
10
1660.302
20
-1740.036
0
TEXT
8
2
10
1660.302
20
-1740.036
40
10.00
1
#565
0
POINT
8
4
10
1826.302
20
-1740.036
30
10
50
90
0
POINT
8
2
10
1826.302
20
-1740.036
0
TEXT
8
2
10
1826.302
20
-1740.036
40
10.00
1
#566
0
POINT
8
2
10
2029.403
20
-1740.036
0
TEXT
8
2
10
2029.403
20
-1740.036
40
10.00
1
#567
0
POINT
8
4
10
2029.403
20
-1695.036
30
10
50
180
0
POINT
8
2
10
2029.403
20
-1695.036
0
TEXT
8
2
10
2029.403
20
-1695.036
40
10.00
1
#568
0
POINT
8
2
10
2029.403
20
-1650.036
0
TEXT
8
2
10
2029.403
20
-1650.036
40
10.00
1
#569
0
POINT
8
4
10
1826.302
20
-1650.036
30
10
50
270
0
POINT
8
2
10
1826.302
20
-1650.036
0
TEXT
8
2
10
1826.302
20
-1650.036
40
10.00
1
#570
0
POINT
8
4
10
1660.302
20
-1650.036
30
10
50
270
0
POINT
8
2
10
1660.302
20
-1650.036
0
TEXT
8
2
10
1660.302
20
-1650.036
40
10.00
1
#571
0
POINT
8
4
10
1628.403
20
-1650.036
30
10
50
270
0
POINT
8
2
10
1628.403
20
-1650.036
0
TEXT
8
2
10
1628.403
20
-1650.036
40
10.00
1
#572
0
POINT
8
2
10
1488.403
20
-1650.036
0
TEXT
8
2
10
1488.403
20
-1650.036
40
10.00
1
#562
0
LINE
8
7
10
1837.069
20
-1695.036
11
1674.737
21
-1695.036
0
POINT
8
2
10
1837.069
20
-1695.036
0
TEXT
8
2
10
1837.069
20
-1695.036
40
10.00
1
#1
0
POINT
8
2
10
1674.737
20
-1695.036
0
TEXT
8
2
10
1674.737
20
-1695.036
40
10.00
1
#1
0
TEXT
8
8
10
1865.929
20
-1713.547
11
2016.403
21
-1680.003
40
10.00
50
347.432977749696
1
1 ADET TELASIZ
0
TEXT
8
1
10
1674.737
20
-1684.036
40
10.00
1
PIECE NAME: KPSNORT
0
TEXT
8
1
10
1674.737
20
-1673.036
40
10.00
1
SIZE: 36
0
TEXT
8
1
10
1674.737
20
-1662.036
40
10.00
1
ANNOTATION: 
0
TEXT
8
1
10
1674.737
20
-1651.036
40
10.00
1
QUANTITY: 1
0
TEXT
8
1
10
1674.737
20
-1640.036
40
10.00
1
MATERIAL: KOMBÝN
0
ENDBLK
0
BLOCK
8
0
2
9
70
0
10
0.0000
20
0.0000
0
POLYLINE
8
1
66
1
70
1
0
VERTEX
8
1
10
1511.091
20
-438.643
0
VERTEX
8
1
10
1529.765
20
-485.025
0
VERTEX
8
1
10
1556.708
20
-551.951
0
VERTEX
8
1
10
1569.942
20
-546.903
0
VERTEX
8
1
10
1586.637
20
-542.278
0
VERTEX
8
1
10
1607.377
20
-538.394
0
VERTEX
8
1
10
1655.69
20
-532.528
0
VERTEX
8
1
10
1658.079
20
-532.317
0
VERTEX
8
1
10
1680.416
20
-531.038
0
VERTEX
8
1
10
1696.667
20
-531.527
0
VERTEX
8
1
10
1710.294
20
-533.423
0
VERTEX
8
1
10
1722.269
20
-536.626
0
VERTEX
8
1
10
1728.987
20
-539.437
0
VERTEX
8
1
10
1736.835
20
-544.211
0
VERTEX
8
1
10
1743.327
20
-549.967
0
VERTEX
8
1
10
1748.349
20
-556.489
0
VERTEX
8
1
10
1751.335
20
-561.849
0
VERTEX
8
1
10
1756.547
20
-575.451
0
VERTEX
8
1
10
1798.616
20
-569.639
0
VERTEX
8
1
10
1837.977
20
-564.809
0
VERTEX
8
1
10
1865.728
20
-562.823
0
VERTEX
8
1
10
1889.316
20
-562.628
0
VERTEX
8
1
10
1910.503
20
-563.976
0
VERTEX
8
1
10
1920.051
20
-565.141
0
VERTEX
8
1
10
1929.522
20
-566.544
0
VERTEX
8
1
10
1969.716
20
-573.659
0
VERTEX
8
1
10
1986.594
20
-577.037
0
VERTEX
8
1
10
2064.701
20
-592.913
0
VERTEX
8
1
10
2102.483
20
-599.204
0
VERTEX
8
1
10
2117.853
20
-601.235
0
VERTEX
8
1
10
2144.469
20
-604.215
0
VERTEX
8
1
10
2199.695
20
-609.115
0
VERTEX
8
1
10
2263.451
20
-613.033
0
VERTEX
8
1
10
2345.796
20
-616.226
0
VERTEX
8
1
10
2355.814
20
-616.518
0
VERTEX
8
1
10
2392.036
20
-617.384
0
VERTEX
8
1
10
2496.243
20
-618.592
0
VERTEX
8
1
10
2578.354
20
-618.679
0
VERTEX
8
1
10
2638.354
20
-618.744
0
VERTEX
8
1
10
2638.354
20
-397.704
0
VERTEX
8
1
10
2638.354
20
-327.686
0
VERTEX
8
1
10
2578.354
20
-327.704
0
VERTEX
8
1
10
1595.158
20
-327.985
0
VERTEX
8
1
10
1595.173
20
-338.629
0
VERTEX
8
1
10
1594.186
20
-353.555
0
VERTEX
8
1
10
1591.957
20
-365.226
0
VERTEX
8
1
10
1590.989
20
-368.987
0
VERTEX
8
1
10
1587.232
20
-379.242
0
VERTEX
8
1
10
1581.919
20
-389.065
0
VERTEX
8
1
10
1574.957
20
-398.502
0
VERTEX
8
1
10
1566.21
20
-407.572
0
VERTEX
8
1
10
1555.535
20
-416.233
0
VERTEX
8
1
10
1542.804
20
-424.406
0
VERTEX
8
1
10
1527.955
20
-431.946
0
VERTEX
8
1
10
1511.091
20
-438.643
0
SEQEND
8
1
0
POINT
8
2
10
1511.091
20
-438.643
0
TEXT
8
2
10
1511.091
20
-438.643
40
10.00
1
#580
0
POINT
8
2
10
1529.765
20
-485.025
0
TEXT
8
2
10
1529.765
20
-485.025
40
10.00
1
#581
0
POINT
8
2
10
1556.708
20
-551.951
0
TEXT
8
2
10
1556.708
20
-551.951
40
10.00
1
#582
0
POINT
8
3
10
1569.942
20
-546.903
0
POINT
8
3
10
1586.637
20
-542.278
0
POINT
8
3
10
1607.377
20
-538.394
0
POINT
8
4
10
1655.69
20
-532.528
30
10
50
95.7453727906129
0
POINT
8
2
10
1655.69
20
-532.528
0
TEXT
8
2
10
1655.69
20
-532.528
40
10.00
1
#583
0
POINT
8
3
10
1658.079
20
-532.317
0
POINT
8
3
10
1680.416
20
-531.038
0
POINT
8
3
10
1696.667
20
-531.527
0
POINT
8
3
10
1710.294
20
-533.423
0
POINT
8
4
10
1722.269
20
-536.626
30
10
50
70.3581251702257
0
POINT
8
2
10
1722.269
20
-536.626
0
TEXT
8
2
10
1722.269
20
-536.626
40
10.00
1
#584
0
POINT
8
3
10
1728.987
20
-539.437
0
POINT
8
3
10
1736.835
20
-544.211
0
POINT
8
3
10
1743.327
20
-549.967
0
POINT
8
4
10
1748.349
20
-556.489
30
10
50
32.6285085481208
0
POINT
8
2
10
1748.349
20
-556.489
0
TEXT
8
2
10
1748.349
20
-556.489
40
10.00
1
#585
0
POINT
8
3
10
1751.335
20
-561.849
0
POINT
8
2
10
1756.547
20
-575.451
0
TEXT
8
2
10
1756.547
20
-575.451
40
10.00
1
#586
0
POINT
8
3
10
1798.616
20
-569.639
0
POINT
8
3
10
1837.977
20
-564.809
0
POINT
8
3
10
1865.728
20
-562.823
0
POINT
8
3
10
1889.316
20
-562.628
0
POINT
8
4
10
1910.503
20
-563.976
30
10
50
84.1337555735609
0
POINT
8
2
10
1910.503
20
-563.976
0
TEXT
8
2
10
1910.503
20
-563.976
40
10.00
1
#587
0
POINT
8
4
10
1920.051
20
-565.141
30
10
50
81.9355248091988
0
POINT
8
2
10
1920.051
20
-565.141
0
TEXT
8
2
10
1920.051
20
-565.141
40
10.00
1
#588
0
POINT
8
3
10
1929.522
20
-566.544
0
POINT
8
4
10
1969.716
20
-573.659
30
10
50
78.9664657772316
0
POINT
8
2
10
1969.716
20
-573.659
0
TEXT
8
2
10
1969.716
20
-573.659
40
10.00
1
#589
0
POINT
8
3
10
1986.594
20
-577.037
0
POINT
8
3
10
2064.701
20
-592.913
0
POINT
8
3
10
2102.483
20
-599.204
0
POINT
8
4
10
2117.853
20
-601.235
30
10
50
83.1365187782929
0
POINT
8
2
10
2117.853
20
-601.235
0
TEXT
8
2
10
2117.853
20
-601.235
40
10.00
1
#590
0
POINT
8
3
10
2144.469
20
-604.215
0
POINT
8
3
10
2199.695
20
-609.115
0
POINT
8
3
10
2263.451
20
-613.033
0
POINT
8
4
10
2345.796
20
-616.226
30
10
50
88.2637748101128
0
POINT
8
2
10
2345.796
20
-616.226
0
TEXT
8
2
10
2345.796
20
-616.226
40
10.00
1
#591
0
POINT
8
4
10
2355.814
20
-616.518
30
10
50
88.3956561771251
0
POINT
8
2
10
2355.814
20
-616.518
0
TEXT
8
2
10
2355.814
20
-616.518
40
10.00
1
#592
0
POINT
8
3
10
2392.036
20
-617.384
0
POINT
8
3
10
2496.243
20
-618.592
0
POINT
8
4
10
2578.354
20
-618.679
30
10
50
90
0
POINT
8
2
10
2578.354
20
-618.679
0
TEXT
8
2
10
2578.354
20
-618.679
40
10.00
1
#593
0
POINT
8
2
10
2638.354
20
-618.744
0
TEXT
8
2
10
2638.354
20
-618.744
40
10.00
1
#594
0
POINT
8
2
10
2638.354
20
-397.704
0
TEXT
8
2
10
2638.354
20
-397.704
40
10.00
1
#595
0
POINT
8
2
10
2638.354
20
-327.686
0
TEXT
8
2
10
2638.354
20
-327.686
40
10.00
1
#596
0
POINT
8
4
10
2578.354
20
-327.704
30
10
50
270
0
POINT
8
2
10
2578.354
20
-327.704
0
TEXT
8
2
10
2578.354
20
-327.704
40
10.00
1
#597
0
POINT
8
2
10
1595.158
20
-327.985
0
TEXT
8
2
10
1595.158
20
-327.985
40
10.00
1
#598
0
POINT
8
3
10
1595.173
20
-338.629
0
POINT
8
3
10
1594.186
20
-353.555
0
POINT
8
4
10
1591.957
20
-365.226
30
10
50
345.683067402671
0
POINT
8
2
10
1591.957
20
-365.226
0
TEXT
8
2
10
1591.957
20
-365.226
40
10.00
1
#599
0
POINT
8
3
10
1590.989
20
-368.987
0
POINT
8
3
10
1587.232
20
-379.242
0
POINT
8
3
10
1581.919
20
-389.065
0
POINT
8
3
10
1574.957
20
-398.502
0
POINT
8
3
10
1566.21
20
-407.572
0
POINT
8
3
10
1555.535
20
-416.233
0
POINT
8
3
10
1542.804
20
-424.406
0
POINT
8
3
10
1527.955
20
-431.946
0
POINT
8
2
10
1511.091
20
-438.643
0
TEXT
8
2
10
1511.091
20
-438.643
40
10.00
1
#580
0
LINE
8
7
10
2226.935
20
-473.224
11
1875.519
21
-473.224
0
POINT
8
2
10
2226.935
20
-473.224
0
TEXT
8
2
10
2226.935
20
-473.224
40
10.00
1
#1
0
POINT
8
2
10
1875.519
20
-473.224
0
TEXT
8
2
10
1875.519
20
-473.224
40
10.00
1
#1
0
TEXT
8
1
10
1875.519
20
-462.224
40
10.00
1
PIECE NAME: ON
0
TEXT
8
1
10
1875.519
20
-451.224
40
10.00
1
SIZE: 36
0
TEXT
8
1
10
1875.519
20
-440.224
40
10.00
1
ANNOTATION: 
0
TEXT
8
1
10
1875.519
20
-429.224
40
10.00
1
QUANTITY: 1
0
TEXT
8
1
10
1875.519
20
-418.224
40
10.00
1
MATERIAL: KUMAS
0
ENDBLK
0
BLOCK
8
0
2
10
70
0
10
0.0000
20
0.0000
0
POLYLINE
8
1
66
1
70
1
0
VERTEX
8
1
10
1488.515
20
-1183.53
0
VERTEX
8
1
10
1490.295
20
-1183.875
0
VERTEX
8
1
10
1496.048
20
-1186.002
0
VERTEX
8
1
10
1501.124
20
-1189.596
0
VERTEX
8
1
10
1505.644
20
-1194.871
0
VERTEX
8
1
10
1509.628
20
-1202.213
0
VERTEX
8
1
10
1512.989
20
-1212.163
0
VERTEX
8
1
10
1515.579
20
-1225.534
0
VERTEX
8
1
10
1517.19
20
-1243.643
0
VERTEX
8
1
10
1517.69
20
-1277.266
0
VERTEX
8
1
10
1518.354
20
-1291.339
0
VERTEX
8
1
10
1628.354
20
-1291.326
0
VERTEX
8
1
10
1660.446
20
-1291.263
0
VERTEX
8
1
10
1710.247
20
-1289.598
0
VERTEX
8
1
10
1808.432
20
-1283.627
0
VERTEX
8
1
10
1872.086
20
-1280.282
0
VERTEX
8
1
10
1918.015
20
-1279.291
0
VERTEX
8
1
10
1944.693
20
-1279.878
0
VERTEX
8
1
10
1963.099
20
-1280.859
0
VERTEX
8
1
10
2067.519
20
-1289.386
0
VERTEX
8
1
10
2103.697
20
-1291.092
0
VERTEX
8
1
10
2118.015
20
-1291.261
0
VERTEX
8
1
10
2578.354
20
-1291.193
0
VERTEX
8
1
10
2638.354
20
-1291.184
0
VERTEX
8
1
10
2638.354
20
-978.745
0
VERTEX
8
1
10
2578.354
20
-978.782
0
VERTEX
8
1
10
2500.833
20
-978.833
0
VERTEX
8
1
10
2444.394
20
-979.201
0
VERTEX
8
1
10
2355.841
20
-980.839
0
VERTEX
8
1
10
2334.048
20
-981.511
0
VERTEX
8
1
10
2258.751
20
-984.802
0
VERTEX
8
1
10
2190.777
20
-989.299
0
VERTEX
8
1
10
2127.943
20
-995.002
0
VERTEX
8
1
10
2112.682
20
-996.778
0
VERTEX
8
1
10
2077.521
20
-1002.169
0
VERTEX
8
1
10
2028.046
20
-1011.783
0
VERTEX
8
1
10
1957.574
20
-1026.112
0
VERTEX
8
1
10
1920.064
20
-1032.346
0
VERTEX
8
1
10
1910.622
20
-1033.511
0
VERTEX
8
1
10
1889.435
20
-1034.895
0
VERTEX
8
1
10
1865.814
20
-1034.743
0
VERTEX
8
1
10
1838.356
20
-1032.826
0
VERTEX
8
1
10
1824.938
20
-1031.388
0
VERTEX
8
1
10
1755.792
20
-1021.883
0
VERTEX
8
1
10
1752.07
20
-1029.964
0
VERTEX
8
1
10
1746.395
20
-1038.635
0
VERTEX
8
1
10
1739.192
20
-1046.672
0
VERTEX
8
1
10
1730.578
20
-1053.853
0
VERTEX
8
1
10
1720.778
20
-1059.924
0
VERTEX
8
1
10
1714.468
20
-1063.107
0
VERTEX
8
1
10
1700.09
20
-1068.998
0
VERTEX
8
1
10
1683.741
20
-1073.881
0
VERTEX
8
1
10
1664.73
20
-1077.771
0
VERTEX
8
1
10
1641.363
20
-1080.733
0
VERTEX
8
1
10
1632.846
20
-1081.133
0
VERTEX
8
1
10
1603.347
20
-1081.761
0
VERTEX
8
1
10
1581.945
20
-1080.8
0
VERTEX
8
1
10
1563.997
20
-1078.51
0
VERTEX
8
1
10
1548.25
20
-1074.972
0
VERTEX
8
1
10
1534.132
20
-1070.222
0
VERTEX
8
1
10
1507.189
20
-1137.147
0
VERTEX
8
1
10
1488.515
20
-1183.53
0
SEQEND
8
1
0
POINT
8
2
10
1488.515
20
-1183.53
0
TEXT
8
2
10
1488.515
20
-1183.53
40
10.00
1
#612
0
POINT
8
3
10
1490.295
20
-1183.875
0
POINT
8
3
10
1496.048
20
-1186.002
0
POINT
8
3
10
1501.124
20
-1189.596
0
POINT
8
3
10
1505.644
20
-1194.871
0
POINT
8
3
10
1509.628
20
-1202.213
0
POINT
8
3
10
1512.989
20
-1212.163
0
POINT
8
3
10
1515.579
20
-1225.534
0
POINT
8
3
10
1517.19
20
-1243.643
0
POINT
8
3
10
1517.69
20
-1277.266
0
POINT
8
2
10
1518.354
20
-1291.339
0
TEXT
8
2
10
1518.354
20
-1291.339
40
10.00
1
#613
0
POINT
8
2
10
1628.354
20
-1291.326
0
TEXT
8
2
10
1628.354
20
-1291.326
40
10.00
1
#614
0
POINT
8
3
10
1660.446
20
-1291.263
0
POINT
8
3
10
1710.247
20
-1289.598
0
POINT
8
3
10
1808.432
20
-1283.627
0
POINT
8
3
10
1872.086
20
-1280.282
0
POINT
8
4
10
1918.015
20
-1279.291
30
10
50
90.0057301509485
0
POINT
8
2
10
1918.015
20
-1279.291
0
TEXT
8
2
10
1918.015
20
-1279.291
40
10.00
1
#615
0
POINT
8
3
10
1944.693
20
-1279.878
0
POINT
8
3
10
1963.099
20
-1280.859
0
POINT
8
3
10
2067.519
20
-1289.386
0
POINT
8
3
10
2103.697
20
-1291.092
0
POINT
8
4
10
2118.015
20
-1291.261
30
10
50
90.0057301509459
0
POINT
8
2
10
2118.015
20
-1291.261
0
TEXT
8
2
10
2118.015
20
-1291.261
40
10.00
1
#616
0
POINT
8
4
10
2578.354
20
-1291.193
30
10
50
90
0
POINT
8
2
10
2578.354
20
-1291.193
0
TEXT
8
2
10
2578.354
20
-1291.193
40
10.00
1
#617
0
POINT
8
2
10
2638.354
20
-1291.184
0
TEXT
8
2
10
2638.354
20
-1291.184
40
10.00
1
#618
0
POINT
8
2
10
2638.354
20
-978.745
0
TEXT
8
2
10
2638.354
20
-978.745
40
10.00
1
#619
0
POINT
8
4
10
2578.354
20
-978.782
30
10
50
270
0
POINT
8
2
10
2578.354
20
-978.782
0
TEXT
8
2
10
2578.354
20
-978.782
40
10.00
1
#620
0
POINT
8
3
10
2500.833
20
-978.833
0
POINT
8
3
10
2444.394
20
-979.201
0
POINT
8
4
10
2355.841
20
-980.839
30
10
50
271.621686223241
0
POINT
8
2
10
2355.841
20
-980.839
0
TEXT
8
2
10
2355.841
20
-980.839
40
10.00
1
#621
0
POINT
8
3
10
2334.048
20
-981.511
0
POINT
8
3
10
2258.751
20
-984.802
0
POINT
8
3
10
2190.777
20
-989.299
0
POINT
8
4
10
2127.943
20
-995.002
30
10
50
275.923237936949
0
POINT
8
2
10
2127.943
20
-995.002
0
TEXT
8
2
10
2127.943
20
-995.002
40
10.00
1
#622
0
POINT
8
3
10
2112.682
20
-996.778
0
POINT
8
3
10
2077.521
20
-1002.169
0
POINT
8
3
10
2028.046
20
-1011.783
0
POINT
8
3
10
1957.574
20
-1026.112
0
POINT
8
4
10
1920.064
20
-1032.346
30
10
50
278.104985776089
0
POINT
8
2
10
1920.064
20
-1032.346
0
TEXT
8
2
10
1920.064
20
-1032.346
40
10.00
1
#623
0
POINT
8
3
10
1910.622
20
-1033.511
0
POINT
8
3
10
1889.435
20
-1034.895
0
POINT
8
3
10
1865.814
20
-1034.743
0
POINT
8
4
10
1838.356
20
-1032.826
30
10
50
264.47926699807
0
POINT
8
2
10
1838.356
20
-1032.826
0
TEXT
8
2
10
1838.356
20
-1032.826
40
10.00
1
#624
0
POINT
8
3
10
1824.938
20
-1031.388
0
POINT
8
2
10
1755.792
20
-1021.883
0
TEXT
8
2
10
1755.792
20
-1021.883
40
10.00
1
#625
0
POINT
8
3
10
1752.07
20
-1029.964
0
POINT
8
3
10
1746.395
20
-1038.635
0
POINT
8
3
10
1739.192
20
-1046.672
0
POINT
8
3
10
1730.578
20
-1053.853
0
POINT
8
4
10
1720.778
20
-1059.924
30
10
50
298.797489400486
0
POINT
8
2
10
1720.778
20
-1059.924
0
TEXT
8
2
10
1720.778
20
-1059.924
40
10.00
1
#626
0
POINT
8
3
10
1714.468
20
-1063.107
0
POINT
8
3
10
1700.09
20
-1068.998
0
POINT
8
3
10
1683.741
20
-1073.881
0
POINT
8
3
10
1664.73
20
-1077.771
0
POINT
8
4
10
1641.363
20
-1080.733
30
10
50
275.100025300682
0
POINT
8
2
10
1641.363
20
-1080.733
0
TEXT
8
2
10
1641.363
20
-1080.733
40
10.00
1
#627
0
POINT
8
3
10
1632.846
20
-1081.133
0
POINT
8
3
10
1603.347
20
-1081.761
0
POINT
8
3
10
1581.945
20
-1080.8
0
POINT
8
3
10
1563.997
20
-1078.51
0
POINT
8
3
10
1548.25
20
-1074.972
0
POINT
8
2
10
1534.132
20
-1070.222
0
TEXT
8
2
10
1534.132
20
-1070.222
40
10.00
1
#628
0
POINT
8
2
10
1507.189
20
-1137.147
0
TEXT
8
2
10
1507.189
20
-1137.147
40
10.00
1
#629
0
POINT
8
2
10
1488.515
20
-1183.53
0
TEXT
8
2
10
1488.515
20
-1183.53
40
10.00
1
#612
0
LINE
8
7
10
2219.411
20
-1135.041
11
1860.467
21
-1135.041
0
POINT
8
2
10
2219.411
20
-1135.041
0
TEXT
8
2
10
2219.411
20
-1135.041
40
10.00
1
#1
0
POINT
8
2
10
1860.467
20
-1135.041
0
TEXT
8
2
10
1860.467
20
-1135.041
40
10.00
1
#1
0
TEXT
8
1
10
1860.467
20
-1124.041
40
10.00
1
PIECE NAME: ARKA
0
TEXT
8
1
10
1860.467
20
-1113.041
40
10.00
1
SIZE: 36
0
TEXT
8
1
10
1860.467
20
-1102.041
40
10.00
1
ANNOTATION: 
0
TEXT
8
1
10
1860.467
20
-1091.041
40
10.00
1
QUANTITY: 1
0
TEXT
8
1
10
1860.467
20
-1080.041
40
10.00
1
MATERIAL: KUMAS
0
ENDBLK
0
BLOCK
8
0
2
11
70
0
10
0.0000
20
0.0000
0
POLYLINE
8
1
66
1
70
1
0
VERTEX
8
1
10
1748.877
20
-808.745
0
VERTEX
8
1
10
1748.005
20
-838.442
0
VERTEX
8
1
10
1747.859
20
-843.424
0
VERTEX
8
1
10
1747.661
20
-848.361
0
VERTEX
8
1
10
1746.445
20
-878.745
0
VERTEX
8
1
10
1917.554
20
-878.745
0
VERTEX
8
1
10
2128.453
20
-878.745
0
VERTEX
8
1
10
2356.054
20
-878.745
0
VERTEX
8
1
10
2578.354
20
-878.745
0
VERTEX
8
1
10
2638.354
20
-878.745
0
VERTEX
8
1
10
2638.354
20
-848.745
0
VERTEX
8
1
10
2638.354
20
-838.745
0
VERTEX
8
1
10
2638.354
20
-808.745
0
VERTEX
8
1
10
2578.354
20
-808.745
0
VERTEX
8
1
10
2356.088
20
-808.745
0
VERTEX
8
1
10
2346.088
20
-808.745
0
VERTEX
8
1
10
2118.488
20
-808.745
0
VERTEX
8
1
10
1968.488
20
-808.745
0
VERTEX
8
1
10
1917.588
20
-808.745
0
VERTEX
8
1
10
1907.588
20
-808.745
0
VERTEX
8
1
10
1748.877
20
-808.745
0
SEQEND
8
1
0
POINT
8
2
10
1748.877
20
-808.745
0
TEXT
8
2
10
1748.877
20
-808.745
40
10.00
1
#640
0
POINT
8
4
10
1748.005
20
-838.442
30
10
50
358.320874731971
0
POINT
8
2
10
1748.005
20
-838.442
0
TEXT
8
2
10
1748.005
20
-838.442
40
10.00
1
#641
0
POINT
8
4
10
1747.859
20
-843.424
30
10
50
358.011242837552
0
POINT
8
2
10
1747.859
20
-843.424
0
TEXT
8
2
10
1747.859
20
-843.424
40
10.00
1
#642
0
POINT
8
4
10
1747.661
20
-848.361
30
10
50
357.713054336837
0
POINT
8
2
10
1747.661
20
-848.361
0
TEXT
8
2
10
1747.661
20
-848.361
40
10.00
1
#643
0
POINT
8
2
10
1746.445
20
-878.745
0
TEXT
8
2
10
1746.445
20
-878.745
40
10.00
1
#644
0
POINT
8
4
10
1917.554
20
-878.745
30
10
50
90
0
POINT
8
2
10
1917.554
20
-878.745
0
TEXT
8
2
10
1917.554
20
-878.745
40
10.00
1
#645
0
POINT
8
4
10
2128.453
20
-878.745
30
10
50
90
0
POINT
8
2
10
2128.453
20
-878.745
0
TEXT
8
2
10
2128.453
20
-878.745
40
10.00
1
#646
0
POINT
8
4
10
2356.054
20
-878.745
30
10
50
90
0
POINT
8
2
10
2356.054
20
-878.745
0
TEXT
8
2
10
2356.054
20
-878.745
40
10.00
1
#647
0
POINT
8
4
10
2578.354
20
-878.745
30
10
50
90
0
POINT
8
2
10
2578.354
20
-878.745
0
TEXT
8
2
10
2578.354
20
-878.745
40
10.00
1
#648
0
POINT
8
2
10
2638.354
20
-878.745
0
TEXT
8
2
10
2638.354
20
-878.745
40
10.00
1
#649
0
POINT
8
4
10
2638.354
20
-848.745
30
10
50
180
0
POINT
8
2
10
2638.354
20
-848.745
0
TEXT
8
2
10
2638.354
20
-848.745
40
10.00
1
#650
0
POINT
8
4
10
2638.354
20
-838.745
30
10
50
180
0
POINT
8
2
10
2638.354
20
-838.745
0
TEXT
8
2
10
2638.354
20
-838.745
40
10.00
1
#651
0
POINT
8
2
10
2638.354
20
-808.745
0
TEXT
8
2
10
2638.354
20
-808.745
40
10.00
1
#652
0
POINT
8
4
10
2578.354
20
-808.745
30
10
50
270
0
POINT
8
2
10
2578.354
20
-808.745
0
TEXT
8
2
10
2578.354
20
-808.745
40
10.00
1
#653
0
POINT
8
4
10
2356.088
20
-808.745
30
10
50
270
0
POINT
8
2
10
2356.088
20
-808.745
0
TEXT
8
2
10
2356.088
20
-808.745
40
10.00
1
#654
0
POINT
8
4
10
2346.088
20
-808.745
30
10
50
270
0
POINT
8
2
10
2346.088
20
-808.745
0
TEXT
8
2
10
2346.088
20
-808.745
40
10.00
1
#655
0
POINT
8
4
10
2118.488
20
-808.745
30
10
50
270
0
POINT
8
2
10
2118.488
20
-808.745
0
TEXT
8
2
10
2118.488
20
-808.745
40
10.00
1
#656
0
POINT
8
4
10
1968.488
20
-808.745
30
10
50
270
0
POINT
8
2
10
1968.488
20
-808.745
0
TEXT
8
2
10
1968.488
20
-808.745
40
10.00
1
#657
0
POINT
8
4
10
1917.588
20
-808.745
30
10
50
270
0
POINT
8
2
10
1917.588
20
-808.745
0
TEXT
8
2
10
1917.588
20
-808.745
40
10.00
1
#658
0
POINT
8
4
10
1907.588
20
-808.745
30
10
50
270
0
POINT
8
2
10
1907.588
20
-808.745
0
TEXT
8
2
10
1907.588
20
-808.745
40
10.00
1
#659
0
POINT
8
2
10
1748.877
20
-808.745
0
TEXT
8
2
10
1748.877
20
-808.745
40
10.00
1
#640
0
LINE
8
7
10
2304.52
20
-843.745
11
2030.686
21
-843.745
0
POINT
8
2
10
2304.52
20
-843.745
0
TEXT
8
2
10
2304.52
20
-843.745
40
10.00
1
#1
0
POINT
8
2
10
2030.686
20
-843.745
0
TEXT
8
2
10
2030.686
20
-843.745
40
10.00
1
#1
0
TEXT
8
1
10
2030.686
20
-832.745
40
10.00
1
PIECE NAME: YANKAMAKOM
0
TEXT
8
1
10
2030.686
20
-821.745
40
10.00
1
SIZE: 36
0
TEXT
8
1
10
2030.686
20
-810.745
40
10.00
1
ANNOTATION: 
0
TEXT
8
1
10
2030.686
20
-799.745
40
10.00
1
QUANTITY: 1
0
TEXT
8
1
10
2030.686
20
-788.745
40
10.00
1
MATERIAL: KOMBÝN1
0
ENDBLK
0
BLOCK
8
0
2
12
70
0
10
0.0000
20
0.0000
0
POLYLINE
8
1
66
1
70
1
0
VERTEX
8
1
10
1746.444
20
-898.775
0
VERTEX
8
1
10
1747.645
20
-928.758
0
VERTEX
8
1
10
1746.445
20
-958.743
0
VERTEX
8
1
10
1917.554
20
-958.743
0
VERTEX
8
1
10
2128.453
20
-958.743
0
VERTEX
8
1
10
2356.054
20
-958.743
0
VERTEX
8
1
10
2578.354
20
-958.743
0
VERTEX
8
1
10
2638.354
20
-958.743
0
VERTEX
8
1
10
2638.354
20
-928.741
0
VERTEX
8
1
10
2638.353
20
-898.74
0
VERTEX
8
1
10
2578.351
20
-898.743
0
VERTEX
8
1
10
2356.052
20
-898.751
0
VERTEX
8
1
10
2128.453
20
-898.76
0
VERTEX
8
1
10
1917.552
20
-898.768
0
VERTEX
8
1
10
1746.444
20
-898.775
0
SEQEND
8
1
0
POINT
8
2
10
1746.444
20
-898.775
0
TEXT
8
2
10
1746.444
20
-898.775
40
10.00
1
#676
0
POINT
8
4
10
1747.645
20
-928.758
30
10
50
0
0
POINT
8
2
10
1747.645
20
-928.758
0
TEXT
8
2
10
1747.645
20
-928.758
40
10.00
1
#677
0
POINT
8
2
10
1746.445
20
-958.743
0
TEXT
8
2
10
1746.445
20
-958.743
40
10.00
1
#678
0
POINT
8
4
10
1917.554
20
-958.743
30
10
50
90
0
POINT
8
2
10
1917.554
20
-958.743
0
TEXT
8
2
10
1917.554
20
-958.743
40
10.00
1
#679
0
POINT
8
4
10
2128.453
20
-958.743
30
10
50
90
0
POINT
8
2
10
2128.453
20
-958.743
0
TEXT
8
2
10
2128.453
20
-958.743
40
10.00
1
#680
0
POINT
8
4
10
2356.054
20
-958.743
30
10
50
90
0
POINT
8
2
10
2356.054
20
-958.743
0
TEXT
8
2
10
2356.054
20
-958.743
40
10.00
1
#681
0
POINT
8
4
10
2578.354
20
-958.743
30
10
50
90
0
POINT
8
2
10
2578.354
20
-958.743
0
TEXT
8
2
10
2578.354
20
-958.743
40
10.00
1
#682
0
POINT
8
2
10
2638.354
20
-958.743
0
TEXT
8
2
10
2638.354
20
-958.743
40
10.00
1
#683
0
POINT
8
4
10
2638.354
20
-928.741
30
10
50
180
0
POINT
8
2
10
2638.354
20
-928.741
0
TEXT
8
2
10
2638.354
20
-928.741
40
10.00
1
#684
0
POINT
8
2
10
2638.353
20
-898.74
0
TEXT
8
2
10
2638.353
20
-898.74
40
10.00
1
#685
0
POINT
8
4
10
2578.351
20
-898.743
30
10
50
270.005730150946
0
POINT
8
2
10
2578.351
20
-898.743
0
TEXT
8
2
10
2578.351
20
-898.743
40
10.00
1
#686
0
POINT
8
4
10
2356.052
20
-898.751
30
10
50
270
0
POINT
8
2
10
2356.052
20
-898.751
0
TEXT
8
2
10
2356.052
20
-898.751
40
10.00
1
#687
0
POINT
8
4
10
2128.453
20
-898.76
30
10
50
270
0
POINT
8
2
10
2128.453
20
-898.76
0
TEXT
8
2
10
2128.453
20
-898.76
40
10.00
1
#688
0
POINT
8
4
10
1917.552
20
-898.768
30
10
50
270
0
POINT
8
2
10
1917.552
20
-898.768
0
TEXT
8
2
10
1917.552
20
-898.768
40
10.00
1
#689
0
POINT
8
2
10
1746.444
20
-898.775
0
TEXT
8
2
10
1746.444
20
-898.775
40
10.00
1
#676
0
LINE
8
7
10
2304.52
20
-923.743
11
2030.686
21
-923.743
0
POINT
8
2
10
2304.52
20
-923.743
0
TEXT
8
2
10
2304.52
20
-923.743
40
10.00
1
#1
0
POINT
8
2
10
2030.686
20
-923.743
0
TEXT
8
2
10
2030.686
20
-923.743
40
10.00
1
#1
0
TEXT
8
8
10
2434.21
20
-939.991
11
2519.739
21
-917.141
40
10.00
50
345.042151477514
1
2 ADET TELALI
0
TEXT
8
1
10
2030.686
20
-912.743
40
10.00
1
PIECE NAME: ARKAYANLLER
0
TEXT
8
1
10
2030.686
20
-901.743
40
10.00
1
SIZE: 36
0
TEXT
8
1
10
2030.686
20
-890.743
40
10.00
1
ANNOTATION: 
0
TEXT
8
1
10
2030.686
20
-879.743
40
10.00
1
QUANTITY: 1
0
TEXT
8
1
10
2030.686
20
-868.743
40
10.00
1
MATERIAL: KOMBÝN
0
ENDBLK
0
BLOCK
8
0
2
13
70
0
10
0.0000
20
0.0000
0
POLYLINE
8
1
66
1
70
1
0
VERTEX
8
1
10
1747.996
20
-668.734
0
VERTEX
8
1
10
1748.877
20
-698.725
0
VERTEX
8
1
10
1907.587
20
-698.728
0
VERTEX
8
1
10
1917.587
20
-698.728
0
VERTEX
8
1
10
1968.488
20
-698.729
0
VERTEX
8
1
10
2118.488
20
-698.732
0
VERTEX
8
1
10
2346.088
20
-698.738
0
VERTEX
8
1
10
2356.088
20
-698.738
0
VERTEX
8
1
10
2578.354
20
-698.743
0
VERTEX
8
1
10
2638.354
20
-698.744
0
VERTEX
8
1
10
2638.354
20
-668.743
0
VERTEX
8
1
10
2638.354
20
-638.743
0
VERTEX
8
1
10
2578.354
20
-638.743
0
VERTEX
8
1
10
2356.088
20
-638.743
0
VERTEX
8
1
10
2346.088
20
-638.743
0
VERTEX
8
1
10
2118.488
20
-638.743
0
VERTEX
8
1
10
1968.488
20
-638.743
0
VERTEX
8
1
10
1917.588
20
-638.743
0
VERTEX
8
1
10
1907.588
20
-638.743
0
VERTEX
8
1
10
1748.877
20
-638.743
0
VERTEX
8
1
10
1747.996
20
-668.734
0
SEQEND
8
1
0
POINT
8
4
10
1747.996
20
-668.734
30
10
50
0
0
POINT
8
2
10
1747.996
20
-668.734
0
TEXT
8
2
10
1747.996
20
-668.734
40
10.00
1
#700
0
POINT
8
2
10
1748.877
20
-698.725
0
TEXT
8
2
10
1748.877
20
-698.725
40
10.00
1
#701
0
POINT
8
4
10
1907.587
20
-698.728
30
10
50
89.9942704220679
0
POINT
8
2
10
1907.587
20
-698.728
0
TEXT
8
2
10
1907.587
20
-698.728
40
10.00
1
#702
0
POINT
8
4
10
1917.587
20
-698.728
30
10
50
89.9942698490528
0
POINT
8
2
10
1917.587
20
-698.728
0
TEXT
8
2
10
1917.587
20
-698.728
40
10.00
1
#703
0
POINT
8
4
10
1968.488
20
-698.729
30
10
50
90
0
POINT
8
2
10
1968.488
20
-698.729
0
TEXT
8
2
10
1968.488
20
-698.729
40
10.00
1
#704
0
POINT
8
4
10
2118.488
20
-698.732
30
10
50
90
0
POINT
8
2
10
2118.488
20
-698.732
0
TEXT
8
2
10
2118.488
20
-698.732
40
10.00
1
#705
0
POINT
8
4
10
2346.088
20
-698.738
30
10
50
90
0
POINT
8
2
10
2346.088
20
-698.738
0
TEXT
8
2
10
2346.088
20
-698.738
40
10.00
1
#706
0
POINT
8
4
10
2356.088
20
-698.738
30
10
50
90
0
POINT
8
2
10
2356.088
20
-698.738
0
TEXT
8
2
10
2356.088
20
-698.738
40
10.00
1
#707
0
POINT
8
4
10
2578.354
20
-698.743
30
10
50
90
0
POINT
8
2
10
2578.354
20
-698.743
0
TEXT
8
2
10
2578.354
20
-698.743
40
10.00
1
#708
0
POINT
8
2
10
2638.354
20
-698.744
0
TEXT
8
2
10
2638.354
20
-698.744
40
10.00
1
#709
0
POINT
8
4
10
2638.354
20
-668.743
30
10
50
180
0
POINT
8
2
10
2638.354
20
-668.743
0
TEXT
8
2
10
2638.354
20
-668.743
40
10.00
1
#710
0
POINT
8
2
10
2638.354
20
-638.743
0
TEXT
8
2
10
2638.354
20
-638.743
40
10.00
1
#711
0
POINT
8
4
10
2578.354
20
-638.743
30
10
50
270
0
POINT
8
2
10
2578.354
20
-638.743
0
TEXT
8
2
10
2578.354
20
-638.743
40
10.00
1
#712
0
POINT
8
4
10
2356.088
20
-638.743
30
10
50
270
0
POINT
8
2
10
2356.088
20
-638.743
0
TEXT
8
2
10
2356.088
20
-638.743
40
10.00
1
#713
0
POINT
8
4
10
2346.088
20
-638.743
30
10
50
270
0
POINT
8
2
10
2346.088
20
-638.743
0
TEXT
8
2
10
2346.088
20
-638.743
40
10.00
1
#714
0
POINT
8
4
10
2118.488
20
-638.743
30
10
50
270
0
POINT
8
2
10
2118.488
20
-638.743
0
TEXT
8
2
10
2118.488
20
-638.743
40
10.00
1
#715
0
POINT
8
4
10
1968.488
20
-638.743
30
10
50
270
0
POINT
8
2
10
1968.488
20
-638.743
0
TEXT
8
2
10
1968.488
20
-638.743
40
10.00
1
#716
0
POINT
8
4
10
1917.588
20
-638.743
30
10
50
270
0
POINT
8
2
10
1917.588
20
-638.743
0
TEXT
8
2
10
1917.588
20
-638.743
40
10.00
1
#717
0
POINT
8
4
10
1907.588
20
-638.743
30
10
50
270
0
POINT
8
2
10
1907.588
20
-638.743
0
TEXT
8
2
10
1907.588
20
-638.743
40
10.00
1
#718
0
POINT
8
2
10
1748.877
20
-638.743
0
TEXT
8
2
10
1748.877
20
-638.743
40
10.00
1
#719
0
POINT
8
2
10
1747.996
20
-668.734
0
TEXT
8
2
10
1747.996
20
-668.734
40
10.00
1
#700
0
LINE
8
7
10
2304.52
20
-673.743
11
2030.686
21
-673.743
0
POINT
8
2
10
2304.52
20
-673.743
0
TEXT
8
2
10
2304.52
20
-673.743
40
10.00
1
#1
0
POINT
8
2
10
2030.686
20
-673.743
0
TEXT
8
2
10
2030.686
20
-673.743
40
10.00
1
#1
0
TEXT
8
8
10
2436.505
20
-670.69
11
2527.257
21
-648.743
40
10.00
50
346.404902470279
1
2 ADET TELALI
0
TEXT
8
1
10
2030.686
20
-662.743
40
10.00
1
PIECE NAME: ONYANALLER
0
TEXT
8
1
10
2030.686
20
-651.743
40
10.00
1
SIZE: 36
0
TEXT
8
1
10
2030.686
20
-640.743
40
10.00
1
ANNOTATION: 
0
TEXT
8
1
10
2030.686
20
-629.743
40
10.00
1
QUANTITY: 1
0
TEXT
8
1
10
2030.686
20
-618.743
40
10.00
1
MATERIAL: KOMBÝN
0
ENDBLK
0
BLOCK
8
0
2
14
70
0
10
0.0000
20
0.0000
0
POLYLINE
8
1
66
1
70
1
0
VERTEX
8
1
10
1748.877
20
-718.745
0
VERTEX
8
1
10
1748.005
20
-748.442
0
VERTEX
8
1
10
1747.859
20
-753.424
0
VERTEX
8
1
10
1747.661
20
-758.361
0
VERTEX
8
1
10
1746.445
20
-788.745
0
VERTEX
8
1
10
1917.554
20
-788.745
0
VERTEX
8
1
10
2128.453
20
-788.745
0
VERTEX
8
1
10
2356.054
20
-788.745
0
VERTEX
8
1
10
2578.354
20
-788.745
0
VERTEX
8
1
10
2638.354
20
-788.745
0
VERTEX
8
1
10
2638.354
20
-758.745
0
VERTEX
8
1
10
2638.354
20
-748.745
0
VERTEX
8
1
10
2638.354
20
-718.745
0
VERTEX
8
1
10
2578.354
20
-718.745
0
VERTEX
8
1
10
2356.088
20
-718.745
0
VERTEX
8
1
10
2346.088
20
-718.745
0
VERTEX
8
1
10
2118.488
20
-718.745
0
VERTEX
8
1
10
1968.488
20
-718.745
0
VERTEX
8
1
10
1917.588
20
-718.745
0
VERTEX
8
1
10
1907.588
20
-718.745
0
VERTEX
8
1
10
1748.877
20
-718.745
0
SEQEND
8
1
0
POINT
8
2
10
1748.877
20
-718.745
0
TEXT
8
2
10
1748.877
20
-718.745
40
10.00
1
#736
0
POINT
8
4
10
1748.005
20
-748.442
30
10
50
358.320874731971
0
POINT
8
2
10
1748.005
20
-748.442
0
TEXT
8
2
10
1748.005
20
-748.442
40
10.00
1
#737
0
POINT
8
4
10
1747.859
20
-753.424
30
10
50
358.011242837552
0
POINT
8
2
10
1747.859
20
-753.424
0
TEXT
8
2
10
1747.859
20
-753.424
40
10.00
1
#738
0
POINT
8
4
10
1747.661
20
-758.361
30
10
50
357.713054336837
0
POINT
8
2
10
1747.661
20
-758.361
0
TEXT
8
2
10
1747.661
20
-758.361
40
10.00
1
#739
0
POINT
8
2
10
1746.445
20
-788.745
0
TEXT
8
2
10
1746.445
20
-788.745
40
10.00
1
#740
0
POINT
8
4
10
1917.554
20
-788.745
30
10
50
90
0
POINT
8
2
10
1917.554
20
-788.745
0
TEXT
8
2
10
1917.554
20
-788.745
40
10.00
1
#741
0
POINT
8
4
10
2128.453
20
-788.745
30
10
50
90
0
POINT
8
2
10
2128.453
20
-788.745
0
TEXT
8
2
10
2128.453
20
-788.745
40
10.00
1
#742
0
POINT
8
4
10
2356.054
20
-788.745
30
10
50
90
0
POINT
8
2
10
2356.054
20
-788.745
0
TEXT
8
2
10
2356.054
20
-788.745
40
10.00
1
#743
0
POINT
8
4
10
2578.354
20
-788.745
30
10
50
90
0
POINT
8
2
10
2578.354
20
-788.745
0
TEXT
8
2
10
2578.354
20
-788.745
40
10.00
1
#744
0
POINT
8
2
10
2638.354
20
-788.745
0
TEXT
8
2
10
2638.354
20
-788.745
40
10.00
1
#745
0
POINT
8
4
10
2638.354
20
-758.745
30
10
50
180
0
POINT
8
2
10
2638.354
20
-758.745
0
TEXT
8
2
10
2638.354
20
-758.745
40
10.00
1
#746
0
POINT
8
4
10
2638.354
20
-748.745
30
10
50
180
0
POINT
8
2
10
2638.354
20
-748.745
0
TEXT
8
2
10
2638.354
20
-748.745
40
10.00
1
#747
0
POINT
8
2
10
2638.354
20
-718.745
0
TEXT
8
2
10
2638.354
20
-718.745
40
10.00
1
#748
0
POINT
8
4
10
2578.354
20
-718.745
30
10
50
270
0
POINT
8
2
10
2578.354
20
-718.745
0
TEXT
8
2
10
2578.354
20
-718.745
40
10.00
1
#749
0
POINT
8
4
10
2356.088
20
-718.745
30
10
50
270
0
POINT
8
2
10
2356.088
20
-718.745
0
TEXT
8
2
10
2356.088
20
-718.745
40
10.00
1
#750
0
POINT
8
4
10
2346.088
20
-718.745
30
10
50
270
0
POINT
8
2
10
2346.088
20
-718.745
0
TEXT
8
2
10
2346.088
20
-718.745
40
10.00
1
#751
0
POINT
8
4
10
2118.488
20
-718.745
30
10
50
270
0
POINT
8
2
10
2118.488
20
-718.745
0
TEXT
8
2
10
2118.488
20
-718.745
40
10.00
1
#752
0
POINT
8
4
10
1968.488
20
-718.745
30
10
50
270
0
POINT
8
2
10
1968.488
20
-718.745
0
TEXT
8
2
10
1968.488
20
-718.745
40
10.00
1
#753
0
POINT
8
4
10
1917.588
20
-718.745
30
10
50
270
0
POINT
8
2
10
1917.588
20
-718.745
0
TEXT
8
2
10
1917.588
20
-718.745
40
10.00
1
#754
0
POINT
8
4
10
1907.588
20
-718.745
30
10
50
270
0
POINT
8
2
10
1907.588
20
-718.745
0
TEXT
8
2
10
1907.588
20
-718.745
40
10.00
1
#755
0
POINT
8
2
10
1748.877
20
-718.745
0
TEXT
8
2
10
1748.877
20
-718.745
40
10.00
1
#736
0
LINE
8
7
10
2304.52
20
-753.745
11
2030.686
21
-753.745
0
POINT
8
2
10
2304.52
20
-753.745
0
TEXT
8
2
10
2304.52
20
-753.745
40
10.00
1
#1
0
POINT
8
2
10
2030.686
20
-753.745
0
TEXT
8
2
10
2030.686
20
-753.745
40
10.00
1
#1
0
TEXT
8
1
10
2030.686
20
-742.745
40
10.00
1
PIECE NAME: YANKAMAELYAF
0
TEXT
8
1
10
2030.686
20
-731.745
40
10.00
1
SIZE: 36
0
TEXT
8
1
10
2030.686
20
-720.745
40
10.00
1
ANNOTATION: 
0
TEXT
8
1
10
2030.686
20
-709.745
40
10.00
1
QUANTITY: 1
0
TEXT
8
1
10
2030.686
20
-698.745
40
10.00
1
MATERIAL: ELYAF
0
ENDBLK
0
BLOCK
8
0
2
15
70
0
10
0.0000
20
0.0000
0
POLYLINE
8
1
66
1
70
1
0
VERTEX
8
1
10
1044.143
20
-1502.987
0
VERTEX
8
1
10
1089.119
20
-1614.722
0
VERTEX
8
1
10
1091.836
20
-1613.683
0
VERTEX
8
1
10
1106.401
20
-1609.161
0
VERTEX
8
1
10
1122.671
20
-1605.861
0
VERTEX
8
1
10
1141.282
20
-1603.826
0
VERTEX
8
1
10
1163.691
20
-1603.154
0
VERTEX
8
1
10
1196.353
20
-1604.217
0
VERTEX
8
1
10
1208.249
20
-1605.528
0
VERTEX
8
1
10
1229.248
20
-1608.931
0
VERTEX
8
1
10
1246.875
20
-1613.296
0
VERTEX
8
1
10
1262.203
20
-1618.657
0
VERTEX
8
1
10
1275.765
20
-1625.03
0
VERTEX
8
1
10
1284.807
20
-1630.535
0
VERTEX
8
1
10
1293.432
20
-1637.577
0
VERTEX
8
1
10
1300.788
20
-1645.615
0
VERTEX
8
1
10
1306.708
20
-1654.413
0
VERTEX
8
1
10
1311.104
20
-1663.766
0
VERTEX
8
1
10
1352.996
20
-1653.634
0
VERTEX
8
1
10
1391.024
20
-1645.132
0
VERTEX
8
1
10
1436.024
20
-1655.332
0
VERTEX
8
1
10
1436.038
20
-1403.616
0
VERTEX
8
1
10
1436.038
20
-1151.864
0
VERTEX
8
1
10
1391.038
20
-1162.107
0
VERTEX
8
1
10
1311.122
20
-1143.459
0
VERTEX
8
1
10
1307.113
20
-1152.188
0
VERTEX
8
1
10
1301.365
20
-1160.931
0
VERTEX
8
1
10
1294.125
20
-1168.998
0
VERTEX
8
1
10
1285.516
20
-1176.171
0
VERTEX
8
1
10
1275.778
20
-1182.191
0
VERTEX
8
1
10
1269.468
20
-1185.374
0
VERTEX
8
1
10
1255.09
20
-1191.265
0
VERTEX
8
1
10
1238.741
20
-1196.148
0
VERTEX
8
1
10
1219.73
20
-1200.038
0
VERTEX
8
1
10
1196.363
20
-1203
0
VERTEX
8
1
10
1187.846
20
-1203.4
0
VERTEX
8
1
10
1158.347
20
-1204.028
0
VERTEX
8
1
10
1136.945
20
-1203.067
0
VERTEX
8
1
10
1118.997
20
-1200.777
0
VERTEX
8
1
10
1103.25
20
-1197.239
0
VERTEX
8
1
10
1089.132
20
-1192.489
0
VERTEX
8
1
10
1044.15
20
-1304.221
0
VERTEX
8
1
10
1045.509
20
-1304.963
0
VERTEX
8
1
10
1052.015
20
-1309.584
0
VERTEX
8
1
10
1057.586
20
-1315.517
0
VERTEX
8
1
10
1062.317
20
-1322.994
0
VERTEX
8
1
10
1066.213
20
-1332.351
0
VERTEX
8
1
10
1069.24
20
-1344.192
0
VERTEX
8
1
10
1071.315
20
-1359.7
0
VERTEX
8
1
10
1073.353
20
-1403.605
0
VERTEX
8
1
10
1072.27
20
-1428.073
0
VERTEX
8
1
10
1071.038
20
-1450.615
0
VERTEX
8
1
10
1068.874
20
-1465.159
0
VERTEX
8
1
10
1065.75
20
-1476.382
0
VERTEX
8
1
10
1061.729
20
-1485.336
0
VERTEX
8
1
10
1056.833
20
-1492.558
0
VERTEX
8
1
10
1051.013
20
-1498.38
0
VERTEX
8
1
10
1044.143
20
-1502.987
0
SEQEND
8
1
0
POINT
8
2
10
1044.143
20
-1502.987
0
TEXT
8
2
10
1044.143
20
-1502.987
40
10.00
1
#772
0
POINT
8
2
10
1089.119
20
-1614.722
0
TEXT
8
2
10
1089.119
20
-1614.722
40
10.00
1
#773
0
POINT
8
3
10
1091.836
20
-1613.683
0
POINT
8
3
10
1106.401
20
-1609.161
0
POINT
8
3
10
1122.671
20
-1605.861
0
POINT
8
3
10
1141.282
20
-1603.826
0
POINT
8
3
10
1163.691
20
-1603.154
0
POINT
8
4
10
1196.353
20
-1604.217
30
10
50
84.9056813068518
0
POINT
8
2
10
1196.353
20
-1604.217
0
TEXT
8
2
10
1196.353
20
-1604.217
40
10.00
1
#774
0
POINT
8
3
10
1208.249
20
-1605.528
0
POINT
8
3
10
1229.248
20
-1608.931
0
POINT
8
3
10
1246.875
20
-1613.296
0
POINT
8
3
10
1262.203
20
-1618.657
0
POINT
8
4
10
1275.765
20
-1625.03
30
10
50
61.1897083032967
0
POINT
8
2
10
1275.765
20
-1625.03
0
TEXT
8
2
10
1275.765
20
-1625.03
40
10.00
1
#775
0
POINT
8
3
10
1284.807
20
-1630.535
0
POINT
8
3
10
1293.432
20
-1637.577
0
POINT
8
3
10
1300.788
20
-1645.615
0
POINT
8
3
10
1306.708
20
-1654.413
0
POINT
8
2
10
1311.104
20
-1663.766
0
TEXT
8
2
10
1311.104
20
-1663.766
40
10.00
1
#776
0
POINT
8
3
10
1352.996
20
-1653.634
0
POINT
8
4
10
1391.024
20
-1645.132
30
10
50
90
0
POINT
8
2
10
1391.024
20
-1645.132
0
TEXT
8
2
10
1391.024
20
-1645.132
40
10.00
1
#777
0
POINT
8
2
10
1436.024
20
-1655.332
0
TEXT
8
2
10
1436.024
20
-1655.332
40
10.00
1
#778
0
POINT
8
4
10
1436.038
20
-1403.616
30
10
50
180
0
POINT
8
2
10
1436.038
20
-1403.616
0
TEXT
8
2
10
1436.038
20
-1403.616
40
10.00
1
#779
0
POINT
8
2
10
1436.038
20
-1151.864
0
TEXT
8
2
10
1436.038
20
-1151.864
40
10.00
1
#780
0
POINT
8
4
10
1391.038
20
-1162.107
30
10
50
270
0
POINT
8
2
10
1391.038
20
-1162.107
0
TEXT
8
2
10
1391.038
20
-1162.107
40
10.00
1
#781
0
POINT
8
2
10
1311.122
20
-1143.459
0
TEXT
8
2
10
1311.122
20
-1143.459
40
10.00
1
#782
0
POINT
8
3
10
1307.113
20
-1152.188
0
POINT
8
3
10
1301.365
20
-1160.931
0
POINT
8
3
10
1294.125
20
-1168.998
0
POINT
8
3
10
1285.516
20
-1176.171
0
POINT
8
4
10
1275.778
20
-1182.191
30
10
50
298.797489400486
0
POINT
8
2
10
1275.778
20
-1182.191
0
TEXT
8
2
10
1275.778
20
-1182.191
40
10.00
1
#783
0
POINT
8
3
10
1269.468
20
-1185.374
0
POINT
8
3
10
1255.09
20
-1191.265
0
POINT
8
3
10
1238.741
20
-1196.148
0
POINT
8
3
10
1219.73
20
-1200.038
0
POINT
8
4
10
1196.363
20
-1203
30
10
50
275.100025300682
0
POINT
8
2
10
1196.363
20
-1203
0
TEXT
8
2
10
1196.363
20
-1203
40
10.00
1
#784
0
POINT
8
3
10
1187.846
20
-1203.4
0
POINT
8
3
10
1158.347
20
-1204.028
0
POINT
8
3
10
1136.945
20
-1203.067
0
POINT
8
3
10
1118.997
20
-1200.777
0
POINT
8
3
10
1103.25
20
-1197.239
0
POINT
8
2
10
1089.132
20
-1192.489
0
TEXT
8
2
10
1089.132
20
-1192.489
40
10.00
1
#785
0
POINT
8
2
10
1044.15
20
-1304.221
0
TEXT
8
2
10
1044.15
20
-1304.221
40
10.00
1
#786
0
POINT
8
3
10
1045.509
20
-1304.963
0
POINT
8
3
10
1052.015
20
-1309.584
0
POINT
8
3
10
1057.586
20
-1315.517
0
POINT
8
3
10
1062.317
20
-1322.994
0
POINT
8
3
10
1066.213
20
-1332.351
0
POINT
8
3
10
1069.24
20
-1344.192
0
POINT
8
3
10
1071.315
20
-1359.7
0
POINT
8
4
10
1073.353
20
-1403.605
30
10
50
0
0
POINT
8
2
10
1073.353
20
-1403.605
0
TEXT
8
2
10
1073.353
20
-1403.605
40
10.00
1
#787
0
POINT
8
3
10
1072.27
20
-1428.073
0
POINT
8
3
10
1071.038
20
-1450.615
0
POINT
8
3
10
1068.874
20
-1465.159
0
POINT
8
3
10
1065.75
20
-1476.382
0
POINT
8
3
10
1061.729
20
-1485.336
0
POINT
8
3
10
1056.833
20
-1492.558
0
POINT
8
3
10
1051.013
20
-1498.38
0
POINT
8
2
10
1044.143
20
-1502.987
0
TEXT
8
2
10
1044.143
20
-1502.987
40
10.00
1
#772
0
LINE
8
7
10
1279.534
20
-1279.338
11
1168.03
21
-1279.338
0
POINT
8
2
10
1279.534
20
-1279.338
0
TEXT
8
2
10
1279.534
20
-1279.338
40
10.00
1
#1
0
POINT
8
2
10
1168.03
20
-1279.338
0
TEXT
8
2
10
1168.03
20
-1279.338
40
10.00
1
#1
0
TEXT
8
8
10
1229.747
20
-1517.087
11
1288.247
21
-1418.558
40
10.00
50
300.699037327672
1
1 ADET TELALI
0
TEXT
8
1
10
1168.03
20
-1268.338
40
10.00
1
PIECE NAME: ARKARZGRLK
0
TEXT
8
1
10
1168.03
20
-1257.338
40
10.00
1
SIZE: 36
0
TEXT
8
1
10
1168.03
20
-1246.338
40
10.00
1
ANNOTATION: 
0
TEXT
8
1
10
1168.03
20
-1235.338
40
10.00
1
QUANTITY: 1
0
TEXT
8
1
10
1168.03
20
-1224.338
40
10.00
1
MATERIAL: KOMBÝN
0
ENDBLK
0
BLOCK
8
0
2
16
70
0
10
0.0000
20
0.0000
0
POLYLINE
8
1
66
1
70
1
0
VERTEX
8
1
10
1365.538
20
-48.313
0
VERTEX
8
1
10
1365.644
20
-48.539
0
VERTEX
8
1
10
1374.483
20
-69.543
0
VERTEX
8
1
10
1382.2
20
-92.094
0
VERTEX
8
1
10
1388.761
20
-116.349
0
VERTEX
8
1
10
1394.151
20
-142.598
0
VERTEX
8
1
10
1398.316
20
-171.155
0
VERTEX
8
1
10
1401.207
20
-202.574
0
VERTEX
8
1
10
1402.92
20
-237.128
0
VERTEX
8
1
10
1403.595
20
-287.592
0
VERTEX
8
1
10
1403.538
20
-304.483
0
VERTEX
8
1
10
1402.5
20
-349.588
0
VERTEX
8
1
10
1400.221
20
-385.251
0
VERTEX
8
1
10
1398.265
20
-404.533
0
VERTEX
8
1
10
1394.115
20
-432.913
0
VERTEX
8
1
10
1388.733
20
-459.045
0
VERTEX
8
1
10
1382.157
20
-483.291
0
VERTEX
8
1
10
1374.426
20
-505.841
0
VERTEX
8
1
10
1365.561
20
-526.875
0
VERTEX
8
1
10
1420.858
20
-550.786
0
VERTEX
8
1
10
1425.273
20
-540.817
0
VERTEX
8
1
10
1433.64
20
-518.927
0
VERTEX
8
1
10
1441.047
20
-494.899
0
VERTEX
8
1
10
1447.556
20
-468.088
0
VERTEX
8
1
10
1453.263
20
-437.321
0
VERTEX
8
1
10
1458.442
20
-399.606
0
VERTEX
8
1
10
1461.104
20
-372.132
0
VERTEX
8
1
10
1462.939
20
-336.968
0
VERTEX
8
1
10
1463.595
20
-287.588
0
VERTEX
8
1
10
1463.09
20
-243.508
0
VERTEX
8
1
10
1461.344
20
-206.467
0
VERTEX
8
1
10
1458.43
20
-175.574
0
VERTEX
8
1
10
1455.958
20
-156.127
0
VERTEX
8
1
10
1450.563
20
-122.305
0
VERTEX
8
1
10
1444.479
20
-93.647
0
VERTEX
8
1
10
1437.538
20
-68.278
0
VERTEX
8
1
10
1429.673
20
-45.371
0
VERTEX
8
1
10
1420.832
20
-24.396
0
VERTEX
8
1
10
1365.538
20
-48.313
0
SEQEND
8
1
0
POINT
8
2
10
1365.538
20
-48.313
0
TEXT
8
2
10
1365.538
20
-48.313
40
10.00
1
#796
0
POINT
8
3
10
1365.644
20
-48.539
0
POINT
8
3
10
1374.483
20
-69.543
0
POINT
8
3
10
1382.2
20
-92.094
0
POINT
8
3
10
1388.761
20
-116.349
0
POINT
8
3
10
1394.151
20
-142.598
0
POINT
8
3
10
1398.316
20
-171.155
0
POINT
8
3
10
1401.207
20
-202.574
0
POINT
8
3
10
1402.92
20
-237.128
0
POINT
8
4
10
1403.595
20
-287.592
30
10
50
0
0
POINT
8
2
10
1403.595
20
-287.592
0
TEXT
8
2
10
1403.595
20
-287.592
40
10.00
1
#797
0
POINT
8
3
10
1403.538
20
-304.483
0
POINT
8
3
10
1402.5
20
-349.588
0
POINT
8
3
10
1400.221
20
-385.251
0
POINT
8
3
10
1398.265
20
-404.533
0
POINT
8
3
10
1394.115
20
-432.913
0
POINT
8
3
10
1388.733
20
-459.045
0
POINT
8
3
10
1382.157
20
-483.291
0
POINT
8
3
10
1374.426
20
-505.841
0
POINT
8
2
10
1365.561
20
-526.875
0
TEXT
8
2
10
1365.561
20
-526.875
40
10.00
1
#798
0
POINT
8
2
10
1420.858
20
-550.786
0
TEXT
8
2
10
1420.858
20
-550.786
40
10.00
1
#799
0
POINT
8
3
10
1425.273
20
-540.817
0
POINT
8
3
10
1433.64
20
-518.927
0
POINT
8
3
10
1441.047
20
-494.899
0
POINT
8
3
10
1447.556
20
-468.088
0
POINT
8
3
10
1453.263
20
-437.321
0
POINT
8
4
10
1458.442
20
-399.606
30
10
50
173.08532589629
0
POINT
8
2
10
1458.442
20
-399.606
0
TEXT
8
2
10
1458.442
20
-399.606
40
10.00
1
#800
0
POINT
8
3
10
1461.104
20
-372.132
0
POINT
8
3
10
1462.939
20
-336.968
0
POINT
8
4
10
1463.595
20
-287.588
30
10
50
180
0
POINT
8
2
10
1463.595
20
-287.588
0
TEXT
8
2
10
1463.595
20
-287.588
40
10.00
1
#801
0
POINT
8
3
10
1463.09
20
-243.508
0
POINT
8
3
10
1461.344
20
-206.467
0
POINT
8
4
10
1458.43
20
-175.574
30
10
50
186.783149120371
0
POINT
8
2
10
1458.43
20
-175.574
0
TEXT
8
2
10
1458.43
20
-175.574
40
10.00
1
#802
0
POINT
8
3
10
1455.958
20
-156.127
0
POINT
8
3
10
1450.563
20
-122.305
0
POINT
8
3
10
1444.479
20
-93.647
0
POINT
8
3
10
1437.538
20
-68.278
0
POINT
8
3
10
1429.673
20
-45.371
0
POINT
8
2
10
1420.832
20
-24.396
0
TEXT
8
2
10
1420.832
20
-24.396
40
10.00
1
#803
0
POINT
8
2
10
1365.538
20
-48.313
0
TEXT
8
2
10
1365.538
20
-48.313
40
10.00
1
#796
0
LINE
8
7
10
1441.942
20
-266.19
11
1421.942
21
-266.19
0
POINT
8
2
10
1441.942
20
-266.19
0
TEXT
8
2
10
1441.942
20
-266.19
40
10.00
1
#1
0
POINT
8
2
10
1421.942
20
-266.19
0
TEXT
8
2
10
1421.942
20
-266.19
40
10.00
1
#1
0
TEXT
8
8
10
1425.603
20
-167.137
11
1420.389
21
-92.403
40
10.00
50
266.00908690157
1
2 ADET TELALI
0
TEXT
8
1
10
1421.942
20
-255.19
40
10.00
1
PIECE NAME: YAKA
0
TEXT
8
1
10
1421.942
20
-244.19
40
10.00
1
SIZE: 36
0
TEXT
8
1
10
1421.942
20
-233.19
40
10.00
1
ANNOTATION: 
0
TEXT
8
1
10
1421.942
20
-222.19
40
10.00
1
QUANTITY: 1
0
TEXT
8
1
10
1421.942
20
-211.19
40
10.00
1
MATERIAL: KOMBÝN
0
ENDBLK
0
BLOCK
8
0
2
17
70
0
10
0.0000
20
0.0000
0
POLYLINE
8
1
66
1
70
1
0
VERTEX
8
1
10
2084.505
20
-1651.393
0
VERTEX
8
1
10
2084.505
20
-1741.393
0
VERTEX
8
1
10
2224.505
20
-1741.393
0
VERTEX
8
1
10
2256.404
20
-1741.393
0
VERTEX
8
1
10
2422.404
20
-1741.393
0
VERTEX
8
1
10
2625.505
20
-1741.393
0
VERTEX
8
1
10
2625.505
20
-1696.393
0
VERTEX
8
1
10
2625.505
20
-1651.393
0
VERTEX
8
1
10
2422.404
20
-1651.393
0
VERTEX
8
1
10
2256.404
20
-1651.393
0
VERTEX
8
1
10
2224.505
20
-1651.393
0
VERTEX
8
1
10
2084.505
20
-1651.393
0
SEQEND
8
1
0
POINT
8
2
10
2084.505
20
-1651.393
0
TEXT
8
2
10
2084.505
20
-1651.393
40
10.00
1
#808
0
POINT
8
2
10
2084.505
20
-1741.393
0
TEXT
8
2
10
2084.505
20
-1741.393
40
10.00
1
#809
0
POINT
8
4
10
2224.505
20
-1741.393
30
10
50
90
0
POINT
8
2
10
2224.505
20
-1741.393
0
TEXT
8
2
10
2224.505
20
-1741.393
40
10.00
1
#810
0
POINT
8
4
10
2256.404
20
-1741.393
30
10
50
90
0
POINT
8
2
10
2256.404
20
-1741.393
0
TEXT
8
2
10
2256.404
20
-1741.393
40
10.00
1
#811
0
POINT
8
4
10
2422.404
20
-1741.393
30
10
50
90
0
POINT
8
2
10
2422.404
20
-1741.393
0
TEXT
8
2
10
2422.404
20
-1741.393
40
10.00
1
#812
0
POINT
8
2
10
2625.505
20
-1741.393
0
TEXT
8
2
10
2625.505
20
-1741.393
40
10.00
1
#813
0
POINT
8
4
10
2625.505
20
-1696.393
30
10
50
180
0
POINT
8
2
10
2625.505
20
-1696.393
0
TEXT
8
2
10
2625.505
20
-1696.393
40
10.00
1
#814
0
POINT
8
2
10
2625.505
20
-1651.393
0
TEXT
8
2
10
2625.505
20
-1651.393
40
10.00
1
#815
0
POINT
8
4
10
2422.404
20
-1651.393
30
10
50
270
0
POINT
8
2
10
2422.404
20
-1651.393
0
TEXT
8
2
10
2422.404
20
-1651.393
40
10.00
1
#816
0
POINT
8
4
10
2256.404
20
-1651.393
30
10
50
270
0
POINT
8
2
10
2256.404
20
-1651.393
0
TEXT
8
2
10
2256.404
20
-1651.393
40
10.00
1
#817
0
POINT
8
4
10
2224.505
20
-1651.393
30
10
50
270
0
POINT
8
2
10
2224.505
20
-1651.393
0
TEXT
8
2
10
2224.505
20
-1651.393
40
10.00
1
#818
0
POINT
8
2
10
2084.505
20
-1651.393
0
TEXT
8
2
10
2084.505
20
-1651.393
40
10.00
1
#808
0
LINE
8
7
10
2433.171
20
-1696.393
11
2270.838
21
-1696.393
0
POINT
8
2
10
2433.171
20
-1696.393
0
TEXT
8
2
10
2433.171
20
-1696.393
40
10.00
1
#1
0
POINT
8
2
10
2270.838
20
-1696.393
0
TEXT
8
2
10
2270.838
20
-1696.393
40
10.00
1
#1
0
TEXT
8
8
10
2499.337
20
-1698.981
11
2555.319
21
-1682.186
40
10.00
50
343.300380182197
1
1 ADET
0
TEXT
8
1
10
2270.838
20
-1685.393
40
10.00
1
PIECE NAME: KPSNORTELYF
0
TEXT
8
1
10
2270.838
20
-1674.393
40
10.00
1
SIZE: 36
0
TEXT
8
1
10
2270.838
20
-1663.393
40
10.00
1
ANNOTATION: 
0
TEXT
8
1
10
2270.838
20
-1652.393
40
10.00
1
QUANTITY: 1
0
TEXT
8
1
10
2270.838
20
-1641.393
40
10.00
1
MATERIAL: ELYAF
0
ENDBLK
0
BLOCK
8
0
2
18
70
0
10
0.0000
20
0.0000
0
POLYLINE
8
1
66
1
70
1
0
VERTEX
8
1
10
2277.844
20
-1325.647
0
VERTEX
8
1
10
2277.407
20
-1327.507
0
VERTEX
8
1
10
2258.795
20
-1400.1
0
VERTEX
8
1
10
2250.411
20
-1436.107
0
VERTEX
8
1
10
2245.389
20
-1464.016
0
VERTEX
8
1
10
2242.525
20
-1488.42
0
VERTEX
8
1
10
2241.447
20
-1510.747
0
VERTEX
8
1
10
2241.827
20
-1522.521
0
VERTEX
8
1
10
2243.724
20
-1535.879
0
VERTEX
8
1
10
2247.15
20
-1548.739
0
VERTEX
8
1
10
2252.038
20
-1560.934
0
VERTEX
8
1
10
2258.322
20
-1572.35
0
VERTEX
8
1
10
2265.898
20
-1582.824
0
VERTEX
8
1
10
2274.659
20
-1592.232
0
VERTEX
8
1
10
2284.489
20
-1600.457
0
VERTEX
8
1
10
2295.239
20
-1607.378
0
VERTEX
8
1
10
2306.771
20
-1612.91
0
VERTEX
8
1
10
2318.974
20
-1616.994
0
VERTEX
8
1
10
2331.713
20
-1619.568
0
VERTEX
8
1
10
2344.913
20
-1620.594
0
VERTEX
8
1
10
2358.444
20
-1620.027
0
VERTEX
8
1
10
2371.387
20
-1620.105
0
VERTEX
8
1
10
2399.673
20
-1618.998
0
VERTEX
8
1
10
2418.38
20
-1617.499
0
VERTEX
8
1
10
2487.211
20
-1609.69
0
VERTEX
8
1
10
2524.109
20
-1606.24
0
VERTEX
8
1
10
2561.293
20
-1604.881
0
VERTEX
8
1
10
2561.748
20
-1591.487
0
VERTEX
8
1
10
2563.862
20
-1577.135
0
VERTEX
8
1
10
2567.8
20
-1561.861
0
VERTEX
8
1
10
2573.795
20
-1545.381
0
VERTEX
8
1
10
2582.268
20
-1527.121
0
VERTEX
8
1
10
2586.945
20
-1517.393
0
VERTEX
8
1
10
2596.744
20
-1494.451
0
VERTEX
8
1
10
2604.675
20
-1471.903
0
VERTEX
8
1
10
2610.78
20
-1449.83
0
VERTEX
8
1
10
2615.126
20
-1428.229
0
VERTEX
8
1
10
2617.777
20
-1407.097
0
VERTEX
8
1
10
2277.844
20
-1325.647
0
SEQEND
8
1
0
POINT
8
2
10
2277.844
20
-1325.647
0
TEXT
8
2
10
2277.844
20
-1325.647
40
10.00
1
#826
0
POINT
8
3
10
2277.407
20
-1327.507
0
POINT
8
3
10
2258.795
20
-1400.1
0
POINT
8
3
10
2250.411
20
-1436.107
0
POINT
8
3
10
2245.389
20
-1464.016
0
POINT
8
3
10
2242.525
20
-1488.42
0
POINT
8
4
10
2241.447
20
-1510.747
30
10
50
359.237934862236
0
POINT
8
2
10
2241.447
20
-1510.747
0
TEXT
8
2
10
2241.447
20
-1510.747
40
10.00
1
#827
0
POINT
8
3
10
2241.827
20
-1522.521
0
POINT
8
3
10
2243.724
20
-1535.879
0
POINT
8
3
10
2247.15
20
-1548.739
0
POINT
8
3
10
2252.038
20
-1560.934
0
POINT
8
3
10
2258.322
20
-1572.35
0
POINT
8
3
10
2265.898
20
-1582.824
0
POINT
8
3
10
2274.659
20
-1592.232
0
POINT
8
3
10
2284.489
20
-1600.457
0
POINT
8
3
10
2295.239
20
-1607.378
0
POINT
8
3
10
2306.771
20
-1612.91
0
POINT
8
3
10
2318.974
20
-1616.994
0
POINT
8
3
10
2331.713
20
-1619.568
0
POINT
8
3
10
2344.913
20
-1620.594
0
POINT
8
4
10
2358.444
20
-1620.027
30
10
50
88.7450466065747
0
POINT
8
2
10
2358.444
20
-1620.027
0
TEXT
8
2
10
2358.444
20
-1620.027
40
10.00
1
#828
0
POINT
8
3
10
2371.387
20
-1620.105
0
POINT
8
3
10
2399.673
20
-1618.998
0
POINT
8
3
10
2418.38
20
-1617.499
0
POINT
8
3
10
2487.211
20
-1609.69
0
POINT
8
3
10
2524.109
20
-1606.24
0
POINT
8
2
10
2561.293
20
-1604.881
0
TEXT
8
2
10
2561.293
20
-1604.881
40
10.00
1
#829
0
POINT
8
3
10
2561.748
20
-1591.487
0
POINT
8
3
10
2563.862
20
-1577.135
0
POINT
8
3
10
2567.8
20
-1561.861
0
POINT
8
3
10
2573.795
20
-1545.381
0
POINT
8
4
10
2582.268
20
-1527.121
30
10
50
153.921797486088
0
POINT
8
2
10
2582.268
20
-1527.121
0
TEXT
8
2
10
2582.268
20
-1527.121
40
10.00
1
#830
0
POINT
8
3
10
2586.945
20
-1517.393
0
POINT
8
3
10
2596.744
20
-1494.451
0
POINT
8
3
10
2604.675
20
-1471.903
0
POINT
8
3
10
2610.78
20
-1449.83
0
POINT
8
3
10
2615.126
20
-1428.229
0
POINT
8
2
10
2617.777
20
-1407.097
0
TEXT
8
2
10
2617.777
20
-1407.097
40
10.00
1
#831
0
POINT
8
2
10
2277.844
20
-1325.647
0
TEXT
8
2
10
2277.844
20
-1325.647
40
10.00
1
#826
0
LINE
8
7
10
2483.588
20
-1470.153
11
2383.511
21
-1470.153
0
POINT
8
2
10
2483.588
20
-1470.153
0
TEXT
8
2
10
2483.588
20
-1470.153
40
10.00
1
#1
0
POINT
8
2
10
2383.511
20
-1470.153
0
TEXT
8
2
10
2383.511
20
-1470.153
40
10.00
1
#1
0
TEXT
8
8
10
2499.792
20
-1518.295
11
2555.774
21
-1469.312
40
10.00
50
318.814799421347
1
2 ADET
0
TEXT
8
1
10
2383.511
20
-1459.153
40
10.00
1
PIECE NAME: KPSNELYF
0
TEXT
8
1
10
2383.511
20
-1448.153
40
10.00
1
SIZE: 36
0
TEXT
8
1
10
2383.511
20
-1437.153
40
10.00
1
ANNOTATION: 
0
TEXT
8
1
10
2383.511
20
-1426.153
40
10.00
1
QUANTITY: 1
0
TEXT
8
1
10
2383.511
20
-1415.153
40
10.00
1
MATERIAL: ELYAF
0
ENDBLK
0
BLOCK
8
0
2
19
70
0
10
0.0000
20
0.0000
0
POLYLINE
8
1
66
1
70
1
0
VERTEX
8
1
10
1265.538
20
-48.313
0
VERTEX
8
1
10
1265.644
20
-48.54
0
VERTEX
8
1
10
1274.483
20
-69.544
0
VERTEX
8
1
10
1282.2
20
-92.094
0
VERTEX
8
1
10
1288.761
20
-116.35
0
VERTEX
8
1
10
1294.151
20
-142.598
0
VERTEX
8
1
10
1298.316
20
-171.155
0
VERTEX
8
1
10
1301.207
20
-202.574
0
VERTEX
8
1
10
1302.92
20
-237.129
0
VERTEX
8
1
10
1303.595
20
-287.592
0
VERTEX
8
1
10
1303.538
20
-304.483
0
VERTEX
8
1
10
1302.5
20
-349.589
0
VERTEX
8
1
10
1300.221
20
-385.251
0
VERTEX
8
1
10
1298.265
20
-404.533
0
VERTEX
8
1
10
1294.115
20
-432.913
0
VERTEX
8
1
10
1288.733
20
-459.045
0
VERTEX
8
1
10
1282.157
20
-483.291
0
VERTEX
8
1
10
1274.426
20
-505.841
0
VERTEX
8
1
10
1265.561
20
-526.874
0
VERTEX
8
1
10
1320.858
20
-550.787
0
VERTEX
8
1
10
1325.273
20
-540.816
0
VERTEX
8
1
10
1333.64
20
-518.927
0
VERTEX
8
1
10
1341.047
20
-494.899
0
VERTEX
8
1
10
1347.556
20
-468.089
0
VERTEX
8
1
10
1353.263
20
-437.32
0
VERTEX
8
1
10
1358.442
20
-399.606
0
VERTEX
8
1
10
1361.104
20
-372.133
0
VERTEX
8
1
10
1362.939
20
-336.969
0
VERTEX
8
1
10
1363.595
20
-287.588
0
VERTEX
8
1
10
1363.09
20
-243.507
0
VERTEX
8
1
10
1361.344
20
-206.467
0
VERTEX
8
1
10
1358.43
20
-175.574
0
VERTEX
8
1
10
1355.958
20
-156.126
0
VERTEX
8
1
10
1350.563
20
-122.305
0
VERTEX
8
1
10
1344.479
20
-93.647
0
VERTEX
8
1
10
1337.538
20
-68.279
0
VERTEX
8
1
10
1329.673
20
-45.372
0
VERTEX
8
1
10
1320.832
20
-24.396
0
VERTEX
8
1
10
1265.538
20
-48.313
0
SEQEND
8
1
0
POINT
8
2
10
1265.538
20
-48.313
0
TEXT
8
2
10
1265.538
20
-48.313
40
10.00
1
#835
0
POINT
8
3
10
1265.644
20
-48.54
0
POINT
8
3
10
1274.483
20
-69.544
0
POINT
8
3
10
1282.2
20
-92.094
0
POINT
8
3
10
1288.761
20
-116.35
0
POINT
8
3
10
1294.151
20
-142.598
0
POINT
8
3
10
1298.316
20
-171.155
0
POINT
8
3
10
1301.207
20
-202.574
0
POINT
8
3
10
1302.92
20
-237.129
0
POINT
8
4
10
1303.595
20
-287.592
30
10
50
0
0
POINT
8
2
10
1303.595
20
-287.592
0
TEXT
8
2
10
1303.595
20
-287.592
40
10.00
1
#836
0
POINT
8
3
10
1303.538
20
-304.483
0
POINT
8
3
10
1302.5
20
-349.589
0
POINT
8
3
10
1300.221
20
-385.251
0
POINT
8
3
10
1298.265
20
-404.533
0
POINT
8
3
10
1294.115
20
-432.913
0
POINT
8
3
10
1288.733
20
-459.045
0
POINT
8
3
10
1282.157
20
-483.291
0
POINT
8
3
10
1274.426
20
-505.841
0
POINT
8
2
10
1265.561
20
-526.874
0
TEXT
8
2
10
1265.561
20
-526.874
40
10.00
1
#837
0
POINT
8
2
10
1320.858
20
-550.787
0
TEXT
8
2
10
1320.858
20
-550.787
40
10.00
1
#838
0
POINT
8
3
10
1325.273
20
-540.816
0
POINT
8
3
10
1333.64
20
-518.927
0
POINT
8
3
10
1341.047
20
-494.899
0
POINT
8
3
10
1347.556
20
-468.089
0
POINT
8
3
10
1353.263
20
-437.32
0
POINT
8
4
10
1358.442
20
-399.606
30
10
50
173.08532589629
0
POINT
8
2
10
1358.442
20
-399.606
0
TEXT
8
2
10
1358.442
20
-399.606
40
10.00
1
#839
0
POINT
8
3
10
1361.104
20
-372.133
0
POINT
8
3
10
1362.939
20
-336.969
0
POINT
8
4
10
1363.595
20
-287.588
30
10
50
180
0
POINT
8
2
10
1363.595
20
-287.588
0
TEXT
8
2
10
1363.595
20
-287.588
40
10.00
1
#840
0
POINT
8
3
10
1363.09
20
-243.507
0
POINT
8
3
10
1361.344
20
-206.467
0
POINT
8
4
10
1358.43
20
-175.574
30
10
50
186.783149120371
0
POINT
8
2
10
1358.43
20
-175.574
0
TEXT
8
2
10
1358.43
20
-175.574
40
10.00
1
#841
0
POINT
8
3
10
1355.958
20
-156.126
0
POINT
8
3
10
1350.563
20
-122.305
0
POINT
8
3
10
1344.479
20
-93.647
0
POINT
8
3
10
1337.538
20
-68.279
0
POINT
8
3
10
1329.673
20
-45.372
0
POINT
8
2
10
1320.832
20
-24.396
0
TEXT
8
2
10
1320.832
20
-24.396
40
10.00
1
#842
0
POINT
8
2
10
1265.538
20
-48.313
0
TEXT
8
2
10
1265.538
20
-48.313
40
10.00
1
#835
0
LINE
8
7
10
1341.942
20
-266.191
11
1321.942
21
-266.191
0
POINT
8
2
10
1341.942
20
-266.191
0
TEXT
8
2
10
1341.942
20
-266.191
40
10.00
1
#1
0
POINT
8
2
10
1321.942
20
-266.191
0
TEXT
8
2
10
1321.942
20
-266.191
40
10.00
1
#1
0
TEXT
8
8
10
1333.141
20
-226.008
11
1327.927
21
-151.275
40
10.00
50
266.009033671849
1
1 ADET
0
TEXT
8
1
10
1321.942
20
-255.191
40
10.00
1
PIECE NAME: YKELYAF
0
TEXT
8
1
10
1321.942
20
-244.191
40
10.00
1
SIZE: 36
0
TEXT
8
1
10
1321.942
20
-233.191
40
10.00
1
ANNOTATION: 
0
TEXT
8
1
10
1321.942
20
-222.191
40
10.00
1
QUANTITY: 1
0
TEXT
8
1
10
1321.942
20
-211.191
40
10.00
1
MATERIAL: ELYAF
0
ENDBLK
0
BLOCK
8
0
2
20
70
0
10
0.0000
20
0.0000
0
POLYLINE
8
1
66
1
70
1
0
VERTEX
8
1
10
1502.117
20
-259.202
0
VERTEX
8
1
10
1524.524
20
-314.862
0
VERTEX
8
1
10
1549.636
20
-304.843
0
VERTEX
8
1
10
1591.138
20
-289.641
0
VERTEX
8
1
10
1631.906
20
-276.382
0
VERTEX
8
1
10
1672.038
20
-264.987
0
VERTEX
8
1
10
1711.541
20
-255.413
0
VERTEX
8
1
10
1750.393
20
-247.623
0
VERTEX
8
1
10
1779.976
20
-242.684
0
VERTEX
8
1
10
1793.944
20
-240.623
0
VERTEX
8
1
10
1837.564
20
-235.271
0
VERTEX
8
1
10
1882.356
20
-231.406
0
VERTEX
8
1
10
1928.394
20
-229.056
0
VERTEX
8
1
10
1975.68
20
-228.264
0
VERTEX
8
1
10
2272.529
20
-228.264
0
VERTEX
8
1
10
2579.378
20
-228.264
0
VERTEX
8
1
10
2579.378
20
-148.26
0
VERTEX
8
1
10
1586.182
20
-148.545
0
VERTEX
8
1
10
1586.198
20
-159.189
0
VERTEX
8
1
10
1585.211
20
-174.115
0
VERTEX
8
1
10
1582.983
20
-185.786
0
VERTEX
8
1
10
1582.013
20
-189.546
0
VERTEX
8
1
10
1578.258
20
-199.801
0
VERTEX
8
1
10
1572.943
20
-209.626
0
VERTEX
8
1
10
1565.981
20
-219.062
0
VERTEX
8
1
10
1557.234
20
-228.132
0
VERTEX
8
1
10
1546.559
20
-236.794
0
VERTEX
8
1
10
1533.828
20
-244.966
0
VERTEX
8
1
10
1518.98
20
-252.506
0
VERTEX
8
1
10
1502.117
20
-259.202
0
SEQEND
8
1
0
POINT
8
2
10
1502.117
20
-259.202
0
TEXT
8
2
10
1502.117
20
-259.202
40
10.00
1
#847
0
POINT
8
2
10
1524.524
20
-314.862
0
TEXT
8
2
10
1524.524
20
-314.862
40
10.00
1
#848
0
POINT
8
3
10
1549.636
20
-304.843
0
POINT
8
3
10
1591.138
20
-289.641
0
POINT
8
3
10
1631.906
20
-276.382
0
POINT
8
3
10
1672.038
20
-264.987
0
POINT
8
3
10
1711.541
20
-255.413
0
POINT
8
4
10
1750.393
20
-247.623
30
10
50
100.235664173921
0
POINT
8
2
10
1750.393
20
-247.623
0
TEXT
8
2
10
1750.393
20
-247.623
40
10.00
1
#849
0
POINT
8
3
10
1779.976
20
-242.684
0
POINT
8
3
10
1793.944
20
-240.623
0
POINT
8
3
10
1837.564
20
-235.271
0
POINT
8
3
10
1882.356
20
-231.406
0
POINT
8
3
10
1928.394
20
-229.056
0
POINT
8
4
10
1975.68
20
-228.264
30
10
50
90
0
POINT
8
2
10
1975.68
20
-228.264
0
TEXT
8
2
10
1975.68
20
-228.264
40
10.00
1
#850
0
POINT
8
4
10
2272.529
20
-228.264
30
10
50
90
0
POINT
8
2
10
2272.529
20
-228.264
0
TEXT
8
2
10
2272.529
20
-228.264
40
10.00
1
#851
0
POINT
8
2
10
2579.378
20
-228.264
0
TEXT
8
2
10
2579.378
20
-228.264
40
10.00
1
#852
0
POINT
8
2
10
2579.378
20
-148.26
0
TEXT
8
2
10
2579.378
20
-148.26
40
10.00
1
#853
0
POINT
8
2
10
1586.182
20
-148.545
0
TEXT
8
2
10
1586.182
20
-148.545
40
10.00
1
#854
0
POINT
8
3
10
1586.198
20
-159.189
0
POINT
8
3
10
1585.211
20
-174.115
0
POINT
8
4
10
1582.983
20
-185.786
30
10
50
345.681650508352
0
POINT
8
2
10
1582.983
20
-185.786
0
TEXT
8
2
10
1582.983
20
-185.786
40
10.00
1
#855
0
POINT
8
3
10
1582.013
20
-189.546
0
POINT
8
3
10
1578.258
20
-199.801
0
POINT
8
3
10
1572.943
20
-209.626
0
POINT
8
3
10
1565.981
20
-219.062
0
POINT
8
3
10
1557.234
20
-228.132
0
POINT
8
3
10
1546.559
20
-236.794
0
POINT
8
3
10
1533.828
20
-244.966
0
POINT
8
3
10
1518.98
20
-252.506
0
POINT
8
2
10
1502.117
20
-259.202
0
TEXT
8
2
10
1502.117
20
-259.202
40
10.00
1
#847
0
LINE
8
7
10
2198.046
20
-178.961
11
2098.046
21
-178.961
0
POINT
8
2
10
2198.046
20
-178.961
0
TEXT
8
2
10
2198.046
20
-178.961
40
10.00
1
#1
0
POINT
8
2
10
2098.046
20
-178.961
0
TEXT
8
2
10
2098.046
20
-178.961
40
10.00
1
#1
0
TEXT
8
8
10
1695.492
20
-218.817
11
1818.65
21
-196.423
40
10.00
50
349.694416621715
1
2 ADET TELALI
0
TEXT
8
1
10
2098.046
20
-167.961
40
10.00
1
PIECE NAME: MOSTRA
0
TEXT
8
1
10
2098.046
20
-156.961
40
10.00
1
SIZE: 36
0
TEXT
8
1
10
2098.046
20
-145.961
40
10.00
1
ANNOTATION: 
0
TEXT
8
1
10
2098.046
20
-134.961
40
10.00
1
QUANTITY: 1
0
TEXT
8
1
10
2098.046
20
-123.961
40
10.00
1
MATERIAL: KOMBÝN
0
ENDBLK
0
BLOCK
8
0
2
21
70
0
10
0.0000
20
0.0000
0
POLYLINE
8
1
66
1
70
1
0
VERTEX
8
1
10
3169.923
20
-365.253
0
VERTEX
8
1
10
3204.121
20
-452.735
0
VERTEX
8
1
10
3217.061
20
-447.925
0
VERTEX
8
1
10
3234.135
20
-443.274
0
VERTEX
8
1
10
3255.322
20
-439.362
0
VERTEX
8
1
10
3305.234
20
-433.369
0
VERTEX
8
1
10
3307.643
20
-433.156
0
VERTEX
8
1
10
3329.971
20
-431.879
0
VERTEX
8
1
10
3346.222
20
-432.369
0
VERTEX
8
1
10
3359.836
20
-434.264
0
VERTEX
8
1
10
3371.813
20
-437.467
0
VERTEX
8
1
10
3377.068
20
-439.576
0
VERTEX
8
1
10
3384.923
20
-444.038
0
VERTEX
8
1
10
3391.195
20
-449.346
0
VERTEX
8
1
10
3395.891
20
-455.329
0
VERTEX
8
1
10
3399.614
20
-462.439
0
VERTEX
8
1
10
3402.829
20
-471.997
0
VERTEX
8
1
10
3405.012
20
-484.095
0
VERTEX
8
1
10
3406.363
20
-504.202
0
VERTEX
8
1
10
3467.11
20
-495.901
0
VERTEX
8
1
10
3499.253
20
-492.512
0
VERTEX
8
1
10
3524.4
20
-491.315
0
VERTEX
8
1
10
3546.26
20
-491.781
0
VERTEX
8
1
10
3566.091
20
-493.735
0
VERTEX
8
1
10
3602.61
20
-499.827
0
VERTEX
8
1
10
3676.521
20
-514.825
0
VERTEX
8
1
10
3724.588
20
-524.043
0
VERTEX
8
1
10
3759.476
20
-529.286
0
VERTEX
8
1
10
3774.921
20
-531.077
0
VERTEX
8
1
10
3797.342
20
-533.288
0
VERTEX
8
1
10
3862.666
20
-538.609
0
VERTEX
8
1
10
3933.65
20
-542.717
0
VERTEX
8
1
10
4012.893
20
-545.606
0
VERTEX
8
1
10
4106.243
20
-547.255
0
VERTEX
8
1
10
4237.896
20
-547.585
0
VERTEX
8
1
10
4237.896
20
-276.545
0
VERTEX
8
1
10
3931.047
20
-276.545
0
VERTEX
8
1
10
3634.198
20
-276.545
0
VERTEX
8
1
10
3630.179
20
-276.55
0
VERTEX
8
1
10
3582.5
20
-277.473
0
VERTEX
8
1
10
3535.994
20
-279.956
0
VERTEX
8
1
10
3490.69
20
-283.958
0
VERTEX
8
1
10
3446.567
20
-289.442
0
VERTEX
8
1
10
3403.595
20
-296.38
0
VERTEX
8
1
10
3375.484
20
-301.789
0
VERTEX
8
1
10
3336.873
20
-310.528
0
VERTEX
8
1
10
3296.188
20
-321.367
0
VERTEX
8
1
10
3254.807
20
-334.065
0
VERTEX
8
1
10
3212.735
20
-348.673
0
VERTEX
8
1
10
3169.923
20
-365.253
0
SEQEND
8
1
0
POINT
8
2
10
3169.923
20
-365.253
0
TEXT
8
2
10
3169.923
20
-365.253
40
10.00
1
#860
0
POINT
8
2
10
3204.121
20
-452.735
0
TEXT
8
2
10
3204.121
20
-452.735
40
10.00
1
#861
0
POINT
8
3
10
3217.061
20
-447.925
0
POINT
8
3
10
3234.135
20
-443.274
0
POINT
8
3
10
3255.322
20
-439.362
0
POINT
8
4
10
3305.234
20
-433.369
30
10
50
95.7510739684963
0
POINT
8
2
10
3305.234
20
-433.369
0
TEXT
8
2
10
3305.234
20
-433.369
40
10.00
1
#862
0
POINT
8
3
10
3307.643
20
-433.156
0
POINT
8
3
10
3329.971
20
-431.879
0
POINT
8
3
10
3346.222
20
-432.369
0
POINT
8
3
10
3359.836
20
-434.264
0
POINT
8
4
10
3371.813
20
-437.467
30
10
50
70.3600511581979
0
POINT
8
2
10
3371.813
20
-437.467
0
TEXT
8
2
10
3371.813
20
-437.467
40
10.00
1
#863
0
POINT
8
3
10
3377.068
20
-439.576
0
POINT
8
3
10
3384.923
20
-444.038
0
POINT
8
3
10
3391.195
20
-449.346
0
POINT
8
4
10
3395.891
20
-455.329
30
10
50
32.6236830182497
0
POINT
8
2
10
3395.891
20
-455.329
0
TEXT
8
2
10
3395.891
20
-455.329
40
10.00
1
#864
0
POINT
8
3
10
3399.614
20
-462.439
0
POINT
8
3
10
3402.829
20
-471.997
0
POINT
8
3
10
3405.012
20
-484.095
0
POINT
8
2
10
3406.363
20
-504.202
0
TEXT
8
2
10
3406.363
20
-504.202
40
10.00
1
#865
0
POINT
8
3
10
3467.11
20
-495.901
0
POINT
8
3
10
3499.253
20
-492.512
0
POINT
8
3
10
3524.4
20
-491.315
0
POINT
8
3
10
3546.26
20
-491.781
0
POINT
8
4
10
3566.091
20
-493.735
30
10
50
81.9411972950676
0
POINT
8
2
10
3566.091
20
-493.735
0
TEXT
8
2
10
3566.091
20
-493.735
40
10.00
1
#866
0
POINT
8
3
10
3602.61
20
-499.827
0
POINT
8
3
10
3676.521
20
-514.825
0
POINT
8
3
10
3724.588
20
-524.043
0
POINT
8
3
10
3759.476
20
-529.286
0
POINT
8
4
10
3774.921
20
-531.077
30
10
50
84.0881598277368
0
POINT
8
2
10
3774.921
20
-531.077
0
TEXT
8
2
10
3774.921
20
-531.077
40
10.00
1
#867
0
POINT
8
3
10
3797.342
20
-533.288
0
POINT
8
3
10
3862.666
20
-538.609
0
POINT
8
3
10
3933.65
20
-542.717
0
POINT
8
3
10
4012.893
20
-545.606
0
POINT
8
3
10
4106.243
20
-547.255
0
POINT
8
2
10
4237.896
20
-547.585
0
TEXT
8
2
10
4237.896
20
-547.585
40
10.00
1
#868
0
POINT
8
2
10
4237.896
20
-276.545
0
TEXT
8
2
10
4237.896
20
-276.545
40
10.00
1
#869
0
POINT
8
4
10
3931.047
20
-276.545
30
10
50
270
0
POINT
8
2
10
3931.047
20
-276.545
0
TEXT
8
2
10
3931.047
20
-276.545
40
10.00
1
#870
0
POINT
8
4
10
3634.198
20
-276.545
30
10
50
270
0
POINT
8
2
10
3634.198
20
-276.545
0
TEXT
8
2
10
3634.198
20
-276.545
40
10.00
1
#871
0
POINT
8
3
10
3630.179
20
-276.55
0
POINT
8
3
10
3582.5
20
-277.473
0
POINT
8
3
10
3535.994
20
-279.956
0
POINT
8
3
10
3490.69
20
-283.958
0
POINT
8
3
10
3446.567
20
-289.442
0
POINT
8
4
10
3403.595
20
-296.38
30
10
50
280.16596713781
0
POINT
8
2
10
3403.595
20
-296.38
0
TEXT
8
2
10
3403.595
20
-296.38
40
10.00
1
#872
0
POINT
8
3
10
3375.484
20
-301.789
0
POINT
8
3
10
3336.873
20
-310.528
0
POINT
8
3
10
3296.188
20
-321.367
0
POINT
8
3
10
3254.807
20
-334.065
0
POINT
8
3
10
3212.735
20
-348.673
0
POINT
8
2
10
3169.923
20
-365.253
0
TEXT
8
2
10
3169.923
20
-365.253
40
10.00
1
#860
0
LINE
8
7
10
3880.215
20
-409.568
11
3532.533
21
-409.568
0
POINT
8
2
10
3880.215
20
-409.568
0
TEXT
8
2
10
3880.215
20
-409.568
40
10.00
1
#1
0
POINT
8
2
10
3532.533
20
-409.568
0
TEXT
8
2
10
3532.533
20
-409.568
40
10.00
1
#1
0
TEXT
8
1
10
3532.533
20
-398.568
40
10.00
1
PIECE NAME: ONASTAR
0
TEXT
8
1
10
3532.533
20
-387.568
40
10.00
1
SIZE: 36
0
TEXT
8
1
10
3532.533
20
-376.568
40
10.00
1
ANNOTATION: 
0
TEXT
8
1
10
3532.533
20
-365.568
40
10.00
1
QUANTITY: 1
0
TEXT
8
1
10
3532.533
20
-354.568
40
10.00
1
MATERIAL: ASTAR
0
ENDBLK
0
BLOCK
8
0
2
22
70
0
10
0.0000
20
0.0000
0
POLYLINE
8
1
66
1
70
1
0
VERTEX
8
1
10
1550.157
20
-811.113
0
VERTEX
8
1
10
1555.856
20
-812.749
0
VERTEX
8
1
10
1561.181
20
-815.865
0
VERTEX
8
1
10
1565.886
20
-820.537
0
VERTEX
8
1
10
1570.045
20
-827.099
0
VERTEX
8
1
10
1573.597
20
-836.033
0
VERTEX
8
1
10
1576.42
20
-848.033
0
VERTEX
8
1
10
1578.339
20
-864.303
0
VERTEX
8
1
10
1579.26
20
-890.698
0
VERTEX
8
1
10
1579.994
20
-908.922
0
VERTEX
8
1
10
1579.326
20
-923.475
0
VERTEX
8
1
10
1578.442
20
-952.302
0
VERTEX
8
1
10
1576.589
20
-968.91
0
VERTEX
8
1
10
1573.817
20
-981.158
0
VERTEX
8
1
10
1570.299
20
-990.277
0
VERTEX
8
1
10
1566.182
20
-996.965
0
VERTEX
8
1
10
1561.513
20
-1001.74
0
VERTEX
8
1
10
1556.237
20
-1004.948
0
VERTEX
8
1
10
1550.184
20
-1006.739
0
VERTEX
8
1
10
1572.605
20
-1062.393
0
VERTEX
8
1
10
1587.375
20
-1056.944
0
VERTEX
8
1
10
1602.512
20
-1049.691
0
VERTEX
8
1
10
1617.029
20
-1040.958
0
VERTEX
8
1
10
1630.659
20
-1030.895
0
VERTEX
8
1
10
1643.183
20
-1019.676
0
VERTEX
8
1
10
1654.416
20
-1007.49
0
VERTEX
8
1
10
1664.224
20
-994.525
0
VERTEX
8
1
10
1672.521
20
-980.945
0
VERTEX
8
1
10
1679.218
20
-966.966
0
VERTEX
8
1
10
1684.324
20
-952.659
0
VERTEX
8
1
10
1687.817
20
-938.168
0
VERTEX
8
1
10
1689.704
20
-923.566
0
VERTEX
8
1
10
1689.994
20
-908.907
0
VERTEX
8
1
10
1689.762
20
-895.235
0
VERTEX
8
1
10
1687.976
20
-880.565
0
VERTEX
8
1
10
1684.596
20
-866.059
0
VERTEX
8
1
10
1679.622
20
-851.78
0
VERTEX
8
1
10
1673.038
20
-837.779
0
VERTEX
8
1
10
1664.885
20
-824.235
0
VERTEX
8
1
10
1655.204
20
-811.274
0
VERTEX
8
1
10
1644.071
20
-799.058
0
VERTEX
8
1
10
1631.607
20
-787.773
0
VERTEX
8
1
10
1618.019
20
-777.629
0
VERTEX
8
1
10
1603.493
20
-768.772
0
VERTEX
8
1
10
1588.259
20
-761.345
0
VERTEX
8
1
10
1572.564
20
-755.453
0
VERTEX
8
1
10
1550.157
20
-811.113
0
SEQEND
8
1
0
POINT
8
2
10
1550.157
20
-811.113
0
TEXT
8
2
10
1550.157
20
-811.113
40
10.00
1
#881
0
POINT
8
3
10
1555.856
20
-812.749
0
POINT
8
3
10
1561.181
20
-815.865
0
POINT
8
3
10
1565.886
20
-820.537
0
POINT
8
3
10
1570.045
20
-827.099
0
POINT
8
3
10
1573.597
20
-836.033
0
POINT
8
3
10
1576.42
20
-848.033
0
POINT
8
3
10
1578.339
20
-864.303
0
POINT
8
3
10
1579.26
20
-890.698
0
POINT
8
4
10
1579.994
20
-908.922
30
10
50
0
0
POINT
8
2
10
1579.994
20
-908.922
0
TEXT
8
2
10
1579.994
20
-908.922
40
10.00
1
#882
0
POINT
8
3
10
1579.326
20
-923.475
0
POINT
8
3
10
1578.442
20
-952.302
0
POINT
8
3
10
1576.589
20
-968.91
0
POINT
8
3
10
1573.817
20
-981.158
0
POINT
8
3
10
1570.299
20
-990.277
0
POINT
8
3
10
1566.182
20
-996.965
0
POINT
8
3
10
1561.513
20
-1001.74
0
POINT
8
3
10
1556.237
20
-1004.948
0
POINT
8
2
10
1550.184
20
-1006.739
0
TEXT
8
2
10
1550.184
20
-1006.739
40
10.00
1
#883
0
POINT
8
2
10
1572.605
20
-1062.393
0
TEXT
8
2
10
1572.605
20
-1062.393
40
10.00
1
#884
0
POINT
8
3
10
1587.375
20
-1056.944
0
POINT
8
3
10
1602.512
20
-1049.691
0
POINT
8
3
10
1617.029
20
-1040.958
0
POINT
8
3
10
1630.659
20
-1030.895
0
POINT
8
3
10
1643.183
20
-1019.676
0
POINT
8
3
10
1654.416
20
-1007.49
0
POINT
8
3
10
1664.224
20
-994.525
0
POINT
8
3
10
1672.521
20
-980.945
0
POINT
8
3
10
1679.218
20
-966.966
0
POINT
8
3
10
1684.324
20
-952.659
0
POINT
8
3
10
1687.817
20
-938.168
0
POINT
8
3
10
1689.704
20
-923.566
0
POINT
8
4
10
1689.994
20
-908.907
30
10
50
180
0
POINT
8
2
10
1689.994
20
-908.907
0
TEXT
8
2
10
1689.994
20
-908.907
40
10.00
1
#885
0
POINT
8
3
10
1689.762
20
-895.235
0
POINT
8
3
10
1687.976
20
-880.565
0
POINT
8
3
10
1684.596
20
-866.059
0
POINT
8
3
10
1679.622
20
-851.78
0
POINT
8
3
10
1673.038
20
-837.779
0
POINT
8
3
10
1664.885
20
-824.235
0
POINT
8
3
10
1655.204
20
-811.274
0
POINT
8
3
10
1644.071
20
-799.058
0
POINT
8
3
10
1631.607
20
-787.773
0
POINT
8
3
10
1618.019
20
-777.629
0
POINT
8
3
10
1603.493
20
-768.772
0
POINT
8
3
10
1588.259
20
-761.345
0
POINT
8
2
10
1572.564
20
-755.453
0
TEXT
8
2
10
1572.564
20
-755.453
40
10.00
1
#886
0
POINT
8
2
10
1550.157
20
-811.113
0
TEXT
8
2
10
1550.157
20
-811.113
40
10.00
1
#881
0
LINE
8
7
10
1641.051
20
-838.692
11
1602.109
21
-838.692
0
POINT
8
2
10
1641.051
20
-838.692
0
TEXT
8
2
10
1641.051
20
-838.692
40
10.00
1
#1
0
POINT
8
2
10
1602.109
20
-838.692
0
TEXT
8
2
10
1602.109
20
-838.692
40
10.00
1
#1
0
TEXT
8
8
10
1619.814
20
-985.668
11
1649.833
21
-927.208
40
10.00
50
297.180335509792
1
1 ADET TELALI
0
TEXT
8
1
10
1602.109
20
-827.692
40
10.00
1
PIECE NAME: ARKAPRV
0
TEXT
8
1
10
1602.109
20
-816.692
40
10.00
1
SIZE: 36
0
TEXT
8
1
10
1602.109
20
-805.692
40
10.00
1
ANNOTATION: 
0
TEXT
8
1
10
1602.109
20
-794.692
40
10.00
1
QUANTITY: 1
0
TEXT
8
1
10
1602.109
20
-783.692
40
10.00
1
MATERIAL: KOMBÝN
0
ENDBLK
0
BLOCK
8
0
2
23
70
0
10
0.0000
20
0.0000
0
POLYLINE
8
1
66
1
70
1
0
VERTEX
8
1
10
3144.265
20
-1222.734
0
VERTEX
8
1
10
3156.849
20
-1227.135
0
VERTEX
8
1
10
3171.028
20
-1233.683
0
VERTEX
8
1
10
3184.534
20
-1241.679
0
VERTEX
8
1
10
3197.088
20
-1250.957
0
VERTEX
8
1
10
3208.427
20
-1261.301
0
VERTEX
8
1
10
3218.373
20
-1272.506
0
VERTEX
8
1
10
3226.791
20
-1284.351
0
VERTEX
8
1
10
3233.615
20
-1296.663
0
VERTEX
8
1
10
3238.827
20
-1309.298
0
VERTEX
8
1
10
3242.429
20
-1322.161
0
VERTEX
8
1
10
3244.434
20
-1335.192
0
VERTEX
8
1
10
3244.845
20
-1348.327
0
VERTEX
8
1
10
3244.845
20
-1388.75
0
VERTEX
8
1
10
3844.76
20
-1358.162
0
VERTEX
8
1
10
4234.845
20
-1358.092
0
VERTEX
8
1
10
4234.845
20
-1015.644
0
VERTEX
8
1
10
4176.27
20
-1015.578
0
VERTEX
8
1
10
4065.668
20
-1016.376
0
VERTEX
8
1
10
3978.994
20
-1018.451
0
VERTEX
8
1
10
3903.539
20
-1021.761
0
VERTEX
8
1
10
3835.188
20
-1026.291
0
VERTEX
8
1
10
3771.851
20
-1032.037
0
VERTEX
8
1
10
3746.226
20
-1035.212
0
VERTEX
8
1
10
3710.099
20
-1041.138
0
VERTEX
8
1
10
3601.001
20
-1063.117
0
VERTEX
8
1
10
3563.03
20
-1069.497
0
VERTEX
8
1
10
3548.601
20
-1071.09
0
VERTEX
8
1
10
3527.295
20
-1071.993
0
VERTEX
8
1
10
3503.226
20
-1071.304
0
VERTEX
8
1
10
3474.05
20
-1068.674
0
VERTEX
8
1
10
3403.304
20
-1058.972
0
VERTEX
8
1
10
3403.438
20
-1066.138
0
VERTEX
8
1
10
3402.297
20
-1076.794
0
VERTEX
8
1
10
3399.586
20
-1087.173
0
VERTEX
8
1
10
3395.405
20
-1096.925
0
VERTEX
8
1
10
3389.905
20
-1105.759
0
VERTEX
8
1
10
3383.268
20
-1113.443
0
VERTEX
8
1
10
3375.675
20
-1119.824
0
VERTEX
8
1
10
3367.269
20
-1124.825
0
VERTEX
8
1
10
3360.958
20
-1128.008
0
VERTEX
8
1
10
3346.581
20
-1133.897
0
VERTEX
8
1
10
3330.233
20
-1138.78
0
VERTEX
8
1
10
3311.221
20
-1142.672
0
VERTEX
8
1
10
3287.854
20
-1145.634
0
VERTEX
8
1
10
3279.255
20
-1146.048
0
VERTEX
8
1
10
3249.628
20
-1146.7
0
VERTEX
8
1
10
3227.748
20
-1145.757
0
VERTEX
8
1
10
3209.304
20
-1143.474
0
VERTEX
8
1
10
3193.074
20
-1139.936
0
VERTEX
8
1
10
3178.492
20
-1135.181
0
VERTEX
8
1
10
3144.265
20
-1222.734
0
SEQEND
8
1
0
POINT
8
2
10
3144.265
20
-1222.734
0
TEXT
8
2
10
3144.265
20
-1222.734
40
10.00
1
#889
0
POINT
8
3
10
3156.849
20
-1227.135
0
POINT
8
3
10
3171.028
20
-1233.683
0
POINT
8
3
10
3184.534
20
-1241.679
0
POINT
8
3
10
3197.088
20
-1250.957
0
POINT
8
3
10
3208.427
20
-1261.301
0
POINT
8
3
10
3218.373
20
-1272.506
0
POINT
8
3
10
3226.791
20
-1284.351
0
POINT
8
3
10
3233.615
20
-1296.663
0
POINT
8
3
10
3238.827
20
-1309.298
0
POINT
8
3
10
3242.429
20
-1322.161
0
POINT
8
3
10
3244.434
20
-1335.192
0
POINT
8
4
10
3244.845
20
-1348.327
30
10
50
0
0
POINT
8
2
10
3244.845
20
-1348.327
0
TEXT
8
2
10
3244.845
20
-1348.327
40
10.00
1
#890
0
POINT
8
2
10
3244.845
20
-1388.75
0
TEXT
8
2
10
3244.845
20
-1388.75
40
10.00
1
#891
0
POINT
8
4
10
3844.76
20
-1358.162
30
10
50
91.4726190623257
0
POINT
8
2
10
3844.76
20
-1358.162
0
TEXT
8
2
10
3844.76
20
-1358.162
40
10.00
1
#892
0
POINT
8
2
10
4234.845
20
-1358.092
0
TEXT
8
2
10
4234.845
20
-1358.092
40
10.00
1
#893
0
POINT
8
2
10
4234.845
20
-1015.644
0
TEXT
8
2
10
4234.845
20
-1015.644
40
10.00
1
#894
0
POINT
8
3
10
4176.27
20
-1015.578
0
POINT
8
3
10
4065.668
20
-1016.376
0
POINT
8
3
10
3978.994
20
-1018.451
0
POINT
8
3
10
3903.539
20
-1021.761
0
POINT
8
3
10
3835.188
20
-1026.291
0
POINT
8
4
10
3771.851
20
-1032.037
30
10
50
275.929528508622
0
POINT
8
2
10
3771.851
20
-1032.037
0
TEXT
8
2
10
3771.851
20
-1032.037
40
10.00
1
#895
0
POINT
8
3
10
3746.226
20
-1035.212
0
POINT
8
3
10
3710.099
20
-1041.138
0
POINT
8
3
10
3601.001
20
-1063.117
0
POINT
8
4
10
3563.03
20
-1069.497
30
10
50
278.111465891901
0
POINT
8
2
10
3563.03
20
-1069.497
0
TEXT
8
2
10
3563.03
20
-1069.497
40
10.00
1
#896
0
POINT
8
3
10
3548.601
20
-1071.09
0
POINT
8
3
10
3527.295
20
-1071.993
0
POINT
8
3
10
3503.226
20
-1071.304
0
POINT
8
3
10
3474.05
20
-1068.674
0
POINT
8
2
10
3403.304
20
-1058.972
0
TEXT
8
2
10
3403.304
20
-1058.972
40
10.00
1
#897
0
POINT
8
3
10
3403.438
20
-1066.138
0
POINT
8
3
10
3402.297
20
-1076.794
0
POINT
8
3
10
3399.586
20
-1087.173
0
POINT
8
3
10
3395.405
20
-1096.925
0
POINT
8
3
10
3389.905
20
-1105.759
0
POINT
8
3
10
3383.268
20
-1113.443
0
POINT
8
3
10
3375.675
20
-1119.824
0
POINT
8
4
10
3367.269
20
-1124.825
30
10
50
298.800249755135
0
POINT
8
2
10
3367.269
20
-1124.825
0
TEXT
8
2
10
3367.269
20
-1124.825
40
10.00
1
#898
0
POINT
8
3
10
3360.958
20
-1128.008
0
POINT
8
3
10
3346.581
20
-1133.897
0
POINT
8
3
10
3330.233
20
-1138.78
0
POINT
8
3
10
3311.221
20
-1142.672
0
POINT
8
4
10
3287.854
20
-1145.634
30
10
50
275.100534650582
0
POINT
8
2
10
3287.854
20
-1145.634
0
TEXT
8
2
10
3287.854
20
-1145.634
40
10.00
1
#899
0
POINT
8
3
10
3279.255
20
-1146.048
0
POINT
8
3
10
3249.628
20
-1146.7
0
POINT
8
3
10
3227.748
20
-1145.757
0
POINT
8
3
10
3209.304
20
-1143.474
0
POINT
8
3
10
3193.074
20
-1139.936
0
POINT
8
2
10
3178.492
20
-1135.181
0
TEXT
8
2
10
3178.492
20
-1135.181
40
10.00
1
#900
0
POINT
8
2
10
3144.265
20
-1222.734
0
TEXT
8
2
10
3144.265
20
-1222.734
40
10.00
1
#889
0
LINE
8
7
10
3869.636
20
-1189.431
11
3514.426
21
-1189.431
0
POINT
8
2
10
3869.636
20
-1189.431
0
TEXT
8
2
10
3869.636
20
-1189.431
40
10.00
1
#1
0
POINT
8
2
10
3514.426
20
-1189.431
0
TEXT
8
2
10
3514.426
20
-1189.431
40
10.00
1
#1
0
TEXT
8
1
10
3514.426
20
-1178.431
40
10.00
1
PIECE NAME: ARKASTAR
0
TEXT
8
1
10
3514.426
20
-1167.431
40
10.00
1
SIZE: 36
0
TEXT
8
1
10
3514.426
20
-1156.431
40
10.00
1
ANNOTATION: 
0
TEXT
8
1
10
3514.426
20
-1145.431
40
10.00
1
QUANTITY: 1
0
TEXT
8
1
10
3514.426
20
-1134.431
40
10.00
1
MATERIAL: ASTAR
0
ENDBLK
0
BLOCK
8
0
2
24
70
0
10
0.0000
20
0.0000
0
POLYLINE
8
1
66
1
70
1
0
VERTEX
8
1
10
3436.029
20
-768.144
0
VERTEX
8
1
10
3435.94
20
-777.215
0
VERTEX
8
1
10
3437.139
20
-790.946
0
VERTEX
8
1
10
3439.949
20
-804.639
0
VERTEX
8
1
10
3444.347
20
-818.09
0
VERTEX
8
1
10
3450.275
20
-831.067
0
VERTEX
8
1
10
3457.644
20
-843.363
0
VERTEX
8
1
10
3466.336
20
-854.764
0
VERTEX
8
1
10
3476.186
20
-865.062
0
VERTEX
8
1
10
3487.032
20
-874.107
0
VERTEX
8
1
10
3493.086
20
-878.859
0
VERTEX
8
1
10
3513.286
20
-892.996
0
VERTEX
8
1
10
3544.911
20
-914.144
0
VERTEX
8
1
10
3560.136
20
-925.964
0
VERTEX
8
1
10
3568.463
20
-933.567
0
VERTEX
8
1
10
3575.911
20
-942.524
0
VERTEX
8
1
10
3582.21
20
-952.621
0
VERTEX
8
1
10
3587.215
20
-963.687
0
VERTEX
8
1
10
3590.791
20
-975.486
0
VERTEX
8
1
10
3592.84
20
-987.758
0
VERTEX
8
1
10
3593.3
20
-1000.18
0
VERTEX
8
1
10
4098.757
20
-945.028
0
VERTEX
8
1
10
4098.757
20
-615.695
0
VERTEX
8
1
10
3592.429
20
-560.262
0
VERTEX
8
1
10
3592.594
20
-563.998
0
VERTEX
8
1
10
3592.478
20
-579.657
0
VERTEX
8
1
10
3590.96
20
-591.565
0
VERTEX
8
1
10
3588.201
20
-601.437
0
VERTEX
8
1
10
3584.247
20
-609.896
0
VERTEX
8
1
10
3578.619
20
-618.346
0
VERTEX
8
1
10
3570.762
20
-627.123
0
VERTEX
8
1
10
3560.127
20
-636.359
0
VERTEX
8
1
10
3548.628
20
-644.642
0
VERTEX
8
1
10
3522.423
20
-661.145
0
VERTEX
8
1
10
3497.77
20
-676.77
0
VERTEX
8
1
10
3491.773
20
-680.778
0
VERTEX
8
1
10
3477.833
20
-691.394
0
VERTEX
8
1
10
3466.032
20
-702.298
0
VERTEX
8
1
10
3456.353
20
-713.317
0
VERTEX
8
1
10
3448.722
20
-724.322
0
VERTEX
8
1
10
3442.989
20
-735.283
0
VERTEX
8
1
10
3439.027
20
-746.202
0
VERTEX
8
1
10
3436.726
20
-757.135
0
VERTEX
8
1
10
3436.029
20
-768.144
0
SEQEND
8
1
0
POINT
8
4
10
3436.029
20
-768.144
30
10
50
359.232282502776
0
POINT
8
2
10
3436.029
20
-768.144
0
TEXT
8
2
10
3436.029
20
-768.144
40
10.00
1
#907
0
POINT
8
3
10
3435.94
20
-777.215
0
POINT
8
3
10
3437.139
20
-790.946
0
POINT
8
3
10
3439.949
20
-804.639
0
POINT
8
3
10
3444.347
20
-818.09
0
POINT
8
3
10
3450.275
20
-831.067
0
POINT
8
3
10
3457.644
20
-843.363
0
POINT
8
3
10
3466.336
20
-854.764
0
POINT
8
3
10
3476.186
20
-865.062
0
POINT
8
4
10
3487.032
20
-874.107
30
10
50
51.0439973610089
0
POINT
8
2
10
3487.032
20
-874.107
0
TEXT
8
2
10
3487.032
20
-874.107
40
10.00
1
#908
0
POINT
8
3
10
3493.086
20
-878.859
0
POINT
8
3
10
3513.286
20
-892.996
0
POINT
8
3
10
3544.911
20
-914.144
0
POINT
8
4
10
3560.136
20
-925.964
30
10
50
49.2334020396948
0
POINT
8
2
10
3560.136
20
-925.964
0
TEXT
8
2
10
3560.136
20
-925.964
40
10.00
1
#909
0
POINT
8
3
10
3568.463
20
-933.567
0
POINT
8
3
10
3575.911
20
-942.524
0
POINT
8
3
10
3582.21
20
-952.621
0
POINT
8
3
10
3587.215
20
-963.687
0
POINT
8
3
10
3590.791
20
-975.486
0
POINT
8
3
10
3592.84
20
-987.758
0
POINT
8
2
10
3593.3
20
-1000.18
0
TEXT
8
2
10
3593.3
20
-1000.18
40
10.00
1
#910
0
POINT
8
2
10
4098.757
20
-945.028
0
TEXT
8
2
10
4098.757
20
-945.028
40
10.00
1
#911
0
POINT
8
2
10
4098.757
20
-615.695
0
TEXT
8
2
10
4098.757
20
-615.695
40
10.00
1
#912
0
POINT
8
2
10
3592.429
20
-560.262
0
TEXT
8
2
10
3592.429
20
-560.262
40
10.00
1
#913
0
POINT
8
3
10
3592.594
20
-563.998
0
POINT
8
3
10
3592.478
20
-579.657
0
POINT
8
3
10
3590.96
20
-591.565
0
POINT
8
3
10
3588.201
20
-601.437
0
POINT
8
4
10
3584.247
20
-609.896
30
10
50
330.640998067555
0
POINT
8
2
10
3584.247
20
-609.896
0
TEXT
8
2
10
3584.247
20
-609.896
40
10.00
1
#914
0
POINT
8
3
10
3578.619
20
-618.346
0
POINT
8
3
10
3570.762
20
-627.123
0
POINT
8
4
10
3560.127
20
-636.359
30
10
50
307.982508577625
0
POINT
8
2
10
3560.127
20
-636.359
0
TEXT
8
2
10
3560.127
20
-636.359
40
10.00
1
#915
0
POINT
8
3
10
3548.628
20
-644.642
0
POINT
8
3
10
3522.423
20
-661.145
0
POINT
8
4
10
3497.77
20
-676.77
30
10
50
304.18424467797
0
POINT
8
2
10
3497.77
20
-676.77
0
TEXT
8
2
10
3497.77
20
-676.77
40
10.00
1
#916
0
POINT
8
3
10
3491.773
20
-680.778
0
POINT
8
3
10
3477.833
20
-691.394
0
POINT
8
3
10
3466.032
20
-702.298
0
POINT
8
3
10
3456.353
20
-713.317
0
POINT
8
3
10
3448.722
20
-724.322
0
POINT
8
3
10
3442.989
20
-735.283
0
POINT
8
3
10
3439.027
20
-746.202
0
POINT
8
3
10
3436.726
20
-757.135
0
POINT
8
2
10
3436.029
20
-768.144
0
TEXT
8
2
10
3436.029
20
-768.144
40
10.00
1
#907
0
LINE
8
7
10
3867.586
20
-782.77
11
3650.432
21
-782.77
0
POINT
8
2
10
3867.586
20
-782.77
0
TEXT
8
2
10
3867.586
20
-782.77
40
10.00
1
#1
0
POINT
8
2
10
3650.432
20
-782.77
0
TEXT
8
2
10
3650.432
20
-782.77
40
10.00
1
#1
0
TEXT
8
1
10
3650.432
20
-771.77
40
10.00
1
PIECE NAME: KOLASTAR
0
TEXT
8
1
10
3650.432
20
-760.77
40
10.00
1
SIZE: 36
0
TEXT
8
1
10
3650.432
20
-749.77
40
10.00
1
ANNOTATION: 
0
TEXT
8
1
10
3650.432
20
-738.77
40
10.00
1
QUANTITY: 1
0
TEXT
8
1
10
3650.432
20
-727.77
40
10.00
1
MATERIAL: ASTAR
0
ENDBLK
0
BLOCK
8
0
2
25
70
0
10
0.0000
20
0.0000
0
POLYLINE
8
1
66
1
70
1
0
VERTEX
8
1
10
3497.77
20
-883.672
0
VERTEX
8
1
10
3522.423
20
-899.297
0
VERTEX
8
1
10
3548.628
20
-915.8
0
VERTEX
8
1
10
3560.127
20
-924.083
0
VERTEX
8
1
10
3570.762
20
-933.319
0
VERTEX
8
1
10
3578.619
20
-942.096
0
VERTEX
8
1
10
3584.247
20
-950.546
0
VERTEX
8
1
10
3588.201
20
-959.005
0
VERTEX
8
1
10
3590.96
20
-968.877
0
VERTEX
8
1
10
3592.478
20
-980.785
0
VERTEX
8
1
10
3592.594
20
-996.444
0
VERTEX
8
1
10
3592.429
20
-1000.18
0
VERTEX
8
1
10
4098.757
20
-944.747
0
VERTEX
8
1
10
4098.757
20
-615.414
0
VERTEX
8
1
10
3593.3
20
-560.262
0
VERTEX
8
1
10
3592.84
20
-572.684
0
VERTEX
8
1
10
3590.791
20
-584.956
0
VERTEX
8
1
10
3587.215
20
-596.755
0
VERTEX
8
1
10
3582.21
20
-607.821
0
VERTEX
8
1
10
3575.911
20
-617.918
0
VERTEX
8
1
10
3568.463
20
-626.875
0
VERTEX
8
1
10
3560.136
20
-634.478
0
VERTEX
8
1
10
3544.911
20
-646.298
0
VERTEX
8
1
10
3513.286
20
-667.446
0
VERTEX
8
1
10
3493.086
20
-681.583
0
VERTEX
8
1
10
3487.032
20
-686.335
0
VERTEX
8
1
10
3476.186
20
-695.38
0
VERTEX
8
1
10
3466.336
20
-705.678
0
VERTEX
8
1
10
3457.644
20
-717.079
0
VERTEX
8
1
10
3450.275
20
-729.375
0
VERTEX
8
1
10
3444.347
20
-742.352
0
VERTEX
8
1
10
3439.949
20
-755.803
0
VERTEX
8
1
10
3437.139
20
-769.496
0
VERTEX
8
1
10
3435.94
20
-783.227
0
VERTEX
8
1
10
3436.029
20
-792.298
0
VERTEX
8
1
10
3436.726
20
-803.307
0
VERTEX
8
1
10
3439.027
20
-814.24
0
VERTEX
8
1
10
3442.989
20
-825.159
0
VERTEX
8
1
10
3448.722
20
-836.12
0
VERTEX
8
1
10
3456.353
20
-847.125
0
VERTEX
8
1
10
3466.032
20
-858.144
0
VERTEX
8
1
10
3477.833
20
-869.048
0
VERTEX
8
1
10
3491.773
20
-879.664
0
VERTEX
8
1
10
3497.77
20
-883.672
0
SEQEND
8
1
0
POINT
8
4
10
3497.77
20
-883.672
30
10
50
55.81575532203
0
POINT
8
2
10
3497.77
20
-883.672
0
TEXT
8
2
10
3497.77
20
-883.672
40
10.00
1
#414
0
POINT
8
3
10
3522.423
20
-899.297
0
POINT
8
3
10
3548.628
20
-915.8
0
POINT
8
4
10
3560.127
20
-924.083
30
10
50
52.017491422375
0
POINT
8
2
10
3560.127
20
-924.083
0
TEXT
8
2
10
3560.127
20
-924.083
40
10.00
1
#415
0
POINT
8
3
10
3570.762
20
-933.319
0
POINT
8
3
10
3578.619
20
-942.096
0
POINT
8
4
10
3584.247
20
-950.546
30
10
50
29.3590019324453
0
POINT
8
2
10
3584.247
20
-950.546
0
TEXT
8
2
10
3584.247
20
-950.546
40
10.00
1
#416
0
POINT
8
3
10
3588.201
20
-959.005
0
POINT
8
3
10
3590.96
20
-968.877
0
POINT
8
3
10
3592.478
20
-980.785
0
POINT
8
3
10
3592.594
20
-996.444
0
POINT
8
2
10
3592.429
20
-1000.18
0
TEXT
8
2
10
3592.429
20
-1000.18
40
10.00
1
#417
0
POINT
8
2
10
4098.757
20
-944.747
0
TEXT
8
2
10
4098.757
20
-944.747
40
10.00
1
#418
0
POINT
8
2
10
4098.757
20
-615.414
0
TEXT
8
2
10
4098.757
20
-615.414
40
10.00
1
#419
0
POINT
8
2
10
3593.3
20
-560.262
0
TEXT
8
2
10
3593.3
20
-560.262
40
10.00
1
#420
0
POINT
8
3
10
3592.84
20
-572.684
0
POINT
8
3
10
3590.791
20
-584.956
0
POINT
8
3
10
3587.215
20
-596.755
0
POINT
8
3
10
3582.21
20
-607.821
0
POINT
8
3
10
3575.911
20
-617.918
0
POINT
8
3
10
3568.463
20
-626.875
0
POINT
8
4
10
3560.136
20
-634.478
30
10
50
310.766597960305
0
POINT
8
2
10
3560.136
20
-634.478
0
TEXT
8
2
10
3560.136
20
-634.478
40
10.00
1
#421
0
POINT
8
3
10
3544.911
20
-646.298
0
POINT
8
3
10
3513.286
20
-667.446
0
POINT
8
3
10
3493.086
20
-681.583
0
POINT
8
4
10
3487.032
20
-686.335
30
10
50
308.956002638991
0
POINT
8
2
10
3487.032
20
-686.335
0
TEXT
8
2
10
3487.032
20
-686.335
40
10.00
1
#422
0
POINT
8
3
10
3476.186
20
-695.38
0
POINT
8
3
10
3466.336
20
-705.678
0
POINT
8
3
10
3457.644
20
-717.079
0
POINT
8
3
10
3450.275
20
-729.375
0
POINT
8
3
10
3444.347
20
-742.352
0
POINT
8
3
10
3439.949
20
-755.803
0
POINT
8
3
10
3437.139
20
-769.496
0
POINT
8
3
10
3435.94
20
-783.227
0
POINT
8
4
10
3436.029
20
-792.298
30
10
50
0.76771749722435
0
POINT
8
2
10
3436.029
20
-792.298
0
TEXT
8
2
10
3436.029
20
-792.298
40
10.00
1
#423
0
POINT
8
3
10
3436.726
20
-803.307
0
POINT
8
3
10
3439.027
20
-814.24
0
POINT
8
3
10
3442.989
20
-825.159
0
POINT
8
3
10
3448.722
20
-836.12
0
POINT
8
3
10
3456.353
20
-847.125
0
POINT
8
3
10
3466.032
20
-858.144
0
POINT
8
3
10
3477.833
20
-869.048
0
POINT
8
3
10
3491.773
20
-879.664
0
POINT
8
2
10
3497.77
20
-883.672
0
TEXT
8
2
10
3497.77
20
-883.672
40
10.00
1
#414
0
LINE
8
7
10
3867.586
20
-777.672
11
3650.432
21
-777.672
0
POINT
8
2
10
3867.586
20
-777.672
0
TEXT
8
2
10
3867.586
20
-777.672
40
10.00
1
#1
0
POINT
8
2
10
3650.432
20
-777.672
0
TEXT
8
2
10
3650.432
20
-777.672
40
10.00
1
#1
0
TEXT
8
1
10
3650.432
20
-766.672
40
10.00
1
PIECE NAME: KOLASTARFY1
0
TEXT
8
1
10
3650.432
20
-755.672
40
10.00
1
SIZE: 36
0
TEXT
8
1
10
3650.432
20
-744.672
40
10.00
1
ANNOTATION: 
0
TEXT
8
1
10
3650.432
20
-733.672
40
10.00
1
QUANTITY: 1
0
TEXT
8
1
10
3650.432
20
-722.672
40
10.00
1
MATERIAL: ASTAR
0
ENDBLK
0
BLOCK
8
0
2
26
70
0
10
0.0000
20
0.0000
0
POLYLINE
8
1
66
1
70
1
0
VERTEX
8
1
10
3075.518
20
-580.115
0
VERTEX
8
1
10
3075.081
20
-581.975
0
VERTEX
8
1
10
3056.469
20
-654.569
0
VERTEX
8
1
10
3048.085
20
-690.576
0
VERTEX
8
1
10
3043.063
20
-718.484
0
VERTEX
8
1
10
3040.199
20
-742.888
0
VERTEX
8
1
10
3039.121
20
-765.216
0
VERTEX
8
1
10
3039.501
20
-776.991
0
VERTEX
8
1
10
3041.398
20
-790.348
0
VERTEX
8
1
10
3044.824
20
-803.209
0
VERTEX
8
1
10
3049.711
20
-815.403
0
VERTEX
8
1
10
3055.996
20
-826.819
0
VERTEX
8
1
10
3063.572
20
-837.294
0
VERTEX
8
1
10
3072.333
20
-846.701
0
VERTEX
8
1
10
3082.164
20
-854.925
0
VERTEX
8
1
10
3092.913
20
-861.847
0
VERTEX
8
1
10
3104.445
20
-867.378
0
VERTEX
8
1
10
3116.648
20
-871.463
0
VERTEX
8
1
10
3129.387
20
-874.037
0
VERTEX
8
1
10
3142.586
20
-875.064
0
VERTEX
8
1
10
3156.118
20
-874.497
0
VERTEX
8
1
10
3169.061
20
-874.574
0
VERTEX
8
1
10
3197.347
20
-873.468
0
VERTEX
8
1
10
3216.054
20
-871.969
0
VERTEX
8
1
10
3284.885
20
-864.16
0
VERTEX
8
1
10
3321.783
20
-860.709
0
VERTEX
8
1
10
3358.967
20
-859.35
0
VERTEX
8
1
10
3359.422
20
-845.955
0
VERTEX
8
1
10
3361.536
20
-831.604
0
VERTEX
8
1
10
3365.474
20
-816.329
0
VERTEX
8
1
10
3371.469
20
-799.849
0
VERTEX
8
1
10
3379.942
20
-781.59
0
VERTEX
8
1
10
3384.619
20
-771.863
0
VERTEX
8
1
10
3394.418
20
-748.921
0
VERTEX
8
1
10
3402.349
20
-726.373
0
VERTEX
8
1
10
3408.454
20
-704.299
0
VERTEX
8
1
10
3412.8
20
-682.699
0
VERTEX
8
1
10
3415.451
20
-661.566
0
VERTEX
8
1
10
3075.518
20
-580.115
0
SEQEND
8
1
0
POINT
8
2
10
3075.518
20
-580.115
0
TEXT
8
2
10
3075.518
20
-580.115
40
10.00
1
#923
0
POINT
8
3
10
3075.081
20
-581.975
0
POINT
8
3
10
3056.469
20
-654.569
0
POINT
8
3
10
3048.085
20
-690.576
0
POINT
8
3
10
3043.063
20
-718.484
0
POINT
8
3
10
3040.199
20
-742.888
0
POINT
8
4
10
3039.121
20
-765.216
30
10
50
359.237934862236
0
POINT
8
2
10
3039.121
20
-765.216
0
TEXT
8
2
10
3039.121
20
-765.216
40
10.00
1
#924
0
POINT
8
3
10
3039.501
20
-776.991
0
POINT
8
3
10
3041.398
20
-790.348
0
POINT
8
3
10
3044.824
20
-803.209
0
POINT
8
3
10
3049.711
20
-815.403
0
POINT
8
3
10
3055.996
20
-826.819
0
POINT
8
3
10
3063.572
20
-837.294
0
POINT
8
3
10
3072.333
20
-846.701
0
POINT
8
3
10
3082.164
20
-854.925
0
POINT
8
3
10
3092.913
20
-861.847
0
POINT
8
3
10
3104.445
20
-867.378
0
POINT
8
3
10
3116.648
20
-871.463
0
POINT
8
3
10
3129.387
20
-874.037
0
POINT
8
3
10
3142.586
20
-875.064
0
POINT
8
4
10
3156.118
20
-874.497
30
10
50
88.7451720868828
0
POINT
8
2
10
3156.118
20
-874.497
0
TEXT
8
2
10
3156.118
20
-874.497
40
10.00
1
#925
0
POINT
8
3
10
3169.061
20
-874.574
0
POINT
8
3
10
3197.347
20
-873.468
0
POINT
8
3
10
3216.054
20
-871.969
0
POINT
8
3
10
3284.885
20
-864.16
0
POINT
8
3
10
3321.783
20
-860.709
0
POINT
8
2
10
3358.967
20
-859.35
0
TEXT
8
2
10
3358.967
20
-859.35
40
10.00
1
#926
0
POINT
8
3
10
3359.422
20
-845.955
0
POINT
8
3
10
3361.536
20
-831.604
0
POINT
8
3
10
3365.474
20
-816.329
0
POINT
8
3
10
3371.469
20
-799.849
0
POINT
8
4
10
3379.942
20
-781.59
30
10
50
153.921797486088
0
POINT
8
2
10
3379.942
20
-781.59
0
TEXT
8
2
10
3379.942
20
-781.59
40
10.00
1
#927
0
POINT
8
3
10
3384.619
20
-771.863
0
POINT
8
3
10
3394.418
20
-748.921
0
POINT
8
3
10
3402.349
20
-726.373
0
POINT
8
3
10
3408.454
20
-704.299
0
POINT
8
3
10
3412.8
20
-682.699
0
POINT
8
2
10
3415.451
20
-661.566
0
TEXT
8
2
10
3415.451
20
-661.566
40
10.00
1
#928
0
POINT
8
2
10
3075.518
20
-580.115
0
TEXT
8
2
10
3075.518
20
-580.115
40
10.00
1
#923
0
LINE
8
7
10
3281.262
20
-724.623
11
3181.185
21
-724.623
0
POINT
8
2
10
3281.262
20
-724.623
0
TEXT
8
2
10
3281.262
20
-724.623
40
10.00
1
#1
0
POINT
8
2
10
3181.185
20
-724.623
0
TEXT
8
2
10
3181.185
20
-724.623
40
10.00
1
#1
0
TEXT
8
8
10
3297.466
20
-772.764
11
3353.448
21
-723.78
40
10.00
50
318.814219750419
1
2 ADET
0
TEXT
8
1
10
3181.185
20
-713.623
40
10.00
1
PIECE NAME: KPSNAST
0
TEXT
8
1
10
3181.185
20
-702.623
40
10.00
1
SIZE: 36
0
TEXT
8
1
10
3181.185
20
-691.623
40
10.00
1
ANNOTATION: 
0
TEXT
8
1
10
3181.185
20
-680.623
40
10.00
1
QUANTITY: 1
0
TEXT
8
1
10
3181.185
20
-669.623
40
10.00
1
MATERIAL: ASTAR
0
ENDBLK
0
BLOCK
8
0
2
27
70
0
10
0.0000
20
0.0000
0
POLYLINE
8
1
66
1
70
1
0
VERTEX
8
1
10
2906.425
20
-911.316
0
VERTEX
8
1
10
2906.425
20
-1001.316
0
VERTEX
8
1
10
3046.425
20
-1001.316
0
VERTEX
8
1
10
3078.324
20
-1001.316
0
VERTEX
8
1
10
3244.324
20
-1001.316
0
VERTEX
8
1
10
3447.425
20
-1001.316
0
VERTEX
8
1
10
3447.425
20
-956.316
0
VERTEX
8
1
10
3447.425
20
-911.316
0
VERTEX
8
1
10
3244.324
20
-911.316
0
VERTEX
8
1
10
3078.324
20
-911.316
0
VERTEX
8
1
10
3046.425
20
-911.316
0
VERTEX
8
1
10
2906.425
20
-911.316
0
SEQEND
8
1
0
POINT
8
2
10
2906.425
20
-911.316
0
TEXT
8
2
10
2906.425
20
-911.316
40
10.00
1
#932
0
POINT
8
2
10
2906.425
20
-1001.316
0
TEXT
8
2
10
2906.425
20
-1001.316
40
10.00
1
#933
0
POINT
8
4
10
3046.425
20
-1001.316
30
10
50
90
0
POINT
8
2
10
3046.425
20
-1001.316
0
TEXT
8
2
10
3046.425
20
-1001.316
40
10.00
1
#934
0
POINT
8
4
10
3078.324
20
-1001.316
30
10
50
90
0
POINT
8
2
10
3078.324
20
-1001.316
0
TEXT
8
2
10
3078.324
20
-1001.316
40
10.00
1
#935
0
POINT
8
4
10
3244.324
20
-1001.316
30
10
50
90
0
POINT
8
2
10
3244.324
20
-1001.316
0
TEXT
8
2
10
3244.324
20
-1001.316
40
10.00
1
#936
0
POINT
8
2
10
3447.425
20
-1001.316
0
TEXT
8
2
10
3447.425
20
-1001.316
40
10.00
1
#937
0
POINT
8
4
10
3447.425
20
-956.316
30
10
50
180
0
POINT
8
2
10
3447.425
20
-956.316
0
TEXT
8
2
10
3447.425
20
-956.316
40
10.00
1
#938
0
POINT
8
2
10
3447.425
20
-911.316
0
TEXT
8
2
10
3447.425
20
-911.316
40
10.00
1
#939
0
POINT
8
4
10
3244.324
20
-911.316
30
10
50
270
0
POINT
8
2
10
3244.324
20
-911.316
0
TEXT
8
2
10
3244.324
20
-911.316
40
10.00
1
#940
0
POINT
8
4
10
3078.324
20
-911.316
30
10
50
270
0
POINT
8
2
10
3078.324
20
-911.316
0
TEXT
8
2
10
3078.324
20
-911.316
40
10.00
1
#941
0
POINT
8
4
10
3046.425
20
-911.316
30
10
50
270
0
POINT
8
2
10
3046.425
20
-911.316
0
TEXT
8
2
10
3046.425
20
-911.316
40
10.00
1
#942
0
POINT
8
2
10
2906.425
20
-911.316
0
TEXT
8
2
10
2906.425
20
-911.316
40
10.00
1
#932
0
LINE
8
7
10
3255.091
20
-956.316
11
3092.759
21
-956.316
0
POINT
8
2
10
3255.091
20
-956.316
0
TEXT
8
2
10
3255.091
20
-956.316
40
10.00
1
#1
0
POINT
8
2
10
3092.759
20
-956.316
0
TEXT
8
2
10
3092.759
20
-956.316
40
10.00
1
#1
0
TEXT
8
8
10
3321.257
20
-958.904
11
3377.239
21
-942.109
40
10.00
50
343.300380182198
1
1 ADET
0
TEXT
8
1
10
3092.759
20
-945.316
40
10.00
1
PIECE NAME: KPSNORTAST
0
TEXT
8
1
10
3092.759
20
-934.316
40
10.00
1
SIZE: 36
0
TEXT
8
1
10
3092.759
20
-923.316
40
10.00
1
ANNOTATION: 
0
TEXT
8
1
10
3092.759
20
-912.316
40
10.00
1
QUANTITY: 1
0
TEXT
8
1
10
3092.759
20
-901.316
40
10.00
1
MATERIAL: ASTAR
0
ENDBLK
0
BLOCK
8
0
2
28
70
0
10
0.0000
20
0.0000
0
POLYLINE
8
1
66
1
70
1
0
VERTEX
8
1
10
34.909
20
-805.929
0
VERTEX
8
1
10
34.689
20
-837.169
0
VERTEX
8
1
10
33.292
20
-878.905
0
VERTEX
8
1
10
30.672
20
-913.206
0
VERTEX
8
1
10
26.861
20
-943.307
0
VERTEX
8
1
10
21.885
20
-970.443
0
VERTEX
8
1
10
15.75
20
-995.36
0
VERTEX
8
1
10
8.465
20
-1018.442
0
VERTEX
8
1
10
0.023
20
-1040.001
0
VERTEX
8
1
10
36.961
20
-1055.976
0
VERTEX
8
1
10
45.109
20
-1035.101
0
VERTEX
8
1
10
52.366
20
-1011.953
0
VERTEX
8
1
10
58.759
20
-985.933
0
VERTEX
8
1
10
64.436
20
-955.582
0
VERTEX
8
1
10
69.827
20
-916.747
0
VERTEX
8
1
10
72.352
20
-890.941
0
VERTEX
8
1
10
74.253
20
-855.11
0
VERTEX
8
1
10
74.909
20
-805.926
0
VERTEX
8
1
10
74.442
20
-763.436
0
VERTEX
8
1
10
72.737
20
-726.309
0
VERTEX
8
1
10
69.815
20
-695.107
0
VERTEX
8
1
10
64.465
20
-656.538
0
VERTEX
8
1
10
58.787
20
-626.14
0
VERTEX
8
1
10
52.393
20
-600.075
0
VERTEX
8
1
10
45.131
20
-576.883
0
VERTEX
8
1
10
36.936
20
-555.882
0
VERTEX
8
1
10
0
20
-571.858
0
VERTEX
8
1
10
4.889
20
-583.801
0
VERTEX
8
1
10
12.686
20
-606.201
0
VERTEX
8
1
10
19.333
20
-630.297
0
VERTEX
8
1
10
24.818
20
-656.403
0
VERTEX
8
1
10
29.146
20
-685.12
0
VERTEX
8
1
10
32.293
20
-717.402
0
VERTEX
8
1
10
34.231
20
-755.268
0
VERTEX
8
1
10
34.909
20
-805.929
0
SEQEND
8
1
0
POINT
8
4
10
34.909
20
-805.929
30
10
50
0
0
POINT
8
2
10
34.909
20
-805.929
0
TEXT
8
2
10
34.909
20
-805.929
40
10.00
1
#950
0
POINT
8
3
10
34.689
20
-837.169
0
POINT
8
3
10
33.292
20
-878.905
0
POINT
8
3
10
30.672
20
-913.206
0
POINT
8
3
10
26.861
20
-943.307
0
POINT
8
3
10
21.885
20
-970.443
0
POINT
8
3
10
15.75
20
-995.36
0
POINT
8
3
10
8.465
20
-1018.442
0
POINT
8
2
10
0.023
20
-1040.001
0
TEXT
8
2
10
0.023
20
-1040.001
40
10.00
1
#951
0
POINT
8
2
10
36.961
20
-1055.976
0
TEXT
8
2
10
36.961
20
-1055.976
40
10.00
1
#952
0
POINT
8
3
10
45.109
20
-1035.101
0
POINT
8
3
10
52.366
20
-1011.953
0
POINT
8
3
10
58.759
20
-985.933
0
POINT
8
3
10
64.436
20
-955.582
0
POINT
8
4
10
69.827
20
-916.747
30
10
50
173.08532589629
0
POINT
8
2
10
69.827
20
-916.747
0
TEXT
8
2
10
69.827
20
-916.747
40
10.00
1
#953
0
POINT
8
3
10
72.352
20
-890.941
0
POINT
8
3
10
74.253
20
-855.11
0
POINT
8
4
10
74.909
20
-805.926
30
10
50
180
0
POINT
8
2
10
74.909
20
-805.926
0
TEXT
8
2
10
74.909
20
-805.926
40
10.00
1
#954
0
POINT
8
3
10
74.442
20
-763.436
0
POINT
8
3
10
72.737
20
-726.309
0
POINT
8
4
10
69.815
20
-695.107
30
10
50
186.788839100364
0
POINT
8
2
10
69.815
20
-695.107
0
TEXT
8
2
10
69.815
20
-695.107
40
10.00
1
#955
0
POINT
8
3
10
64.465
20
-656.538
0
POINT
8
3
10
58.787
20
-626.14
0
POINT
8
3
10
52.393
20
-600.075
0
POINT
8
3
10
45.131
20
-576.883
0
POINT
8
2
10
36.936
20
-555.882
0
TEXT
8
2
10
36.936
20
-555.882
40
10.00
1
#956
0
POINT
8
2
10
0
20
-571.858
0
TEXT
8
2
10
0
20
-571.858
40
10.00
1
#957
0
POINT
8
3
10
4.889
20
-583.801
0
POINT
8
3
10
12.686
20
-606.201
0
POINT
8
3
10
19.333
20
-630.297
0
POINT
8
3
10
24.818
20
-656.403
0
POINT
8
3
10
29.146
20
-685.12
0
POINT
8
3
10
32.293
20
-717.402
0
POINT
8
3
10
34.231
20
-755.268
0
POINT
8
2
10
34.909
20
-805.929
0
TEXT
8
2
10
34.909
20
-805.929
40
10.00
1
#950
0
LINE
8
7
10
63.255
20
-784.528
11
43.255
21
-784.528
0
POINT
8
2
10
63.255
20
-784.528
0
TEXT
8
2
10
63.255
20
-784.528
40
10.00
1
#1
0
POINT
8
2
10
43.255
20
-784.528
0
TEXT
8
2
10
43.255
20
-784.528
40
10.00
1
#1
0
TEXT
8
1
10
43.255
20
-773.528
40
10.00
1
PIECE NAME: YKCZ
0
TEXT
8
1
10
43.255
20
-762.528
40
10.00
1
SIZE: 36
0
TEXT
8
1
10
43.255
20
-751.528
40
10.00
1
ANNOTATION: 
0
TEXT
8
1
10
43.255
20
-740.528
40
10.00
1
QUANTITY: 1
0
TEXT
8
1
10
43.255
20
-729.528
40
10.00
1
MATERIAL: ÇÝZÝM
0
ENDBLK
0
BLOCK
8
0
2
29
70
0
10
0.0000
20
0.0000
0
POLYLINE
8
1
66
1
70
1
0
VERTEX
8
1
10
1916.1
20
-1593.944
0
VERTEX
8
1
10
2056.1
20
-1593.944
0
VERTEX
8
1
10
2196.1
20
-1593.944
0
VERTEX
8
1
10
2196.1
20
-1557.45
0
VERTEX
8
1
10
2196.1
20
-1548.95
0
VERTEX
8
1
10
2196.1
20
-1540.45
0
VERTEX
8
1
10
2196.1
20
-1503.944
0
VERTEX
8
1
10
2056.1
20
-1503.944
0
VERTEX
8
1
10
1916.1
20
-1503.944
0
VERTEX
8
1
10
1916.1
20
-1540.44
0
VERTEX
8
1
10
1916.1
20
-1548.94
0
VERTEX
8
1
10
1916.1
20
-1557.44
0
VERTEX
8
1
10
1916.1
20
-1593.944
0
SEQEND
8
1
0
POINT
8
2
10
1916.1
20
-1593.944
0
TEXT
8
2
10
1916.1
20
-1593.944
40
10.00
1
#962
0
POINT
8
4
10
2056.1
20
-1593.944
30
10
50
90
0
POINT
8
2
10
2056.1
20
-1593.944
0
TEXT
8
2
10
2056.1
20
-1593.944
40
10.00
1
#963
0
POINT
8
2
10
2196.1
20
-1593.944
0
TEXT
8
2
10
2196.1
20
-1593.944
40
10.00
1
#964
0
POINT
8
4
10
2196.1
20
-1557.45
30
10
50
180
0
POINT
8
2
10
2196.1
20
-1557.45
0
TEXT
8
2
10
2196.1
20
-1557.45
40
10.00
1
#965
0
POINT
8
2
10
2196.1
20
-1548.95
0
TEXT
8
2
10
2196.1
20
-1548.95
40
10.00
1
#966
0
POINT
8
4
10
2196.1
20
-1540.45
30
10
50
180
0
POINT
8
2
10
2196.1
20
-1540.45
0
TEXT
8
2
10
2196.1
20
-1540.45
40
10.00
1
#967
0
POINT
8
2
10
2196.1
20
-1503.944
0
TEXT
8
2
10
2196.1
20
-1503.944
40
10.00
1
#968
0
POINT
8
4
10
2056.1
20
-1503.944
30
10
50
270
0
POINT
8
2
10
2056.1
20
-1503.944
0
TEXT
8
2
10
2056.1
20
-1503.944
40
10.00
1
#969
0
POINT
8
2
10
1916.1
20
-1503.944
0
TEXT
8
2
10
1916.1
20
-1503.944
40
10.00
1
#970
0
POINT
8
4
10
1916.1
20
-1540.44
30
10
50
0
0
POINT
8
2
10
1916.1
20
-1540.44
0
TEXT
8
2
10
1916.1
20
-1540.44
40
10.00
1
#971
0
POINT
8
2
10
1916.1
20
-1548.94
0
TEXT
8
2
10
1916.1
20
-1548.94
40
10.00
1
#972
0
POINT
8
4
10
1916.1
20
-1557.44
30
10
50
0
0
POINT
8
2
10
1916.1
20
-1557.44
0
TEXT
8
2
10
1916.1
20
-1557.44
40
10.00
1
#973
0
POINT
8
2
10
1916.1
20
-1593.944
0
TEXT
8
2
10
1916.1
20
-1593.944
40
10.00
1
#962
0
LINE
8
7
10
2012.766
20
-1548.944
11
1969.432
21
-1548.944
0
POINT
8
2
10
2012.766
20
-1548.944
0
TEXT
8
2
10
2012.766
20
-1548.944
40
10.00
1
#1
0
POINT
8
2
10
1969.432
20
-1548.944
0
TEXT
8
2
10
1969.432
20
-1548.944
40
10.00
1
#1
0
TEXT
8
8
10
2076.918
20
-1557.688
11
2139.596
21
-1534.183
40
10.00
50
339.443353711636
1
1 ADET TELALI
0
TEXT
8
1
10
1969.432
20
-1537.944
40
10.00
1
PIECE NAME: KPSNORTPRC
0
TEXT
8
1
10
1969.432
20
-1526.944
40
10.00
1
SIZE: 36
0
TEXT
8
1
10
1969.432
20
-1515.944
40
10.00
1
ANNOTATION: 
0
TEXT
8
1
10
1969.432
20
-1504.944
40
10.00
1
QUANTITY: 1
0
TEXT
8
1
10
1969.432
20
-1493.944
40
10.00
1
MATERIAL: KOMBÝN
0
ENDBLK
0
BLOCK
8
0
2
30
70
0
10
0.0000
20
0.0000
0
POLYLINE
8
1
66
1
70
1
0
VERTEX
8
1
10
1946.559
20
-1487.69
0
VERTEX
8
1
10
2166.559
20
-1487.69
0
VERTEX
8
1
10
2166.559
20
-1460.69
0
VERTEX
8
1
10
2166.559
20
-1433.69
0
VERTEX
8
1
10
1946.559
20
-1433.69
0
VERTEX
8
1
10
1946.559
20
-1460.69
0
VERTEX
8
1
10
1946.559
20
-1487.69
0
SEQEND
8
1
0
POINT
8
2
10
1946.559
20
-1487.69
0
TEXT
8
2
10
1946.559
20
-1487.69
40
10.00
1
#980
0
POINT
8
2
10
2166.559
20
-1487.69
0
TEXT
8
2
10
2166.559
20
-1487.69
40
10.00
1
#981
0
POINT
8
4
10
2166.559
20
-1460.69
30
10
50
180
0
POINT
8
2
10
2166.559
20
-1460.69
0
TEXT
8
2
10
2166.559
20
-1460.69
40
10.00
1
#982
0
POINT
8
2
10
2166.559
20
-1433.69
0
TEXT
8
2
10
2166.559
20
-1433.69
40
10.00
1
#983
0
POINT
8
2
10
1946.559
20
-1433.69
0
TEXT
8
2
10
1946.559
20
-1433.69
40
10.00
1
#984
0
POINT
8
4
10
1946.559
20
-1460.69
30
10
50
0
0
POINT
8
2
10
1946.559
20
-1460.69
0
TEXT
8
2
10
1946.559
20
-1460.69
40
10.00
1
#985
0
POINT
8
2
10
1946.559
20
-1487.69
0
TEXT
8
2
10
1946.559
20
-1487.69
40
10.00
1
#980
0
LINE
8
7
10
2090.315
20
-1461.428
11
2023.649
21
-1461.428
0
POINT
8
2
10
2090.315
20
-1461.428
0
TEXT
8
2
10
2090.315
20
-1461.428
40
10.00
1
#1
0
POINT
8
2
10
2023.649
20
-1461.428
0
TEXT
8
2
10
2023.649
20
-1461.428
40
10.00
1
#1
0
TEXT
8
8
10
1989.448
20
-1463.549
11
2032.747
21
-1454.635
40
10.00
50
348.367000727439
1
1 ADET TELASIZ
0
TEXT
8
1
10
2023.649
20
-1450.428
40
10.00
1
PIECE NAME: KPSNORTPRCKOM
0
TEXT
8
1
10
2023.649
20
-1439.428
40
10.00
1
SIZE: 36
0
TEXT
8
1
10
2023.649
20
-1428.428
40
10.00
1
ANNOTATION: 
0
TEXT
8
1
10
2023.649
20
-1417.428
40
10.00
1
QUANTITY: 1
0
TEXT
8
1
10
2023.649
20
-1406.428
40
10.00
1
MATERIAL: KOMBÝN1
0
ENDBLK
0
ENDSEC
0
SECTION
2
ENTITIES
0
INSERT
8
1
2
0
10
0
20
0
0
INSERT
8
1
2
1
10
0
20
0
0
INSERT
8
1
2
2
10
0
20
0
0
INSERT
8
1
2
3
10
0
20
0
0
INSERT
8
1
2
4
10
0
20
0
0
INSERT
8
1
2
5
10
0
20
0
0
INSERT
8
1
2
6
10
0
20
0
0
INSERT
8
1
2
7
10
0
20
0
0
INSERT
8
1
2
8
10
0
20
0
0
INSERT
8
1
2
9
10
0
20
0
0
INSERT
8
1
2
10
10
0
20
0
0
INSERT
8
1
2
11
10
0
20
0
0
INSERT
8
1
2
12
10
0
20
0
0
INSERT
8
1
2
13
10
0
20
0
0
INSERT
8
1
2
14
10
0
20
0
0
INSERT
8
1
2
15
10
0
20
0
0
INSERT
8
1
2
16
10
0
20
0
0
INSERT
8
1
2
17
10
0
20
0
0
INSERT
8
1
2
18
10
0
20
0
0
INSERT
8
1
2
19
10
0
20
0
0
INSERT
8
1
2
20
10
0
20
0
0
INSERT
8
1
2
21
10
0
20
0
0
INSERT
8
1
2
22
10
0
20
0
0
INSERT
8
1
2
23
10
0
20
0
0
INSERT
8
1
2
24
10
0
20
0
0
INSERT
8
1
2
25
10
0
20
0
0
INSERT
8
1
2
26
10
0
20
0
0
INSERT
8
1
2
27
10
0
20
0
0
INSERT
8
1
2
28
10
0
20
0
0
INSERT
8
1
2
29
10
0
20
0
0
INSERT
8
1
2
30
10
0
20
0
0
TEXT
8
1
10
0
20
-1761.393
40
10.00
1
STYLE NAME: 262-4070 KB-ÇÝN
0
TEXT
8
1
10
0
20
-1772.393
40
10.00
1
CREATION DATE: 27-02-2026
0
TEXT
8
1
10
0
20
-1783.393
40
10.00
1
CREATION TIME: 10:45:52
0
TEXT
8
1
10
0
20
-1794.393
40
10.00
1
AUTHOR: GEMINI CAD SYSTEMS
0
TEXT
8
1
10
0
20
-1805.393
40
10.00
1
PRODUCT: GEMINI PATTERN DESIGNER
0
TEXT
8
1
10
0
20
-1816.393
40
10.00
1
SAMPLE SIZE: 36
0
TEXT
8
1
10
0
20
-1827.393
40
10.00
1
GRADE RULE TABLE: 262-4070 KB-ÇÝN
0
TEXT
8
1
10
0
20
-1838.393
40
10.00
1
UNITS: METRIC
0
ENDSEC
0
EOF
