0
SECTION
2
HEADER
9
$LUNITS
70
2
9
$INSUNITS
70
4
0
ENDSEC
0
SECTION
2
BLOCKS
0
BLOCK
8
0
2
0
70
0
10
0.0000
20
0.0000
0
POLYLINE
8
1
66
1
70
1
0
VERTEX
8
1
10
839.047
20
-485.631
0
VERTEX
8
1
10
839.195
20
-521.757
0
VERTEX
8
1
10
840.197
20
-545.973
0
VERTEX
8
1
10
842.422
20
-564.762
0
VERTEX
8
1
10
845.802
20
-580.648
0
VERTEX
8
1
10
850.292
20
-594.475
0
VERTEX
8
1
10
855.859
20
-606.648
0
VERTEX
8
1
10
862.49
20
-617.42
0
VERTEX
8
1
10
870.239
20
-627.004
0
VERTEX
8
1
10
879.191
20
-635.531
0
VERTEX
8
1
10
889.432
20
-643.046
0
VERTEX
8
1
10
901.1
20
-649.583
0
VERTEX
8
1
10
914.392
20
-655.136
0
VERTEX
8
1
10
929.513
20
-659.65
0
VERTEX
8
1
10
946.727
20
-663.036
0
VERTEX
8
1
10
966.288
20
-665.161
0
VERTEX
8
1
10
988.408
20
-665.863
0
VERTEX
8
1
10
1013.402
20
-664.961
0
VERTEX
8
1
10
1013.841
20
-664.914
0
VERTEX
8
1
10
1030.494
20
-662.348
0
VERTEX
8
1
10
1045.143
20
-658.564
0
VERTEX
8
1
10
1057.624
20
-653.792
0
VERTEX
8
1
10
1067.967
20
-648.242
0
VERTEX
8
1
10
1076.227
20
-642.113
0
VERTEX
8
1
10
1082.557
20
-635.549
0
VERTEX
8
1
10
1087.124
20
-628.624
0
VERTEX
8
1
10
1090.06
20
-621.353
0
VERTEX
8
1
10
1091.44
20
-613.708
0
VERTEX
8
1
10
1091.249
20
-605.59
0
VERTEX
8
1
10
1089.38
20
-596.929
0
VERTEX
8
1
10
1085.634
20
-587.613
0
VERTEX
8
1
10
1079.758
20
-577.6
0
VERTEX
8
1
10
1070.88
20
-562.292
0
VERTEX
8
1
10
1063.781
20
-547.526
0
VERTEX
8
1
10
1059.131
20
-534.377
0
VERTEX
8
1
10
1056.106
20
-521.003
0
VERTEX
8
1
10
1054.402
20
-505.668
0
VERTEX
8
1
10
1054.043
20
-485.631
0
VERTEX
8
1
10
1054.395
20
-465.676
0
VERTEX
8
1
10
1024.134
20
-465.52
0
VERTEX
8
1
10
868.978
20
-465.529
0
VERTEX
8
1
10
838.533
20
-465.628
0
VERTEX
8
1
10
839.047
20
-485.631
0
SEQEND
8
1
0
POINT
8
2
10
839.047
20
-485.631
0
TEXT
8
2
10
839.047
20
-485.631
40
10.00
1
#180
0
POINT
8
3
10
839.195
20
-521.757
0
POINT
8
3
10
840.197
20
-545.973
0
POINT
8
3
10
842.422
20
-564.762
0
POINT
8
3
10
845.802
20
-580.648
0
POINT
8
3
10
850.292
20
-594.475
0
POINT
8
3
10
855.859
20
-606.648
0
POINT
8
3
10
862.49
20
-617.42
0
POINT
8
3
10
870.239
20
-627.004
0
POINT
8
3
10
879.191
20
-635.531
0
POINT
8
3
10
889.432
20
-643.046
0
POINT
8
3
10
901.1
20
-649.583
0
POINT
8
3
10
914.392
20
-655.136
0
POINT
8
3
10
929.513
20
-659.65
0
POINT
8
3
10
946.727
20
-663.036
0
POINT
8
3
10
966.288
20
-665.161
0
POINT
8
3
10
988.408
20
-665.863
0
POINT
8
3
10
1013.402
20
-664.961
0
POINT
8
3
10
1013.841
20
-664.914
0
POINT
8
3
10
1030.494
20
-662.348
0
POINT
8
3
10
1045.143
20
-658.564
0
POINT
8
3
10
1057.624
20
-653.792
0
POINT
8
3
10
1067.967
20
-648.242
0
POINT
8
3
10
1076.227
20
-642.113
0
POINT
8
3
10
1082.557
20
-635.549
0
POINT
8
3
10
1087.124
20
-628.624
0
POINT
8
3
10
1090.06
20
-621.353
0
POINT
8
3
10
1091.44
20
-613.708
0
POINT
8
3
10
1091.249
20
-605.59
0
POINT
8
3
10
1089.38
20
-596.929
0
POINT
8
3
10
1085.634
20
-587.613
0
POINT
8
3
10
1079.758
20
-577.6
0
POINT
8
3
10
1070.88
20
-562.292
0
POINT
8
3
10
1063.781
20
-547.526
0
POINT
8
3
10
1059.131
20
-534.377
0
POINT
8
3
10
1056.106
20
-521.003
0
POINT
8
3
10
1054.402
20
-505.668
0
POINT
8
2
10
1054.043
20
-485.631
0
TEXT
8
2
10
1054.043
20
-485.631
40
10.00
1
#181
0
POINT
8
2
10
1054.395
20
-465.676
0
TEXT
8
2
10
1054.395
20
-465.676
40
10.00
1
#182
0
POINT
8
4
10
1024.134
20
-465.52
30
10
50
269.719252927284
0
POINT
8
2
10
1024.134
20
-465.52
0
TEXT
8
2
10
1024.134
20
-465.52
40
10.00
1
#183
0
POINT
8
4
10
868.978
20
-465.529
30
10
50
270.229204815992
0
POINT
8
2
10
868.978
20
-465.529
0
TEXT
8
2
10
868.978
20
-465.529
40
10.00
1
#184
0
POINT
8
2
10
838.533
20
-465.628
0
TEXT
8
2
10
838.533
20
-465.628
40
10.00
1
#185
0
POINT
8
2
10
839.047
20
-485.631
0
TEXT
8
2
10
839.047
20
-485.631
40
10.00
1
#180
0
LINE
8
7
10
981.154
20
-575.324
11
902.247
21
-575.324
0
POINT
8
2
10
981.154
20
-575.324
0
TEXT
8
2
10
981.154
20
-575.324
40
10.00
1
#1
0
POINT
8
2
10
902.247
20
-575.324
0
TEXT
8
2
10
902.247
20
-575.324
40
10.00
1
#1
0
TEXT
8
1
10
902.247
20
-564.324
40
10.00
1
PIECE NAME: CPTOR1
0
TEXT
8
1
10
902.247
20
-553.324
40
10.00
1
SIZE: 1
0
TEXT
8
1
10
902.247
20
-542.324
40
10.00
1
ANNOTATION: 
0
TEXT
8
1
10
902.247
20
-531.324
40
10.00
1
QUANTITY: 1
0
TEXT
8
1
10
902.247
20
-520.324
40
10.00
1
MATERIAL: KUMAS
0
ENDBLK
0
BLOCK
8
0
2
1
70
0
10
0.0000
20
0.0000
0
POLYLINE
8
1
66
1
70
1
0
VERTEX
8
1
10
839.047
20
-485.631
0
VERTEX
8
1
10
839.195
20
-521.757
0
VERTEX
8
1
10
840.197
20
-545.973
0
VERTEX
8
1
10
842.422
20
-564.762
0
VERTEX
8
1
10
845.802
20
-580.648
0
VERTEX
8
1
10
850.292
20
-594.475
0
VERTEX
8
1
10
855.859
20
-606.648
0
VERTEX
8
1
10
862.49
20
-617.42
0
VERTEX
8
1
10
870.239
20
-627.004
0
VERTEX
8
1
10
879.191
20
-635.531
0
VERTEX
8
1
10
889.432
20
-643.046
0
VERTEX
8
1
10
901.1
20
-649.583
0
VERTEX
8
1
10
914.392
20
-655.136
0
VERTEX
8
1
10
929.513
20
-659.65
0
VERTEX
8
1
10
946.727
20
-663.036
0
VERTEX
8
1
10
966.288
20
-665.161
0
VERTEX
8
1
10
988.408
20
-665.863
0
VERTEX
8
1
10
1013.402
20
-664.961
0
VERTEX
8
1
10
1013.841
20
-664.914
0
VERTEX
8
1
10
1030.494
20
-662.348
0
VERTEX
8
1
10
1045.143
20
-658.564
0
VERTEX
8
1
10
1057.624
20
-653.792
0
VERTEX
8
1
10
1067.967
20
-648.242
0
VERTEX
8
1
10
1076.227
20
-642.113
0
VERTEX
8
1
10
1082.557
20
-635.549
0
VERTEX
8
1
10
1087.124
20
-628.624
0
VERTEX
8
1
10
1090.06
20
-621.353
0
VERTEX
8
1
10
1091.44
20
-613.708
0
VERTEX
8
1
10
1091.249
20
-605.59
0
VERTEX
8
1
10
1089.38
20
-596.929
0
VERTEX
8
1
10
1085.634
20
-587.613
0
VERTEX
8
1
10
1079.758
20
-577.6
0
VERTEX
8
1
10
1070.88
20
-562.292
0
VERTEX
8
1
10
1063.781
20
-547.526
0
VERTEX
8
1
10
1059.131
20
-534.377
0
VERTEX
8
1
10
1056.106
20
-521.003
0
VERTEX
8
1
10
1054.402
20
-505.668
0
VERTEX
8
1
10
1054.043
20
-485.631
0
VERTEX
8
1
10
1054.395
20
-465.676
0
VERTEX
8
1
10
1024.134
20
-465.52
0
VERTEX
8
1
10
868.978
20
-465.529
0
VERTEX
8
1
10
838.533
20
-465.628
0
VERTEX
8
1
10
839.047
20
-485.631
0
SEQEND
8
1
0
POINT
8
2
10
839.047
20
-485.631
0
TEXT
8
2
10
839.047
20
-485.631
40
10.00
1
#180
0
POINT
8
3
10
839.195
20
-521.757
0
POINT
8
3
10
840.197
20
-545.973
0
POINT
8
3
10
842.422
20
-564.762
0
POINT
8
3
10
845.802
20
-580.648
0
POINT
8
3
10
850.292
20
-594.475
0
POINT
8
3
10
855.859
20
-606.648
0
POINT
8
3
10
862.49
20
-617.42
0
POINT
8
3
10
870.239
20
-627.004
0
POINT
8
3
10
879.191
20
-635.531
0
POINT
8
3
10
889.432
20
-643.046
0
POINT
8
3
10
901.1
20
-649.583
0
POINT
8
3
10
914.392
20
-655.136
0
POINT
8
3
10
929.513
20
-659.65
0
POINT
8
3
10
946.727
20
-663.036
0
POINT
8
3
10
966.288
20
-665.161
0
POINT
8
3
10
988.408
20
-665.863
0
POINT
8
3
10
1013.402
20
-664.961
0
POINT
8
3
10
1013.841
20
-664.914
0
POINT
8
3
10
1030.494
20
-662.348
0
POINT
8
3
10
1045.143
20
-658.564
0
POINT
8
3
10
1057.624
20
-653.792
0
POINT
8
3
10
1067.967
20
-648.242
0
POINT
8
3
10
1076.227
20
-642.113
0
POINT
8
3
10
1082.557
20
-635.549
0
POINT
8
3
10
1087.124
20
-628.624
0
POINT
8
3
10
1090.06
20
-621.353
0
POINT
8
3
10
1091.44
20
-613.708
0
POINT
8
3
10
1091.249
20
-605.59
0
POINT
8
3
10
1089.38
20
-596.929
0
POINT
8
3
10
1085.634
20
-587.613
0
POINT
8
3
10
1079.758
20
-577.6
0
POINT
8
3
10
1070.88
20
-562.292
0
POINT
8
3
10
1063.781
20
-547.526
0
POINT
8
3
10
1059.131
20
-534.377
0
POINT
8
3
10
1056.106
20
-521.003
0
POINT
8
3
10
1054.402
20
-505.668
0
POINT
8
2
10
1054.043
20
-485.631
0
TEXT
8
2
10
1054.043
20
-485.631
40
10.00
1
#181
0
POINT
8
2
10
1054.395
20
-465.676
0
TEXT
8
2
10
1054.395
20
-465.676
40
10.00
1
#182
0
POINT
8
4
10
1024.134
20
-465.52
30
10
50
269.719252927284
0
POINT
8
2
10
1024.134
20
-465.52
0
TEXT
8
2
10
1024.134
20
-465.52
40
10.00
1
#183
0
POINT
8
4
10
868.978
20
-465.529
30
10
50
270.229204815992
0
POINT
8
2
10
868.978
20
-465.529
0
TEXT
8
2
10
868.978
20
-465.529
40
10.00
1
#184
0
POINT
8
2
10
838.533
20
-465.628
0
TEXT
8
2
10
838.533
20
-465.628
40
10.00
1
#185
0
POINT
8
2
10
839.047
20
-485.631
0
TEXT
8
2
10
839.047
20
-485.631
40
10.00
1
#180
0
LINE
8
7
10
981.154
20
-575.324
11
902.247
21
-575.324
0
POINT
8
2
10
981.154
20
-575.324
0
TEXT
8
2
10
981.154
20
-575.324
40
10.00
1
#1
0
POINT
8
2
10
902.247
20
-575.324
0
TEXT
8
2
10
902.247
20
-575.324
40
10.00
1
#1
0
TEXT
8
1
10
902.247
20
-564.324
40
10.00
1
PIECE NAME: CPTOR2
0
TEXT
8
1
10
902.247
20
-553.324
40
10.00
1
SIZE: 1
0
TEXT
8
1
10
902.247
20
-542.324
40
10.00
1
ANNOTATION: 
0
TEXT
8
1
10
902.247
20
-531.324
40
10.00
1
QUANTITY: 1
0
TEXT
8
1
10
902.247
20
-520.324
40
10.00
1
MATERIAL: KUMAS
0
ENDBLK
0
BLOCK
8
0
2
2
70
0
10
0.0000
20
0.0000
0
POLYLINE
8
1
66
1
70
1
0
VERTEX
8
1
10
838.533
20
-665.756
0
VERTEX
8
1
10
868.978
20
-665.855
0
VERTEX
8
1
10
1024.134
20
-665.864
0
VERTEX
8
1
10
1054.395
20
-665.708
0
VERTEX
8
1
10
1054.043
20
-645.753
0
VERTEX
8
1
10
1054.402
20
-625.716
0
VERTEX
8
1
10
1056.106
20
-610.381
0
VERTEX
8
1
10
1059.131
20
-597.007
0
VERTEX
8
1
10
1063.781
20
-583.858
0
VERTEX
8
1
10
1070.88
20
-569.092
0
VERTEX
8
1
10
1079.758
20
-553.784
0
VERTEX
8
1
10
1085.634
20
-543.771
0
VERTEX
8
1
10
1089.38
20
-534.455
0
VERTEX
8
1
10
1091.249
20
-525.794
0
VERTEX
8
1
10
1091.44
20
-517.676
0
VERTEX
8
1
10
1090.06
20
-510.031
0
VERTEX
8
1
10
1087.124
20
-502.76
0
VERTEX
8
1
10
1082.557
20
-495.835
0
VERTEX
8
1
10
1076.227
20
-489.271
0
VERTEX
8
1
10
1067.967
20
-483.142
0
VERTEX
8
1
10
1057.624
20
-477.592
0
VERTEX
8
1
10
1045.143
20
-472.82
0
VERTEX
8
1
10
1030.494
20
-469.036
0
VERTEX
8
1
10
1013.841
20
-466.47
0
VERTEX
8
1
10
1013.402
20
-466.423
0
VERTEX
8
1
10
988.408
20
-465.521
0
VERTEX
8
1
10
966.288
20
-466.223
0
VERTEX
8
1
10
946.727
20
-468.348
0
VERTEX
8
1
10
929.513
20
-471.734
0
VERTEX
8
1
10
914.392
20
-476.248
0
VERTEX
8
1
10
901.1
20
-481.801
0
VERTEX
8
1
10
889.432
20
-488.338
0
VERTEX
8
1
10
879.191
20
-495.853
0
VERTEX
8
1
10
870.239
20
-504.38
0
VERTEX
8
1
10
862.49
20
-513.964
0
VERTEX
8
1
10
855.859
20
-524.736
0
VERTEX
8
1
10
850.292
20
-536.909
0
VERTEX
8
1
10
845.802
20
-550.736
0
VERTEX
8
1
10
842.422
20
-566.622
0
VERTEX
8
1
10
840.197
20
-585.411
0
VERTEX
8
1
10
839.195
20
-609.627
0
VERTEX
8
1
10
839.047
20
-645.753
0
VERTEX
8
1
10
838.533
20
-665.756
0
SEQEND
8
1
0
POINT
8
2
10
838.533
20
-665.756
0
TEXT
8
2
10
838.533
20
-665.756
40
10.00
1
#2
0
POINT
8
4
10
868.978
20
-665.855
30
10
50
89.7707951840083
0
POINT
8
2
10
868.978
20
-665.855
0
TEXT
8
2
10
868.978
20
-665.855
40
10.00
1
#3
0
POINT
8
4
10
1024.134
20
-665.864
30
10
50
90.280747072716
0
POINT
8
2
10
1024.134
20
-665.864
0
TEXT
8
2
10
1024.134
20
-665.864
40
10.00
1
#4
0
POINT
8
2
10
1054.395
20
-665.708
0
TEXT
8
2
10
1054.395
20
-665.708
40
10.00
1
#5
0
POINT
8
2
10
1054.043
20
-645.753
0
TEXT
8
2
10
1054.043
20
-645.753
40
10.00
1
#6
0
POINT
8
3
10
1054.402
20
-625.716
0
POINT
8
3
10
1056.106
20
-610.381
0
POINT
8
3
10
1059.131
20
-597.007
0
POINT
8
3
10
1063.781
20
-583.858
0
POINT
8
3
10
1070.88
20
-569.092
0
POINT
8
3
10
1079.758
20
-553.784
0
POINT
8
3
10
1085.634
20
-543.771
0
POINT
8
3
10
1089.38
20
-534.455
0
POINT
8
3
10
1091.249
20
-525.794
0
POINT
8
3
10
1091.44
20
-517.676
0
POINT
8
3
10
1090.06
20
-510.031
0
POINT
8
3
10
1087.124
20
-502.76
0
POINT
8
3
10
1082.557
20
-495.835
0
POINT
8
3
10
1076.227
20
-489.271
0
POINT
8
3
10
1067.967
20
-483.142
0
POINT
8
3
10
1057.624
20
-477.592
0
POINT
8
3
10
1045.143
20
-472.82
0
POINT
8
3
10
1030.494
20
-469.036
0
POINT
8
3
10
1013.841
20
-466.47
0
POINT
8
3
10
1013.402
20
-466.423
0
POINT
8
3
10
988.408
20
-465.521
0
POINT
8
3
10
966.288
20
-466.223
0
POINT
8
3
10
946.727
20
-468.348
0
POINT
8
3
10
929.513
20
-471.734
0
POINT
8
3
10
914.392
20
-476.248
0
POINT
8
3
10
901.1
20
-481.801
0
POINT
8
3
10
889.432
20
-488.338
0
POINT
8
3
10
879.191
20
-495.853
0
POINT
8
3
10
870.239
20
-504.38
0
POINT
8
3
10
862.49
20
-513.964
0
POINT
8
3
10
855.859
20
-524.736
0
POINT
8
3
10
850.292
20
-536.909
0
POINT
8
3
10
845.802
20
-550.736
0
POINT
8
3
10
842.422
20
-566.622
0
POINT
8
3
10
840.197
20
-585.411
0
POINT
8
3
10
839.195
20
-609.627
0
POINT
8
2
10
839.047
20
-645.753
0
TEXT
8
2
10
839.047
20
-645.753
40
10.00
1
#7
0
POINT
8
2
10
838.533
20
-665.756
0
TEXT
8
2
10
838.533
20
-665.756
40
10.00
1
#2
0
LINE
8
7
10
981.154
20
-556.06
11
902.247
21
-556.06
0
POINT
8
2
10
981.154
20
-556.06
0
TEXT
8
2
10
981.154
20
-556.06
40
10.00
1
#1
0
POINT
8
2
10
902.247
20
-556.06
0
TEXT
8
2
10
902.247
20
-556.06
40
10.00
1
#1
0
TEXT
8
1
10
902.247
20
-545.06
40
10.00
1
PIECE NAME: CPTORFY1
0
TEXT
8
1
10
902.247
20
-534.06
40
10.00
1
SIZE: 1
0
TEXT
8
1
10
902.247
20
-523.06
40
10.00
1
ANNOTATION: 
0
TEXT
8
1
10
902.247
20
-512.06
40
10.00
1
QUANTITY: 1
0
TEXT
8
1
10
902.247
20
-501.06
40
10.00
1
MATERIAL: KUMAS
0
ENDBLK
0
BLOCK
8
0
2
3
70
0
10
0.0000
20
0.0000
0
POLYLINE
8
1
66
1
70
1
0
VERTEX
8
1
10
838.533
20
-665.756
0
VERTEX
8
1
10
868.978
20
-665.855
0
VERTEX
8
1
10
1024.134
20
-665.864
0
VERTEX
8
1
10
1054.395
20
-665.708
0
VERTEX
8
1
10
1054.043
20
-645.753
0
VERTEX
8
1
10
1054.402
20
-625.716
0
VERTEX
8
1
10
1056.106
20
-610.381
0
VERTEX
8
1
10
1059.131
20
-597.007
0
VERTEX
8
1
10
1063.781
20
-583.858
0
VERTEX
8
1
10
1070.88
20
-569.092
0
VERTEX
8
1
10
1079.758
20
-553.784
0
VERTEX
8
1
10
1085.634
20
-543.771
0
VERTEX
8
1
10
1089.38
20
-534.455
0
VERTEX
8
1
10
1091.249
20
-525.794
0
VERTEX
8
1
10
1091.44
20
-517.676
0
VERTEX
8
1
10
1090.06
20
-510.031
0
VERTEX
8
1
10
1087.124
20
-502.76
0
VERTEX
8
1
10
1082.557
20
-495.835
0
VERTEX
8
1
10
1076.227
20
-489.271
0
VERTEX
8
1
10
1067.967
20
-483.142
0
VERTEX
8
1
10
1057.624
20
-477.592
0
VERTEX
8
1
10
1045.143
20
-472.82
0
VERTEX
8
1
10
1030.494
20
-469.036
0
VERTEX
8
1
10
1013.841
20
-466.47
0
VERTEX
8
1
10
1013.402
20
-466.423
0
VERTEX
8
1
10
988.408
20
-465.521
0
VERTEX
8
1
10
966.288
20
-466.223
0
VERTEX
8
1
10
946.727
20
-468.348
0
VERTEX
8
1
10
929.513
20
-471.734
0
VERTEX
8
1
10
914.392
20
-476.248
0
VERTEX
8
1
10
901.1
20
-481.801
0
VERTEX
8
1
10
889.432
20
-488.338
0
VERTEX
8
1
10
879.191
20
-495.853
0
VERTEX
8
1
10
870.239
20
-504.38
0
VERTEX
8
1
10
862.49
20
-513.964
0
VERTEX
8
1
10
855.859
20
-524.736
0
VERTEX
8
1
10
850.292
20
-536.909
0
VERTEX
8
1
10
845.802
20
-550.736
0
VERTEX
8
1
10
842.422
20
-566.622
0
VERTEX
8
1
10
840.197
20
-585.411
0
VERTEX
8
1
10
839.195
20
-609.627
0
VERTEX
8
1
10
839.047
20
-645.753
0
VERTEX
8
1
10
838.533
20
-665.756
0
SEQEND
8
1
0
POINT
8
2
10
838.533
20
-665.756
0
TEXT
8
2
10
838.533
20
-665.756
40
10.00
1
#2
0
POINT
8
4
10
868.978
20
-665.855
30
10
50
89.7707951840083
0
POINT
8
2
10
868.978
20
-665.855
0
TEXT
8
2
10
868.978
20
-665.855
40
10.00
1
#3
0
POINT
8
4
10
1024.134
20
-665.864
30
10
50
90.280747072716
0
POINT
8
2
10
1024.134
20
-665.864
0
TEXT
8
2
10
1024.134
20
-665.864
40
10.00
1
#4
0
POINT
8
2
10
1054.395
20
-665.708
0
TEXT
8
2
10
1054.395
20
-665.708
40
10.00
1
#5
0
POINT
8
2
10
1054.043
20
-645.753
0
TEXT
8
2
10
1054.043
20
-645.753
40
10.00
1
#6
0
POINT
8
3
10
1054.402
20
-625.716
0
POINT
8
3
10
1056.106
20
-610.381
0
POINT
8
3
10
1059.131
20
-597.007
0
POINT
8
3
10
1063.781
20
-583.858
0
POINT
8
3
10
1070.88
20
-569.092
0
POINT
8
3
10
1079.758
20
-553.784
0
POINT
8
3
10
1085.634
20
-543.771
0
POINT
8
3
10
1089.38
20
-534.455
0
POINT
8
3
10
1091.249
20
-525.794
0
POINT
8
3
10
1091.44
20
-517.676
0
POINT
8
3
10
1090.06
20
-510.031
0
POINT
8
3
10
1087.124
20
-502.76
0
POINT
8
3
10
1082.557
20
-495.835
0
POINT
8
3
10
1076.227
20
-489.271
0
POINT
8
3
10
1067.967
20
-483.142
0
POINT
8
3
10
1057.624
20
-477.592
0
POINT
8
3
10
1045.143
20
-472.82
0
POINT
8
3
10
1030.494
20
-469.036
0
POINT
8
3
10
1013.841
20
-466.47
0
POINT
8
3
10
1013.402
20
-466.423
0
POINT
8
3
10
988.408
20
-465.521
0
POINT
8
3
10
966.288
20
-466.223
0
POINT
8
3
10
946.727
20
-468.348
0
POINT
8
3
10
929.513
20
-471.734
0
POINT
8
3
10
914.392
20
-476.248
0
POINT
8
3
10
901.1
20
-481.801
0
POINT
8
3
10
889.432
20
-488.338
0
POINT
8
3
10
879.191
20
-495.853
0
POINT
8
3
10
870.239
20
-504.38
0
POINT
8
3
10
862.49
20
-513.964
0
POINT
8
3
10
855.859
20
-524.736
0
POINT
8
3
10
850.292
20
-536.909
0
POINT
8
3
10
845.802
20
-550.736
0
POINT
8
3
10
842.422
20
-566.622
0
POINT
8
3
10
840.197
20
-585.411
0
POINT
8
3
10
839.195
20
-609.627
0
POINT
8
2
10
839.047
20
-645.753
0
TEXT
8
2
10
839.047
20
-645.753
40
10.00
1
#7
0
POINT
8
2
10
838.533
20
-665.756
0
TEXT
8
2
10
838.533
20
-665.756
40
10.00
1
#2
0
LINE
8
7
10
981.154
20
-556.06
11
902.247
21
-556.06
0
POINT
8
2
10
981.154
20
-556.06
0
TEXT
8
2
10
981.154
20
-556.06
40
10.00
1
#1
0
POINT
8
2
10
902.247
20
-556.06
0
TEXT
8
2
10
902.247
20
-556.06
40
10.00
1
#1
0
TEXT
8
1
10
902.247
20
-545.06
40
10.00
1
PIECE NAME: CPTORFY2
0
TEXT
8
1
10
902.247
20
-534.06
40
10.00
1
SIZE: 1
0
TEXT
8
1
10
902.247
20
-523.06
40
10.00
1
ANNOTATION: 
0
TEXT
8
1
10
902.247
20
-512.06
40
10.00
1
QUANTITY: 1
0
TEXT
8
1
10
902.247
20
-501.06
40
10.00
1
MATERIAL: KUMAS
0
ENDBLK
0
BLOCK
8
0
2
4
70
0
10
0.0000
20
0.0000
0
POLYLINE
8
1
66
1
70
1
0
VERTEX
8
1
10
43.846
20
-886.739
0
VERTEX
8
1
10
121.36
20
-906.574
0
VERTEX
8
1
10
128.917
20
-872.627
0
VERTEX
8
1
10
140.812
20
-814.041
0
VERTEX
8
1
10
149.21
20
-765.383
0
VERTEX
8
1
10
154.616
20
-725.579
0
VERTEX
8
1
10
157.521
20
-693.549
0
VERTEX
8
1
10
158.394
20
-668.225
0
VERTEX
8
1
10
158.177
20
-656.151
0
VERTEX
8
1
10
156.33
20
-627.549
0
VERTEX
8
1
10
152.216
20
-591.717
0
VERTEX
8
1
10
145.354
20
-547.549
0
VERTEX
8
1
10
135.248
20
-494.005
0
VERTEX
8
1
10
121.36
20
-429.877
0
VERTEX
8
1
10
43.846
20
-449.712
0
VERTEX
8
1
10
42.003
20
-452.247
0
VERTEX
8
1
10
36.649
20
-461.36
0
VERTEX
8
1
10
32.645
20
-471.351
0
VERTEX
8
1
10
29.993
20
-482.351
0
VERTEX
8
1
10
28.778
20
-494.454
0
VERTEX
8
1
10
29.117
20
-507.75
0
VERTEX
8
1
10
31.167
20
-522.324
0
VERTEX
8
1
10
35.067
20
-538.051
0
VERTEX
8
1
10
40.869
20
-554.581
0
VERTEX
8
1
10
48.076
20
-570.408
0
VERTEX
8
1
10
50.716
20
-575.848
0
VERTEX
8
1
10
56.451
20
-590.444
0
VERTEX
8
1
10
61.365
20
-607.594
0
VERTEX
8
1
10
65.164
20
-626.907
0
VERTEX
8
1
10
67.561
20
-647.536
0
VERTEX
8
1
10
68.372
20
-668.225
0
VERTEX
8
1
10
68.225
20
-676.965
0
VERTEX
8
1
10
66.724
20
-697.81
0
VERTEX
8
1
10
63.7
20
-718.002
0
VERTEX
8
1
10
59.387
20
-736.469
0
VERTEX
8
1
10
54.084
20
-752.569
0
VERTEX
8
1
10
48.076
20
-766.043
0
VERTEX
8
1
10
42.389
20
-778.199
0
VERTEX
8
1
10
36.194
20
-794.777
0
VERTEX
8
1
10
31.867
20
-810.736
0
VERTEX
8
1
10
29.42
20
-825.569
0
VERTEX
8
1
10
28.715
20
-839.163
0
VERTEX
8
1
10
28.977
20
-845.616
0
VERTEX
8
1
10
30.62
20
-857.406
0
VERTEX
8
1
10
33.676
20
-868.116
0
VERTEX
8
1
10
38.084
20
-877.859
0
VERTEX
8
1
10
43.846
20
-886.739
0
SEQEND
8
1
0
POINT
8
2
10
43.846
20
-886.739
0
TEXT
8
2
10
43.846
20
-886.739
40
10.00
1
#188
0
POINT
8
2
10
121.36
20
-906.574
0
TEXT
8
2
10
121.36
20
-906.574
40
10.00
1
#189
0
POINT
8
3
10
128.917
20
-872.627
0
POINT
8
3
10
140.812
20
-814.041
0
POINT
8
3
10
149.21
20
-765.383
0
POINT
8
3
10
154.616
20
-725.579
0
POINT
8
3
10
157.521
20
-693.549
0
POINT
8
4
10
158.394
20
-668.225
30
10
50
180
0
POINT
8
2
10
158.394
20
-668.225
0
TEXT
8
2
10
158.394
20
-668.225
40
10.00
1
#190
0
POINT
8
3
10
158.177
20
-656.151
0
POINT
8
3
10
156.33
20
-627.549
0
POINT
8
3
10
152.216
20
-591.717
0
POINT
8
3
10
145.354
20
-547.549
0
POINT
8
3
10
135.248
20
-494.005
0
POINT
8
2
10
121.36
20
-429.877
0
TEXT
8
2
10
121.36
20
-429.877
40
10.00
1
#191
0
POINT
8
2
10
43.846
20
-449.712
0
TEXT
8
2
10
43.846
20
-449.712
40
10.00
1
#192
0
POINT
8
3
10
42.003
20
-452.247
0
POINT
8
3
10
36.649
20
-461.36
0
POINT
8
3
10
32.645
20
-471.351
0
POINT
8
3
10
29.993
20
-482.351
0
POINT
8
3
10
28.778
20
-494.454
0
POINT
8
3
10
29.117
20
-507.75
0
POINT
8
3
10
31.167
20
-522.324
0
POINT
8
3
10
35.067
20
-538.051
0
POINT
8
3
10
40.869
20
-554.581
0
POINT
8
4
10
48.076
20
-570.408
30
10
50
27.2902106121586
0
POINT
8
2
10
48.076
20
-570.408
0
TEXT
8
2
10
48.076
20
-570.408
40
10.00
1
#193
0
POINT
8
3
10
50.716
20
-575.848
0
POINT
8
3
10
56.451
20
-590.444
0
POINT
8
3
10
61.365
20
-607.594
0
POINT
8
3
10
65.164
20
-626.907
0
POINT
8
3
10
67.561
20
-647.536
0
POINT
8
4
10
68.372
20
-668.225
30
10
50
0
0
POINT
8
2
10
68.372
20
-668.225
0
TEXT
8
2
10
68.372
20
-668.225
40
10.00
1
#194
0
POINT
8
3
10
68.225
20
-676.965
0
POINT
8
3
10
66.724
20
-697.81
0
POINT
8
3
10
63.7
20
-718.002
0
POINT
8
3
10
59.387
20
-736.469
0
POINT
8
3
10
54.084
20
-752.569
0
POINT
8
4
10
48.076
20
-766.043
30
10
50
332.709789387841
0
POINT
8
2
10
48.076
20
-766.043
0
TEXT
8
2
10
48.076
20
-766.043
40
10.00
1
#195
0
POINT
8
3
10
42.389
20
-778.199
0
POINT
8
3
10
36.194
20
-794.777
0
POINT
8
3
10
31.867
20
-810.736
0
POINT
8
3
10
29.42
20
-825.569
0
POINT
8
2
10
28.715
20
-839.163
0
TEXT
8
2
10
28.715
20
-839.163
40
10.00
1
#196
0
POINT
8
3
10
28.977
20
-845.616
0
POINT
8
3
10
30.62
20
-857.406
0
POINT
8
3
10
33.676
20
-868.116
0
POINT
8
3
10
38.084
20
-877.859
0
POINT
8
2
10
43.846
20
-886.739
0
TEXT
8
2
10
43.846
20
-886.739
40
10.00
1
#188
0
LINE
8
7
10
122.016
20
-611.225
11
92.016
21
-611.225
0
POINT
8
2
10
122.016
20
-611.225
0
TEXT
8
2
10
122.016
20
-611.225
40
10.00
1
#1
0
POINT
8
2
10
92.016
20
-611.225
0
TEXT
8
2
10
92.016
20
-611.225
40
10.00
1
#1
0
TEXT
8
1
10
92.016
20
-600.225
40
10.00
1
PIECE NAME: YKCZ
0
TEXT
8
1
10
92.016
20
-589.225
40
10.00
1
SIZE: 1
0
TEXT
8
1
10
92.016
20
-578.225
40
10.00
1
ANNOTATION: 
0
TEXT
8
1
10
92.016
20
-567.225
40
10.00
1
QUANTITY: 1
0
TEXT
8
1
10
92.016
20
-556.225
40
10.00
1
MATERIAL: ÇÝZÝM
0
ENDBLK
0
BLOCK
8
0
2
5
70
0
10
0.0000
20
0.0000
0
POLYLINE
8
1
66
1
70
1
0
VERTEX
8
1
10
2543.052
20
-329.878
0
VERTEX
8
1
10
2543.052
20
-259.878
0
VERTEX
8
1
10
723.052
20
-259.878
0
VERTEX
8
1
10
723.052
20
-329.878
0
VERTEX
8
1
10
2543.052
20
-329.878
0
SEQEND
8
1
0
POINT
8
2
10
2543.052
20
-329.878
0
TEXT
8
2
10
2543.052
20
-329.878
40
10.00
1
#201
0
POINT
8
2
10
2543.052
20
-259.878
0
TEXT
8
2
10
2543.052
20
-259.878
40
10.00
1
#202
0
POINT
8
2
10
723.052
20
-259.878
0
TEXT
8
2
10
723.052
20
-259.878
40
10.00
1
#203
0
POINT
8
2
10
723.052
20
-329.878
0
TEXT
8
2
10
723.052
20
-329.878
40
10.00
1
#204
0
POINT
8
2
10
2543.052
20
-329.878
0
TEXT
8
2
10
2543.052
20
-329.878
40
10.00
1
#201
0
LINE
8
7
10
1344.296
20
-291.057
11
1294.296
21
-291.057
0
POINT
8
2
10
1344.296
20
-291.057
0
TEXT
8
2
10
1344.296
20
-291.057
40
10.00
1
#1
0
POINT
8
2
10
1294.296
20
-291.057
0
TEXT
8
2
10
1294.296
20
-291.057
40
10.00
1
#1
0
TEXT
8
1
10
1294.296
20
-280.057
40
10.00
1
PIECE NAME: KUSAK
0
TEXT
8
1
10
1294.296
20
-269.057
40
10.00
1
SIZE: 1
0
TEXT
8
1
10
1294.296
20
-258.057
40
10.00
1
ANNOTATION: 
0
TEXT
8
1
10
1294.296
20
-247.057
40
10.00
1
QUANTITY: 1
0
TEXT
8
1
10
1294.296
20
-236.057
40
10.00
1
MATERIAL: KUMAS
0
ENDBLK
0
BLOCK
8
0
2
6
70
0
10
0.0000
20
0.0000
0
POLYLINE
8
1
66
1
70
1
0
VERTEX
8
1
10
1154.375
20
-833.444
0
VERTEX
8
1
10
1154.388
20
-835.083
0
VERTEX
8
1
10
1155.384
20
-847.465
0
VERTEX
8
1
10
1157.925
20
-859.41
0
VERTEX
8
1
10
1161.91
20
-870.579
0
VERTEX
8
1
10
1167.198
20
-880.738
0
VERTEX
8
1
10
1173.659
20
-889.757
0
VERTEX
8
1
10
1264.481
20
-912.998
0
VERTEX
8
1
10
1276.119
20
-860.595
0
VERTEX
8
1
10
1287.387
20
-804.417
0
VERTEX
8
1
10
1295.275
20
-757.579
0
VERTEX
8
1
10
1300.784
20
-715.734
0
VERTEX
8
1
10
1303.178
20
-688.175
0
VERTEX
8
1
10
1304.055
20
-662.417
0
VERTEX
8
1
10
1303.958
20
-654.315
0
VERTEX
8
1
10
1302.443
20
-626.574
0
VERTEX
8
1
10
1301.939
20
-621.07
0
VERTEX
8
1
10
1297.393
20
-581.917
0
VERTEX
8
1
10
1290.626
20
-538.362
0
VERTEX
8
1
10
1280.858
20
-486.964
0
VERTEX
8
1
10
1264.481
20
-411.837
0
VERTEX
8
1
10
1173.659
20
-435.078
0
VERTEX
8
1
10
1167.066
20
-444.387
0
VERTEX
8
1
10
1161.824
20
-454.546
0
VERTEX
8
1
10
1157.936
20
-465.611
0
VERTEX
8
1
10
1155.449
20
-477.628
0
VERTEX
8
1
10
1154.429
20
-490.671
0
VERTEX
8
1
10
1154.986
20
-504.779
0
VERTEX
8
1
10
1157.244
20
-519.921
0
VERTEX
8
1
10
1161.308
20
-535.946
0
VERTEX
8
1
10
1167.221
20
-552.57
0
VERTEX
8
1
10
1174.851
20
-569.185
0
VERTEX
8
1
10
1175.781
20
-571.108
0
VERTEX
8
1
10
1181.893
20
-585.84
0
VERTEX
8
1
10
1186.837
20
-602.064
0
VERTEX
8
1
10
1190.56
20
-619.978
0
VERTEX
8
1
10
1192.997
20
-639.93
0
VERTEX
8
1
10
1194.034
20
-662.417
0
VERTEX
8
1
10
1193.98
20
-665.642
0
VERTEX
8
1
10
1192.746
20
-687.749
0
VERTEX
8
1
10
1190.127
20
-707.405
0
VERTEX
8
1
10
1186.229
20
-725.089
0
VERTEX
8
1
10
1181.125
20
-741.09
0
VERTEX
8
1
10
1174.851
20
-755.65
0
VERTEX
8
1
10
1168.028
20
-770.498
0
VERTEX
8
1
10
1161.863
20
-787.321
0
VERTEX
8
1
10
1157.621
20
-803.372
0
VERTEX
8
1
10
1155.16
20
-818.724
0
VERTEX
8
1
10
1154.375
20
-833.444
0
SEQEND
8
1
0
POINT
8
2
10
1154.375
20
-833.444
0
TEXT
8
2
10
1154.375
20
-833.444
40
10.00
1
#205
0
POINT
8
3
10
1154.388
20
-835.083
0
POINT
8
3
10
1155.384
20
-847.465
0
POINT
8
3
10
1157.925
20
-859.41
0
POINT
8
3
10
1161.91
20
-870.579
0
POINT
8
3
10
1167.198
20
-880.738
0
POINT
8
2
10
1173.659
20
-889.757
0
TEXT
8
2
10
1173.659
20
-889.757
40
10.00
1
#206
0
POINT
8
2
10
1264.481
20
-912.998
0
TEXT
8
2
10
1264.481
20
-912.998
40
10.00
1
#207
0
POINT
8
3
10
1276.119
20
-860.595
0
POINT
8
3
10
1287.387
20
-804.417
0
POINT
8
3
10
1295.275
20
-757.579
0
POINT
8
3
10
1300.784
20
-715.734
0
POINT
8
3
10
1303.178
20
-688.175
0
POINT
8
4
10
1304.055
20
-662.417
30
10
50
180
0
POINT
8
2
10
1304.055
20
-662.417
0
TEXT
8
2
10
1304.055
20
-662.417
40
10.00
1
#208
0
POINT
8
3
10
1303.958
20
-654.315
0
POINT
8
3
10
1302.443
20
-626.574
0
POINT
8
3
10
1301.939
20
-621.07
0
POINT
8
3
10
1297.393
20
-581.917
0
POINT
8
3
10
1290.626
20
-538.362
0
POINT
8
3
10
1280.858
20
-486.964
0
POINT
8
2
10
1264.481
20
-411.837
0
TEXT
8
2
10
1264.481
20
-411.837
40
10.00
1
#209
0
POINT
8
2
10
1173.659
20
-435.078
0
TEXT
8
2
10
1173.659
20
-435.078
40
10.00
1
#210
0
POINT
8
3
10
1167.066
20
-444.387
0
POINT
8
3
10
1161.824
20
-454.546
0
POINT
8
3
10
1157.936
20
-465.611
0
POINT
8
3
10
1155.449
20
-477.628
0
POINT
8
3
10
1154.429
20
-490.671
0
POINT
8
3
10
1154.986
20
-504.779
0
POINT
8
3
10
1157.244
20
-519.921
0
POINT
8
3
10
1161.308
20
-535.946
0
POINT
8
3
10
1167.221
20
-552.57
0
POINT
8
4
10
1174.851
20
-569.185
30
10
50
27.2877454401209
0
POINT
8
2
10
1174.851
20
-569.185
0
TEXT
8
2
10
1174.851
20
-569.185
40
10.00
1
#211
0
POINT
8
3
10
1175.781
20
-571.108
0
POINT
8
3
10
1181.893
20
-585.84
0
POINT
8
3
10
1186.837
20
-602.064
0
POINT
8
3
10
1190.56
20
-619.978
0
POINT
8
3
10
1192.997
20
-639.93
0
POINT
8
4
10
1194.034
20
-662.417
30
10
50
0
0
POINT
8
2
10
1194.034
20
-662.417
0
TEXT
8
2
10
1194.034
20
-662.417
40
10.00
1
#212
0
POINT
8
3
10
1193.98
20
-665.642
0
POINT
8
3
10
1192.746
20
-687.749
0
POINT
8
3
10
1190.127
20
-707.405
0
POINT
8
3
10
1186.229
20
-725.089
0
POINT
8
3
10
1181.125
20
-741.09
0
POINT
8
4
10
1174.851
20
-755.65
30
10
50
332.707162168986
0
POINT
8
2
10
1174.851
20
-755.65
0
TEXT
8
2
10
1174.851
20
-755.65
40
10.00
1
#213
0
POINT
8
3
10
1168.028
20
-770.498
0
POINT
8
3
10
1161.863
20
-787.321
0
POINT
8
3
10
1157.621
20
-803.372
0
POINT
8
3
10
1155.16
20
-818.724
0
POINT
8
2
10
1154.375
20
-833.444
0
TEXT
8
2
10
1154.375
20
-833.444
40
10.00
1
#205
0
LINE
8
7
10
1257.677
20
-605.417
11
1227.677
21
-605.417
0
POINT
8
2
10
1257.677
20
-605.417
0
TEXT
8
2
10
1257.677
20
-605.417
40
10.00
1
#1
0
POINT
8
2
10
1227.677
20
-605.417
0
TEXT
8
2
10
1227.677
20
-605.417
40
10.00
1
#1
0
TEXT
8
1
10
1227.677
20
-594.417
40
10.00
1
PIECE NAME: YK
0
TEXT
8
1
10
1227.677
20
-583.417
40
10.00
1
SIZE: 1
0
TEXT
8
1
10
1227.677
20
-572.417
40
10.00
1
ANNOTATION: 
0
TEXT
8
1
10
1227.677
20
-561.417
40
10.00
1
QUANTITY: 1
0
TEXT
8
1
10
1227.677
20
-550.417
40
10.00
1
MATERIAL: KUMAS
0
ENDBLK
0
BLOCK
8
0
2
7
70
0
10
0.0000
20
0.0000
0
POLYLINE
8
1
66
1
70
1
0
VERTEX
8
1
10
604.649
20
-1194.519
0
VERTEX
8
1
10
612.179
20
-1202.779
0
VERTEX
8
1
10
656.933
20
-1247.77
0
VERTEX
8
1
10
666.735
20
-1258.42
0
VERTEX
8
1
10
676.25
20
-1270.884
0
VERTEX
8
1
10
683.831
20
-1283.356
0
VERTEX
8
1
10
689.565
20
-1295.756
0
VERTEX
8
1
10
693.546
20
-1308.064
0
VERTEX
8
1
10
695.855
20
-1320.297
0
VERTEX
8
1
10
1150.81
20
-1255.749
0
VERTEX
8
1
10
1150.81
20
-1119.957
0
VERTEX
8
1
10
1150.546
20
-1112.036
0
VERTEX
8
1
10
1148.883
20
-1096.159
0
VERTEX
8
1
10
1145.876
20
-1082.005
0
VERTEX
8
1
10
1141.699
20
-1069.624
0
VERTEX
8
1
10
1136.49
20
-1058.947
0
VERTEX
8
1
10
1130.342
20
-1049.841
0
VERTEX
8
1
10
1123.287
20
-1042.171
0
VERTEX
8
1
10
1115.316
20
-1035.838
0
VERTEX
8
1
10
1043.733
20
-1066.069
0
VERTEX
8
1
10
1048.284
20
-1095.108
0
VERTEX
8
1
10
1016.779
20
-1104.794
0
VERTEX
8
1
10
963.524
20
-1119.718
0
VERTEX
8
1
10
901.317
20
-1135.345
0
VERTEX
8
1
10
818.572
20
-1154.176
0
VERTEX
8
1
10
768.158
20
-1164.716
0
VERTEX
8
1
10
687.418
20
-1180.246
0
VERTEX
8
1
10
604.649
20
-1194.519
0
SEQEND
8
1
0
POINT
8
2
10
604.649
20
-1194.519
0
TEXT
8
2
10
604.649
20
-1194.519
40
10.00
1
#218
0
POINT
8
3
10
612.179
20
-1202.779
0
POINT
8
4
10
656.933
20
-1247.77
30
10
50
43.5737764428609
0
POINT
8
2
10
656.933
20
-1247.77
0
TEXT
8
2
10
656.933
20
-1247.77
40
10.00
1
#219
0
POINT
8
3
10
666.735
20
-1258.42
0
POINT
8
3
10
676.25
20
-1270.884
0
POINT
8
3
10
683.831
20
-1283.356
0
POINT
8
3
10
689.565
20
-1295.756
0
POINT
8
3
10
693.546
20
-1308.064
0
POINT
8
2
10
695.855
20
-1320.297
0
TEXT
8
2
10
695.855
20
-1320.297
40
10.00
1
#220
0
POINT
8
2
10
1150.81
20
-1255.749
0
TEXT
8
2
10
1150.81
20
-1255.749
40
10.00
1
#221
0
POINT
8
2
10
1150.81
20
-1119.957
0
TEXT
8
2
10
1150.81
20
-1119.957
40
10.00
1
#222
0
POINT
8
3
10
1150.546
20
-1112.036
0
POINT
8
3
10
1148.883
20
-1096.159
0
POINT
8
3
10
1145.876
20
-1082.005
0
POINT
8
3
10
1141.699
20
-1069.624
0
POINT
8
3
10
1136.49
20
-1058.947
0
POINT
8
3
10
1130.342
20
-1049.841
0
POINT
8
3
10
1123.287
20
-1042.171
0
POINT
8
2
10
1115.316
20
-1035.838
0
TEXT
8
2
10
1115.316
20
-1035.838
40
10.00
1
#223
0
POINT
8
2
10
1043.733
20
-1066.069
0
TEXT
8
2
10
1043.733
20
-1066.069
40
10.00
1
#224
0
POINT
8
2
10
1048.284
20
-1095.108
0
TEXT
8
2
10
1048.284
20
-1095.108
40
10.00
1
#225
0
POINT
8
3
10
1016.779
20
-1104.794
0
POINT
8
3
10
963.524
20
-1119.718
0
POINT
8
3
10
901.317
20
-1135.345
0
POINT
8
4
10
818.572
20
-1154.176
30
10
50
282.17519209183
0
POINT
8
2
10
818.572
20
-1154.176
0
TEXT
8
2
10
818.572
20
-1154.176
40
10.00
1
#226
0
POINT
8
3
10
768.158
20
-1164.716
0
POINT
8
3
10
687.418
20
-1180.246
0
POINT
8
2
10
604.649
20
-1194.519
0
TEXT
8
2
10
604.649
20
-1194.519
40
10.00
1
#218
0
LINE
8
7
10
968.795
20
-1178.189
11
796.783
21
-1178.189
0
POINT
8
2
10
968.795
20
-1178.189
0
TEXT
8
2
10
968.795
20
-1178.189
40
10.00
1
#1
0
POINT
8
2
10
796.783
20
-1178.189
0
TEXT
8
2
10
796.783
20
-1178.189
40
10.00
1
#1
0
TEXT
8
1
10
796.783
20
-1167.189
40
10.00
1
PIECE NAME: ARKAKOL
0
TEXT
8
1
10
796.783
20
-1156.189
40
10.00
1
SIZE: 1
0
TEXT
8
1
10
796.783
20
-1145.189
40
10.00
1
ANNOTATION: 
0
TEXT
8
1
10
796.783
20
-1134.189
40
10.00
1
QUANTITY: 1
0
TEXT
8
1
10
796.783
20
-1123.189
40
10.00
1
MATERIAL: KUMAS
0
ENDBLK
0
BLOCK
8
0
2
8
70
0
10
0.0000
20
0.0000
0
POLYLINE
8
1
66
1
70
1
0
VERTEX
8
1
10
669.146
20
-846.751
0
VERTEX
8
1
10
667.397
20
-849.129
0
VERTEX
8
1
10
656.576
20
-862.115
0
VERTEX
8
1
10
640.254
20
-878.653
0
VERTEX
8
1
10
613.008
20
-903.52
0
VERTEX
8
1
10
595.254
20
-921.187
0
VERTEX
8
1
10
582.548
20
-935.86
0
VERTEX
8
1
10
572.942
20
-949.211
0
VERTEX
8
1
10
565.706
20
-961.846
0
VERTEX
8
1
10
560.48
20
-974.043
0
VERTEX
8
1
10
557.03
20
-986.033
0
VERTEX
8
1
10
555.232
20
-997.971
0
VERTEX
8
1
10
555.028
20
-1010.044
0
VERTEX
8
1
10
555.072
20
-1012.172
0
VERTEX
8
1
10
556.303
20
-1027.266
0
VERTEX
8
1
10
559.163
20
-1042.483
0
VERTEX
8
1
10
563.668
20
-1057.699
0
VERTEX
8
1
10
569.836
20
-1072.83
0
VERTEX
8
1
10
577.662
20
-1087.74
0
VERTEX
8
1
10
587.096
20
-1102.234
0
VERTEX
8
1
10
598.042
20
-1116.102
0
VERTEX
8
1
10
610.35
20
-1129.108
0
VERTEX
8
1
10
651.015
20
-1122.195
0
VERTEX
8
1
10
731.849
20
-1107.238
0
VERTEX
8
1
10
811.999
20
-1090.782
0
VERTEX
8
1
10
885.212
20
-1074.21
0
VERTEX
8
1
10
949.558
20
-1058.299
0
VERTEX
8
1
10
1003.738
20
-1043.368
0
VERTEX
8
1
10
1051.857
20
-1028.53
0
VERTEX
8
1
10
1078.315
20
-1019.109
0
VERTEX
8
1
10
1096.397
20
-1011.86
0
VERTEX
8
1
10
1109.112
20
-1005.231
0
VERTEX
8
1
10
1119.281
20
-998.241
0
VERTEX
8
1
10
1120.439
20
-997.225
0
VERTEX
8
1
10
1126.589
20
-990.583
0
VERTEX
8
1
10
1131.693
20
-982.677
0
VERTEX
8
1
10
1135.704
20
-973.413
0
VERTEX
8
1
10
1138.538
20
-962.66
0
VERTEX
8
1
10
1140.038
20
-950.368
0
VERTEX
8
1
10
1140.019
20
-936.673
0
VERTEX
8
1
10
1140.019
20
-865.463
0
VERTEX
8
1
10
683.326
20
-799.624
0
VERTEX
8
1
10
683.529
20
-807.793
0
VERTEX
8
1
10
682.312
20
-817.884
0
VERTEX
8
1
10
679.471
20
-827.926
0
VERTEX
8
1
10
675.048
20
-837.648
0
VERTEX
8
1
10
669.146
20
-846.751
0
SEQEND
8
1
0
POINT
8
4
10
669.146
20
-846.751
30
10
50
324.486965552533
0
POINT
8
2
10
669.146
20
-846.751
0
TEXT
8
2
10
669.146
20
-846.751
40
10.00
1
#229
0
POINT
8
3
10
667.397
20
-849.129
0
POINT
8
3
10
656.576
20
-862.115
0
POINT
8
4
10
640.254
20
-878.653
30
10
50
313.610129628026
0
POINT
8
2
10
640.254
20
-878.653
0
TEXT
8
2
10
640.254
20
-878.653
40
10.00
1
#230
0
POINT
8
3
10
613.008
20
-903.52
0
POINT
8
3
10
595.254
20
-921.187
0
POINT
8
3
10
582.548
20
-935.86
0
POINT
8
3
10
572.942
20
-949.211
0
POINT
8
3
10
565.706
20
-961.846
0
POINT
8
3
10
560.48
20
-974.043
0
POINT
8
3
10
557.03
20
-986.033
0
POINT
8
3
10
555.232
20
-997.971
0
POINT
8
4
10
555.028
20
-1010.044
30
10
50
2.40693254285018
0
POINT
8
2
10
555.028
20
-1010.044
0
TEXT
8
2
10
555.028
20
-1010.044
40
10.00
1
#231
0
POINT
8
3
10
555.072
20
-1012.172
0
POINT
8
3
10
556.303
20
-1027.266
0
POINT
8
3
10
559.163
20
-1042.483
0
POINT
8
3
10
563.668
20
-1057.699
0
POINT
8
3
10
569.836
20
-1072.83
0
POINT
8
3
10
577.662
20
-1087.74
0
POINT
8
3
10
587.096
20
-1102.234
0
POINT
8
3
10
598.042
20
-1116.102
0
POINT
8
2
10
610.35
20
-1129.108
0
TEXT
8
2
10
610.35
20
-1129.108
40
10.00
1
#232
0
POINT
8
3
10
651.015
20
-1122.195
0
POINT
8
3
10
731.849
20
-1107.238
0
POINT
8
4
10
811.999
20
-1090.782
30
10
50
102.180792719816
0
POINT
8
2
10
811.999
20
-1090.782
0
TEXT
8
2
10
811.999
20
-1090.782
40
10.00
1
#233
0
POINT
8
3
10
885.212
20
-1074.21
0
POINT
8
3
10
949.558
20
-1058.299
0
POINT
8
3
10
1003.738
20
-1043.368
0
POINT
8
4
10
1051.857
20
-1028.53
30
10
50
108.444007444113
0
POINT
8
2
10
1051.857
20
-1028.53
0
TEXT
8
2
10
1051.857
20
-1028.53
40
10.00
1
#234
0
POINT
8
3
10
1078.315
20
-1019.109
0
POINT
8
3
10
1096.397
20
-1011.86
0
POINT
8
3
10
1109.112
20
-1005.231
0
POINT
8
2
10
1119.281
20
-998.241
0
TEXT
8
2
10
1119.281
20
-998.241
40
10.00
1
#235
0
POINT
8
3
10
1120.439
20
-997.225
0
POINT
8
3
10
1126.589
20
-990.583
0
POINT
8
3
10
1131.693
20
-982.677
0
POINT
8
3
10
1135.704
20
-973.413
0
POINT
8
3
10
1138.538
20
-962.66
0
POINT
8
3
10
1140.038
20
-950.368
0
POINT
8
2
10
1140.019
20
-936.673
0
TEXT
8
2
10
1140.019
20
-936.673
40
10.00
1
#236
0
POINT
8
2
10
1140.019
20
-865.463
0
TEXT
8
2
10
1140.019
20
-865.463
40
10.00
1
#237
0
POINT
8
2
10
683.326
20
-799.624
0
TEXT
8
2
10
683.326
20
-799.624
40
10.00
1
#238
0
POINT
8
3
10
683.529
20
-807.793
0
POINT
8
3
10
682.312
20
-817.884
0
POINT
8
3
10
679.471
20
-827.926
0
POINT
8
3
10
675.048
20
-837.648
0
POINT
8
2
10
669.146
20
-846.751
0
TEXT
8
2
10
669.146
20
-846.751
40
10.00
1
#229
0
LINE
8
7
10
941.66
20
-964.748
11
753.302
21
-964.748
0
POINT
8
2
10
941.66
20
-964.748
0
TEXT
8
2
10
941.66
20
-964.748
40
10.00
1
#1
0
POINT
8
2
10
753.302
20
-964.748
0
TEXT
8
2
10
753.302
20
-964.748
40
10.00
1
#1
0
TEXT
8
1
10
753.302
20
-953.748
40
10.00
1
PIECE NAME: ONKOL
0
TEXT
8
1
10
753.302
20
-942.748
40
10.00
1
SIZE: 1
0
TEXT
8
1
10
753.302
20
-931.748
40
10.00
1
ANNOTATION: 
0
TEXT
8
1
10
753.302
20
-920.748
40
10.00
1
QUANTITY: 1
0
TEXT
8
1
10
753.302
20
-909.748
40
10.00
1
MATERIAL: KUMAS
0
ENDBLK
0
BLOCK
8
0
2
9
70
0
10
0.0000
20
0.0000
0
POLYLINE
8
1
66
1
70
1
0
VERTEX
8
1
10
1474.226
20
-848.752
0
VERTEX
8
1
10
1479.903
20
-851.902
0
VERTEX
8
1
10
1496.339
20
-859.739
0
VERTEX
8
1
10
1514.681
20
-866.642
0
VERTEX
8
1
10
1535.452
20
-872.66
0
VERTEX
8
1
10
1559.727
20
-877.897
0
VERTEX
8
1
10
1590.277
20
-882.627
0
VERTEX
8
1
10
1608.668
20
-884.757
0
VERTEX
8
1
10
1627.482
20
-886.507
0
VERTEX
8
1
10
1676.211
20
-889.752
0
VERTEX
8
1
10
1787.528
20
-894.055
0
VERTEX
8
1
10
2178.251
20
-908.181
0
VERTEX
8
1
10
2540.684
20
-920.561
0
VERTEX
8
1
10
2543.952
20
-855.973
0
VERTEX
8
1
10
2545.023
20
-810.316
0
VERTEX
8
1
10
2544.275
20
-719.836
0
VERTEX
8
1
10
2176.815
20
-737.48
0
VERTEX
8
1
10
2166.826
20
-737.961
0
VERTEX
8
1
10
1917.114
20
-749.953
0
VERTEX
8
1
10
1762.293
20
-757.387
0
VERTEX
8
1
10
1657.413
20
-762.423
0
VERTEX
8
1
10
1544.282
20
-767.856
0
VERTEX
8
1
10
1541.947
20
-784.212
0
VERTEX
8
1
10
1550.22
20
-786.741
0
VERTEX
8
1
10
1557.586
20
-790.507
0
VERTEX
8
1
10
1562.982
20
-794.898
0
VERTEX
8
1
10
1566.511
20
-799.664
0
VERTEX
8
1
10
1568.393
20
-804.762
0
VERTEX
8
1
10
1568.723
20
-810.316
0
VERTEX
8
1
10
1568.698
20
-810.727
0
VERTEX
8
1
10
1567.509
20
-816.666
0
VERTEX
8
1
10
1564.954
20
-821.623
0
VERTEX
8
1
10
1560.944
20
-825.845
0
VERTEX
8
1
10
1555.17
20
-829.415
0
VERTEX
8
1
10
1547.107
20
-832.28
0
VERTEX
8
1
10
1535.864
20
-834.3
0
VERTEX
8
1
10
1516.482
20
-835.469
0
VERTEX
8
1
10
1504.083
20
-835.179
0
VERTEX
8
1
10
1479.045
20
-833.038
0
VERTEX
8
1
10
1474.226
20
-848.752
0
SEQEND
8
1
0
POINT
8
2
10
1474.226
20
-848.752
0
TEXT
8
2
10
1474.226
20
-848.752
40
10.00
1
#244
0
POINT
8
3
10
1479.903
20
-851.902
0
POINT
8
3
10
1496.339
20
-859.739
0
POINT
8
3
10
1514.681
20
-866.642
0
POINT
8
3
10
1535.452
20
-872.66
0
POINT
8
3
10
1559.727
20
-877.897
0
POINT
8
4
10
1590.277
20
-882.627
30
10
50
82.6802506741208
0
POINT
8
2
10
1590.277
20
-882.627
0
TEXT
8
2
10
1590.277
20
-882.627
40
10.00
1
#245
0
POINT
8
3
10
1608.668
20
-884.757
0
POINT
8
3
10
1627.482
20
-886.507
0
POINT
8
3
10
1676.211
20
-889.752
0
POINT
8
4
10
1787.528
20
-894.055
30
10
50
87.9312800133099
0
POINT
8
2
10
1787.528
20
-894.055
0
TEXT
8
2
10
1787.528
20
-894.055
40
10.00
1
#246
0
POINT
8
4
10
2178.251
20
-908.181
30
10
50
87.9942635080624
0
POINT
8
2
10
2178.251
20
-908.181
0
TEXT
8
2
10
2178.251
20
-908.181
40
10.00
1
#247
0
POINT
8
2
10
2540.684
20
-920.561
0
TEXT
8
2
10
2540.684
20
-920.561
40
10.00
1
#248
0
POINT
8
3
10
2543.952
20
-855.973
0
POINT
8
4
10
2545.023
20
-810.316
30
10
50
180
0
POINT
8
2
10
2545.023
20
-810.316
0
TEXT
8
2
10
2545.023
20
-810.316
40
10.00
1
#249
0
POINT
8
2
10
2544.275
20
-719.836
0
TEXT
8
2
10
2544.275
20
-719.836
40
10.00
1
#250
0
POINT
8
4
10
2176.815
20
-737.48
30
10
50
272.756832405075
0
POINT
8
2
10
2176.815
20
-737.48
0
TEXT
8
2
10
2176.815
20
-737.48
40
10.00
1
#251
0
POINT
8
4
10
2166.826
20
-737.961
30
10
50
272.75710799366
0
POINT
8
2
10
2166.826
20
-737.961
0
TEXT
8
2
10
2166.826
20
-737.961
40
10.00
1
#252
0
POINT
8
4
10
1917.114
20
-749.953
30
10
50
272.757107993661
0
POINT
8
2
10
1917.114
20
-749.953
0
TEXT
8
2
10
1917.114
20
-749.953
40
10.00
1
#253
0
POINT
8
4
10
1762.293
20
-757.387
30
10
50
272.751109759228
0
POINT
8
2
10
1762.293
20
-757.387
0
TEXT
8
2
10
1762.293
20
-757.387
40
10.00
1
#254
0
POINT
8
4
10
1657.413
20
-762.423
30
10
50
272.756832405076
0
POINT
8
2
10
1657.413
20
-762.423
0
TEXT
8
2
10
1657.413
20
-762.423
40
10.00
1
#255
0
POINT
8
2
10
1544.282
20
-767.856
0
TEXT
8
2
10
1544.282
20
-767.856
40
10.00
1
#256
0
POINT
8
2
10
1541.947
20
-784.212
0
TEXT
8
2
10
1541.947
20
-784.212
40
10.00
1
#257
0
POINT
8
3
10
1550.22
20
-786.741
0
POINT
8
3
10
1557.586
20
-790.507
0
POINT
8
3
10
1562.982
20
-794.898
0
POINT
8
3
10
1566.511
20
-799.664
0
POINT
8
3
10
1568.393
20
-804.762
0
POINT
8
4
10
1568.723
20
-810.316
30
10
50
0
0
POINT
8
2
10
1568.723
20
-810.316
0
TEXT
8
2
10
1568.723
20
-810.316
40
10.00
1
#258
0
POINT
8
3
10
1568.698
20
-810.727
0
POINT
8
3
10
1567.509
20
-816.666
0
POINT
8
3
10
1564.954
20
-821.623
0
POINT
8
3
10
1560.944
20
-825.845
0
POINT
8
3
10
1555.17
20
-829.415
0
POINT
8
3
10
1547.107
20
-832.28
0
POINT
8
3
10
1535.864
20
-834.3
0
POINT
8
4
10
1516.482
20
-835.469
30
10
50
270.252125015159
0
POINT
8
2
10
1516.482
20
-835.469
0
TEXT
8
2
10
1516.482
20
-835.469
40
10.00
1
#259
0
POINT
8
3
10
1504.083
20
-835.179
0
POINT
8
2
10
1479.045
20
-833.038
0
TEXT
8
2
10
1479.045
20
-833.038
40
10.00
1
#260
0
POINT
8
2
10
1474.226
20
-848.752
0
TEXT
8
2
10
1474.226
20
-848.752
40
10.00
1
#244
0
LINE
8
7
10
2185.413
20
-820.276
11
1835.804
21
-820.276
0
POINT
8
2
10
2185.413
20
-820.276
0
TEXT
8
2
10
2185.413
20
-820.276
40
10.00
1
#1
0
POINT
8
2
10
1835.804
20
-820.276
0
TEXT
8
2
10
1835.804
20
-820.276
40
10.00
1
#1
0
TEXT
8
1
10
1835.804
20
-809.276
40
10.00
1
PIECE NAME: YANKUP
0
TEXT
8
1
10
1835.804
20
-798.276
40
10.00
1
SIZE: 1
0
TEXT
8
1
10
1835.804
20
-787.276
40
10.00
1
ANNOTATION: 
0
TEXT
8
1
10
1835.804
20
-776.276
40
10.00
1
QUANTITY: 1
0
TEXT
8
1
10
1835.804
20
-765.276
40
10.00
1
MATERIAL: KUMAS
0
ENDBLK
0
BLOCK
8
0
2
10
70
0
10
0.0000
20
0.0000
0
POLYLINE
8
1
66
1
70
1
0
VERTEX
8
1
10
2555.657
20
-1277.071
0
VERTEX
8
1
10
2555.657
20
-1222.071
0
VERTEX
8
1
10
2555.201
20
-1089.833
0
VERTEX
8
1
10
2553.565
20
-979.026
0
VERTEX
8
1
10
2190.846
20
-995.129
0
VERTEX
8
1
10
1800.239
20
-1011.692
0
VERTEX
8
1
10
1691.311
20
-1016.073
0
VERTEX
8
1
10
1643.53
20
-1016.721
0
VERTEX
8
1
10
1604.534
20
-1015.777
0
VERTEX
8
1
10
1580.922
20
-1014.11
0
VERTEX
8
1
10
1555.833
20
-1011.12
0
VERTEX
8
1
10
1535.057
20
-1007.153
0
VERTEX
8
1
10
1516.936
20
-1002.149
0
VERTEX
8
1
10
1500.731
20
-996.077
0
VERTEX
8
1
10
1496.987
20
-995.236
0
VERTEX
8
1
10
1495.73
20
-995.177
0
VERTEX
8
1
10
1461.843
20
-992.803
0
VERTEX
8
1
10
1431.16
20
-989.12
0
VERTEX
8
1
10
1403.018
20
-984.191
0
VERTEX
8
1
10
1376.976
20
-978.057
0
VERTEX
8
1
10
1352.723
20
-970.745
0
VERTEX
8
1
10
1295.954
20
-1136.285
0
VERTEX
8
1
10
1296.48
20
-1136.355
0
VERTEX
8
1
10
1302.628
20
-1138.015
0
VERTEX
8
1
10
1307.934
20
-1141.066
0
VERTEX
8
1
10
1312.58
20
-1145.64
0
VERTEX
8
1
10
1316.63
20
-1152.046
0
VERTEX
8
1
10
1320.036
20
-1160.763
0
VERTEX
8
1
10
1322.673
20
-1172.499
0
VERTEX
8
1
10
1324.361
20
-1188.52
0
VERTEX
8
1
10
1324.987
20
-1217.17
0
VERTEX
8
1
10
1325.657
20
-1232.071
0
VERTEX
8
1
10
1725.657
20
-1232.071
0
VERTEX
8
1
10
2119.159
20
-1232.071
0
VERTEX
8
1
10
2139.159
20
-1277.071
0
VERTEX
8
1
10
2555.657
20
-1277.071
0
SEQEND
8
1
0
POINT
8
2
10
2555.657
20
-1277.071
0
TEXT
8
2
10
2555.657
20
-1277.071
40
10.00
1
#272
0
POINT
8
4
10
2555.657
20
-1222.071
30
10
50
180
0
POINT
8
2
10
2555.657
20
-1222.071
0
TEXT
8
2
10
2555.657
20
-1222.071
40
10.00
1
#273
0
POINT
8
3
10
2555.201
20
-1089.833
0
POINT
8
2
10
2553.565
20
-979.026
0
TEXT
8
2
10
2553.565
20
-979.026
40
10.00
1
#274
0
POINT
8
4
10
2190.846
20
-995.129
30
10
50
272.481589160597
0
POINT
8
2
10
2190.846
20
-995.129
0
TEXT
8
2
10
2190.846
20
-995.129
40
10.00
1
#275
0
POINT
8
4
10
1800.239
20
-1011.692
30
10
50
272.430071274753
0
POINT
8
2
10
1800.239
20
-1011.692
0
TEXT
8
2
10
1800.239
20
-1011.692
40
10.00
1
#276
0
POINT
8
3
10
1691.311
20
-1016.073
0
POINT
8
3
10
1643.53
20
-1016.721
0
POINT
8
4
10
1604.534
20
-1015.777
30
10
50
267.17421773973
0
POINT
8
2
10
1604.534
20
-1015.777
0
TEXT
8
2
10
1604.534
20
-1015.777
40
10.00
1
#277
0
POINT
8
3
10
1580.922
20
-1014.11
0
POINT
8
3
10
1555.833
20
-1011.12
0
POINT
8
3
10
1535.057
20
-1007.153
0
POINT
8
3
10
1516.936
20
-1002.149
0
POINT
8
2
10
1500.731
20
-996.077
0
TEXT
8
2
10
1500.731
20
-996.077
40
10.00
1
#278
0
POINT
8
2
10
1496.987
20
-995.236
0
TEXT
8
2
10
1496.987
20
-995.236
40
10.00
1
#279
0
POINT
8
3
10
1495.73
20
-995.177
0
POINT
8
3
10
1461.843
20
-992.803
0
POINT
8
3
10
1431.16
20
-989.12
0
POINT
8
3
10
1403.018
20
-984.191
0
POINT
8
3
10
1376.976
20
-978.057
0
POINT
8
2
10
1352.723
20
-970.745
0
TEXT
8
2
10
1352.723
20
-970.745
40
10.00
1
#280
0
POINT
8
2
10
1295.954
20
-1136.285
0
TEXT
8
2
10
1295.954
20
-1136.285
40
10.00
1
#281
0
POINT
8
3
10
1296.48
20
-1136.355
0
POINT
8
3
10
1302.628
20
-1138.015
0
POINT
8
3
10
1307.934
20
-1141.066
0
POINT
8
3
10
1312.58
20
-1145.64
0
POINT
8
3
10
1316.63
20
-1152.046
0
POINT
8
3
10
1320.036
20
-1160.763
0
POINT
8
3
10
1322.673
20
-1172.499
0
POINT
8
3
10
1324.361
20
-1188.52
0
POINT
8
3
10
1324.987
20
-1217.17
0
POINT
8
2
10
1325.657
20
-1232.071
0
TEXT
8
2
10
1325.657
20
-1232.071
40
10.00
1
#282
0
POINT
8
4
10
1725.657
20
-1232.071
30
10
50
90
0
POINT
8
2
10
1725.657
20
-1232.071
0
TEXT
8
2
10
1725.657
20
-1232.071
40
10.00
1
#283
0
POINT
8
2
10
2119.159
20
-1232.071
0
TEXT
8
2
10
2119.159
20
-1232.071
40
10.00
1
#284
0
POINT
8
2
10
2139.159
20
-1277.071
0
TEXT
8
2
10
2139.159
20
-1277.071
40
10.00
1
#285
0
POINT
8
2
10
2555.657
20
-1277.071
0
TEXT
8
2
10
2555.657
20
-1277.071
40
10.00
1
#272
0
LINE
8
7
10
2133.324
20
-1125.259
11
1720.99
21
-1125.259
0
POINT
8
2
10
2133.324
20
-1125.259
0
TEXT
8
2
10
2133.324
20
-1125.259
40
10.00
1
#1
0
POINT
8
2
10
1720.99
20
-1125.259
0
TEXT
8
2
10
1720.99
20
-1125.259
40
10.00
1
#1
0
TEXT
8
1
10
1720.99
20
-1114.259
40
10.00
1
PIECE NAME: ARKA
0
TEXT
8
1
10
1720.99
20
-1103.259
40
10.00
1
SIZE: 1
0
TEXT
8
1
10
1720.99
20
-1092.259
40
10.00
1
ANNOTATION: 
0
TEXT
8
1
10
1720.99
20
-1081.259
40
10.00
1
QUANTITY: 1
0
TEXT
8
1
10
1720.99
20
-1070.259
40
10.00
1
MATERIAL: KUMAS
0
ENDBLK
0
BLOCK
8
0
2
11
70
0
10
0.0000
20
0.0000
0
POLYLINE
8
1
66
1
70
1
0
VERTEX
8
1
10
1309.549
20
-493.352
0
VERTEX
8
1
10
1369.252
20
-657.822
0
VERTEX
8
1
10
1387.384
20
-652.029
0
VERTEX
8
1
10
1412.451
20
-645.496
0
VERTEX
8
1
10
1438.318
20
-640.418
0
VERTEX
8
1
10
1464.808
20
-636.855
0
VERTEX
8
1
10
1491.757
20
-634.85
0
VERTEX
8
1
10
1518.989
20
-634.428
0
VERTEX
8
1
10
1521.696
20
-634.58
0
VERTEX
8
1
10
1538.463
20
-636.274
0
VERTEX
8
1
10
1550.898
20
-638.967
0
VERTEX
8
1
10
1561.174
20
-642.723
0
VERTEX
8
1
10
1668.047
20
-645.987
0
VERTEX
8
1
10
1772.998
20
-649.192
0
VERTEX
8
1
10
1927.925
20
-653.924
0
VERTEX
8
1
10
2177.809
20
-661.554
0
VERTEX
8
1
10
2187.804
20
-661.86
0
VERTEX
8
1
10
2554.831
20
-673.067
0
VERTEX
8
1
10
2560.844
20
-570.885
0
VERTEX
8
1
10
2564.03
20
-495.077
0
VERTEX
8
1
10
2565.184
20
-432.57
0
VERTEX
8
1
10
2565.184
20
-410.071
0
VERTEX
8
1
10
2565.184
20
-377.571
0
VERTEX
8
1
10
1399.543
20
-377.571
0
VERTEX
8
1
10
1399.543
20
-410.071
0
VERTEX
8
1
10
1399.286
20
-416.775
0
VERTEX
8
1
10
1399.261
20
-417.16
0
VERTEX
8
1
10
1397.853
20
-426.788
0
VERTEX
8
1
10
1394.942
20
-435.788
0
VERTEX
8
1
10
1390.494
20
-444.297
0
VERTEX
8
1
10
1384.38
20
-452.444
0
VERTEX
8
1
10
1376.357
20
-460.329
0
VERTEX
8
1
10
1366.09
20
-468.024
0
VERTEX
8
1
10
1353.034
20
-475.637
0
VERTEX
8
1
10
1336.101
20
-483.437
0
VERTEX
8
1
10
1309.549
20
-493.352
0
SEQEND
8
1
0
POINT
8
2
10
1309.549
20
-493.352
0
TEXT
8
2
10
1309.549
20
-493.352
40
10.00
1
#291
0
POINT
8
2
10
1369.252
20
-657.822
0
TEXT
8
2
10
1369.252
20
-657.822
40
10.00
1
#292
0
POINT
8
3
10
1387.384
20
-652.029
0
POINT
8
3
10
1412.451
20
-645.496
0
POINT
8
3
10
1438.318
20
-640.418
0
POINT
8
3
10
1464.808
20
-636.855
0
POINT
8
3
10
1491.757
20
-634.85
0
POINT
8
4
10
1518.989
20
-634.428
30
10
50
87.500989289752
0
POINT
8
2
10
1518.989
20
-634.428
0
TEXT
8
2
10
1518.989
20
-634.428
40
10.00
1
#293
0
POINT
8
3
10
1521.696
20
-634.58
0
POINT
8
3
10
1538.463
20
-636.274
0
POINT
8
3
10
1550.898
20
-638.967
0
POINT
8
2
10
1561.174
20
-642.723
0
TEXT
8
2
10
1561.174
20
-642.723
40
10.00
1
#294
0
POINT
8
4
10
1668.047
20
-645.987
30
10
50
88.2521469149611
0
POINT
8
2
10
1668.047
20
-645.987
0
TEXT
8
2
10
1668.047
20
-645.987
40
10.00
1
#295
0
POINT
8
4
10
1772.998
20
-649.192
30
10
50
88.2521469149611
0
POINT
8
2
10
1772.998
20
-649.192
0
TEXT
8
2
10
1772.998
20
-649.192
40
10.00
1
#296
0
POINT
8
4
10
1927.925
20
-653.924
30
10
50
88.2465951399282
0
POINT
8
2
10
1927.925
20
-653.924
0
TEXT
8
2
10
1927.925
20
-653.924
40
10.00
1
#297
0
POINT
8
4
10
2177.809
20
-661.554
30
10
50
88.2464198212552
0
POINT
8
2
10
2177.809
20
-661.554
0
TEXT
8
2
10
2177.809
20
-661.554
40
10.00
1
#298
0
POINT
8
4
10
2187.804
20
-661.86
30
10
50
88.2465951399282
0
POINT
8
2
10
2187.804
20
-661.86
0
TEXT
8
2
10
2187.804
20
-661.86
40
10.00
1
#299
0
POINT
8
2
10
2554.831
20
-673.067
0
TEXT
8
2
10
2554.831
20
-673.067
40
10.00
1
#300
0
POINT
8
3
10
2560.844
20
-570.885
0
POINT
8
3
10
2564.03
20
-495.077
0
POINT
8
2
10
2565.184
20
-432.57
0
TEXT
8
2
10
2565.184
20
-432.57
40
10.00
1
#301
0
POINT
8
2
10
2565.184
20
-410.071
0
TEXT
8
2
10
2565.184
20
-410.071
40
10.00
1
#302
0
POINT
8
2
10
2565.184
20
-377.571
0
TEXT
8
2
10
2565.184
20
-377.571
40
10.00
1
#303
0
POINT
8
2
10
1399.543
20
-377.571
0
TEXT
8
2
10
1399.543
20
-377.571
40
10.00
1
#304
0
POINT
8
2
10
1399.543
20
-410.071
0
TEXT
8
2
10
1399.543
20
-410.071
40
10.00
1
#305
0
POINT
8
4
10
1399.286
20
-416.775
30
10
50
355.479998572832
0
POINT
8
2
10
1399.286
20
-416.775
0
TEXT
8
2
10
1399.286
20
-416.775
40
10.00
1
#306
0
POINT
8
3
10
1399.261
20
-417.16
0
POINT
8
3
10
1397.853
20
-426.788
0
POINT
8
3
10
1394.942
20
-435.788
0
POINT
8
3
10
1390.494
20
-444.297
0
POINT
8
3
10
1384.38
20
-452.444
0
POINT
8
3
10
1376.357
20
-460.329
0
POINT
8
3
10
1366.09
20
-468.024
0
POINT
8
3
10
1353.034
20
-475.637
0
POINT
8
3
10
1336.101
20
-483.437
0
POINT
8
2
10
1309.549
20
-493.352
0
TEXT
8
2
10
1309.549
20
-493.352
40
10.00
1
#291
0
LINE
8
7
10
2144.242
20
-525.174
11
1733.302
21
-525.174
0
POINT
8
2
10
2144.242
20
-525.174
0
TEXT
8
2
10
2144.242
20
-525.174
40
10.00
1
#1
0
POINT
8
2
10
1733.302
20
-525.174
0
TEXT
8
2
10
1733.302
20
-525.174
40
10.00
1
#1
0
TEXT
8
1
10
1733.302
20
-514.174
40
10.00
1
PIECE NAME: ON
0
TEXT
8
1
10
1733.302
20
-503.174
40
10.00
1
SIZE: 1
0
TEXT
8
1
10
1733.302
20
-492.174
40
10.00
1
ANNOTATION: 
0
TEXT
8
1
10
1733.302
20
-481.174
40
10.00
1
QUANTITY: 1
0
TEXT
8
1
10
1733.302
20
-470.174
40
10.00
1
MATERIAL: KUMAS
0
ENDBLK
0
BLOCK
8
0
2
12
70
0
10
0.0000
20
0.0000
0
POLYLINE
8
1
66
1
70
1
0
VERTEX
8
1
10
556.421
20
-757.244
0
VERTEX
8
1
10
1156.421
20
-757.244
0
VERTEX
8
1
10
1156.421
20
-717.244
0
VERTEX
8
1
10
556.421
20
-717.244
0
VERTEX
8
1
10
556.421
20
-757.244
0
SEQEND
8
1
0
POINT
8
2
10
556.421
20
-757.244
0
TEXT
8
2
10
556.421
20
-757.244
40
10.00
1
#314
0
POINT
8
2
10
1156.421
20
-757.244
0
TEXT
8
2
10
1156.421
20
-757.244
40
10.00
1
#315
0
POINT
8
2
10
1156.421
20
-717.244
0
TEXT
8
2
10
1156.421
20
-717.244
40
10.00
1
#316
0
POINT
8
2
10
556.421
20
-717.244
0
TEXT
8
2
10
556.421
20
-717.244
40
10.00
1
#317
0
POINT
8
2
10
556.421
20
-757.244
0
TEXT
8
2
10
556.421
20
-757.244
40
10.00
1
#314
0
LINE
8
7
10
851.548
20
-737.244
11
801.548
21
-737.244
0
POINT
8
2
10
851.548
20
-737.244
0
TEXT
8
2
10
851.548
20
-737.244
40
10.00
1
#1
0
POINT
8
2
10
801.548
20
-737.244
0
TEXT
8
2
10
801.548
20
-737.244
40
10.00
1
#1
0
TEXT
8
1
10
801.548
20
-726.244
40
10.00
1
PIECE NAME: KPR
0
TEXT
8
1
10
801.548
20
-715.244
40
10.00
1
SIZE: 1
0
TEXT
8
1
10
801.548
20
-704.244
40
10.00
1
ANNOTATION: 
0
TEXT
8
1
10
801.548
20
-693.244
40
10.00
1
QUANTITY: 1
0
TEXT
8
1
10
801.548
20
-682.244
40
10.00
1
MATERIAL: KUMAS
0
ENDBLK
0
BLOCK
8
0
2
13
70
0
10
0.0000
20
0.0000
0
POLYLINE
8
1
66
1
70
1
0
VERTEX
8
1
10
0
20
-952.364
0
VERTEX
8
1
10
0
20
-1173.267
0
VERTEX
8
1
10
36.828
20
-1163.337
0
VERTEX
8
1
10
62.375
20
-1156.038
0
VERTEX
8
1
10
84.643
20
-1149.297
0
VERTEX
8
1
10
103.834
20
-1143.11
0
VERTEX
8
1
10
100.67
20
-1133.624
0
VERTEX
8
1
10
123.641
20
-1125.542
0
VERTEX
8
1
10
135.686
20
-1120.84
0
VERTEX
8
1
10
145.215
20
-1116.734
0
VERTEX
8
1
10
152.523
20
-1113.2
0
VERTEX
8
1
10
157.961
20
-1110.181
0
VERTEX
8
1
10
161.829
20
-1107.636
0
VERTEX
8
1
10
164.438
20
-1105.508
0
VERTEX
8
1
10
166.495
20
-1103.506
0
VERTEX
8
1
10
169.741
20
-1099.92
0
VERTEX
8
1
10
172.519
20
-1096.267
0
VERTEX
8
1
10
174.862
20
-1092.533
0
VERTEX
8
1
10
176.826
20
-1088.654
0
VERTEX
8
1
10
178.447
20
-1084.56
0
VERTEX
8
1
10
179.749
20
-1080.153
0
VERTEX
8
1
10
180.746
20
-1075.297
0
VERTEX
8
1
10
181.452
20
-1069.725
0
VERTEX
8
1
10
181.87
20
-1062.834
0
VERTEX
8
1
10
181.996
20
-1051.253
0
VERTEX
8
1
10
181.996
20
-988.706
0
VERTEX
8
1
10
183.423
20
-978.807
0
VERTEX
8
1
10
0
20
-952.364
0
SEQEND
8
1
0
POINT
8
2
10
0
20
-952.364
0
TEXT
8
2
10
0
20
-952.364
40
10.00
1
#318
0
POINT
8
2
10
0
20
-1173.267
0
TEXT
8
2
10
0
20
-1173.267
40
10.00
1
#319
0
POINT
8
3
10
36.828
20
-1163.337
0
POINT
8
3
10
62.375
20
-1156.038
0
POINT
8
3
10
84.643
20
-1149.297
0
POINT
8
2
10
103.834
20
-1143.11
0
TEXT
8
2
10
103.834
20
-1143.11
40
10.00
1
#320
0
POINT
8
4
10
100.67
20
-1133.624
30
10
50
108.445820199589
0
POINT
8
2
10
100.67
20
-1133.624
0
TEXT
8
2
10
100.67
20
-1133.624
40
10.00
1
#321
0
POINT
8
3
10
123.641
20
-1125.542
0
POINT
8
3
10
135.686
20
-1120.84
0
POINT
8
3
10
145.215
20
-1116.734
0
POINT
8
3
10
152.523
20
-1113.2
0
POINT
8
3
10
157.961
20
-1110.181
0
POINT
8
3
10
161.829
20
-1107.636
0
POINT
8
2
10
164.438
20
-1105.508
0
TEXT
8
2
10
164.438
20
-1105.508
40
10.00
1
#322
0
POINT
8
3
10
166.495
20
-1103.506
0
POINT
8
3
10
169.741
20
-1099.92
0
POINT
8
3
10
172.519
20
-1096.267
0
POINT
8
3
10
174.862
20
-1092.533
0
POINT
8
3
10
176.826
20
-1088.654
0
POINT
8
3
10
178.447
20
-1084.56
0
POINT
8
3
10
179.749
20
-1080.153
0
POINT
8
3
10
180.746
20
-1075.297
0
POINT
8
3
10
181.452
20
-1069.725
0
POINT
8
3
10
181.87
20
-1062.834
0
POINT
8
2
10
181.996
20
-1051.253
0
TEXT
8
2
10
181.996
20
-1051.253
40
10.00
1
#323
0
POINT
8
2
10
181.996
20
-988.706
0
TEXT
8
2
10
181.996
20
-988.706
40
10.00
1
#324
0
POINT
8
2
10
183.423
20
-978.807
0
TEXT
8
2
10
183.423
20
-978.807
40
10.00
1
#325
0
POINT
8
2
10
0
20
-952.364
0
TEXT
8
2
10
0
20
-952.364
40
10.00
1
#318
0
LINE
8
7
10
124.663
20
-1062.087
11
67.331
21
-1062.087
0
POINT
8
2
10
124.663
20
-1062.087
0
TEXT
8
2
10
124.663
20
-1062.087
40
10.00
1
#1
0
POINT
8
2
10
67.331
20
-1062.087
0
TEXT
8
2
10
67.331
20
-1062.087
40
10.00
1
#1
0
TEXT
8
1
10
67.331
20
-1051.087
40
10.00
1
PIECE NAME: ONKOLCZ
0
TEXT
8
1
10
67.331
20
-1040.087
40
10.00
1
SIZE: 1
0
TEXT
8
1
10
67.331
20
-1029.087
40
10.00
1
ANNOTATION: 
0
TEXT
8
1
10
67.331
20
-1018.087
40
10.00
1
QUANTITY: 1
0
TEXT
8
1
10
67.331
20
-1007.087
40
10.00
1
MATERIAL: ÇÝZÝM
0
ENDBLK
0
BLOCK
8
0
2
14
70
0
10
0.0000
20
0.0000
0
POLYLINE
8
1
66
1
70
1
0
VERTEX
8
1
10
0
20
-1222.575
0
VERTEX
8
1
10
0
20
-1384.629
0
VERTEX
8
1
10
183.401
20
-1358.608
0
VERTEX
8
1
10
181.996
20
-1348.708
0
VERTEX
8
1
10
181.996
20
-1221.597
0
VERTEX
8
1
10
181.665
20
-1212.089
0
VERTEX
8
1
10
180.951
20
-1204.635
0
VERTEX
8
1
10
179.856
20
-1197.361
0
VERTEX
8
1
10
178.413
20
-1190.393
0
VERTEX
8
1
10
176.656
20
-1183.839
0
VERTEX
8
1
10
174.622
20
-1177.749
0
VERTEX
8
1
10
172.343
20
-1172.151
0
VERTEX
8
1
10
169.862
20
-1167.084
0
VERTEX
8
1
10
167.196
20
-1162.514
0
VERTEX
8
1
10
164.362
20
-1158.432
0
VERTEX
8
1
10
161.384
20
-1154.824
0
VERTEX
8
1
10
158.275
20
-1151.669
0
VERTEX
8
1
10
155.044
20
-1148.949
0
VERTEX
8
1
10
96.009
20
-1173.88
0
VERTEX
8
1
10
86.129
20
-1175.428
0
VERTEX
8
1
10
89.471
20
-1196.745
0
VERTEX
8
1
10
60.053
20
-1205.873
0
VERTEX
8
1
10
35.149
20
-1213.043
0
VERTEX
8
1
10
0
20
-1222.575
0
SEQEND
8
1
0
POINT
8
2
10
0
20
-1222.575
0
TEXT
8
2
10
0
20
-1222.575
40
10.00
1
#327
0
POINT
8
2
10
0
20
-1384.629
0
TEXT
8
2
10
0
20
-1384.629
40
10.00
1
#328
0
POINT
8
2
10
183.401
20
-1358.608
0
TEXT
8
2
10
183.401
20
-1358.608
40
10.00
1
#329
0
POINT
8
2
10
181.996
20
-1348.708
0
TEXT
8
2
10
181.996
20
-1348.708
40
10.00
1
#330
0
POINT
8
2
10
181.996
20
-1221.597
0
TEXT
8
2
10
181.996
20
-1221.597
40
10.00
1
#331
0
POINT
8
3
10
181.665
20
-1212.089
0
POINT
8
3
10
180.951
20
-1204.635
0
POINT
8
3
10
179.856
20
-1197.361
0
POINT
8
3
10
178.413
20
-1190.393
0
POINT
8
3
10
176.656
20
-1183.839
0
POINT
8
3
10
174.622
20
-1177.749
0
POINT
8
3
10
172.343
20
-1172.151
0
POINT
8
3
10
169.862
20
-1167.084
0
POINT
8
3
10
167.196
20
-1162.514
0
POINT
8
3
10
164.362
20
-1158.432
0
POINT
8
3
10
161.384
20
-1154.824
0
POINT
8
3
10
158.275
20
-1151.669
0
POINT
8
2
10
155.044
20
-1148.949
0
TEXT
8
2
10
155.044
20
-1148.949
40
10.00
1
#332
0
POINT
8
2
10
96.009
20
-1173.88
0
TEXT
8
2
10
96.009
20
-1173.88
40
10.00
1
#333
0
POINT
8
2
10
86.129
20
-1175.428
0
TEXT
8
2
10
86.129
20
-1175.428
40
10.00
1
#334
0
POINT
8
2
10
89.471
20
-1196.745
0
TEXT
8
2
10
89.471
20
-1196.745
40
10.00
1
#335
0
POINT
8
3
10
60.053
20
-1205.873
0
POINT
8
3
10
35.149
20
-1213.043
0
POINT
8
2
10
0
20
-1222.575
0
TEXT
8
2
10
0
20
-1222.575
40
10.00
1
#327
0
LINE
8
7
10
124.663
20
-1261.03
11
67.331
21
-1261.03
0
POINT
8
2
10
124.663
20
-1261.03
0
TEXT
8
2
10
124.663
20
-1261.03
40
10.00
1
#1
0
POINT
8
2
10
67.331
20
-1261.03
0
TEXT
8
2
10
67.331
20
-1261.03
40
10.00
1
#1
0
TEXT
8
1
10
67.331
20
-1250.03
40
10.00
1
PIECE NAME: ARKAKOLCZ
0
TEXT
8
1
10
67.331
20
-1239.03
40
10.00
1
SIZE: 1
0
TEXT
8
1
10
67.331
20
-1228.03
40
10.00
1
ANNOTATION: 
0
TEXT
8
1
10
67.331
20
-1217.03
40
10.00
1
QUANTITY: 1
0
TEXT
8
1
10
67.331
20
-1206.03
40
10.00
1
MATERIAL: ÇÝZÝM
0
ENDBLK
0
BLOCK
8
0
2
15
70
0
10
0.0000
20
0.0000
0
POLYLINE
8
1
66
1
70
1
0
VERTEX
8
1
10
-119.915
20
-225.058
0
VERTEX
8
1
10
-112.672
20
-228.944
0
VERTEX
8
1
10
-102.971
20
-233.772
0
VERTEX
8
1
10
-95.08
20
-237.207
0
VERTEX
8
1
10
-86.568
20
-240.499
0
VERTEX
8
1
10
-77.146
20
-243.714
0
VERTEX
8
1
10
-67.179
20
-246.698
0
VERTEX
8
1
10
-56.628
20
-249.46
0
VERTEX
8
1
10
-44.852
20
-252.134
0
VERTEX
8
1
10
-32.073
20
-254.626
0
VERTEX
8
1
10
-18.633
20
-256.859
0
VERTEX
8
1
10
-3.863
20
-258.933
0
VERTEX
8
1
10
14.527
20
-261.063
0
VERTEX
8
1
10
33.62
20
-262.85
0
VERTEX
8
1
10
55.85
20
-264.511
0
VERTEX
8
1
10
80.998
20
-265.988
0
VERTEX
8
1
10
114.718
20
-267.527
0
VERTEX
8
1
10
193.386
20
-270.36
0
VERTEX
8
1
10
281.877
20
-273.56
0
VERTEX
8
1
10
281.877
20
-128.232
0
VERTEX
8
1
10
168.151
20
-133.693
0
VERTEX
8
1
10
63.272
20
-138.729
0
VERTEX
8
1
10
-49.858
20
-144.162
0
VERTEX
8
1
10
-52.194
20
-160.518
0
VERTEX
8
1
10
-44.382
20
-163.209
0
VERTEX
8
1
10
-39.525
20
-165.178
0
VERTEX
8
1
10
-36.289
20
-166.917
0
VERTEX
8
1
10
-33.625
20
-168.745
0
VERTEX
8
1
10
-31.328
20
-170.769
0
VERTEX
8
1
10
-29.48
20
-172.908
0
VERTEX
8
1
10
-28.007
20
-175.203
0
VERTEX
8
1
10
-26.873
20
-177.702
0
VERTEX
8
1
10
-26.092
20
-180.31
0
VERTEX
8
1
10
-25.581
20
-183.384
0
VERTEX
8
1
10
-25.417
20
-186.622
0
VERTEX
8
1
10
-25.482
20
-188.486
0
VERTEX
8
1
10
-25.855
20
-191.257
0
VERTEX
8
1
10
-26.482
20
-193.579
0
VERTEX
8
1
10
-27.395
20
-195.728
0
VERTEX
8
1
10
-28.571
20
-197.674
0
VERTEX
8
1
10
-30.137
20
-199.593
0
VERTEX
8
1
10
-32.063
20
-201.392
0
VERTEX
8
1
10
-34.531
20
-203.181
0
VERTEX
8
1
10
-37.533
20
-204.88
0
VERTEX
8
1
10
-40.969
20
-206.405
0
VERTEX
8
1
10
-45.38
20
-207.916
0
VERTEX
8
1
10
-50.512
20
-209.228
0
VERTEX
8
1
10
-56.282
20
-210.287
0
VERTEX
8
1
10
-62.565
20
-211.062
0
VERTEX
8
1
10
-69.94
20
-211.583
0
VERTEX
8
1
10
-77.658
20
-211.774
0
VERTEX
8
1
10
-85.319
20
-211.672
0
VERTEX
8
1
10
-95.579
20
-211.161
0
VERTEX
8
1
10
-115.096
20
-209.343
0
VERTEX
8
1
10
-119.915
20
-225.058
0
SEQEND
8
1
0
POINT
8
2
10
-119.915
20
-225.058
0
TEXT
8
2
10
-119.915
20
-225.058
40
10.00
1
#336
0
POINT
8
3
10
-112.672
20
-228.944
0
POINT
8
3
10
-102.971
20
-233.772
0
POINT
8
3
10
-95.08
20
-237.207
0
POINT
8
3
10
-86.568
20
-240.499
0
POINT
8
3
10
-77.146
20
-243.714
0
POINT
8
3
10
-67.179
20
-246.698
0
POINT
8
3
10
-56.628
20
-249.46
0
POINT
8
3
10
-44.852
20
-252.134
0
POINT
8
3
10
-32.073
20
-254.626
0
POINT
8
3
10
-18.633
20
-256.859
0
POINT
8
4
10
-3.863
20
-258.933
30
10
50
82.674567571453
0
POINT
8
2
10
-3.863
20
-258.933
0
TEXT
8
2
10
-3.863
20
-258.933
40
10.00
1
#337
0
POINT
8
3
10
14.527
20
-261.063
0
POINT
8
3
10
33.62
20
-262.85
0
POINT
8
3
10
55.85
20
-264.511
0
POINT
8
3
10
80.998
20
-265.988
0
POINT
8
3
10
114.718
20
-267.527
0
POINT
8
4
10
193.386
20
-270.36
30
10
50
87.9310731762959
0
POINT
8
2
10
193.386
20
-270.36
0
TEXT
8
2
10
193.386
20
-270.36
40
10.00
1
#338
0
POINT
8
2
10
281.877
20
-273.56
0
TEXT
8
2
10
281.877
20
-273.56
40
10.00
1
#339
0
POINT
8
2
10
281.877
20
-128.232
0
TEXT
8
2
10
281.877
20
-128.232
40
10.00
1
#340
0
POINT
8
4
10
168.151
20
-133.693
30
10
50
272.751384777506
0
POINT
8
2
10
168.151
20
-133.693
0
TEXT
8
2
10
168.151
20
-133.693
40
10.00
1
#341
0
POINT
8
4
10
63.272
20
-138.729
30
10
50
272.751384777506
0
POINT
8
2
10
63.272
20
-138.729
0
TEXT
8
2
10
63.272
20
-138.729
40
10.00
1
#342
0
POINT
8
2
10
-49.858
20
-144.162
0
TEXT
8
2
10
-49.858
20
-144.162
40
10.00
1
#343
0
POINT
8
2
10
-52.194
20
-160.518
0
TEXT
8
2
10
-52.194
20
-160.518
40
10.00
1
#344
0
POINT
8
3
10
-44.382
20
-163.209
0
POINT
8
3
10
-39.525
20
-165.178
0
POINT
8
3
10
-36.289
20
-166.917
0
POINT
8
3
10
-33.625
20
-168.745
0
POINT
8
3
10
-31.328
20
-170.769
0
POINT
8
3
10
-29.48
20
-172.908
0
POINT
8
3
10
-28.007
20
-175.203
0
POINT
8
3
10
-26.873
20
-177.702
0
POINT
8
3
10
-26.092
20
-180.31
0
POINT
8
3
10
-25.581
20
-183.384
0
POINT
8
4
10
-25.417
20
-186.622
30
10
50
0
0
POINT
8
2
10
-25.417
20
-186.622
0
TEXT
8
2
10
-25.417
20
-186.622
40
10.00
1
#345
0
POINT
8
3
10
-25.482
20
-188.486
0
POINT
8
3
10
-25.855
20
-191.257
0
POINT
8
3
10
-26.482
20
-193.579
0
POINT
8
3
10
-27.395
20
-195.728
0
POINT
8
3
10
-28.571
20
-197.674
0
POINT
8
3
10
-30.137
20
-199.593
0
POINT
8
3
10
-32.063
20
-201.392
0
POINT
8
3
10
-34.531
20
-203.181
0
POINT
8
3
10
-37.533
20
-204.88
0
POINT
8
3
10
-40.969
20
-206.405
0
POINT
8
3
10
-45.38
20
-207.916
0
POINT
8
3
10
-50.512
20
-209.228
0
POINT
8
3
10
-56.282
20
-210.287
0
POINT
8
3
10
-62.565
20
-211.062
0
POINT
8
3
10
-69.94
20
-211.583
0
POINT
8
4
10
-77.658
20
-211.774
30
10
50
270.252099802982
0
POINT
8
2
10
-77.658
20
-211.774
0
TEXT
8
2
10
-77.658
20
-211.774
40
10.00
1
#346
0
POINT
8
3
10
-85.319
20
-211.672
0
POINT
8
3
10
-95.579
20
-211.161
0
POINT
8
2
10
-115.096
20
-209.343
0
TEXT
8
2
10
-115.096
20
-209.343
40
10.00
1
#347
0
POINT
8
2
10
-119.915
20
-225.058
0
TEXT
8
2
10
-119.915
20
-225.058
40
10.00
1
#336
0
POLYLINE
8
8
66
1
70
1
0
VERTEX
8
8
10
154.582
20
-190.622
0
VERTEX
8
8
10
154.582
20
-182.622
0
VERTEX
8
8
10
94.582
20
-182.622
0
VERTEX
8
8
10
94.582
20
-190.622
0
VERTEX
8
8
10
154.582
20
-190.622
0
SEQEND
8
8
0
POINT
8
2
10
154.582
20
-190.622
0
TEXT
8
2
10
154.582
20
-190.622
40
10.00
1
#348
0
POINT
8
2
10
154.582
20
-182.622
0
TEXT
8
2
10
154.582
20
-182.622
40
10.00
1
#349
0
POINT
8
2
10
94.582
20
-182.622
0
TEXT
8
2
10
94.582
20
-182.622
40
10.00
1
#350
0
POINT
8
2
10
94.582
20
-190.622
0
TEXT
8
2
10
94.582
20
-190.622
40
10.00
1
#351
0
LINE
8
7
10
145.27
20
-200.958
11
18.662
21
-200.958
0
POINT
8
2
10
145.27
20
-200.958
0
TEXT
8
2
10
145.27
20
-200.958
40
10.00
1
#1
0
POINT
8
2
10
18.662
20
-200.958
0
TEXT
8
2
10
18.662
20
-200.958
40
10.00
1
#1
0
TEXT
8
1
10
18.662
20
-189.958
40
10.00
1
PIECE NAME: 13
0
TEXT
8
1
10
18.662
20
-178.958
40
10.00
1
SIZE: 1
0
TEXT
8
1
10
18.662
20
-167.958
40
10.00
1
ANNOTATION: 
0
TEXT
8
1
10
18.662
20
-156.958
40
10.00
1
QUANTITY: 1
0
TEXT
8
1
10
18.662
20
-145.958
40
10.00
1
MATERIAL: ÇÝZÝM
0
ENDBLK
0
ENDSEC
0
SECTION
2
ENTITIES
0
INSERT
8
1
2
0
10
0
20
0
0
INSERT
8
1
2
1
10
0
20
0
0
INSERT
8
1
2
2
10
0
20
0
0
INSERT
8
1
2
3
10
0
20
0
0
INSERT
8
1
2
4
10
0
20
0
0
INSERT
8
1
2
5
10
0
20
0
0
INSERT
8
1
2
6
10
0
20
0
0
INSERT
8
1
2
7
10
0
20
0
0
INSERT
8
1
2
8
10
0
20
0
0
INSERT
8
1
2
9
10
0
20
0
0
INSERT
8
1
2
10
10
0
20
0
0
INSERT
8
1
2
11
10
0
20
0
0
INSERT
8
1
2
12
10
0
20
0
0
INSERT
8
1
2
13
10
0
20
0
0
INSERT
8
1
2
14
10
0
20
0
0
INSERT
8
1
2
15
10
0
20
0
0
TEXT
8
1
10
-119.915
20
-1404.629
40
10.00
1
STYLE NAME: 262-4060 KB-ÇÝN
0
TEXT
8
1
10
-119.915
20
-1415.629
40
10.00
1
CREATION DATE: 23-02-2026
0
TEXT
8
1
10
-119.915
20
-1426.629
40
10.00
1
CREATION TIME: 08:36:36
0
TEXT
8
1
10
-119.915
20
-1437.629
40
10.00
1
AUTHOR: GEMINI CAD SYSTEMS
0
TEXT
8
1
10
-119.915
20
-1448.629
40
10.00
1
PRODUCT: GEMINI PATTERN DESIGNER
0
TEXT
8
1
10
-119.915
20
-1459.629
40
10.00
1
SAMPLE SIZE: 1
0
TEXT
8
1
10
-119.915
20
-1470.629
40
10.00
1
GRADE RULE TABLE: 262-4060 KB-ÇÝN
0
TEXT
8
1
10
-119.915
20
-1481.629
40
10.00
1
UNITS: METRIC
0
ENDSEC
0
EOF
