0
SECTION
2
HEADER
9
$LUNITS
70
2
9
$INSUNITS
70
4
0
ENDSEC
0
SECTION
2
BLOCKS
0
BLOCK
8
0
2
0
70
0
10
0.0000
20
0.0000
0
POLYLINE
8
1
66
1
70
1
0
VERTEX
8
1
10
863.342
20
-1611.682
0
VERTEX
8
1
10
1463.342
20
-1611.682
0
VERTEX
8
1
10
1463.342
20
-1571.682
0
VERTEX
8
1
10
863.342
20
-1571.682
0
VERTEX
8
1
10
863.342
20
-1611.682
0
SEQEND
8
1
0
POINT
8
2
10
863.342
20
-1611.682
0
TEXT
8
2
10
863.342
20
-1611.682
40
10.00
1
#152
0
POINT
8
2
10
1463.342
20
-1611.682
0
TEXT
8
2
10
1463.342
20
-1611.682
40
10.00
1
#153
0
POINT
8
2
10
1463.342
20
-1571.682
0
TEXT
8
2
10
1463.342
20
-1571.682
40
10.00
1
#154
0
POINT
8
2
10
863.342
20
-1571.682
0
TEXT
8
2
10
863.342
20
-1571.682
40
10.00
1
#155
0
POINT
8
2
10
863.342
20
-1611.682
0
TEXT
8
2
10
863.342
20
-1611.682
40
10.00
1
#152
0
LINE
8
7
10
1158.468
20
-1591.682
11
1108.468
21
-1591.682
0
POINT
8
2
10
1158.468
20
-1591.682
0
TEXT
8
2
10
1158.468
20
-1591.682
40
10.00
1
#1
0
POINT
8
2
10
1108.468
20
-1591.682
0
TEXT
8
2
10
1108.468
20
-1591.682
40
10.00
1
#1
0
TEXT
8
1
10
1108.468
20
-1580.682
40
10.00
1
PIECE NAME: KPR
0
TEXT
8
1
10
1108.468
20
-1569.682
40
10.00
1
SIZE: 1
0
TEXT
8
1
10
1108.468
20
-1558.682
40
10.00
1
ANNOTATION: 
0
TEXT
8
1
10
1108.468
20
-1547.682
40
10.00
1
QUANTITY: 1
0
TEXT
8
1
10
1108.468
20
-1536.682
40
10.00
1
MATERIAL: KUMAS
0
ENDBLK
0
BLOCK
8
0
2
1
70
0
10
0.0000
20
0.0000
0
POLYLINE
8
1
66
1
70
1
0
VERTEX
8
1
10
17.935
20
-528.617
0
VERTEX
8
1
10
202.934
20
-528.617
0
VERTEX
8
1
10
202.935
20
-363.617
0
VERTEX
8
1
10
17.935
20
-363.617
0
VERTEX
8
1
10
17.935
20
-528.617
0
SEQEND
8
1
0
POINT
8
2
10
17.935
20
-528.617
0
TEXT
8
2
10
17.935
20
-528.617
40
10.00
1
#156
0
POINT
8
2
10
202.934
20
-528.617
0
TEXT
8
2
10
202.934
20
-528.617
40
10.00
1
#157
0
POINT
8
2
10
202.935
20
-363.617
0
TEXT
8
2
10
202.935
20
-363.617
40
10.00
1
#158
0
POINT
8
2
10
17.935
20
-363.617
0
TEXT
8
2
10
17.935
20
-363.617
40
10.00
1
#159
0
POINT
8
2
10
17.935
20
-528.617
0
TEXT
8
2
10
17.935
20
-528.617
40
10.00
1
#156
0
LINE
8
7
10
131.268
20
-453.617
11
54.601
21
-453.617
0
POINT
8
2
10
131.268
20
-453.617
0
TEXT
8
2
10
131.268
20
-453.617
40
10.00
1
#1
0
POINT
8
2
10
54.601
20
-453.617
0
TEXT
8
2
10
54.601
20
-453.617
40
10.00
1
#1
0
TEXT
8
1
10
54.601
20
-442.617
40
10.00
1
PIECE NAME: CEPCZ
0
TEXT
8
1
10
54.601
20
-431.617
40
10.00
1
SIZE: 1
0
TEXT
8
1
10
54.601
20
-420.617
40
10.00
1
ANNOTATION: 
0
TEXT
8
1
10
54.601
20
-409.617
40
10.00
1
QUANTITY: 1
0
TEXT
8
1
10
54.601
20
-398.617
40
10.00
1
MATERIAL: ÇÝZÝM
0
ENDBLK
0
BLOCK
8
0
2
2
70
0
10
0.0000
20
0.0000
0
POLYLINE
8
1
66
1
70
1
0
VERTEX
8
1
10
17.935
20
-528.617
0
VERTEX
8
1
10
202.935
20
-528.617
0
VERTEX
8
1
10
202.934
20
-363.617
0
VERTEX
8
1
10
17.935
20
-363.617
0
VERTEX
8
1
10
17.935
20
-528.617
0
SEQEND
8
1
0
POINT
8
2
10
17.935
20
-528.617
0
TEXT
8
2
10
17.935
20
-528.617
40
10.00
1
#6
0
POINT
8
2
10
202.935
20
-528.617
0
TEXT
8
2
10
202.935
20
-528.617
40
10.00
1
#7
0
POINT
8
2
10
202.934
20
-363.617
0
TEXT
8
2
10
202.934
20
-363.617
40
10.00
1
#8
0
POINT
8
2
10
17.935
20
-363.617
0
TEXT
8
2
10
17.935
20
-363.617
40
10.00
1
#9
0
POINT
8
2
10
17.935
20
-528.617
0
TEXT
8
2
10
17.935
20
-528.617
40
10.00
1
#6
0
LINE
8
7
10
131.268
20
-438.617
11
54.601
21
-438.617
0
POINT
8
2
10
131.268
20
-438.617
0
TEXT
8
2
10
131.268
20
-438.617
40
10.00
1
#1
0
POINT
8
2
10
54.601
20
-438.617
0
TEXT
8
2
10
54.601
20
-438.617
40
10.00
1
#1
0
TEXT
8
1
10
54.601
20
-427.617
40
10.00
1
PIECE NAME: CEPCZFY1
0
TEXT
8
1
10
54.601
20
-416.617
40
10.00
1
SIZE: 1
0
TEXT
8
1
10
54.601
20
-405.617
40
10.00
1
ANNOTATION: 
0
TEXT
8
1
10
54.601
20
-394.617
40
10.00
1
QUANTITY: 1
0
TEXT
8
1
10
54.601
20
-383.617
40
10.00
1
MATERIAL: ÇÝZÝM
0
ENDBLK
0
BLOCK
8
0
2
3
70
0
10
0.0000
20
0.0000
0
POLYLINE
8
1
66
1
70
1
0
VERTEX
8
1
10
1125.424
20
-92.692
0
VERTEX
8
1
10
1219.191
20
-92.695
0
VERTEX
8
1
10
1831.34
20
-92.699
0
VERTEX
8
1
10
1831.34
20
-32.701
0
VERTEX
8
1
10
1125.424
20
-32.681
0
VERTEX
8
1
10
1125.424
20
-62.692
0
VERTEX
8
1
10
1125.424
20
-92.692
0
SEQEND
8
1
0
POINT
8
2
10
1125.424
20
-92.692
0
TEXT
8
2
10
1125.424
20
-92.692
40
10.00
1
#160
0
POINT
8
4
10
1219.191
20
-92.695
30
10
50
90
0
POINT
8
2
10
1219.191
20
-92.695
0
TEXT
8
2
10
1219.191
20
-92.695
40
10.00
1
#161
0
POINT
8
2
10
1831.34
20
-92.699
0
TEXT
8
2
10
1831.34
20
-92.699
40
10.00
1
#162
0
POINT
8
2
10
1831.34
20
-32.701
0
TEXT
8
2
10
1831.34
20
-32.701
40
10.00
1
#163
0
POINT
8
2
10
1125.424
20
-32.681
0
TEXT
8
2
10
1125.424
20
-32.681
40
10.00
1
#164
0
POINT
8
4
10
1125.424
20
-62.692
30
10
50
0
0
POINT
8
2
10
1125.424
20
-62.692
0
TEXT
8
2
10
1125.424
20
-62.692
40
10.00
1
#165
0
POINT
8
2
10
1125.424
20
-92.692
0
TEXT
8
2
10
1125.424
20
-92.692
40
10.00
1
#160
0
LINE
8
7
10
1591.481
20
-66.291
11
1491.481
21
-66.291
0
POINT
8
2
10
1591.481
20
-66.291
0
TEXT
8
2
10
1591.481
20
-66.291
40
10.00
1
#1
0
POINT
8
2
10
1491.481
20
-66.291
0
TEXT
8
2
10
1491.481
20
-66.291
40
10.00
1
#1
0
TEXT
8
1
10
1491.481
20
-55.291
40
10.00
1
PIECE NAME: ON1
0
TEXT
8
1
10
1491.481
20
-44.291
40
10.00
1
SIZE: 1
0
TEXT
8
1
10
1491.481
20
-33.291
40
10.00
1
ANNOTATION: 
0
TEXT
8
1
10
1491.481
20
-22.291
40
10.00
1
QUANTITY: 1
0
TEXT
8
1
10
1491.481
20
-11.291
40
10.00
1
MATERIAL: KUMAS
0
ENDBLK
0
BLOCK
8
0
2
4
70
0
10
0.0000
20
0.0000
0
POLYLINE
8
1
66
1
70
1
0
VERTEX
8
1
10
1125.424
20
-62.688
0
VERTEX
8
1
10
1125.424
20
-92.699
0
VERTEX
8
1
10
1831.34
20
-92.679
0
VERTEX
8
1
10
1831.34
20
-32.681
0
VERTEX
8
1
10
1219.191
20
-32.685
0
VERTEX
8
1
10
1125.424
20
-32.688
0
VERTEX
8
1
10
1125.424
20
-62.688
0
SEQEND
8
1
0
POINT
8
4
10
1125.424
20
-62.688
30
10
50
0
0
POINT
8
2
10
1125.424
20
-62.688
0
TEXT
8
2
10
1125.424
20
-62.688
40
10.00
1
#10
0
POINT
8
2
10
1125.424
20
-92.699
0
TEXT
8
2
10
1125.424
20
-92.699
40
10.00
1
#11
0
POINT
8
2
10
1831.34
20
-92.679
0
TEXT
8
2
10
1831.34
20
-92.679
40
10.00
1
#12
0
POINT
8
2
10
1831.34
20
-32.681
0
TEXT
8
2
10
1831.34
20
-32.681
40
10.00
1
#13
0
POINT
8
4
10
1219.191
20
-32.685
30
10
50
270
0
POINT
8
2
10
1219.191
20
-32.685
0
TEXT
8
2
10
1219.191
20
-32.685
40
10.00
1
#14
0
POINT
8
2
10
1125.424
20
-32.688
0
TEXT
8
2
10
1125.424
20
-32.688
40
10.00
1
#15
0
POINT
8
2
10
1125.424
20
-62.688
0
TEXT
8
2
10
1125.424
20
-62.688
40
10.00
1
#10
0
LINE
8
7
10
1591.481
20
-59.089
11
1491.481
21
-59.089
0
POINT
8
2
10
1591.481
20
-59.089
0
TEXT
8
2
10
1591.481
20
-59.089
40
10.00
1
#1
0
POINT
8
2
10
1491.481
20
-59.089
0
TEXT
8
2
10
1491.481
20
-59.089
40
10.00
1
#1
0
TEXT
8
1
10
1491.481
20
-48.089
40
10.00
1
PIECE NAME: ON1FY1
0
TEXT
8
1
10
1491.481
20
-37.089
40
10.00
1
SIZE: 1
0
TEXT
8
1
10
1491.481
20
-26.089
40
10.00
1
ANNOTATION: 
0
TEXT
8
1
10
1491.481
20
-15.089
40
10.00
1
QUANTITY: 1
0
TEXT
8
1
10
1491.481
20
-4.089
40
10.00
1
MATERIAL: KUMAS
0
ENDBLK
0
BLOCK
8
0
2
5
70
0
10
0.0000
20
0.0000
0
POLYLINE
8
1
66
1
70
1
0
VERTEX
8
1
10
1124.468
20
-111.367
0
VERTEX
8
1
10
1125.021
20
-117.464
0
VERTEX
8
1
10
1124.673
20
-127.151
0
VERTEX
8
1
10
1122.792
20
-136.173
0
VERTEX
8
1
10
1119.403
20
-144.654
0
VERTEX
8
1
10
1114.435
20
-152.711
0
VERTEX
8
1
10
1107.746
20
-160.405
0
VERTEX
8
1
10
1099.126
20
-167.756
0
VERTEX
8
1
10
1088.313
20
-174.745
0
VERTEX
8
1
10
1075.039
20
-181.282
0
VERTEX
8
1
10
1059.047
20
-187.249
0
VERTEX
8
1
10
1040.235
20
-192.443
0
VERTEX
8
1
10
1054.279
20
-240.711
0
VERTEX
8
1
10
1068.787
20
-285.091
0
VERTEX
8
1
10
1083.826
20
-326.12
0
VERTEX
8
1
10
1099.5
20
-364.349
0
VERTEX
8
1
10
1111.563
20
-391.253
0
VERTEX
8
1
10
1138.199
20
-380.105
0
VERTEX
8
1
10
1168.111
20
-368.889
0
VERTEX
8
1
10
1193.611
20
-360.908
0
VERTEX
8
1
10
1216.489
20
-355.327
0
VERTEX
8
1
10
1237.528
20
-351.762
0
VERTEX
8
1
10
1257.208
20
-349.988
0
VERTEX
8
1
10
1275.786
20
-349.872
0
VERTEX
8
1
10
1293.478
20
-351.322
0
VERTEX
8
1
10
1298.681
20
-352.363
0
VERTEX
8
1
10
1305.444
20
-355.05
0
VERTEX
8
1
10
1311.088
20
-358.952
0
VERTEX
8
1
10
1315.436
20
-363.841
0
VERTEX
8
1
10
1318.396
20
-369.533
0
VERTEX
8
1
10
1319.896
20
-375.896
0
VERTEX
8
1
10
1319.852
20
-382.858
0
VERTEX
8
1
10
1423.34
20
-388.842
0
VERTEX
8
1
10
1448.298
20
-390.284
0
VERTEX
8
1
10
1473.255
20
-391.728
0
VERTEX
8
1
10
1716.358
20
-405.784
0
VERTEX
8
1
10
1724.565
20
-401.235
0
VERTEX
8
1
10
1758.246
20
-384.904
0
VERTEX
8
1
10
1779.732
20
-373.889
0
VERTEX
8
1
10
1793.997
20
-365.017
0
VERTEX
8
1
10
1804.795
20
-356.584
0
VERTEX
8
1
10
1813.188
20
-348.135
0
VERTEX
8
1
10
1819.68
20
-339.432
0
VERTEX
8
1
10
1824.557
20
-330.279
0
VERTEX
8
1
10
1827.953
20
-320.514
0
VERTEX
8
1
10
1829.916
20
-309.904
0
VERTEX
8
1
10
1830.384
20
-298.262
0
VERTEX
8
1
10
1830.384
20
-161.374
0
VERTEX
8
1
10
1830.384
20
-111.374
0
VERTEX
8
1
10
1218.235
20
-111.369
0
VERTEX
8
1
10
1124.468
20
-111.367
0
SEQEND
8
1
0
POINT
8
2
10
1124.468
20
-111.367
0
TEXT
8
2
10
1124.468
20
-111.367
40
10.00
1
#168
0
POINT
8
3
10
1125.021
20
-117.464
0
POINT
8
3
10
1124.673
20
-127.151
0
POINT
8
3
10
1122.792
20
-136.173
0
POINT
8
3
10
1119.403
20
-144.654
0
POINT
8
3
10
1114.435
20
-152.711
0
POINT
8
3
10
1107.746
20
-160.405
0
POINT
8
3
10
1099.126
20
-167.756
0
POINT
8
3
10
1088.313
20
-174.745
0
POINT
8
3
10
1075.039
20
-181.282
0
POINT
8
3
10
1059.047
20
-187.249
0
POINT
8
2
10
1040.235
20
-192.443
0
TEXT
8
2
10
1040.235
20
-192.443
40
10.00
1
#169
0
POINT
8
3
10
1054.279
20
-240.711
0
POINT
8
3
10
1068.787
20
-285.091
0
POINT
8
3
10
1083.826
20
-326.12
0
POINT
8
3
10
1099.5
20
-364.349
0
POINT
8
2
10
1111.563
20
-391.253
0
TEXT
8
2
10
1111.563
20
-391.253
40
10.00
1
#170
0
POINT
8
3
10
1138.199
20
-380.105
0
POINT
8
3
10
1168.111
20
-368.889
0
POINT
8
3
10
1193.611
20
-360.908
0
POINT
8
3
10
1216.489
20
-355.327
0
POINT
8
3
10
1237.528
20
-351.762
0
POINT
8
3
10
1257.208
20
-349.988
0
POINT
8
3
10
1275.786
20
-349.872
0
POINT
8
4
10
1293.478
20
-351.322
30
10
50
77.9180490423418
0
POINT
8
2
10
1293.478
20
-351.322
0
TEXT
8
2
10
1293.478
20
-351.322
40
10.00
1
#171
0
POINT
8
3
10
1298.681
20
-352.363
0
POINT
8
3
10
1305.444
20
-355.05
0
POINT
8
3
10
1311.088
20
-358.952
0
POINT
8
3
10
1315.436
20
-363.841
0
POINT
8
3
10
1318.396
20
-369.533
0
POINT
8
3
10
1319.896
20
-375.896
0
POINT
8
2
10
1319.852
20
-382.858
0
TEXT
8
2
10
1319.852
20
-382.858
40
10.00
1
#172
0
POINT
8
4
10
1423.34
20
-388.842
30
10
50
86.6924146360958
0
POINT
8
2
10
1423.34
20
-388.842
0
TEXT
8
2
10
1423.34
20
-388.842
40
10.00
1
#173
0
POINT
8
2
10
1448.298
20
-390.284
0
TEXT
8
2
10
1448.298
20
-390.284
40
10.00
1
#174
0
POINT
8
4
10
1473.255
20
-391.728
30
10
50
86.686695012623
0
POINT
8
2
10
1473.255
20
-391.728
0
TEXT
8
2
10
1473.255
20
-391.728
40
10.00
1
#175
0
POINT
8
4
10
1716.358
20
-405.784
30
10
50
104.423943948247
0
POINT
8
2
10
1716.358
20
-405.784
0
TEXT
8
2
10
1716.358
20
-405.784
40
10.00
1
#176
0
POINT
8
3
10
1724.565
20
-401.235
0
POINT
8
3
10
1758.246
20
-384.904
0
POINT
8
3
10
1779.732
20
-373.889
0
POINT
8
3
10
1793.997
20
-365.017
0
POINT
8
3
10
1804.795
20
-356.584
0
POINT
8
3
10
1813.188
20
-348.135
0
POINT
8
3
10
1819.68
20
-339.432
0
POINT
8
3
10
1824.557
20
-330.279
0
POINT
8
3
10
1827.953
20
-320.514
0
POINT
8
3
10
1829.916
20
-309.904
0
POINT
8
4
10
1830.384
20
-298.262
30
10
50
180
0
POINT
8
2
10
1830.384
20
-298.262
0
TEXT
8
2
10
1830.384
20
-298.262
40
10.00
1
#177
0
POINT
8
2
10
1830.384
20
-161.374
0
TEXT
8
2
10
1830.384
20
-161.374
40
10.00
1
#178
0
POINT
8
2
10
1830.384
20
-111.374
0
TEXT
8
2
10
1830.384
20
-111.374
40
10.00
1
#179
0
POINT
8
4
10
1218.235
20
-111.369
30
10
50
270
0
POINT
8
2
10
1218.235
20
-111.369
0
TEXT
8
2
10
1218.235
20
-111.369
40
10.00
1
#180
0
POINT
8
2
10
1124.468
20
-111.367
0
TEXT
8
2
10
1124.468
20
-111.367
40
10.00
1
#168
0
LINE
8
7
10
1502.762
20
-211.079
11
1302.762
21
-211.079
0
POINT
8
2
10
1502.762
20
-211.079
0
TEXT
8
2
10
1502.762
20
-211.079
40
10.00
1
#1
0
POINT
8
2
10
1302.762
20
-211.079
0
TEXT
8
2
10
1302.762
20
-211.079
40
10.00
1
#1
0
TEXT
8
1
10
1302.762
20
-200.079
40
10.00
1
PIECE NAME: ON2
0
TEXT
8
1
10
1302.762
20
-189.079
40
10.00
1
SIZE: 1
0
TEXT
8
1
10
1302.762
20
-178.079
40
10.00
1
ANNOTATION: 
0
TEXT
8
1
10
1302.762
20
-167.079
40
10.00
1
QUANTITY: 1
0
TEXT
8
1
10
1302.762
20
-156.079
40
10.00
1
MATERIAL: KUMAS
0
ENDBLK
0
BLOCK
8
0
2
6
70
0
10
0.0000
20
0.0000
0
POLYLINE
8
1
66
1
70
1
0
VERTEX
8
1
10
1218.235
20
-405.783
0
VERTEX
8
1
10
1830.384
20
-405.778
0
VERTEX
8
1
10
1830.384
20
-355.778
0
VERTEX
8
1
10
1830.384
20
-218.89
0
VERTEX
8
1
10
1829.916
20
-207.248
0
VERTEX
8
1
10
1827.953
20
-196.638
0
VERTEX
8
1
10
1824.557
20
-186.873
0
VERTEX
8
1
10
1819.68
20
-177.72
0
VERTEX
8
1
10
1813.188
20
-169.017
0
VERTEX
8
1
10
1804.795
20
-160.568
0
VERTEX
8
1
10
1793.997
20
-152.135
0
VERTEX
8
1
10
1779.732
20
-143.263
0
VERTEX
8
1
10
1758.246
20
-132.248
0
VERTEX
8
1
10
1724.565
20
-115.917
0
VERTEX
8
1
10
1716.358
20
-111.368
0
VERTEX
8
1
10
1473.255
20
-125.424
0
VERTEX
8
1
10
1448.298
20
-126.868
0
VERTEX
8
1
10
1423.34
20
-128.31
0
VERTEX
8
1
10
1319.852
20
-134.294
0
VERTEX
8
1
10
1319.896
20
-141.256
0
VERTEX
8
1
10
1318.396
20
-147.619
0
VERTEX
8
1
10
1315.436
20
-153.311
0
VERTEX
8
1
10
1311.088
20
-158.2
0
VERTEX
8
1
10
1305.444
20
-162.102
0
VERTEX
8
1
10
1298.681
20
-164.789
0
VERTEX
8
1
10
1293.478
20
-165.83
0
VERTEX
8
1
10
1275.786
20
-167.28
0
VERTEX
8
1
10
1257.208
20
-167.164
0
VERTEX
8
1
10
1237.528
20
-165.39
0
VERTEX
8
1
10
1216.489
20
-161.825
0
VERTEX
8
1
10
1193.611
20
-156.244
0
VERTEX
8
1
10
1168.111
20
-148.263
0
VERTEX
8
1
10
1138.199
20
-137.047
0
VERTEX
8
1
10
1111.563
20
-125.899
0
VERTEX
8
1
10
1099.5
20
-152.803
0
VERTEX
8
1
10
1083.826
20
-191.032
0
VERTEX
8
1
10
1068.787
20
-232.061
0
VERTEX
8
1
10
1054.279
20
-276.441
0
VERTEX
8
1
10
1040.235
20
-324.709
0
VERTEX
8
1
10
1059.047
20
-329.903
0
VERTEX
8
1
10
1075.039
20
-335.87
0
VERTEX
8
1
10
1088.313
20
-342.407
0
VERTEX
8
1
10
1099.126
20
-349.396
0
VERTEX
8
1
10
1107.746
20
-356.747
0
VERTEX
8
1
10
1114.435
20
-364.441
0
VERTEX
8
1
10
1119.403
20
-372.498
0
VERTEX
8
1
10
1122.792
20
-380.979
0
VERTEX
8
1
10
1124.673
20
-390.001
0
VERTEX
8
1
10
1125.021
20
-399.688
0
VERTEX
8
1
10
1124.468
20
-405.785
0
VERTEX
8
1
10
1218.235
20
-405.783
0
SEQEND
8
1
0
POINT
8
4
10
1218.235
20
-405.783
30
10
50
90
0
POINT
8
2
10
1218.235
20
-405.783
0
TEXT
8
2
10
1218.235
20
-405.783
40
10.00
1
#18
0
POINT
8
2
10
1830.384
20
-405.778
0
TEXT
8
2
10
1830.384
20
-405.778
40
10.00
1
#19
0
POINT
8
2
10
1830.384
20
-355.778
0
TEXT
8
2
10
1830.384
20
-355.778
40
10.00
1
#20
0
POINT
8
4
10
1830.384
20
-218.89
30
10
50
180
0
POINT
8
2
10
1830.384
20
-218.89
0
TEXT
8
2
10
1830.384
20
-218.89
40
10.00
1
#21
0
POINT
8
3
10
1829.916
20
-207.248
0
POINT
8
3
10
1827.953
20
-196.638
0
POINT
8
3
10
1824.557
20
-186.873
0
POINT
8
3
10
1819.68
20
-177.72
0
POINT
8
3
10
1813.188
20
-169.017
0
POINT
8
3
10
1804.795
20
-160.568
0
POINT
8
3
10
1793.997
20
-152.135
0
POINT
8
3
10
1779.732
20
-143.263
0
POINT
8
3
10
1758.246
20
-132.248
0
POINT
8
3
10
1724.565
20
-115.917
0
POINT
8
4
10
1716.358
20
-111.368
30
10
50
255.576056051753
0
POINT
8
2
10
1716.358
20
-111.368
0
TEXT
8
2
10
1716.358
20
-111.368
40
10.00
1
#22
0
POINT
8
4
10
1473.255
20
-125.424
30
10
50
273.313304987377
0
POINT
8
2
10
1473.255
20
-125.424
0
TEXT
8
2
10
1473.255
20
-125.424
40
10.00
1
#23
0
POINT
8
2
10
1448.298
20
-126.868
0
TEXT
8
2
10
1448.298
20
-126.868
40
10.00
1
#24
0
POINT
8
4
10
1423.34
20
-128.31
30
10
50
273.307585363904
0
POINT
8
2
10
1423.34
20
-128.31
0
TEXT
8
2
10
1423.34
20
-128.31
40
10.00
1
#25
0
POINT
8
2
10
1319.852
20
-134.294
0
TEXT
8
2
10
1319.852
20
-134.294
40
10.00
1
#26
0
POINT
8
3
10
1319.896
20
-141.256
0
POINT
8
3
10
1318.396
20
-147.619
0
POINT
8
3
10
1315.436
20
-153.311
0
POINT
8
3
10
1311.088
20
-158.2
0
POINT
8
3
10
1305.444
20
-162.102
0
POINT
8
3
10
1298.681
20
-164.789
0
POINT
8
4
10
1293.478
20
-165.83
30
10
50
282.081950957658
0
POINT
8
2
10
1293.478
20
-165.83
0
TEXT
8
2
10
1293.478
20
-165.83
40
10.00
1
#27
0
POINT
8
3
10
1275.786
20
-167.28
0
POINT
8
3
10
1257.208
20
-167.164
0
POINT
8
3
10
1237.528
20
-165.39
0
POINT
8
3
10
1216.489
20
-161.825
0
POINT
8
3
10
1193.611
20
-156.244
0
POINT
8
3
10
1168.111
20
-148.263
0
POINT
8
3
10
1138.199
20
-137.047
0
POINT
8
2
10
1111.563
20
-125.899
0
TEXT
8
2
10
1111.563
20
-125.899
40
10.00
1
#28
0
POINT
8
3
10
1099.5
20
-152.803
0
POINT
8
3
10
1083.826
20
-191.032
0
POINT
8
3
10
1068.787
20
-232.061
0
POINT
8
3
10
1054.279
20
-276.441
0
POINT
8
2
10
1040.235
20
-324.709
0
TEXT
8
2
10
1040.235
20
-324.709
40
10.00
1
#29
0
POINT
8
3
10
1059.047
20
-329.903
0
POINT
8
3
10
1075.039
20
-335.87
0
POINT
8
3
10
1088.313
20
-342.407
0
POINT
8
3
10
1099.126
20
-349.396
0
POINT
8
3
10
1107.746
20
-356.747
0
POINT
8
3
10
1114.435
20
-364.441
0
POINT
8
3
10
1119.403
20
-372.498
0
POINT
8
3
10
1122.792
20
-380.979
0
POINT
8
3
10
1124.673
20
-390.001
0
POINT
8
3
10
1125.021
20
-399.688
0
POINT
8
2
10
1124.468
20
-405.785
0
TEXT
8
2
10
1124.468
20
-405.785
40
10.00
1
#30
0
POINT
8
2
10
1218.235
20
-405.783
0
TEXT
8
2
10
1218.235
20
-405.783
40
10.00
1
#18
0
LINE
8
7
10
1502.762
20
-306.073
11
1302.762
21
-306.073
0
POINT
8
2
10
1502.762
20
-306.073
0
TEXT
8
2
10
1502.762
20
-306.073
40
10.00
1
#1
0
POINT
8
2
10
1302.762
20
-306.073
0
TEXT
8
2
10
1302.762
20
-306.073
40
10.00
1
#1
0
TEXT
8
1
10
1302.762
20
-295.073
40
10.00
1
PIECE NAME: ON2FY1
0
TEXT
8
1
10
1302.762
20
-284.073
40
10.00
1
SIZE: 1
0
TEXT
8
1
10
1302.762
20
-273.073
40
10.00
1
ANNOTATION: 
0
TEXT
8
1
10
1302.762
20
-262.073
40
10.00
1
QUANTITY: 1
0
TEXT
8
1
10
1302.762
20
-251.073
40
10.00
1
MATERIAL: KUMAS
0
ENDBLK
0
BLOCK
8
0
2
7
70
0
10
0.0000
20
0.0000
0
POLYLINE
8
1
66
1
70
1
0
VERTEX
8
1
10
903.888
20
-595.65
0
VERTEX
8
1
10
853.887
20
-595.65
0
VERTEX
8
1
10
853.887
20
-1495.65
0
VERTEX
8
1
10
903.888
20
-1495.651
0
VERTEX
8
1
10
953.888
20
-1495.65
0
VERTEX
8
1
10
953.888
20
-595.65
0
VERTEX
8
1
10
903.888
20
-595.65
0
SEQEND
8
1
0
POINT
8
4
10
903.888
20
-595.65
30
10
50
270
0
POINT
8
2
10
903.888
20
-595.65
0
TEXT
8
2
10
903.888
20
-595.65
40
10.00
1
#187
0
POINT
8
2
10
853.887
20
-595.65
0
TEXT
8
2
10
853.887
20
-595.65
40
10.00
1
#188
0
POINT
8
2
10
853.887
20
-1495.65
0
TEXT
8
2
10
853.887
20
-1495.65
40
10.00
1
#189
0
POINT
8
4
10
903.888
20
-1495.651
30
10
50
90
0
POINT
8
2
10
903.888
20
-1495.651
0
TEXT
8
2
10
903.888
20
-1495.651
40
10.00
1
#190
0
POINT
8
2
10
953.888
20
-1495.65
0
TEXT
8
2
10
953.888
20
-1495.65
40
10.00
1
#191
0
POINT
8
2
10
953.888
20
-595.65
0
TEXT
8
2
10
953.888
20
-595.65
40
10.00
1
#192
0
POINT
8
2
10
903.888
20
-595.65
0
TEXT
8
2
10
903.888
20
-595.65
40
10.00
1
#187
0
LINE
8
7
10
920.555
20
-1095.65
11
887.22
21
-1095.65
0
POINT
8
2
10
920.555
20
-1095.65
0
TEXT
8
2
10
920.555
20
-1095.65
40
10.00
1
#1
0
POINT
8
2
10
887.22
20
-1095.65
0
TEXT
8
2
10
887.22
20
-1095.65
40
10.00
1
#1
0
TEXT
8
1
10
887.22
20
-1084.65
40
10.00
1
PIECE NAME: KUSAK
0
TEXT
8
1
10
887.22
20
-1073.65
40
10.00
1
SIZE: 1
0
TEXT
8
1
10
887.22
20
-1062.65
40
10.00
1
ANNOTATION: 
0
TEXT
8
1
10
887.22
20
-1051.65
40
10.00
1
QUANTITY: 1
0
TEXT
8
1
10
887.22
20
-1040.65
40
10.00
1
MATERIAL: KUMAS
0
ENDBLK
0
BLOCK
8
0
2
8
70
0
10
0.0000
20
0.0000
0
POLYLINE
8
1
66
1
70
1
0
VERTEX
8
1
10
1206.064
20
-659.853
0
VERTEX
8
1
10
1206.092
20
-666.195
0
VERTEX
8
1
10
1207.275
20
-683.425
0
VERTEX
8
1
10
1210.137
20
-701.276
0
VERTEX
8
1
10
1214.864
20
-720.252
0
VERTEX
8
1
10
1221.821
20
-741.137
0
VERTEX
8
1
10
1231.945
20
-765.873
0
VERTEX
8
1
10
1251.464
20
-807.377
0
VERTEX
8
1
10
1268.335
20
-843.674
0
VERTEX
8
1
10
1278.066
20
-867.902
0
VERTEX
8
1
10
1284.81
20
-888.671
0
VERTEX
8
1
10
1289.377
20
-907.659
0
VERTEX
8
1
10
1295.778
20
-906.347
0
VERTEX
8
1
10
1403.219
20
-882.859
0
VERTEX
8
1
10
1469.467
20
-868.973
0
VERTEX
8
1
10
1518.161
20
-860.224
0
VERTEX
8
1
10
1541.721
20
-856.564
0
VERTEX
8
1
10
1614.227
20
-846.093
0
VERTEX
8
1
10
1668.529
20
-839.699
0
VERTEX
8
1
10
1715.307
20
-835.699
0
VERTEX
8
1
10
1750.064
20
-834.853
0
VERTEX
8
1
10
1750.064
20
-498.853
0
VERTEX
8
1
10
1719.786
20
-498.081
0
VERTEX
8
1
10
1710.953
20
-497.409
0
VERTEX
8
1
10
1657.163
20
-492.344
0
VERTEX
8
1
10
1595.715
20
-484.825
0
VERTEX
8
1
10
1518.161
20
-473.481
0
VERTEX
8
1
10
1505.476
20
-471.363
0
VERTEX
8
1
10
1453.835
20
-461.613
0
VERTEX
8
1
10
1371.832
20
-443.884
0
VERTEX
8
1
10
1289.296
20
-426.03
0
VERTEX
8
1
10
1288.867
20
-428.42
0
VERTEX
8
1
10
1284.819
20
-445.812
0
VERTEX
8
1
10
1279.082
20
-463.303
0
VERTEX
8
1
10
1271.64
20
-480.78
0
VERTEX
8
1
10
1239.72
20
-541.967
0
VERTEX
8
1
10
1227.343
20
-568.133
0
VERTEX
8
1
10
1218.809
20
-589.573
0
VERTEX
8
1
10
1212.803
20
-608.723
0
VERTEX
8
1
10
1208.817
20
-626.528
0
VERTEX
8
1
10
1206.615
20
-643.464
0
VERTEX
8
1
10
1206.064
20
-659.853
0
SEQEND
8
1
0
POINT
8
4
10
1206.064
20
-659.853
30
10
50
0
0
POINT
8
2
10
1206.064
20
-659.853
0
TEXT
8
2
10
1206.064
20
-659.853
40
10.00
1
#195
0
POINT
8
3
10
1206.092
20
-666.195
0
POINT
8
3
10
1207.275
20
-683.425
0
POINT
8
3
10
1210.137
20
-701.276
0
POINT
8
3
10
1214.864
20
-720.252
0
POINT
8
3
10
1221.821
20
-741.137
0
POINT
8
3
10
1231.945
20
-765.873
0
POINT
8
3
10
1251.464
20
-807.377
0
POINT
8
3
10
1268.335
20
-843.674
0
POINT
8
3
10
1278.066
20
-867.902
0
POINT
8
3
10
1284.81
20
-888.671
0
POINT
8
2
10
1289.377
20
-907.659
0
TEXT
8
2
10
1289.377
20
-907.659
40
10.00
1
#196
0
POINT
8
3
10
1295.778
20
-906.347
0
POINT
8
3
10
1403.219
20
-882.859
0
POINT
8
3
10
1469.467
20
-868.973
0
POINT
8
4
10
1518.161
20
-860.224
30
10
50
99.1900838168058
0
POINT
8
2
10
1518.161
20
-860.224
0
TEXT
8
2
10
1518.161
20
-860.224
40
10.00
1
#197
0
POINT
8
3
10
1541.721
20
-856.564
0
POINT
8
3
10
1614.227
20
-846.093
0
POINT
8
3
10
1668.529
20
-839.699
0
POINT
8
3
10
1715.307
20
-835.699
0
POINT
8
2
10
1750.064
20
-834.853
0
TEXT
8
2
10
1750.064
20
-834.853
40
10.00
1
#198
0
POINT
8
2
10
1750.064
20
-498.853
0
TEXT
8
2
10
1750.064
20
-498.853
40
10.00
1
#199
0
POINT
8
3
10
1719.786
20
-498.081
0
POINT
8
3
10
1710.953
20
-497.409
0
POINT
8
3
10
1657.163
20
-492.344
0
POINT
8
3
10
1595.715
20
-484.825
0
POINT
8
4
10
1518.161
20
-473.481
30
10
50
260.809916183194
0
POINT
8
2
10
1518.161
20
-473.481
0
TEXT
8
2
10
1518.161
20
-473.481
40
10.00
1
#200
0
POINT
8
3
10
1505.476
20
-471.363
0
POINT
8
3
10
1453.835
20
-461.613
0
POINT
8
3
10
1371.832
20
-443.884
0
POINT
8
2
10
1289.296
20
-426.03
0
TEXT
8
2
10
1289.296
20
-426.03
40
10.00
1
#201
0
POINT
8
3
10
1288.867
20
-428.42
0
POINT
8
3
10
1284.819
20
-445.812
0
POINT
8
3
10
1279.082
20
-463.303
0
POINT
8
4
10
1271.64
20
-480.78
30
10
50
335.134021172399
0
POINT
8
2
10
1271.64
20
-480.78
0
TEXT
8
2
10
1271.64
20
-480.78
40
10.00
1
#202
0
POINT
8
3
10
1239.72
20
-541.967
0
POINT
8
3
10
1227.343
20
-568.133
0
POINT
8
3
10
1218.809
20
-589.573
0
POINT
8
3
10
1212.803
20
-608.723
0
POINT
8
3
10
1208.817
20
-626.528
0
POINT
8
3
10
1206.615
20
-643.464
0
POINT
8
2
10
1206.064
20
-659.853
0
TEXT
8
2
10
1206.064
20
-659.853
40
10.00
1
#195
0
LINE
8
7
10
1562.73
20
-665.353
11
1389.396
21
-665.353
0
POINT
8
2
10
1562.73
20
-665.353
0
TEXT
8
2
10
1562.73
20
-665.353
40
10.00
1
#1
0
POINT
8
2
10
1389.396
20
-665.353
0
TEXT
8
2
10
1389.396
20
-665.353
40
10.00
1
#1
0
TEXT
8
1
10
1389.396
20
-654.353
40
10.00
1
PIECE NAME: KOL
0
TEXT
8
1
10
1389.396
20
-643.353
40
10.00
1
SIZE: 1
0
TEXT
8
1
10
1389.396
20
-632.353
40
10.00
1
ANNOTATION: 
0
TEXT
8
1
10
1389.396
20
-621.353
40
10.00
1
QUANTITY: 1
0
TEXT
8
1
10
1389.396
20
-610.353
40
10.00
1
MATERIAL: KUMAS
0
ENDBLK
0
BLOCK
8
0
2
9
70
0
10
0.0000
20
0.0000
0
POLYLINE
8
1
66
1
70
1
0
VERTEX
8
1
10
981.119
20
-616.556
0
VERTEX
8
1
10
981.119
20
-801.556
0
VERTEX
8
1
10
1186.118
20
-801.556
0
VERTEX
8
1
10
1186.119
20
-616.556
0
VERTEX
8
1
10
981.119
20
-616.556
0
SEQEND
8
1
0
POINT
8
2
10
981.119
20
-616.556
0
TEXT
8
2
10
981.119
20
-616.556
40
10.00
1
#207
0
POINT
8
2
10
981.119
20
-801.556
0
TEXT
8
2
10
981.119
20
-801.556
40
10.00
1
#208
0
POINT
8
2
10
1186.118
20
-801.556
0
TEXT
8
2
10
1186.118
20
-801.556
40
10.00
1
#209
0
POINT
8
2
10
1186.119
20
-616.556
0
TEXT
8
2
10
1186.119
20
-616.556
40
10.00
1
#210
0
POINT
8
2
10
981.119
20
-616.556
0
TEXT
8
2
10
981.119
20
-616.556
40
10.00
1
#207
0
LINE
8
7
10
1104.451
20
-716.556
11
1027.784
21
-716.556
0
POINT
8
2
10
1104.451
20
-716.556
0
TEXT
8
2
10
1104.451
20
-716.556
40
10.00
1
#1
0
POINT
8
2
10
1027.784
20
-716.556
0
TEXT
8
2
10
1027.784
20
-716.556
40
10.00
1
#1
0
TEXT
8
1
10
1027.784
20
-705.556
40
10.00
1
PIECE NAME: CEP
0
TEXT
8
1
10
1027.784
20
-694.556
40
10.00
1
SIZE: 1
0
TEXT
8
1
10
1027.784
20
-683.556
40
10.00
1
ANNOTATION: 
0
TEXT
8
1
10
1027.784
20
-672.556
40
10.00
1
QUANTITY: 1
0
TEXT
8
1
10
1027.784
20
-661.556
40
10.00
1
MATERIAL: KUMAS
0
ENDBLK
0
BLOCK
8
0
2
10
70
0
10
0.0000
20
0.0000
0
POLYLINE
8
1
66
1
70
1
0
VERTEX
8
1
10
1186.119
20
-801.556
0
VERTEX
8
1
10
1186.118
20
-616.556
0
VERTEX
8
1
10
981.119
20
-616.556
0
VERTEX
8
1
10
981.119
20
-801.556
0
VERTEX
8
1
10
1186.119
20
-801.556
0
SEQEND
8
1
0
POINT
8
2
10
1186.119
20
-801.556
0
TEXT
8
2
10
1186.119
20
-801.556
40
10.00
1
#57
0
POINT
8
2
10
1186.118
20
-616.556
0
TEXT
8
2
10
1186.118
20
-616.556
40
10.00
1
#58
0
POINT
8
2
10
981.119
20
-616.556
0
TEXT
8
2
10
981.119
20
-616.556
40
10.00
1
#59
0
POINT
8
2
10
981.119
20
-801.556
0
TEXT
8
2
10
981.119
20
-801.556
40
10.00
1
#60
0
POINT
8
2
10
1186.119
20
-801.556
0
TEXT
8
2
10
1186.119
20
-801.556
40
10.00
1
#57
0
LINE
8
7
10
1104.451
20
-701.556
11
1027.784
21
-701.556
0
POINT
8
2
10
1104.451
20
-701.556
0
TEXT
8
2
10
1104.451
20
-701.556
40
10.00
1
#1
0
POINT
8
2
10
1027.784
20
-701.556
0
TEXT
8
2
10
1027.784
20
-701.556
40
10.00
1
#1
0
TEXT
8
1
10
1027.784
20
-690.556
40
10.00
1
PIECE NAME: CEPFY1
0
TEXT
8
1
10
1027.784
20
-679.556
40
10.00
1
SIZE: 1
0
TEXT
8
1
10
1027.784
20
-668.556
40
10.00
1
ANNOTATION: 
0
TEXT
8
1
10
1027.784
20
-657.556
40
10.00
1
QUANTITY: 1
0
TEXT
8
1
10
1027.784
20
-646.556
40
10.00
1
MATERIAL: KUMAS
0
ENDBLK
0
BLOCK
8
0
2
11
70
0
10
0.0000
20
0.0000
0
POLYLINE
8
1
66
1
70
1
0
VERTEX
8
1
10
892.21
20
-549.15
0
VERTEX
8
1
10
971.264
20
-561.414
0
VERTEX
8
1
10
978.59
20
-511.766
0
VERTEX
8
1
10
980.096
20
-500.466
0
VERTEX
8
1
10
986.701
20
-443.817
0
VERTEX
8
1
10
991.468
20
-389.432
0
VERTEX
8
1
10
992.249
20
-378.134
0
VERTEX
8
1
10
994.792
20
-327.714
0
VERTEX
8
1
10
995.613
20
-280.706
0
VERTEX
8
1
10
995.576
20
-270.911
0
VERTEX
8
1
10
994.398
20
-223.248
0
VERTEX
8
1
10
991.468
20
-171.981
0
VERTEX
8
1
10
990.678
20
-161.552
0
VERTEX
8
1
10
985.562
20
-106.737
0
VERTEX
8
1
10
978.59
20
-49.648
0
VERTEX
8
1
10
971.264
20
0
0
VERTEX
8
1
10
892.21
20
-12.264
0
VERTEX
8
1
10
893.254
20
-18.923
0
VERTEX
8
1
10
901.659
20
-78.09
0
VERTEX
8
1
10
907.907
20
-133.037
0
VERTEX
8
1
10
912.22
20
-184.693
0
VERTEX
8
1
10
914.756
20
-233.804
0
VERTEX
8
1
10
915.613
20
-280.706
0
VERTEX
8
1
10
915.599
20
-285.682
0
VERTEX
8
1
10
914.562
20
-332.831
0
VERTEX
8
1
10
911.841
20
-382.185
0
VERTEX
8
1
10
907.322
20
-434.206
0
VERTEX
8
1
10
900.86
20
-489.511
0
VERTEX
8
1
10
892.21
20
-549.15
0
SEQEND
8
1
0
POINT
8
2
10
892.21
20
-549.15
0
TEXT
8
2
10
892.21
20
-549.15
40
10.00
1
#211
0
POINT
8
2
10
971.264
20
-561.414
0
TEXT
8
2
10
971.264
20
-561.414
40
10.00
1
#212
0
POINT
8
4
10
978.59
20
-511.766
30
10
50
172.247477784184
0
POINT
8
2
10
978.59
20
-511.766
0
TEXT
8
2
10
978.59
20
-511.766
40
10.00
1
#213
0
POINT
8
3
10
980.096
20
-500.466
0
POINT
8
3
10
986.701
20
-443.817
0
POINT
8
4
10
991.468
20
-389.432
30
10
50
175.859682867198
0
POINT
8
2
10
991.468
20
-389.432
0
TEXT
8
2
10
991.468
20
-389.432
40
10.00
1
#214
0
POINT
8
3
10
992.249
20
-378.134
0
POINT
8
3
10
994.792
20
-327.714
0
POINT
8
4
10
995.613
20
-280.706
30
10
50
180
0
POINT
8
2
10
995.613
20
-280.706
0
TEXT
8
2
10
995.613
20
-280.706
40
10.00
1
#215
0
POINT
8
3
10
995.576
20
-270.911
0
POINT
8
3
10
994.398
20
-223.248
0
POINT
8
4
10
991.468
20
-171.981
30
10
50
184.140317132802
0
POINT
8
2
10
991.468
20
-171.981
0
TEXT
8
2
10
991.468
20
-171.981
40
10.00
1
#216
0
POINT
8
3
10
990.678
20
-161.552
0
POINT
8
3
10
985.562
20
-106.737
0
POINT
8
4
10
978.59
20
-49.648
30
10
50
187.746845159278
0
POINT
8
2
10
978.59
20
-49.648
0
TEXT
8
2
10
978.59
20
-49.648
40
10.00
1
#217
0
POINT
8
2
10
971.264
20
0
0
TEXT
8
2
10
971.264
20
0
40
10.00
1
#218
0
POINT
8
2
10
892.21
20
-12.264
0
TEXT
8
2
10
892.21
20
-12.264
40
10.00
1
#219
0
POINT
8
3
10
893.254
20
-18.923
0
POINT
8
3
10
901.659
20
-78.09
0
POINT
8
3
10
907.907
20
-133.037
0
POINT
8
3
10
912.22
20
-184.693
0
POINT
8
3
10
914.756
20
-233.804
0
POINT
8
4
10
915.613
20
-280.706
30
10
50
0
0
POINT
8
2
10
915.613
20
-280.706
0
TEXT
8
2
10
915.613
20
-280.706
40
10.00
1
#220
0
POINT
8
3
10
915.599
20
-285.682
0
POINT
8
3
10
914.562
20
-332.831
0
POINT
8
3
10
911.841
20
-382.185
0
POINT
8
3
10
907.322
20
-434.206
0
POINT
8
3
10
900.86
20
-489.511
0
POINT
8
2
10
892.21
20
-549.15
0
TEXT
8
2
10
892.21
20
-549.15
40
10.00
1
#211
0
LINE
8
7
10
958.95
20
-153.46
11
932.289
21
-153.46
0
POINT
8
2
10
958.95
20
-153.46
0
TEXT
8
2
10
958.95
20
-153.46
40
10.00
1
#1
0
POINT
8
2
10
932.289
20
-153.46
0
TEXT
8
2
10
932.289
20
-153.46
40
10.00
1
#1
0
TEXT
8
1
10
932.289
20
-142.46
40
10.00
1
PIECE NAME: YK
0
TEXT
8
1
10
932.289
20
-131.46
40
10.00
1
SIZE: 1
0
TEXT
8
1
10
932.289
20
-120.46
40
10.00
1
ANNOTATION: 
0
TEXT
8
1
10
932.289
20
-109.46
40
10.00
1
QUANTITY: 1
0
TEXT
8
1
10
932.289
20
-98.46
40
10.00
1
MATERIAL: KUMAS
0
ENDBLK
0
BLOCK
8
0
2
12
70
0
10
0.0000
20
0.0000
0
POLYLINE
8
1
66
1
70
1
0
VERTEX
8
1
10
1045.22
20
-1303.286
0
VERTEX
8
1
10
1063.442
20
-1364.651
0
VERTEX
8
1
10
1080.405
20
-1416.752
0
VERTEX
8
1
10
1096.742
20
-1462.057
0
VERTEX
8
1
10
1113.064
20
-1502.798
0
VERTEX
8
1
10
1122.809
20
-1498.44
0
VERTEX
8
1
10
1148.318
20
-1489.455
0
VERTEX
8
1
10
1181.753
20
-1479.506
0
VERTEX
8
1
10
1214.624
20
-1471.332
0
VERTEX
8
1
10
1243.538
20
-1465.662
0
VERTEX
8
1
10
1267.625
20
-1462.411
0
VERTEX
8
1
10
1286.983
20
-1461.234
0
VERTEX
8
1
10
1302.137
20
-1461.723
0
VERTEX
8
1
10
1313.722
20
-1463.497
0
VERTEX
8
1
10
1322.376
20
-1466.239
0
VERTEX
8
1
10
1328.659
20
-1469.713
0
VERTEX
8
1
10
1333.07
20
-1473.817
0
VERTEX
8
1
10
1335.944
20
-1478.571
0
VERTEX
8
1
10
1337.43
20
-1484.161
0
VERTEX
8
1
10
1337.435
20
-1490.861
0
VERTEX
8
1
10
1440.922
20
-1496.844
0
VERTEX
8
1
10
1465.879
20
-1498.287
0
VERTEX
8
1
10
1490.837
20
-1499.73
0
VERTEX
8
1
10
1733.594
20
-1513.766
0
VERTEX
8
1
10
1735.669
20
-1512.75
0
VERTEX
8
1
10
1774.27
20
-1495.605
0
VERTEX
8
1
10
1793.925
20
-1486.079
0
VERTEX
8
1
10
1807.39
20
-1477.999
0
VERTEX
8
1
10
1817.701
20
-1470.101
0
VERTEX
8
1
10
1825.771
20
-1462.023
0
VERTEX
8
1
10
1832.101
20
-1453.512
0
VERTEX
8
1
10
1836.929
20
-1444.372
0
VERTEX
8
1
10
1840.373
20
-1434.392
0
VERTEX
8
1
10
1842.442
20
-1423.33
0
VERTEX
8
1
10
1843.052
20
-1410.955
0
VERTEX
8
1
10
1843.052
20
-1209.798
0
VERTEX
8
1
10
1843.052
20
-1008.639
0
VERTEX
8
1
10
1842.319
20
-997.682
0
VERTEX
8
1
10
1839.662
20
-984.626
0
VERTEX
8
1
10
1838.307
20
-980.046
0
VERTEX
8
1
10
1834.257
20
-970.317
0
VERTEX
8
1
10
1828.859
20
-961.474
0
VERTEX
8
1
10
1821.961
20
-953.294
0
VERTEX
8
1
10
1813.257
20
-945.565
0
VERTEX
8
1
10
1802.15
20
-938.013
0
VERTEX
8
1
10
1787.219
20
-930.066
0
VERTEX
8
1
10
1751.817
20
-914.667
0
VERTEX
8
1
10
1733.325
20
-905.846
0
VERTEX
8
1
10
1490.837
20
-919.865
0
VERTEX
8
1
10
1465.879
20
-921.309
0
VERTEX
8
1
10
1440.922
20
-922.751
0
VERTEX
8
1
10
1337.435
20
-928.735
0
VERTEX
8
1
10
1337.509
20
-934.846
0
VERTEX
8
1
10
1336.164
20
-940.538
0
VERTEX
8
1
10
1333.424
20
-945.365
0
VERTEX
8
1
10
1329.166
20
-949.528
0
VERTEX
8
1
10
1323.075
20
-953.062
0
VERTEX
8
1
10
1314.667
20
-955.875
0
VERTEX
8
1
10
1303.359
20
-957.75
0
VERTEX
8
1
10
1288.505
20
-958.37
0
VERTEX
8
1
10
1269.492
20
-957.355
0
VERTEX
8
1
10
1245.779
20
-954.294
0
VERTEX
8
1
10
1217.208
20
-948.833
0
VERTEX
8
1
10
1184.576
20
-940.86
0
VERTEX
8
1
10
1150.994
20
-931.01
0
VERTEX
8
1
10
1124.468
20
-921.808
0
VERTEX
8
1
10
1113.064
20
-916.798
0
VERTEX
8
1
10
1097.473
20
-955.63
0
VERTEX
8
1
10
1081.123
20
-1000.754
0
VERTEX
8
1
10
1064.211
20
-1052.457
0
VERTEX
8
1
10
1045.221
20
-1116.309
0
VERTEX
8
1
10
1050.834
20
-1117.154
0
VERTEX
8
1
10
1055.545
20
-1119.465
0
VERTEX
8
1
10
1059.729
20
-1123.376
0
VERTEX
8
1
10
1063.471
20
-1129.288
0
VERTEX
8
1
10
1066.702
20
-1137.799
0
VERTEX
8
1
10
1069.253
20
-1149.744
0
VERTEX
8
1
10
1070.896
20
-1166.491
0
VERTEX
8
1
10
1071.476
20
-1197.479
0
VERTEX
8
1
10
1072.132
20
-1209.798
0
VERTEX
8
1
10
1071.757
20
-1212.571
0
VERTEX
8
1
10
1070.823
20
-1253.653
0
VERTEX
8
1
10
1069.237
20
-1270.146
0
VERTEX
8
1
10
1066.73
20
-1281.885
0
VERTEX
8
1
10
1063.519
20
-1290.288
0
VERTEX
8
1
10
1059.775
20
-1296.145
0
VERTEX
8
1
10
1055.554
20
-1300.056
0
VERTEX
8
1
10
1050.773
20
-1302.395
0
VERTEX
8
1
10
1045.22
20
-1303.286
0
SEQEND
8
1
0
POINT
8
2
10
1045.22
20
-1303.286
0
TEXT
8
2
10
1045.22
20
-1303.286
40
10.00
1
#231
0
POINT
8
3
10
1063.442
20
-1364.651
0
POINT
8
3
10
1080.405
20
-1416.752
0
POINT
8
3
10
1096.742
20
-1462.057
0
POINT
8
2
10
1113.064
20
-1502.798
0
TEXT
8
2
10
1113.064
20
-1502.798
40
10.00
1
#232
0
POINT
8
3
10
1122.809
20
-1498.44
0
POINT
8
3
10
1148.318
20
-1489.455
0
POINT
8
3
10
1181.753
20
-1479.506
0
POINT
8
3
10
1214.624
20
-1471.332
0
POINT
8
3
10
1243.538
20
-1465.662
0
POINT
8
3
10
1267.625
20
-1462.411
0
POINT
8
3
10
1286.983
20
-1461.234
0
POINT
8
3
10
1302.137
20
-1461.723
0
POINT
8
3
10
1313.722
20
-1463.497
0
POINT
8
3
10
1322.376
20
-1466.239
0
POINT
8
3
10
1328.659
20
-1469.713
0
POINT
8
3
10
1333.07
20
-1473.817
0
POINT
8
3
10
1335.944
20
-1478.571
0
POINT
8
3
10
1337.43
20
-1484.161
0
POINT
8
2
10
1337.435
20
-1490.861
0
TEXT
8
2
10
1337.435
20
-1490.861
40
10.00
1
#233
0
POINT
8
4
10
1440.922
20
-1496.844
30
10
50
86.6924146360959
0
POINT
8
2
10
1440.922
20
-1496.844
0
TEXT
8
2
10
1440.922
20
-1496.844
40
10.00
1
#234
0
POINT
8
2
10
1465.879
20
-1498.287
0
TEXT
8
2
10
1465.879
20
-1498.287
40
10.00
1
#235
0
POINT
8
4
10
1490.837
20
-1499.73
30
10
50
86.686695012623
0
POINT
8
2
10
1490.837
20
-1499.73
0
TEXT
8
2
10
1490.837
20
-1499.73
40
10.00
1
#236
0
POINT
8
4
10
1733.594
20
-1513.766
30
10
50
102.603383224732
0
POINT
8
2
10
1733.594
20
-1513.766
0
TEXT
8
2
10
1733.594
20
-1513.766
40
10.00
1
#237
0
POINT
8
3
10
1735.669
20
-1512.75
0
POINT
8
3
10
1774.27
20
-1495.605
0
POINT
8
3
10
1793.925
20
-1486.079
0
POINT
8
3
10
1807.39
20
-1477.999
0
POINT
8
3
10
1817.701
20
-1470.101
0
POINT
8
3
10
1825.771
20
-1462.023
0
POINT
8
3
10
1832.101
20
-1453.512
0
POINT
8
3
10
1836.929
20
-1444.372
0
POINT
8
3
10
1840.373
20
-1434.392
0
POINT
8
3
10
1842.442
20
-1423.33
0
POINT
8
4
10
1843.052
20
-1410.955
30
10
50
180
0
POINT
8
2
10
1843.052
20
-1410.955
0
TEXT
8
2
10
1843.052
20
-1410.955
40
10.00
1
#238
0
POINT
8
4
10
1843.052
20
-1209.798
30
10
50
180
0
POINT
8
2
10
1843.052
20
-1209.798
0
TEXT
8
2
10
1843.052
20
-1209.798
40
10.00
1
#239
0
POINT
8
4
10
1843.052
20
-1008.639
30
10
50
180
0
POINT
8
2
10
1843.052
20
-1008.639
0
TEXT
8
2
10
1843.052
20
-1008.639
40
10.00
1
#240
0
POINT
8
3
10
1842.319
20
-997.682
0
POINT
8
3
10
1839.662
20
-984.626
0
POINT
8
3
10
1838.307
20
-980.046
0
POINT
8
3
10
1834.257
20
-970.317
0
POINT
8
3
10
1828.859
20
-961.474
0
POINT
8
3
10
1821.961
20
-953.294
0
POINT
8
3
10
1813.257
20
-945.565
0
POINT
8
3
10
1802.15
20
-938.013
0
POINT
8
3
10
1787.219
20
-930.066
0
POINT
8
3
10
1751.817
20
-914.667
0
POINT
8
4
10
1733.325
20
-905.846
30
10
50
258.830533881922
0
POINT
8
2
10
1733.325
20
-905.846
0
TEXT
8
2
10
1733.325
20
-905.846
40
10.00
1
#241
0
POINT
8
4
10
1490.837
20
-919.865
30
10
50
273.313304987377
0
POINT
8
2
10
1490.837
20
-919.865
0
TEXT
8
2
10
1490.837
20
-919.865
40
10.00
1
#242
0
POINT
8
2
10
1465.879
20
-921.309
0
TEXT
8
2
10
1465.879
20
-921.309
40
10.00
1
#243
0
POINT
8
4
10
1440.922
20
-922.751
30
10
50
273.307585363904
0
POINT
8
2
10
1440.922
20
-922.751
0
TEXT
8
2
10
1440.922
20
-922.751
40
10.00
1
#244
0
POINT
8
2
10
1337.435
20
-928.735
0
TEXT
8
2
10
1337.435
20
-928.735
40
10.00
1
#245
0
POINT
8
3
10
1337.509
20
-934.846
0
POINT
8
3
10
1336.164
20
-940.538
0
POINT
8
3
10
1333.424
20
-945.365
0
POINT
8
3
10
1329.166
20
-949.528
0
POINT
8
3
10
1323.075
20
-953.062
0
POINT
8
3
10
1314.667
20
-955.875
0
POINT
8
3
10
1303.359
20
-957.75
0
POINT
8
3
10
1288.505
20
-958.37
0
POINT
8
3
10
1269.492
20
-957.355
0
POINT
8
3
10
1245.779
20
-954.294
0
POINT
8
3
10
1217.208
20
-948.833
0
POINT
8
3
10
1184.576
20
-940.86
0
POINT
8
3
10
1150.994
20
-931.01
0
POINT
8
3
10
1124.468
20
-921.808
0
POINT
8
2
10
1113.064
20
-916.798
0
TEXT
8
2
10
1113.064
20
-916.798
40
10.00
1
#246
0
POINT
8
3
10
1097.473
20
-955.63
0
POINT
8
3
10
1081.123
20
-1000.754
0
POINT
8
3
10
1064.211
20
-1052.457
0
POINT
8
2
10
1045.221
20
-1116.309
0
TEXT
8
2
10
1045.221
20
-1116.309
40
10.00
1
#247
0
POINT
8
3
10
1050.834
20
-1117.154
0
POINT
8
3
10
1055.545
20
-1119.465
0
POINT
8
3
10
1059.729
20
-1123.376
0
POINT
8
3
10
1063.471
20
-1129.288
0
POINT
8
3
10
1066.702
20
-1137.799
0
POINT
8
3
10
1069.253
20
-1149.744
0
POINT
8
3
10
1070.896
20
-1166.491
0
POINT
8
3
10
1071.476
20
-1197.479
0
POINT
8
4
10
1072.132
20
-1209.798
30
10
50
0
0
POINT
8
2
10
1072.132
20
-1209.798
0
TEXT
8
2
10
1072.132
20
-1209.798
40
10.00
1
#248
0
POINT
8
3
10
1071.757
20
-1212.571
0
POINT
8
3
10
1070.823
20
-1253.653
0
POINT
8
3
10
1069.237
20
-1270.146
0
POINT
8
3
10
1066.73
20
-1281.885
0
POINT
8
3
10
1063.519
20
-1290.288
0
POINT
8
3
10
1059.775
20
-1296.145
0
POINT
8
3
10
1055.554
20
-1300.056
0
POINT
8
3
10
1050.773
20
-1302.395
0
POINT
8
2
10
1045.22
20
-1303.286
0
TEXT
8
2
10
1045.22
20
-1303.286
40
10.00
1
#231
0
LINE
8
7
10
1574.475
20
-1110.452
11
1315.896
21
-1110.452
0
POINT
8
2
10
1574.475
20
-1110.452
0
TEXT
8
2
10
1574.475
20
-1110.452
40
10.00
1
#1
0
POINT
8
2
10
1315.896
20
-1110.452
0
TEXT
8
2
10
1315.896
20
-1110.452
40
10.00
1
#1
0
TEXT
8
1
10
1315.896
20
-1099.452
40
10.00
1
PIECE NAME: ARKA
0
TEXT
8
1
10
1315.896
20
-1088.452
40
10.00
1
SIZE: 1
0
TEXT
8
1
10
1315.896
20
-1077.452
40
10.00
1
ANNOTATION: 
0
TEXT
8
1
10
1315.896
20
-1066.452
40
10.00
1
QUANTITY: 1
0
TEXT
8
1
10
1315.896
20
-1055.452
40
10.00
1
MATERIAL: KUMAS
0
ENDBLK
0
BLOCK
8
0
2
13
70
0
10
0.0000
20
0.0000
0
POLYLINE
8
1
66
1
70
1
0
VERTEX
8
1
10
278.128
20
-687.943
0
VERTEX
8
1
10
283.894
20
-648.36
0
VERTEX
8
1
10
285.365
20
-637.334
0
VERTEX
8
1
10
291.964
20
-580.762
0
VERTEX
8
1
10
296.707
20
-526.653
0
VERTEX
8
1
10
297.466
20
-515.699
0
VERTEX
8
1
10
300.005
20
-465.426
0
VERTEX
8
1
10
300.826
20
-418.65
0
VERTEX
8
1
10
300.791
20
-409.176
0
VERTEX
8
1
10
299.62
20
-361.644
0
VERTEX
8
1
10
296.707
20
-310.648
0
VERTEX
8
1
10
295.94
20
-300.498
0
VERTEX
8
1
10
290.843
20
-245.868
0
VERTEX
8
1
10
283.894
20
-188.941
0
VERTEX
8
1
10
278.128
20
-149.358
0
VERTEX
8
1
10
218.838
20
-158.557
0
VERTEX
8
1
10
226.959
20
-215.998
0
VERTEX
8
1
10
233.169
20
-271.051
0
VERTEX
8
1
10
237.491
20
-323.238
0
VERTEX
8
1
10
240.009
20
-372.438
0
VERTEX
8
1
10
240.826
20
-418.65
0
VERTEX
8
1
10
240.015
20
-464.699
0
VERTEX
8
1
10
237.502
20
-513.9
0
VERTEX
8
1
10
233.185
20
-566.087
0
VERTEX
8
1
10
226.984
20
-621.102
0
VERTEX
8
1
10
218.838
20
-678.744
0
VERTEX
8
1
10
278.128
20
-687.943
0
SEQEND
8
1
0
POINT
8
2
10
278.128
20
-687.943
0
TEXT
8
2
10
278.128
20
-687.943
40
10.00
1
#259
0
POINT
8
4
10
283.894
20
-648.36
30
10
50
172.253154840722
0
POINT
8
2
10
283.894
20
-648.36
0
TEXT
8
2
10
283.894
20
-648.36
40
10.00
1
#260
0
POINT
8
3
10
285.365
20
-637.334
0
POINT
8
3
10
291.964
20
-580.762
0
POINT
8
4
10
296.707
20
-526.653
30
10
50
175.859682867198
0
POINT
8
2
10
296.707
20
-526.653
0
TEXT
8
2
10
296.707
20
-526.653
40
10.00
1
#261
0
POINT
8
3
10
297.466
20
-515.699
0
POINT
8
3
10
300.005
20
-465.426
0
POINT
8
4
10
300.826
20
-418.65
30
10
50
180
0
POINT
8
2
10
300.826
20
-418.65
0
TEXT
8
2
10
300.826
20
-418.65
40
10.00
1
#262
0
POINT
8
3
10
300.791
20
-409.176
0
POINT
8
3
10
299.62
20
-361.644
0
POINT
8
4
10
296.707
20
-310.648
30
10
50
184.140317132802
0
POINT
8
2
10
296.707
20
-310.648
0
TEXT
8
2
10
296.707
20
-310.648
40
10.00
1
#263
0
POINT
8
3
10
295.94
20
-300.498
0
POINT
8
3
10
290.843
20
-245.868
0
POINT
8
4
10
283.894
20
-188.941
30
10
50
187.746845159278
0
POINT
8
2
10
283.894
20
-188.941
0
TEXT
8
2
10
283.894
20
-188.941
40
10.00
1
#264
0
POINT
8
2
10
278.128
20
-149.358
0
TEXT
8
2
10
278.128
20
-149.358
40
10.00
1
#265
0
POINT
8
2
10
218.838
20
-158.557
0
TEXT
8
2
10
218.838
20
-158.557
40
10.00
1
#266
0
POINT
8
3
10
226.959
20
-215.998
0
POINT
8
3
10
233.169
20
-271.051
0
POINT
8
3
10
237.491
20
-323.238
0
POINT
8
3
10
240.009
20
-372.438
0
POINT
8
4
10
240.826
20
-418.65
30
10
50
0
0
POINT
8
2
10
240.826
20
-418.65
0
TEXT
8
2
10
240.826
20
-418.65
40
10.00
1
#267
0
POINT
8
3
10
240.015
20
-464.699
0
POINT
8
3
10
237.502
20
-513.9
0
POINT
8
3
10
233.185
20
-566.087
0
POINT
8
3
10
226.984
20
-621.102
0
POINT
8
2
10
218.838
20
-678.744
0
TEXT
8
2
10
218.838
20
-678.744
40
10.00
1
#268
0
POINT
8
2
10
278.128
20
-687.943
0
TEXT
8
2
10
278.128
20
-687.943
40
10.00
1
#259
0
LINE
8
7
10
274.164
20
-291.405
11
247.502
21
-291.405
0
POINT
8
2
10
274.164
20
-291.405
0
TEXT
8
2
10
274.164
20
-291.405
40
10.00
1
#1
0
POINT
8
2
10
247.502
20
-291.405
0
TEXT
8
2
10
247.502
20
-291.405
40
10.00
1
#1
0
TEXT
8
1
10
247.502
20
-280.405
40
10.00
1
PIECE NAME: YKCZ
0
TEXT
8
1
10
247.502
20
-269.405
40
10.00
1
SIZE: 1
0
TEXT
8
1
10
247.502
20
-258.405
40
10.00
1
ANNOTATION: 
0
TEXT
8
1
10
247.502
20
-247.405
40
10.00
1
QUANTITY: 1
0
TEXT
8
1
10
247.502
20
-236.405
40
10.00
1
MATERIAL: ÇÝZÝM
0
ENDBLK
0
BLOCK
8
0
2
14
70
0
10
0.0000
20
0.0000
0
POLYLINE
8
1
66
1
70
1
0
VERTEX
8
1
10
-163.632
20
-1001.059
0
VERTEX
8
1
10
-163.692
20
-1013.838
0
VERTEX
8
1
10
-164.056
20
-1018.295
0
VERTEX
8
1
10
-164.701
20
-1022.377
0
VERTEX
8
1
10
-165.676
20
-1026.447
0
VERTEX
8
1
10
-166.944
20
-1030.327
0
VERTEX
8
1
10
-168.601
20
-1034.251
0
VERTEX
8
1
10
-170.56
20
-1037.98
0
VERTEX
8
1
10
-172.96
20
-1041.742
0
VERTEX
8
1
10
-175.767
20
-1045.43
0
VERTEX
8
1
10
-178.896
20
-1048.93
0
VERTEX
8
1
10
-182.196
20
-1052.131
0
VERTEX
8
1
10
-186.226
20
-1055.537
0
VERTEX
8
1
10
-190.22
20
-1058.505
0
VERTEX
8
1
10
-195.46
20
-1061.928
0
VERTEX
8
1
10
-201.088
20
-1065.143
0
VERTEX
8
1
10
-206.96
20
-1068.099
0
VERTEX
8
1
10
-213.729
20
-1071.105
0
VERTEX
8
1
10
-221.517
20
-1074.132
0
VERTEX
8
1
10
-229.368
20
-1076.805
0
VERTEX
8
1
10
-247.866
20
-1082.134
0
VERTEX
8
1
10
-239.435
20
-1111.757
0
VERTEX
8
1
10
-232.607
20
-1134.321
0
VERTEX
8
1
10
-225.51
20
-1156.469
0
VERTEX
8
1
10
-218.255
20
-1177.832
0
VERTEX
8
1
10
-211.219
20
-1197.443
0
VERTEX
8
1
10
-203.929
20
-1216.694
0
VERTEX
8
1
10
-196.441
20
-1235.438
0
VERTEX
8
1
10
-188.601
20
-1254.041
0
VERTEX
8
1
10
-176.538
20
-1280.945
0
VERTEX
8
1
10
-167.44
20
-1276.794
0
VERTEX
8
1
10
-153.486
20
-1270.766
0
VERTEX
8
1
10
-141.789
20
-1266.161
0
VERTEX
8
1
10
-129.019
20
-1261.534
0
VERTEX
8
1
10
-117.171
20
-1257.585
0
VERTEX
8
1
10
-104.384
20
-1253.682
0
VERTEX
8
1
10
-91.591
20
-1250.151
0
VERTEX
8
1
10
-79.861
20
-1247.255
0
VERTEX
8
1
10
-68.405
20
-1244.76
0
VERTEX
8
1
10
-57.718
20
-1242.76
0
VERTEX
8
1
10
-47.228
20
-1241.141
0
VERTEX
8
1
10
-37.19
20
-1239.952
0
VERTEX
8
1
10
-27.84
20
-1239.218
0
VERTEX
8
1
10
-19.381
20
-1238.921
0
VERTEX
8
1
10
-11.966
20
-1239.011
0
VERTEX
8
1
10
-5.685
20
-1239.4
0
VERTEX
8
1
10
0.457
20
-1240.124
0
VERTEX
8
1
10
5.378
20
-1241.015
0
VERTEX
8
1
10
10.651
20
-1242.367
0
VERTEX
8
1
10
14.786
20
-1243.82
0
VERTEX
8
1
10
18.31
20
-1245.437
0
VERTEX
8
1
10
21.286
20
-1247.197
0
VERTEX
8
1
10
23.769
20
-1249.079
0
VERTEX
8
1
10
25.814
20
-1251.084
0
VERTEX
8
1
10
27.468
20
-1253.204
0
VERTEX
8
1
10
28.812
20
-1255.532
0
VERTEX
8
1
10
29.835
20
-1258.041
0
VERTEX
8
1
10
30.596
20
-1260.944
0
VERTEX
8
1
10
31.01
20
-1263.924
0
VERTEX
8
1
10
31.751
20
-1272.551
0
VERTEX
8
1
10
135.238
20
-1278.534
0
VERTEX
8
1
10
160.196
20
-1279.977
0
VERTEX
8
1
10
185.154
20
-1281.419
0
VERTEX
8
1
10
428.256
20
-1295.475
0
VERTEX
8
1
10
434.818
20
-1291.444
0
VERTEX
8
1
10
441.62
20
-1287.7
0
VERTEX
8
1
10
450.63
20
-1283.22
0
VERTEX
8
1
10
472.611
20
-1273.134
0
VERTEX
8
1
10
484.058
20
-1267.68
0
VERTEX
8
1
10
492.016
20
-1263.543
0
VERTEX
8
1
10
498.471
20
-1259.856
0
VERTEX
8
1
10
504.157
20
-1256.268
0
VERTEX
8
1
10
508.864
20
-1252.98
0
VERTEX
8
1
10
513.706
20
-1249.209
0
VERTEX
8
1
10
517.99
20
-1245.446
0
VERTEX
8
1
10
521.652
20
-1241.82
0
VERTEX
8
1
10
525.271
20
-1237.747
0
VERTEX
8
1
10
528.198
20
-1233.98
0
VERTEX
8
1
10
531.012
20
-1229.819
0
VERTEX
8
1
10
533.658
20
-1225.222
0
VERTEX
8
1
10
535.61
20
-1221.219
0
VERTEX
8
1
10
537.384
20
-1216.89
0
VERTEX
8
1
10
538.946
20
-1212.213
0
VERTEX
8
1
10
540.257
20
-1207.169
0
VERTEX
8
1
10
541.276
20
-1201.729
0
VERTEX
8
1
10
541.822
20
-1197.39
0
VERTEX
8
1
10
542.164
20
-1192.803
0
VERTEX
8
1
10
542.282
20
-1187.954
0
VERTEX
8
1
10
542.282
20
-1051.067
0
VERTEX
8
1
10
542.282
20
-1001.067
0
VERTEX
8
1
10
-69.866
20
-1001.061
0
VERTEX
8
1
10
-163.632
20
-1001.059
0
SEQEND
8
1
0
POINT
8
2
10
-163.632
20
-1001.059
0
TEXT
8
2
10
-163.632
20
-1001.059
40
10.00
1
#279
0
POINT
8
3
10
-163.692
20
-1013.838
0
POINT
8
3
10
-164.056
20
-1018.295
0
POINT
8
3
10
-164.701
20
-1022.377
0
POINT
8
3
10
-165.676
20
-1026.447
0
POINT
8
3
10
-166.944
20
-1030.327
0
POINT
8
3
10
-168.601
20
-1034.251
0
POINT
8
3
10
-170.56
20
-1037.98
0
POINT
8
3
10
-172.96
20
-1041.742
0
POINT
8
3
10
-175.767
20
-1045.43
0
POINT
8
3
10
-178.896
20
-1048.93
0
POINT
8
3
10
-182.196
20
-1052.131
0
POINT
8
3
10
-186.226
20
-1055.537
0
POINT
8
3
10
-190.22
20
-1058.505
0
POINT
8
3
10
-195.46
20
-1061.928
0
POINT
8
3
10
-201.088
20
-1065.143
0
POINT
8
3
10
-206.96
20
-1068.099
0
POINT
8
3
10
-213.729
20
-1071.105
0
POINT
8
3
10
-221.517
20
-1074.132
0
POINT
8
3
10
-229.368
20
-1076.805
0
POINT
8
2
10
-247.866
20
-1082.134
0
TEXT
8
2
10
-247.866
20
-1082.134
40
10.00
1
#280
0
POINT
8
3
10
-239.435
20
-1111.757
0
POINT
8
3
10
-232.607
20
-1134.321
0
POINT
8
3
10
-225.51
20
-1156.469
0
POINT
8
3
10
-218.255
20
-1177.832
0
POINT
8
3
10
-211.219
20
-1197.443
0
POINT
8
3
10
-203.929
20
-1216.694
0
POINT
8
3
10
-196.441
20
-1235.438
0
POINT
8
3
10
-188.601
20
-1254.041
0
POINT
8
2
10
-176.538
20
-1280.945
0
TEXT
8
2
10
-176.538
20
-1280.945
40
10.00
1
#281
0
POINT
8
3
10
-167.44
20
-1276.794
0
POINT
8
3
10
-153.486
20
-1270.766
0
POINT
8
3
10
-141.789
20
-1266.161
0
POINT
8
3
10
-129.019
20
-1261.534
0
POINT
8
3
10
-117.171
20
-1257.585
0
POINT
8
3
10
-104.384
20
-1253.682
0
POINT
8
3
10
-91.591
20
-1250.151
0
POINT
8
3
10
-79.861
20
-1247.255
0
POINT
8
3
10
-68.405
20
-1244.76
0
POINT
8
3
10
-57.718
20
-1242.76
0
POINT
8
3
10
-47.228
20
-1241.141
0
POINT
8
3
10
-37.19
20
-1239.952
0
POINT
8
3
10
-27.84
20
-1239.218
0
POINT
8
3
10
-19.381
20
-1238.921
0
POINT
8
3
10
-11.966
20
-1239.011
0
POINT
8
3
10
-5.685
20
-1239.4
0
POINT
8
3
10
0.457
20
-1240.124
0
POINT
8
4
10
5.378
20
-1241.015
30
10
50
77.9136459411259
0
POINT
8
2
10
5.378
20
-1241.015
0
TEXT
8
2
10
5.378
20
-1241.015
40
10.00
1
#282
0
POINT
8
3
10
10.651
20
-1242.367
0
POINT
8
3
10
14.786
20
-1243.82
0
POINT
8
3
10
18.31
20
-1245.437
0
POINT
8
3
10
21.286
20
-1247.197
0
POINT
8
3
10
23.769
20
-1249.079
0
POINT
8
3
10
25.814
20
-1251.084
0
POINT
8
3
10
27.468
20
-1253.204
0
POINT
8
3
10
28.812
20
-1255.532
0
POINT
8
3
10
29.835
20
-1258.041
0
POINT
8
3
10
30.596
20
-1260.944
0
POINT
8
3
10
31.01
20
-1263.924
0
POINT
8
2
10
31.751
20
-1272.551
0
TEXT
8
2
10
31.751
20
-1272.551
40
10.00
1
#283
0
POINT
8
4
10
135.238
20
-1278.534
30
10
50
86.6866950126229
0
POINT
8
2
10
135.238
20
-1278.534
0
TEXT
8
2
10
135.238
20
-1278.534
40
10.00
1
#284
0
POINT
8
2
10
160.196
20
-1279.977
0
TEXT
8
2
10
160.196
20
-1279.977
40
10.00
1
#285
0
POINT
8
4
10
185.154
20
-1281.419
30
10
50
86.6863638574424
0
POINT
8
2
10
185.154
20
-1281.419
0
TEXT
8
2
10
185.154
20
-1281.419
40
10.00
1
#286
0
POINT
8
4
10
428.256
20
-1295.475
30
10
50
104.41982176546
0
POINT
8
2
10
428.256
20
-1295.475
0
TEXT
8
2
10
428.256
20
-1295.475
40
10.00
1
#287
0
POINT
8
3
10
434.818
20
-1291.444
0
POINT
8
3
10
441.62
20
-1287.7
0
POINT
8
3
10
450.63
20
-1283.22
0
POINT
8
3
10
472.611
20
-1273.134
0
POINT
8
3
10
484.058
20
-1267.68
0
POINT
8
3
10
492.016
20
-1263.543
0
POINT
8
3
10
498.471
20
-1259.856
0
POINT
8
3
10
504.157
20
-1256.268
0
POINT
8
3
10
508.864
20
-1252.98
0
POINT
8
3
10
513.706
20
-1249.209
0
POINT
8
3
10
517.99
20
-1245.446
0
POINT
8
3
10
521.652
20
-1241.82
0
POINT
8
3
10
525.271
20
-1237.747
0
POINT
8
3
10
528.198
20
-1233.98
0
POINT
8
3
10
531.012
20
-1229.819
0
POINT
8
3
10
533.658
20
-1225.222
0
POINT
8
3
10
535.61
20
-1221.219
0
POINT
8
3
10
537.384
20
-1216.89
0
POINT
8
3
10
538.946
20
-1212.213
0
POINT
8
3
10
540.257
20
-1207.169
0
POINT
8
3
10
541.276
20
-1201.729
0
POINT
8
3
10
541.822
20
-1197.39
0
POINT
8
3
10
542.164
20
-1192.803
0
POINT
8
4
10
542.282
20
-1187.954
30
10
50
180
0
POINT
8
2
10
542.282
20
-1187.954
0
TEXT
8
2
10
542.282
20
-1187.954
40
10.00
1
#288
0
POINT
8
2
10
542.282
20
-1051.067
0
TEXT
8
2
10
542.282
20
-1051.067
40
10.00
1
#289
0
POINT
8
2
10
542.282
20
-1001.067
0
TEXT
8
2
10
542.282
20
-1001.067
40
10.00
1
#290
0
POINT
8
4
10
-69.866
20
-1001.061
30
10
50
270
0
POINT
8
2
10
-69.866
20
-1001.061
0
TEXT
8
2
10
-69.866
20
-1001.061
40
10.00
1
#291
0
POINT
8
2
10
-163.632
20
-1001.059
0
TEXT
8
2
10
-163.632
20
-1001.059
40
10.00
1
#279
0
POLYLINE
8
8
66
1
70
1
0
VERTEX
8
8
10
232.582
20
-1231.02
0
VERTEX
8
8
10
417.581
20
-1231.02
0
VERTEX
8
8
10
417.582
20
-1066.02
0
VERTEX
8
8
10
232.582
20
-1066.02
0
VERTEX
8
8
10
232.582
20
-1231.02
0
SEQEND
8
8
0
POINT
8
2
10
232.582
20
-1231.02
0
TEXT
8
2
10
232.582
20
-1231.02
40
10.00
1
#292
0
POINT
8
2
10
417.581
20
-1231.02
0
TEXT
8
2
10
417.581
20
-1231.02
40
10.00
1
#293
0
POINT
8
2
10
417.582
20
-1066.02
0
TEXT
8
2
10
417.582
20
-1066.02
40
10.00
1
#294
0
POINT
8
2
10
232.582
20
-1066.02
0
TEXT
8
2
10
232.582
20
-1066.02
40
10.00
1
#295
0
LINE
8
7
10
214.66
20
-1100.772
11
14.66
21
-1100.772
0
POINT
8
2
10
214.66
20
-1100.772
0
TEXT
8
2
10
214.66
20
-1100.772
40
10.00
1
#1
0
POINT
8
2
10
14.66
20
-1100.772
0
TEXT
8
2
10
14.66
20
-1100.772
40
10.00
1
#1
0
TEXT
8
1
10
14.66
20
-1089.772
40
10.00
1
PIECE NAME: ON2CZ
0
TEXT
8
1
10
14.66
20
-1078.772
40
10.00
1
SIZE: 1
0
TEXT
8
1
10
14.66
20
-1067.772
40
10.00
1
ANNOTATION: 
0
TEXT
8
1
10
14.66
20
-1056.772
40
10.00
1
QUANTITY: 1
0
TEXT
8
1
10
14.66
20
-1045.772
40
10.00
1
MATERIAL: ÇÝZÝM
0
ENDBLK
0
BLOCK
8
0
2
15
70
0
10
0.0000
20
0.0000
0
POLYLINE
8
1
66
1
70
1
0
VERTEX
8
1
10
-69.866
20
-1295.473
0
VERTEX
8
1
10
542.282
20
-1295.467
0
VERTEX
8
1
10
542.282
20
-1245.467
0
VERTEX
8
1
10
542.282
20
-1108.58
0
VERTEX
8
1
10
542.164
20
-1103.731
0
VERTEX
8
1
10
541.822
20
-1099.144
0
VERTEX
8
1
10
541.276
20
-1094.805
0
VERTEX
8
1
10
540.257
20
-1089.365
0
VERTEX
8
1
10
538.946
20
-1084.321
0
VERTEX
8
1
10
537.384
20
-1079.644
0
VERTEX
8
1
10
535.61
20
-1075.315
0
VERTEX
8
1
10
533.658
20
-1071.312
0
VERTEX
8
1
10
531.012
20
-1066.715
0
VERTEX
8
1
10
528.198
20
-1062.554
0
VERTEX
8
1
10
525.271
20
-1058.787
0
VERTEX
8
1
10
521.652
20
-1054.714
0
VERTEX
8
1
10
517.99
20
-1051.088
0
VERTEX
8
1
10
513.706
20
-1047.325
0
VERTEX
8
1
10
508.864
20
-1043.554
0
VERTEX
8
1
10
504.157
20
-1040.266
0
VERTEX
8
1
10
498.471
20
-1036.678
0
VERTEX
8
1
10
492.016
20
-1032.991
0
VERTEX
8
1
10
484.058
20
-1028.854
0
VERTEX
8
1
10
472.611
20
-1023.4
0
VERTEX
8
1
10
450.63
20
-1013.314
0
VERTEX
8
1
10
441.62
20
-1008.834
0
VERTEX
8
1
10
434.818
20
-1005.09
0
VERTEX
8
1
10
428.256
20
-1001.059
0
VERTEX
8
1
10
185.154
20
-1015.115
0
VERTEX
8
1
10
160.196
20
-1016.557
0
VERTEX
8
1
10
135.238
20
-1018
0
VERTEX
8
1
10
31.751
20
-1023.983
0
VERTEX
8
1
10
31.01
20
-1032.61
0
VERTEX
8
1
10
30.596
20
-1035.59
0
VERTEX
8
1
10
29.835
20
-1038.493
0
VERTEX
8
1
10
28.812
20
-1041.002
0
VERTEX
8
1
10
27.468
20
-1043.33
0
VERTEX
8
1
10
25.814
20
-1045.45
0
VERTEX
8
1
10
23.769
20
-1047.455
0
VERTEX
8
1
10
21.286
20
-1049.337
0
VERTEX
8
1
10
18.31
20
-1051.097
0
VERTEX
8
1
10
14.786
20
-1052.714
0
VERTEX
8
1
10
10.651
20
-1054.167
0
VERTEX
8
1
10
5.378
20
-1055.519
0
VERTEX
8
1
10
0.457
20
-1056.41
0
VERTEX
8
1
10
-5.685
20
-1057.134
0
VERTEX
8
1
10
-11.966
20
-1057.523
0
VERTEX
8
1
10
-19.381
20
-1057.613
0
VERTEX
8
1
10
-27.84
20
-1057.316
0
VERTEX
8
1
10
-37.19
20
-1056.582
0
VERTEX
8
1
10
-47.228
20
-1055.393
0
VERTEX
8
1
10
-57.718
20
-1053.774
0
VERTEX
8
1
10
-68.405
20
-1051.774
0
VERTEX
8
1
10
-79.861
20
-1049.279
0
VERTEX
8
1
10
-91.591
20
-1046.383
0
VERTEX
8
1
10
-104.384
20
-1042.852
0
VERTEX
8
1
10
-117.171
20
-1038.949
0
VERTEX
8
1
10
-129.019
20
-1035
0
VERTEX
8
1
10
-141.789
20
-1030.373
0
VERTEX
8
1
10
-153.486
20
-1025.768
0
VERTEX
8
1
10
-167.44
20
-1019.74
0
VERTEX
8
1
10
-176.538
20
-1015.589
0
VERTEX
8
1
10
-188.601
20
-1042.493
0
VERTEX
8
1
10
-196.441
20
-1061.096
0
VERTEX
8
1
10
-203.929
20
-1079.84
0
VERTEX
8
1
10
-211.219
20
-1099.091
0
VERTEX
8
1
10
-218.255
20
-1118.702
0
VERTEX
8
1
10
-225.51
20
-1140.065
0
VERTEX
8
1
10
-232.607
20
-1162.213
0
VERTEX
8
1
10
-239.435
20
-1184.777
0
VERTEX
8
1
10
-247.866
20
-1214.4
0
VERTEX
8
1
10
-229.368
20
-1219.729
0
VERTEX
8
1
10
-221.517
20
-1222.402
0
VERTEX
8
1
10
-213.729
20
-1225.429
0
VERTEX
8
1
10
-206.96
20
-1228.435
0
VERTEX
8
1
10
-201.088
20
-1231.391
0
VERTEX
8
1
10
-195.46
20
-1234.606
0
VERTEX
8
1
10
-190.22
20
-1238.029
0
VERTEX
8
1
10
-186.226
20
-1240.997
0
VERTEX
8
1
10
-182.196
20
-1244.403
0
VERTEX
8
1
10
-178.896
20
-1247.604
0
VERTEX
8
1
10
-175.767
20
-1251.104
0
VERTEX
8
1
10
-172.96
20
-1254.792
0
VERTEX
8
1
10
-170.56
20
-1258.554
0
VERTEX
8
1
10
-168.601
20
-1262.283
0
VERTEX
8
1
10
-166.944
20
-1266.207
0
VERTEX
8
1
10
-165.676
20
-1270.087
0
VERTEX
8
1
10
-164.701
20
-1274.157
0
VERTEX
8
1
10
-164.056
20
-1278.239
0
VERTEX
8
1
10
-163.692
20
-1282.696
0
VERTEX
8
1
10
-163.632
20
-1295.475
0
VERTEX
8
1
10
-69.866
20
-1295.473
0
SEQEND
8
1
0
POINT
8
4
10
-69.866
20
-1295.473
30
10
50
90
0
POINT
8
2
10
-69.866
20
-1295.473
0
TEXT
8
2
10
-69.866
20
-1295.473
40
10.00
1
#129
0
POINT
8
2
10
542.282
20
-1295.467
0
TEXT
8
2
10
542.282
20
-1295.467
40
10.00
1
#130
0
POINT
8
2
10
542.282
20
-1245.467
0
TEXT
8
2
10
542.282
20
-1245.467
40
10.00
1
#131
0
POINT
8
4
10
542.282
20
-1108.58
30
10
50
180
0
POINT
8
2
10
542.282
20
-1108.58
0
TEXT
8
2
10
542.282
20
-1108.58
40
10.00
1
#132
0
POINT
8
3
10
542.164
20
-1103.731
0
POINT
8
3
10
541.822
20
-1099.144
0
POINT
8
3
10
541.276
20
-1094.805
0
POINT
8
3
10
540.257
20
-1089.365
0
POINT
8
3
10
538.946
20
-1084.321
0
POINT
8
3
10
537.384
20
-1079.644
0
POINT
8
3
10
535.61
20
-1075.315
0
POINT
8
3
10
533.658
20
-1071.312
0
POINT
8
3
10
531.012
20
-1066.715
0
POINT
8
3
10
528.198
20
-1062.554
0
POINT
8
3
10
525.271
20
-1058.787
0
POINT
8
3
10
521.652
20
-1054.714
0
POINT
8
3
10
517.99
20
-1051.088
0
POINT
8
3
10
513.706
20
-1047.325
0
POINT
8
3
10
508.864
20
-1043.554
0
POINT
8
3
10
504.157
20
-1040.266
0
POINT
8
3
10
498.471
20
-1036.678
0
POINT
8
3
10
492.016
20
-1032.991
0
POINT
8
3
10
484.058
20
-1028.854
0
POINT
8
3
10
472.611
20
-1023.4
0
POINT
8
3
10
450.63
20
-1013.314
0
POINT
8
3
10
441.62
20
-1008.834
0
POINT
8
3
10
434.818
20
-1005.09
0
POINT
8
4
10
428.256
20
-1001.059
30
10
50
255.58017823454
0
POINT
8
2
10
428.256
20
-1001.059
0
TEXT
8
2
10
428.256
20
-1001.059
40
10.00
1
#133
0
POINT
8
4
10
185.154
20
-1015.115
30
10
50
273.313636142558
0
POINT
8
2
10
185.154
20
-1015.115
0
TEXT
8
2
10
185.154
20
-1015.115
40
10.00
1
#134
0
POINT
8
2
10
160.196
20
-1016.557
0
TEXT
8
2
10
160.196
20
-1016.557
40
10.00
1
#135
0
POINT
8
4
10
135.238
20
-1018
30
10
50
273.313304987377
0
POINT
8
2
10
135.238
20
-1018
0
TEXT
8
2
10
135.238
20
-1018
40
10.00
1
#136
0
POINT
8
2
10
31.751
20
-1023.983
0
TEXT
8
2
10
31.751
20
-1023.983
40
10.00
1
#137
0
POINT
8
3
10
31.01
20
-1032.61
0
POINT
8
3
10
30.596
20
-1035.59
0
POINT
8
3
10
29.835
20
-1038.493
0
POINT
8
3
10
28.812
20
-1041.002
0
POINT
8
3
10
27.468
20
-1043.33
0
POINT
8
3
10
25.814
20
-1045.45
0
POINT
8
3
10
23.769
20
-1047.455
0
POINT
8
3
10
21.286
20
-1049.337
0
POINT
8
3
10
18.31
20
-1051.097
0
POINT
8
3
10
14.786
20
-1052.714
0
POINT
8
3
10
10.651
20
-1054.167
0
POINT
8
4
10
5.378
20
-1055.519
30
10
50
282.086354058874
0
POINT
8
2
10
5.378
20
-1055.519
0
TEXT
8
2
10
5.378
20
-1055.519
40
10.00
1
#138
0
POINT
8
3
10
0.457
20
-1056.41
0
POINT
8
3
10
-5.685
20
-1057.134
0
POINT
8
3
10
-11.966
20
-1057.523
0
POINT
8
3
10
-19.381
20
-1057.613
0
POINT
8
3
10
-27.84
20
-1057.316
0
POINT
8
3
10
-37.19
20
-1056.582
0
POINT
8
3
10
-47.228
20
-1055.393
0
POINT
8
3
10
-57.718
20
-1053.774
0
POINT
8
3
10
-68.405
20
-1051.774
0
POINT
8
3
10
-79.861
20
-1049.279
0
POINT
8
3
10
-91.591
20
-1046.383
0
POINT
8
3
10
-104.384
20
-1042.852
0
POINT
8
3
10
-117.171
20
-1038.949
0
POINT
8
3
10
-129.019
20
-1035
0
POINT
8
3
10
-141.789
20
-1030.373
0
POINT
8
3
10
-153.486
20
-1025.768
0
POINT
8
3
10
-167.44
20
-1019.74
0
POINT
8
2
10
-176.538
20
-1015.589
0
TEXT
8
2
10
-176.538
20
-1015.589
40
10.00
1
#139
0
POINT
8
3
10
-188.601
20
-1042.493
0
POINT
8
3
10
-196.441
20
-1061.096
0
POINT
8
3
10
-203.929
20
-1079.84
0
POINT
8
3
10
-211.219
20
-1099.091
0
POINT
8
3
10
-218.255
20
-1118.702
0
POINT
8
3
10
-225.51
20
-1140.065
0
POINT
8
3
10
-232.607
20
-1162.213
0
POINT
8
3
10
-239.435
20
-1184.777
0
POINT
8
2
10
-247.866
20
-1214.4
0
TEXT
8
2
10
-247.866
20
-1214.4
40
10.00
1
#140
0
POINT
8
3
10
-229.368
20
-1219.729
0
POINT
8
3
10
-221.517
20
-1222.402
0
POINT
8
3
10
-213.729
20
-1225.429
0
POINT
8
3
10
-206.96
20
-1228.435
0
POINT
8
3
10
-201.088
20
-1231.391
0
POINT
8
3
10
-195.46
20
-1234.606
0
POINT
8
3
10
-190.22
20
-1238.029
0
POINT
8
3
10
-186.226
20
-1240.997
0
POINT
8
3
10
-182.196
20
-1244.403
0
POINT
8
3
10
-178.896
20
-1247.604
0
POINT
8
3
10
-175.767
20
-1251.104
0
POINT
8
3
10
-172.96
20
-1254.792
0
POINT
8
3
10
-170.56
20
-1258.554
0
POINT
8
3
10
-168.601
20
-1262.283
0
POINT
8
3
10
-166.944
20
-1266.207
0
POINT
8
3
10
-165.676
20
-1270.087
0
POINT
8
3
10
-164.701
20
-1274.157
0
POINT
8
3
10
-164.056
20
-1278.239
0
POINT
8
3
10
-163.692
20
-1282.696
0
POINT
8
2
10
-163.632
20
-1295.475
0
TEXT
8
2
10
-163.632
20
-1295.475
40
10.00
1
#141
0
POINT
8
2
10
-69.866
20
-1295.473
0
TEXT
8
2
10
-69.866
20
-1295.473
40
10.00
1
#129
0
POLYLINE
8
8
66
1
70
1
0
VERTEX
8
8
10
232.582
20
-1230.514
0
VERTEX
8
8
10
417.582
20
-1230.514
0
VERTEX
8
8
10
417.581
20
-1065.514
0
VERTEX
8
8
10
232.582
20
-1065.514
0
VERTEX
8
8
10
232.582
20
-1230.514
0
SEQEND
8
8
0
POINT
8
2
10
232.582
20
-1230.514
0
TEXT
8
2
10
232.582
20
-1230.514
40
10.00
1
#142
0
POINT
8
2
10
417.582
20
-1230.514
0
TEXT
8
2
10
417.582
20
-1230.514
40
10.00
1
#143
0
POINT
8
2
10
417.581
20
-1065.514
0
TEXT
8
2
10
417.581
20
-1065.514
40
10.00
1
#144
0
POINT
8
2
10
232.582
20
-1065.514
0
TEXT
8
2
10
232.582
20
-1065.514
40
10.00
1
#145
0
LINE
8
7
10
214.66
20
-1195.762
11
14.66
21
-1195.762
0
POINT
8
2
10
214.66
20
-1195.762
0
TEXT
8
2
10
214.66
20
-1195.762
40
10.00
1
#1
0
POINT
8
2
10
14.66
20
-1195.762
0
TEXT
8
2
10
14.66
20
-1195.762
40
10.00
1
#1
0
TEXT
8
1
10
14.66
20
-1184.762
40
10.00
1
PIECE NAME: ON2CZFY1
0
TEXT
8
1
10
14.66
20
-1173.762
40
10.00
1
SIZE: 1
0
TEXT
8
1
10
14.66
20
-1162.762
40
10.00
1
ANNOTATION: 
0
TEXT
8
1
10
14.66
20
-1151.762
40
10.00
1
QUANTITY: 1
0
TEXT
8
1
10
14.66
20
-1140.762
40
10.00
1
MATERIAL: ÇÝZÝM
0
ENDBLK
0
ENDSEC
0
SECTION
2
ENTITIES
0
INSERT
8
1
2
0
10
0
20
0
0
INSERT
8
1
2
1
10
0
20
0
0
INSERT
8
1
2
2
10
0
20
0
0
INSERT
8
1
2
3
10
0
20
0
0
INSERT
8
1
2
4
10
0
20
0
0
INSERT
8
1
2
5
10
0
20
0
0
INSERT
8
1
2
6
10
0
20
0
0
INSERT
8
1
2
7
10
0
20
0
0
INSERT
8
1
2
8
10
0
20
0
0
INSERT
8
1
2
9
10
0
20
0
0
INSERT
8
1
2
10
10
0
20
0
0
INSERT
8
1
2
11
10
0
20
0
0
INSERT
8
1
2
12
10
0
20
0
0
INSERT
8
1
2
13
10
0
20
0
0
INSERT
8
1
2
14
10
0
20
0
0
INSERT
8
1
2
15
10
0
20
0
0
TEXT
8
1
10
-247.866
20
-1631.682
40
10.00
1
STYLE NAME: 262-3060 KB-ÇÝN
0
TEXT
8
1
10
-247.866
20
-1642.682
40
10.00
1
CREATION DATE: 20-02-2026
0
TEXT
8
1
10
-247.866
20
-1653.682
40
10.00
1
CREATION TIME: 12:42:22
0
TEXT
8
1
10
-247.866
20
-1664.682
40
10.00
1
AUTHOR: GEMINI CAD SYSTEMS
0
TEXT
8
1
10
-247.866
20
-1675.682
40
10.00
1
PRODUCT: GEMINI PATTERN DESIGNER
0
TEXT
8
1
10
-247.866
20
-1686.682
40
10.00
1
SAMPLE SIZE: 1
0
TEXT
8
1
10
-247.866
20
-1697.682
40
10.00
1
GRADE RULE TABLE: 262-3060 KB-ÇÝN
0
TEXT
8
1
10
-247.866
20
-1708.682
40
10.00
1
UNITS: METRIC
0
ENDSEC
0
EOF
