0
SECTION
2
HEADER
9
$LUNITS
70
2
9
$INSUNITS
70
4
0
ENDSEC
0
SECTION
2
BLOCKS
0
BLOCK
8
0
2
0
70
0
10
0.0000
20
0.0000
0
POLYLINE
8
1
66
1
70
1
0
VERTEX
8
1
10
794.518
20
-1849.367
0
VERTEX
8
1
10
1394.518
20
-1849.367
0
VERTEX
8
1
10
1394.518
20
-1809.367
0
VERTEX
8
1
10
794.518
20
-1809.367
0
VERTEX
8
1
10
794.518
20
-1849.367
0
SEQEND
8
1
0
POINT
8
2
10
794.518
20
-1849.367
0
TEXT
8
2
10
794.518
20
-1849.367
40
10.00
1
#311
0
POINT
8
2
10
1394.518
20
-1849.367
0
TEXT
8
2
10
1394.518
20
-1849.367
40
10.00
1
#312
0
POINT
8
2
10
1394.518
20
-1809.367
0
TEXT
8
2
10
1394.518
20
-1809.367
40
10.00
1
#313
0
POINT
8
2
10
794.518
20
-1809.367
0
TEXT
8
2
10
794.518
20
-1809.367
40
10.00
1
#314
0
POINT
8
2
10
794.518
20
-1849.367
0
TEXT
8
2
10
794.518
20
-1849.367
40
10.00
1
#311
0
LINE
8
7
10
994.518
20
-1824.367
11
894.518
21
-1824.367
0
POINT
8
2
10
994.518
20
-1824.367
0
TEXT
8
2
10
994.518
20
-1824.367
40
10.00
1
#1
0
POINT
8
2
10
894.518
20
-1824.367
0
TEXT
8
2
10
894.518
20
-1824.367
40
10.00
1
#1
0
TEXT
8
1
10
894.518
20
-1813.367
40
10.00
1
PIECE NAME: KOPRULUK
0
TEXT
8
1
10
894.518
20
-1802.367
40
10.00
1
SIZE: 1
0
TEXT
8
1
10
894.518
20
-1791.367
40
10.00
1
ANNOTATION: 
0
TEXT
8
1
10
894.518
20
-1780.367
40
10.00
1
QUANTITY: 1
0
TEXT
8
1
10
894.518
20
-1769.367
40
10.00
1
MATERIAL: KUMAS
0
ENDBLK
0
BLOCK
8
0
2
1
70
0
10
0.0000
20
0.0000
0
POLYLINE
8
1
66
1
70
1
0
VERTEX
8
1
10
3484.231
20
-828.367
0
VERTEX
8
1
10
3484.032
20
-852.298
0
VERTEX
8
1
10
3485.611
20
-893.481
0
VERTEX
8
1
10
3486.827
20
-909.179
0
VERTEX
8
1
10
3489.536
20
-925.003
0
VERTEX
8
1
10
3493.61
20
-939.613
0
VERTEX
8
1
10
3498.985
20
-953.077
0
VERTEX
8
1
10
3505.632
20
-965.485
0
VERTEX
8
1
10
3513.545
20
-976.898
0
VERTEX
8
1
10
3522.742
20
-987.356
0
VERTEX
8
1
10
3533.26
20
-996.879
0
VERTEX
8
1
10
3545.148
20
-1005.456
0
VERTEX
8
1
10
3558.471
20
-1013.059
0
VERTEX
8
1
10
3573.331
20
-1019.653
0
VERTEX
8
1
10
3589.73
20
-1025.127
0
VERTEX
8
1
10
3607.688
20
-1029.388
0
VERTEX
8
1
10
3627.251
20
-1032.336
0
VERTEX
8
1
10
3648.318
20
-1033.843
0
VERTEX
8
1
10
3670.751
20
-1033.8
0
VERTEX
8
1
10
3682.585
20
-1032.94
0
VERTEX
8
1
10
3699.201
20
-1030.334
0
VERTEX
8
1
10
3715.434
20
-1026.183
0
VERTEX
8
1
10
3730.57
20
-1020.711
0
VERTEX
8
1
10
3744.067
20
-1014.207
0
VERTEX
8
1
10
3755.516
20
-1007.013
0
VERTEX
8
1
10
3764.786
20
-999.422
0
VERTEX
8
1
10
3771.947
20
-991.629
0
VERTEX
8
1
10
3777.114
20
-983.788
0
VERTEX
8
1
10
3780.471
20
-975.947
0
VERTEX
8
1
10
3782.164
20
-968.058
0
VERTEX
8
1
10
3782.257
20
-960.09
0
VERTEX
8
1
10
3780.726
20
-951.931
0
VERTEX
8
1
10
3777.456
20
-943.503
0
VERTEX
8
1
10
3772.228
20
-934.716
0
VERTEX
8
1
10
3764.773
20
-925.532
0
VERTEX
8
1
10
3754.74
20
-915.91
0
VERTEX
8
1
10
3741.737
20
-905.845
0
VERTEX
8
1
10
3736.855
20
-902.285
0
VERTEX
8
1
10
3727.331
20
-894.172
0
VERTEX
8
1
10
3721.309
20
-887.212
0
VERTEX
8
1
10
3717.463
20
-880.496
0
VERTEX
8
1
10
3715.097
20
-873.096
0
VERTEX
8
1
10
3713.922
20
-863.349
0
VERTEX
8
1
10
3714.228
20
-828.367
0
VERTEX
8
1
10
3714.174
20
-808.211
0
VERTEX
8
1
10
3684.318
20
-808.259
0
VERTEX
8
1
10
3683.574
20
-808.255
0
VERTEX
8
1
10
3514.162
20
-808.265
0
VERTEX
8
1
10
3484.274
20
-808.365
0
VERTEX
8
1
10
3484.231
20
-828.367
0
SEQEND
8
1
0
POINT
8
2
10
3484.231
20
-828.367
0
TEXT
8
2
10
3484.231
20
-828.367
40
10.00
1
#315
0
POINT
8
3
10
3484.032
20
-852.298
0
POINT
8
3
10
3485.611
20
-893.481
0
POINT
8
3
10
3486.827
20
-909.179
0
POINT
8
3
10
3489.536
20
-925.003
0
POINT
8
3
10
3493.61
20
-939.613
0
POINT
8
3
10
3498.985
20
-953.077
0
POINT
8
3
10
3505.632
20
-965.485
0
POINT
8
3
10
3513.545
20
-976.898
0
POINT
8
3
10
3522.742
20
-987.356
0
POINT
8
3
10
3533.26
20
-996.879
0
POINT
8
3
10
3545.148
20
-1005.456
0
POINT
8
3
10
3558.471
20
-1013.059
0
POINT
8
3
10
3573.331
20
-1019.653
0
POINT
8
3
10
3589.73
20
-1025.127
0
POINT
8
3
10
3607.688
20
-1029.388
0
POINT
8
3
10
3627.251
20
-1032.336
0
POINT
8
3
10
3648.318
20
-1033.843
0
POINT
8
3
10
3670.751
20
-1033.8
0
POINT
8
3
10
3682.585
20
-1032.94
0
POINT
8
3
10
3699.201
20
-1030.334
0
POINT
8
3
10
3715.434
20
-1026.183
0
POINT
8
3
10
3730.57
20
-1020.711
0
POINT
8
3
10
3744.067
20
-1014.207
0
POINT
8
3
10
3755.516
20
-1007.013
0
POINT
8
3
10
3764.786
20
-999.422
0
POINT
8
3
10
3771.947
20
-991.629
0
POINT
8
3
10
3777.114
20
-983.788
0
POINT
8
3
10
3780.471
20
-975.947
0
POINT
8
3
10
3782.164
20
-968.058
0
POINT
8
3
10
3782.257
20
-960.09
0
POINT
8
3
10
3780.726
20
-951.931
0
POINT
8
3
10
3777.456
20
-943.503
0
POINT
8
3
10
3772.228
20
-934.716
0
POINT
8
3
10
3764.773
20
-925.532
0
POINT
8
3
10
3754.74
20
-915.91
0
POINT
8
3
10
3741.737
20
-905.845
0
POINT
8
3
10
3736.855
20
-902.285
0
POINT
8
3
10
3727.331
20
-894.172
0
POINT
8
3
10
3721.309
20
-887.212
0
POINT
8
3
10
3717.463
20
-880.496
0
POINT
8
3
10
3715.097
20
-873.096
0
POINT
8
3
10
3713.922
20
-863.349
0
POINT
8
2
10
3714.228
20
-828.367
0
TEXT
8
2
10
3714.228
20
-828.367
40
10.00
1
#316
0
POINT
8
2
10
3714.174
20
-808.211
0
TEXT
8
2
10
3714.174
20
-808.211
40
10.00
1
#317
0
POINT
8
4
10
3684.318
20
-808.259
30
10
50
269.914047799979
0
POINT
8
2
10
3684.318
20
-808.259
0
TEXT
8
2
10
3684.318
20
-808.259
40
10.00
1
#318
0
POINT
8
3
10
3683.574
20
-808.255
0
POINT
8
4
10
3514.162
20
-808.265
30
10
50
270.234911379724
0
POINT
8
2
10
3514.162
20
-808.265
0
TEXT
8
2
10
3514.162
20
-808.265
40
10.00
1
#319
0
POINT
8
2
10
3484.274
20
-808.365
0
TEXT
8
2
10
3484.274
20
-808.365
40
10.00
1
#320
0
POINT
8
2
10
3484.231
20
-828.367
0
TEXT
8
2
10
3484.231
20
-828.367
40
10.00
1
#315
0
LINE
8
7
10
3651.34
20
-918.061
11
3572.432
21
-918.061
0
POINT
8
2
10
3651.34
20
-918.061
0
TEXT
8
2
10
3651.34
20
-918.061
40
10.00
1
#1
0
POINT
8
2
10
3572.432
20
-918.061
0
TEXT
8
2
10
3572.432
20
-918.061
40
10.00
1
#1
0
TEXT
8
1
10
3572.432
20
-907.061
40
10.00
1
PIECE NAME: CPTOR
0
TEXT
8
1
10
3572.432
20
-896.061
40
10.00
1
SIZE: 1
0
TEXT
8
1
10
3572.432
20
-885.061
40
10.00
1
ANNOTATION: 
0
TEXT
8
1
10
3572.432
20
-874.061
40
10.00
1
QUANTITY: 1
0
TEXT
8
1
10
3572.432
20
-863.061
40
10.00
1
MATERIAL: ASTAR
0
ENDBLK
0
BLOCK
8
0
2
2
70
0
10
0.0000
20
0.0000
0
POLYLINE
8
1
66
1
70
1
0
VERTEX
8
1
10
3484.274
20
-1033.689
0
VERTEX
8
1
10
3514.162
20
-1033.789
0
VERTEX
8
1
10
3683.574
20
-1033.799
0
VERTEX
8
1
10
3684.318
20
-1033.795
0
VERTEX
8
1
10
3714.174
20
-1033.843
0
VERTEX
8
1
10
3714.228
20
-1013.687
0
VERTEX
8
1
10
3713.922
20
-978.705
0
VERTEX
8
1
10
3715.097
20
-968.958
0
VERTEX
8
1
10
3717.463
20
-961.558
0
VERTEX
8
1
10
3721.309
20
-954.842
0
VERTEX
8
1
10
3727.331
20
-947.882
0
VERTEX
8
1
10
3736.855
20
-939.769
0
VERTEX
8
1
10
3741.737
20
-936.209
0
VERTEX
8
1
10
3754.74
20
-926.144
0
VERTEX
8
1
10
3764.773
20
-916.522
0
VERTEX
8
1
10
3772.228
20
-907.338
0
VERTEX
8
1
10
3777.456
20
-898.551
0
VERTEX
8
1
10
3780.726
20
-890.123
0
VERTEX
8
1
10
3782.257
20
-881.964
0
VERTEX
8
1
10
3782.164
20
-873.996
0
VERTEX
8
1
10
3780.471
20
-866.107
0
VERTEX
8
1
10
3777.114
20
-858.266
0
VERTEX
8
1
10
3771.947
20
-850.425
0
VERTEX
8
1
10
3764.786
20
-842.632
0
VERTEX
8
1
10
3755.516
20
-835.041
0
VERTEX
8
1
10
3744.067
20
-827.847
0
VERTEX
8
1
10
3730.57
20
-821.343
0
VERTEX
8
1
10
3715.434
20
-815.871
0
VERTEX
8
1
10
3699.201
20
-811.72
0
VERTEX
8
1
10
3682.585
20
-809.114
0
VERTEX
8
1
10
3670.751
20
-808.254
0
VERTEX
8
1
10
3648.318
20
-808.211
0
VERTEX
8
1
10
3627.251
20
-809.718
0
VERTEX
8
1
10
3607.688
20
-812.666
0
VERTEX
8
1
10
3589.73
20
-816.927
0
VERTEX
8
1
10
3573.331
20
-822.401
0
VERTEX
8
1
10
3558.471
20
-828.995
0
VERTEX
8
1
10
3545.148
20
-836.598
0
VERTEX
8
1
10
3533.26
20
-845.175
0
VERTEX
8
1
10
3522.742
20
-854.698
0
VERTEX
8
1
10
3513.545
20
-865.156
0
VERTEX
8
1
10
3505.632
20
-876.569
0
VERTEX
8
1
10
3498.985
20
-888.977
0
VERTEX
8
1
10
3493.61
20
-902.441
0
VERTEX
8
1
10
3489.536
20
-917.051
0
VERTEX
8
1
10
3486.827
20
-932.875
0
VERTEX
8
1
10
3485.611
20
-948.573
0
VERTEX
8
1
10
3484.032
20
-989.756
0
VERTEX
8
1
10
3484.231
20
-1013.687
0
VERTEX
8
1
10
3484.274
20
-1033.689
0
SEQEND
8
1
0
POINT
8
2
10
3484.274
20
-1033.689
0
TEXT
8
2
10
3484.274
20
-1033.689
40
10.00
1
#6
0
POINT
8
4
10
3514.162
20
-1033.789
30
10
50
89.7650886202763
0
POINT
8
2
10
3514.162
20
-1033.789
0
TEXT
8
2
10
3514.162
20
-1033.789
40
10.00
1
#7
0
POINT
8
3
10
3683.574
20
-1033.799
0
POINT
8
4
10
3684.318
20
-1033.795
30
10
50
90.0859522000209
0
POINT
8
2
10
3684.318
20
-1033.795
0
TEXT
8
2
10
3684.318
20
-1033.795
40
10.00
1
#8
0
POINT
8
2
10
3714.174
20
-1033.843
0
TEXT
8
2
10
3714.174
20
-1033.843
40
10.00
1
#9
0
POINT
8
2
10
3714.228
20
-1013.687
0
TEXT
8
2
10
3714.228
20
-1013.687
40
10.00
1
#10
0
POINT
8
3
10
3713.922
20
-978.705
0
POINT
8
3
10
3715.097
20
-968.958
0
POINT
8
3
10
3717.463
20
-961.558
0
POINT
8
3
10
3721.309
20
-954.842
0
POINT
8
3
10
3727.331
20
-947.882
0
POINT
8
3
10
3736.855
20
-939.769
0
POINT
8
3
10
3741.737
20
-936.209
0
POINT
8
3
10
3754.74
20
-926.144
0
POINT
8
3
10
3764.773
20
-916.522
0
POINT
8
3
10
3772.228
20
-907.338
0
POINT
8
3
10
3777.456
20
-898.551
0
POINT
8
3
10
3780.726
20
-890.123
0
POINT
8
3
10
3782.257
20
-881.964
0
POINT
8
3
10
3782.164
20
-873.996
0
POINT
8
3
10
3780.471
20
-866.107
0
POINT
8
3
10
3777.114
20
-858.266
0
POINT
8
3
10
3771.947
20
-850.425
0
POINT
8
3
10
3764.786
20
-842.632
0
POINT
8
3
10
3755.516
20
-835.041
0
POINT
8
3
10
3744.067
20
-827.847
0
POINT
8
3
10
3730.57
20
-821.343
0
POINT
8
3
10
3715.434
20
-815.871
0
POINT
8
3
10
3699.201
20
-811.72
0
POINT
8
3
10
3682.585
20
-809.114
0
POINT
8
3
10
3670.751
20
-808.254
0
POINT
8
3
10
3648.318
20
-808.211
0
POINT
8
3
10
3627.251
20
-809.718
0
POINT
8
3
10
3607.688
20
-812.666
0
POINT
8
3
10
3589.73
20
-816.927
0
POINT
8
3
10
3573.331
20
-822.401
0
POINT
8
3
10
3558.471
20
-828.995
0
POINT
8
3
10
3545.148
20
-836.598
0
POINT
8
3
10
3533.26
20
-845.175
0
POINT
8
3
10
3522.742
20
-854.698
0
POINT
8
3
10
3513.545
20
-865.156
0
POINT
8
3
10
3505.632
20
-876.569
0
POINT
8
3
10
3498.985
20
-888.977
0
POINT
8
3
10
3493.61
20
-902.441
0
POINT
8
3
10
3489.536
20
-917.051
0
POINT
8
3
10
3486.827
20
-932.875
0
POINT
8
3
10
3485.611
20
-948.573
0
POINT
8
3
10
3484.032
20
-989.756
0
POINT
8
2
10
3484.231
20
-1013.687
0
TEXT
8
2
10
3484.231
20
-1013.687
40
10.00
1
#11
0
POINT
8
2
10
3484.274
20
-1033.689
0
TEXT
8
2
10
3484.274
20
-1033.689
40
10.00
1
#6
0
LINE
8
7
10
3651.34
20
-923.993
11
3572.432
21
-923.993
0
POINT
8
2
10
3651.34
20
-923.993
0
TEXT
8
2
10
3651.34
20
-923.993
40
10.00
1
#1
0
POINT
8
2
10
3572.432
20
-923.993
0
TEXT
8
2
10
3572.432
20
-923.993
40
10.00
1
#1
0
TEXT
8
1
10
3572.432
20
-912.993
40
10.00
1
PIECE NAME: CPTORFY1
0
TEXT
8
1
10
3572.432
20
-901.993
40
10.00
1
SIZE: 1
0
TEXT
8
1
10
3572.432
20
-890.993
40
10.00
1
ANNOTATION: 
0
TEXT
8
1
10
3572.432
20
-879.993
40
10.00
1
QUANTITY: 1
0
TEXT
8
1
10
3572.432
20
-868.993
40
10.00
1
MATERIAL: ASTAR
0
ENDBLK
0
BLOCK
8
0
2
3
70
0
10
0.0000
20
0.0000
0
POLYLINE
8
1
66
1
70
1
0
VERTEX
8
1
10
812.144
20
-1733.966
0
VERTEX
8
1
10
1022.144
20
-1733.966
0
VERTEX
8
1
10
1022.144
20
-1653.966
0
VERTEX
8
1
10
812.144
20
-1653.966
0
VERTEX
8
1
10
812.144
20
-1733.966
0
SEQEND
8
1
0
POINT
8
2
10
812.144
20
-1733.966
0
TEXT
8
2
10
812.144
20
-1733.966
40
10.00
1
#323
0
POINT
8
2
10
1022.144
20
-1733.966
0
TEXT
8
2
10
1022.144
20
-1733.966
40
10.00
1
#324
0
POINT
8
2
10
1022.144
20
-1653.966
0
TEXT
8
2
10
1022.144
20
-1653.966
40
10.00
1
#325
0
POINT
8
2
10
812.144
20
-1653.966
0
TEXT
8
2
10
812.144
20
-1653.966
40
10.00
1
#326
0
POINT
8
2
10
812.144
20
-1733.966
0
TEXT
8
2
10
812.144
20
-1733.966
40
10.00
1
#323
0
LINE
8
7
10
945.477
20
-1683.966
11
878.81
21
-1683.966
0
POINT
8
2
10
945.477
20
-1683.966
0
TEXT
8
2
10
945.477
20
-1683.966
40
10.00
1
#1
0
POINT
8
2
10
878.81
20
-1683.966
0
TEXT
8
2
10
878.81
20
-1683.966
40
10.00
1
#1
0
TEXT
8
8
10
837.524
20
-1710.452
11
890.29
21
-1665.874
40
10.00
50
319.808063207093
1
2 ADET
0
TEXT
8
1
10
878.81
20
-1672.966
40
10.00
1
PIECE NAME: KARSILIK
0
TEXT
8
1
10
878.81
20
-1661.966
40
10.00
1
SIZE: 1
0
TEXT
8
1
10
878.81
20
-1650.966
40
10.00
1
ANNOTATION: 
0
TEXT
8
1
10
878.81
20
-1639.966
40
10.00
1
QUANTITY: 1
0
TEXT
8
1
10
878.81
20
-1628.966
40
10.00
1
MATERIAL: KUMAS
0
ENDBLK
0
BLOCK
8
0
2
4
70
0
10
0.0000
20
0.0000
0
POLYLINE
8
1
66
1
70
1
0
VERTEX
8
1
10
1048.051
20
-1695.262
0
VERTEX
8
1
10
1048.051
20
-1770.262
0
VERTEX
8
1
10
1258.051
20
-1770.262
0
VERTEX
8
1
10
1258.051
20
-1695.262
0
VERTEX
8
1
10
1258.051
20
-1620.262
0
VERTEX
8
1
10
1048.051
20
-1620.262
0
VERTEX
8
1
10
1048.051
20
-1695.262
0
SEQEND
8
1
0
POINT
8
4
10
1048.051
20
-1695.262
30
10
50
0
0
POINT
8
2
10
1048.051
20
-1695.262
0
TEXT
8
2
10
1048.051
20
-1695.262
40
10.00
1
#327
0
POINT
8
2
10
1048.051
20
-1770.262
0
TEXT
8
2
10
1048.051
20
-1770.262
40
10.00
1
#328
0
POINT
8
2
10
1258.051
20
-1770.262
0
TEXT
8
2
10
1258.051
20
-1770.262
40
10.00
1
#329
0
POINT
8
4
10
1258.051
20
-1695.262
30
10
50
180
0
POINT
8
2
10
1258.051
20
-1695.262
0
TEXT
8
2
10
1258.051
20
-1695.262
40
10.00
1
#330
0
POINT
8
2
10
1258.051
20
-1620.262
0
TEXT
8
2
10
1258.051
20
-1620.262
40
10.00
1
#331
0
POINT
8
2
10
1048.051
20
-1620.262
0
TEXT
8
2
10
1048.051
20
-1620.262
40
10.00
1
#332
0
POINT
8
2
10
1048.051
20
-1695.262
0
TEXT
8
2
10
1048.051
20
-1695.262
40
10.00
1
#327
0
LINE
8
7
10
1181.385
20
-1695.262
11
1114.718
21
-1695.262
0
POINT
8
2
10
1181.385
20
-1695.262
0
TEXT
8
2
10
1181.385
20
-1695.262
40
10.00
1
#1
0
POINT
8
2
10
1114.718
20
-1695.262
0
TEXT
8
2
10
1114.718
20
-1695.262
40
10.00
1
#1
0
TEXT
8
8
10
1146.851
20
-1736.862
11
1209.802
21
-1731.259
40
10.00
50
354.913749923525
1
2ADET
0
TEXT
8
1
10
1114.718
20
-1684.262
40
10.00
1
PIECE NAME: FLETO
0
TEXT
8
1
10
1114.718
20
-1673.262
40
10.00
1
SIZE: 1
0
TEXT
8
1
10
1114.718
20
-1662.262
40
10.00
1
ANNOTATION: 
0
TEXT
8
1
10
1114.718
20
-1651.262
40
10.00
1
QUANTITY: 1
0
TEXT
8
1
10
1114.718
20
-1640.262
40
10.00
1
MATERIAL: KUMAS
0
ENDBLK
0
BLOCK
8
0
2
5
70
0
10
0.0000
20
0.0000
0
POLYLINE
8
1
66
1
70
1
0
VERTEX
8
1
10
1350.587
20
-1096.094
0
VERTEX
8
1
10
1371.68
20
-1095.895
0
VERTEX
8
1
10
1398.512
20
-1097.104
0
VERTEX
8
1
10
1426.074
20
-1099.972
0
VERTEX
8
1
10
1454.328
20
-1104.546
0
VERTEX
8
1
10
1483.251
20
-1110.873
0
VERTEX
8
1
10
1512.818
20
-1119.004
0
VERTEX
8
1
10
1519.416
20
-1121.099
0
VERTEX
8
1
10
1546.695
20
-1130.654
0
VERTEX
8
1
10
1568.426
20
-1139.821
0
VERTEX
8
1
10
1586.884
20
-1149.242
0
VERTEX
8
1
10
1603.001
20
-1159.19
0
VERTEX
8
1
10
1607.932
20
-1162.585
0
VERTEX
8
1
10
1619.241
20
-1171.747
0
VERTEX
8
1
10
1629.47
20
-1182.083
0
VERTEX
8
1
10
1638.445
20
-1193.414
0
VERTEX
8
1
10
1646.006
20
-1205.511
0
VERTEX
8
1
10
1652.071
20
-1218.199
0
VERTEX
8
1
10
1656.581
20
-1231.298
0
VERTEX
8
1
10
2094.554
20
-1175.432
0
VERTEX
8
1
10
2154.565
20
-1182.885
0
VERTEX
8
1
10
2154.254
20
-994.773
0
VERTEX
8
1
10
2094.254
20
-994.97
0
VERTEX
8
1
10
2034.271
20
-994.972
0
VERTEX
8
1
10
1989.271
20
-994.972
0
VERTEX
8
1
10
1505.369
20
-994.972
0
VERTEX
8
1
10
1498.22
20
-994.885
0
VERTEX
8
1
10
1490.144
20
-995.107
0
VERTEX
8
1
10
1474.588
20
-996.699
0
VERTEX
8
1
10
1460.07
20
-999.749
0
VERTEX
8
1
10
1355.403
20
-1027.553
0
VERTEX
8
1
10
1357.538
20
-1033.388
0
VERTEX
8
1
10
1359.105
20
-1041.715
0
VERTEX
8
1
10
1359.106
20
-1050.488
0
VERTEX
8
1
10
1357.471
20
-1059.619
0
VERTEX
8
1
10
1354.143
20
-1068.886
0
VERTEX
8
1
10
1349.165
20
-1077.932
0
VERTEX
8
1
10
1342.74
20
-1086.287
0
VERTEX
8
1
10
1350.587
20
-1096.094
0
SEQEND
8
1
0
POINT
8
2
10
1350.587
20
-1096.094
0
TEXT
8
2
10
1350.587
20
-1096.094
40
10.00
1
#335
0
POINT
8
3
10
1371.68
20
-1095.895
0
POINT
8
3
10
1398.512
20
-1097.104
0
POINT
8
3
10
1426.074
20
-1099.972
0
POINT
8
3
10
1454.328
20
-1104.546
0
POINT
8
3
10
1483.251
20
-1110.873
0
POINT
8
4
10
1512.818
20
-1119.004
30
10
50
72.895164645907
0
POINT
8
2
10
1512.818
20
-1119.004
0
TEXT
8
2
10
1512.818
20
-1119.004
40
10.00
1
#336
0
POINT
8
3
10
1519.416
20
-1121.099
0
POINT
8
3
10
1546.695
20
-1130.654
0
POINT
8
3
10
1568.426
20
-1139.821
0
POINT
8
3
10
1586.884
20
-1149.242
0
POINT
8
4
10
1603.001
20
-1159.19
30
10
50
55.6711674879834
0
POINT
8
2
10
1603.001
20
-1159.19
0
TEXT
8
2
10
1603.001
20
-1159.19
40
10.00
1
#337
0
POINT
8
3
10
1607.932
20
-1162.585
0
POINT
8
3
10
1619.241
20
-1171.747
0
POINT
8
3
10
1629.47
20
-1182.083
0
POINT
8
3
10
1638.445
20
-1193.414
0
POINT
8
3
10
1646.006
20
-1205.511
0
POINT
8
3
10
1652.071
20
-1218.199
0
POINT
8
2
10
1656.581
20
-1231.298
0
TEXT
8
2
10
1656.581
20
-1231.298
40
10.00
1
#338
0
POINT
8
4
10
2094.554
20
-1175.432
30
10
50
90.0974027313426
0
POINT
8
2
10
2094.554
20
-1175.432
0
TEXT
8
2
10
2094.554
20
-1175.432
40
10.00
1
#339
0
POINT
8
2
10
2154.565
20
-1182.885
0
TEXT
8
2
10
2154.565
20
-1182.885
40
10.00
1
#340
0
POINT
8
2
10
2154.254
20
-994.773
0
TEXT
8
2
10
2154.254
20
-994.773
40
10.00
1
#341
0
POINT
8
4
10
2094.254
20
-994.97
30
10
50
270.097402731343
0
POINT
8
2
10
2094.254
20
-994.97
0
TEXT
8
2
10
2094.254
20
-994.97
40
10.00
1
#342
0
POINT
8
4
10
2034.271
20
-994.972
30
10
50
270
0
POINT
8
2
10
2034.271
20
-994.972
0
TEXT
8
2
10
2034.271
20
-994.972
40
10.00
1
#343
0
POINT
8
4
10
1989.271
20
-994.972
30
10
50
270
0
POINT
8
2
10
1989.271
20
-994.972
0
TEXT
8
2
10
1989.271
20
-994.972
40
10.00
1
#344
0
POINT
8
4
10
1505.369
20
-994.972
30
10
50
269.157644253533
0
POINT
8
2
10
1505.369
20
-994.972
0
TEXT
8
2
10
1505.369
20
-994.972
40
10.00
1
#345
0
POINT
8
3
10
1498.22
20
-994.885
0
POINT
8
3
10
1490.144
20
-995.107
0
POINT
8
3
10
1474.588
20
-996.699
0
POINT
8
4
10
1460.07
20
-999.749
30
10
50
284.881219899096
0
POINT
8
2
10
1460.07
20
-999.749
0
TEXT
8
2
10
1460.07
20
-999.749
40
10.00
1
#346
0
POINT
8
2
10
1355.403
20
-1027.553
0
TEXT
8
2
10
1355.403
20
-1027.553
40
10.00
1
#347
0
POINT
8
3
10
1357.538
20
-1033.388
0
POINT
8
3
10
1359.105
20
-1041.715
0
POINT
8
3
10
1359.106
20
-1050.488
0
POINT
8
3
10
1357.471
20
-1059.619
0
POINT
8
3
10
1354.143
20
-1068.886
0
POINT
8
3
10
1349.165
20
-1077.932
0
POINT
8
2
10
1342.74
20
-1086.287
0
TEXT
8
2
10
1342.74
20
-1086.287
40
10.00
1
#348
0
POINT
8
2
10
1350.587
20
-1096.094
0
TEXT
8
2
10
1350.587
20
-1096.094
40
10.00
1
#335
0
LINE
8
7
10
1849.283
20
-1067.362
11
1649.284
21
-1067.362
0
POINT
8
2
10
1849.283
20
-1067.362
0
TEXT
8
2
10
1849.283
20
-1067.362
40
10.00
1
#1
0
POINT
8
2
10
1649.284
20
-1067.362
0
TEXT
8
2
10
1649.284
20
-1067.362
40
10.00
1
#1
0
TEXT
8
1
10
1649.284
20
-1056.362
40
10.00
1
PIECE NAME: ARKAKOL
0
TEXT
8
1
10
1649.284
20
-1045.362
40
10.00
1
SIZE: 1
0
TEXT
8
1
10
1649.284
20
-1034.362
40
10.00
1
ANNOTATION: 
0
TEXT
8
1
10
1649.284
20
-1023.362
40
10.00
1
QUANTITY: 1
0
TEXT
8
1
10
1649.284
20
-1012.362
40
10.00
1
MATERIAL: KUMAS
0
ENDBLK
0
BLOCK
8
0
2
6
70
0
10
0.0000
20
0.0000
0
POLYLINE
8
1
66
1
70
1
0
VERTEX
8
1
10
1342.74
20
-1139.785
0
VERTEX
8
1
10
1349.165
20
-1148.14
0
VERTEX
8
1
10
1354.143
20
-1157.186
0
VERTEX
8
1
10
1357.471
20
-1166.453
0
VERTEX
8
1
10
1359.106
20
-1175.584
0
VERTEX
8
1
10
1359.105
20
-1184.357
0
VERTEX
8
1
10
1357.538
20
-1192.684
0
VERTEX
8
1
10
1355.403
20
-1198.519
0
VERTEX
8
1
10
1460.07
20
-1226.323
0
VERTEX
8
1
10
1474.588
20
-1229.373
0
VERTEX
8
1
10
1490.144
20
-1230.965
0
VERTEX
8
1
10
1498.22
20
-1231.187
0
VERTEX
8
1
10
1505.369
20
-1231.1
0
VERTEX
8
1
10
1989.271
20
-1231.1
0
VERTEX
8
1
10
2034.271
20
-1231.1
0
VERTEX
8
1
10
2094.254
20
-1231.102
0
VERTEX
8
1
10
2154.254
20
-1231.299
0
VERTEX
8
1
10
2154.565
20
-1043.187
0
VERTEX
8
1
10
2094.554
20
-1050.64
0
VERTEX
8
1
10
1656.581
20
-994.774
0
VERTEX
8
1
10
1652.071
20
-1007.873
0
VERTEX
8
1
10
1646.006
20
-1020.561
0
VERTEX
8
1
10
1638.445
20
-1032.658
0
VERTEX
8
1
10
1629.47
20
-1043.989
0
VERTEX
8
1
10
1619.241
20
-1054.325
0
VERTEX
8
1
10
1607.932
20
-1063.487
0
VERTEX
8
1
10
1603.001
20
-1066.882
0
VERTEX
8
1
10
1586.884
20
-1076.83
0
VERTEX
8
1
10
1568.426
20
-1086.251
0
VERTEX
8
1
10
1546.695
20
-1095.418
0
VERTEX
8
1
10
1519.416
20
-1104.973
0
VERTEX
8
1
10
1512.818
20
-1107.068
0
VERTEX
8
1
10
1483.251
20
-1115.199
0
VERTEX
8
1
10
1454.328
20
-1121.526
0
VERTEX
8
1
10
1426.074
20
-1126.1
0
VERTEX
8
1
10
1398.512
20
-1128.968
0
VERTEX
8
1
10
1371.68
20
-1130.177
0
VERTEX
8
1
10
1350.587
20
-1129.978
0
VERTEX
8
1
10
1342.74
20
-1139.785
0
SEQEND
8
1
0
POINT
8
2
10
1342.74
20
-1139.785
0
TEXT
8
2
10
1342.74
20
-1139.785
40
10.00
1
#26
0
POINT
8
3
10
1349.165
20
-1148.14
0
POINT
8
3
10
1354.143
20
-1157.186
0
POINT
8
3
10
1357.471
20
-1166.453
0
POINT
8
3
10
1359.106
20
-1175.584
0
POINT
8
3
10
1359.105
20
-1184.357
0
POINT
8
3
10
1357.538
20
-1192.684
0
POINT
8
2
10
1355.403
20
-1198.519
0
TEXT
8
2
10
1355.403
20
-1198.519
40
10.00
1
#27
0
POINT
8
4
10
1460.07
20
-1226.323
30
10
50
75.1187801009036
0
POINT
8
2
10
1460.07
20
-1226.323
0
TEXT
8
2
10
1460.07
20
-1226.323
40
10.00
1
#28
0
POINT
8
3
10
1474.588
20
-1229.373
0
POINT
8
3
10
1490.144
20
-1230.965
0
POINT
8
3
10
1498.22
20
-1231.187
0
POINT
8
4
10
1505.369
20
-1231.1
30
10
50
90.8423557464675
0
POINT
8
2
10
1505.369
20
-1231.1
0
TEXT
8
2
10
1505.369
20
-1231.1
40
10.00
1
#29
0
POINT
8
4
10
1989.271
20
-1231.1
30
10
50
90
0
POINT
8
2
10
1989.271
20
-1231.1
0
TEXT
8
2
10
1989.271
20
-1231.1
40
10.00
1
#30
0
POINT
8
4
10
2034.271
20
-1231.1
30
10
50
90
0
POINT
8
2
10
2034.271
20
-1231.1
0
TEXT
8
2
10
2034.271
20
-1231.1
40
10.00
1
#31
0
POINT
8
4
10
2094.254
20
-1231.102
30
10
50
89.9025972686574
0
POINT
8
2
10
2094.254
20
-1231.102
0
TEXT
8
2
10
2094.254
20
-1231.102
40
10.00
1
#32
0
POINT
8
2
10
2154.254
20
-1231.299
0
TEXT
8
2
10
2154.254
20
-1231.299
40
10.00
1
#33
0
POINT
8
2
10
2154.565
20
-1043.187
0
TEXT
8
2
10
2154.565
20
-1043.187
40
10.00
1
#34
0
POINT
8
4
10
2094.554
20
-1050.64
30
10
50
269.902597268657
0
POINT
8
2
10
2094.554
20
-1050.64
0
TEXT
8
2
10
2094.554
20
-1050.64
40
10.00
1
#35
0
POINT
8
2
10
1656.581
20
-994.774
0
TEXT
8
2
10
1656.581
20
-994.774
40
10.00
1
#36
0
POINT
8
3
10
1652.071
20
-1007.873
0
POINT
8
3
10
1646.006
20
-1020.561
0
POINT
8
3
10
1638.445
20
-1032.658
0
POINT
8
3
10
1629.47
20
-1043.989
0
POINT
8
3
10
1619.241
20
-1054.325
0
POINT
8
3
10
1607.932
20
-1063.487
0
POINT
8
4
10
1603.001
20
-1066.882
30
10
50
304.328832512017
0
POINT
8
2
10
1603.001
20
-1066.882
0
TEXT
8
2
10
1603.001
20
-1066.882
40
10.00
1
#37
0
POINT
8
3
10
1586.884
20
-1076.83
0
POINT
8
3
10
1568.426
20
-1086.251
0
POINT
8
3
10
1546.695
20
-1095.418
0
POINT
8
3
10
1519.416
20
-1104.973
0
POINT
8
4
10
1512.818
20
-1107.068
30
10
50
287.104835354093
0
POINT
8
2
10
1512.818
20
-1107.068
0
TEXT
8
2
10
1512.818
20
-1107.068
40
10.00
1
#38
0
POINT
8
3
10
1483.251
20
-1115.199
0
POINT
8
3
10
1454.328
20
-1121.526
0
POINT
8
3
10
1426.074
20
-1126.1
0
POINT
8
3
10
1398.512
20
-1128.968
0
POINT
8
3
10
1371.68
20
-1130.177
0
POINT
8
2
10
1350.587
20
-1129.978
0
TEXT
8
2
10
1350.587
20
-1129.978
40
10.00
1
#39
0
POINT
8
2
10
1342.74
20
-1139.785
0
TEXT
8
2
10
1342.74
20
-1139.785
40
10.00
1
#26
0
LINE
8
7
10
1849.283
20
-1158.71
11
1649.284
21
-1158.71
0
POINT
8
2
10
1849.283
20
-1158.71
0
TEXT
8
2
10
1849.283
20
-1158.71
40
10.00
1
#1
0
POINT
8
2
10
1649.284
20
-1158.71
0
TEXT
8
2
10
1649.284
20
-1158.71
40
10.00
1
#1
0
TEXT
8
1
10
1649.284
20
-1147.71
40
10.00
1
PIECE NAME: ARKAKOLFY1
0
TEXT
8
1
10
1649.284
20
-1136.71
40
10.00
1
SIZE: 1
0
TEXT
8
1
10
1649.284
20
-1125.71
40
10.00
1
ANNOTATION: 
0
TEXT
8
1
10
1649.284
20
-1114.71
40
10.00
1
QUANTITY: 1
0
TEXT
8
1
10
1649.284
20
-1103.71
40
10.00
1
MATERIAL: KUMAS
0
ENDBLK
0
BLOCK
8
0
2
7
70
0
10
0.0000
20
0.0000
0
POLYLINE
8
1
66
1
70
1
0
VERTEX
8
1
10
1521.057
20
-844.158
0
VERTEX
8
1
10
1513.381
20
-846.438
0
VERTEX
8
1
10
1487.637
20
-853.018
0
VERTEX
8
1
10
1462.421
20
-857.844
0
VERTEX
8
1
10
1437.846
20
-860.95
0
VERTEX
8
1
10
1413.961
20
-862.386
0
VERTEX
8
1
10
1390.809
20
-862.206
0
VERTEX
8
1
10
1368.377
20
-860.456
0
VERTEX
8
1
10
1368.492
20
-863.892
0
VERTEX
8
1
10
1368.056
20
-880.634
0
VERTEX
8
1
10
1365.909
20
-898.744
0
VERTEX
8
1
10
1361.811
20
-918.85
0
VERTEX
8
1
10
1355.227
20
-942.349
0
VERTEX
8
1
10
1403.788
20
-955.247
0
VERTEX
8
1
10
1459.992
20
-970.177
0
VERTEX
8
1
10
1473.365
20
-973.028
0
VERTEX
8
1
10
1489.02
20
-974.777
0
VERTEX
8
1
10
1505.49
20
-974.974
0
VERTEX
8
1
10
2094.254
20
-974.972
0
VERTEX
8
1
10
2154.254
20
-975.171
0
VERTEX
8
1
10
2154.566
20
-787.057
0
VERTEX
8
1
10
2094.555
20
-794.51
0
VERTEX
8
1
10
1656.4
20
-738.627
0
VERTEX
8
1
10
1654.279
20
-745.568
0
VERTEX
8
1
10
1649.416
20
-757.232
0
VERTEX
8
1
10
1643.239
20
-767.951
0
VERTEX
8
1
10
1635.888
20
-777.545
0
VERTEX
8
1
10
1632.382
20
-781.493
0
VERTEX
8
1
10
1621.457
20
-792.078
0
VERTEX
8
1
10
1608.069
20
-802.684
0
VERTEX
8
1
10
1602.769
20
-806.359
0
VERTEX
8
1
10
1585.763
20
-816.821
0
VERTEX
8
1
10
1566.748
20
-826.573
0
VERTEX
8
1
10
1545.375
20
-835.658
0
VERTEX
8
1
10
1521.057
20
-844.158
0
SEQEND
8
1
0
POINT
8
4
10
1521.057
20
-844.158
30
10
50
287.391280063813
0
POINT
8
2
10
1521.057
20
-844.158
0
TEXT
8
2
10
1521.057
20
-844.158
40
10.00
1
#357
0
POINT
8
3
10
1513.381
20
-846.438
0
POINT
8
3
10
1487.637
20
-853.018
0
POINT
8
3
10
1462.421
20
-857.844
0
POINT
8
3
10
1437.846
20
-860.95
0
POINT
8
3
10
1413.961
20
-862.386
0
POINT
8
3
10
1390.809
20
-862.206
0
POINT
8
2
10
1368.377
20
-860.456
0
TEXT
8
2
10
1368.377
20
-860.456
40
10.00
1
#358
0
POINT
8
3
10
1368.492
20
-863.892
0
POINT
8
3
10
1368.056
20
-880.634
0
POINT
8
3
10
1365.909
20
-898.744
0
POINT
8
3
10
1361.811
20
-918.85
0
POINT
8
2
10
1355.227
20
-942.349
0
TEXT
8
2
10
1355.227
20
-942.349
40
10.00
1
#359
0
POINT
8
2
10
1403.788
20
-955.247
0
TEXT
8
2
10
1403.788
20
-955.247
40
10.00
1
#360
0
POINT
8
4
10
1459.992
20
-970.177
30
10
50
74.6504052081638
0
POINT
8
2
10
1459.992
20
-970.177
0
TEXT
8
2
10
1459.992
20
-970.177
40
10.00
1
#361
0
POINT
8
3
10
1473.365
20
-973.028
0
POINT
8
3
10
1489.02
20
-974.777
0
POINT
8
4
10
1505.49
20
-974.974
30
10
50
91.5357734390363
0
POINT
8
2
10
1505.49
20
-974.974
0
TEXT
8
2
10
1505.49
20
-974.974
40
10.00
1
#362
0
POINT
8
4
10
2094.254
20
-974.972
30
10
50
89.9025875274289
0
POINT
8
2
10
2094.254
20
-974.972
0
TEXT
8
2
10
2094.254
20
-974.972
40
10.00
1
#363
0
POINT
8
2
10
2154.254
20
-975.171
0
TEXT
8
2
10
2154.254
20
-975.171
40
10.00
1
#364
0
POINT
8
2
10
2154.566
20
-787.057
0
TEXT
8
2
10
2154.566
20
-787.057
40
10.00
1
#365
0
POINT
8
4
10
2094.555
20
-794.51
30
10
50
269.902587527432
0
POINT
8
2
10
2094.555
20
-794.51
0
TEXT
8
2
10
2094.555
20
-794.51
40
10.00
1
#366
0
POINT
8
2
10
1656.4
20
-738.627
0
TEXT
8
2
10
1656.4
20
-738.627
40
10.00
1
#367
0
POINT
8
3
10
1654.279
20
-745.568
0
POINT
8
3
10
1649.416
20
-757.232
0
POINT
8
3
10
1643.239
20
-767.951
0
POINT
8
4
10
1635.888
20
-777.545
30
10
50
319.619311658841
0
POINT
8
2
10
1635.888
20
-777.545
0
TEXT
8
2
10
1635.888
20
-777.545
40
10.00
1
#368
0
POINT
8
3
10
1632.382
20
-781.493
0
POINT
8
3
10
1621.457
20
-792.078
0
POINT
8
4
10
1608.069
20
-802.684
30
10
50
305.7881087869
0
POINT
8
2
10
1608.069
20
-802.684
0
TEXT
8
2
10
1608.069
20
-802.684
40
10.00
1
#369
0
POINT
8
3
10
1602.769
20
-806.359
0
POINT
8
3
10
1585.763
20
-816.821
0
POINT
8
3
10
1566.748
20
-826.573
0
POINT
8
3
10
1545.375
20
-835.658
0
POINT
8
2
10
1521.057
20
-844.158
0
TEXT
8
2
10
1521.057
20
-844.158
40
10.00
1
#357
0
LINE
8
7
10
1856.292
20
-872.8
11
1656.292
21
-872.8
0
POINT
8
2
10
1856.292
20
-872.8
0
TEXT
8
2
10
1856.292
20
-872.8
40
10.00
1
#1
0
POINT
8
2
10
1656.292
20
-872.8
0
TEXT
8
2
10
1656.292
20
-872.8
40
10.00
1
#1
0
TEXT
8
1
10
1656.292
20
-861.8
40
10.00
1
PIECE NAME: ONKOL
0
TEXT
8
1
10
1656.292
20
-850.8
40
10.00
1
SIZE: 1
0
TEXT
8
1
10
1656.292
20
-839.8
40
10.00
1
ANNOTATION: 
0
TEXT
8
1
10
1656.292
20
-828.8
40
10.00
1
QUANTITY: 1
0
TEXT
8
1
10
1656.292
20
-817.8
40
10.00
1
MATERIAL: KUMAS
0
ENDBLK
0
BLOCK
8
0
2
8
70
0
10
0.0000
20
0.0000
0
POLYLINE
8
1
66
1
70
1
0
VERTEX
8
1
10
2520.582
20
-387.796
0
VERTEX
8
1
10
2460.582
20
-387.796
0
VERTEX
8
1
10
1395.942
20
-387.796
0
VERTEX
8
1
10
1396.153
20
-389.867
0
VERTEX
8
1
10
1396.114
20
-399.075
0
VERTEX
8
1
10
1394.459
20
-408.356
0
VERTEX
8
1
10
1391.107
20
-417.788
0
VERTEX
8
1
10
1385.923
20
-427.399
0
VERTEX
8
1
10
1378.76
20
-437.139
0
VERTEX
8
1
10
1369.555
20
-446.829
0
VERTEX
8
1
10
1358.411
20
-456.155
0
VERTEX
8
1
10
1363.803
20
-463.899
0
VERTEX
8
1
10
1378.108
20
-482.449
0
VERTEX
8
1
10
1394.077
20
-500.502
0
VERTEX
8
1
10
1411.72
20
-517.997
0
VERTEX
8
1
10
1430.997
20
-534.829
0
VERTEX
8
1
10
1451.906
20
-550.936
0
VERTEX
8
1
10
1474.35
20
-566.178
0
VERTEX
8
1
10
1491.73
20
-576.392
0
VERTEX
8
1
10
1534.474
20
-598.643
0
VERTEX
8
1
10
1560.927
20
-613.048
0
VERTEX
8
1
10
1573.582
20
-621.589
0
VERTEX
8
1
10
1581.852
20
-628.882
0
VERTEX
8
1
10
1587.816
20
-636.128
0
VERTEX
8
1
10
1589.674
20
-638.936
0
VERTEX
8
1
10
1593.086
20
-646.208
0
VERTEX
8
1
10
1595.265
20
-654.81
0
VERTEX
8
1
10
1596.094
20
-665.137
0
VERTEX
8
1
10
1595.322
20
-677.924
0
VERTEX
8
1
10
1705.266
20
-684.67
0
VERTEX
8
1
10
1735.21
20
-686.508
0
VERTEX
8
1
10
1765.154
20
-688.347
0
VERTEX
8
1
10
1945.063
20
-699.391
0
VERTEX
8
1
10
2219.594
20
-716.237
0
VERTEX
8
1
10
2444.162
20
-730.019
0
VERTEX
8
1
10
2504.049
20
-733.697
0
VERTEX
8
1
10
2512.969
20
-597.532
0
VERTEX
8
1
10
2517.596
20
-515.972
0
VERTEX
8
1
10
2519.975
20
-449.175
0
VERTEX
8
1
10
2520.582
20
-387.796
0
SEQEND
8
1
0
POINT
8
2
10
2520.582
20
-387.796
0
TEXT
8
2
10
2520.582
20
-387.796
40
10.00
1
#377
0
POINT
8
4
10
2460.582
20
-387.796
30
10
50
270
0
POINT
8
2
10
2460.582
20
-387.796
0
TEXT
8
2
10
2460.582
20
-387.796
40
10.00
1
#378
0
POINT
8
2
10
1395.942
20
-387.796
0
TEXT
8
2
10
1395.942
20
-387.796
40
10.00
1
#379
0
POINT
8
3
10
1396.153
20
-389.867
0
POINT
8
3
10
1396.114
20
-399.075
0
POINT
8
3
10
1394.459
20
-408.356
0
POINT
8
3
10
1391.107
20
-417.788
0
POINT
8
3
10
1385.923
20
-427.399
0
POINT
8
3
10
1378.76
20
-437.139
0
POINT
8
3
10
1369.555
20
-446.829
0
POINT
8
2
10
1358.411
20
-456.155
0
TEXT
8
2
10
1358.411
20
-456.155
40
10.00
1
#380
0
POINT
8
3
10
1363.803
20
-463.899
0
POINT
8
3
10
1378.108
20
-482.449
0
POINT
8
3
10
1394.077
20
-500.502
0
POINT
8
3
10
1411.72
20
-517.997
0
POINT
8
3
10
1430.997
20
-534.829
0
POINT
8
3
10
1451.906
20
-550.936
0
POINT
8
4
10
1474.35
20
-566.178
30
10
50
58.5163787038857
0
POINT
8
2
10
1474.35
20
-566.178
0
TEXT
8
2
10
1474.35
20
-566.178
40
10.00
1
#381
0
POINT
8
3
10
1491.73
20
-576.392
0
POINT
8
3
10
1534.474
20
-598.643
0
POINT
8
4
10
1560.927
20
-613.048
30
10
50
58.7994163652089
0
POINT
8
2
10
1560.927
20
-613.048
0
TEXT
8
2
10
1560.927
20
-613.048
40
10.00
1
#382
0
POINT
8
3
10
1573.582
20
-621.589
0
POINT
8
3
10
1581.852
20
-628.882
0
POINT
8
4
10
1587.816
20
-636.128
30
10
50
34.209638405241
0
POINT
8
2
10
1587.816
20
-636.128
0
TEXT
8
2
10
1587.816
20
-636.128
40
10.00
1
#383
0
POINT
8
3
10
1589.674
20
-638.936
0
POINT
8
3
10
1593.086
20
-646.208
0
POINT
8
3
10
1595.265
20
-654.81
0
POINT
8
3
10
1596.094
20
-665.137
0
POINT
8
2
10
1595.322
20
-677.924
0
TEXT
8
2
10
1595.322
20
-677.924
40
10.00
1
#384
0
POINT
8
4
10
1705.266
20
-684.67
30
10
50
86.4797783722273
0
POINT
8
2
10
1705.266
20
-684.67
0
TEXT
8
2
10
1705.266
20
-684.67
40
10.00
1
#385
0
POINT
8
2
10
1735.21
20
-686.508
0
TEXT
8
2
10
1735.21
20
-686.508
40
10.00
1
#386
0
POINT
8
4
10
1765.154
20
-688.347
30
10
50
86.4801301425006
0
POINT
8
2
10
1765.154
20
-688.347
0
TEXT
8
2
10
1765.154
20
-688.347
40
10.00
1
#387
0
POINT
8
4
10
1945.063
20
-699.391
30
10
50
86.485848451893
0
POINT
8
2
10
1945.063
20
-699.391
0
TEXT
8
2
10
1945.063
20
-699.391
40
10.00
1
#388
0
POINT
8
4
10
2219.594
20
-716.237
30
10
50
86.4797783722273
0
POINT
8
2
10
2219.594
20
-716.237
0
TEXT
8
2
10
2219.594
20
-716.237
40
10.00
1
#389
0
POINT
8
4
10
2444.162
20
-730.019
30
10
50
86.4797783722273
0
POINT
8
2
10
2444.162
20
-730.019
0
TEXT
8
2
10
2444.162
20
-730.019
40
10.00
1
#390
0
POINT
8
2
10
2504.049
20
-733.697
0
TEXT
8
2
10
2504.049
20
-733.697
40
10.00
1
#391
0
POINT
8
3
10
2512.969
20
-597.532
0
POINT
8
3
10
2517.596
20
-515.972
0
POINT
8
2
10
2519.975
20
-449.175
0
TEXT
8
2
10
2519.975
20
-449.175
40
10.00
1
#392
0
POINT
8
2
10
2520.582
20
-387.796
0
TEXT
8
2
10
2520.582
20
-387.796
40
10.00
1
#377
0
LINE
8
7
10
2063.447
20
-522.128
11
1863.447
21
-522.128
0
POINT
8
2
10
2063.447
20
-522.128
0
TEXT
8
2
10
2063.447
20
-522.128
40
10.00
1
#1
0
POINT
8
2
10
1863.447
20
-522.128
0
TEXT
8
2
10
1863.447
20
-522.128
40
10.00
1
#1
0
TEXT
8
1
10
1863.447
20
-511.128
40
10.00
1
PIECE NAME: ON
0
TEXT
8
1
10
1863.447
20
-500.128
40
10.00
1
SIZE: 1
0
TEXT
8
1
10
1863.447
20
-489.128
40
10.00
1
ANNOTATION: 
0
TEXT
8
1
10
1863.447
20
-478.128
40
10.00
1
QUANTITY: 1
0
TEXT
8
1
10
1863.447
20
-467.128
40
10.00
1
MATERIAL: KUMAS
0
ENDBLK
0
BLOCK
8
0
2
9
70
0
10
0.0000
20
0.0000
0
POLYLINE
8
1
66
1
70
1
0
VERTEX
8
1
10
1043.02
20
-753.642
0
VERTEX
8
1
10
1143.02
20
-753.642
0
VERTEX
8
1
10
1243.02
20
-753.642
0
VERTEX
8
1
10
1243.02
20
-607.343
0
VERTEX
8
1
10
1243.02
20
-497.742
0
VERTEX
8
1
10
1243.02
20
-388.142
0
VERTEX
8
1
10
1243.02
20
-241.843
0
VERTEX
8
1
10
1143.02
20
-241.843
0
VERTEX
8
1
10
1043.02
20
-241.843
0
VERTEX
8
1
10
1043.02
20
-388.142
0
VERTEX
8
1
10
1043.02
20
-497.742
0
VERTEX
8
1
10
1043.02
20
-607.343
0
VERTEX
8
1
10
1043.02
20
-753.642
0
SEQEND
8
1
0
POINT
8
2
10
1043.02
20
-753.642
0
TEXT
8
2
10
1043.02
20
-753.642
40
10.00
1
#402
0
POINT
8
4
10
1143.02
20
-753.642
30
10
50
90
0
POINT
8
2
10
1143.02
20
-753.642
0
TEXT
8
2
10
1143.02
20
-753.642
40
10.00
1
#403
0
POINT
8
2
10
1243.02
20
-753.642
0
TEXT
8
2
10
1243.02
20
-753.642
40
10.00
1
#404
0
POINT
8
4
10
1243.02
20
-607.343
30
10
50
180
0
POINT
8
2
10
1243.02
20
-607.343
0
TEXT
8
2
10
1243.02
20
-607.343
40
10.00
1
#405
0
POINT
8
4
10
1243.02
20
-497.742
30
10
50
180
0
POINT
8
2
10
1243.02
20
-497.742
0
TEXT
8
2
10
1243.02
20
-497.742
40
10.00
1
#406
0
POINT
8
4
10
1243.02
20
-388.142
30
10
50
180
0
POINT
8
2
10
1243.02
20
-388.142
0
TEXT
8
2
10
1243.02
20
-388.142
40
10.00
1
#407
0
POINT
8
2
10
1243.02
20
-241.843
0
TEXT
8
2
10
1243.02
20
-241.843
40
10.00
1
#408
0
POINT
8
4
10
1143.02
20
-241.843
30
10
50
270
0
POINT
8
2
10
1143.02
20
-241.843
0
TEXT
8
2
10
1143.02
20
-241.843
40
10.00
1
#409
0
POINT
8
2
10
1043.02
20
-241.843
0
TEXT
8
2
10
1043.02
20
-241.843
40
10.00
1
#410
0
POINT
8
4
10
1043.02
20
-388.142
30
10
50
0
0
POINT
8
2
10
1043.02
20
-388.142
0
TEXT
8
2
10
1043.02
20
-388.142
40
10.00
1
#411
0
POINT
8
4
10
1043.02
20
-497.742
30
10
50
0
0
POINT
8
2
10
1043.02
20
-497.742
0
TEXT
8
2
10
1043.02
20
-497.742
40
10.00
1
#412
0
POINT
8
4
10
1043.02
20
-607.343
30
10
50
0
0
POINT
8
2
10
1043.02
20
-607.343
0
TEXT
8
2
10
1043.02
20
-607.343
40
10.00
1
#413
0
POINT
8
2
10
1043.02
20
-753.642
0
TEXT
8
2
10
1043.02
20
-753.642
40
10.00
1
#402
0
LINE
8
7
10
1178.34
20
-544.722
11
1148.34
21
-544.722
0
POINT
8
2
10
1178.34
20
-544.722
0
TEXT
8
2
10
1178.34
20
-544.722
40
10.00
1
#1
0
POINT
8
2
10
1148.34
20
-544.722
0
TEXT
8
2
10
1148.34
20
-544.722
40
10.00
1
#1
0
TEXT
8
1
10
1148.34
20
-533.722
40
10.00
1
PIECE NAME: YAKA
0
TEXT
8
1
10
1148.34
20
-522.722
40
10.00
1
SIZE: 1
0
TEXT
8
1
10
1148.34
20
-511.722
40
10.00
1
ANNOTATION: 
0
TEXT
8
1
10
1148.34
20
-500.722
40
10.00
1
QUANTITY: 1
0
TEXT
8
1
10
1148.34
20
-489.722
40
10.00
1
MATERIAL: KUMAS
0
ENDBLK
0
BLOCK
8
0
2
10
70
0
10
0.0000
20
0.0000
0
POLYLINE
8
1
66
1
70
1
0
VERTEX
8
1
10
1316.827
20
-180
0
VERTEX
8
1
10
2521.427
20
-180
0
VERTEX
8
1
10
2521.427
20
-90
0
VERTEX
8
1
10
2521.427
20
0
0
VERTEX
8
1
10
1316.827
20
0
0
VERTEX
8
1
10
1316.827
20
-90
0
VERTEX
8
1
10
1316.827
20
-180
0
SEQEND
8
1
0
POINT
8
2
10
1316.827
20
-180
0
TEXT
8
2
10
1316.827
20
-180
40
10.00
1
#422
0
POINT
8
2
10
2521.427
20
-180
0
TEXT
8
2
10
2521.427
20
-180
40
10.00
1
#423
0
POINT
8
4
10
2521.427
20
-90
30
10
50
180
0
POINT
8
2
10
2521.427
20
-90
0
TEXT
8
2
10
2521.427
20
-90
40
10.00
1
#424
0
POINT
8
2
10
2521.427
20
0
0
TEXT
8
2
10
2521.427
20
0
40
10.00
1
#425
0
POINT
8
2
10
1316.827
20
0
0
TEXT
8
2
10
1316.827
20
0
40
10.00
1
#426
0
POINT
8
4
10
1316.827
20
-90
30
10
50
0
0
POINT
8
2
10
1316.827
20
-90
0
TEXT
8
2
10
1316.827
20
-90
40
10.00
1
#427
0
POINT
8
2
10
1316.827
20
-180
0
TEXT
8
2
10
1316.827
20
-180
40
10.00
1
#422
0
LINE
8
7
10
2089.894
20
-55
11
1708.36
21
-55
0
POINT
8
2
10
2089.894
20
-55
0
TEXT
8
2
10
2089.894
20
-55
40
10.00
1
#1
0
POINT
8
2
10
1708.36
20
-55
0
TEXT
8
2
10
1708.36
20
-55
40
10.00
1
#1
0
TEXT
8
1
10
1708.36
20
-44
40
10.00
1
PIECE NAME: USTPAT
0
TEXT
8
1
10
1708.36
20
-33
40
10.00
1
SIZE: 1
0
TEXT
8
1
10
1708.36
20
-22
40
10.00
1
ANNOTATION: 
0
TEXT
8
1
10
1708.36
20
-11
40
10.00
1
QUANTITY: 1
0
TEXT
8
1
10
1708.36
20
0
40
10.00
1
MATERIAL: KUMAS
0
ENDBLK
0
BLOCK
8
0
2
11
70
0
10
0.0000
20
0.0000
0
POLYLINE
8
1
66
1
70
1
0
VERTEX
8
1
10
823.555
20
-2089.39
0
VERTEX
8
1
10
2643.555
20
-2089.39
0
VERTEX
8
1
10
2643.555
20
-2029.39
0
VERTEX
8
1
10
2643.555
20
-1969.39
0
VERTEX
8
1
10
823.555
20
-1969.39
0
VERTEX
8
1
10
823.555
20
-2029.39
0
VERTEX
8
1
10
823.555
20
-2089.39
0
SEQEND
8
1
0
POINT
8
2
10
823.555
20
-2089.39
0
TEXT
8
2
10
823.555
20
-2089.39
40
10.00
1
#430
0
POINT
8
2
10
2643.555
20
-2089.39
0
TEXT
8
2
10
2643.555
20
-2089.39
40
10.00
1
#431
0
POINT
8
4
10
2643.555
20
-2029.39
30
10
50
180
0
POINT
8
2
10
2643.555
20
-2029.39
0
TEXT
8
2
10
2643.555
20
-2029.39
40
10.00
1
#432
0
POINT
8
2
10
2643.555
20
-1969.39
0
TEXT
8
2
10
2643.555
20
-1969.39
40
10.00
1
#433
0
POINT
8
2
10
823.555
20
-1969.39
0
TEXT
8
2
10
823.555
20
-1969.39
40
10.00
1
#434
0
POINT
8
4
10
823.555
20
-2029.39
30
10
50
0
0
POINT
8
2
10
823.555
20
-2029.39
0
TEXT
8
2
10
823.555
20
-2029.39
40
10.00
1
#435
0
POINT
8
2
10
823.555
20
-2089.39
0
TEXT
8
2
10
823.555
20
-2089.39
40
10.00
1
#430
0
LINE
8
7
10
2033.555
20
-2004.39
11
1933.555
21
-2004.39
0
POINT
8
2
10
2033.555
20
-2004.39
0
TEXT
8
2
10
2033.555
20
-2004.39
40
10.00
1
#1
0
POINT
8
2
10
1933.555
20
-2004.39
0
TEXT
8
2
10
1933.555
20
-2004.39
40
10.00
1
#1
0
TEXT
8
1
10
1933.555
20
-1993.39
40
10.00
1
PIECE NAME: KUSAK
0
TEXT
8
1
10
1933.555
20
-1982.39
40
10.00
1
SIZE: 1
0
TEXT
8
1
10
1933.555
20
-1971.39
40
10.00
1
ANNOTATION: 
0
TEXT
8
1
10
1933.555
20
-1960.39
40
10.00
1
QUANTITY: 1
0
TEXT
8
1
10
1933.555
20
-1949.39
40
10.00
1
MATERIAL: KUMAS
0
ENDBLK
0
BLOCK
8
0
2
12
70
0
10
0.0000
20
0.0000
0
POLYLINE
8
1
66
1
70
1
0
VERTEX
8
1
10
2218.157
20
-1162.529
0
VERTEX
8
1
10
2273.157
20
-1162.529
0
VERTEX
8
1
10
2328.157
20
-1162.529
0
VERTEX
8
1
10
2328.157
20
-1022.529
0
VERTEX
8
1
10
2273.157
20
-1022.529
0
VERTEX
8
1
10
2218.157
20
-1022.529
0
VERTEX
8
1
10
2218.157
20
-1162.529
0
SEQEND
8
1
0
POINT
8
2
10
2218.157
20
-1162.529
0
TEXT
8
2
10
2218.157
20
-1162.529
40
10.00
1
#438
0
POINT
8
4
10
2273.157
20
-1162.529
30
10
50
90
0
POINT
8
2
10
2273.157
20
-1162.529
0
TEXT
8
2
10
2273.157
20
-1162.529
40
10.00
1
#439
0
POINT
8
2
10
2328.157
20
-1162.529
0
TEXT
8
2
10
2328.157
20
-1162.529
40
10.00
1
#440
0
POINT
8
2
10
2328.157
20
-1022.529
0
TEXT
8
2
10
2328.157
20
-1022.529
40
10.00
1
#441
0
POINT
8
4
10
2273.157
20
-1022.529
30
10
50
270
0
POINT
8
2
10
2273.157
20
-1022.529
0
TEXT
8
2
10
2273.157
20
-1022.529
40
10.00
1
#442
0
POINT
8
2
10
2218.157
20
-1022.529
0
TEXT
8
2
10
2218.157
20
-1022.529
40
10.00
1
#443
0
POINT
8
2
10
2218.157
20
-1162.529
0
TEXT
8
2
10
2218.157
20
-1162.529
40
10.00
1
#438
0
LINE
8
7
10
2258.157
20
-1092.529
11
2243.157
21
-1092.529
0
POINT
8
2
10
2258.157
20
-1092.529
0
TEXT
8
2
10
2258.157
20
-1092.529
40
10.00
1
#1
0
POINT
8
2
10
2243.157
20
-1092.529
0
TEXT
8
2
10
2243.157
20
-1092.529
40
10.00
1
#1
0
TEXT
8
8
10
2243.216
20
-1080.832
11
2301.795
21
-1056.362
40
10.00
50
337.328413923176
1
2 ADET
0
TEXT
8
1
10
2243.157
20
-1081.529
40
10.00
1
PIECE NAME: KOLAPLT
0
TEXT
8
1
10
2243.157
20
-1070.529
40
10.00
1
SIZE: 1
0
TEXT
8
1
10
2243.157
20
-1059.529
40
10.00
1
ANNOTATION: 
0
TEXT
8
1
10
2243.157
20
-1048.529
40
10.00
1
QUANTITY: 1
0
TEXT
8
1
10
2243.157
20
-1037.529
40
10.00
1
MATERIAL: KUMAS
0
ENDBLK
0
BLOCK
8
0
2
13
70
0
10
0.0000
20
0.0000
0
POLYLINE
8
1
66
1
70
1
0
VERTEX
8
1
10
2712.465
20
-837.275
0
VERTEX
8
1
10
2731.76
20
-842.4
0
VERTEX
8
1
10
2790.016
20
-857.343
0
VERTEX
8
1
10
2803.3
20
-860.171
0
VERTEX
8
1
10
2818.965
20
-861.92
0
VERTEX
8
1
10
2835.421
20
-862.115
0
VERTEX
8
1
10
3434.186
20
-862.115
0
VERTEX
8
1
10
3434.483
20
-677.923
0
VERTEX
8
1
10
2984.03
20
-620.736
0
VERTEX
8
1
10
2981.159
20
-630.989
0
VERTEX
8
1
10
2976.358
20
-643.147
0
VERTEX
8
1
10
2970.552
20
-653.679
0
VERTEX
8
1
10
2963.819
20
-662.687
0
VERTEX
8
1
10
2960.313
20
-666.636
0
VERTEX
8
1
10
2949.396
20
-677.213
0
VERTEX
8
1
10
2936.001
20
-687.825
0
VERTEX
8
1
10
2930.635
20
-691.546
0
VERTEX
8
1
10
2913.626
20
-702.002
0
VERTEX
8
1
10
2894.619
20
-711.743
0
VERTEX
8
1
10
2873.242
20
-720.824
0
VERTEX
8
1
10
2848.92
20
-729.322
0
VERTEX
8
1
10
2840.918
20
-731.78
0
VERTEX
8
1
10
2817.208
20
-737.921
0
VERTEX
8
1
10
2792.467
20
-742.656
0
VERTEX
8
1
10
2766.753
20
-745.929
0
VERTEX
8
1
10
2740.137
20
-747.682
0
VERTEX
8
1
10
2732.789
20
-768.174
0
VERTEX
8
1
10
2721.894
20
-802.377
0
VERTEX
8
1
10
2712.465
20
-837.275
0
SEQEND
8
1
0
POINT
8
2
10
2712.465
20
-837.275
0
TEXT
8
2
10
2712.465
20
-837.275
40
10.00
1
#446
0
POINT
8
2
10
2731.76
20
-842.4
0
TEXT
8
2
10
2731.76
20
-842.4
40
10.00
1
#447
0
POINT
8
4
10
2790.016
20
-857.343
30
10
50
74.8991652727343
0
POINT
8
2
10
2790.016
20
-857.343
0
TEXT
8
2
10
2790.016
20
-857.343
40
10.00
1
#448
0
POINT
8
3
10
2803.3
20
-860.171
0
POINT
8
3
10
2818.965
20
-861.92
0
POINT
8
4
10
2835.421
20
-862.115
30
10
50
91.5357734390363
0
POINT
8
2
10
2835.421
20
-862.115
0
TEXT
8
2
10
2835.421
20
-862.115
40
10.00
1
#449
0
POINT
8
2
10
3434.186
20
-862.115
0
TEXT
8
2
10
3434.186
20
-862.115
40
10.00
1
#450
0
POINT
8
2
10
3434.483
20
-677.923
0
TEXT
8
2
10
3434.483
20
-677.923
40
10.00
1
#451
0
POINT
8
2
10
2984.03
20
-620.736
0
TEXT
8
2
10
2984.03
20
-620.736
40
10.00
1
#452
0
POINT
8
3
10
2981.159
20
-630.989
0
POINT
8
3
10
2976.358
20
-643.147
0
POINT
8
3
10
2970.552
20
-653.679
0
POINT
8
4
10
2963.819
20
-662.687
30
10
50
319.61494764508
0
POINT
8
2
10
2963.819
20
-662.687
0
TEXT
8
2
10
2963.819
20
-662.687
40
10.00
1
#453
0
POINT
8
3
10
2960.313
20
-666.636
0
POINT
8
3
10
2949.396
20
-677.213
0
POINT
8
4
10
2936.001
20
-687.825
30
10
50
305.784758523709
0
POINT
8
2
10
2936.001
20
-687.825
0
TEXT
8
2
10
2936.001
20
-687.825
40
10.00
1
#454
0
POINT
8
3
10
2930.635
20
-691.546
0
POINT
8
3
10
2913.626
20
-702.002
0
POINT
8
3
10
2894.619
20
-711.743
0
POINT
8
3
10
2873.242
20
-720.824
0
POINT
8
4
10
2848.92
20
-729.322
30
10
50
287.800770964168
0
POINT
8
2
10
2848.92
20
-729.322
0
TEXT
8
2
10
2848.92
20
-729.322
40
10.00
1
#455
0
POINT
8
3
10
2840.918
20
-731.78
0
POINT
8
3
10
2817.208
20
-737.921
0
POINT
8
3
10
2792.467
20
-742.656
0
POINT
8
3
10
2766.753
20
-745.929
0
POINT
8
2
10
2740.137
20
-747.682
0
TEXT
8
2
10
2740.137
20
-747.682
40
10.00
1
#456
0
POINT
8
3
10
2732.789
20
-768.174
0
POINT
8
3
10
2721.894
20
-802.377
0
POINT
8
2
10
2712.465
20
-837.275
0
TEXT
8
2
10
2712.465
20
-837.275
40
10.00
1
#446
0
LINE
8
7
10
3172.103
20
-746.938
11
2972.104
21
-746.938
0
POINT
8
2
10
3172.103
20
-746.938
0
TEXT
8
2
10
3172.103
20
-746.938
40
10.00
1
#1
0
POINT
8
2
10
2972.104
20
-746.938
0
TEXT
8
2
10
2972.104
20
-746.938
40
10.00
1
#1
0
TEXT
8
1
10
2972.104
20
-735.938
40
10.00
1
PIECE NAME: ONKOLAST
0
TEXT
8
1
10
2972.104
20
-724.938
40
10.00
1
SIZE: 1
0
TEXT
8
1
10
2972.104
20
-713.938
40
10.00
1
ANNOTATION: 
0
TEXT
8
1
10
2972.104
20
-702.938
40
10.00
1
QUANTITY: 1
0
TEXT
8
1
10
2972.104
20
-691.938
40
10.00
1
MATERIAL: ASTAR
0
ENDBLK
0
BLOCK
8
0
2
14
70
0
10
0.0000
20
0.0000
0
POLYLINE
8
1
66
1
70
1
0
VERTEX
8
1
10
2653.1
20
-351.773
0
VERTEX
8
1
10
2666.164
20
-366.002
0
VERTEX
8
1
10
2685.288
20
-384.812
0
VERTEX
8
1
10
2705.239
20
-402.208
0
VERTEX
8
1
10
2725.929
20
-418.146
0
VERTEX
8
1
10
2747.261
20
-432.574
0
VERTEX
8
1
10
2764.693
20
-442.819
0
VERTEX
8
1
10
2807.429
20
-465.067
0
VERTEX
8
1
10
2833.902
20
-479.483
0
VERTEX
8
1
10
2846.57
20
-488.033
0
VERTEX
8
1
10
2854.829
20
-495.319
0
VERTEX
8
1
10
2860.789
20
-502.561
0
VERTEX
8
1
10
2862.706
20
-505.596
0
VERTEX
8
1
10
2866.074
20
-513.153
0
VERTEX
8
1
10
2868.23
20
-522.16
0
VERTEX
8
1
10
2869.083
20
-533.339
0
VERTEX
8
1
10
2868.306
20
-549.371
0
VERTEX
8
1
10
2980.246
20
-556.105
0
VERTEX
8
1
10
3010.184
20
-557.943
0
VERTEX
8
1
10
3040.128
20
-559.78
0
VERTEX
8
1
10
3220.037
20
-570.824
0
VERTEX
8
1
10
3494.568
20
-587.671
0
VERTEX
8
1
10
3729.117
20
-602.067
0
VERTEX
8
1
10
3731.291
20
-592.649
0
VERTEX
8
1
10
3744.862
20
-538.442
0
VERTEX
8
1
10
3770.451
20
-445.944
0
VERTEX
8
1
10
3792.005
20
-367.225
0
VERTEX
8
1
10
3804.957
20
-314.634
0
VERTEX
8
1
10
3805.364
20
-294.225
0
VERTEX
8
1
10
3380.899
20
-294.225
0
VERTEX
8
1
10
3026.835
20
-294.225
0
VERTEX
8
1
10
2982.784
20
-294.689
0
VERTEX
8
1
10
2933.289
20
-296.552
0
VERTEX
8
1
10
2888.731
20
-299.754
0
VERTEX
8
1
10
2847.688
20
-304.25
0
VERTEX
8
1
10
2809.406
20
-310.003
0
VERTEX
8
1
10
2786.881
20
-314.092
0
VERTEX
8
1
10
2759.21
20
-319.949
0
VERTEX
8
1
10
2723.74
20
-328.92
0
VERTEX
8
1
10
2688.362
20
-339.526
0
VERTEX
8
1
10
2653.1
20
-351.773
0
SEQEND
8
1
0
POINT
8
2
10
2653.1
20
-351.773
0
TEXT
8
2
10
2653.1
20
-351.773
40
10.00
1
#462
0
POINT
8
3
10
2666.164
20
-366.002
0
POINT
8
3
10
2685.288
20
-384.812
0
POINT
8
3
10
2705.239
20
-402.208
0
POINT
8
3
10
2725.929
20
-418.146
0
POINT
8
4
10
2747.261
20
-432.574
30
10
50
58.0948297940205
0
POINT
8
2
10
2747.261
20
-432.574
0
TEXT
8
2
10
2747.261
20
-432.574
40
10.00
1
#463
0
POINT
8
3
10
2764.693
20
-442.819
0
POINT
8
3
10
2807.429
20
-465.067
0
POINT
8
4
10
2833.902
20
-479.483
30
10
50
58.8072856143783
0
POINT
8
2
10
2833.902
20
-479.483
0
TEXT
8
2
10
2833.902
20
-479.483
40
10.00
1
#464
0
POINT
8
3
10
2846.57
20
-488.033
0
POINT
8
3
10
2854.829
20
-495.319
0
POINT
8
4
10
2860.789
20
-502.561
30
10
50
34.1954231249398
0
POINT
8
2
10
2860.789
20
-502.561
0
TEXT
8
2
10
2860.789
20
-502.561
40
10.00
1
#465
0
POINT
8
3
10
2862.706
20
-505.596
0
POINT
8
3
10
2866.074
20
-513.153
0
POINT
8
3
10
2868.23
20
-522.16
0
POINT
8
3
10
2869.083
20
-533.339
0
POINT
8
2
10
2868.306
20
-549.371
0
TEXT
8
2
10
2868.306
20
-549.371
40
10.00
1
#466
0
POINT
8
4
10
2980.246
20
-556.105
30
10
50
86.5198119867188
0
POINT
8
2
10
2980.246
20
-556.105
0
TEXT
8
2
10
2980.246
20
-556.105
40
10.00
1
#467
0
POINT
8
2
10
3010.184
20
-557.943
0
TEXT
8
2
10
3010.184
20
-557.943
40
10.00
1
#468
0
POINT
8
4
10
3040.128
20
-559.78
30
10
50
86.4797783722273
0
POINT
8
2
10
3040.128
20
-559.78
0
TEXT
8
2
10
3040.128
20
-559.78
40
10.00
1
#469
0
POINT
8
4
10
3220.037
20
-570.824
30
10
50
86.485497250224
0
POINT
8
2
10
3220.037
20
-570.824
0
TEXT
8
2
10
3220.037
20
-570.824
40
10.00
1
#470
0
POINT
8
4
10
3494.568
20
-587.671
30
10
50
86.4797783722299
0
POINT
8
2
10
3494.568
20
-587.671
0
TEXT
8
2
10
3494.568
20
-587.671
40
10.00
1
#471
0
POINT
8
2
10
3729.117
20
-602.067
0
TEXT
8
2
10
3729.117
20
-602.067
40
10.00
1
#472
0
POINT
8
3
10
3731.291
20
-592.649
0
POINT
8
3
10
3744.862
20
-538.442
0
POINT
8
3
10
3770.451
20
-445.944
0
POINT
8
3
10
3792.005
20
-367.225
0
POINT
8
2
10
3804.957
20
-314.634
0
TEXT
8
2
10
3804.957
20
-314.634
40
10.00
1
#473
0
POINT
8
2
10
3805.364
20
-294.225
0
TEXT
8
2
10
3805.364
20
-294.225
40
10.00
1
#474
0
POINT
8
4
10
3380.899
20
-294.225
30
10
50
270
0
POINT
8
2
10
3380.899
20
-294.225
0
TEXT
8
2
10
3380.899
20
-294.225
40
10.00
1
#475
0
POINT
8
4
10
3026.835
20
-294.225
30
10
50
270
0
POINT
8
2
10
3026.835
20
-294.225
0
TEXT
8
2
10
3026.835
20
-294.225
40
10.00
1
#476
0
POINT
8
3
10
2982.784
20
-294.689
0
POINT
8
3
10
2933.289
20
-296.552
0
POINT
8
3
10
2888.731
20
-299.754
0
POINT
8
3
10
2847.688
20
-304.25
0
POINT
8
4
10
2809.406
20
-310.003
30
10
50
280.025569547784
0
POINT
8
2
10
2809.406
20
-310.003
0
TEXT
8
2
10
2809.406
20
-310.003
40
10.00
1
#477
0
POINT
8
3
10
2786.881
20
-314.092
0
POINT
8
3
10
2759.21
20
-319.949
0
POINT
8
3
10
2723.74
20
-328.92
0
POINT
8
3
10
2688.362
20
-339.526
0
POINT
8
2
10
2653.1
20
-351.773
0
TEXT
8
2
10
2653.1
20
-351.773
40
10.00
1
#462
0
LINE
8
7
10
3387.685
20
-445.349
11
3030.198
21
-445.349
0
POINT
8
2
10
3387.685
20
-445.349
0
TEXT
8
2
10
3387.685
20
-445.349
40
10.00
1
#1
0
POINT
8
2
10
3030.198
20
-445.349
0
TEXT
8
2
10
3030.198
20
-445.349
40
10.00
1
#1
0
TEXT
8
1
10
3030.198
20
-434.349
40
10.00
1
PIECE NAME: 13
0
TEXT
8
1
10
3030.198
20
-423.349
40
10.00
1
SIZE: 1
0
TEXT
8
1
10
3030.198
20
-412.349
40
10.00
1
ANNOTATION: 
0
TEXT
8
1
10
3030.198
20
-401.349
40
10.00
1
QUANTITY: 1
0
TEXT
8
1
10
3030.198
20
-390.349
40
10.00
1
MATERIAL: ASTAR
0
ENDBLK
0
BLOCK
8
0
2
15
70
0
10
0.0000
20
0.0000
0
POLYLINE
8
1
66
1
70
1
0
VERTEX
8
1
10
2679.26
20
-976.597
0
VERTEX
8
1
10
2700.382
20
-976.398
0
VERTEX
8
1
10
2727.221
20
-977.606
0
VERTEX
8
1
10
2754.762
20
-980.471
0
VERTEX
8
1
10
2783.023
20
-985.044
0
VERTEX
8
1
10
2811.978
20
-991.379
0
VERTEX
8
1
10
2841.525
20
-999.506
0
VERTEX
8
1
10
2847.974
20
-1001.552
0
VERTEX
8
1
10
2875.313
20
-1011.123
0
VERTEX
8
1
10
2897.065
20
-1020.292
0
VERTEX
8
1
10
2915.543
20
-1029.719
0
VERTEX
8
1
10
2931.667
20
-1039.666
0
VERTEX
8
1
10
2937.496
20
-1043.902
0
VERTEX
8
1
10
2948.699
20
-1053.516
0
VERTEX
8
1
10
2958.777
20
-1064.263
0
VERTEX
8
1
10
2967.579
20
-1075.972
0
VERTEX
8
1
10
2974.952
20
-1088.42
0
VERTEX
8
1
10
2980.82
20
-1101.432
0
VERTEX
8
1
10
2985.117
20
-1114.815
0
VERTEX
8
1
10
3425.26
20
-1058.932
0
VERTEX
8
1
10
3435.261
20
-1060.17
0
VERTEX
8
1
10
3434.962
20
-873.442
0
VERTEX
8
1
10
3424.962
20
-873.474
0
VERTEX
8
1
10
3364.978
20
-873.474
0
VERTEX
8
1
10
3319.978
20
-873.474
0
VERTEX
8
1
10
2836.076
20
-873.474
0
VERTEX
8
1
10
2828.914
20
-873.393
0
VERTEX
8
1
10
2821.429
20
-873.596
0
VERTEX
8
1
10
2805.708
20
-875.173
0
VERTEX
8
1
10
2790.827
20
-878.237
0
VERTEX
8
1
10
2684.012
20
-906.028
0
VERTEX
8
1
10
2686.472
20
-912.676
0
VERTEX
8
1
10
2688.027
20
-921.113
0
VERTEX
8
1
10
2688.019
20
-930.027
0
VERTEX
8
1
10
2686.373
20
-939.32
0
VERTEX
8
1
10
2683.027
20
-948.807
0
VERTEX
8
1
10
2678.012
20
-958.128
0
VERTEX
8
1
10
2671.531
20
-966.787
0
VERTEX
8
1
10
2679.26
20
-976.597
0
SEQEND
8
1
0
POINT
8
2
10
2679.26
20
-976.597
0
TEXT
8
2
10
2679.26
20
-976.597
40
10.00
1
#488
0
POINT
8
3
10
2700.382
20
-976.398
0
POINT
8
3
10
2727.221
20
-977.606
0
POINT
8
3
10
2754.762
20
-980.471
0
POINT
8
3
10
2783.023
20
-985.044
0
POINT
8
3
10
2811.978
20
-991.379
0
POINT
8
4
10
2841.525
20
-999.506
30
10
50
72.8951646459082
0
POINT
8
2
10
2841.525
20
-999.506
0
TEXT
8
2
10
2841.525
20
-999.506
40
10.00
1
#489
0
POINT
8
3
10
2847.974
20
-1001.552
0
POINT
8
3
10
2875.313
20
-1011.123
0
POINT
8
3
10
2897.065
20
-1020.292
0
POINT
8
3
10
2915.543
20
-1029.719
0
POINT
8
4
10
2931.667
20
-1039.666
30
10
50
55.086359109834
0
POINT
8
2
10
2931.667
20
-1039.666
0
TEXT
8
2
10
2931.667
20
-1039.666
40
10.00
1
#490
0
POINT
8
3
10
2937.496
20
-1043.902
0
POINT
8
3
10
2948.699
20
-1053.516
0
POINT
8
3
10
2958.777
20
-1064.263
0
POINT
8
3
10
2967.579
20
-1075.972
0
POINT
8
3
10
2974.952
20
-1088.42
0
POINT
8
3
10
2980.82
20
-1101.432
0
POINT
8
2
10
2985.117
20
-1114.815
0
TEXT
8
2
10
2985.117
20
-1114.815
40
10.00
1
#491
0
POINT
8
4
10
3425.26
20
-1058.932
30
10
50
90.0916823372117
0
POINT
8
2
10
3425.26
20
-1058.932
0
TEXT
8
2
10
3425.26
20
-1058.932
40
10.00
1
#492
0
POINT
8
2
10
3435.261
20
-1060.17
0
TEXT
8
2
10
3435.261
20
-1060.17
40
10.00
1
#493
0
POINT
8
2
10
3434.962
20
-873.442
0
TEXT
8
2
10
3434.962
20
-873.442
40
10.00
1
#494
0
POINT
8
4
10
3424.962
20
-873.474
30
10
50
270.091682337212
0
POINT
8
2
10
3424.962
20
-873.474
0
TEXT
8
2
10
3424.962
20
-873.474
40
10.00
1
#495
0
POINT
8
4
10
3364.978
20
-873.474
30
10
50
270
0
POINT
8
2
10
3364.978
20
-873.474
0
TEXT
8
2
10
3364.978
20
-873.474
40
10.00
1
#496
0
POINT
8
4
10
3319.978
20
-873.474
30
10
50
270
0
POINT
8
2
10
3319.978
20
-873.474
0
TEXT
8
2
10
3319.978
20
-873.474
40
10.00
1
#497
0
POINT
8
4
10
2836.076
20
-873.474
30
10
50
269.157728485395
0
POINT
8
2
10
2836.076
20
-873.474
0
TEXT
8
2
10
2836.076
20
-873.474
40
10.00
1
#498
0
POINT
8
3
10
2828.914
20
-873.393
0
POINT
8
3
10
2821.429
20
-873.596
0
POINT
8
3
10
2805.708
20
-875.173
0
POINT
8
4
10
2790.827
20
-878.237
30
10
50
284.583753775882
0
POINT
8
2
10
2790.827
20
-878.237
0
TEXT
8
2
10
2790.827
20
-878.237
40
10.00
1
#499
0
POINT
8
2
10
2684.012
20
-906.028
0
TEXT
8
2
10
2684.012
20
-906.028
40
10.00
1
#500
0
POINT
8
3
10
2686.472
20
-912.676
0
POINT
8
3
10
2688.027
20
-921.113
0
POINT
8
3
10
2688.019
20
-930.027
0
POINT
8
3
10
2686.373
20
-939.32
0
POINT
8
3
10
2683.027
20
-948.807
0
POINT
8
3
10
2678.012
20
-958.128
0
POINT
8
2
10
2671.531
20
-966.787
0
TEXT
8
2
10
2671.531
20
-966.787
40
10.00
1
#501
0
POINT
8
2
10
2679.26
20
-976.597
0
TEXT
8
2
10
2679.26
20
-976.597
40
10.00
1
#488
0
LINE
8
7
10
3179.99
20
-945.864
11
2979.992
21
-945.864
0
POINT
8
2
10
3179.99
20
-945.864
0
TEXT
8
2
10
3179.99
20
-945.864
40
10.00
1
#1
0
POINT
8
2
10
2979.992
20
-945.864
0
TEXT
8
2
10
2979.992
20
-945.864
40
10.00
1
#1
0
TEXT
8
1
10
2979.992
20
-934.864
40
10.00
1
PIECE NAME: ARKAKOLAST
0
TEXT
8
1
10
2979.992
20
-923.864
40
10.00
1
SIZE: 1
0
TEXT
8
1
10
2979.992
20
-912.864
40
10.00
1
ANNOTATION: 
0
TEXT
8
1
10
2979.992
20
-901.864
40
10.00
1
QUANTITY: 1
0
TEXT
8
1
10
2979.992
20
-890.864
40
10.00
1
MATERIAL: ASTAR
0
ENDBLK
0
BLOCK
8
0
2
16
70
0
10
0.0000
20
0.0000
0
POLYLINE
8
1
66
1
70
1
0
VERTEX
8
1
10
2671.531
20
-1021.421
0
VERTEX
8
1
10
2678.012
20
-1030.08
0
VERTEX
8
1
10
2683.027
20
-1039.401
0
VERTEX
8
1
10
2686.373
20
-1048.888
0
VERTEX
8
1
10
2688.019
20
-1058.181
0
VERTEX
8
1
10
2688.027
20
-1067.095
0
VERTEX
8
1
10
2686.472
20
-1075.532
0
VERTEX
8
1
10
2684.012
20
-1082.18
0
VERTEX
8
1
10
2790.827
20
-1109.971
0
VERTEX
8
1
10
2805.708
20
-1113.035
0
VERTEX
8
1
10
2821.429
20
-1114.612
0
VERTEX
8
1
10
2828.914
20
-1114.815
0
VERTEX
8
1
10
2836.076
20
-1114.734
0
VERTEX
8
1
10
3319.978
20
-1114.734
0
VERTEX
8
1
10
3364.978
20
-1114.734
0
VERTEX
8
1
10
3424.962
20
-1114.734
0
VERTEX
8
1
10
3434.962
20
-1114.766
0
VERTEX
8
1
10
3435.261
20
-928.038
0
VERTEX
8
1
10
3425.26
20
-929.276
0
VERTEX
8
1
10
2985.117
20
-873.393
0
VERTEX
8
1
10
2980.82
20
-886.776
0
VERTEX
8
1
10
2974.952
20
-899.788
0
VERTEX
8
1
10
2967.579
20
-912.236
0
VERTEX
8
1
10
2958.777
20
-923.945
0
VERTEX
8
1
10
2948.699
20
-934.692
0
VERTEX
8
1
10
2937.496
20
-944.306
0
VERTEX
8
1
10
2931.667
20
-948.542
0
VERTEX
8
1
10
2915.543
20
-958.489
0
VERTEX
8
1
10
2897.065
20
-967.916
0
VERTEX
8
1
10
2875.313
20
-977.085
0
VERTEX
8
1
10
2847.974
20
-986.656
0
VERTEX
8
1
10
2841.525
20
-988.702
0
VERTEX
8
1
10
2811.978
20
-996.829
0
VERTEX
8
1
10
2783.023
20
-1003.164
0
VERTEX
8
1
10
2754.762
20
-1007.737
0
VERTEX
8
1
10
2727.221
20
-1010.602
0
VERTEX
8
1
10
2700.382
20
-1011.81
0
VERTEX
8
1
10
2679.26
20
-1011.611
0
VERTEX
8
1
10
2671.531
20
-1021.421
0
SEQEND
8
1
0
POINT
8
2
10
2671.531
20
-1021.421
0
TEXT
8
2
10
2671.531
20
-1021.421
40
10.00
1
#179
0
POINT
8
3
10
2678.012
20
-1030.08
0
POINT
8
3
10
2683.027
20
-1039.401
0
POINT
8
3
10
2686.373
20
-1048.888
0
POINT
8
3
10
2688.019
20
-1058.181
0
POINT
8
3
10
2688.027
20
-1067.095
0
POINT
8
3
10
2686.472
20
-1075.532
0
POINT
8
2
10
2684.012
20
-1082.18
0
TEXT
8
2
10
2684.012
20
-1082.18
40
10.00
1
#180
0
POINT
8
4
10
2790.827
20
-1109.971
30
10
50
75.4162462241183
0
POINT
8
2
10
2790.827
20
-1109.971
0
TEXT
8
2
10
2790.827
20
-1109.971
40
10.00
1
#181
0
POINT
8
3
10
2805.708
20
-1113.035
0
POINT
8
3
10
2821.429
20
-1114.612
0
POINT
8
3
10
2828.914
20
-1114.815
0
POINT
8
4
10
2836.076
20
-1114.734
30
10
50
90.8422715146053
0
POINT
8
2
10
2836.076
20
-1114.734
0
TEXT
8
2
10
2836.076
20
-1114.734
40
10.00
1
#182
0
POINT
8
4
10
3319.978
20
-1114.734
30
10
50
90
0
POINT
8
2
10
3319.978
20
-1114.734
0
TEXT
8
2
10
3319.978
20
-1114.734
40
10.00
1
#183
0
POINT
8
4
10
3364.978
20
-1114.734
30
10
50
90
0
POINT
8
2
10
3364.978
20
-1114.734
0
TEXT
8
2
10
3364.978
20
-1114.734
40
10.00
1
#184
0
POINT
8
4
10
3424.962
20
-1114.734
30
10
50
89.9083176627883
0
POINT
8
2
10
3424.962
20
-1114.734
0
TEXT
8
2
10
3424.962
20
-1114.734
40
10.00
1
#185
0
POINT
8
2
10
3434.962
20
-1114.766
0
TEXT
8
2
10
3434.962
20
-1114.766
40
10.00
1
#186
0
POINT
8
2
10
3435.261
20
-928.038
0
TEXT
8
2
10
3435.261
20
-928.038
40
10.00
1
#187
0
POINT
8
4
10
3425.26
20
-929.276
30
10
50
269.908317662788
0
POINT
8
2
10
3425.26
20
-929.276
0
TEXT
8
2
10
3425.26
20
-929.276
40
10.00
1
#188
0
POINT
8
2
10
2985.117
20
-873.393
0
TEXT
8
2
10
2985.117
20
-873.393
40
10.00
1
#189
0
POINT
8
3
10
2980.82
20
-886.776
0
POINT
8
3
10
2974.952
20
-899.788
0
POINT
8
3
10
2967.579
20
-912.236
0
POINT
8
3
10
2958.777
20
-923.945
0
POINT
8
3
10
2948.699
20
-934.692
0
POINT
8
3
10
2937.496
20
-944.306
0
POINT
8
4
10
2931.667
20
-948.542
30
10
50
304.913640890166
0
POINT
8
2
10
2931.667
20
-948.542
0
TEXT
8
2
10
2931.667
20
-948.542
40
10.00
1
#190
0
POINT
8
3
10
2915.543
20
-958.489
0
POINT
8
3
10
2897.065
20
-967.916
0
POINT
8
3
10
2875.313
20
-977.085
0
POINT
8
3
10
2847.974
20
-986.656
0
POINT
8
4
10
2841.525
20
-988.702
30
10
50
287.104835354092
0
POINT
8
2
10
2841.525
20
-988.702
0
TEXT
8
2
10
2841.525
20
-988.702
40
10.00
1
#191
0
POINT
8
3
10
2811.978
20
-996.829
0
POINT
8
3
10
2783.023
20
-1003.164
0
POINT
8
3
10
2754.762
20
-1007.737
0
POINT
8
3
10
2727.221
20
-1010.602
0
POINT
8
3
10
2700.382
20
-1011.81
0
POINT
8
2
10
2679.26
20
-1011.611
0
TEXT
8
2
10
2679.26
20
-1011.611
40
10.00
1
#192
0
POINT
8
2
10
2671.531
20
-1021.421
0
TEXT
8
2
10
2671.531
20
-1021.421
40
10.00
1
#179
0
LINE
8
7
10
3179.99
20
-1042.344
11
2979.992
21
-1042.344
0
POINT
8
2
10
3179.99
20
-1042.344
0
TEXT
8
2
10
3179.99
20
-1042.344
40
10.00
1
#1
0
POINT
8
2
10
2979.992
20
-1042.344
0
TEXT
8
2
10
2979.992
20
-1042.344
40
10.00
1
#1
0
TEXT
8
1
10
2979.992
20
-1031.344
40
10.00
1
PIECE NAME: ARKAKOLASTFY1
0
TEXT
8
1
10
2979.992
20
-1020.344
40
10.00
1
SIZE: 1
0
TEXT
8
1
10
2979.992
20
-1009.344
40
10.00
1
ANNOTATION: 
0
TEXT
8
1
10
2979.992
20
-998.344
40
10.00
1
QUANTITY: 1
0
TEXT
8
1
10
2979.992
20
-987.344
40
10.00
1
MATERIAL: ASTAR
0
ENDBLK
0
BLOCK
8
0
2
17
70
0
10
0.0000
20
0.0000
0
POLYLINE
8
1
66
1
70
1
0
VERTEX
8
1
10
1323.71
20
-1624.456
0
VERTEX
8
1
10
1337.396
20
-1640.994
0
VERTEX
8
1
10
1355.528
20
-1660.557
0
VERTEX
8
1
10
1375.701
20
-1679.913
0
VERTEX
8
1
10
1398.112
20
-1699.14
0
VERTEX
8
1
10
1423.01
20
-1718.326
0
VERTEX
8
1
10
1450.717
20
-1737.579
0
VERTEX
8
1
10
1459.607
20
-1743.423
0
VERTEX
8
1
10
1477.698
20
-1753.632
0
VERTEX
8
1
10
1511.615
20
-1769.925
0
VERTEX
8
1
10
1537.3
20
-1782.647
0
VERTEX
8
1
10
1542.386
20
-1785.385
0
VERTEX
8
1
10
1554.682
20
-1793.174
0
VERTEX
8
1
10
1564.441
20
-1801.115
0
VERTEX
8
1
10
1571.914
20
-1809.119
0
VERTEX
8
1
10
1577.381
20
-1817.176
0
VERTEX
8
1
10
1581.065
20
-1825.33
0
VERTEX
8
1
10
1583.116
20
-1833.67
0
VERTEX
8
1
10
1583.588
20
-1842.308
0
VERTEX
8
1
10
1582.439
20
-1851.381
0
VERTEX
8
1
10
1692.385
20
-1858.127
0
VERTEX
8
1
10
1722.328
20
-1859.965
0
VERTEX
8
1
10
1752.272
20
-1861.803
0
VERTEX
8
1
10
1932.18
20
-1872.847
0
VERTEX
8
1
10
2206.713
20
-1889.694
0
VERTEX
8
1
10
2431.28
20
-1903.476
0
VERTEX
8
1
10
2491.167
20
-1907.152
0
VERTEX
8
1
10
2493.692
20
-1862.431
0
VERTEX
8
1
10
2496.326
20
-1790.387
0
VERTEX
8
1
10
2497.708
20
-1704.06
0
VERTEX
8
1
10
2497.699
20
-1567.25
0
VERTEX
8
1
10
2497.869
20
-1462.851
0
VERTEX
8
1
10
2496.891
20
-1368.916
0
VERTEX
8
1
10
2494.646
20
-1293.51
0
VERTEX
8
1
10
2491.167
20
-1227.346
0
VERTEX
8
1
10
2431.28
20
-1231.023
0
VERTEX
8
1
10
2206.713
20
-1244.804
0
VERTEX
8
1
10
1932.18
20
-1261.652
0
VERTEX
8
1
10
1752.272
20
-1272.695
0
VERTEX
8
1
10
1722.328
20
-1274.533
0
VERTEX
8
1
10
1692.385
20
-1276.371
0
VERTEX
8
1
10
1582.439
20
-1283.117
0
VERTEX
8
1
10
1582.972
20
-1286.05
0
VERTEX
8
1
10
1583.584
20
-1295.069
0
VERTEX
8
1
10
1582.603
20
-1303.633
0
VERTEX
8
1
10
1580.048
20
-1311.886
0
VERTEX
8
1
10
1575.833
20
-1319.96
0
VERTEX
8
1
10
1569.773
20
-1327.941
0
VERTEX
8
1
10
1561.59
20
-1335.9
0
VERTEX
8
1
10
1550.921
20
-1343.864
0
VERTEX
8
1
10
1537.3
20
-1351.851
0
VERTEX
8
1
10
1532.886
20
-1354.175
0
VERTEX
8
1
10
1487.588
20
-1375.919
0
VERTEX
8
1
10
1466.445
20
-1387.021
0
VERTEX
8
1
10
1450.717
20
-1396.92
0
VERTEX
8
1
10
1427.335
20
-1413.038
0
VERTEX
8
1
10
1402.001
20
-1432.227
0
VERTEX
8
1
10
1379.193
20
-1451.445
0
VERTEX
8
1
10
1358.663
20
-1470.781
0
VERTEX
8
1
10
1340.234
20
-1490.28
0
VERTEX
8
1
10
1323.71
20
-1510.043
0
VERTEX
8
1
10
1325.545
20
-1518.143
0
VERTEX
8
1
10
1327.026
20
-1531.574
0
VERTEX
8
1
10
1327.347
20
-1567.25
0
VERTEX
8
1
10
1327.231
20
-1598.211
0
VERTEX
8
1
10
1326.079
20
-1612.915
0
VERTEX
8
1
10
1323.71
20
-1624.456
0
SEQEND
8
1
0
POINT
8
2
10
1323.71
20
-1624.456
0
TEXT
8
2
10
1323.71
20
-1624.456
40
10.00
1
#510
0
POINT
8
3
10
1337.396
20
-1640.994
0
POINT
8
3
10
1355.528
20
-1660.557
0
POINT
8
3
10
1375.701
20
-1679.913
0
POINT
8
3
10
1398.112
20
-1699.14
0
POINT
8
3
10
1423.01
20
-1718.326
0
POINT
8
4
10
1450.717
20
-1737.579
30
10
50
57.0520313477146
0
POINT
8
2
10
1450.717
20
-1737.579
0
TEXT
8
2
10
1450.717
20
-1737.579
40
10.00
1
#511
0
POINT
8
3
10
1459.607
20
-1743.423
0
POINT
8
3
10
1477.698
20
-1753.632
0
POINT
8
3
10
1511.615
20
-1769.925
0
POINT
8
4
10
1537.3
20
-1782.647
30
10
50
61.125700212224
0
POINT
8
2
10
1537.3
20
-1782.647
0
TEXT
8
2
10
1537.3
20
-1782.647
40
10.00
1
#512
0
POINT
8
3
10
1542.386
20
-1785.385
0
POINT
8
3
10
1554.682
20
-1793.174
0
POINT
8
3
10
1564.441
20
-1801.115
0
POINT
8
3
10
1571.914
20
-1809.119
0
POINT
8
3
10
1577.381
20
-1817.176
0
POINT
8
3
10
1581.065
20
-1825.33
0
POINT
8
3
10
1583.116
20
-1833.67
0
POINT
8
3
10
1583.588
20
-1842.308
0
POINT
8
2
10
1582.439
20
-1851.381
0
TEXT
8
2
10
1582.439
20
-1851.381
40
10.00
1
#513
0
POINT
8
4
10
1692.385
20
-1858.127
30
10
50
86.4854972502253
0
POINT
8
2
10
1692.385
20
-1858.127
0
TEXT
8
2
10
1692.385
20
-1858.127
40
10.00
1
#514
0
POINT
8
2
10
1722.328
20
-1859.965
0
TEXT
8
2
10
1722.328
20
-1859.965
40
10.00
1
#515
0
POINT
8
4
10
1752.272
20
-1861.803
30
10
50
86.4797783722274
0
POINT
8
2
10
1752.272
20
-1861.803
0
TEXT
8
2
10
1752.272
20
-1861.803
40
10.00
1
#516
0
POINT
8
4
10
1932.18
20
-1872.847
30
10
50
86.4797783722273
0
POINT
8
2
10
1932.18
20
-1872.847
0
TEXT
8
2
10
1932.18
20
-1872.847
40
10.00
1
#517
0
POINT
8
4
10
2206.713
20
-1889.694
30
10
50
86.4797783722273
0
POINT
8
2
10
2206.713
20
-1889.694
0
TEXT
8
2
10
2206.713
20
-1889.694
40
10.00
1
#518
0
POINT
8
4
10
2431.28
20
-1903.476
30
10
50
86.47977837223
0
POINT
8
2
10
2431.28
20
-1903.476
0
TEXT
8
2
10
2431.28
20
-1903.476
40
10.00
1
#519
0
POINT
8
2
10
2491.167
20
-1907.152
0
TEXT
8
2
10
2491.167
20
-1907.152
40
10.00
1
#520
0
POINT
8
3
10
2493.692
20
-1862.431
0
POINT
8
3
10
2496.326
20
-1790.387
0
POINT
8
3
10
2497.708
20
-1704.06
0
POINT
8
4
10
2497.699
20
-1567.25
30
10
50
180
0
POINT
8
2
10
2497.699
20
-1567.25
0
TEXT
8
2
10
2497.699
20
-1567.25
40
10.00
1
#521
0
POINT
8
3
10
2497.869
20
-1462.851
0
POINT
8
3
10
2496.891
20
-1368.916
0
POINT
8
3
10
2494.646
20
-1293.51
0
POINT
8
2
10
2491.167
20
-1227.346
0
TEXT
8
2
10
2491.167
20
-1227.346
40
10.00
1
#522
0
POINT
8
4
10
2431.28
20
-1231.023
30
10
50
273.52022162777
0
POINT
8
2
10
2431.28
20
-1231.023
0
TEXT
8
2
10
2431.28
20
-1231.023
40
10.00
1
#523
0
POINT
8
4
10
2206.713
20
-1244.804
30
10
50
273.519869857499
0
POINT
8
2
10
2206.713
20
-1244.804
0
TEXT
8
2
10
2206.713
20
-1244.804
40
10.00
1
#524
0
POINT
8
4
10
1932.18
20
-1261.652
30
10
50
273.520221627773
0
POINT
8
2
10
1932.18
20
-1261.652
0
TEXT
8
2
10
1932.18
20
-1261.652
40
10.00
1
#525
0
POINT
8
4
10
1752.272
20
-1272.695
30
10
50
273.519869857499
0
POINT
8
2
10
1752.272
20
-1272.695
0
TEXT
8
2
10
1752.272
20
-1272.695
40
10.00
1
#526
0
POINT
8
2
10
1722.328
20
-1274.533
0
TEXT
8
2
10
1722.328
20
-1274.533
40
10.00
1
#527
0
POINT
8
4
10
1692.385
20
-1276.371
30
10
50
273.514151548108
0
POINT
8
2
10
1692.385
20
-1276.371
0
TEXT
8
2
10
1692.385
20
-1276.371
40
10.00
1
#528
0
POINT
8
2
10
1582.439
20
-1283.117
0
TEXT
8
2
10
1582.439
20
-1283.117
40
10.00
1
#529
0
POINT
8
3
10
1582.972
20
-1286.05
0
POINT
8
3
10
1583.584
20
-1295.069
0
POINT
8
3
10
1582.603
20
-1303.633
0
POINT
8
3
10
1580.048
20
-1311.886
0
POINT
8
3
10
1575.833
20
-1319.96
0
POINT
8
3
10
1569.773
20
-1327.941
0
POINT
8
3
10
1561.59
20
-1335.9
0
POINT
8
3
10
1550.921
20
-1343.864
0
POINT
8
4
10
1537.3
20
-1351.851
30
10
50
298.871533335525
0
POINT
8
2
10
1537.3
20
-1351.851
0
TEXT
8
2
10
1537.3
20
-1351.851
40
10.00
1
#530
0
POINT
8
3
10
1532.886
20
-1354.175
0
POINT
8
3
10
1487.588
20
-1375.919
0
POINT
8
3
10
1466.445
20
-1387.021
0
POINT
8
4
10
1450.717
20
-1396.92
30
10
50
302.947968652286
0
POINT
8
2
10
1450.717
20
-1396.92
0
TEXT
8
2
10
1450.717
20
-1396.92
40
10.00
1
#531
0
POINT
8
3
10
1427.335
20
-1413.038
0
POINT
8
3
10
1402.001
20
-1432.227
0
POINT
8
3
10
1379.193
20
-1451.445
0
POINT
8
3
10
1358.663
20
-1470.781
0
POINT
8
3
10
1340.234
20
-1490.28
0
POINT
8
2
10
1323.71
20
-1510.043
0
TEXT
8
2
10
1323.71
20
-1510.043
40
10.00
1
#532
0
POINT
8
3
10
1325.545
20
-1518.143
0
POINT
8
3
10
1327.026
20
-1531.574
0
POINT
8
4
10
1327.347
20
-1567.25
30
10
50
0
0
POINT
8
2
10
1327.347
20
-1567.25
0
TEXT
8
2
10
1327.347
20
-1567.25
40
10.00
1
#533
0
POINT
8
3
10
1327.231
20
-1598.211
0
POINT
8
3
10
1326.079
20
-1612.915
0
POINT
8
2
10
1323.71
20
-1624.456
0
TEXT
8
2
10
1323.71
20
-1624.456
40
10.00
1
#510
0
LINE
8
7
10
2075.948
20
-1398.149
11
1875.948
21
-1398.149
0
POINT
8
2
10
2075.948
20
-1398.149
0
TEXT
8
2
10
2075.948
20
-1398.149
40
10.00
1
#1
0
POINT
8
2
10
1875.948
20
-1398.149
0
TEXT
8
2
10
1875.948
20
-1398.149
40
10.00
1
#1
0
TEXT
8
1
10
1875.948
20
-1387.149
40
10.00
1
PIECE NAME: ARKA
0
TEXT
8
1
10
1875.948
20
-1376.149
40
10.00
1
SIZE: 1
0
TEXT
8
1
10
1875.948
20
-1365.149
40
10.00
1
ANNOTATION: 
0
TEXT
8
1
10
1875.948
20
-1354.149
40
10.00
1
QUANTITY: 1
0
TEXT
8
1
10
1875.948
20
-1343.149
40
10.00
1
MATERIAL: KUMAS
0
ENDBLK
0
BLOCK
8
0
2
18
70
0
10
0.0000
20
0.0000
0
POLYLINE
8
1
66
1
70
1
0
VERTEX
8
1
10
2634.311
20
-1512.936
0
VERTEX
8
1
10
2648.014
20
-1529.493
0
VERTEX
8
1
10
2666.126
20
-1549.034
0
VERTEX
8
1
10
2686.298
20
-1568.388
0
VERTEX
8
1
10
2708.708
20
-1587.614
0
VERTEX
8
1
10
2733.606
20
-1606.798
0
VERTEX
8
1
10
2761.311
20
-1626.05
0
VERTEX
8
1
10
2770.202
20
-1631.894
0
VERTEX
8
1
10
2788.291
20
-1642.103
0
VERTEX
8
1
10
2822.208
20
-1658.396
0
VERTEX
8
1
10
2847.894
20
-1671.118
0
VERTEX
8
1
10
2854.382
20
-1674.68
0
VERTEX
8
1
10
2865.809
20
-1682.269
0
VERTEX
8
1
10
2875.164
20
-1690.297
0
VERTEX
8
1
10
2882.481
20
-1698.567
0
VERTEX
8
1
10
2887.911
20
-1707
0
VERTEX
8
1
10
2891.608
20
-1715.589
0
VERTEX
8
1
10
2893.679
20
-1724.372
0
VERTEX
8
1
10
2894.17
20
-1733.43
0
VERTEX
8
1
10
2893.045
20
-1742.864
0
VERTEX
8
1
10
3004.984
20
-1749.599
0
VERTEX
8
1
10
3034.922
20
-1751.436
0
VERTEX
8
1
10
3064.867
20
-1753.274
0
VERTEX
8
1
10
3244.774
20
-1764.318
0
VERTEX
8
1
10
3519.307
20
-1781.165
0
VERTEX
8
1
10
3753.855
20
-1795.56
0
VERTEX
8
1
10
3756.38
20
-1750.743
0
VERTEX
8
1
10
3758.987
20
-1678.984
0
VERTEX
8
1
10
3760.34
20
-1592.861
0
VERTEX
8
1
10
3760.293
20
-1453.72
0
VERTEX
8
1
10
3760.492
20
-1346.698
0
VERTEX
8
1
10
3759.539
20
-1252.923
0
VERTEX
8
1
10
3757.313
20
-1177.728
0
VERTEX
8
1
10
3753.855
20
-1111.88
0
VERTEX
8
1
10
3519.307
20
-1126.275
0
VERTEX
8
1
10
3244.774
20
-1143.122
0
VERTEX
8
1
10
3064.867
20
-1154.166
0
VERTEX
8
1
10
3034.922
20
-1156.005
0
VERTEX
8
1
10
3004.984
20
-1157.842
0
VERTEX
8
1
10
2893.045
20
-1164.577
0
VERTEX
8
1
10
2894.061
20
-1170.682
0
VERTEX
8
1
10
2894.177
20
-1179.479
0
VERTEX
8
1
10
2892.69
20
-1188.227
0
VERTEX
8
1
10
2889.55
20
-1196.959
0
VERTEX
8
1
10
2884.661
20
-1205.666
0
VERTEX
8
1
10
2877.945
20
-1214.232
0
VERTEX
8
1
10
2869.389
20
-1222.457
0
VERTEX
8
1
10
2859.201
20
-1229.972
0
VERTEX
8
1
10
2847.894
20
-1236.322
0
VERTEX
8
1
10
2843.481
20
-1238.646
0
VERTEX
8
1
10
2798.182
20
-1260.39
0
VERTEX
8
1
10
2777.039
20
-1271.492
0
VERTEX
8
1
10
2761.311
20
-1281.39
0
VERTEX
8
1
10
2737.929
20
-1297.508
0
VERTEX
8
1
10
2712.619
20
-1316.678
0
VERTEX
8
1
10
2689.811
20
-1335.894
0
VERTEX
8
1
10
2669.282
20
-1355.227
0
VERTEX
8
1
10
2650.835
20
-1374.743
0
VERTEX
8
1
10
2634.311
20
-1394.505
0
VERTEX
8
1
10
2636.197
20
-1402.996
0
VERTEX
8
1
10
2637.664
20
-1416.713
0
VERTEX
8
1
10
2637.941
20
-1453.72
0
VERTEX
8
1
10
2637.838
20
-1486.479
0
VERTEX
8
1
10
2636.686
20
-1501.272
0
VERTEX
8
1
10
2634.311
20
-1512.936
0
SEQEND
8
1
0
POINT
8
2
10
2634.311
20
-1512.936
0
TEXT
8
2
10
2634.311
20
-1512.936
40
10.00
1
#550
0
POINT
8
3
10
2648.014
20
-1529.493
0
POINT
8
3
10
2666.126
20
-1549.034
0
POINT
8
3
10
2686.298
20
-1568.388
0
POINT
8
3
10
2708.708
20
-1587.614
0
POINT
8
3
10
2733.606
20
-1606.798
0
POINT
8
4
10
2761.311
20
-1626.05
30
10
50
57.0520313477146
0
POINT
8
2
10
2761.311
20
-1626.05
0
TEXT
8
2
10
2761.311
20
-1626.05
40
10.00
1
#551
0
POINT
8
3
10
2770.202
20
-1631.894
0
POINT
8
3
10
2788.291
20
-1642.103
0
POINT
8
3
10
2822.208
20
-1658.396
0
POINT
8
4
10
2847.894
20
-1671.118
30
10
50
61.1257002122228
0
POINT
8
2
10
2847.894
20
-1671.118
0
TEXT
8
2
10
2847.894
20
-1671.118
40
10.00
1
#552
0
POINT
8
3
10
2854.382
20
-1674.68
0
POINT
8
3
10
2865.809
20
-1682.269
0
POINT
8
3
10
2875.164
20
-1690.297
0
POINT
8
3
10
2882.481
20
-1698.567
0
POINT
8
3
10
2887.911
20
-1707
0
POINT
8
3
10
2891.608
20
-1715.589
0
POINT
8
3
10
2893.679
20
-1724.372
0
POINT
8
3
10
2894.17
20
-1733.43
0
POINT
8
2
10
2893.045
20
-1742.864
0
TEXT
8
2
10
2893.045
20
-1742.864
40
10.00
1
#553
0
POINT
8
4
10
3004.984
20
-1749.599
30
10
50
86.5198119867188
0
POINT
8
2
10
3004.984
20
-1749.599
0
TEXT
8
2
10
3004.984
20
-1749.599
40
10.00
1
#554
0
POINT
8
2
10
3034.922
20
-1751.436
0
TEXT
8
2
10
3034.922
20
-1751.436
40
10.00
1
#555
0
POINT
8
4
10
3064.867
20
-1753.274
30
10
50
86.4854972502266
0
POINT
8
2
10
3064.867
20
-1753.274
0
TEXT
8
2
10
3064.867
20
-1753.274
40
10.00
1
#556
0
POINT
8
4
10
3244.774
20
-1764.318
30
10
50
86.4797783722273
0
POINT
8
2
10
3244.774
20
-1764.318
0
TEXT
8
2
10
3244.774
20
-1764.318
40
10.00
1
#557
0
POINT
8
4
10
3519.307
20
-1781.165
30
10
50
86.4797783722273
0
POINT
8
2
10
3519.307
20
-1781.165
0
TEXT
8
2
10
3519.307
20
-1781.165
40
10.00
1
#558
0
POINT
8
2
10
3753.855
20
-1795.56
0
TEXT
8
2
10
3753.855
20
-1795.56
40
10.00
1
#559
0
POINT
8
3
10
3756.38
20
-1750.743
0
POINT
8
3
10
3758.987
20
-1678.984
0
POINT
8
3
10
3760.34
20
-1592.861
0
POINT
8
4
10
3760.293
20
-1453.72
30
10
50
180
0
POINT
8
2
10
3760.293
20
-1453.72
0
TEXT
8
2
10
3760.293
20
-1453.72
40
10.00
1
#560
0
POINT
8
3
10
3760.492
20
-1346.698
0
POINT
8
3
10
3759.539
20
-1252.923
0
POINT
8
3
10
3757.313
20
-1177.728
0
POINT
8
2
10
3753.855
20
-1111.88
0
TEXT
8
2
10
3753.855
20
-1111.88
40
10.00
1
#561
0
POINT
8
4
10
3519.307
20
-1126.275
30
10
50
273.519869857499
0
POINT
8
2
10
3519.307
20
-1126.275
0
TEXT
8
2
10
3519.307
20
-1126.275
40
10.00
1
#562
0
POINT
8
4
10
3244.774
20
-1143.122
30
10
50
273.519869857499
0
POINT
8
2
10
3244.774
20
-1143.122
0
TEXT
8
2
10
3244.774
20
-1143.122
40
10.00
1
#563
0
POINT
8
4
10
3064.867
20
-1154.166
30
10
50
273.514151548107
0
POINT
8
2
10
3064.867
20
-1154.166
0
TEXT
8
2
10
3064.867
20
-1154.166
40
10.00
1
#564
0
POINT
8
2
10
3034.922
20
-1156.005
0
TEXT
8
2
10
3034.922
20
-1156.005
40
10.00
1
#565
0
POINT
8
4
10
3004.984
20
-1157.842
30
10
50
273.479840223695
0
POINT
8
2
10
3004.984
20
-1157.842
0
TEXT
8
2
10
3004.984
20
-1157.842
40
10.00
1
#566
0
POINT
8
2
10
2893.045
20
-1164.577
0
TEXT
8
2
10
2893.045
20
-1164.577
40
10.00
1
#567
0
POINT
8
3
10
2894.061
20
-1170.682
0
POINT
8
3
10
2894.177
20
-1179.479
0
POINT
8
3
10
2892.69
20
-1188.227
0
POINT
8
3
10
2889.55
20
-1196.959
0
POINT
8
3
10
2884.661
20
-1205.666
0
POINT
8
3
10
2877.945
20
-1214.232
0
POINT
8
3
10
2869.389
20
-1222.457
0
POINT
8
3
10
2859.201
20
-1229.972
0
POINT
8
4
10
2847.894
20
-1236.322
30
10
50
298.871533335525
0
POINT
8
2
10
2847.894
20
-1236.322
0
TEXT
8
2
10
2847.894
20
-1236.322
40
10.00
1
#568
0
POINT
8
3
10
2843.481
20
-1238.646
0
POINT
8
3
10
2798.182
20
-1260.39
0
POINT
8
3
10
2777.039
20
-1271.492
0
POINT
8
4
10
2761.311
20
-1281.39
30
10
50
302.944852857578
0
POINT
8
2
10
2761.311
20
-1281.39
0
TEXT
8
2
10
2761.311
20
-1281.39
40
10.00
1
#569
0
POINT
8
3
10
2737.929
20
-1297.508
0
POINT
8
3
10
2712.619
20
-1316.678
0
POINT
8
3
10
2689.811
20
-1335.894
0
POINT
8
3
10
2669.282
20
-1355.227
0
POINT
8
3
10
2650.835
20
-1374.743
0
POINT
8
2
10
2634.311
20
-1394.505
0
TEXT
8
2
10
2634.311
20
-1394.505
40
10.00
1
#570
0
POINT
8
3
10
2636.197
20
-1402.996
0
POINT
8
3
10
2637.664
20
-1416.713
0
POINT
8
4
10
2637.941
20
-1453.72
30
10
50
0
0
POINT
8
2
10
2637.941
20
-1453.72
0
TEXT
8
2
10
2637.941
20
-1453.72
40
10.00
1
#571
0
POINT
8
3
10
2637.838
20
-1486.479
0
POINT
8
3
10
2636.686
20
-1501.272
0
POINT
8
2
10
2634.311
20
-1512.936
0
TEXT
8
2
10
2634.311
20
-1512.936
40
10.00
1
#550
0
LINE
8
7
10
3388.541
20
-1284.621
11
3188.541
21
-1284.621
0
POINT
8
2
10
3388.541
20
-1284.621
0
TEXT
8
2
10
3388.541
20
-1284.621
40
10.00
1
#1
0
POINT
8
2
10
3188.541
20
-1284.621
0
TEXT
8
2
10
3188.541
20
-1284.621
40
10.00
1
#1
0
TEXT
8
1
10
3188.541
20
-1273.621
40
10.00
1
PIECE NAME: ARKAST
0
TEXT
8
1
10
3188.541
20
-1262.621
40
10.00
1
SIZE: 1
0
TEXT
8
1
10
3188.541
20
-1251.621
40
10.00
1
ANNOTATION: 
0
TEXT
8
1
10
3188.541
20
-1240.621
40
10.00
1
QUANTITY: 1
0
TEXT
8
1
10
3188.541
20
-1229.621
40
10.00
1
MATERIAL: ASTAR
0
ENDBLK
0
BLOCK
8
0
2
19
70
0
10
0.0000
20
0.0000
0
POLYLINE
8
1
66
1
70
1
0
VERTEX
8
1
10
1314.479
20
-313.182
0
VERTEX
8
1
10
1340.331
20
-367.597
0
VERTEX
8
1
10
1369.34
20
-354.168
0
VERTEX
8
1
10
1401.729
20
-340.843
0
VERTEX
8
1
10
1434.333
20
-329.146
0
VERTEX
8
1
10
1467.041
20
-319.101
0
VERTEX
8
1
10
1480.269
20
-315.483
0
VERTEX
8
1
10
1515.076
20
-307.127
0
VERTEX
8
1
10
1551.185
20
-300.125
0
VERTEX
8
1
10
1578.837
20
-295.808
0
VERTEX
8
1
10
1618.416
20
-291.079
0
VERTEX
8
1
10
1661.34
20
-287.625
0
VERTEX
8
1
10
1708.867
20
-285.497
0
VERTEX
8
1
10
1763.551
20
-284.777
0
VERTEX
8
1
10
2117.615
20
-284.777
0
VERTEX
8
1
10
2541.466
20
-284.777
0
VERTEX
8
1
10
2542.271
20
-214.782
0
VERTEX
8
1
10
1407.632
20
-214.782
0
VERTEX
8
1
10
1408.019
20
-221.205
0
VERTEX
8
1
10
1407.203
20
-230.471
0
VERTEX
8
1
10
1404.731
20
-239.904
0
VERTEX
8
1
10
1400.516
20
-249.477
0
VERTEX
8
1
10
1394.465
20
-259.096
0
VERTEX
8
1
10
1386.596
20
-268.5
0
VERTEX
8
1
10
1377.115
20
-277.291
0
VERTEX
8
1
10
1370.116
20
-282.836
0
VERTEX
8
1
10
1355.923
20
-292.404
0
VERTEX
8
1
10
1338.479
20
-302.062
0
VERTEX
8
1
10
1314.479
20
-313.182
0
SEQEND
8
1
0
POINT
8
2
10
1314.479
20
-313.182
0
TEXT
8
2
10
1314.479
20
-313.182
40
10.00
1
#586
0
POINT
8
2
10
1340.331
20
-367.597
0
TEXT
8
2
10
1340.331
20
-367.597
40
10.00
1
#587
0
POINT
8
3
10
1369.34
20
-354.168
0
POINT
8
3
10
1401.729
20
-340.843
0
POINT
8
3
10
1434.333
20
-329.146
0
POINT
8
3
10
1467.041
20
-319.101
0
POINT
8
3
10
1480.269
20
-315.483
0
POINT
8
3
10
1515.076
20
-307.127
0
POINT
8
4
10
1551.185
20
-300.125
30
10
50
99.7533955271502
0
POINT
8
2
10
1551.185
20
-300.125
0
TEXT
8
2
10
1551.185
20
-300.125
40
10.00
1
#588
0
POINT
8
3
10
1578.837
20
-295.808
0
POINT
8
3
10
1618.416
20
-291.079
0
POINT
8
3
10
1661.34
20
-287.625
0
POINT
8
3
10
1708.867
20
-285.497
0
POINT
8
4
10
1763.551
20
-284.777
30
10
50
90
0
POINT
8
2
10
1763.551
20
-284.777
0
TEXT
8
2
10
1763.551
20
-284.777
40
10.00
1
#589
0
POINT
8
4
10
2117.615
20
-284.777
30
10
50
90
0
POINT
8
2
10
2117.615
20
-284.777
0
TEXT
8
2
10
2117.615
20
-284.777
40
10.00
1
#590
0
POINT
8
2
10
2541.466
20
-284.777
0
TEXT
8
2
10
2541.466
20
-284.777
40
10.00
1
#591
0
POINT
8
2
10
2542.271
20
-214.782
0
TEXT
8
2
10
2542.271
20
-214.782
40
10.00
1
#592
0
POINT
8
2
10
1407.632
20
-214.782
0
TEXT
8
2
10
1407.632
20
-214.782
40
10.00
1
#593
0
POINT
8
3
10
1408.019
20
-221.205
0
POINT
8
3
10
1407.203
20
-230.471
0
POINT
8
3
10
1404.731
20
-239.904
0
POINT
8
3
10
1400.516
20
-249.477
0
POINT
8
3
10
1394.465
20
-259.096
0
POINT
8
3
10
1386.596
20
-268.5
0
POINT
8
2
10
1377.115
20
-277.291
0
TEXT
8
2
10
1377.115
20
-277.291
40
10.00
1
#594
0
POINT
8
3
10
1370.116
20
-282.836
0
POINT
8
3
10
1355.923
20
-292.404
0
POINT
8
3
10
1338.479
20
-302.062
0
POINT
8
2
10
1314.479
20
-313.182
0
TEXT
8
2
10
1314.479
20
-313.182
40
10.00
1
#586
0
LINE
8
7
10
1987.041
20
-242.028
11
1887.042
21
-242.028
0
POINT
8
2
10
1987.041
20
-242.028
0
TEXT
8
2
10
1987.041
20
-242.028
40
10.00
1
#1
0
POINT
8
2
10
1887.042
20
-242.028
0
TEXT
8
2
10
1887.042
20
-242.028
40
10.00
1
#1
0
TEXT
8
1
10
1887.042
20
-231.028
40
10.00
1
PIECE NAME: MOSTRA
0
TEXT
8
1
10
1887.042
20
-220.028
40
10.00
1
SIZE: 1
0
TEXT
8
1
10
1887.042
20
-209.028
40
10.00
1
ANNOTATION: 
0
TEXT
8
1
10
1887.042
20
-198.028
40
10.00
1
QUANTITY: 1
0
TEXT
8
1
10
1887.042
20
-187.028
40
10.00
1
MATERIAL: KUMAS
0
ENDBLK
0
BLOCK
8
0
2
20
70
0
10
0.0000
20
0.0000
0
POLYLINE
8
1
66
1
70
1
0
VERTEX
8
1
10
501.734
20
-1159.42
0
VERTEX
8
1
10
501.734
20
-841.742
0
VERTEX
8
1
10
-146.524
20
-841.742
0
VERTEX
8
1
10
-146.524
20
-851.742
0
VERTEX
8
1
10
-146.713
20
-855.5
0
VERTEX
8
1
10
-147.287
20
-859.425
0
VERTEX
8
1
10
-148.308
20
-863.693
0
VERTEX
8
1
10
-149.714
20
-867.957
0
VERTEX
8
1
10
-151.571
20
-872.396
0
VERTEX
8
1
10
-153.904
20
-876.994
0
VERTEX
8
1
10
-156.533
20
-881.398
0
VERTEX
8
1
10
-159.834
20
-886.187
0
VERTEX
8
1
10
-163.582
20
-890.929
0
VERTEX
8
1
10
-167.608
20
-895.425
0
VERTEX
8
1
10
-172.11
20
-899.895
0
VERTEX
8
1
10
-177.019
20
-904.232
0
VERTEX
8
1
10
-184.056
20
-910.101
0
VERTEX
8
1
10
-178.822
20
-917.624
0
VERTEX
8
1
10
-172.83
20
-925.874
0
VERTEX
8
1
10
-166.426
20
-934.025
0
VERTEX
8
1
10
-159.334
20
-942.433
0
VERTEX
8
1
10
-152.134
20
-950.432
0
VERTEX
8
1
10
-143.763
20
-959.182
0
VERTEX
8
1
10
-134.655
20
-968.13
0
VERTEX
8
1
10
-125.465
20
-976.643
0
VERTEX
8
1
10
-115.726
20
-985.161
0
VERTEX
8
1
10
-105.806
20
-993.347
0
VERTEX
8
1
10
-96.132
20
-1000.879
0
VERTEX
8
1
10
-86.307
20
-1008.076
0
VERTEX
8
1
10
-76.581
20
-1014.735
0
VERTEX
8
1
10
-68.117
20
-1020.124
0
VERTEX
8
1
10
-61.282
20
-1024.233
0
VERTEX
8
1
10
-48.55
20
-1031.508
0
VERTEX
8
1
10
-34.078
20
-1039.294
0
VERTEX
8
1
10
-2.307
20
-1055.557
0
VERTEX
8
1
10
10.004
20
-1062.112
0
VERTEX
8
1
10
18.46
20
-1066.994
0
VERTEX
8
1
10
26.488
20
-1072.169
0
VERTEX
8
1
10
31.687
20
-1075.984
0
VERTEX
8
1
10
35.993
20
-1079.58
0
VERTEX
8
1
10
39.622
20
-1083.071
0
VERTEX
8
1
10
42.756
20
-1086.599
0
VERTEX
8
1
10
45.349
20
-1090.073
0
VERTEX
8
1
10
46.762
20
-1092.271
0
VERTEX
8
1
10
48.841
20
-1096.07
0
VERTEX
8
1
10
50.504
20
-1099.915
0
VERTEX
8
1
10
51.793
20
-1103.853
0
VERTEX
8
1
10
52.721
20
-1107.891
0
VERTEX
8
1
10
53.338
20
-1112.329
0
VERTEX
8
1
10
53.586
20
-1116.887
0
VERTEX
8
1
10
53.466
20
-1121.889
0
VERTEX
8
1
10
52.854
20
-1131.87
0
VERTEX
8
1
10
162.8
20
-1138.616
0
VERTEX
8
1
10
192.743
20
-1140.454
0
VERTEX
8
1
10
222.687
20
-1142.292
0
VERTEX
8
1
10
402.595
20
-1153.336
0
VERTEX
8
1
10
501.734
20
-1159.42
0
SEQEND
8
1
0
POINT
8
2
10
501.734
20
-1159.42
0
TEXT
8
2
10
501.734
20
-1159.42
40
10.00
1
#598
0
POINT
8
2
10
501.734
20
-841.742
0
TEXT
8
2
10
501.734
20
-841.742
40
10.00
1
#599
0
POINT
8
2
10
-146.524
20
-841.742
0
TEXT
8
2
10
-146.524
20
-841.742
40
10.00
1
#600
0
POINT
8
3
10
-146.524
20
-851.742
0
POINT
8
3
10
-146.713
20
-855.5
0
POINT
8
3
10
-147.287
20
-859.425
0
POINT
8
3
10
-148.308
20
-863.693
0
POINT
8
3
10
-149.714
20
-867.957
0
POINT
8
3
10
-151.571
20
-872.396
0
POINT
8
3
10
-153.904
20
-876.994
0
POINT
8
3
10
-156.533
20
-881.398
0
POINT
8
3
10
-159.834
20
-886.187
0
POINT
8
3
10
-163.582
20
-890.929
0
POINT
8
3
10
-167.608
20
-895.425
0
POINT
8
3
10
-172.11
20
-899.895
0
POINT
8
3
10
-177.019
20
-904.232
0
POINT
8
2
10
-184.056
20
-910.101
0
TEXT
8
2
10
-184.056
20
-910.101
40
10.00
1
#601
0
POINT
8
3
10
-178.822
20
-917.624
0
POINT
8
3
10
-172.83
20
-925.874
0
POINT
8
3
10
-166.426
20
-934.025
0
POINT
8
3
10
-159.334
20
-942.433
0
POINT
8
3
10
-152.134
20
-950.432
0
POINT
8
3
10
-143.763
20
-959.182
0
POINT
8
3
10
-134.655
20
-968.13
0
POINT
8
3
10
-125.465
20
-976.643
0
POINT
8
3
10
-115.726
20
-985.161
0
POINT
8
3
10
-105.806
20
-993.347
0
POINT
8
3
10
-96.132
20
-1000.879
0
POINT
8
3
10
-86.307
20
-1008.076
0
POINT
8
3
10
-76.581
20
-1014.735
0
POINT
8
4
10
-68.117
20
-1020.124
30
10
50
58.5144849413028
0
POINT
8
2
10
-68.117
20
-1020.124
0
TEXT
8
2
10
-68.117
20
-1020.124
40
10.00
1
#602
0
POINT
8
3
10
-61.282
20
-1024.233
0
POINT
8
3
10
-48.55
20
-1031.508
0
POINT
8
3
10
-34.078
20
-1039.294
0
POINT
8
3
10
-2.307
20
-1055.557
0
POINT
8
3
10
10.004
20
-1062.112
0
POINT
8
4
10
18.46
20
-1066.994
30
10
50
58.8023844420528
0
POINT
8
2
10
18.46
20
-1066.994
0
TEXT
8
2
10
18.46
20
-1066.994
40
10.00
1
#603
0
POINT
8
3
10
26.488
20
-1072.169
0
POINT
8
3
10
31.687
20
-1075.984
0
POINT
8
3
10
35.993
20
-1079.58
0
POINT
8
3
10
39.622
20
-1083.071
0
POINT
8
3
10
42.756
20
-1086.599
0
POINT
8
4
10
45.349
20
-1090.073
30
10
50
34.2081214204627
0
POINT
8
2
10
45.349
20
-1090.073
0
TEXT
8
2
10
45.349
20
-1090.073
40
10.00
1
#604
0
POINT
8
3
10
46.762
20
-1092.271
0
POINT
8
3
10
48.841
20
-1096.07
0
POINT
8
3
10
50.504
20
-1099.915
0
POINT
8
3
10
51.793
20
-1103.853
0
POINT
8
3
10
52.721
20
-1107.891
0
POINT
8
3
10
53.338
20
-1112.329
0
POINT
8
3
10
53.586
20
-1116.887
0
POINT
8
3
10
53.466
20
-1121.889
0
POINT
8
2
10
52.854
20
-1131.87
0
TEXT
8
2
10
52.854
20
-1131.87
40
10.00
1
#605
0
POINT
8
4
10
162.8
20
-1138.616
30
10
50
86.4797783722277
0
POINT
8
2
10
162.8
20
-1138.616
0
TEXT
8
2
10
162.8
20
-1138.616
40
10.00
1
#606
0
POINT
8
2
10
192.743
20
-1140.454
0
TEXT
8
2
10
192.743
20
-1140.454
40
10.00
1
#607
0
POINT
8
4
10
222.687
20
-1142.292
30
10
50
86.4854972502256
0
POINT
8
2
10
222.687
20
-1142.292
0
TEXT
8
2
10
222.687
20
-1142.292
40
10.00
1
#608
0
POINT
8
4
10
402.595
20
-1153.336
30
10
50
86.4854972502256
0
POINT
8
2
10
402.595
20
-1153.336
0
TEXT
8
2
10
402.595
20
-1153.336
40
10.00
1
#609
0
POINT
8
2
10
501.734
20
-1159.42
0
TEXT
8
2
10
501.734
20
-1159.42
40
10.00
1
#598
0
POLYLINE
8
8
66
1
70
1
0
VERTEX
8
8
10
238.842
20
-1048.833
0
VERTEX
8
8
10
407.828
20
-1067.372
0
VERTEX
8
8
10
412.736
20
-1022.64
0
VERTEX
8
8
10
243.75
20
-1004.101
0
VERTEX
8
8
10
238.842
20
-1048.833
0
SEQEND
8
8
0
POINT
8
2
10
238.842
20
-1048.833
0
TEXT
8
2
10
238.842
20
-1048.833
40
10.00
1
#610
0
POINT
8
2
10
407.828
20
-1067.372
0
TEXT
8
2
10
407.828
20
-1067.372
40
10.00
1
#611
0
POINT
8
2
10
412.736
20
-1022.64
0
TEXT
8
2
10
412.736
20
-1022.64
40
10.00
1
#612
0
POINT
8
2
10
243.75
20
-1004.101
0
TEXT
8
2
10
243.75
20
-1004.101
40
10.00
1
#613
0
LINE
8
7
10
270.95
20
-1000.265
11
50.167
21
-1000.265
0
POINT
8
2
10
270.95
20
-1000.265
0
TEXT
8
2
10
270.95
20
-1000.265
40
10.00
1
#1
0
POINT
8
2
10
50.167
20
-1000.265
0
TEXT
8
2
10
50.167
20
-1000.265
40
10.00
1
#1
0
TEXT
8
1
10
50.167
20
-989.265
40
10.00
1
PIECE NAME: ONCZ
0
TEXT
8
1
10
50.167
20
-978.265
40
10.00
1
SIZE: 1
0
TEXT
8
1
10
50.167
20
-967.265
40
10.00
1
ANNOTATION: 
0
TEXT
8
1
10
50.167
20
-956.265
40
10.00
1
QUANTITY: 1
0
TEXT
8
1
10
50.167
20
-945.265
40
10.00
1
MATERIAL: ÇÝZÝM
0
ENDBLK
0
ENDSEC
0
SECTION
2
ENTITIES
0
INSERT
8
1
2
0
10
0
20
0
0
INSERT
8
1
2
1
10
0
20
0
0
INSERT
8
1
2
2
10
0
20
0
0
INSERT
8
1
2
3
10
0
20
0
0
INSERT
8
1
2
4
10
0
20
0
0
INSERT
8
1
2
5
10
0
20
0
0
INSERT
8
1
2
6
10
0
20
0
0
INSERT
8
1
2
7
10
0
20
0
0
INSERT
8
1
2
8
10
0
20
0
0
INSERT
8
1
2
9
10
0
20
0
0
INSERT
8
1
2
10
10
0
20
0
0
INSERT
8
1
2
11
10
0
20
0
0
INSERT
8
1
2
12
10
0
20
0
0
INSERT
8
1
2
13
10
0
20
0
0
INSERT
8
1
2
14
10
0
20
0
0
INSERT
8
1
2
15
10
0
20
0
0
INSERT
8
1
2
16
10
0
20
0
0
INSERT
8
1
2
17
10
0
20
0
0
INSERT
8
1
2
18
10
0
20
0
0
INSERT
8
1
2
19
10
0
20
0
0
INSERT
8
1
2
20
10
0
20
0
0
TEXT
8
1
10
-184.056
20
-2109.39
40
10.00
1
STYLE NAME: 262-3087 KB-ÇÝN
0
TEXT
8
1
10
-184.056
20
-2120.39
40
10.00
1
CREATION DATE: 04-03-2026
0
TEXT
8
1
10
-184.056
20
-2131.39
40
10.00
1
CREATION TIME: 12:17:03
0
TEXT
8
1
10
-184.056
20
-2142.39
40
10.00
1
AUTHOR: GEMINI CAD SYSTEMS
0
TEXT
8
1
10
-184.056
20
-2153.39
40
10.00
1
PRODUCT: GEMINI PATTERN DESIGNER
0
TEXT
8
1
10
-184.056
20
-2164.39
40
10.00
1
SAMPLE SIZE: 1
0
TEXT
8
1
10
-184.056
20
-2175.39
40
10.00
1
GRADE RULE TABLE: 262-3087 KB-ÇÝN
0
TEXT
8
1
10
-184.056
20
-2186.39
40
10.00
1
UNITS: METRIC
0
ENDSEC
0
EOF
