0
SECTION
2
HEADER
9
$LUNITS
70
2
9
$INSUNITS
70
4
0
ENDSEC
0
SECTION
2
BLOCKS
0
BLOCK
8
0
2
0
70
0
10
0.0000
20
0.0000
0
POLYLINE
8
1
66
1
70
1
0
VERTEX
8
1
10
11.86
20
-1008.069
0
VERTEX
8
1
10
89.96
20
-1069.861
0
VERTEX
8
1
10
95.902
20
-1057.665
0
VERTEX
8
1
10
103.093
20
-1039.265
0
VERTEX
8
1
10
110.078
20
-1016.585
0
VERTEX
8
1
10
116.686
20
-989.22
0
VERTEX
8
1
10
122.679
20
-957.072
0
VERTEX
8
1
10
127.783
20
-920.452
0
VERTEX
8
1
10
131.705
20
-880.307
0
VERTEX
8
1
10
134.164
20
-838.533
0
VERTEX
8
1
10
134.989
20
-798.073
0
VERTEX
8
1
10
134.431
20
-764.951
0
VERTEX
8
1
10
132.253
20
-723.187
0
VERTEX
8
1
10
128.572
20
-682.581
0
VERTEX
8
1
10
123.65
20
-645.208
0
VERTEX
8
1
10
117.793
20
-612.248
0
VERTEX
8
1
10
111.286
20
-584.076
0
VERTEX
8
1
10
104.358
20
-560.596
0
VERTEX
8
1
10
97.194
20
-541.472
0
VERTEX
8
1
10
89.96
20
-526.285
0
VERTEX
8
1
10
11.86
20
-588.077
0
VERTEX
8
1
10
11.266
20
-591.74
0
VERTEX
8
1
10
10.349
20
-603.972
0
VERTEX
8
1
10
11.032
20
-616.977
0
VERTEX
8
1
10
13.493
20
-631.365
0
VERTEX
8
1
10
18.236
20
-648.467
0
VERTEX
8
1
10
28.664
20
-677.277
0
VERTEX
8
1
10
31.98
20
-678.917
0
VERTEX
8
1
10
39.47
20
-683.892
0
VERTEX
8
1
10
46.335
20
-690.417
0
VERTEX
8
1
10
52.597
20
-698.681
0
VERTEX
8
1
10
58.234
20
-708.928
0
VERTEX
8
1
10
63.164
20
-721.45
0
VERTEX
8
1
10
67.279
20
-736.607
0
VERTEX
8
1
10
70.066
20
-752.206
0
VERTEX
8
1
10
72.188
20
-773.272
0
VERTEX
8
1
10
72.949
20
-798.073
0
VERTEX
8
1
10
72.37
20
-819.844
0
VERTEX
8
1
10
70.412
20
-841.381
0
VERTEX
8
1
10
67.279
20
-859.539
0
VERTEX
8
1
10
65.688
20
-866.138
0
VERTEX
8
1
10
61.216
20
-880.173
0
VERTEX
8
1
10
55.978
20
-891.722
0
VERTEX
8
1
10
50.081
20
-901.107
0
VERTEX
8
1
10
43.567
20
-908.628
0
VERTEX
8
1
10
36.447
20
-914.495
0
VERTEX
8
1
10
28.664
20
-918.869
0
VERTEX
8
1
10
19.518
20
-943.798
0
VERTEX
8
1
10
14.201
20
-961.778
0
VERTEX
8
1
10
11.361
20
-976.522
0
VERTEX
8
1
10
10.354
20
-989.732
0
VERTEX
8
1
10
10.464
20
-995.989
0
VERTEX
8
1
10
11.86
20
-1008.069
0
SEQEND
8
1
0
POINT
8
2
10
11.86
20
-1008.069
0
TEXT
8
2
10
11.86
20
-1008.069
40
10.00
1
#189
0
POINT
8
2
10
89.96
20
-1069.861
0
TEXT
8
2
10
89.96
20
-1069.861
40
10.00
1
#190
0
POINT
8
3
10
95.902
20
-1057.665
0
POINT
8
3
10
103.093
20
-1039.265
0
POINT
8
3
10
110.078
20
-1016.585
0
POINT
8
3
10
116.686
20
-989.22
0
POINT
8
3
10
122.679
20
-957.072
0
POINT
8
3
10
127.783
20
-920.452
0
POINT
8
3
10
131.705
20
-880.307
0
POINT
8
3
10
134.164
20
-838.533
0
POINT
8
4
10
134.989
20
-798.073
30
10
50
180
0
POINT
8
2
10
134.989
20
-798.073
0
TEXT
8
2
10
134.989
20
-798.073
40
10.00
1
#191
0
POINT
8
3
10
134.431
20
-764.951
0
POINT
8
3
10
132.253
20
-723.187
0
POINT
8
3
10
128.572
20
-682.581
0
POINT
8
3
10
123.65
20
-645.208
0
POINT
8
3
10
117.793
20
-612.248
0
POINT
8
3
10
111.286
20
-584.076
0
POINT
8
3
10
104.358
20
-560.596
0
POINT
8
3
10
97.194
20
-541.472
0
POINT
8
2
10
89.96
20
-526.285
0
TEXT
8
2
10
89.96
20
-526.285
40
10.00
1
#192
0
POINT
8
2
10
11.86
20
-588.077
0
TEXT
8
2
10
11.86
20
-588.077
40
10.00
1
#193
0
POINT
8
3
10
11.266
20
-591.74
0
POINT
8
3
10
10.349
20
-603.972
0
POINT
8
3
10
11.032
20
-616.977
0
POINT
8
3
10
13.493
20
-631.365
0
POINT
8
3
10
18.236
20
-648.467
0
POINT
8
2
10
28.664
20
-677.277
0
TEXT
8
2
10
28.664
20
-677.277
40
10.00
1
#194
0
POINT
8
3
10
31.98
20
-678.917
0
POINT
8
3
10
39.47
20
-683.892
0
POINT
8
3
10
46.335
20
-690.417
0
POINT
8
3
10
52.597
20
-698.681
0
POINT
8
3
10
58.234
20
-708.928
0
POINT
8
3
10
63.164
20
-721.45
0
POINT
8
4
10
67.279
20
-736.607
30
10
50
12.4225284391917
0
POINT
8
2
10
67.279
20
-736.607
0
TEXT
8
2
10
67.279
20
-736.607
40
10.00
1
#195
0
POINT
8
3
10
70.066
20
-752.206
0
POINT
8
3
10
72.188
20
-773.272
0
POINT
8
4
10
72.949
20
-798.073
30
10
50
0
0
POINT
8
2
10
72.949
20
-798.073
0
TEXT
8
2
10
72.949
20
-798.073
40
10.00
1
#196
0
POINT
8
3
10
72.37
20
-819.844
0
POINT
8
3
10
70.412
20
-841.381
0
POINT
8
4
10
67.279
20
-859.539
30
10
50
347.583067619867
0
POINT
8
2
10
67.279
20
-859.539
0
TEXT
8
2
10
67.279
20
-859.539
40
10.00
1
#197
0
POINT
8
3
10
65.688
20
-866.138
0
POINT
8
3
10
61.216
20
-880.173
0
POINT
8
3
10
55.978
20
-891.722
0
POINT
8
3
10
50.081
20
-901.107
0
POINT
8
3
10
43.567
20
-908.628
0
POINT
8
3
10
36.447
20
-914.495
0
POINT
8
2
10
28.664
20
-918.869
0
TEXT
8
2
10
28.664
20
-918.869
40
10.00
1
#198
0
POINT
8
3
10
19.518
20
-943.798
0
POINT
8
3
10
14.201
20
-961.778
0
POINT
8
3
10
11.361
20
-976.522
0
POINT
8
2
10
10.354
20
-989.732
0
TEXT
8
2
10
10.354
20
-989.732
40
10.00
1
#199
0
POINT
8
3
10
10.464
20
-995.989
0
POINT
8
2
10
11.86
20
-1008.069
0
TEXT
8
2
10
11.86
20
-1008.069
40
10.00
1
#189
0
LINE
8
7
10
93.442
20
-662.179
11
51.893
21
-662.179
0
POINT
8
2
10
93.442
20
-662.179
0
TEXT
8
2
10
93.442
20
-662.179
40
10.00
1
#1
0
POINT
8
2
10
51.893
20
-662.179
0
TEXT
8
2
10
51.893
20
-662.179
40
10.00
1
#1
0
TEXT
8
1
10
51.893
20
-651.179
40
10.00
1
PIECE NAME: YAKACZM
0
TEXT
8
1
10
51.893
20
-640.179
40
10.00
1
SIZE: 1
0
TEXT
8
1
10
51.893
20
-629.179
40
10.00
1
ANNOTATION: 
0
TEXT
8
1
10
51.893
20
-618.179
40
10.00
1
QUANTITY: 1
0
TEXT
8
1
10
51.893
20
-607.179
40
10.00
1
MATERIAL: ÇÝZÝM
0
ENDBLK
0
BLOCK
8
0
2
1
70
0
10
0.0000
20
0.0000
0
POLYLINE
8
1
66
1
70
1
0
VERTEX
8
1
10
38.623
20
-866.972
0
VERTEX
8
1
10
41.402
20
-851.407
0
VERTEX
8
1
10
43.524
20
-830.35
0
VERTEX
8
1
10
44.284
20
-805.549
0
VERTEX
8
1
10
43.71
20
-783.836
0
VERTEX
8
1
10
41.755
20
-762.291
0
VERTEX
8
1
10
38.623
20
-744.126
0
VERTEX
8
1
10
37.02
20
-737.466
0
VERTEX
8
1
10
32.543
20
-723.427
0
VERTEX
8
1
10
27.306
20
-711.885
0
VERTEX
8
1
10
21.405
20
-702.499
0
VERTEX
8
1
10
14.894
20
-694.985
0
VERTEX
8
1
10
7.777
20
-689.123
0
VERTEX
8
1
10
0
20
-684.753
0
VERTEX
8
1
10
7.738
20
-706.051
0
VERTEX
8
1
10
10.332
20
-714.375
0
VERTEX
8
1
10
14.983
20
-733.349
0
VERTEX
8
1
10
18.402
20
-754.308
0
VERTEX
8
1
10
20.535
20
-777.923
0
VERTEX
8
1
10
21.284
20
-805.549
0
VERTEX
8
1
10
21.114
20
-819.115
0
VERTEX
8
1
10
19.701
20
-844.623
0
VERTEX
8
1
10
16.955
20
-866.894
0
VERTEX
8
1
10
12.957
20
-886.85
0
VERTEX
8
1
10
7.738
20
-905.047
0
VERTEX
8
1
10
0
20
-926.345
0
VERTEX
8
1
10
3.325
20
-924.698
0
VERTEX
8
1
10
10.819
20
-919.721
0
VERTEX
8
1
10
17.676
20
-913.197
0
VERTEX
8
1
10
23.942
20
-904.927
0
VERTEX
8
1
10
29.574
20
-894.682
0
VERTEX
8
1
10
34.509
20
-882.14
0
VERTEX
8
1
10
38.623
20
-866.972
0
SEQEND
8
1
0
POINT
8
4
10
38.623
20
-866.972
30
10
50
167.595491433113
0
POINT
8
2
10
38.623
20
-866.972
0
TEXT
8
2
10
38.623
20
-866.972
40
10.00
1
#204
0
POINT
8
3
10
41.402
20
-851.407
0
POINT
8
3
10
43.524
20
-830.35
0
POINT
8
4
10
44.284
20
-805.549
30
10
50
180
0
POINT
8
2
10
44.284
20
-805.549
0
TEXT
8
2
10
44.284
20
-805.549
40
10.00
1
#205
0
POINT
8
3
10
43.71
20
-783.836
0
POINT
8
3
10
41.755
20
-762.291
0
POINT
8
4
10
38.623
20
-744.126
30
10
50
192.398912306254
0
POINT
8
2
10
38.623
20
-744.126
0
TEXT
8
2
10
38.623
20
-744.126
40
10.00
1
#206
0
POINT
8
3
10
37.02
20
-737.466
0
POINT
8
3
10
32.543
20
-723.427
0
POINT
8
3
10
27.306
20
-711.885
0
POINT
8
3
10
21.405
20
-702.499
0
POINT
8
3
10
14.894
20
-694.985
0
POINT
8
3
10
7.777
20
-689.123
0
POINT
8
2
10
0
20
-684.753
0
TEXT
8
2
10
0
20
-684.753
40
10.00
1
#207
0
POINT
8
4
10
7.738
20
-706.051
30
10
50
18.471189032835
0
POINT
8
2
10
7.738
20
-706.051
0
TEXT
8
2
10
7.738
20
-706.051
40
10.00
1
#208
0
POINT
8
3
10
10.332
20
-714.375
0
POINT
8
3
10
14.983
20
-733.349
0
POINT
8
3
10
18.402
20
-754.308
0
POINT
8
3
10
20.535
20
-777.923
0
POINT
8
4
10
21.284
20
-805.549
30
10
50
0
0
POINT
8
2
10
21.284
20
-805.549
0
TEXT
8
2
10
21.284
20
-805.549
40
10.00
1
#209
0
POINT
8
3
10
21.114
20
-819.115
0
POINT
8
3
10
19.701
20
-844.623
0
POINT
8
3
10
16.955
20
-866.894
0
POINT
8
3
10
12.957
20
-886.85
0
POINT
8
4
10
7.738
20
-905.047
30
10
50
341.534246023282
0
POINT
8
2
10
7.738
20
-905.047
0
TEXT
8
2
10
7.738
20
-905.047
40
10.00
1
#210
0
POINT
8
2
10
0
20
-926.345
0
TEXT
8
2
10
0
20
-926.345
40
10.00
1
#211
0
POINT
8
3
10
3.325
20
-924.698
0
POINT
8
3
10
10.819
20
-919.721
0
POINT
8
3
10
17.676
20
-913.197
0
POINT
8
3
10
23.942
20
-904.927
0
POINT
8
3
10
29.574
20
-894.682
0
POINT
8
3
10
34.509
20
-882.14
0
POINT
8
2
10
38.623
20
-866.972
0
TEXT
8
2
10
38.623
20
-866.972
40
10.00
1
#204
0
LINE
8
7
10
36.579
20
-802.786
11
28.914
21
-802.786
0
POINT
8
2
10
36.579
20
-802.786
0
TEXT
8
2
10
36.579
20
-802.786
40
10.00
1
#1
0
POINT
8
2
10
28.914
20
-802.786
0
TEXT
8
2
10
28.914
20
-802.786
40
10.00
1
#1
0
TEXT
8
1
10
28.914
20
-791.786
40
10.00
1
PIECE NAME: YAKACZM
0
TEXT
8
1
10
28.914
20
-780.786
40
10.00
1
SIZE: 1
0
TEXT
8
1
10
28.914
20
-769.786
40
10.00
1
ANNOTATION: 
0
TEXT
8
1
10
28.914
20
-758.786
40
10.00
1
QUANTITY: 1
0
TEXT
8
1
10
28.914
20
-747.786
40
10.00
1
MATERIAL: ÇÝZÝM
0
ENDBLK
0
BLOCK
8
0
2
2
70
0
10
0.0000
20
0.0000
0
POLYLINE
8
1
66
1
70
1
0
VERTEX
8
1
10
744.355
20
-1732.809
0
VERTEX
8
1
10
743.615
20
-1751.616
0
VERTEX
8
1
10
743.645
20
-1777.24
0
VERTEX
8
1
10
745.102
20
-1797.111
0
VERTEX
8
1
10
747.798
20
-1813.709
0
VERTEX
8
1
10
751.64
20
-1827.997
0
VERTEX
8
1
10
756.582
20
-1840.515
0
VERTEX
8
1
10
762.629
20
-1851.621
0
VERTEX
8
1
10
769.812
20
-1861.538
0
VERTEX
8
1
10
778.24
20
-1870.452
0
VERTEX
8
1
10
788.042
20
-1878.461
0
VERTEX
8
1
10
799.374
20
-1885.601
0
VERTEX
8
1
10
812.495
20
-1891.903
0
VERTEX
8
1
10
827.605
20
-1897.301
0
VERTEX
8
1
10
845.043
20
-1901.74
0
VERTEX
8
1
10
865.12
20
-1905.101
0
VERTEX
8
1
10
888.188
20
-1907.234
0
VERTEX
8
1
10
914.655
20
-1907.97
0
VERTEX
8
1
10
917.995
20
-1907.928
0
VERTEX
8
1
10
932.687
20
-1906.79
0
VERTEX
8
1
10
946.393
20
-1904.174
0
VERTEX
8
1
10
958.932
20
-1900.205
0
VERTEX
8
1
10
970.116
20
-1895.047
0
VERTEX
8
1
10
979.828
20
-1888.875
0
VERTEX
8
1
10
987.995
20
-1881.863
0
VERTEX
8
1
10
994.535
20
-1874.218
0
VERTEX
8
1
10
999.471
20
-1866.071
0
VERTEX
8
1
10
1002.806
20
-1857.559
0
VERTEX
8
1
10
1004.553
20
-1848.78
0
VERTEX
8
1
10
1004.721
20
-1839.768
0
VERTEX
8
1
10
1003.273
20
-1830.565
0
VERTEX
8
1
10
1000.138
20
-1821.207
0
VERTEX
8
1
10
995.211
20
-1811.727
0
VERTEX
8
1
10
988.37
20
-1802.182
0
VERTEX
8
1
10
979.466
20
-1792.638
0
VERTEX
8
1
10
967.933
20
-1781.884
0
VERTEX
8
1
10
958.842
20
-1772.722
0
VERTEX
8
1
10
955.269
20
-1767.303
0
VERTEX
8
1
10
953.456
20
-1761.66
0
VERTEX
8
1
10
952.876
20
-1753.366
0
VERTEX
8
1
10
954.351
20
-1732.808
0
VERTEX
8
1
10
956.73
20
-1707.923
0
VERTEX
8
1
10
926.582
20
-1707.7
0
VERTEX
8
1
10
776.184
20
-1707.708
0
VERTEX
8
1
10
745.574
20
-1707.805
0
VERTEX
8
1
10
744.355
20
-1732.809
0
SEQEND
8
1
0
POINT
8
4
10
744.355
20
-1732.809
30
10
50
357.202831041336
0
POINT
8
2
10
744.355
20
-1732.809
0
TEXT
8
2
10
744.355
20
-1732.809
40
10.00
1
#218
0
POINT
8
3
10
743.615
20
-1751.616
0
POINT
8
3
10
743.645
20
-1777.24
0
POINT
8
3
10
745.102
20
-1797.111
0
POINT
8
3
10
747.798
20
-1813.709
0
POINT
8
3
10
751.64
20
-1827.997
0
POINT
8
3
10
756.582
20
-1840.515
0
POINT
8
3
10
762.629
20
-1851.621
0
POINT
8
3
10
769.812
20
-1861.538
0
POINT
8
3
10
778.24
20
-1870.452
0
POINT
8
3
10
788.042
20
-1878.461
0
POINT
8
3
10
799.374
20
-1885.601
0
POINT
8
3
10
812.495
20
-1891.903
0
POINT
8
3
10
827.605
20
-1897.301
0
POINT
8
3
10
845.043
20
-1901.74
0
POINT
8
3
10
865.12
20
-1905.101
0
POINT
8
3
10
888.188
20
-1907.234
0
POINT
8
3
10
914.655
20
-1907.97
0
POINT
8
3
10
917.995
20
-1907.928
0
POINT
8
3
10
932.687
20
-1906.79
0
POINT
8
3
10
946.393
20
-1904.174
0
POINT
8
3
10
958.932
20
-1900.205
0
POINT
8
3
10
970.116
20
-1895.047
0
POINT
8
3
10
979.828
20
-1888.875
0
POINT
8
3
10
987.995
20
-1881.863
0
POINT
8
3
10
994.535
20
-1874.218
0
POINT
8
3
10
999.471
20
-1866.071
0
POINT
8
3
10
1002.806
20
-1857.559
0
POINT
8
3
10
1004.553
20
-1848.78
0
POINT
8
3
10
1004.721
20
-1839.768
0
POINT
8
3
10
1003.273
20
-1830.565
0
POINT
8
3
10
1000.138
20
-1821.207
0
POINT
8
3
10
995.211
20
-1811.727
0
POINT
8
3
10
988.37
20
-1802.182
0
POINT
8
3
10
979.466
20
-1792.638
0
POINT
8
3
10
967.933
20
-1781.884
0
POINT
8
3
10
958.842
20
-1772.722
0
POINT
8
3
10
955.269
20
-1767.303
0
POINT
8
3
10
953.456
20
-1761.66
0
POINT
8
3
10
952.876
20
-1753.366
0
POINT
8
4
10
954.351
20
-1732.808
30
10
50
174.542555508333
0
POINT
8
2
10
954.351
20
-1732.808
0
TEXT
8
2
10
954.351
20
-1732.808
40
10.00
1
#219
0
POINT
8
2
10
956.73
20
-1707.923
0
TEXT
8
2
10
956.73
20
-1707.923
40
10.00
1
#220
0
POINT
8
4
10
926.582
20
-1707.7
30
10
50
269.787985381926
0
POINT
8
2
10
926.582
20
-1707.7
0
TEXT
8
2
10
926.582
20
-1707.7
40
10.00
1
#221
0
POINT
8
4
10
776.184
20
-1707.708
30
10
50
270.085952200019
0
POINT
8
2
10
776.184
20
-1707.708
0
TEXT
8
2
10
776.184
20
-1707.708
40
10.00
1
#222
0
POINT
8
2
10
745.574
20
-1707.805
0
TEXT
8
2
10
745.574
20
-1707.805
40
10.00
1
#223
0
POINT
8
2
10
744.355
20
-1732.809
0
TEXT
8
2
10
744.355
20
-1732.809
40
10.00
1
#218
0
LINE
8
7
10
906.463
20
-1822.503
11
827.556
21
-1822.503
0
POINT
8
2
10
906.463
20
-1822.503
0
TEXT
8
2
10
906.463
20
-1822.503
40
10.00
1
#1
0
POINT
8
2
10
827.556
20
-1822.503
0
TEXT
8
2
10
827.556
20
-1822.503
40
10.00
1
#1
0
TEXT
8
1
10
827.556
20
-1811.503
40
10.00
1
PIECE NAME: CPTOR
0
TEXT
8
1
10
827.556
20
-1800.503
40
10.00
1
SIZE: 1
0
TEXT
8
1
10
827.556
20
-1789.503
40
10.00
1
ANNOTATION: 
0
TEXT
8
1
10
827.556
20
-1778.503
40
10.00
1
QUANTITY: 1
0
TEXT
8
1
10
827.556
20
-1767.503
40
10.00
1
MATERIAL: KUMAŢ
0
ENDBLK
0
BLOCK
8
0
2
3
70
0
10
0.0000
20
0.0000
0
POLYLINE
8
1
66
1
70
1
0
VERTEX
8
1
10
745.574
20
-1907.865
0
VERTEX
8
1
10
776.184
20
-1907.962
0
VERTEX
8
1
10
926.582
20
-1907.97
0
VERTEX
8
1
10
956.73
20
-1907.747
0
VERTEX
8
1
10
954.351
20
-1882.862
0
VERTEX
8
1
10
952.876
20
-1862.304
0
VERTEX
8
1
10
953.456
20
-1854.01
0
VERTEX
8
1
10
955.269
20
-1848.367
0
VERTEX
8
1
10
958.842
20
-1842.948
0
VERTEX
8
1
10
967.933
20
-1833.786
0
VERTEX
8
1
10
979.466
20
-1823.032
0
VERTEX
8
1
10
988.37
20
-1813.488
0
VERTEX
8
1
10
995.211
20
-1803.943
0
VERTEX
8
1
10
1000.138
20
-1794.463
0
VERTEX
8
1
10
1003.273
20
-1785.105
0
VERTEX
8
1
10
1004.721
20
-1775.902
0
VERTEX
8
1
10
1004.553
20
-1766.89
0
VERTEX
8
1
10
1002.806
20
-1758.111
0
VERTEX
8
1
10
999.471
20
-1749.599
0
VERTEX
8
1
10
994.535
20
-1741.452
0
VERTEX
8
1
10
987.995
20
-1733.807
0
VERTEX
8
1
10
979.828
20
-1726.795
0
VERTEX
8
1
10
970.116
20
-1720.623
0
VERTEX
8
1
10
958.932
20
-1715.465
0
VERTEX
8
1
10
946.393
20
-1711.496
0
VERTEX
8
1
10
932.687
20
-1708.88
0
VERTEX
8
1
10
917.995
20
-1707.742
0
VERTEX
8
1
10
914.655
20
-1707.7
0
VERTEX
8
1
10
888.188
20
-1708.436
0
VERTEX
8
1
10
865.12
20
-1710.569
0
VERTEX
8
1
10
845.043
20
-1713.93
0
VERTEX
8
1
10
827.605
20
-1718.369
0
VERTEX
8
1
10
812.495
20
-1723.767
0
VERTEX
8
1
10
799.374
20
-1730.069
0
VERTEX
8
1
10
788.042
20
-1737.209
0
VERTEX
8
1
10
778.24
20
-1745.218
0
VERTEX
8
1
10
769.812
20
-1754.132
0
VERTEX
8
1
10
762.629
20
-1764.049
0
VERTEX
8
1
10
756.582
20
-1775.155
0
VERTEX
8
1
10
751.64
20
-1787.673
0
VERTEX
8
1
10
747.798
20
-1801.961
0
VERTEX
8
1
10
745.102
20
-1818.559
0
VERTEX
8
1
10
743.645
20
-1838.43
0
VERTEX
8
1
10
743.615
20
-1864.054
0
VERTEX
8
1
10
744.355
20
-1882.861
0
VERTEX
8
1
10
745.574
20
-1907.865
0
SEQEND
8
1
0
POINT
8
2
10
745.574
20
-1907.865
0
TEXT
8
2
10
745.574
20
-1907.865
40
10.00
1
#31
0
POINT
8
4
10
776.184
20
-1907.962
30
10
50
89.914047799981
0
POINT
8
2
10
776.184
20
-1907.962
0
TEXT
8
2
10
776.184
20
-1907.962
40
10.00
1
#32
0
POINT
8
4
10
926.582
20
-1907.97
30
10
50
90.2120146180738
0
POINT
8
2
10
926.582
20
-1907.97
0
TEXT
8
2
10
926.582
20
-1907.97
40
10.00
1
#33
0
POINT
8
2
10
956.73
20
-1907.747
0
TEXT
8
2
10
956.73
20
-1907.747
40
10.00
1
#34
0
POINT
8
4
10
954.351
20
-1882.862
30
10
50
185.457444491667
0
POINT
8
2
10
954.351
20
-1882.862
0
TEXT
8
2
10
954.351
20
-1882.862
40
10.00
1
#35
0
POINT
8
3
10
952.876
20
-1862.304
0
POINT
8
3
10
953.456
20
-1854.01
0
POINT
8
3
10
955.269
20
-1848.367
0
POINT
8
3
10
958.842
20
-1842.948
0
POINT
8
3
10
967.933
20
-1833.786
0
POINT
8
3
10
979.466
20
-1823.032
0
POINT
8
3
10
988.37
20
-1813.488
0
POINT
8
3
10
995.211
20
-1803.943
0
POINT
8
3
10
1000.138
20
-1794.463
0
POINT
8
3
10
1003.273
20
-1785.105
0
POINT
8
3
10
1004.721
20
-1775.902
0
POINT
8
3
10
1004.553
20
-1766.89
0
POINT
8
3
10
1002.806
20
-1758.111
0
POINT
8
3
10
999.471
20
-1749.599
0
POINT
8
3
10
994.535
20
-1741.452
0
POINT
8
3
10
987.995
20
-1733.807
0
POINT
8
3
10
979.828
20
-1726.795
0
POINT
8
3
10
970.116
20
-1720.623
0
POINT
8
3
10
958.932
20
-1715.465
0
POINT
8
3
10
946.393
20
-1711.496
0
POINT
8
3
10
932.687
20
-1708.88
0
POINT
8
3
10
917.995
20
-1707.742
0
POINT
8
3
10
914.655
20
-1707.7
0
POINT
8
3
10
888.188
20
-1708.436
0
POINT
8
3
10
865.12
20
-1710.569
0
POINT
8
3
10
845.043
20
-1713.93
0
POINT
8
3
10
827.605
20
-1718.369
0
POINT
8
3
10
812.495
20
-1723.767
0
POINT
8
3
10
799.374
20
-1730.069
0
POINT
8
3
10
788.042
20
-1737.209
0
POINT
8
3
10
778.24
20
-1745.218
0
POINT
8
3
10
769.812
20
-1754.132
0
POINT
8
3
10
762.629
20
-1764.049
0
POINT
8
3
10
756.582
20
-1775.155
0
POINT
8
3
10
751.64
20
-1787.673
0
POINT
8
3
10
747.798
20
-1801.961
0
POINT
8
3
10
745.102
20
-1818.559
0
POINT
8
3
10
743.645
20
-1838.43
0
POINT
8
3
10
743.615
20
-1864.054
0
POINT
8
4
10
744.355
20
-1882.861
30
10
50
2.79716895866416
0
POINT
8
2
10
744.355
20
-1882.861
0
TEXT
8
2
10
744.355
20
-1882.861
40
10.00
1
#36
0
POINT
8
2
10
745.574
20
-1907.865
0
TEXT
8
2
10
745.574
20
-1907.865
40
10.00
1
#31
0
LINE
8
7
10
906.463
20
-1793.167
11
827.556
21
-1793.167
0
POINT
8
2
10
906.463
20
-1793.167
0
TEXT
8
2
10
906.463
20
-1793.167
40
10.00
1
#1
0
POINT
8
2
10
827.556
20
-1793.167
0
TEXT
8
2
10
827.556
20
-1793.167
40
10.00
1
#1
0
TEXT
8
1
10
827.556
20
-1782.167
40
10.00
1
PIECE NAME: CPTORFY1
0
TEXT
8
1
10
827.556
20
-1771.167
40
10.00
1
SIZE: 1
0
TEXT
8
1
10
827.556
20
-1760.167
40
10.00
1
ANNOTATION: 
0
TEXT
8
1
10
827.556
20
-1749.167
40
10.00
1
QUANTITY: 1
0
TEXT
8
1
10
827.556
20
-1738.167
40
10.00
1
MATERIAL: KUMAŢ
0
ENDBLK
0
BLOCK
8
0
2
4
70
0
10
0.0000
20
0.0000
0
POLYLINE
8
1
66
1
70
1
0
VERTEX
8
1
10
1592.49
20
-1993.706
0
VERTEX
8
1
10
1592.49
20
-1953.706
0
VERTEX
8
1
10
1092.49
20
-1953.706
0
VERTEX
8
1
10
1092.49
20
-1993.706
0
VERTEX
8
1
10
1592.49
20
-1993.706
0
SEQEND
8
1
0
POINT
8
2
10
1592.49
20
-1993.706
0
TEXT
8
2
10
1592.49
20
-1993.706
40
10.00
1
#228
0
POINT
8
2
10
1592.49
20
-1953.706
0
TEXT
8
2
10
1592.49
20
-1953.706
40
10.00
1
#229
0
POINT
8
2
10
1092.49
20
-1953.706
0
TEXT
8
2
10
1092.49
20
-1953.706
40
10.00
1
#230
0
POINT
8
2
10
1092.49
20
-1993.706
0
TEXT
8
2
10
1092.49
20
-1993.706
40
10.00
1
#231
0
POINT
8
2
10
1592.49
20
-1993.706
0
TEXT
8
2
10
1592.49
20
-1993.706
40
10.00
1
#228
0
LINE
8
7
10
1425.824
20
-1973.706
11
1259.158
21
-1973.706
0
POINT
8
2
10
1425.824
20
-1973.706
0
TEXT
8
2
10
1425.824
20
-1973.706
40
10.00
1
#1
0
POINT
8
2
10
1259.158
20
-1973.706
0
TEXT
8
2
10
1259.158
20
-1973.706
40
10.00
1
#1
0
TEXT
8
1
10
1259.158
20
-1962.706
40
10.00
1
PIECE NAME: KOPRULUK
0
TEXT
8
1
10
1259.158
20
-1951.706
40
10.00
1
SIZE: 1
0
TEXT
8
1
10
1259.158
20
-1940.706
40
10.00
1
ANNOTATION: 
0
TEXT
8
1
10
1259.158
20
-1929.706
40
10.00
1
QUANTITY: 1
0
TEXT
8
1
10
1259.158
20
-1918.706
40
10.00
1
MATERIAL: KUMAŢ
0
ENDBLK
0
BLOCK
8
0
2
5
70
0
10
0.0000
20
0.0000
0
POLYLINE
8
1
66
1
70
1
0
VERTEX
8
1
10
1094.9
20
-1880.51
0
VERTEX
8
1
10
1894.9
20
-1880.51
0
VERTEX
8
1
10
1894.9
20
-1700.51
0
VERTEX
8
1
10
1094.9
20
-1700.51
0
VERTEX
8
1
10
1094.9
20
-1880.51
0
SEQEND
8
1
0
POINT
8
2
10
1094.9
20
-1880.51
0
TEXT
8
2
10
1094.9
20
-1880.51
40
10.00
1
#232
0
POINT
8
2
10
1894.9
20
-1880.51
0
TEXT
8
2
10
1894.9
20
-1880.51
40
10.00
1
#233
0
POINT
8
2
10
1894.9
20
-1700.51
0
TEXT
8
2
10
1894.9
20
-1700.51
40
10.00
1
#234
0
POINT
8
2
10
1094.9
20
-1700.51
0
TEXT
8
2
10
1094.9
20
-1700.51
40
10.00
1
#235
0
POINT
8
2
10
1094.9
20
-1880.51
0
TEXT
8
2
10
1094.9
20
-1880.51
40
10.00
1
#232
0
LINE
8
7
10
1428.234
20
-1795.51
11
1261.568
21
-1795.51
0
POINT
8
2
10
1428.234
20
-1795.51
0
TEXT
8
2
10
1428.234
20
-1795.51
40
10.00
1
#1
0
POINT
8
2
10
1261.568
20
-1795.51
0
TEXT
8
2
10
1261.568
20
-1795.51
40
10.00
1
#1
0
TEXT
8
1
10
1261.568
20
-1784.51
40
10.00
1
PIECE NAME: GIZLIPAT
0
TEXT
8
1
10
1261.568
20
-1773.51
40
10.00
1
SIZE: 1
0
TEXT
8
1
10
1261.568
20
-1762.51
40
10.00
1
ANNOTATION: 
0
TEXT
8
1
10
1261.568
20
-1751.51
40
10.00
1
QUANTITY: 1
0
TEXT
8
1
10
1261.568
20
-1740.51
40
10.00
1
MATERIAL: KUMAŢ
0
ENDBLK
0
BLOCK
8
0
2
6
70
0
10
0.0000
20
0.0000
0
POLYLINE
8
1
66
1
70
1
0
VERTEX
8
1
10
1971.307
20
-1101.92
0
VERTEX
8
1
10
1961.307
20
-1101.92
0
VERTEX
8
1
10
1661.307
20
-1101.92
0
VERTEX
8
1
10
956.007
20
-1101.92
0
VERTEX
8
1
10
896.007
20
-1101.92
0
VERTEX
8
1
10
896.007
20
-1132.262
0
VERTEX
8
1
10
895.784
20
-1136.044
0
VERTEX
8
1
10
893.091
20
-1146.532
0
VERTEX
8
1
10
888.489
20
-1158.374
0
VERTEX
8
1
10
882.312
20
-1169.82
0
VERTEX
8
1
10
874.692
20
-1180.567
0
VERTEX
8
1
10
865.826
20
-1190.321
0
VERTEX
8
1
10
855.94
20
-1198.848
0
VERTEX
8
1
10
845.302
20
-1205.942
0
VERTEX
8
1
10
834.157
20
-1211.488
0
VERTEX
8
1
10
822.71
20
-1215.429
0
VERTEX
8
1
10
878.998
20
-1383.032
0
VERTEX
8
1
10
896.085
20
-1377.353
0
VERTEX
8
1
10
917.153
20
-1371.938
0
VERTEX
8
1
10
939.491
20
-1367.883
0
VERTEX
8
1
10
963.191
20
-1365.247
0
VERTEX
8
1
10
988.349
20
-1364.102
0
VERTEX
8
1
10
1015.105
20
-1364.531
0
VERTEX
8
1
10
1043.655
20
-1366.643
0
VERTEX
8
1
10
1055.144
20
-1368.253
0
VERTEX
8
1
10
1070.247
20
-1371.79
0
VERTEX
8
1
10
1084.959
20
-1376.876
0
VERTEX
8
1
10
1099.056
20
-1383.435
0
VERTEX
8
1
10
1104.931
20
-1386.613
0
VERTEX
8
1
10
1111.547
20
-1391.674
0
VERTEX
8
1
10
1116.211
20
-1397.092
0
VERTEX
8
1
10
1119.028
20
-1402.64
0
VERTEX
8
1
10
1120.174
20
-1408.29
0
VERTEX
8
1
10
1119.722
20
-1414.156
0
VERTEX
8
1
10
1215.043
20
-1423.236
0
VERTEX
8
1
10
1244.908
20
-1426.081
0
VERTEX
8
1
10
1274.773
20
-1428.926
0
VERTEX
8
1
10
1291.695
20
-1430.538
0
VERTEX
8
1
10
1289.798
20
-1450.448
0
VERTEX
8
1
10
1459.034
20
-1466.568
0
VERTEX
8
1
10
1460.93
20
-1446.658
0
VERTEX
8
1
10
1939.787
20
-1492.272
0
VERTEX
8
1
10
1949.742
20
-1493.22
0
VERTEX
8
1
10
1955.962
20
-1426.198
0
VERTEX
8
1
10
1963.327
20
-1335.067
0
VERTEX
8
1
10
1967.928
20
-1259.857
0
VERTEX
8
1
10
1970.493
20
-1193.107
0
VERTEX
8
1
10
1971.307
20
-1131.957
0
VERTEX
8
1
10
1971.307
20
-1101.92
0
SEQEND
8
1
0
POINT
8
2
10
1971.307
20
-1101.92
0
TEXT
8
2
10
1971.307
20
-1101.92
40
10.00
1
#236
0
POINT
8
4
10
1961.307
20
-1101.92
30
10
50
270
0
POINT
8
2
10
1961.307
20
-1101.92
0
TEXT
8
2
10
1961.307
20
-1101.92
40
10.00
1
#237
0
POINT
8
4
10
1661.307
20
-1101.92
30
10
50
270
0
POINT
8
2
10
1661.307
20
-1101.92
0
TEXT
8
2
10
1661.307
20
-1101.92
40
10.00
1
#238
0
POINT
8
4
10
956.007
20
-1101.92
30
10
50
270
0
POINT
8
2
10
956.007
20
-1101.92
0
TEXT
8
2
10
956.007
20
-1101.92
40
10.00
1
#239
0
POINT
8
2
10
896.007
20
-1101.92
0
TEXT
8
2
10
896.007
20
-1101.92
40
10.00
1
#240
0
POINT
8
2
10
896.007
20
-1132.262
0
TEXT
8
2
10
896.007
20
-1132.262
40
10.00
1
#241
0
POINT
8
4
10
895.784
20
-1136.044
30
10
50
353.724979620525
0
POINT
8
2
10
895.784
20
-1136.044
0
TEXT
8
2
10
895.784
20
-1136.044
40
10.00
1
#242
0
POINT
8
3
10
893.091
20
-1146.532
0
POINT
8
3
10
888.489
20
-1158.374
0
POINT
8
3
10
882.312
20
-1169.82
0
POINT
8
3
10
874.692
20
-1180.567
0
POINT
8
3
10
865.826
20
-1190.321
0
POINT
8
3
10
855.94
20
-1198.848
0
POINT
8
3
10
845.302
20
-1205.942
0
POINT
8
3
10
834.157
20
-1211.488
0
POINT
8
2
10
822.71
20
-1215.429
0
TEXT
8
2
10
822.71
20
-1215.429
40
10.00
1
#243
0
POINT
8
2
10
878.998
20
-1383.032
0
TEXT
8
2
10
878.998
20
-1383.032
40
10.00
1
#244
0
POINT
8
3
10
896.085
20
-1377.353
0
POINT
8
3
10
917.153
20
-1371.938
0
POINT
8
3
10
939.491
20
-1367.883
0
POINT
8
3
10
963.191
20
-1365.247
0
POINT
8
3
10
988.349
20
-1364.102
0
POINT
8
3
10
1015.105
20
-1364.531
0
POINT
8
4
10
1043.655
20
-1366.643
30
10
50
85.4576039914858
0
POINT
8
2
10
1043.655
20
-1366.643
0
TEXT
8
2
10
1043.655
20
-1366.643
40
10.00
1
#245
0
POINT
8
3
10
1055.144
20
-1368.253
0
POINT
8
3
10
1070.247
20
-1371.79
0
POINT
8
3
10
1084.959
20
-1376.876
0
POINT
8
4
10
1099.056
20
-1383.435
30
10
50
63.6143178508092
0
POINT
8
2
10
1099.056
20
-1383.435
0
TEXT
8
2
10
1099.056
20
-1383.435
40
10.00
1
#246
0
POINT
8
3
10
1104.931
20
-1386.613
0
POINT
8
3
10
1111.547
20
-1391.674
0
POINT
8
3
10
1116.211
20
-1397.092
0
POINT
8
3
10
1119.028
20
-1402.64
0
POINT
8
3
10
1120.174
20
-1408.29
0
POINT
8
2
10
1119.722
20
-1414.156
0
TEXT
8
2
10
1119.722
20
-1414.156
40
10.00
1
#247
0
POINT
8
4
10
1215.043
20
-1423.236
30
10
50
84.5659149904236
0
POINT
8
2
10
1215.043
20
-1423.236
0
TEXT
8
2
10
1215.043
20
-1423.236
40
10.00
1
#248
0
POINT
8
2
10
1244.908
20
-1426.081
0
TEXT
8
2
10
1244.908
20
-1426.081
40
10.00
1
#249
0
POINT
8
4
10
1274.773
20
-1428.926
30
10
50
84.5659149904235
0
POINT
8
2
10
1274.773
20
-1428.926
0
TEXT
8
2
10
1274.773
20
-1428.926
40
10.00
1
#250
0
POINT
8
2
10
1291.695
20
-1430.538
0
TEXT
8
2
10
1291.695
20
-1430.538
40
10.00
1
#251
0
POINT
8
2
10
1289.798
20
-1450.448
0
TEXT
8
2
10
1289.798
20
-1450.448
40
10.00
1
#252
0
POINT
8
2
10
1459.034
20
-1466.568
0
TEXT
8
2
10
1459.034
20
-1466.568
40
10.00
1
#253
0
POINT
8
2
10
1460.93
20
-1446.658
0
TEXT
8
2
10
1460.93
20
-1446.658
40
10.00
1
#254
0
POINT
8
4
10
1939.787
20
-1492.272
30
10
50
84.5659149904248
0
POINT
8
2
10
1939.787
20
-1492.272
0
TEXT
8
2
10
1939.787
20
-1492.272
40
10.00
1
#255
0
POINT
8
2
10
1949.742
20
-1493.22
0
TEXT
8
2
10
1949.742
20
-1493.22
40
10.00
1
#256
0
POINT
8
3
10
1955.962
20
-1426.198
0
POINT
8
3
10
1963.327
20
-1335.067
0
POINT
8
3
10
1967.928
20
-1259.857
0
POINT
8
3
10
1970.493
20
-1193.107
0
POINT
8
2
10
1971.307
20
-1131.957
0
TEXT
8
2
10
1971.307
20
-1131.957
40
10.00
1
#257
0
POINT
8
2
10
1971.307
20
-1101.92
0
TEXT
8
2
10
1971.307
20
-1101.92
40
10.00
1
#236
0
LINE
8
7
10
1287.998
20
-1273.593
11
1061.686
21
-1273.593
0
POINT
8
2
10
1287.998
20
-1273.593
0
TEXT
8
2
10
1287.998
20
-1273.593
40
10.00
1
#1
0
POINT
8
2
10
1061.686
20
-1273.593
0
TEXT
8
2
10
1061.686
20
-1273.593
40
10.00
1
#1
0
TEXT
8
1
10
1061.686
20
-1262.593
40
10.00
1
PIECE NAME: ON
0
TEXT
8
1
10
1061.686
20
-1251.593
40
10.00
1
SIZE: 1
0
TEXT
8
1
10
1061.686
20
-1240.593
40
10.00
1
ANNOTATION: 
0
TEXT
8
1
10
1061.686
20
-1229.593
40
10.00
1
QUANTITY: 1
0
TEXT
8
1
10
1061.686
20
-1218.593
40
10.00
1
MATERIAL: KUMAŢ
0
ENDBLK
0
BLOCK
8
0
2
7
70
0
10
0.0000
20
0.0000
0
POLYLINE
8
1
66
1
70
1
0
VERTEX
8
1
10
975.877
20
-486.649
0
VERTEX
8
1
10
978.785
20
-489.776
0
VERTEX
8
1
10
992.6
20
-503.182
0
VERTEX
8
1
10
1007.769
20
-515.655
0
VERTEX
8
1
10
1024.208
20
-527.086
0
VERTEX
8
1
10
1041.78
20
-537.343
0
VERTEX
8
1
10
1042.758
20
-537.844
0
VERTEX
8
1
10
1055.551
20
-545.352
0
VERTEX
8
1
10
1066.614
20
-553.623
0
VERTEX
8
1
10
1075.638
20
-562.263
0
VERTEX
8
1
10
1082.667
20
-571.086
0
VERTEX
8
1
10
1087.806
20
-579.98
0
VERTEX
8
1
10
1091.198
20
-588.934
0
VERTEX
8
1
10
1092.95
20
-597.98
0
VERTEX
8
1
10
1093.11
20
-607.198
0
VERTEX
8
1
10
1297.786
20
-608.312
0
VERTEX
8
1
10
1517.837
20
-609.51
0
VERTEX
8
1
10
1527.837
20
-609.456
0
VERTEX
8
1
10
1527.837
20
-469.51
0
VERTEX
8
1
10
1527.837
20
-429.51
0
VERTEX
8
1
10
1527.837
20
-379.51
0
VERTEX
8
1
10
1517.837
20
-379.51
0
VERTEX
8
1
10
1378.407
20
-379.51
0
VERTEX
8
1
10
1397.157
20
-429.51
0
VERTEX
8
1
10
1385.896
20
-459.54
0
VERTEX
8
1
10
1375.268
20
-459.596
0
VERTEX
8
1
10
1289.855
20
-461.026
0
VERTEX
8
1
10
1171.405
20
-464.977
0
VERTEX
8
1
10
1085.385
20
-468.862
0
VERTEX
8
1
10
980.716
20
-474.87
0
VERTEX
8
1
10
975.877
20
-486.649
0
SEQEND
8
1
0
POINT
8
2
10
975.877
20
-486.649
0
TEXT
8
2
10
975.877
20
-486.649
40
10.00
1
#267
0
POINT
8
3
10
978.785
20
-489.776
0
POINT
8
3
10
992.6
20
-503.182
0
POINT
8
3
10
1007.769
20
-515.655
0
POINT
8
3
10
1024.208
20
-527.086
0
POINT
8
4
10
1041.78
20
-537.343
30
10
50
61.920435391876
0
POINT
8
2
10
1041.78
20
-537.343
0
TEXT
8
2
10
1041.78
20
-537.343
40
10.00
1
#268
0
POINT
8
3
10
1042.758
20
-537.844
0
POINT
8
3
10
1055.551
20
-545.352
0
POINT
8
3
10
1066.614
20
-553.623
0
POINT
8
3
10
1075.638
20
-562.263
0
POINT
8
3
10
1082.667
20
-571.086
0
POINT
8
3
10
1087.806
20
-579.98
0
POINT
8
3
10
1091.198
20
-588.934
0
POINT
8
3
10
1092.95
20
-597.98
0
POINT
8
2
10
1093.11
20
-607.198
0
TEXT
8
2
10
1093.11
20
-607.198
40
10.00
1
#269
0
POINT
8
4
10
1297.786
20
-608.312
30
10
50
89.6963352118747
0
POINT
8
2
10
1297.786
20
-608.312
0
TEXT
8
2
10
1297.786
20
-608.312
40
10.00
1
#270
0
POINT
8
4
10
1517.837
20
-609.51
30
10
50
90
0
POINT
8
2
10
1517.837
20
-609.51
0
TEXT
8
2
10
1517.837
20
-609.51
40
10.00
1
#271
0
POINT
8
2
10
1527.837
20
-609.456
0
TEXT
8
2
10
1527.837
20
-609.456
40
10.00
1
#272
0
POINT
8
4
10
1527.837
20
-469.51
30
10
50
180
0
POINT
8
2
10
1527.837
20
-469.51
0
TEXT
8
2
10
1527.837
20
-469.51
40
10.00
1
#273
0
POINT
8
4
10
1527.837
20
-429.51
30
10
50
180
0
POINT
8
2
10
1527.837
20
-429.51
0
TEXT
8
2
10
1527.837
20
-429.51
40
10.00
1
#274
0
POINT
8
2
10
1527.837
20
-379.51
0
TEXT
8
2
10
1527.837
20
-379.51
40
10.00
1
#275
0
POINT
8
4
10
1517.837
20
-379.51
30
10
50
270
0
POINT
8
2
10
1517.837
20
-379.51
0
TEXT
8
2
10
1517.837
20
-379.51
40
10.00
1
#276
0
POINT
8
2
10
1378.407
20
-379.51
0
TEXT
8
2
10
1378.407
20
-379.51
40
10.00
1
#277
0
POINT
8
4
10
1397.157
20
-429.51
30
10
50
0
0
POINT
8
2
10
1397.157
20
-429.51
0
TEXT
8
2
10
1397.157
20
-429.51
40
10.00
1
#278
0
POINT
8
2
10
1385.896
20
-459.54
0
TEXT
8
2
10
1385.896
20
-459.54
40
10.00
1
#279
0
POINT
8
3
10
1375.268
20
-459.596
0
POINT
8
3
10
1289.855
20
-461.026
0
POINT
8
4
10
1171.405
20
-464.977
30
10
50
272.304122279689
0
POINT
8
2
10
1171.405
20
-464.977
0
TEXT
8
2
10
1171.405
20
-464.977
40
10.00
1
#280
0
POINT
8
3
10
1085.385
20
-468.862
0
POINT
8
2
10
980.716
20
-474.87
0
TEXT
8
2
10
980.716
20
-474.87
40
10.00
1
#281
0
POINT
8
2
10
975.877
20
-486.649
0
TEXT
8
2
10
975.877
20
-486.649
40
10.00
1
#267
0
LINE
8
7
10
1341.088
20
-514.51
11
1164.341
21
-514.51
0
POINT
8
2
10
1341.088
20
-514.51
0
TEXT
8
2
10
1341.088
20
-514.51
40
10.00
1
#1
0
POINT
8
2
10
1164.341
20
-514.51
0
TEXT
8
2
10
1164.341
20
-514.51
40
10.00
1
#1
0
TEXT
8
1
10
1164.341
20
-503.51
40
10.00
1
PIECE NAME: ARKAKOL
0
TEXT
8
1
10
1164.341
20
-492.51
40
10.00
1
SIZE: 1
0
TEXT
8
1
10
1164.341
20
-481.51
40
10.00
1
ANNOTATION: 
0
TEXT
8
1
10
1164.341
20
-470.51
40
10.00
1
QUANTITY: 1
0
TEXT
8
1
10
1164.341
20
-459.51
40
10.00
1
MATERIAL: KUMAŢ
0
ENDBLK
0
BLOCK
8
0
2
8
70
0
10
0.0000
20
0.0000
0
POLYLINE
8
1
66
1
70
1
0
VERTEX
8
1
10
935.981
20
-213.803
0
VERTEX
8
1
10
936.176
20
-217.469
0
VERTEX
8
1
10
937.957
20
-231.881
0
VERTEX
8
1
10
941.428
20
-246.643
0
VERTEX
8
1
10
946.654
20
-261.718
0
VERTEX
8
1
10
953.69
20
-277.007
0
VERTEX
8
1
10
962.554
20
-292.36
0
VERTEX
8
1
10
973.189
20
-307.515
0
VERTEX
8
1
10
983.539
20
-319.035
0
VERTEX
8
1
10
1055.499
20
-314.755
0
VERTEX
8
1
10
1172.21
20
-309.27
0
VERTEX
8
1
10
1193.769
20
-308.445
0
VERTEX
8
1
10
1303.398
20
-305.012
0
VERTEX
8
1
10
1385.886
20
-303.863
0
VERTEX
8
1
10
1400.869
20
-343.819
0
VERTEX
8
1
10
1517.798
20
-343.819
0
VERTEX
8
1
10
1527.798
20
-343.819
0
VERTEX
8
1
10
1527.798
20
-293.819
0
VERTEX
8
1
10
1527.798
20
-3.727
0
VERTEX
8
1
10
1517.798
20
-3.817
0
VERTEX
8
1
10
1297.898
20
-1.841
0
VERTEX
8
1
10
1092.832
20
0.002
0
VERTEX
8
1
10
1092.887
20
-5.504
0
VERTEX
8
1
10
1091.888
20
-16.734
0
VERTEX
8
1
10
1089.499
20
-26.56
0
VERTEX
8
1
10
1085.883
20
-34.989
0
VERTEX
8
1
10
1081.141
20
-42.128
0
VERTEX
8
1
10
1074.893
20
-49.211
0
VERTEX
8
1
10
1064.864
20
-58.354
0
VERTEX
8
1
10
1052.195
20
-67.567
0
VERTEX
8
1
10
1035.113
20
-77.723
0
VERTEX
8
1
10
1021.989
20
-85.314
0
VERTEX
8
1
10
1005.594
20
-96.403
0
VERTEX
8
1
10
990.736
20
-108.335
0
VERTEX
8
1
10
977.616
20
-120.865
0
VERTEX
8
1
10
966.35
20
-133.769
0
VERTEX
8
1
10
956.946
20
-146.899
0
VERTEX
8
1
10
949.375
20
-160.129
0
VERTEX
8
1
10
943.548
20
-173.446
0
VERTEX
8
1
10
939.408
20
-186.815
0
VERTEX
8
1
10
936.897
20
-200.254
0
VERTEX
8
1
10
935.981
20
-213.803
0
SEQEND
8
1
0
POINT
8
4
10
935.981
20
-213.803
30
10
50
0
0
POINT
8
2
10
935.981
20
-213.803
0
TEXT
8
2
10
935.981
20
-213.803
40
10.00
1
#290
0
POINT
8
3
10
936.176
20
-217.469
0
POINT
8
3
10
937.957
20
-231.881
0
POINT
8
3
10
941.428
20
-246.643
0
POINT
8
3
10
946.654
20
-261.718
0
POINT
8
3
10
953.69
20
-277.007
0
POINT
8
3
10
962.554
20
-292.36
0
POINT
8
4
10
973.189
20
-307.515
30
10
50
38.9193144457559
0
POINT
8
2
10
973.189
20
-307.515
0
TEXT
8
2
10
973.189
20
-307.515
40
10.00
1
#291
0
POINT
8
2
10
983.539
20
-319.035
0
TEXT
8
2
10
983.539
20
-319.035
40
10.00
1
#292
0
POINT
8
3
10
1055.499
20
-314.755
0
POINT
8
4
10
1172.21
20
-309.27
30
10
50
92.3038919314815
0
POINT
8
2
10
1172.21
20
-309.27
0
TEXT
8
2
10
1172.21
20
-309.27
40
10.00
1
#293
0
POINT
8
3
10
1193.769
20
-308.445
0
POINT
8
3
10
1303.398
20
-305.012
0
POINT
8
2
10
1385.886
20
-303.863
0
TEXT
8
2
10
1385.886
20
-303.863
40
10.00
1
#294
0
POINT
8
2
10
1400.869
20
-343.819
0
TEXT
8
2
10
1400.869
20
-343.819
40
10.00
1
#295
0
POINT
8
4
10
1517.798
20
-343.819
30
10
50
90
0
POINT
8
2
10
1517.798
20
-343.819
0
TEXT
8
2
10
1517.798
20
-343.819
40
10.00
1
#296
0
POINT
8
2
10
1527.798
20
-343.819
0
TEXT
8
2
10
1527.798
20
-343.819
40
10.00
1
#297
0
POINT
8
4
10
1527.798
20
-293.819
30
10
50
180
0
POINT
8
2
10
1527.798
20
-293.819
0
TEXT
8
2
10
1527.798
20
-293.819
40
10.00
1
#298
0
POINT
8
2
10
1527.798
20
-3.727
0
TEXT
8
2
10
1527.798
20
-3.727
40
10.00
1
#299
0
POINT
8
4
10
1517.798
20
-3.817
30
10
50
270
0
POINT
8
2
10
1517.798
20
-3.817
0
TEXT
8
2
10
1517.798
20
-3.817
40
10.00
1
#300
0
POINT
8
4
10
1297.898
20
-1.841
30
10
50
269.484300339399
0
POINT
8
2
10
1297.898
20
-1.841
0
TEXT
8
2
10
1297.898
20
-1.841
40
10.00
1
#301
0
POINT
8
2
10
1092.832
20
0.002
0
TEXT
8
2
10
1092.832
20
0.002
40
10.00
1
#302
0
POINT
8
3
10
1092.887
20
-5.504
0
POINT
8
3
10
1091.888
20
-16.734
0
POINT
8
3
10
1089.499
20
-26.56
0
POINT
8
3
10
1085.883
20
-34.989
0
POINT
8
4
10
1081.141
20
-42.128
30
10
50
321.495881552857
0
POINT
8
2
10
1081.141
20
-42.128
0
TEXT
8
2
10
1081.141
20
-42.128
40
10.00
1
#303
0
POINT
8
3
10
1074.893
20
-49.211
0
POINT
8
3
10
1064.864
20
-58.354
0
POINT
8
3
10
1052.195
20
-67.567
0
POINT
8
4
10
1035.113
20
-77.723
30
10
50
298.623264520416
0
POINT
8
2
10
1035.113
20
-77.723
0
TEXT
8
2
10
1035.113
20
-77.723
40
10.00
1
#304
0
POINT
8
3
10
1021.989
20
-85.314
0
POINT
8
3
10
1005.594
20
-96.403
0
POINT
8
3
10
990.736
20
-108.335
0
POINT
8
3
10
977.616
20
-120.865
0
POINT
8
3
10
966.35
20
-133.769
0
POINT
8
3
10
956.946
20
-146.899
0
POINT
8
3
10
949.375
20
-160.129
0
POINT
8
3
10
943.548
20
-173.446
0
POINT
8
3
10
939.408
20
-186.815
0
POINT
8
3
10
936.897
20
-200.254
0
POINT
8
2
10
935.981
20
-213.803
0
TEXT
8
2
10
935.981
20
-213.803
40
10.00
1
#290
0
LINE
8
7
10
1327.192
20
-191.953
11
1136.583
21
-191.953
0
POINT
8
2
10
1327.192
20
-191.953
0
TEXT
8
2
10
1327.192
20
-191.953
40
10.00
1
#1
0
POINT
8
2
10
1136.583
20
-191.953
0
TEXT
8
2
10
1136.583
20
-191.953
40
10.00
1
#1
0
TEXT
8
1
10
1136.583
20
-180.953
40
10.00
1
PIECE NAME: ONKOL
0
TEXT
8
1
10
1136.583
20
-169.953
40
10.00
1
SIZE: 1
0
TEXT
8
1
10
1136.583
20
-158.953
40
10.00
1
ANNOTATION: 
0
TEXT
8
1
10
1136.583
20
-147.953
40
10.00
1
QUANTITY: 1
0
TEXT
8
1
10
1136.583
20
-136.953
40
10.00
1
MATERIAL: KUMAŢ
0
ENDBLK
0
BLOCK
8
0
2
9
70
0
10
0.0000
20
0.0000
0
POLYLINE
8
1
66
1
70
1
0
VERTEX
8
1
10
640.087
20
-1137.368
0
VERTEX
8
1
10
645.357
20
-1135.289
0
VERTEX
8
1
10
653.981
20
-1130.532
0
VERTEX
8
1
10
662.006
20
-1124.247
0
VERTEX
8
1
10
669.421
20
-1116.349
0
VERTEX
8
1
10
676.153
20
-1106.749
0
VERTEX
8
1
10
682.067
20
-1095.417
0
VERTEX
8
1
10
686.961
20
-1082.458
0
VERTEX
8
1
10
690.586
20
-1068.233
0
VERTEX
8
1
10
693.561
20
-1051.468
0
VERTEX
8
1
10
695.692
20
-1030.232
0
VERTEX
8
1
10
696.479
20
-1004.662
0
VERTEX
8
1
10
695.845
20
-981.575
0
VERTEX
8
1
10
693.85
20
-959.994
0
VERTEX
8
1
10
690.586
20
-941.091
0
VERTEX
8
1
10
688.743
20
-933.042
0
VERTEX
8
1
10
684.388
20
-919.478
0
VERTEX
8
1
10
678.903
20
-907.41
0
VERTEX
8
1
10
672.511
20
-897.04
0
VERTEX
8
1
10
665.386
20
-888.398
0
VERTEX
8
1
10
657.628
20
-881.411
0
VERTEX
8
1
10
649.284
20
-875.996
0
VERTEX
8
1
10
640.317
20
-872.059
0
VERTEX
8
1
10
630.434
20
-881.043
0
VERTEX
8
1
10
640.448
20
-908.332
0
VERTEX
8
1
10
642.576
20
-915.095
0
VERTEX
8
1
10
647.205
20
-933.609
0
VERTEX
8
1
10
650.605
20
-954.103
0
VERTEX
8
1
10
652.726
20
-977.267
0
VERTEX
8
1
10
653.479
20
-1004.662
0
VERTEX
8
1
10
653.359
20
-1015.979
0
VERTEX
8
1
10
652.057
20
-1041.452
0
VERTEX
8
1
10
649.427
20
-1063.478
0
VERTEX
8
1
10
645.546
20
-1083.134
0
VERTEX
8
1
10
640.448
20
-1100.992
0
VERTEX
8
1
10
630.523
20
-1128.045
0
VERTEX
8
1
10
640.087
20
-1137.368
0
SEQEND
8
1
0
POINT
8
2
10
640.087
20
-1137.368
0
TEXT
8
2
10
640.087
20
-1137.368
40
10.00
1
#314
0
POINT
8
3
10
645.357
20
-1135.289
0
POINT
8
3
10
653.981
20
-1130.532
0
POINT
8
3
10
662.006
20
-1124.247
0
POINT
8
3
10
669.421
20
-1116.349
0
POINT
8
3
10
676.153
20
-1106.749
0
POINT
8
3
10
682.067
20
-1095.417
0
POINT
8
3
10
686.961
20
-1082.458
0
POINT
8
4
10
690.586
20
-1068.233
30
10
50
167.596722165829
0
POINT
8
2
10
690.586
20
-1068.233
0
TEXT
8
2
10
690.586
20
-1068.233
40
10.00
1
#315
0
POINT
8
3
10
693.561
20
-1051.468
0
POINT
8
3
10
695.692
20
-1030.232
0
POINT
8
4
10
696.479
20
-1004.662
30
10
50
180
0
POINT
8
2
10
696.479
20
-1004.662
0
TEXT
8
2
10
696.479
20
-1004.662
40
10.00
1
#316
0
POINT
8
3
10
695.845
20
-981.575
0
POINT
8
3
10
693.85
20
-959.994
0
POINT
8
4
10
690.586
20
-941.091
30
10
50
192.397682093667
0
POINT
8
2
10
690.586
20
-941.091
0
TEXT
8
2
10
690.586
20
-941.091
40
10.00
1
#317
0
POINT
8
3
10
688.743
20
-933.042
0
POINT
8
3
10
684.388
20
-919.478
0
POINT
8
3
10
678.903
20
-907.41
0
POINT
8
3
10
672.511
20
-897.04
0
POINT
8
3
10
665.386
20
-888.398
0
POINT
8
3
10
657.628
20
-881.411
0
POINT
8
3
10
649.284
20
-875.996
0
POINT
8
2
10
640.317
20
-872.059
0
TEXT
8
2
10
640.317
20
-872.059
40
10.00
1
#318
0
POINT
8
2
10
630.434
20
-881.043
0
TEXT
8
2
10
630.434
20
-881.043
40
10.00
1
#319
0
POINT
8
4
10
640.448
20
-908.332
30
10
50
18.4711890328349
0
POINT
8
2
10
640.448
20
-908.332
0
TEXT
8
2
10
640.448
20
-908.332
40
10.00
1
#320
0
POINT
8
3
10
642.576
20
-915.095
0
POINT
8
3
10
647.205
20
-933.609
0
POINT
8
3
10
650.605
20
-954.103
0
POINT
8
3
10
652.726
20
-977.267
0
POINT
8
4
10
653.479
20
-1004.662
30
10
50
0
0
POINT
8
2
10
653.479
20
-1004.662
0
TEXT
8
2
10
653.479
20
-1004.662
40
10.00
1
#321
0
POINT
8
3
10
653.359
20
-1015.979
0
POINT
8
3
10
652.057
20
-1041.452
0
POINT
8
3
10
649.427
20
-1063.478
0
POINT
8
3
10
645.546
20
-1083.134
0
POINT
8
4
10
640.448
20
-1100.992
30
10
50
341.534246023281
0
POINT
8
2
10
640.448
20
-1100.992
0
TEXT
8
2
10
640.448
20
-1100.992
40
10.00
1
#322
0
POINT
8
2
10
630.523
20
-1128.045
0
TEXT
8
2
10
630.523
20
-1128.045
40
10.00
1
#323
0
POINT
8
2
10
640.087
20
-1137.368
0
TEXT
8
2
10
640.087
20
-1137.368
40
10.00
1
#314
0
LINE
8
7
10
676.661
20
-994.748
11
668.994
21
-994.748
0
POINT
8
2
10
676.661
20
-994.748
0
TEXT
8
2
10
676.661
20
-994.748
40
10.00
1
#1
0
POINT
8
2
10
668.994
20
-994.748
0
TEXT
8
2
10
668.994
20
-994.748
40
10.00
1
#1
0
TEXT
8
1
10
668.994
20
-983.748
40
10.00
1
PIECE NAME: YKAYAK
0
TEXT
8
1
10
668.994
20
-972.748
40
10.00
1
SIZE: 1
0
TEXT
8
1
10
668.994
20
-961.748
40
10.00
1
ANNOTATION: 
0
TEXT
8
1
10
668.994
20
-950.748
40
10.00
1
QUANTITY: 1
0
TEXT
8
1
10
668.994
20
-939.748
40
10.00
1
MATERIAL: KUMAŢ
0
ENDBLK
0
BLOCK
8
0
2
10
70
0
10
0.0000
20
0.0000
0
POLYLINE
8
1
66
1
70
1
0
VERTEX
8
1
10
673.922
20
-1188.544
0
VERTEX
8
1
10
674.302
20
-1199.204
0
VERTEX
8
1
10
676.269
20
-1212.526
0
VERTEX
8
1
10
766.664
20
-1284.046
0
VERTEX
8
1
10
767.975
20
-1281.78
0
VERTEX
8
1
10
776.597
20
-1265.019
0
VERTEX
8
1
10
784.393
20
-1246.227
0
VERTEX
8
1
10
791.465
20
-1224.76
0
VERTEX
8
1
10
798.03
20
-1199.277
0
VERTEX
8
1
10
804.82
20
-1165.365
0
VERTEX
8
1
10
805.861
20
-1159.083
0
VERTEX
8
1
10
811.224
20
-1120.993
0
VERTEX
8
1
10
815.158
20
-1081.376
0
VERTEX
8
1
10
817.621
20
-1040.101
0
VERTEX
8
1
10
818.556
20
-997.024
0
VERTEX
8
1
10
818.158
20
-970.629
0
VERTEX
8
1
10
816.279
20
-928.302
0
VERTEX
8
1
10
812.942
20
-888.258
0
VERTEX
8
1
10
808.202
20
-850.219
0
VERTEX
8
1
10
802.106
20
-813.944
0
VERTEX
8
1
10
797.027
20
-790.524
0
VERTEX
8
1
10
790.304
20
-765.432
0
VERTEX
8
1
10
783.149
20
-744.479
0
VERTEX
8
1
10
775.309
20
-726.225
0
VERTEX
8
1
10
766.664
20
-710.002
0
VERTEX
8
1
10
676.27
20
-781.522
0
VERTEX
8
1
10
674.352
20
-793.522
0
VERTEX
8
1
10
673.937
20
-806.482
0
VERTEX
8
1
10
675.162
20
-820.57
0
VERTEX
8
1
10
678.251
20
-836.341
0
VERTEX
8
1
10
683.738
20
-855.08
0
VERTEX
8
1
10
694.347
20
-883.648
0
VERTEX
8
1
10
697.591
20
-884.975
0
VERTEX
8
1
10
704.721
20
-889.119
0
VERTEX
8
1
10
711.235
20
-894.798
0
VERTEX
8
1
10
717.164
20
-902.187
0
VERTEX
8
1
10
722.509
20
-911.57
0
VERTEX
8
1
10
727.187
20
-923.273
0
VERTEX
8
1
10
731.079
20
-937.709
0
VERTEX
8
1
10
733.62
20
-951.802
0
VERTEX
8
1
10
735.729
20
-972.086
0
VERTEX
8
1
10
736.516
20
-997.024
0
VERTEX
8
1
10
736.014
20
-1017.128
0
VERTEX
8
1
10
734.177
20
-1038.163
0
VERTEX
8
1
10
731.079
20
-1056.339
0
VERTEX
8
1
10
729.524
20
-1062.848
0
VERTEX
8
1
10
725.267
20
-1076.096
0
VERTEX
8
1
10
720.288
20
-1086.773
0
VERTEX
8
1
10
714.688
20
-1095.269
0
VERTEX
8
1
10
708.513
20
-1101.895
0
VERTEX
8
1
10
701.759
20
-1106.885
0
VERTEX
8
1
10
694.347
20
-1110.4
0
VERTEX
8
1
10
682.909
20
-1141.644
0
VERTEX
8
1
10
677.732
20
-1159.708
0
VERTEX
8
1
10
674.918
20
-1174.859
0
VERTEX
8
1
10
673.922
20
-1188.544
0
SEQEND
8
1
0
POINT
8
2
10
673.922
20
-1188.544
0
TEXT
8
2
10
673.922
20
-1188.544
40
10.00
1
#330
0
POINT
8
3
10
674.302
20
-1199.204
0
POINT
8
2
10
676.269
20
-1212.526
0
TEXT
8
2
10
676.269
20
-1212.526
40
10.00
1
#331
0
POINT
8
2
10
766.664
20
-1284.046
0
TEXT
8
2
10
766.664
20
-1284.046
40
10.00
1
#332
0
POINT
8
3
10
767.975
20
-1281.78
0
POINT
8
3
10
776.597
20
-1265.019
0
POINT
8
3
10
784.393
20
-1246.227
0
POINT
8
3
10
791.465
20
-1224.76
0
POINT
8
3
10
798.03
20
-1199.277
0
POINT
8
3
10
804.82
20
-1165.365
0
POINT
8
3
10
805.861
20
-1159.083
0
POINT
8
3
10
811.224
20
-1120.993
0
POINT
8
3
10
815.158
20
-1081.376
0
POINT
8
3
10
817.621
20
-1040.101
0
POINT
8
4
10
818.556
20
-997.024
30
10
50
180
0
POINT
8
2
10
818.556
20
-997.024
0
TEXT
8
2
10
818.556
20
-997.024
40
10.00
1
#333
0
POINT
8
3
10
818.158
20
-970.629
0
POINT
8
3
10
816.279
20
-928.302
0
POINT
8
3
10
812.942
20
-888.258
0
POINT
8
3
10
808.202
20
-850.219
0
POINT
8
3
10
802.106
20
-813.944
0
POINT
8
3
10
797.027
20
-790.524
0
POINT
8
3
10
790.304
20
-765.432
0
POINT
8
3
10
783.149
20
-744.479
0
POINT
8
3
10
775.309
20
-726.225
0
POINT
8
2
10
766.664
20
-710.002
0
TEXT
8
2
10
766.664
20
-710.002
40
10.00
1
#334
0
POINT
8
2
10
676.27
20
-781.522
0
TEXT
8
2
10
676.27
20
-781.522
40
10.00
1
#335
0
POINT
8
3
10
674.352
20
-793.522
0
POINT
8
3
10
673.937
20
-806.482
0
POINT
8
3
10
675.162
20
-820.57
0
POINT
8
3
10
678.251
20
-836.341
0
POINT
8
3
10
683.738
20
-855.08
0
POINT
8
2
10
694.347
20
-883.648
0
TEXT
8
2
10
694.347
20
-883.648
40
10.00
1
#336
0
POINT
8
3
10
697.591
20
-884.975
0
POINT
8
3
10
704.721
20
-889.119
0
POINT
8
3
10
711.235
20
-894.798
0
POINT
8
3
10
717.164
20
-902.187
0
POINT
8
3
10
722.509
20
-911.57
0
POINT
8
3
10
727.187
20
-923.273
0
POINT
8
4
10
731.079
20
-937.709
30
10
50
12.4212959057958
0
POINT
8
2
10
731.079
20
-937.709
0
TEXT
8
2
10
731.079
20
-937.709
40
10.00
1
#337
0
POINT
8
3
10
733.62
20
-951.802
0
POINT
8
3
10
735.729
20
-972.086
0
POINT
8
4
10
736.516
20
-997.024
30
10
50
0
0
POINT
8
2
10
736.516
20
-997.024
0
TEXT
8
2
10
736.516
20
-997.024
40
10.00
1
#338
0
POINT
8
3
10
736.014
20
-1017.128
0
POINT
8
3
10
734.177
20
-1038.163
0
POINT
8
4
10
731.079
20
-1056.339
30
10
50
347.58429963325
0
POINT
8
2
10
731.079
20
-1056.339
0
TEXT
8
2
10
731.079
20
-1056.339
40
10.00
1
#339
0
POINT
8
3
10
729.524
20
-1062.848
0
POINT
8
3
10
725.267
20
-1076.096
0
POINT
8
3
10
720.288
20
-1086.773
0
POINT
8
3
10
714.688
20
-1095.269
0
POINT
8
3
10
708.513
20
-1101.895
0
POINT
8
3
10
701.759
20
-1106.885
0
POINT
8
2
10
694.347
20
-1110.4
0
TEXT
8
2
10
694.347
20
-1110.4
40
10.00
1
#340
0
POINT
8
3
10
682.909
20
-1141.644
0
POINT
8
3
10
677.732
20
-1159.708
0
POINT
8
3
10
674.918
20
-1174.859
0
POINT
8
2
10
673.922
20
-1188.544
0
TEXT
8
2
10
673.922
20
-1188.544
40
10.00
1
#330
0
LINE
8
7
10
767.009
20
-861.13
11
725.46
21
-861.13
0
POINT
8
2
10
767.009
20
-861.13
0
TEXT
8
2
10
767.009
20
-861.13
40
10.00
1
#1
0
POINT
8
2
10
725.46
20
-861.13
0
TEXT
8
2
10
725.46
20
-861.13
40
10.00
1
#1
0
TEXT
8
1
10
725.46
20
-850.13
40
10.00
1
PIECE NAME: YAKA
0
TEXT
8
1
10
725.46
20
-839.13
40
10.00
1
SIZE: 1
0
TEXT
8
1
10
725.46
20
-828.13
40
10.00
1
ANNOTATION: 
0
TEXT
8
1
10
725.46
20
-817.13
40
10.00
1
QUANTITY: 1
0
TEXT
8
1
10
725.46
20
-806.13
40
10.00
1
MATERIAL: KUMAŢ
0
ENDBLK
0
BLOCK
8
0
2
11
70
0
10
0.0000
20
0.0000
0
POLYLINE
8
1
66
1
70
1
0
VERTEX
8
1
10
875.671
20
-992.756
0
VERTEX
8
1
10
1275.671
20
-992.81
0
VERTEX
8
1
10
1598.082
20
-992.854
0
VERTEX
8
1
10
1613.083
20
-1047.855
0
VERTEX
8
1
10
1985.721
20
-1047.855
0
VERTEX
8
1
10
1995.721
20
-1047.855
0
VERTEX
8
1
10
1995.721
20
-982.855
0
VERTEX
8
1
10
1995.338
20
-922.989
0
VERTEX
8
1
10
1993.515
20
-840.692
0
VERTEX
8
1
10
1990.256
20
-763.649
0
VERTEX
8
1
10
1985.614
20
-690.815
0
VERTEX
8
1
10
1979.632
20
-621.535
0
VERTEX
8
1
10
1969.677
20
-622.483
0
VERTEX
8
1
10
1490.82
20
-668.097
0
VERTEX
8
1
10
1488.923
20
-648.187
0
VERTEX
8
1
10
1319.689
20
-664.307
0
VERTEX
8
1
10
1321.586
20
-684.217
0
VERTEX
8
1
10
1304.663
20
-685.829
0
VERTEX
8
1
10
1274.798
20
-688.674
0
VERTEX
8
1
10
1244.932
20
-691.519
0
VERTEX
8
1
10
1149.557
20
-700.604
0
VERTEX
8
1
10
1149.941
20
-705.272
0
VERTEX
8
1
10
1149.301
20
-712.288
0
VERTEX
8
1
10
1147.175
20
-718.557
0
VERTEX
8
1
10
1143.525
20
-724.285
0
VERTEX
8
1
10
1138.147
20
-729.582
0
VERTEX
8
1
10
1130.689
20
-734.493
0
VERTEX
8
1
10
1120.604
20
-739.001
0
VERTEX
8
1
10
1107.066
20
-743.062
0
VERTEX
8
1
10
1086.439
20
-747.112
0
VERTEX
8
1
10
1070.998
20
-749.211
0
VERTEX
8
1
10
1046.693
20
-751.197
0
VERTEX
8
1
10
1022.548
20
-751.578
0
VERTEX
8
1
10
998.701
20
-750.37
0
VERTEX
8
1
10
975.365
20
-747.599
0
VERTEX
8
1
10
952.711
20
-743.313
0
VERTEX
8
1
10
930.869
20
-737.572
0
VERTEX
8
1
10
909.923
20
-730.434
0
VERTEX
8
1
10
847.09
20
-895.628
0
VERTEX
8
1
10
852.49
20
-897.11
0
VERTEX
8
1
10
857.657
20
-900.096
0
VERTEX
8
1
10
862.235
20
-904.662
0
VERTEX
8
1
10
866.28
20
-911.149
0
VERTEX
8
1
10
869.743
20
-920.086
0
VERTEX
8
1
10
872.467
20
-932.167
0
VERTEX
8
1
10
874.275
20
-948.635
0
VERTEX
8
1
10
875.033
20
-975.765
0
VERTEX
8
1
10
875.671
20
-992.756
0
SEQEND
8
1
0
POINT
8
2
10
875.671
20
-992.756
0
TEXT
8
2
10
875.671
20
-992.756
40
10.00
1
#345
0
POINT
8
4
10
1275.671
20
-992.81
30
10
50
90
0
POINT
8
2
10
1275.671
20
-992.81
0
TEXT
8
2
10
1275.671
20
-992.81
40
10.00
1
#346
0
POINT
8
2
10
1598.082
20
-992.854
0
TEXT
8
2
10
1598.082
20
-992.854
40
10.00
1
#347
0
POINT
8
2
10
1613.083
20
-1047.855
0
TEXT
8
2
10
1613.083
20
-1047.855
40
10.00
1
#348
0
POINT
8
4
10
1985.721
20
-1047.855
30
10
50
90
0
POINT
8
2
10
1985.721
20
-1047.855
0
TEXT
8
2
10
1985.721
20
-1047.855
40
10.00
1
#349
0
POINT
8
2
10
1995.721
20
-1047.855
0
TEXT
8
2
10
1995.721
20
-1047.855
40
10.00
1
#350
0
POINT
8
4
10
1995.721
20
-982.855
30
10
50
180
0
POINT
8
2
10
1995.721
20
-982.855
0
TEXT
8
2
10
1995.721
20
-982.855
40
10.00
1
#351
0
POINT
8
3
10
1995.338
20
-922.989
0
POINT
8
3
10
1993.515
20
-840.692
0
POINT
8
3
10
1990.256
20
-763.649
0
POINT
8
3
10
1985.614
20
-690.815
0
POINT
8
2
10
1979.632
20
-621.535
0
TEXT
8
2
10
1979.632
20
-621.535
40
10.00
1
#352
0
POINT
8
4
10
1969.677
20
-622.483
30
10
50
275.434627660957
0
POINT
8
2
10
1969.677
20
-622.483
0
TEXT
8
2
10
1969.677
20
-622.483
40
10.00
1
#353
0
POINT
8
2
10
1490.82
20
-668.097
0
TEXT
8
2
10
1490.82
20
-668.097
40
10.00
1
#354
0
POINT
8
2
10
1488.923
20
-648.187
0
TEXT
8
2
10
1488.923
20
-648.187
40
10.00
1
#355
0
POINT
8
2
10
1319.689
20
-664.307
0
TEXT
8
2
10
1319.689
20
-664.307
40
10.00
1
#356
0
POINT
8
2
10
1321.586
20
-684.217
0
TEXT
8
2
10
1321.586
20
-684.217
40
10.00
1
#357
0
POINT
8
4
10
1304.663
20
-685.829
30
10
50
275.434627660955
0
POINT
8
2
10
1304.663
20
-685.829
0
TEXT
8
2
10
1304.663
20
-685.829
40
10.00
1
#358
0
POINT
8
2
10
1274.798
20
-688.674
0
TEXT
8
2
10
1274.798
20
-688.674
40
10.00
1
#359
0
POINT
8
4
10
1244.932
20
-691.519
30
10
50
275.440332031006
0
POINT
8
2
10
1244.932
20
-691.519
0
TEXT
8
2
10
1244.932
20
-691.519
40
10.00
1
#360
0
POINT
8
2
10
1149.557
20
-700.604
0
TEXT
8
2
10
1149.557
20
-700.604
40
10.00
1
#361
0
POINT
8
3
10
1149.941
20
-705.272
0
POINT
8
3
10
1149.301
20
-712.288
0
POINT
8
3
10
1147.175
20
-718.557
0
POINT
8
3
10
1143.525
20
-724.285
0
POINT
8
3
10
1138.147
20
-729.582
0
POINT
8
3
10
1130.689
20
-734.493
0
POINT
8
3
10
1120.604
20
-739.001
0
POINT
8
3
10
1107.066
20
-743.062
0
POINT
8
4
10
1086.439
20
-747.112
30
10
50
280.672802069684
0
POINT
8
2
10
1086.439
20
-747.112
0
TEXT
8
2
10
1086.439
20
-747.112
40
10.00
1
#362
0
POINT
8
3
10
1070.998
20
-749.211
0
POINT
8
3
10
1046.693
20
-751.197
0
POINT
8
3
10
1022.548
20
-751.578
0
POINT
8
3
10
998.701
20
-750.37
0
POINT
8
3
10
975.365
20
-747.599
0
POINT
8
3
10
952.711
20
-743.313
0
POINT
8
3
10
930.869
20
-737.572
0
POINT
8
2
10
909.923
20
-730.434
0
TEXT
8
2
10
909.923
20
-730.434
40
10.00
1
#363
0
POINT
8
2
10
847.09
20
-895.628
0
TEXT
8
2
10
847.09
20
-895.628
40
10.00
1
#364
0
POINT
8
3
10
852.49
20
-897.11
0
POINT
8
3
10
857.657
20
-900.096
0
POINT
8
3
10
862.235
20
-904.662
0
POINT
8
3
10
866.28
20
-911.149
0
POINT
8
3
10
869.743
20
-920.086
0
POINT
8
3
10
872.467
20
-932.167
0
POINT
8
3
10
874.275
20
-948.635
0
POINT
8
3
10
875.033
20
-975.765
0
POINT
8
2
10
875.671
20
-992.756
0
TEXT
8
2
10
875.671
20
-992.756
40
10.00
1
#345
0
LINE
8
7
10
1313.192
20
-831.147
11
1086.592
21
-831.147
0
POINT
8
2
10
1313.192
20
-831.147
0
TEXT
8
2
10
1313.192
20
-831.147
40
10.00
1
#1
0
POINT
8
2
10
1086.592
20
-831.147
0
TEXT
8
2
10
1086.592
20
-831.147
40
10.00
1
#1
0
TEXT
8
1
10
1086.592
20
-820.147
40
10.00
1
PIECE NAME: ARKA
0
TEXT
8
1
10
1086.592
20
-809.147
40
10.00
1
SIZE: 1
0
TEXT
8
1
10
1086.592
20
-798.147
40
10.00
1
ANNOTATION: 
0
TEXT
8
1
10
1086.592
20
-787.147
40
10.00
1
QUANTITY: 1
0
TEXT
8
1
10
1086.592
20
-776.147
40
10.00
1
MATERIAL: KUMAŢ
0
ENDBLK
0
BLOCK
8
0
2
12
70
0
10
0.0000
20
0.0000
0
POLYLINE
8
1
66
1
70
1
0
VERTEX
8
1
10
539.298
20
-1552.633
0
VERTEX
8
1
10
539.298
20
-1622.633
0
VERTEX
8
1
10
2359.298
20
-1622.633
0
VERTEX
8
1
10
2359.298
20
-1552.633
0
VERTEX
8
1
10
539.298
20
-1552.633
0
SEQEND
8
1
0
POINT
8
2
10
539.298
20
-1552.633
0
TEXT
8
2
10
539.298
20
-1552.633
40
10.00
1
#372
0
POINT
8
2
10
539.298
20
-1622.633
0
TEXT
8
2
10
539.298
20
-1622.633
40
10.00
1
#373
0
POINT
8
2
10
2359.298
20
-1622.633
0
TEXT
8
2
10
2359.298
20
-1622.633
40
10.00
1
#374
0
POINT
8
2
10
2359.298
20
-1552.633
0
TEXT
8
2
10
2359.298
20
-1552.633
40
10.00
1
#375
0
POINT
8
2
10
539.298
20
-1552.633
0
TEXT
8
2
10
539.298
20
-1552.633
40
10.00
1
#372
0
LINE
8
7
10
1749.298
20
-1587.633
11
1149.298
21
-1587.633
0
POINT
8
2
10
1749.298
20
-1587.633
0
TEXT
8
2
10
1749.298
20
-1587.633
40
10.00
1
#1
0
POINT
8
2
10
1149.298
20
-1587.633
0
TEXT
8
2
10
1149.298
20
-1587.633
40
10.00
1
#1
0
TEXT
8
1
10
1149.298
20
-1576.633
40
10.00
1
PIECE NAME: KEMER
0
TEXT
8
1
10
1149.298
20
-1565.633
40
10.00
1
SIZE: 1
0
TEXT
8
1
10
1149.298
20
-1554.633
40
10.00
1
ANNOTATION: 
0
TEXT
8
1
10
1149.298
20
-1543.633
40
10.00
1
QUANTITY: 1
0
TEXT
8
1
10
1149.298
20
-1532.633
40
10.00
1
MATERIAL: KUMAŢ
0
ENDBLK
0
ENDSEC
0
SECTION
2
ENTITIES
0
INSERT
8
1
2
0
10
0
20
0
0
INSERT
8
1
2
1
10
0
20
0
0
INSERT
8
1
2
2
10
0
20
0
0
INSERT
8
1
2
3
10
0
20
0
0
INSERT
8
1
2
4
10
0
20
0
0
INSERT
8
1
2
5
10
0
20
0
0
INSERT
8
1
2
6
10
0
20
0
0
INSERT
8
1
2
7
10
0
20
0
0
INSERT
8
1
2
8
10
0
20
0
0
INSERT
8
1
2
9
10
0
20
0
0
INSERT
8
1
2
10
10
0
20
0
0
INSERT
8
1
2
11
10
0
20
0
0
INSERT
8
1
2
12
10
0
20
0
0
TEXT
8
1
10
0
20
-2013.706
40
10.00
1
STYLE NAME: 262-3061 KB ÇÝN
0
TEXT
8
1
10
0
20
-2024.706
40
10.00
1
CREATION DATE: 23-02-2026
0
TEXT
8
1
10
0
20
-2035.706
40
10.00
1
CREATION TIME: 11:57:12
0
TEXT
8
1
10
0
20
-2046.706
40
10.00
1
AUTHOR: GEMINI CAD SYSTEMS
0
TEXT
8
1
10
0
20
-2057.706
40
10.00
1
PRODUCT: GEMINI PATTERN DESIGNER
0
TEXT
8
1
10
0
20
-2068.706
40
10.00
1
SAMPLE SIZE: 1
0
TEXT
8
1
10
0
20
-2079.706
40
10.00
1
GRADE RULE TABLE: 262-3061 KB ÇÝN
0
TEXT
8
1
10
0
20
-2090.706
40
10.00
1
UNITS: METRIC
0
ENDSEC
0
EOF
